<?xml version="1.0" encoding="UTF-8" standalone="no"?>
<!DOCTYPE svg PUBLIC "-//W3C//DTD SVG 1.1//EN"
 "http://www.w3.org/Graphics/SVG/1.1/DTD/svg11.dtd">
<!-- Generated by graphviz version 2.38.0 (20140413.2041)
 -->
<!-- Title: snakemake_dag Pages: 1 -->
<svg width="1094pt" height="620pt"
 viewBox="0.00 0.00 1094.00 620.00" xmlns="http://www.w3.org/2000/svg" xmlns:xlink="http://www.w3.org/1999/xlink">
<g id="graph0" class="graph" transform="scale(1 1) rotate(0) translate(4 616)">
<title>snakemake_dag</title>
<polygon fill="white" stroke="none" points="-4,4 -4,-616 1090,-616 1090,4 -4,4"/>
<!-- 0 -->
<g id="node1" class="node"><title>0</title>
<path fill="none" stroke="#a7d856" stroke-width="2" d="M570,-36C570,-36 498,-36 498,-36 492,-36 486,-30 486,-24 486,-24 486,-12 486,-12 486,-6 492,-0 498,-0 498,-0 570,-0 570,-0 576,-0 582,-6 582,-12 582,-12 582,-24 582,-24 582,-30 576,-36 570,-36"/>
<text text-anchor="middle" x="534" y="-15.5" font-family="sans" font-size="10.00">make_summary</text>
</g>
<!-- 1 -->
<g id="node2" class="node"><title>1</title>
<path fill="none" stroke="#56c1d8" stroke-width="2" d="M84,-108C84,-108 12,-108 12,-108 6,-108 0,-102 0,-96 0,-96 0,-84 0,-84 0,-78 6,-72 12,-72 12,-72 84,-72 84,-72 90,-72 96,-78 96,-84 96,-84 96,-96 96,-96 96,-102 90,-108 84,-108"/>
<text text-anchor="middle" x="48" y="-87.5" font-family="sans" font-size="10.00">make_rulegraph</text>
</g>
<!-- 1&#45;&gt;0 -->
<g id="edge3" class="edge"><title>1&#45;&gt;0</title>
<path fill="none" stroke="grey" stroke-width="2" d="M96.2408,-75.0541C100.87,-73.9328 105.512,-72.8911 110,-72 239.441,-46.3016 393.725,-30.7261 475.822,-23.614"/>
<polygon fill="grey" stroke="grey" stroke-width="2" points="476.287,-27.0871 485.952,-22.7477 475.691,-20.1125 476.287,-27.0871"/>
</g>
<!-- 2 -->
<g id="node3" class="node"><title>2</title>
<path fill="none" stroke="#56d8c1" stroke-width="2" d="M222.5,-612C222.5,-612 109.5,-612 109.5,-612 103.5,-612 97.5,-606 97.5,-600 97.5,-600 97.5,-588 97.5,-588 97.5,-582 103.5,-576 109.5,-576 109.5,-576 222.5,-576 222.5,-576 228.5,-576 234.5,-582 234.5,-588 234.5,-588 234.5,-600 234.5,-600 234.5,-606 228.5,-612 222.5,-612"/>
<text text-anchor="middle" x="166" y="-591.5" font-family="sans" font-size="10.00">get_codon_variant_table</text>
</g>
<!-- 2&#45;&gt;0 -->
<g id="edge14" class="edge"><title>2&#45;&gt;0</title>
<path fill="none" stroke="grey" stroke-width="2" d="M157.501,-575.993C145.228,-549.822 124,-497.79 124,-451 124,-451 124,-451 124,-161 124,-115.41 137.335,-97.6857 175,-72 222.815,-39.3925 386.906,-26.2901 475.747,-21.4909"/>
<polygon fill="grey" stroke="grey" stroke-width="2" points="476.13,-24.9758 485.934,-20.9592 475.765,-17.9853 476.13,-24.9758"/>
</g>
<!-- 3 -->
<g id="node4" class="node"><title>3</title>
<path fill="none" stroke="#88d856" stroke-width="2" d="M298.5,-468C298.5,-468 179.5,-468 179.5,-468 173.5,-468 167.5,-462 167.5,-456 167.5,-456 167.5,-444 167.5,-444 167.5,-438 173.5,-432 179.5,-432 179.5,-432 298.5,-432 298.5,-432 304.5,-432 310.5,-438 310.5,-444 310.5,-444 310.5,-456 310.5,-456 310.5,-462 304.5,-468 298.5,-468"/>
<text text-anchor="middle" x="239" y="-447.5" font-family="sans" font-size="10.00">aggregate_variant_counts</text>
</g>
<!-- 2&#45;&gt;3 -->
<g id="edge16" class="edge"><title>2&#45;&gt;3</title>
<path fill="none" stroke="grey" stroke-width="2" d="M166.736,-575.918C168.18,-557.215 172.444,-526.846 185,-504 190.921,-493.226 199.73,-483.247 208.523,-474.921"/>
<polygon fill="grey" stroke="grey" stroke-width="2" points="211.072,-477.336 216.174,-468.051 206.395,-472.128 211.072,-477.336"/>
</g>
<!-- 16 -->
<g id="node17" class="node"><title>16</title>
<path fill="none" stroke="#d85656" stroke-width="2" d="M271.5,-540C271.5,-540 206.5,-540 206.5,-540 200.5,-540 194.5,-534 194.5,-528 194.5,-528 194.5,-516 194.5,-516 194.5,-510 200.5,-504 206.5,-504 206.5,-504 271.5,-504 271.5,-504 277.5,-504 283.5,-510 283.5,-516 283.5,-516 283.5,-528 283.5,-528 283.5,-534 277.5,-540 271.5,-540"/>
<text text-anchor="middle" x="239" y="-519.5" font-family="sans" font-size="10.00">count_variants</text>
</g>
<!-- 2&#45;&gt;16 -->
<g id="edge36" class="edge"><title>2&#45;&gt;16</title>
<path fill="none" stroke="grey" stroke-width="2" d="M184.045,-575.697C193.062,-567.05 204.118,-556.449 213.943,-547.027"/>
<polygon fill="grey" stroke="grey" stroke-width="2" points="216.367,-549.552 221.163,-540.104 211.522,-544.499 216.367,-549.552"/>
</g>
<!-- 3&#45;&gt;0 -->
<g id="edge8" class="edge"><title>3&#45;&gt;0</title>
<path fill="none" stroke="grey" stroke-width="2" d="M222.292,-431.812C199.646,-406.622 162,-357.199 162,-307 162,-307 162,-307 162,-161 162,-112.279 184.692,-97.8339 226,-72 266.724,-46.5312 398.44,-30.9403 475.808,-23.7462"/>
<polygon fill="grey" stroke="grey" stroke-width="2" points="476.246,-27.2209 485.887,-22.8279 475.611,-20.2498 476.246,-27.2209"/>
</g>
<!-- 4 -->
<g id="node5" class="node"><title>4</title>
<path fill="none" stroke="#d8bc56" stroke-width="2" d="M297.5,-324C297.5,-324 202.5,-324 202.5,-324 196.5,-324 190.5,-318 190.5,-312 190.5,-312 190.5,-300 190.5,-300 190.5,-294 196.5,-288 202.5,-288 202.5,-288 297.5,-288 297.5,-288 303.5,-288 309.5,-294 309.5,-300 309.5,-300 309.5,-312 309.5,-312 309.5,-318 303.5,-324 297.5,-324"/>
<text text-anchor="middle" x="250" y="-303.5" font-family="sans" font-size="10.00">counts_to_cells_ratio</text>
</g>
<!-- 3&#45;&gt;4 -->
<g id="edge18" class="edge"><title>3&#45;&gt;4</title>
<path fill="none" stroke="grey" stroke-width="2" d="M240.327,-431.871C242.202,-407.67 245.646,-363.211 247.878,-334.393"/>
<polygon fill="grey" stroke="grey" stroke-width="2" points="251.386,-334.43 248.668,-324.189 244.406,-333.889 251.386,-334.43"/>
</g>
<!-- 5 -->
<g id="node6" class="node"><title>5</title>
<path fill="none" stroke="#56d8d8" stroke-width="2" d="M496.5,-396C496.5,-396 419.5,-396 419.5,-396 413.5,-396 407.5,-390 407.5,-384 407.5,-384 407.5,-372 407.5,-372 407.5,-366 413.5,-360 419.5,-360 419.5,-360 496.5,-360 496.5,-360 502.5,-360 508.5,-366 508.5,-372 508.5,-372 508.5,-384 508.5,-384 508.5,-390 502.5,-396 496.5,-396"/>
<text text-anchor="middle" x="458" y="-375.5" font-family="sans" font-size="10.00">counts_to_scores</text>
</g>
<!-- 3&#45;&gt;5 -->
<g id="edge22" class="edge"><title>3&#45;&gt;5</title>
<path fill="none" stroke="grey" stroke-width="2" d="M292.293,-431.966C324.214,-421.763 364.876,-408.766 397.933,-398.2"/>
<polygon fill="grey" stroke="grey" stroke-width="2" points="399.024,-401.525 407.484,-395.147 396.893,-394.858 399.024,-401.525"/>
</g>
<!-- 4&#45;&gt;0 -->
<g id="edge13" class="edge"><title>4&#45;&gt;0</title>
<path fill="none" stroke="grey" stroke-width="2" d="M243.364,-287.92C228.206,-245.739 196.252,-135.462 249,-72 277.228,-38.0384 400.69,-25.7328 475.548,-21.3518"/>
<polygon fill="grey" stroke="grey" stroke-width="2" points="475.983,-24.8332 485.774,-20.7848 475.595,-17.8439 475.983,-24.8332"/>
</g>
<!-- 5&#45;&gt;0 -->
<g id="edge1" class="edge"><title>5&#45;&gt;0</title>
<path fill="none" stroke="grey" stroke-width="2" d="M427.039,-359.794C363.884,-322.383 230.357,-230.071 282,-144 323.295,-75.1749 415.431,-43.2008 476.109,-29.1282"/>
<polygon fill="grey" stroke="grey" stroke-width="2" points="476.935,-32.53 485.936,-26.9411 475.415,-25.6972 476.935,-32.53"/>
</g>
<!-- 6 -->
<g id="node7" class="node"><title>6</title>
<path fill="none" stroke="#bed856" stroke-width="2" d="M532.5,-324C532.5,-324 429.5,-324 429.5,-324 423.5,-324 417.5,-318 417.5,-312 417.5,-312 417.5,-300 417.5,-300 417.5,-294 423.5,-288 429.5,-288 429.5,-288 532.5,-288 532.5,-288 538.5,-288 544.5,-294 544.5,-300 544.5,-300 544.5,-312 544.5,-312 544.5,-318 538.5,-324 532.5,-324"/>
<text text-anchor="middle" x="481" y="-303.5" font-family="sans" font-size="10.00">scores_to_frac_escape</text>
</g>
<!-- 5&#45;&gt;6 -->
<g id="edge23" class="edge"><title>5&#45;&gt;6</title>
<path fill="none" stroke="grey" stroke-width="2" d="M463.685,-359.697C466.248,-351.898 469.333,-342.509 472.185,-333.829"/>
<polygon fill="grey" stroke="grey" stroke-width="2" points="475.584,-334.697 475.38,-324.104 468.933,-332.512 475.584,-334.697"/>
</g>
<!-- 6&#45;&gt;0 -->
<g id="edge2" class="edge"><title>6&#45;&gt;0</title>
<path fill="none" stroke="grey" stroke-width="2" d="M453.2,-287.872C441.229,-278.837 428.505,-266.587 422,-252 415.484,-237.387 412.98,-229.215 422,-216 446.753,-179.734 487.055,-214.668 514,-180 544.075,-141.304 542.507,-80.8325 538.416,-46.063"/>
<polygon fill="grey" stroke="grey" stroke-width="2" points="541.885,-45.6015 537.098,-36.1502 534.946,-46.5244 541.885,-45.6015"/>
</g>
<!-- 7 -->
<g id="node8" class="node"><title>7</title>
<path fill="none" stroke="#d8a456" stroke-width="2" d="M853,-252C853,-252 739,-252 739,-252 733,-252 727,-246 727,-240 727,-240 727,-228 727,-228 727,-222 733,-216 739,-216 739,-216 853,-216 853,-216 859,-216 865,-222 865,-228 865,-228 865,-240 865,-240 865,-246 859,-252 853,-252"/>
<text text-anchor="middle" x="796" y="-231.5" font-family="sans" font-size="10.00">call_strong_escape_sites</text>
</g>
<!-- 6&#45;&gt;7 -->
<g id="edge24" class="edge"><title>6&#45;&gt;7</title>
<path fill="none" stroke="grey" stroke-width="2" d="M544.745,-290.834C594.398,-279.8 663.598,-264.423 716.805,-252.599"/>
<polygon fill="grey" stroke="grey" stroke-width="2" points="717.881,-255.945 726.884,-250.359 716.363,-249.112 717.881,-255.945"/>
</g>
<!-- 8 -->
<g id="node9" class="node"><title>8</title>
<path fill="none" stroke="#56d88a" stroke-width="2" d="M989,-180C989,-180 921,-180 921,-180 915,-180 909,-174 909,-168 909,-168 909,-156 909,-156 909,-150 915,-144 921,-144 921,-144 989,-144 989,-144 995,-144 1001,-150 1001,-156 1001,-156 1001,-168 1001,-168 1001,-174 995,-180 989,-180"/>
<text text-anchor="middle" x="955" y="-159.5" font-family="sans" font-size="10.00">escape_profiles</text>
</g>
<!-- 6&#45;&gt;8 -->
<g id="edge26" class="edge"><title>6&#45;&gt;8</title>
<path fill="none" stroke="grey" stroke-width="2" d="M544.626,-304.1C648.69,-301.49 849.486,-291.346 907,-252 928.196,-237.5 940.841,-210.51 947.787,-190.04"/>
<polygon fill="grey" stroke="grey" stroke-width="2" points="951.184,-190.903 950.833,-180.314 944.504,-188.811 951.184,-190.903"/>
</g>
<!-- 9 -->
<g id="node10" class="node"><title>9</title>
<path fill="none" stroke="#d88d56" stroke-width="2" d="M398.5,-180C398.5,-180 303.5,-180 303.5,-180 297.5,-180 291.5,-174 291.5,-168 291.5,-168 291.5,-156 291.5,-156 291.5,-150 297.5,-144 303.5,-144 303.5,-144 398.5,-144 398.5,-144 404.5,-144 410.5,-150 410.5,-156 410.5,-156 410.5,-168 410.5,-168 410.5,-174 404.5,-180 398.5,-180"/>
<text text-anchor="middle" x="351" y="-159.5" font-family="sans" font-size="10.00">mds_escape_profiles</text>
</g>
<!-- 6&#45;&gt;9 -->
<g id="edge28" class="edge"><title>6&#45;&gt;9</title>
<path fill="none" stroke="grey" stroke-width="2" d="M430.777,-287.896C412.632,-279.544 393.351,-267.81 380,-252 365.226,-234.505 357.93,-209.306 354.356,-190.184"/>
<polygon fill="grey" stroke="grey" stroke-width="2" points="357.803,-189.574 352.729,-180.273 350.895,-190.708 357.803,-189.574"/>
</g>
<!-- 10 -->
<g id="node11" class="node"><title>10</title>
<path fill="none" stroke="#56a2d8" stroke-width="2" d="M493.5,-180C493.5,-180 440.5,-180 440.5,-180 434.5,-180 428.5,-174 428.5,-168 428.5,-168 428.5,-156 428.5,-156 428.5,-150 434.5,-144 440.5,-144 440.5,-144 493.5,-144 493.5,-144 499.5,-144 505.5,-150 505.5,-156 505.5,-156 505.5,-168 505.5,-168 505.5,-174 499.5,-180 493.5,-180"/>
<text text-anchor="middle" x="467" y="-159.5" font-family="sans" font-size="10.00">output_pdbs</text>
</g>
<!-- 6&#45;&gt;10 -->
<g id="edge29" class="edge"><title>6&#45;&gt;10</title>
<path fill="none" stroke="grey" stroke-width="2" d="M430.907,-287.967C414.602,-279.768 398.316,-268.119 389,-252 380.993,-238.147 381.513,-230.14 389,-216 395.843,-203.076 407.407,-192.719 419.563,-184.711"/>
<polygon fill="grey" stroke="grey" stroke-width="2" points="421.741,-187.482 428.461,-179.291 418.1,-181.504 421.741,-187.482"/>
</g>
<!-- 12 -->
<g id="node13" class="node"><title>12</title>
<path fill="none" stroke="#56d8a2" stroke-width="2" d="M736,-180C736,-180 654,-180 654,-180 648,-180 642,-174 642,-168 642,-168 642,-156 642,-156 642,-150 648,-144 654,-144 654,-144 736,-144 736,-144 742,-144 748,-150 748,-156 748,-156 748,-168 748,-168 748,-174 742,-180 736,-180"/>
<text text-anchor="middle" x="695" y="-159.5" font-family="sans" font-size="10.00">natural_mutations</text>
</g>
<!-- 6&#45;&gt;12 -->
<g id="edge31" class="edge"><title>6&#45;&gt;12</title>
<path fill="none" stroke="grey" stroke-width="2" d="M544.544,-295.681C595.636,-286.859 661.794,-271.99 680,-252 695.045,-235.481 697.984,-209.752 697.635,-190.197"/>
<polygon fill="grey" stroke="grey" stroke-width="2" points="701.124,-189.892 697.158,-180.067 694.132,-190.22 701.124,-189.892"/>
</g>
<!-- 13 -->
<g id="node14" class="node"><title>13</title>
<path fill="none" stroke="#56d873" stroke-width="2" d="M518.5,-252C518.5,-252 443.5,-252 443.5,-252 437.5,-252 431.5,-246 431.5,-240 431.5,-240 431.5,-228 431.5,-228 431.5,-222 437.5,-216 443.5,-216 443.5,-216 518.5,-216 518.5,-216 524.5,-216 530.5,-222 530.5,-228 530.5,-228 530.5,-240 530.5,-240 530.5,-246 524.5,-252 518.5,-252"/>
<text text-anchor="middle" x="481" y="-231.5" font-family="sans" font-size="10.00">homolog_escape</text>
</g>
<!-- 6&#45;&gt;13 -->
<g id="edge33" class="edge"><title>6&#45;&gt;13</title>
<path fill="none" stroke="grey" stroke-width="2" d="M481,-287.697C481,-279.983 481,-270.712 481,-262.112"/>
<polygon fill="grey" stroke="grey" stroke-width="2" points="484.5,-262.104 481,-252.104 477.5,-262.104 484.5,-262.104"/>
</g>
<!-- 14 -->
<g id="node15" class="node"><title>14</title>
<path fill="none" stroke="#d86e56" stroke-width="2" d="M908,-108C908,-108 832,-108 832,-108 826,-108 820,-102 820,-96 820,-96 820,-84 820,-84 820,-78 826,-72 832,-72 832,-72 908,-72 908,-72 914,-72 920,-78 920,-84 920,-84 920,-96 920,-96 920,-102 914,-108 908,-108"/>
<text text-anchor="middle" x="870" y="-87.5" font-family="sans" font-size="10.00">make_supp_data</text>
</g>
<!-- 6&#45;&gt;14 -->
<g id="edge34" class="edge"><title>6&#45;&gt;14</title>
<path fill="none" stroke="grey" stroke-width="2" d="M544.526,-300.954C650.201,-293.571 852.675,-276.394 874,-252 906.325,-215.023 892.406,-152.987 880.486,-117.692"/>
<polygon fill="grey" stroke="grey" stroke-width="2" points="883.712,-116.318 877.06,-108.071 877.117,-118.666 883.712,-116.318"/>
</g>
<!-- 7&#45;&gt;0 -->
<g id="edge12" class="edge"><title>7&#45;&gt;0</title>
<path fill="none" stroke="grey" stroke-width="2" d="M791.494,-215.778C785.849,-196.676 774.708,-165.694 757,-144 713.892,-91.1876 642.233,-56.7499 591.804,-37.6499"/>
<polygon fill="grey" stroke="grey" stroke-width="2" points="592.924,-34.3327 582.331,-34.1473 590.497,-40.8983 592.924,-34.3327"/>
</g>
<!-- 7&#45;&gt;8 -->
<g id="edge27" class="edge"><title>7&#45;&gt;8</title>
<path fill="none" stroke="grey" stroke-width="2" d="M834.896,-215.876C856.632,-206.307 883.904,-194.3 906.964,-184.148"/>
<polygon fill="grey" stroke="grey" stroke-width="2" points="908.489,-187.301 916.231,-180.068 905.668,-180.894 908.489,-187.301"/>
</g>
<!-- 7&#45;&gt;12 -->
<g id="edge30" class="edge"><title>7&#45;&gt;12</title>
<path fill="none" stroke="grey" stroke-width="2" d="M771.293,-215.876C758.331,-206.893 742.272,-195.763 728.235,-186.034"/>
<polygon fill="grey" stroke="grey" stroke-width="2" points="730.015,-183.009 719.802,-180.19 726.028,-188.763 730.015,-183.009"/>
</g>
<!-- 8&#45;&gt;0 -->
<g id="edge11" class="edge"><title>8&#45;&gt;0</title>
<path fill="none" stroke="grey" stroke-width="2" d="M955.195,-143.655C954.409,-123.231 949.753,-89.8371 929,-72 879.701,-29.6281 689.966,-20.904 592.514,-19.2609"/>
<polygon fill="grey" stroke="grey" stroke-width="2" points="592.291,-15.7573 582.24,-19.1083 592.187,-22.7566 592.291,-15.7573"/>
</g>
<!-- 8&#45;&gt;14 -->
<g id="edge35" class="edge"><title>8&#45;&gt;14</title>
<path fill="none" stroke="grey" stroke-width="2" d="M933.989,-143.697C923.284,-134.881 910.11,-124.032 898.504,-114.474"/>
<polygon fill="grey" stroke="grey" stroke-width="2" points="900.714,-111.76 890.77,-108.104 896.264,-117.163 900.714,-111.76"/>
</g>
<!-- 9&#45;&gt;0 -->
<g id="edge10" class="edge"><title>9&#45;&gt;0</title>
<path fill="none" stroke="grey" stroke-width="2" d="M373.074,-143.871C405.637,-118.604 466.658,-71.2543 503.484,-42.6788"/>
<polygon fill="grey" stroke="grey" stroke-width="2" points="506.093,-45.0849 511.848,-36.1893 501.801,-39.5546 506.093,-45.0849"/>
</g>
<!-- 10&#45;&gt;0 -->
<g id="edge4" class="edge"><title>10&#45;&gt;0</title>
<path fill="none" stroke="grey" stroke-width="2" d="M475.082,-143.871C486.652,-119.35 508.034,-74.0321 521.61,-45.2589"/>
<polygon fill="grey" stroke="grey" stroke-width="2" points="524.788,-46.7267 525.89,-36.1893 518.457,-43.7396 524.788,-46.7267"/>
</g>
<!-- 11 -->
<g id="node12" class="node"><title>11</title>
<path fill="none" stroke="#70d856" stroke-width="2" d="M659,-252C659,-252 561,-252 561,-252 555,-252 549,-246 549,-240 549,-240 549,-228 549,-228 549,-222 555,-216 561,-216 561,-216 659,-216 659,-216 665,-216 671,-222 671,-228 671,-228 671,-240 671,-240 671,-246 665,-252 659,-252"/>
<text text-anchor="middle" x="610" y="-231.5" font-family="sans" font-size="10.00">gisaid_rbd_mutations</text>
</g>
<!-- 11&#45;&gt;0 -->
<g id="edge9" class="edge"><title>11&#45;&gt;0</title>
<path fill="none" stroke="grey" stroke-width="2" d="M607.777,-215.902C603.423,-185.77 592.2,-121.701 570,-72 565.758,-62.5024 559.811,-52.8713 553.971,-44.4716"/>
<polygon fill="grey" stroke="grey" stroke-width="2" points="556.698,-42.2701 548,-36.2212 551.027,-46.3742 556.698,-42.2701"/>
</g>
<!-- 11&#45;&gt;12 -->
<g id="edge32" class="edge"><title>11&#45;&gt;12</title>
<path fill="none" stroke="grey" stroke-width="2" d="M631.011,-215.697C641.716,-206.881 654.89,-196.032 666.496,-186.474"/>
<polygon fill="grey" stroke="grey" stroke-width="2" points="668.736,-189.163 674.23,-180.104 664.286,-183.76 668.736,-189.163"/>
</g>
<!-- 12&#45;&gt;0 -->
<g id="edge7" class="edge"><title>12&#45;&gt;0</title>
<path fill="none" stroke="grey" stroke-width="2" d="M684.032,-143.709C671.276,-124.544 648.779,-93.5071 624,-72 610.377,-60.1764 593.752,-49.5389 578.515,-40.951"/>
<polygon fill="grey" stroke="grey" stroke-width="2" points="580.188,-37.8769 569.737,-36.138 576.823,-44.0148 580.188,-37.8769"/>
</g>
<!-- 13&#45;&gt;0 -->
<g id="edge5" class="edge"><title>13&#45;&gt;0</title>
<path fill="none" stroke="grey" stroke-width="2" d="M513.527,-215.984C526.789,-207.18 540.699,-195.085 548,-180 569.047,-136.515 555.448,-78.6903 544.287,-45.4883"/>
<polygon fill="grey" stroke="grey" stroke-width="2" points="547.573,-44.2818 540.943,-36.0179 540.972,-46.6127 547.573,-44.2818"/>
</g>
<!-- 14&#45;&gt;0 -->
<g id="edge6" class="edge"><title>14&#45;&gt;0</title>
<path fill="none" stroke="grey" stroke-width="2" d="M819.934,-76.1837C813.902,-74.7282 807.819,-73.3019 802,-72 730.037,-55.8993 646.631,-39.8061 592.226,-29.6502"/>
<polygon fill="grey" stroke="grey" stroke-width="2" points="592.55,-26.1506 582.079,-27.7622 591.27,-33.0325 592.55,-26.1506"/>
</g>
<!-- 15 -->
<g id="node16" class="node"><title>15</title>
<path fill="none" stroke="#d6d856" stroke-width="2" d="M1074,-108C1074,-108 988,-108 988,-108 982,-108 976,-102 976,-96 976,-96 976,-84 976,-84 976,-78 982,-72 988,-72 988,-72 1074,-72 1074,-72 1080,-72 1086,-78 1086,-84 1086,-84 1086,-96 1086,-96 1086,-102 1080,-108 1074,-108"/>
<text text-anchor="middle" x="1031" y="-87.5" font-family="sans" font-size="10.00">structural_contacts</text>
</g>
<!-- 15&#45;&gt;0 -->
<g id="edge15" class="edge"><title>15&#45;&gt;0</title>
<path fill="none" stroke="grey" stroke-width="2" d="M975.763,-74.7804C971.122,-73.7717 966.489,-72.8279 962,-72 830.84,-47.8095 674.983,-31.6225 592.302,-24.0134"/>
<polygon fill="grey" stroke="grey" stroke-width="2" points="592.379,-20.506 582.103,-23.0842 591.744,-27.4771 592.379,-20.506"/>
</g>
<!-- 16&#45;&gt;3 -->
<g id="edge17" class="edge"><title>16&#45;&gt;3</title>
<path fill="none" stroke="grey" stroke-width="2" d="M239,-503.697C239,-495.983 239,-486.712 239,-478.112"/>
<polygon fill="grey" stroke="grey" stroke-width="2" points="242.5,-478.104 239,-468.104 235.5,-478.104 242.5,-478.104"/>
</g>
<!-- 17 -->
<g id="node18" class="node"><title>17</title>
<path fill="none" stroke="#568ad8" stroke-width="2" d="M851,-468C851,-468 765,-468 765,-468 759,-468 753,-462 753,-456 753,-456 753,-444 753,-444 753,-438 759,-432 765,-432 765,-432 851,-432 851,-432 857,-432 863,-438 863,-444 863,-444 863,-456 863,-456 863,-462 857,-468 851,-468"/>
<text text-anchor="middle" x="808" y="-447.5" font-family="sans" font-size="10.00">get_mut_bind_expr</text>
</g>
<!-- 17&#45;&gt;5 -->
<g id="edge19" class="edge"><title>17&#45;&gt;5</title>
<path fill="none" stroke="grey" stroke-width="2" d="M752.927,-437.985C689.205,-425.241 584.607,-404.321 518.62,-391.124"/>
<polygon fill="grey" stroke="grey" stroke-width="2" points="519.265,-387.684 508.773,-389.155 517.893,-394.548 519.265,-387.684"/>
</g>
<!-- 17&#45;&gt;8 -->
<g id="edge25" class="edge"><title>17&#45;&gt;8</title>
<path fill="none" stroke="grey" stroke-width="2" d="M822.373,-431.781C848.996,-398.979 905.991,-324.333 936,-252 944.211,-232.208 949.055,-208.408 951.794,-190.402"/>
<polygon fill="grey" stroke="grey" stroke-width="2" points="955.29,-190.673 953.207,-180.285 948.357,-189.705 955.29,-190.673"/>
</g>
<!-- 18 -->
<g id="node19" class="node"><title>18</title>
<path fill="none" stroke="#59d856" stroke-width="2" d="M442.5,-468C442.5,-468 367.5,-468 367.5,-468 361.5,-468 355.5,-462 355.5,-456 355.5,-456 355.5,-444 355.5,-444 355.5,-438 361.5,-432 367.5,-432 367.5,-432 442.5,-432 442.5,-432 448.5,-432 454.5,-438 454.5,-444 454.5,-444 454.5,-456 454.5,-456 454.5,-462 448.5,-468 442.5,-468"/>
<text text-anchor="middle" x="405" y="-447.5" font-family="sans" font-size="10.00">get_variant_expr</text>
</g>
<!-- 18&#45;&gt;5 -->
<g id="edge21" class="edge"><title>18&#45;&gt;5</title>
<path fill="none" stroke="grey" stroke-width="2" d="M418.101,-431.697C424.391,-423.389 432.047,-413.277 438.965,-404.141"/>
<polygon fill="grey" stroke="grey" stroke-width="2" points="441.804,-406.19 445.05,-396.104 436.223,-401.964 441.804,-406.19"/>
</g>
<!-- 19 -->
<g id="node20" class="node"><title>19</title>
<path fill="none" stroke="#5673d8" stroke-width="2" d="M559,-468C559,-468 485,-468 485,-468 479,-468 473,-462 473,-456 473,-456 473,-444 473,-444 473,-438 479,-432 485,-432 485,-432 559,-432 559,-432 565,-432 571,-438 571,-444 571,-444 571,-456 571,-456 571,-462 565,-468 559,-468"/>
<text text-anchor="middle" x="522" y="-447.5" font-family="sans" font-size="10.00">get_variant_bind</text>
</g>
<!-- 19&#45;&gt;5 -->
<g id="edge20" class="edge"><title>19&#45;&gt;5</title>
<path fill="none" stroke="grey" stroke-width="2" d="M506.18,-431.697C498.43,-423.22 488.961,-412.864 480.476,-403.583"/>
<polygon fill="grey" stroke="grey" stroke-width="2" points="482.969,-401.123 473.638,-396.104 477.803,-405.846 482.969,-401.123"/>
</g>
</g>
</svg>
