<?xml version="1.0" encoding="utf-8" standalone="no"?>
<!DOCTYPE svg PUBLIC "-//W3C//DTD SVG 1.1//EN"
  "http://www.w3.org/Graphics/SVG/1.1/DTD/svg11.dtd">
<!-- Created with matplotlib (https://matplotlib.org/) -->
<svg height="218.102812pt" version="1.1" viewBox="0 0 336.595188 218.102812" width="336.595188pt" xmlns="http://www.w3.org/2000/svg" xmlns:xlink="http://www.w3.org/1999/xlink">
 <defs>
  <style type="text/css">
*{stroke-linecap:butt;stroke-linejoin:round;}
  </style>
 </defs>
 <g id="figure_1">
  <g id="patch_1">
   <path d="M 0 218.102812 
L 336.595188 218.102812 
L 336.595188 0 
L 0 0 
z
" style="fill:#ffffff;stroke:#ffffff;stroke-linejoin:miter;"/>
  </g>
  <g id="axes_1">
   <g id="patch_2">
    <path d="M 106.195188 132.38 
L 215.275188 132.38 
L 215.275188 21.5 
L 106.195188 21.5 
z
" style="fill:#ffffff;"/>
   </g>
   <g id="matplotlib.axis_1">
    <g id="xtick_1">
     <g id="line2d_1">
      <path d="M 118.781341 132.38 
" style="fill:none;stroke:#333333;stroke-width:1.5;"/>
      <defs>
       <path d="M 0 0 
L 0 2.75 
" id="mbfce0bbb0a" style="stroke:#333333;"/>
      </defs>
      <g>
       <use style="fill:#333333;stroke:#333333;" x="118.781341" xlink:href="#mbfce0bbb0a" y="132.38"/>
      </g>
     </g>
     <g id="text_1">
      <!-- low -->
      <defs>
       <path d="M 9.421875 75.984375 
L 18.40625 75.984375 
L 18.40625 0 
L 9.421875 0 
z
" id="DejaVuSans-108"/>
       <path d="M 30.609375 48.390625 
Q 23.390625 48.390625 19.1875 42.75 
Q 14.984375 37.109375 14.984375 27.296875 
Q 14.984375 17.484375 19.15625 11.84375 
Q 23.34375 6.203125 30.609375 6.203125 
Q 37.796875 6.203125 41.984375 11.859375 
Q 46.1875 17.53125 46.1875 27.296875 
Q 46.1875 37.015625 41.984375 42.703125 
Q 37.796875 48.390625 30.609375 48.390625 
z
M 30.609375 56 
Q 42.328125 56 49.015625 48.375 
Q 55.71875 40.765625 55.71875 27.296875 
Q 55.71875 13.875 49.015625 6.21875 
Q 42.328125 -1.421875 30.609375 -1.421875 
Q 18.84375 -1.421875 12.171875 6.21875 
Q 5.515625 13.875 5.515625 27.296875 
Q 5.515625 40.765625 12.171875 48.375 
Q 18.84375 56 30.609375 56 
z
" id="DejaVuSans-111"/>
       <path d="M 4.203125 54.6875 
L 13.1875 54.6875 
L 24.421875 12.015625 
L 35.59375 54.6875 
L 46.1875 54.6875 
L 57.421875 12.015625 
L 68.609375 54.6875 
L 77.59375 54.6875 
L 63.28125 0 
L 52.6875 0 
L 40.921875 44.828125 
L 29.109375 0 
L 18.5 0 
z
" id="DejaVuSans-119"/>
      </defs>
      <g style="fill:#4d4d4d;" transform="translate(121.209591 152.356)rotate(-90)scale(0.088 -0.088)">
       <use xlink:href="#DejaVuSans-108"/>
       <use x="27.783203" xlink:href="#DejaVuSans-111"/>
       <use x="88.964844" xlink:href="#DejaVuSans-119"/>
      </g>
     </g>
    </g>
    <g id="xtick_2">
     <g id="line2d_2">
      <path d="M 139.758264 132.38 
" style="fill:none;stroke:#333333;stroke-width:1.5;"/>
      <g>
       <use style="fill:#333333;stroke:#333333;" x="139.758264" xlink:href="#mbfce0bbb0a" y="132.38"/>
      </g>
     </g>
     <g id="text_2">
      <!-- low-medium -->
      <defs>
       <path d="M 4.890625 31.390625 
L 31.203125 31.390625 
L 31.203125 23.390625 
L 4.890625 23.390625 
z
" id="DejaVuSans-45"/>
       <path d="M 52 44.1875 
Q 55.375 50.25 60.0625 53.125 
Q 64.75 56 71.09375 56 
Q 79.640625 56 84.28125 50.015625 
Q 88.921875 44.046875 88.921875 33.015625 
L 88.921875 0 
L 79.890625 0 
L 79.890625 32.71875 
Q 79.890625 40.578125 77.09375 44.375 
Q 74.3125 48.1875 68.609375 48.1875 
Q 61.625 48.1875 57.5625 43.546875 
Q 53.515625 38.921875 53.515625 30.90625 
L 53.515625 0 
L 44.484375 0 
L 44.484375 32.71875 
Q 44.484375 40.625 41.703125 44.40625 
Q 38.921875 48.1875 33.109375 48.1875 
Q 26.21875 48.1875 22.15625 43.53125 
Q 18.109375 38.875 18.109375 30.90625 
L 18.109375 0 
L 9.078125 0 
L 9.078125 54.6875 
L 18.109375 54.6875 
L 18.109375 46.1875 
Q 21.1875 51.21875 25.484375 53.609375 
Q 29.78125 56 35.6875 56 
Q 41.65625 56 45.828125 52.96875 
Q 50 49.953125 52 44.1875 
z
" id="DejaVuSans-109"/>
       <path d="M 56.203125 29.59375 
L 56.203125 25.203125 
L 14.890625 25.203125 
Q 15.484375 15.921875 20.484375 11.0625 
Q 25.484375 6.203125 34.421875 6.203125 
Q 39.59375 6.203125 44.453125 7.46875 
Q 49.3125 8.734375 54.109375 11.28125 
L 54.109375 2.78125 
Q 49.265625 0.734375 44.1875 -0.34375 
Q 39.109375 -1.421875 33.890625 -1.421875 
Q 20.796875 -1.421875 13.15625 6.1875 
Q 5.515625 13.8125 5.515625 26.8125 
Q 5.515625 40.234375 12.765625 48.109375 
Q 20.015625 56 32.328125 56 
Q 43.359375 56 49.78125 48.890625 
Q 56.203125 41.796875 56.203125 29.59375 
z
M 47.21875 32.234375 
Q 47.125 39.59375 43.09375 43.984375 
Q 39.0625 48.390625 32.421875 48.390625 
Q 24.90625 48.390625 20.390625 44.140625 
Q 15.875 39.890625 15.1875 32.171875 
z
" id="DejaVuSans-101"/>
       <path d="M 45.40625 46.390625 
L 45.40625 75.984375 
L 54.390625 75.984375 
L 54.390625 0 
L 45.40625 0 
L 45.40625 8.203125 
Q 42.578125 3.328125 38.25 0.953125 
Q 33.9375 -1.421875 27.875 -1.421875 
Q 17.96875 -1.421875 11.734375 6.484375 
Q 5.515625 14.40625 5.515625 27.296875 
Q 5.515625 40.1875 11.734375 48.09375 
Q 17.96875 56 27.875 56 
Q 33.9375 56 38.25 53.625 
Q 42.578125 51.265625 45.40625 46.390625 
z
M 14.796875 27.296875 
Q 14.796875 17.390625 18.875 11.75 
Q 22.953125 6.109375 30.078125 6.109375 
Q 37.203125 6.109375 41.296875 11.75 
Q 45.40625 17.390625 45.40625 27.296875 
Q 45.40625 37.203125 41.296875 42.84375 
Q 37.203125 48.484375 30.078125 48.484375 
Q 22.953125 48.484375 18.875 42.84375 
Q 14.796875 37.203125 14.796875 27.296875 
z
" id="DejaVuSans-100"/>
       <path d="M 9.421875 54.6875 
L 18.40625 54.6875 
L 18.40625 0 
L 9.421875 0 
z
M 9.421875 75.984375 
L 18.40625 75.984375 
L 18.40625 64.59375 
L 9.421875 64.59375 
z
" id="DejaVuSans-105"/>
       <path d="M 8.5 21.578125 
L 8.5 54.6875 
L 17.484375 54.6875 
L 17.484375 21.921875 
Q 17.484375 14.15625 20.5 10.265625 
Q 23.53125 6.390625 29.59375 6.390625 
Q 36.859375 6.390625 41.078125 11.03125 
Q 45.3125 15.671875 45.3125 23.6875 
L 45.3125 54.6875 
L 54.296875 54.6875 
L 54.296875 0 
L 45.3125 0 
L 45.3125 8.40625 
Q 42.046875 3.421875 37.71875 1 
Q 33.40625 -1.421875 27.6875 -1.421875 
Q 18.265625 -1.421875 13.375 4.4375 
Q 8.5 10.296875 8.5 21.578125 
z
M 31.109375 56 
z
" id="DejaVuSans-117"/>
      </defs>
      <g style="fill:#4d4d4d;" transform="translate(142.186514 191.6975)rotate(-90)scale(0.088 -0.088)">
       <use xlink:href="#DejaVuSans-108"/>
       <use x="27.783203" xlink:href="#DejaVuSans-111"/>
       <use x="88.964844" xlink:href="#DejaVuSans-119"/>
       <use x="170.751953" xlink:href="#DejaVuSans-45"/>
       <use x="206.835938" xlink:href="#DejaVuSans-109"/>
       <use x="304.248047" xlink:href="#DejaVuSans-101"/>
       <use x="365.771484" xlink:href="#DejaVuSans-100"/>
       <use x="429.248047" xlink:href="#DejaVuSans-105"/>
       <use x="457.03125" xlink:href="#DejaVuSans-117"/>
       <use x="520.410156" xlink:href="#DejaVuSans-109"/>
      </g>
     </g>
    </g>
    <g id="xtick_3">
     <g id="line2d_3">
      <path d="M 160.735187 132.38 
" style="fill:none;stroke:#333333;stroke-width:1.5;"/>
      <g>
       <use style="fill:#333333;stroke:#333333;" x="160.735187" xlink:href="#mbfce0bbb0a" y="132.38"/>
      </g>
     </g>
     <g id="text_3">
      <!-- medium -->
      <g style="fill:#4d4d4d;" transform="translate(163.163437 173.496625)rotate(-90)scale(0.088 -0.088)">
       <use xlink:href="#DejaVuSans-109"/>
       <use x="97.412109" xlink:href="#DejaVuSans-101"/>
       <use x="158.935547" xlink:href="#DejaVuSans-100"/>
       <use x="222.412109" xlink:href="#DejaVuSans-105"/>
       <use x="250.195312" xlink:href="#DejaVuSans-117"/>
       <use x="313.574219" xlink:href="#DejaVuSans-109"/>
      </g>
     </g>
    </g>
    <g id="xtick_4">
     <g id="line2d_4">
      <path d="M 181.712111 132.38 
" style="fill:none;stroke:#333333;stroke-width:1.5;"/>
      <g>
       <use style="fill:#333333;stroke:#333333;" x="181.712111" xlink:href="#mbfce0bbb0a" y="132.38"/>
      </g>
     </g>
     <g id="text_4">
      <!-- medium-high -->
      <defs>
       <path d="M 54.890625 33.015625 
L 54.890625 0 
L 45.90625 0 
L 45.90625 32.71875 
Q 45.90625 40.484375 42.875 44.328125 
Q 39.84375 48.1875 33.796875 48.1875 
Q 26.515625 48.1875 22.3125 43.546875 
Q 18.109375 38.921875 18.109375 30.90625 
L 18.109375 0 
L 9.078125 0 
L 9.078125 75.984375 
L 18.109375 75.984375 
L 18.109375 46.1875 
Q 21.34375 51.125 25.703125 53.5625 
Q 30.078125 56 35.796875 56 
Q 45.21875 56 50.046875 50.171875 
Q 54.890625 44.34375 54.890625 33.015625 
z
" id="DejaVuSans-104"/>
       <path d="M 45.40625 27.984375 
Q 45.40625 37.75 41.375 43.109375 
Q 37.359375 48.484375 30.078125 48.484375 
Q 22.859375 48.484375 18.828125 43.109375 
Q 14.796875 37.75 14.796875 27.984375 
Q 14.796875 18.265625 18.828125 12.890625 
Q 22.859375 7.515625 30.078125 7.515625 
Q 37.359375 7.515625 41.375 12.890625 
Q 45.40625 18.265625 45.40625 27.984375 
z
M 54.390625 6.78125 
Q 54.390625 -7.171875 48.1875 -13.984375 
Q 42 -20.796875 29.203125 -20.796875 
Q 24.46875 -20.796875 20.265625 -20.09375 
Q 16.0625 -19.390625 12.109375 -17.921875 
L 12.109375 -9.1875 
Q 16.0625 -11.328125 19.921875 -12.34375 
Q 23.78125 -13.375 27.78125 -13.375 
Q 36.625 -13.375 41.015625 -8.765625 
Q 45.40625 -4.15625 45.40625 5.171875 
L 45.40625 9.625 
Q 42.625 4.78125 38.28125 2.390625 
Q 33.9375 0 27.875 0 
Q 17.828125 0 11.671875 7.65625 
Q 5.515625 15.328125 5.515625 27.984375 
Q 5.515625 40.671875 11.671875 48.328125 
Q 17.828125 56 27.875 56 
Q 33.9375 56 38.28125 53.609375 
Q 42.625 51.21875 45.40625 46.390625 
L 45.40625 54.6875 
L 54.390625 54.6875 
z
" id="DejaVuSans-103"/>
      </defs>
      <g style="fill:#4d4d4d;" transform="translate(184.140361 195.856875)rotate(-90)scale(0.088 -0.088)">
       <use xlink:href="#DejaVuSans-109"/>
       <use x="97.412109" xlink:href="#DejaVuSans-101"/>
       <use x="158.935547" xlink:href="#DejaVuSans-100"/>
       <use x="222.412109" xlink:href="#DejaVuSans-105"/>
       <use x="250.195312" xlink:href="#DejaVuSans-117"/>
       <use x="313.574219" xlink:href="#DejaVuSans-109"/>
       <use x="410.986328" xlink:href="#DejaVuSans-45"/>
       <use x="447.070312" xlink:href="#DejaVuSans-104"/>
       <use x="510.449219" xlink:href="#DejaVuSans-105"/>
       <use x="538.232422" xlink:href="#DejaVuSans-103"/>
       <use x="601.708984" xlink:href="#DejaVuSans-104"/>
      </g>
     </g>
    </g>
    <g id="xtick_5">
     <g id="line2d_5">
      <path d="M 202.689034 132.38 
" style="fill:none;stroke:#333333;stroke-width:1.5;"/>
      <g>
       <use style="fill:#333333;stroke:#333333;" x="202.689034" xlink:href="#mbfce0bbb0a" y="132.38"/>
      </g>
     </g>
     <g id="text_5">
      <!-- high -->
      <g style="fill:#4d4d4d;" transform="translate(205.117284 156.515375)rotate(-90)scale(0.088 -0.088)">
       <use xlink:href="#DejaVuSans-104"/>
       <use x="63.378906" xlink:href="#DejaVuSans-105"/>
       <use x="91.162109" xlink:href="#DejaVuSans-103"/>
       <use x="154.638672" xlink:href="#DejaVuSans-104"/>
      </g>
     </g>
    </g>
   </g>
   <g id="matplotlib.axis_2">
    <g id="ytick_1">
     <g id="line2d_6">
      <path d="M 106.195188 116.54 
" style="fill:none;stroke:#333333;stroke-width:1.5;"/>
      <defs>
       <path d="M 0 0 
L -2.75 0 
" id="m29b1ff9f9b" style="stroke:#333333;"/>
      </defs>
      <g>
       <use style="fill:#333333;stroke:#333333;" x="106.195188" xlink:href="#m29b1ff9f9b" y="116.54"/>
      </g>
     </g>
     <g id="text_6">
      <!-- extra escape -->
      <defs>
       <path d="M 54.890625 54.6875 
L 35.109375 28.078125 
L 55.90625 0 
L 45.3125 0 
L 29.390625 21.484375 
L 13.484375 0 
L 2.875 0 
L 24.125 28.609375 
L 4.6875 54.6875 
L 15.28125 54.6875 
L 29.78125 35.203125 
L 44.28125 54.6875 
z
" id="DejaVuSans-120"/>
       <path d="M 18.3125 70.21875 
L 18.3125 54.6875 
L 36.8125 54.6875 
L 36.8125 47.703125 
L 18.3125 47.703125 
L 18.3125 18.015625 
Q 18.3125 11.328125 20.140625 9.421875 
Q 21.96875 7.515625 27.59375 7.515625 
L 36.8125 7.515625 
L 36.8125 0 
L 27.59375 0 
Q 17.1875 0 13.234375 3.875 
Q 9.28125 7.765625 9.28125 18.015625 
L 9.28125 47.703125 
L 2.6875 47.703125 
L 2.6875 54.6875 
L 9.28125 54.6875 
L 9.28125 70.21875 
z
" id="DejaVuSans-116"/>
       <path d="M 41.109375 46.296875 
Q 39.59375 47.171875 37.8125 47.578125 
Q 36.03125 48 33.890625 48 
Q 26.265625 48 22.1875 43.046875 
Q 18.109375 38.09375 18.109375 28.8125 
L 18.109375 0 
L 9.078125 0 
L 9.078125 54.6875 
L 18.109375 54.6875 
L 18.109375 46.1875 
Q 20.953125 51.171875 25.484375 53.578125 
Q 30.03125 56 36.53125 56 
Q 37.453125 56 38.578125 55.875 
Q 39.703125 55.765625 41.0625 55.515625 
z
" id="DejaVuSans-114"/>
       <path d="M 34.28125 27.484375 
Q 23.390625 27.484375 19.1875 25 
Q 14.984375 22.515625 14.984375 16.5 
Q 14.984375 11.71875 18.140625 8.90625 
Q 21.296875 6.109375 26.703125 6.109375 
Q 34.1875 6.109375 38.703125 11.40625 
Q 43.21875 16.703125 43.21875 25.484375 
L 43.21875 27.484375 
z
M 52.203125 31.203125 
L 52.203125 0 
L 43.21875 0 
L 43.21875 8.296875 
Q 40.140625 3.328125 35.546875 0.953125 
Q 30.953125 -1.421875 24.3125 -1.421875 
Q 15.921875 -1.421875 10.953125 3.296875 
Q 6 8.015625 6 15.921875 
Q 6 25.140625 12.171875 29.828125 
Q 18.359375 34.515625 30.609375 34.515625 
L 43.21875 34.515625 
L 43.21875 35.40625 
Q 43.21875 41.609375 39.140625 45 
Q 35.0625 48.390625 27.6875 48.390625 
Q 23 48.390625 18.546875 47.265625 
Q 14.109375 46.140625 10.015625 43.890625 
L 10.015625 52.203125 
Q 14.9375 54.109375 19.578125 55.046875 
Q 24.21875 56 28.609375 56 
Q 40.484375 56 46.34375 49.84375 
Q 52.203125 43.703125 52.203125 31.203125 
z
" id="DejaVuSans-97"/>
       <path id="DejaVuSans-32"/>
       <path d="M 44.28125 53.078125 
L 44.28125 44.578125 
Q 40.484375 46.53125 36.375 47.5 
Q 32.28125 48.484375 27.875 48.484375 
Q 21.1875 48.484375 17.84375 46.4375 
Q 14.5 44.390625 14.5 40.28125 
Q 14.5 37.15625 16.890625 35.375 
Q 19.28125 33.59375 26.515625 31.984375 
L 29.59375 31.296875 
Q 39.15625 29.25 43.1875 25.515625 
Q 47.21875 21.78125 47.21875 15.09375 
Q 47.21875 7.46875 41.1875 3.015625 
Q 35.15625 -1.421875 24.609375 -1.421875 
Q 20.21875 -1.421875 15.453125 -0.5625 
Q 10.6875 0.296875 5.421875 2 
L 5.421875 11.28125 
Q 10.40625 8.6875 15.234375 7.390625 
Q 20.0625 6.109375 24.8125 6.109375 
Q 31.15625 6.109375 34.5625 8.28125 
Q 37.984375 10.453125 37.984375 14.40625 
Q 37.984375 18.0625 35.515625 20.015625 
Q 33.0625 21.96875 24.703125 23.78125 
L 21.578125 24.515625 
Q 13.234375 26.265625 9.515625 29.90625 
Q 5.8125 33.546875 5.8125 39.890625 
Q 5.8125 47.609375 11.28125 51.796875 
Q 16.75 56 26.8125 56 
Q 31.78125 56 36.171875 55.265625 
Q 40.578125 54.546875 44.28125 53.078125 
z
" id="DejaVuSans-115"/>
       <path d="M 48.78125 52.59375 
L 48.78125 44.1875 
Q 44.96875 46.296875 41.140625 47.34375 
Q 37.3125 48.390625 33.40625 48.390625 
Q 24.65625 48.390625 19.8125 42.84375 
Q 14.984375 37.3125 14.984375 27.296875 
Q 14.984375 17.28125 19.8125 11.734375 
Q 24.65625 6.203125 33.40625 6.203125 
Q 37.3125 6.203125 41.140625 7.25 
Q 44.96875 8.296875 48.78125 10.40625 
L 48.78125 2.09375 
Q 45.015625 0.34375 40.984375 -0.53125 
Q 36.96875 -1.421875 32.421875 -1.421875 
Q 20.0625 -1.421875 12.78125 6.34375 
Q 5.515625 14.109375 5.515625 27.296875 
Q 5.515625 40.671875 12.859375 48.328125 
Q 20.21875 56 33.015625 56 
Q 37.15625 56 41.109375 55.140625 
Q 45.0625 54.296875 48.78125 52.59375 
z
" id="DejaVuSans-99"/>
       <path d="M 18.109375 8.203125 
L 18.109375 -20.796875 
L 9.078125 -20.796875 
L 9.078125 54.6875 
L 18.109375 54.6875 
L 18.109375 46.390625 
Q 20.953125 51.265625 25.265625 53.625 
Q 29.59375 56 35.59375 56 
Q 45.5625 56 51.78125 48.09375 
Q 58.015625 40.1875 58.015625 27.296875 
Q 58.015625 14.40625 51.78125 6.484375 
Q 45.5625 -1.421875 35.59375 -1.421875 
Q 29.59375 -1.421875 25.265625 0.953125 
Q 20.953125 3.328125 18.109375 8.203125 
z
M 48.6875 27.296875 
Q 48.6875 37.203125 44.609375 42.84375 
Q 40.53125 48.484375 33.40625 48.484375 
Q 26.265625 48.484375 22.1875 42.84375 
Q 18.109375 37.203125 18.109375 27.296875 
Q 18.109375 17.390625 22.1875 11.75 
Q 26.265625 6.109375 33.40625 6.109375 
Q 40.53125 6.109375 44.609375 11.75 
Q 48.6875 17.390625 48.6875 27.296875 
z
" id="DejaVuSans-112"/>
      </defs>
      <g style="fill:#4d4d4d;" transform="translate(44.287187 118.96825)scale(0.088 -0.088)">
       <use xlink:href="#DejaVuSans-101"/>
       <use x="59.773438" xlink:href="#DejaVuSans-120"/>
       <use x="118.953125" xlink:href="#DejaVuSans-116"/>
       <use x="158.162109" xlink:href="#DejaVuSans-114"/>
       <use x="199.275391" xlink:href="#DejaVuSans-97"/>
       <use x="260.554688" xlink:href="#DejaVuSans-32"/>
       <use x="292.341797" xlink:href="#DejaVuSans-101"/>
       <use x="353.865234" xlink:href="#DejaVuSans-115"/>
       <use x="405.964844" xlink:href="#DejaVuSans-99"/>
       <use x="460.945312" xlink:href="#DejaVuSans-97"/>
       <use x="522.224609" xlink:href="#DejaVuSans-112"/>
       <use x="585.701172" xlink:href="#DejaVuSans-101"/>
      </g>
     </g>
    </g>
    <g id="ytick_2">
     <g id="line2d_7">
      <path d="M 106.195188 90.14 
" style="fill:none;stroke:#333333;stroke-width:1.5;"/>
      <g>
       <use style="fill:#333333;stroke:#333333;" x="106.195188" xlink:href="#m29b1ff9f9b" y="90.14"/>
      </g>
     </g>
     <g id="text_7">
      <!-- normal -->
      <defs>
       <path d="M 54.890625 33.015625 
L 54.890625 0 
L 45.90625 0 
L 45.90625 32.71875 
Q 45.90625 40.484375 42.875 44.328125 
Q 39.84375 48.1875 33.796875 48.1875 
Q 26.515625 48.1875 22.3125 43.546875 
Q 18.109375 38.921875 18.109375 30.90625 
L 18.109375 0 
L 9.078125 0 
L 9.078125 54.6875 
L 18.109375 54.6875 
L 18.109375 46.1875 
Q 21.34375 51.125 25.703125 53.5625 
Q 30.078125 56 35.796875 56 
Q 45.21875 56 50.046875 50.171875 
Q 54.890625 44.34375 54.890625 33.015625 
z
" id="DejaVuSans-110"/>
      </defs>
      <g style="fill:#4d4d4d;" transform="translate(70.410812 92.56825)scale(0.088 -0.088)">
       <use xlink:href="#DejaVuSans-110"/>
       <use x="63.378906" xlink:href="#DejaVuSans-111"/>
       <use x="124.560547" xlink:href="#DejaVuSans-114"/>
       <use x="163.923828" xlink:href="#DejaVuSans-109"/>
       <use x="261.335938" xlink:href="#DejaVuSans-97"/>
       <use x="322.615234" xlink:href="#DejaVuSans-108"/>
      </g>
     </g>
    </g>
    <g id="ytick_3">
     <g id="line2d_8">
      <path d="M 106.195188 63.74 
" style="fill:none;stroke:#333333;stroke-width:1.5;"/>
      <g>
       <use style="fill:#333333;stroke:#333333;" x="106.195188" xlink:href="#m29b1ff9f9b" y="63.74"/>
      </g>
     </g>
     <g id="text_8">
      <!-- normal-no escape -->
      <g style="fill:#4d4d4d;" transform="translate(22.245937 66.16825)scale(0.088 -0.088)">
       <use xlink:href="#DejaVuSans-110"/>
       <use x="63.378906" xlink:href="#DejaVuSans-111"/>
       <use x="124.560547" xlink:href="#DejaVuSans-114"/>
       <use x="163.923828" xlink:href="#DejaVuSans-109"/>
       <use x="261.335938" xlink:href="#DejaVuSans-97"/>
       <use x="322.615234" xlink:href="#DejaVuSans-108"/>
       <use x="350.398438" xlink:href="#DejaVuSans-45"/>
       <use x="386.482422" xlink:href="#DejaVuSans-110"/>
       <use x="449.861328" xlink:href="#DejaVuSans-111"/>
       <use x="511.042969" xlink:href="#DejaVuSans-32"/>
       <use x="542.830078" xlink:href="#DejaVuSans-101"/>
       <use x="604.353516" xlink:href="#DejaVuSans-115"/>
       <use x="656.453125" xlink:href="#DejaVuSans-99"/>
       <use x="711.433594" xlink:href="#DejaVuSans-97"/>
       <use x="772.712891" xlink:href="#DejaVuSans-112"/>
       <use x="836.189453" xlink:href="#DejaVuSans-101"/>
      </g>
     </g>
    </g>
    <g id="ytick_4">
     <g id="line2d_9">
      <path d="M 106.195188 37.34 
" style="fill:none;stroke:#333333;stroke-width:1.5;"/>
      <g>
       <use style="fill:#333333;stroke:#333333;" x="106.195188" xlink:href="#m29b1ff9f9b" y="37.34"/>
      </g>
     </g>
     <g id="text_9">
      <!-- no escape -->
      <g style="fill:#4d4d4d;" transform="translate(56.255187 39.76825)scale(0.088 -0.088)">
       <use xlink:href="#DejaVuSans-110"/>
       <use x="63.378906" xlink:href="#DejaVuSans-111"/>
       <use x="124.560547" xlink:href="#DejaVuSans-32"/>
       <use x="156.347656" xlink:href="#DejaVuSans-101"/>
       <use x="217.871094" xlink:href="#DejaVuSans-115"/>
       <use x="269.970703" xlink:href="#DejaVuSans-99"/>
       <use x="324.951172" xlink:href="#DejaVuSans-97"/>
       <use x="386.230469" xlink:href="#DejaVuSans-112"/>
       <use x="449.707031" xlink:href="#DejaVuSans-101"/>
      </g>
     </g>
    </g>
    <g id="text_10">
     <!-- FACS plot shape -->
     <defs>
      <path d="M 9.8125 72.90625 
L 51.703125 72.90625 
L 51.703125 64.59375 
L 19.671875 64.59375 
L 19.671875 43.109375 
L 48.578125 43.109375 
L 48.578125 34.8125 
L 19.671875 34.8125 
L 19.671875 0 
L 9.8125 0 
z
" id="DejaVuSans-70"/>
      <path d="M 34.1875 63.1875 
L 20.796875 26.90625 
L 47.609375 26.90625 
z
M 28.609375 72.90625 
L 39.796875 72.90625 
L 67.578125 0 
L 57.328125 0 
L 50.6875 18.703125 
L 17.828125 18.703125 
L 11.1875 0 
L 0.78125 0 
z
" id="DejaVuSans-65"/>
      <path d="M 64.40625 67.28125 
L 64.40625 56.890625 
Q 59.421875 61.53125 53.78125 63.8125 
Q 48.140625 66.109375 41.796875 66.109375 
Q 29.296875 66.109375 22.65625 58.46875 
Q 16.015625 50.828125 16.015625 36.375 
Q 16.015625 21.96875 22.65625 14.328125 
Q 29.296875 6.6875 41.796875 6.6875 
Q 48.140625 6.6875 53.78125 8.984375 
Q 59.421875 11.28125 64.40625 15.921875 
L 64.40625 5.609375 
Q 59.234375 2.09375 53.4375 0.328125 
Q 47.65625 -1.421875 41.21875 -1.421875 
Q 24.65625 -1.421875 15.125 8.703125 
Q 5.609375 18.84375 5.609375 36.375 
Q 5.609375 53.953125 15.125 64.078125 
Q 24.65625 74.21875 41.21875 74.21875 
Q 47.75 74.21875 53.53125 72.484375 
Q 59.328125 70.75 64.40625 67.28125 
z
" id="DejaVuSans-67"/>
      <path d="M 53.515625 70.515625 
L 53.515625 60.890625 
Q 47.90625 63.578125 42.921875 64.890625 
Q 37.9375 66.21875 33.296875 66.21875 
Q 25.25 66.21875 20.875 63.09375 
Q 16.5 59.96875 16.5 54.203125 
Q 16.5 49.359375 19.40625 46.890625 
Q 22.3125 44.4375 30.421875 42.921875 
L 36.375 41.703125 
Q 47.40625 39.59375 52.65625 34.296875 
Q 57.90625 29 57.90625 20.125 
Q 57.90625 9.515625 50.796875 4.046875 
Q 43.703125 -1.421875 29.984375 -1.421875 
Q 24.8125 -1.421875 18.96875 -0.25 
Q 13.140625 0.921875 6.890625 3.21875 
L 6.890625 13.375 
Q 12.890625 10.015625 18.65625 8.296875 
Q 24.421875 6.59375 29.984375 6.59375 
Q 38.421875 6.59375 43.015625 9.90625 
Q 47.609375 13.234375 47.609375 19.390625 
Q 47.609375 24.75 44.3125 27.78125 
Q 41.015625 30.8125 33.5 32.328125 
L 27.484375 33.5 
Q 16.453125 35.6875 11.515625 40.375 
Q 6.59375 45.0625 6.59375 53.421875 
Q 6.59375 63.09375 13.40625 68.65625 
Q 20.21875 74.21875 32.171875 74.21875 
Q 37.3125 74.21875 42.625 73.28125 
Q 47.953125 72.359375 53.515625 70.515625 
z
" id="DejaVuSans-83"/>
     </defs>
     <g transform="translate(15.558281 120.513906)rotate(-90)scale(0.11 -0.11)">
      <use xlink:href="#DejaVuSans-70"/>
      <use x="48.394531" xlink:href="#DejaVuSans-65"/>
      <use x="115.052734" xlink:href="#DejaVuSans-67"/>
      <use x="184.876953" xlink:href="#DejaVuSans-83"/>
      <use x="248.353516" xlink:href="#DejaVuSans-32"/>
      <use x="280.140625" xlink:href="#DejaVuSans-112"/>
      <use x="343.617188" xlink:href="#DejaVuSans-108"/>
      <use x="371.400391" xlink:href="#DejaVuSans-111"/>
      <use x="432.582031" xlink:href="#DejaVuSans-116"/>
      <use x="471.791016" xlink:href="#DejaVuSans-32"/>
      <use x="503.578125" xlink:href="#DejaVuSans-115"/>
      <use x="555.677734" xlink:href="#DejaVuSans-104"/>
      <use x="619.056641" xlink:href="#DejaVuSans-97"/>
      <use x="680.335938" xlink:href="#DejaVuSans-112"/>
      <use x="743.8125" xlink:href="#DejaVuSans-101"/>
     </g>
    </g>
   </g>
   <g id="PathCollection_1">
    <path clip-path="url(#pb94bc1c51c)" d="M 121.626138 92.423114 
C 122.331228 92.423114 123.007535 92.142979 123.506109 91.644404 
C 124.004683 91.14583 124.284819 90.469524 124.284819 89.764433 
C 124.284819 89.059343 124.004683 88.383036 123.506109 87.884462 
C 123.007535 87.385888 122.331228 87.105752 121.626138 87.105752 
C 120.921047 87.105752 120.244741 87.385888 119.746167 87.884462 
C 119.247592 88.383036 118.967457 89.059343 118.967457 89.764433 
C 118.967457 90.469524 119.247592 91.14583 119.746167 91.644404 
C 120.244741 92.142979 120.921047 92.423114 121.626138 92.423114 
z
" style="fill-opacity:0.25098;stroke:#000000;stroke-opacity:0.25098;stroke-width:0.886227;"/>
    <path clip-path="url(#pb94bc1c51c)" d="M 159.578975 63.717546 
C 160.284065 63.717546 160.960372 63.43741 161.458946 62.938836 
C 161.95752 62.440262 162.237655 61.763955 162.237655 61.058865 
C 162.237655 60.353775 161.95752 59.677468 161.458946 59.178894 
C 160.960372 58.68032 160.284065 58.400184 159.578975 58.400184 
C 158.873884 58.400184 158.197577 58.68032 157.699003 59.178894 
C 157.200429 59.677468 156.920294 60.353775 156.920294 61.058865 
C 156.920294 61.763955 157.200429 62.440262 157.699003 62.938836 
C 158.197577 63.43741 158.873884 63.717546 159.578975 63.717546 
z
" style="fill-opacity:0.25098;stroke:#000000;stroke-opacity:0.25098;stroke-width:0.886227;"/>
    <path clip-path="url(#pb94bc1c51c)" d="M 203.07603 39.712548 
C 203.78112 39.712548 204.457427 39.432412 204.956001 38.933838 
C 205.454575 38.435264 205.734711 37.758957 205.734711 37.053867 
C 205.734711 36.348776 205.454575 35.67247 204.956001 35.173896 
C 204.457427 34.675321 203.78112 34.395186 203.07603 34.395186 
C 202.37094 34.395186 201.694633 34.675321 201.196059 35.173896 
C 200.697484 35.67247 200.417349 36.348776 200.417349 37.053867 
C 200.417349 37.758957 200.697484 38.435264 201.196059 38.933838 
C 201.694633 39.432412 202.37094 39.712548 203.07603 39.712548 
z
" style="fill-opacity:0.25098;stroke:#000000;stroke-opacity:0.25098;stroke-width:0.886227;"/>
    <path clip-path="url(#pb94bc1c51c)" d="M 119.273847 92.099782 
C 119.978938 92.099782 120.655244 91.819647 121.153819 91.321072 
C 121.652393 90.822498 121.932528 90.146192 121.932528 89.441101 
C 121.932528 88.736011 121.652393 88.059704 121.153819 87.56113 
C 120.655244 87.062556 119.978938 86.78242 119.273847 86.78242 
C 118.568757 86.78242 117.89245 87.062556 117.393876 87.56113 
C 116.895302 88.059704 116.615167 88.736011 116.615167 89.441101 
C 116.615167 90.146192 116.895302 90.822498 117.393876 91.321072 
C 117.89245 91.819647 118.568757 92.099782 119.273847 92.099782 
z
" style="fill-opacity:0.25098;stroke:#000000;stroke-opacity:0.25098;stroke-width:0.886227;"/>
    <path clip-path="url(#pb94bc1c51c)" d="M 200.217784 40.933572 
C 200.922874 40.933572 201.599181 40.653437 202.097755 40.154863 
C 202.596329 39.656289 202.876465 38.979982 202.876465 38.274891 
C 202.876465 37.569801 202.596329 36.893494 202.097755 36.39492 
C 201.599181 35.896346 200.922874 35.616211 200.217784 35.616211 
C 199.512693 35.616211 198.836387 35.896346 198.337813 36.39492 
C 197.839238 36.893494 197.559103 37.569801 197.559103 38.274891 
C 197.559103 38.979982 197.839238 39.656289 198.337813 40.154863 
C 198.836387 40.653437 199.512693 40.933572 200.217784 40.933572 
z
" style="fill-opacity:0.25098;stroke:#000000;stroke-opacity:0.25098;stroke-width:0.886227;"/>
    <path clip-path="url(#pb94bc1c51c)" d="M 117.460704 95.095079 
C 118.165794 95.095079 118.842101 94.814943 119.340675 94.316369 
C 119.839249 93.817795 120.119385 93.141488 120.119385 92.436398 
C 120.119385 91.731308 119.839249 91.055001 119.340675 90.556427 
C 118.842101 90.057853 118.165794 89.777717 117.460704 89.777717 
C 116.755613 89.777717 116.079307 90.057853 115.580733 90.556427 
C 115.082158 91.055001 114.802023 91.731308 114.802023 92.436398 
C 114.802023 93.141488 115.082158 93.817795 115.580733 94.316369 
C 116.079307 94.814943 116.755613 95.095079 117.460704 95.095079 
z
" style="fill-opacity:0.25098;stroke:#000000;stroke-opacity:0.25098;stroke-width:0.886227;"/>
    <path clip-path="url(#pb94bc1c51c)" d="M 118.891167 91.259465 
C 119.596257 91.259465 120.272564 90.979329 120.771138 90.480755 
C 121.269712 89.982181 121.549847 89.305874 121.549847 88.600784 
C 121.549847 87.895694 121.269712 87.219387 120.771138 86.720813 
C 120.272564 86.222238 119.596257 85.942103 118.891167 85.942103 
C 118.186076 85.942103 117.50977 86.222238 117.011195 86.720813 
C 116.512621 87.219387 116.232486 87.895694 116.232486 88.600784 
C 116.232486 89.305874 116.512621 89.982181 117.011195 90.480755 
C 117.50977 90.979329 118.186076 91.259465 118.891167 91.259465 
z
" style="fill-opacity:0.25098;stroke:#000000;stroke-opacity:0.25098;stroke-width:0.886227;"/>
    <path clip-path="url(#pb94bc1c51c)" d="M 121.584866 89.284393 
C 122.289957 89.284393 122.966263 89.004257 123.464838 88.505683 
C 123.963412 88.007109 124.243547 87.330802 124.243547 86.625712 
C 124.243547 85.920622 123.963412 85.244315 123.464838 84.745741 
C 122.966263 84.247167 122.289957 83.967031 121.584866 83.967031 
C 120.879776 83.967031 120.203469 84.247167 119.704895 84.745741 
C 119.206321 85.244315 118.926186 85.920622 118.926186 86.625712 
C 118.926186 87.330802 119.206321 88.007109 119.704895 88.505683 
C 120.203469 89.004257 120.879776 89.284393 121.584866 89.284393 
z
" style="fill-opacity:0.25098;stroke:#000000;stroke-opacity:0.25098;stroke-width:0.886227;"/>
    <path clip-path="url(#pb94bc1c51c)" d="M 119.332363 89.99576 
C 120.037453 89.99576 120.71376 89.715624 121.212334 89.21705 
C 121.710908 88.718476 121.991044 88.042169 121.991044 87.337079 
C 121.991044 86.631989 121.710908 85.955682 121.212334 85.457108 
C 120.71376 84.958534 120.037453 84.678398 119.332363 84.678398 
C 118.627272 84.678398 117.950966 84.958534 117.452392 85.457108 
C 116.953817 85.955682 116.673682 86.631989 116.673682 87.337079 
C 116.673682 88.042169 116.953817 88.718476 117.452392 89.21705 
C 117.950966 89.715624 118.627272 89.99576 119.332363 89.99576 
z
" style="fill-opacity:0.25098;stroke:#000000;stroke-opacity:0.25098;stroke-width:0.886227;"/>
    <path clip-path="url(#pb94bc1c51c)" d="M 116.609912 95.352379 
C 117.315002 95.352379 117.991309 95.072244 118.489883 94.57367 
C 118.988457 94.075096 119.268592 93.398789 119.268592 92.693699 
C 119.268592 91.988608 118.988457 91.312302 118.489883 90.813727 
C 117.991309 90.315153 117.315002 90.035018 116.609912 90.035018 
C 115.904821 90.035018 115.228515 90.315153 114.72994 90.813727 
C 114.231366 91.312302 113.951231 91.988608 113.951231 92.693699 
C 113.951231 93.398789 114.231366 94.075096 114.72994 94.57367 
C 115.228515 95.072244 115.904821 95.352379 116.609912 95.352379 
z
" style="fill-opacity:0.25098;stroke:#000000;stroke-opacity:0.25098;stroke-width:0.886227;"/>
    <path clip-path="url(#pb94bc1c51c)" d="M 118.191402 95.778623 
C 118.896492 95.778623 119.572799 95.498488 120.071373 94.999914 
C 120.569947 94.50134 120.850083 93.825033 120.850083 93.119943 
C 120.850083 92.414852 120.569947 91.738546 120.071373 91.239971 
C 119.572799 90.741397 118.896492 90.461262 118.191402 90.461262 
C 117.486311 90.461262 116.810005 90.741397 116.311431 91.239971 
C 115.812856 91.738546 115.532721 92.414852 115.532721 93.119943 
C 115.532721 93.825033 115.812856 94.50134 116.311431 94.999914 
C 116.810005 95.498488 117.486311 95.778623 118.191402 95.778623 
z
" style="fill-opacity:0.25098;stroke:#000000;stroke-opacity:0.25098;stroke-width:0.886227;"/>
    <path clip-path="url(#pb94bc1c51c)" d="M 120.627922 90.530936 
C 121.333012 90.530936 122.009319 90.250801 122.507893 89.752227 
C 123.006467 89.253653 123.286602 88.577346 123.286602 87.872256 
C 123.286602 87.167165 123.006467 86.490859 122.507893 85.992284 
C 122.009319 85.49371 121.333012 85.213575 120.627922 85.213575 
C 119.922831 85.213575 119.246525 85.49371 118.747951 85.992284 
C 118.249376 86.490859 117.969241 87.167165 117.969241 87.872256 
C 117.969241 88.577346 118.249376 89.253653 118.747951 89.752227 
C 119.246525 90.250801 119.922831 90.530936 120.627922 90.530936 
z
" style="fill-opacity:0.25098;stroke:#000000;stroke-opacity:0.25098;stroke-width:0.886227;"/>
    <path clip-path="url(#pb94bc1c51c)" d="M 161.531665 67.77702 
C 162.236755 67.77702 162.913062 67.496885 163.411636 66.998311 
C 163.91021 66.499736 164.190346 65.82343 164.190346 65.118339 
C 164.190346 64.413249 163.91021 63.736942 163.411636 63.238368 
C 162.913062 62.739794 162.236755 62.459659 161.531665 62.459659 
C 160.826575 62.459659 160.150268 62.739794 159.651694 63.238368 
C 159.15312 63.736942 158.872984 64.413249 158.872984 65.118339 
C 158.872984 65.82343 159.15312 66.499736 159.651694 66.998311 
C 160.150268 67.496885 160.826575 67.77702 161.531665 67.77702 
z
" style="fill-opacity:0.25098;stroke:#000000;stroke-opacity:0.25098;stroke-width:0.886227;"/>
    <path clip-path="url(#pb94bc1c51c)" d="M 161.23074 64.735084 
C 161.93583 64.735084 162.612137 64.454949 163.110711 63.956374 
C 163.609285 63.4578 163.889421 62.781494 163.889421 62.076403 
C 163.889421 61.371313 163.609285 60.695006 163.110711 60.196432 
C 162.612137 59.697858 161.93583 59.417722 161.23074 59.417722 
C 160.52565 59.417722 159.849343 59.697858 159.350769 60.196432 
C 158.852195 60.695006 158.572059 61.371313 158.572059 62.076403 
C 158.572059 62.781494 158.852195 63.4578 159.350769 63.956374 
C 159.849343 64.454949 160.52565 64.735084 161.23074 64.735084 
z
" style="fill-opacity:0.25098;stroke:#000000;stroke-opacity:0.25098;stroke-width:0.886227;"/>
    <path clip-path="url(#pb94bc1c51c)" d="M 201.622923 39.688305 
C 202.328013 39.688305 203.00432 39.40817 203.502894 38.909596 
C 204.001468 38.411021 204.281604 37.734715 204.281604 37.029624 
C 204.281604 36.324534 204.001468 35.648227 203.502894 35.149653 
C 203.00432 34.651079 202.328013 34.370944 201.622923 34.370944 
C 200.917832 34.370944 200.241526 34.651079 199.742952 35.149653 
C 199.244377 35.648227 198.964242 36.324534 198.964242 37.029624 
C 198.964242 37.734715 199.244377 38.411021 199.742952 38.909596 
C 200.241526 39.40817 200.917832 39.688305 201.622923 39.688305 
z
" style="fill-opacity:0.25098;stroke:#000000;stroke-opacity:0.25098;stroke-width:0.886227;"/>
    <path clip-path="url(#pb94bc1c51c)" d="M 202.643966 38.654203 
C 203.349056 38.654203 204.025363 38.374068 204.523937 37.875494 
C 205.022511 37.376919 205.302647 36.700613 205.302647 35.995522 
C 205.302647 35.290432 205.022511 34.614125 204.523937 34.115551 
C 204.025363 33.616977 203.349056 33.336842 202.643966 33.336842 
C 201.938876 33.336842 201.262569 33.616977 200.763995 34.115551 
C 200.26542 34.614125 199.985285 35.290432 199.985285 35.995522 
C 199.985285 36.700613 200.26542 37.376919 200.763995 37.875494 
C 201.262569 38.374068 201.938876 38.654203 202.643966 38.654203 
z
" style="fill-opacity:0.25098;stroke:#000000;stroke-opacity:0.25098;stroke-width:0.886227;"/>
    <path clip-path="url(#pb94bc1c51c)" d="M 203.895078 37.13419 
C 204.600169 37.13419 205.276475 36.854055 205.775049 36.355481 
C 206.273624 35.856907 206.553759 35.1806 206.553759 34.47551 
C 206.553759 33.770419 206.273624 33.094113 205.775049 32.595538 
C 205.276475 32.096964 204.600169 31.816829 203.895078 31.816829 
C 203.189988 31.816829 202.513681 32.096964 202.015107 32.595538 
C 201.516533 33.094113 201.236397 33.770419 201.236397 34.47551 
C 201.236397 35.1806 201.516533 35.856907 202.015107 36.355481 
C 202.513681 36.854055 203.189988 37.13419 203.895078 37.13419 
z
" style="fill-opacity:0.25098;stroke:#000000;stroke-opacity:0.25098;stroke-width:0.886227;"/>
    <path clip-path="url(#pb94bc1c51c)" d="M 203.675905 36.810844 
C 204.380995 36.810844 205.057302 36.530709 205.555876 36.032134 
C 206.05445 35.53356 206.334585 34.857254 206.334585 34.152163 
C 206.334585 33.447073 206.05445 32.770766 205.555876 32.272192 
C 205.057302 31.773618 204.380995 31.493482 203.675905 31.493482 
C 202.970814 31.493482 202.294508 31.773618 201.795933 32.272192 
C 201.297359 32.770766 201.017224 33.447073 201.017224 34.152163 
C 201.017224 34.857254 201.297359 35.53356 201.795933 36.032134 
C 202.294508 36.530709 202.970814 36.810844 203.675905 36.810844 
z
" style="fill-opacity:0.25098;stroke:#000000;stroke-opacity:0.25098;stroke-width:0.886227;"/>
    <path clip-path="url(#pb94bc1c51c)" d="M 205.667642 40.256427 
C 206.372732 40.256427 207.049039 39.976291 207.547613 39.477717 
C 208.046187 38.979143 208.326323 38.302836 208.326323 37.597746 
C 208.326323 36.892655 208.046187 36.216349 207.547613 35.717775 
C 207.049039 35.2192 206.372732 34.939065 205.667642 34.939065 
C 204.962551 34.939065 204.286245 35.2192 203.787671 35.717775 
C 203.289096 36.216349 203.008961 36.892655 203.008961 37.597746 
C 203.008961 38.302836 203.289096 38.979143 203.787671 39.477717 
C 204.286245 39.976291 204.962551 40.256427 205.667642 40.256427 
z
" style="fill-opacity:0.25098;stroke:#000000;stroke-opacity:0.25098;stroke-width:0.886227;"/>
    <path clip-path="url(#pb94bc1c51c)" d="M 119.85769 95.935951 
C 120.562781 95.935951 121.239087 95.655815 121.737661 95.157241 
C 122.236236 94.658667 122.516371 93.98236 122.516371 93.27727 
C 122.516371 92.572179 122.236236 91.895873 121.737661 91.397299 
C 121.239087 90.898724 120.562781 90.618589 119.85769 90.618589 
C 119.1526 90.618589 118.476293 90.898724 117.977719 91.397299 
C 117.479145 91.895873 117.199009 92.572179 117.199009 93.27727 
C 117.199009 93.98236 117.479145 94.658667 117.977719 95.157241 
C 118.476293 95.655815 119.1526 95.935951 119.85769 95.935951 
z
" style="fill-opacity:0.25098;stroke:#000000;stroke-opacity:0.25098;stroke-width:0.886227;"/>
    <path clip-path="url(#pb94bc1c51c)" d="M 201.579949 42.955657 
C 202.28504 42.955657 202.961346 42.675521 203.459921 42.176947 
C 203.958495 41.678373 204.23863 41.002066 204.23863 40.296976 
C 204.23863 39.591885 203.958495 38.915579 203.459921 38.417005 
C 202.961346 37.91843 202.28504 37.638295 201.579949 37.638295 
C 200.874859 37.638295 200.198552 37.91843 199.699978 38.417005 
C 199.201404 38.915579 198.921269 39.591885 198.921269 40.296976 
C 198.921269 41.002066 199.201404 41.678373 199.699978 42.176947 
C 200.198552 42.675521 200.874859 42.955657 201.579949 42.955657 
z
" style="fill-opacity:0.25098;stroke:#000000;stroke-opacity:0.25098;stroke-width:0.886227;"/>
    <path clip-path="url(#pb94bc1c51c)" d="M 121.657529 96.648913 
C 122.36262 96.648913 123.038926 96.368778 123.537501 95.870203 
C 124.036075 95.371629 124.31621 94.695323 124.31621 93.990232 
C 124.31621 93.285142 124.036075 92.608835 123.537501 92.110261 
C 123.038926 91.611687 122.36262 91.331551 121.657529 91.331551 
C 120.952439 91.331551 120.276132 91.611687 119.777558 92.110261 
C 119.278984 92.608835 118.998849 93.285142 118.998849 93.990232 
C 118.998849 94.695323 119.278984 95.371629 119.777558 95.870203 
C 120.276132 96.368778 120.952439 96.648913 121.657529 96.648913 
z
" style="fill-opacity:0.25098;stroke:#000000;stroke-opacity:0.25098;stroke-width:0.886227;"/>
    <path clip-path="url(#pb94bc1c51c)" d="M 116.164122 92.181868 
C 116.869213 92.181868 117.545519 91.901732 118.044094 91.403158 
C 118.542668 90.904584 118.822803 90.228277 118.822803 89.523187 
C 118.822803 88.818097 118.542668 88.14179 118.044094 87.643216 
C 117.545519 87.144642 116.869213 86.864506 116.164122 86.864506 
C 115.459032 86.864506 114.782725 87.144642 114.284151 87.643216 
C 113.785577 88.14179 113.505442 88.818097 113.505442 89.523187 
C 113.505442 90.228277 113.785577 90.904584 114.284151 91.403158 
C 114.782725 91.901732 115.459032 92.181868 116.164122 92.181868 
z
" style="fill-opacity:0.25098;stroke:#000000;stroke-opacity:0.25098;stroke-width:0.886227;"/>
   </g>
   <g id="patch_3">
    <path d="M 106.195188 21.5 
L 215.275188 21.5 
L 215.275188 7.2 
L 106.195188 7.2 
z
" style="fill:none;stroke:#000000;stroke-linejoin:miter;"/>
   </g>
   <g id="patch_4">
    <path d="M 106.195188 132.38 
L 106.195188 21.5 
" style="fill:none;stroke:#000000;stroke-linecap:square;stroke-linejoin:miter;"/>
   </g>
   <g id="patch_5">
    <path d="M 106.195188 132.38 
L 215.275188 132.38 
" style="fill:none;stroke:#000000;stroke-linecap:square;stroke-linejoin:miter;"/>
   </g>
   <g id="text_11">
    <!-- convalescent -->
    <defs>
     <path d="M 2.984375 54.6875 
L 12.5 54.6875 
L 29.59375 8.796875 
L 46.6875 54.6875 
L 56.203125 54.6875 
L 35.6875 0 
L 23.484375 0 
z
" id="DejaVuSans-118"/>
    </defs>
    <g style="fill:#1a1a1a;" transform="translate(131.6725 16.77825)scale(0.088 -0.088)">
     <use xlink:href="#DejaVuSans-99"/>
     <use x="54.980469" xlink:href="#DejaVuSans-111"/>
     <use x="116.162109" xlink:href="#DejaVuSans-110"/>
     <use x="179.541016" xlink:href="#DejaVuSans-118"/>
     <use x="238.720703" xlink:href="#DejaVuSans-97"/>
     <use x="300" xlink:href="#DejaVuSans-108"/>
     <use x="327.783203" xlink:href="#DejaVuSans-101"/>
     <use x="389.306641" xlink:href="#DejaVuSans-115"/>
     <use x="441.40625" xlink:href="#DejaVuSans-99"/>
     <use x="496.386719" xlink:href="#DejaVuSans-101"/>
     <use x="557.910156" xlink:href="#DejaVuSans-110"/>
     <use x="621.289062" xlink:href="#DejaVuSans-116"/>
    </g>
   </g>
  </g>
  <g id="axes_2">
   <g id="patch_6">
    <path d="M 220.315188 132.38 
L 329.395188 132.38 
L 329.395188 21.5 
L 220.315188 21.5 
z
" style="fill:#ffffff;"/>
   </g>
   <g id="matplotlib.axis_3">
    <g id="xtick_6">
     <g id="line2d_10">
      <path d="M 232.901341 132.38 
" style="fill:none;stroke:#333333;stroke-linecap:square;stroke-width:1.5;"/>
      <g>
       <use style="fill:#333333;stroke:#333333;" x="232.901341" xlink:href="#mbfce0bbb0a" y="132.38"/>
      </g>
     </g>
     <g id="text_12">
      <!-- low -->
      <g style="fill:#4d4d4d;" transform="translate(235.329591 152.356)rotate(-90)scale(0.088 -0.088)">
       <use xlink:href="#DejaVuSans-108"/>
       <use x="27.783203" xlink:href="#DejaVuSans-111"/>
       <use x="88.964844" xlink:href="#DejaVuSans-119"/>
      </g>
     </g>
    </g>
    <g id="xtick_7">
     <g id="line2d_11">
      <path d="M 253.878264 132.38 
" style="fill:none;stroke:#333333;stroke-linecap:square;stroke-width:1.5;"/>
      <g>
       <use style="fill:#333333;stroke:#333333;" x="253.878264" xlink:href="#mbfce0bbb0a" y="132.38"/>
      </g>
     </g>
     <g id="text_13">
      <!-- low-medium -->
      <g style="fill:#4d4d4d;" transform="translate(256.306514 191.6975)rotate(-90)scale(0.088 -0.088)">
       <use xlink:href="#DejaVuSans-108"/>
       <use x="27.783203" xlink:href="#DejaVuSans-111"/>
       <use x="88.964844" xlink:href="#DejaVuSans-119"/>
       <use x="170.751953" xlink:href="#DejaVuSans-45"/>
       <use x="206.835938" xlink:href="#DejaVuSans-109"/>
       <use x="304.248047" xlink:href="#DejaVuSans-101"/>
       <use x="365.771484" xlink:href="#DejaVuSans-100"/>
       <use x="429.248047" xlink:href="#DejaVuSans-105"/>
       <use x="457.03125" xlink:href="#DejaVuSans-117"/>
       <use x="520.410156" xlink:href="#DejaVuSans-109"/>
      </g>
     </g>
    </g>
    <g id="xtick_8">
     <g id="line2d_12">
      <path d="M 274.855188 132.38 
" style="fill:none;stroke:#333333;stroke-linecap:square;stroke-width:1.5;"/>
      <g>
       <use style="fill:#333333;stroke:#333333;" x="274.855188" xlink:href="#mbfce0bbb0a" y="132.38"/>
      </g>
     </g>
     <g id="text_14">
      <!-- medium -->
      <g style="fill:#4d4d4d;" transform="translate(277.283438 173.496625)rotate(-90)scale(0.088 -0.088)">
       <use xlink:href="#DejaVuSans-109"/>
       <use x="97.412109" xlink:href="#DejaVuSans-101"/>
       <use x="158.935547" xlink:href="#DejaVuSans-100"/>
       <use x="222.412109" xlink:href="#DejaVuSans-105"/>
       <use x="250.195312" xlink:href="#DejaVuSans-117"/>
       <use x="313.574219" xlink:href="#DejaVuSans-109"/>
      </g>
     </g>
    </g>
    <g id="xtick_9">
     <g id="line2d_13">
      <path d="M 295.832111 132.38 
" style="fill:none;stroke:#333333;stroke-linecap:square;stroke-width:1.5;"/>
      <g>
       <use style="fill:#333333;stroke:#333333;" x="295.832111" xlink:href="#mbfce0bbb0a" y="132.38"/>
      </g>
     </g>
     <g id="text_15">
      <!-- medium-high -->
      <g style="fill:#4d4d4d;" transform="translate(298.260361 195.856875)rotate(-90)scale(0.088 -0.088)">
       <use xlink:href="#DejaVuSans-109"/>
       <use x="97.412109" xlink:href="#DejaVuSans-101"/>
       <use x="158.935547" xlink:href="#DejaVuSans-100"/>
       <use x="222.412109" xlink:href="#DejaVuSans-105"/>
       <use x="250.195312" xlink:href="#DejaVuSans-117"/>
       <use x="313.574219" xlink:href="#DejaVuSans-109"/>
       <use x="410.986328" xlink:href="#DejaVuSans-45"/>
       <use x="447.070312" xlink:href="#DejaVuSans-104"/>
       <use x="510.449219" xlink:href="#DejaVuSans-105"/>
       <use x="538.232422" xlink:href="#DejaVuSans-103"/>
       <use x="601.708984" xlink:href="#DejaVuSans-104"/>
      </g>
     </g>
    </g>
    <g id="xtick_10">
     <g id="line2d_14">
      <path d="M 316.809034 132.38 
" style="fill:none;stroke:#333333;stroke-linecap:square;stroke-width:1.5;"/>
      <g>
       <use style="fill:#333333;stroke:#333333;" x="316.809034" xlink:href="#mbfce0bbb0a" y="132.38"/>
      </g>
     </g>
     <g id="text_16">
      <!-- high -->
      <g style="fill:#4d4d4d;" transform="translate(319.237284 156.515375)rotate(-90)scale(0.088 -0.088)">
       <use xlink:href="#DejaVuSans-104"/>
       <use x="63.378906" xlink:href="#DejaVuSans-105"/>
       <use x="91.162109" xlink:href="#DejaVuSans-103"/>
       <use x="154.638672" xlink:href="#DejaVuSans-104"/>
      </g>
     </g>
    </g>
    <g id="text_17">
     <!-- staining background -->
     <defs>
      <path d="M 48.6875 27.296875 
Q 48.6875 37.203125 44.609375 42.84375 
Q 40.53125 48.484375 33.40625 48.484375 
Q 26.265625 48.484375 22.1875 42.84375 
Q 18.109375 37.203125 18.109375 27.296875 
Q 18.109375 17.390625 22.1875 11.75 
Q 26.265625 6.109375 33.40625 6.109375 
Q 40.53125 6.109375 44.609375 11.75 
Q 48.6875 17.390625 48.6875 27.296875 
z
M 18.109375 46.390625 
Q 20.953125 51.265625 25.265625 53.625 
Q 29.59375 56 35.59375 56 
Q 45.5625 56 51.78125 48.09375 
Q 58.015625 40.1875 58.015625 27.296875 
Q 58.015625 14.40625 51.78125 6.484375 
Q 45.5625 -1.421875 35.59375 -1.421875 
Q 29.59375 -1.421875 25.265625 0.953125 
Q 20.953125 3.328125 18.109375 8.203125 
L 18.109375 0 
L 9.078125 0 
L 9.078125 75.984375 
L 18.109375 75.984375 
z
" id="DejaVuSans-98"/>
      <path d="M 9.078125 75.984375 
L 18.109375 75.984375 
L 18.109375 31.109375 
L 44.921875 54.6875 
L 56.390625 54.6875 
L 27.390625 29.109375 
L 57.625 0 
L 45.90625 0 
L 18.109375 26.703125 
L 18.109375 0 
L 9.078125 0 
z
" id="DejaVuSans-107"/>
     </defs>
     <g transform="translate(158.008391 208.615156)scale(0.11 -0.11)">
      <use xlink:href="#DejaVuSans-115"/>
      <use x="52.099609" xlink:href="#DejaVuSans-116"/>
      <use x="91.308594" xlink:href="#DejaVuSans-97"/>
      <use x="152.587891" xlink:href="#DejaVuSans-105"/>
      <use x="180.371094" xlink:href="#DejaVuSans-110"/>
      <use x="243.75" xlink:href="#DejaVuSans-105"/>
      <use x="271.533203" xlink:href="#DejaVuSans-110"/>
      <use x="334.912109" xlink:href="#DejaVuSans-103"/>
      <use x="398.388672" xlink:href="#DejaVuSans-32"/>
      <use x="430.175781" xlink:href="#DejaVuSans-98"/>
      <use x="493.652344" xlink:href="#DejaVuSans-97"/>
      <use x="554.931641" xlink:href="#DejaVuSans-99"/>
      <use x="609.912109" xlink:href="#DejaVuSans-107"/>
      <use x="667.822266" xlink:href="#DejaVuSans-103"/>
      <use x="731.298828" xlink:href="#DejaVuSans-114"/>
      <use x="770.162109" xlink:href="#DejaVuSans-111"/>
      <use x="831.34375" xlink:href="#DejaVuSans-117"/>
      <use x="894.722656" xlink:href="#DejaVuSans-110"/>
      <use x="958.101562" xlink:href="#DejaVuSans-100"/>
     </g>
    </g>
   </g>
   <g id="matplotlib.axis_4">
    <g id="ytick_5"/>
    <g id="ytick_6"/>
    <g id="ytick_7"/>
    <g id="ytick_8"/>
   </g>
   <g id="PathCollection_2">
    <path clip-path="url(#pe1964a1d85)" d="M 295.958551 62.687796 
C 296.663641 62.687796 297.339948 62.40766 297.838522 61.909086 
C 298.337096 61.410512 298.617231 60.734205 298.617231 60.029115 
C 298.617231 59.324025 298.337096 58.647718 297.838522 58.149144 
C 297.339948 57.65057 296.663641 57.370434 295.958551 57.370434 
C 295.25346 57.370434 294.577154 57.65057 294.07858 58.149144 
C 293.580005 58.647718 293.29987 59.324025 293.29987 60.029115 
C 293.29987 60.734205 293.580005 61.410512 294.07858 61.909086 
C 294.577154 62.40766 295.25346 62.687796 295.958551 62.687796 
z
" style="fill-opacity:0.25098;stroke:#000000;stroke-opacity:0.25098;stroke-width:0.886227;"/>
    <path clip-path="url(#pe1964a1d85)" d="M 233.683355 89.850636 
C 234.388445 89.850636 235.064752 89.570501 235.563326 89.071926 
C 236.0619 88.573352 236.342036 87.897046 236.342036 87.191955 
C 236.342036 86.486865 236.0619 85.810558 235.563326 85.311984 
C 235.064752 84.81341 234.388445 84.533274 233.683355 84.533274 
C 232.978264 84.533274 232.301958 84.81341 231.803384 85.311984 
C 231.304809 85.810558 231.024674 86.486865 231.024674 87.191955 
C 231.024674 87.897046 231.304809 88.573352 231.803384 89.071926 
C 232.301958 89.570501 232.978264 89.850636 233.683355 89.850636 
z
" style="fill-opacity:0.25098;stroke:#000000;stroke-opacity:0.25098;stroke-width:0.886227;"/>
    <path clip-path="url(#pe1964a1d85)" d="M 255.526259 91.274142 
C 256.23135 91.274142 256.907656 90.994007 257.40623 90.495433 
C 257.904805 89.996858 258.18494 89.320552 258.18494 88.615461 
C 258.18494 87.910371 257.904805 87.234064 257.40623 86.73549 
C 256.907656 86.236916 256.23135 85.956781 255.526259 85.956781 
C 254.821169 85.956781 254.144862 86.236916 253.646288 86.73549 
C 253.147714 87.234064 252.867579 87.910371 252.867579 88.615461 
C 252.867579 89.320552 253.147714 89.996858 253.646288 90.495433 
C 254.144862 90.994007 254.821169 91.274142 255.526259 91.274142 
z
" style="fill-opacity:0.25098;stroke:#000000;stroke-opacity:0.25098;stroke-width:0.886227;"/>
    <path clip-path="url(#pe1964a1d85)" d="M 297.973872 67.934543 
C 298.678962 67.934543 299.355269 67.654408 299.853843 67.155833 
C 300.352418 66.657259 300.632553 65.980953 300.632553 65.275862 
C 300.632553 64.570772 300.352418 63.894465 299.853843 63.395891 
C 299.355269 62.897317 298.678962 62.617181 297.973872 62.617181 
C 297.268782 62.617181 296.592475 62.897317 296.093901 63.395891 
C 295.595327 63.894465 295.315191 64.570772 295.315191 65.275862 
C 295.315191 65.980953 295.595327 66.657259 296.093901 67.155833 
C 296.592475 67.654408 297.268782 67.934543 297.973872 67.934543 
z
" style="fill-opacity:0.25098;stroke:#000000;stroke-opacity:0.25098;stroke-width:0.886227;"/>
    <path clip-path="url(#pe1964a1d85)" d="M 233.96517 115.895048 
C 234.67026 115.895048 235.346567 115.614913 235.845141 115.116339 
C 236.343715 114.617765 236.623851 113.941458 236.623851 113.236368 
C 236.623851 112.531277 236.343715 111.854971 235.845141 111.356396 
C 235.346567 110.857822 234.67026 110.577687 233.96517 110.577687 
C 233.26008 110.577687 232.583773 110.857822 232.085199 111.356396 
C 231.586625 111.854971 231.306489 112.531277 231.306489 113.236368 
C 231.306489 113.941458 231.586625 114.617765 232.085199 115.116339 
C 232.583773 115.614913 233.26008 115.895048 233.96517 115.895048 
z
" style="fill-opacity:0.25098;stroke:#000000;stroke-opacity:0.25098;stroke-width:0.886227;"/>
    <path clip-path="url(#pe1964a1d85)" d="M 232.29433 96.13231 
C 232.99942 96.13231 233.675727 95.852175 234.174301 95.353601 
C 234.672875 94.855027 234.95301 94.17872 234.95301 93.47363 
C 234.95301 92.768539 234.672875 92.092233 234.174301 91.593658 
C 233.675727 91.095084 232.99942 90.814949 232.29433 90.814949 
C 231.589239 90.814949 230.912933 91.095084 230.414358 91.593658 
C 229.915784 92.092233 229.635649 92.768539 229.635649 93.47363 
C 229.635649 94.17872 229.915784 94.855027 230.414358 95.353601 
C 230.912933 95.852175 231.589239 96.13231 232.29433 96.13231 
z
" style="fill-opacity:0.25098;stroke:#000000;stroke-opacity:0.25098;stroke-width:0.886227;"/>
    <path clip-path="url(#pe1964a1d85)" d="M 231.765618 96.520697 
C 232.470709 96.520697 233.147015 96.240562 233.64559 95.741988 
C 234.144164 95.243414 234.424299 94.567107 234.424299 93.862017 
C 234.424299 93.156926 234.144164 92.48062 233.64559 91.982046 
C 233.147015 91.483471 232.470709 91.203336 231.765618 91.203336 
C 231.060528 91.203336 230.384221 91.483471 229.885647 91.982046 
C 229.387073 92.48062 229.106938 93.156926 229.106938 93.862017 
C 229.106938 94.567107 229.387073 95.243414 229.885647 95.741988 
C 230.384221 96.240562 231.060528 96.520697 231.765618 96.520697 
z
" style="fill-opacity:0.25098;stroke:#000000;stroke-opacity:0.25098;stroke-width:0.886227;"/>
    <path clip-path="url(#pe1964a1d85)" d="M 230.076335 120.97564 
C 230.781426 120.97564 231.457732 120.695504 231.956306 120.19693 
C 232.454881 119.698356 232.735016 119.022049 232.735016 118.316959 
C 232.735016 117.611868 232.454881 116.935562 231.956306 116.436988 
C 231.457732 115.938413 230.781426 115.658278 230.076335 115.658278 
C 229.371245 115.658278 228.694938 115.938413 228.196364 116.436988 
C 227.69779 116.935562 227.417654 117.611868 227.417654 118.316959 
C 227.417654 119.022049 227.69779 119.698356 228.196364 120.19693 
C 228.694938 120.695504 229.371245 120.97564 230.076335 120.97564 
z
" style="fill-opacity:0.25098;stroke:#000000;stroke-opacity:0.25098;stroke-width:0.886227;"/>
    <path clip-path="url(#pe1964a1d85)" d="M 317.512975 43.596139 
C 318.218065 43.596139 318.894372 43.316004 319.392946 42.81743 
C 319.89152 42.318856 320.171655 41.642549 320.171655 40.937459 
C 320.171655 40.232368 319.89152 39.556062 319.392946 39.057487 
C 318.894372 38.558913 318.218065 38.278778 317.512975 38.278778 
C 316.807884 38.278778 316.131578 38.558913 315.633003 39.057487 
C 315.134429 39.556062 314.854294 40.232368 314.854294 40.937459 
C 314.854294 41.642549 315.134429 42.318856 315.633003 42.81743 
C 316.131578 43.316004 316.807884 43.596139 317.512975 43.596139 
z
" style="fill-opacity:0.25098;stroke:#000000;stroke-opacity:0.25098;stroke-width:0.886227;"/>
    <path clip-path="url(#pe1964a1d85)" d="M 254.877196 90.761473 
C 255.582287 90.761473 256.258593 90.481337 256.757167 89.982763 
C 257.255742 89.484189 257.535877 88.807882 257.535877 88.102792 
C 257.535877 87.397702 257.255742 86.721395 256.757167 86.222821 
C 256.258593 85.724247 255.582287 85.444111 254.877196 85.444111 
C 254.172106 85.444111 253.495799 85.724247 252.997225 86.222821 
C 252.498651 86.721395 252.218515 87.397702 252.218515 88.102792 
C 252.218515 88.807882 252.498651 89.484189 252.997225 89.982763 
C 253.495799 90.481337 254.172106 90.761473 254.877196 90.761473 
z
" style="fill-opacity:0.25098;stroke:#000000;stroke-opacity:0.25098;stroke-width:0.886227;"/>
    <path clip-path="url(#pe1964a1d85)" d="M 314.576657 36.971321 
C 315.281748 36.971321 315.958054 36.691185 316.456628 36.192611 
C 316.955203 35.694037 317.235338 35.01773 317.235338 34.31264 
C 317.235338 33.607549 316.955203 32.931243 316.456628 32.432669 
C 315.958054 31.934094 315.281748 31.653959 314.576657 31.653959 
C 313.871567 31.653959 313.19526 31.934094 312.696686 32.432669 
C 312.198112 32.931243 311.917976 33.607549 311.917976 34.31264 
C 311.917976 35.01773 312.198112 35.694037 312.696686 36.192611 
C 313.19526 36.691185 313.871567 36.971321 314.576657 36.971321 
z
" style="fill-opacity:0.25098;stroke:#000000;stroke-opacity:0.25098;stroke-width:0.886227;"/>
    <path clip-path="url(#pe1964a1d85)" d="M 231.298868 122.148402 
C 232.003959 122.148402 232.680266 121.868267 233.17884 121.369693 
C 233.677414 120.871119 233.957549 120.194812 233.957549 119.489722 
C 233.957549 118.784631 233.677414 118.108325 233.17884 117.60975 
C 232.680266 117.111176 232.003959 116.831041 231.298868 116.831041 
C 230.593778 116.831041 229.917471 117.111176 229.418897 117.60975 
C 228.920323 118.108325 228.640188 118.784631 228.640188 119.489722 
C 228.640188 120.194812 228.920323 120.871119 229.418897 121.369693 
C 229.917471 121.868267 230.593778 122.148402 231.298868 122.148402 
z
" style="fill-opacity:0.25098;stroke:#000000;stroke-opacity:0.25098;stroke-width:0.886227;"/>
    <path clip-path="url(#pe1964a1d85)" d="M 230.071114 91.882933 
C 230.776205 91.882933 231.452511 91.602798 231.951086 91.104223 
C 232.44966 90.605649 232.729795 89.929343 232.729795 89.224252 
C 232.729795 88.519162 232.44966 87.842855 231.951086 87.344281 
C 231.452511 86.845707 230.776205 86.565571 230.071114 86.565571 
C 229.366024 86.565571 228.689717 86.845707 228.191143 87.344281 
C 227.692569 87.842855 227.412434 88.519162 227.412434 89.224252 
C 227.412434 89.929343 227.692569 90.605649 228.191143 91.104223 
C 228.689717 91.602798 229.366024 91.882933 230.071114 91.882933 
z
" style="fill-opacity:0.25098;stroke:#000000;stroke-opacity:0.25098;stroke-width:0.886227;"/>
    <path clip-path="url(#pe1964a1d85)" d="M 293.776783 69.198245 
C 294.481874 69.198245 295.15818 68.918109 295.656754 68.419535 
C 296.155329 67.920961 296.435464 67.244654 296.435464 66.539564 
C 296.435464 65.834474 296.155329 65.158167 295.656754 64.659593 
C 295.15818 64.161019 294.481874 63.880883 293.776783 63.880883 
C 293.071693 63.880883 292.395386 64.161019 291.896812 64.659593 
C 291.398238 65.158167 291.118102 65.834474 291.118102 66.539564 
C 291.118102 67.244654 291.398238 67.920961 291.896812 68.419535 
C 292.395386 68.918109 293.071693 69.198245 293.776783 69.198245 
z
" style="fill-opacity:0.25098;stroke:#000000;stroke-opacity:0.25098;stroke-width:0.886227;"/>
    <path clip-path="url(#pe1964a1d85)" d="M 293.955209 63.498152 
C 294.6603 63.498152 295.336607 63.218017 295.835181 62.719443 
C 296.333755 62.220868 296.61389 61.544562 296.61389 60.839471 
C 296.61389 60.134381 296.333755 59.458074 295.835181 58.9595 
C 295.336607 58.460926 294.6603 58.180791 293.955209 58.180791 
C 293.250119 58.180791 292.573812 58.460926 292.075238 58.9595 
C 291.576664 59.458074 291.296529 60.134381 291.296529 60.839471 
C 291.296529 61.544562 291.576664 62.220868 292.075238 62.719443 
C 292.573812 63.218017 293.250119 63.498152 293.955209 63.498152 
z
" style="fill-opacity:0.25098;stroke:#000000;stroke-opacity:0.25098;stroke-width:0.886227;"/>
    <path clip-path="url(#pe1964a1d85)" d="M 231.590692 117.131348 
C 232.295782 117.131348 232.972089 116.851213 233.470663 116.352639 
C 233.969237 115.854065 234.249372 115.177758 234.249372 114.472668 
C 234.249372 113.767577 233.969237 113.091271 233.470663 112.592696 
C 232.972089 112.094122 232.295782 111.813987 231.590692 111.813987 
C 230.885601 111.813987 230.209295 112.094122 229.710721 112.592696 
C 229.212146 113.091271 228.932011 113.767577 228.932011 114.472668 
C 228.932011 115.177758 229.212146 115.854065 229.710721 116.352639 
C 230.209295 116.851213 230.885601 117.131348 231.590692 117.131348 
z
" style="fill-opacity:0.25098;stroke:#000000;stroke-opacity:0.25098;stroke-width:0.886227;"/>
    <path clip-path="url(#pe1964a1d85)" d="M 230.077059 94.203574 
C 230.782149 94.203574 231.458456 93.923438 231.95703 93.424864 
C 232.455604 92.92629 232.735739 92.249983 232.735739 91.544893 
C 232.735739 90.839803 232.455604 90.163496 231.95703 89.664922 
C 231.458456 89.166348 230.782149 88.886212 230.077059 88.886212 
C 229.371968 88.886212 228.695662 89.166348 228.197087 89.664922 
C 227.698513 90.163496 227.418378 90.839803 227.418378 91.544893 
C 227.418378 92.249983 227.698513 92.92629 228.197087 93.424864 
C 228.695662 93.923438 229.371968 94.203574 230.077059 94.203574 
z
" style="fill-opacity:0.25098;stroke:#000000;stroke-opacity:0.25098;stroke-width:0.886227;"/>
    <path clip-path="url(#pe1964a1d85)" d="M 232.677224 89.090229 
C 233.382314 89.090229 234.058621 88.810093 234.557195 88.311519 
C 235.055769 87.812945 235.335905 87.136638 235.335905 86.431548 
C 235.335905 85.726458 235.055769 85.050151 234.557195 84.551577 
C 234.058621 84.053003 233.382314 83.772867 232.677224 83.772867 
C 231.972133 83.772867 231.295827 84.053003 230.797253 84.551577 
C 230.298678 85.050151 230.018543 85.726458 230.018543 86.431548 
C 230.018543 87.136638 230.298678 87.812945 230.797253 88.311519 
C 231.295827 88.810093 231.972133 89.090229 232.677224 89.090229 
z
" style="fill-opacity:0.25098;stroke:#000000;stroke-opacity:0.25098;stroke-width:0.886227;"/>
    <path clip-path="url(#pe1964a1d85)" d="M 233.27535 92.320056 
C 233.98044 92.320056 234.656747 92.03992 235.155321 91.541346 
C 235.653895 91.042772 235.93403 90.366465 235.93403 89.661375 
C 235.93403 88.956285 235.653895 88.279978 235.155321 87.781404 
C 234.656747 87.28283 233.98044 87.002694 233.27535 87.002694 
C 232.570259 87.002694 231.893953 87.28283 231.395378 87.781404 
C 230.896804 88.279978 230.616669 88.956285 230.616669 89.661375 
C 230.616669 90.366465 230.896804 91.042772 231.395378 91.541346 
C 231.893953 92.03992 232.570259 92.320056 233.27535 92.320056 
z
" style="fill-opacity:0.25098;stroke:#000000;stroke-opacity:0.25098;stroke-width:0.886227;"/>
    <path clip-path="url(#pe1964a1d85)" d="M 313.779398 38.207336 
C 314.484488 38.207336 315.160795 37.927201 315.659369 37.428627 
C 316.157943 36.930052 316.438079 36.253746 316.438079 35.548655 
C 316.438079 34.843565 316.157943 34.167258 315.659369 33.668684 
C 315.160795 33.17011 314.484488 32.889975 313.779398 32.889975 
C 313.074307 32.889975 312.398001 33.17011 311.899427 33.668684 
C 311.400852 34.167258 311.120717 34.843565 311.120717 35.548655 
C 311.120717 36.253746 311.400852 36.930052 311.899427 37.428627 
C 312.398001 37.927201 313.074307 38.207336 313.779398 38.207336 
z
" style="fill-opacity:0.25098;stroke:#000000;stroke-opacity:0.25098;stroke-width:0.886227;"/>
    <path clip-path="url(#pe1964a1d85)" d="M 318.000168 41.26865 
C 318.705258 41.26865 319.381565 40.988515 319.880139 40.489941 
C 320.378713 39.991367 320.658849 39.31506 320.658849 38.60997 
C 320.658849 37.904879 320.378713 37.228573 319.880139 36.729998 
C 319.381565 36.231424 318.705258 35.951289 318.000168 35.951289 
C 317.295078 35.951289 316.618771 36.231424 316.120197 36.729998 
C 315.621623 37.228573 315.341487 37.904879 315.341487 38.60997 
C 315.341487 39.31506 315.621623 39.991367 316.120197 40.489941 
C 316.618771 40.988515 317.295078 41.26865 318.000168 41.26865 
z
" style="fill-opacity:0.25098;stroke:#000000;stroke-opacity:0.25098;stroke-width:0.886227;"/>
    <path clip-path="url(#pe1964a1d85)" d="M 272.35266 95.54585 
C 273.057751 95.54585 273.734057 95.265714 274.232632 94.76714 
C 274.731206 94.268566 275.011341 93.592259 275.011341 92.887169 
C 275.011341 92.182078 274.731206 91.505772 274.232632 91.007198 
C 273.734057 90.508623 273.057751 90.228488 272.35266 90.228488 
C 271.64757 90.228488 270.971263 90.508623 270.472689 91.007198 
C 269.974115 91.505772 269.69398 92.182078 269.69398 92.887169 
C 269.69398 93.592259 269.974115 94.268566 270.472689 94.76714 
C 270.971263 95.265714 271.64757 95.54585 272.35266 95.54585 
z
" style="fill-opacity:0.25098;stroke:#000000;stroke-opacity:0.25098;stroke-width:0.886227;"/>
    <path clip-path="url(#pe1964a1d85)" d="M 293.076089 67.492114 
C 293.781179 67.492114 294.457486 67.211978 294.95606 66.713404 
C 295.454634 66.21483 295.73477 65.538523 295.73477 64.833433 
C 295.73477 64.128343 295.454634 63.452036 294.95606 62.953462 
C 294.457486 62.454888 293.781179 62.174752 293.076089 62.174752 
C 292.370999 62.174752 291.694692 62.454888 291.196118 62.953462 
C 290.697544 63.452036 290.417408 64.128343 290.417408 64.833433 
C 290.417408 65.538523 290.697544 66.21483 291.196118 66.713404 
C 291.694692 67.211978 292.370999 67.492114 293.076089 67.492114 
z
" style="fill-opacity:0.25098;stroke:#000000;stroke-opacity:0.25098;stroke-width:0.886227;"/>
    <path clip-path="url(#pe1964a1d85)" d="M 297.689219 68.084345 
C 298.394309 68.084345 299.070616 67.804209 299.56919 67.305635 
C 300.067764 66.807061 300.347899 66.130754 300.347899 65.425664 
C 300.347899 64.720574 300.067764 64.044267 299.56919 63.545693 
C 299.070616 63.047119 298.394309 62.766983 297.689219 62.766983 
C 296.984128 62.766983 296.307822 63.047119 295.809247 63.545693 
C 295.310673 64.044267 295.030538 64.720574 295.030538 65.425664 
C 295.030538 66.130754 295.310673 66.807061 295.809247 67.305635 
C 296.307822 67.804209 296.984128 68.084345 297.689219 68.084345 
z
" style="fill-opacity:0.25098;stroke:#000000;stroke-opacity:0.25098;stroke-width:0.886227;"/>
    <path clip-path="url(#pe1964a1d85)" d="M 274.109395 69.735943 
C 274.814485 69.735943 275.490792 69.455807 275.989366 68.957233 
C 276.48794 68.458659 276.768076 67.782352 276.768076 67.077262 
C 276.768076 66.372171 276.48794 65.695865 275.989366 65.197291 
C 275.490792 64.698716 274.814485 64.418581 274.109395 64.418581 
C 273.404304 64.418581 272.727998 64.698716 272.229424 65.197291 
C 271.730849 65.695865 271.450714 66.372171 271.450714 67.077262 
C 271.450714 67.782352 271.730849 68.458659 272.229424 68.957233 
C 272.727998 69.455807 273.404304 69.735943 274.109395 69.735943 
z
" style="fill-opacity:0.25098;stroke:#000000;stroke-opacity:0.25098;stroke-width:0.886227;"/>
    <path clip-path="url(#pe1964a1d85)" d="M 276.348735 91.675031 
C 277.053826 91.675031 277.730132 91.394895 278.228707 90.896321 
C 278.727281 90.397747 279.007416 89.72144 279.007416 89.01635 
C 279.007416 88.311259 278.727281 87.634953 278.228707 87.136379 
C 277.730132 86.637804 277.053826 86.357669 276.348735 86.357669 
C 275.643645 86.357669 274.967338 86.637804 274.468764 87.136379 
C 273.97019 87.634953 273.690055 88.311259 273.690055 89.01635 
C 273.690055 89.72144 273.97019 90.397747 274.468764 90.896321 
C 274.967338 91.394895 275.643645 91.675031 276.348735 91.675031 
z
" style="fill-opacity:0.25098;stroke:#000000;stroke-opacity:0.25098;stroke-width:0.886227;"/>
    <path clip-path="url(#pe1964a1d85)" d="M 273.826279 91.313528 
C 274.53137 91.313528 275.207676 91.033392 275.70625 90.534818 
C 276.204825 90.036244 276.48496 89.359937 276.48496 88.654847 
C 276.48496 87.949757 276.204825 87.27345 275.70625 86.774876 
C 275.207676 86.276302 274.53137 85.996166 273.826279 85.996166 
C 273.121189 85.996166 272.444882 86.276302 271.946308 86.774876 
C 271.447734 87.27345 271.167598 87.949757 271.167598 88.654847 
C 271.167598 89.359937 271.447734 90.036244 271.946308 90.534818 
C 272.444882 91.033392 273.121189 91.313528 273.826279 91.313528 
z
" style="fill-opacity:0.25098;stroke:#000000;stroke-opacity:0.25098;stroke-width:0.886227;"/>
    <path clip-path="url(#pe1964a1d85)" d="M 232.029058 119.410521 
C 232.734148 119.410521 233.410455 119.130386 233.909029 118.631811 
C 234.407603 118.133237 234.687739 117.456931 234.687739 116.75184 
C 234.687739 116.04675 234.407603 115.370443 233.909029 114.871869 
C 233.410455 114.373295 232.734148 114.093159 232.029058 114.093159 
C 231.323968 114.093159 230.647661 114.373295 230.149087 114.871869 
C 229.650513 115.370443 229.370377 116.04675 229.370377 116.75184 
C 229.370377 117.456931 229.650513 118.133237 230.149087 118.631811 
C 230.647661 119.130386 231.323968 119.410521 232.029058 119.410521 
z
" style="fill-opacity:0.25098;stroke:#000000;stroke-opacity:0.25098;stroke-width:0.886227;"/>
   </g>
   <g id="patch_7">
    <path d="M 220.315188 21.5 
L 329.395188 21.5 
L 329.395188 7.2 
L 220.315188 7.2 
z
" style="fill:none;stroke:#000000;stroke-linejoin:miter;"/>
   </g>
   <g id="patch_8">
    <path d="M 220.315188 132.38 
L 220.315188 21.5 
" style="fill:none;stroke:#000000;stroke-linecap:square;stroke-linejoin:miter;"/>
   </g>
   <g id="patch_9">
    <path d="M 220.315188 132.38 
L 329.395188 132.38 
" style="fill:none;stroke:#000000;stroke-linecap:square;stroke-linejoin:miter;"/>
   </g>
   <g id="text_18">
    <!-- vaccine -->
    <g style="fill:#1a1a1a;" transform="translate(257.997687 16.77825)scale(0.088 -0.088)">
     <use xlink:href="#DejaVuSans-118"/>
     <use x="59.179688" xlink:href="#DejaVuSans-97"/>
     <use x="120.458984" xlink:href="#DejaVuSans-99"/>
     <use x="175.439453" xlink:href="#DejaVuSans-99"/>
     <use x="230.419922" xlink:href="#DejaVuSans-105"/>
     <use x="258.203125" xlink:href="#DejaVuSans-110"/>
     <use x="321.582031" xlink:href="#DejaVuSans-101"/>
    </g>
   </g>
  </g>
 </g>
 <defs>
  <clipPath id="pb94bc1c51c">
   <rect height="110.88" width="109.08" x="106.195188" y="21.5"/>
  </clipPath>
  <clipPath id="pe1964a1d85">
   <rect height="110.88" width="109.08" x="220.315188" y="21.5"/>
  </clipPath>
 </defs>
</svg>
