<?xml version="1.0" encoding="utf-8" standalone="no"?>
<!DOCTYPE svg PUBLIC "-//W3C//DTD SVG 1.1//EN"
  "http://www.w3.org/Graphics/SVG/1.1/DTD/svg11.dtd">
<!-- Created with matplotlib (https://matplotlib.org/) -->
<svg height="218.102812pt" version="1.1" viewBox="0 0 394.552813 218.102812" width="394.552813pt" xmlns="http://www.w3.org/2000/svg" xmlns:xlink="http://www.w3.org/1999/xlink">
 <defs>
  <style type="text/css">
*{stroke-linecap:butt;stroke-linejoin:round;}
  </style>
 </defs>
 <g id="figure_1">
  <g id="patch_1">
   <path d="M 0 218.102812 
L 394.552813 218.102812 
L 394.552813 0 
L 0 0 
z
" style="fill:#ffffff;stroke:#ffffff;stroke-linejoin:miter;"/>
  </g>
  <g id="axes_1">
   <g id="patch_2">
    <path d="M 164.152813 132.38 
L 273.232813 132.38 
L 273.232813 21.5 
L 164.152813 21.5 
z
" style="fill:#ffffff;"/>
   </g>
   <g id="matplotlib.axis_1">
    <g id="xtick_1">
     <g id="line2d_1">
      <path d="M 176.738966 132.38 
" style="fill:none;stroke:#333333;stroke-width:1.5;"/>
      <defs>
       <path d="M 0 0 
L 0 2.75 
" id="mc6578be5cf" style="stroke:#333333;"/>
      </defs>
      <g>
       <use style="fill:#333333;stroke:#333333;" x="176.738966" xlink:href="#mc6578be5cf" y="132.38"/>
      </g>
     </g>
     <g id="text_1">
      <!-- low -->
      <defs>
       <path d="M 9.421875 75.984375 
L 18.40625 75.984375 
L 18.40625 0 
L 9.421875 0 
z
" id="DejaVuSans-108"/>
       <path d="M 30.609375 48.390625 
Q 23.390625 48.390625 19.1875 42.75 
Q 14.984375 37.109375 14.984375 27.296875 
Q 14.984375 17.484375 19.15625 11.84375 
Q 23.34375 6.203125 30.609375 6.203125 
Q 37.796875 6.203125 41.984375 11.859375 
Q 46.1875 17.53125 46.1875 27.296875 
Q 46.1875 37.015625 41.984375 42.703125 
Q 37.796875 48.390625 30.609375 48.390625 
z
M 30.609375 56 
Q 42.328125 56 49.015625 48.375 
Q 55.71875 40.765625 55.71875 27.296875 
Q 55.71875 13.875 49.015625 6.21875 
Q 42.328125 -1.421875 30.609375 -1.421875 
Q 18.84375 -1.421875 12.171875 6.21875 
Q 5.515625 13.875 5.515625 27.296875 
Q 5.515625 40.765625 12.171875 48.375 
Q 18.84375 56 30.609375 56 
z
" id="DejaVuSans-111"/>
       <path d="M 4.203125 54.6875 
L 13.1875 54.6875 
L 24.421875 12.015625 
L 35.59375 54.6875 
L 46.1875 54.6875 
L 57.421875 12.015625 
L 68.609375 54.6875 
L 77.59375 54.6875 
L 63.28125 0 
L 52.6875 0 
L 40.921875 44.828125 
L 29.109375 0 
L 18.5 0 
z
" id="DejaVuSans-119"/>
      </defs>
      <g style="fill:#4d4d4d;" transform="translate(179.167216 152.356)rotate(-90)scale(0.088 -0.088)">
       <use xlink:href="#DejaVuSans-108"/>
       <use x="27.783203" xlink:href="#DejaVuSans-111"/>
       <use x="88.964844" xlink:href="#DejaVuSans-119"/>
      </g>
     </g>
    </g>
    <g id="xtick_2">
     <g id="line2d_2">
      <path d="M 197.715889 132.38 
" style="fill:none;stroke:#333333;stroke-width:1.5;"/>
      <g>
       <use style="fill:#333333;stroke:#333333;" x="197.715889" xlink:href="#mc6578be5cf" y="132.38"/>
      </g>
     </g>
     <g id="text_2">
      <!-- low-medium -->
      <defs>
       <path d="M 4.890625 31.390625 
L 31.203125 31.390625 
L 31.203125 23.390625 
L 4.890625 23.390625 
z
" id="DejaVuSans-45"/>
       <path d="M 52 44.1875 
Q 55.375 50.25 60.0625 53.125 
Q 64.75 56 71.09375 56 
Q 79.640625 56 84.28125 50.015625 
Q 88.921875 44.046875 88.921875 33.015625 
L 88.921875 0 
L 79.890625 0 
L 79.890625 32.71875 
Q 79.890625 40.578125 77.09375 44.375 
Q 74.3125 48.1875 68.609375 48.1875 
Q 61.625 48.1875 57.5625 43.546875 
Q 53.515625 38.921875 53.515625 30.90625 
L 53.515625 0 
L 44.484375 0 
L 44.484375 32.71875 
Q 44.484375 40.625 41.703125 44.40625 
Q 38.921875 48.1875 33.109375 48.1875 
Q 26.21875 48.1875 22.15625 43.53125 
Q 18.109375 38.875 18.109375 30.90625 
L 18.109375 0 
L 9.078125 0 
L 9.078125 54.6875 
L 18.109375 54.6875 
L 18.109375 46.1875 
Q 21.1875 51.21875 25.484375 53.609375 
Q 29.78125 56 35.6875 56 
Q 41.65625 56 45.828125 52.96875 
Q 50 49.953125 52 44.1875 
z
" id="DejaVuSans-109"/>
       <path d="M 56.203125 29.59375 
L 56.203125 25.203125 
L 14.890625 25.203125 
Q 15.484375 15.921875 20.484375 11.0625 
Q 25.484375 6.203125 34.421875 6.203125 
Q 39.59375 6.203125 44.453125 7.46875 
Q 49.3125 8.734375 54.109375 11.28125 
L 54.109375 2.78125 
Q 49.265625 0.734375 44.1875 -0.34375 
Q 39.109375 -1.421875 33.890625 -1.421875 
Q 20.796875 -1.421875 13.15625 6.1875 
Q 5.515625 13.8125 5.515625 26.8125 
Q 5.515625 40.234375 12.765625 48.109375 
Q 20.015625 56 32.328125 56 
Q 43.359375 56 49.78125 48.890625 
Q 56.203125 41.796875 56.203125 29.59375 
z
M 47.21875 32.234375 
Q 47.125 39.59375 43.09375 43.984375 
Q 39.0625 48.390625 32.421875 48.390625 
Q 24.90625 48.390625 20.390625 44.140625 
Q 15.875 39.890625 15.1875 32.171875 
z
" id="DejaVuSans-101"/>
       <path d="M 45.40625 46.390625 
L 45.40625 75.984375 
L 54.390625 75.984375 
L 54.390625 0 
L 45.40625 0 
L 45.40625 8.203125 
Q 42.578125 3.328125 38.25 0.953125 
Q 33.9375 -1.421875 27.875 -1.421875 
Q 17.96875 -1.421875 11.734375 6.484375 
Q 5.515625 14.40625 5.515625 27.296875 
Q 5.515625 40.1875 11.734375 48.09375 
Q 17.96875 56 27.875 56 
Q 33.9375 56 38.25 53.625 
Q 42.578125 51.265625 45.40625 46.390625 
z
M 14.796875 27.296875 
Q 14.796875 17.390625 18.875 11.75 
Q 22.953125 6.109375 30.078125 6.109375 
Q 37.203125 6.109375 41.296875 11.75 
Q 45.40625 17.390625 45.40625 27.296875 
Q 45.40625 37.203125 41.296875 42.84375 
Q 37.203125 48.484375 30.078125 48.484375 
Q 22.953125 48.484375 18.875 42.84375 
Q 14.796875 37.203125 14.796875 27.296875 
z
" id="DejaVuSans-100"/>
       <path d="M 9.421875 54.6875 
L 18.40625 54.6875 
L 18.40625 0 
L 9.421875 0 
z
M 9.421875 75.984375 
L 18.40625 75.984375 
L 18.40625 64.59375 
L 9.421875 64.59375 
z
" id="DejaVuSans-105"/>
       <path d="M 8.5 21.578125 
L 8.5 54.6875 
L 17.484375 54.6875 
L 17.484375 21.921875 
Q 17.484375 14.15625 20.5 10.265625 
Q 23.53125 6.390625 29.59375 6.390625 
Q 36.859375 6.390625 41.078125 11.03125 
Q 45.3125 15.671875 45.3125 23.6875 
L 45.3125 54.6875 
L 54.296875 54.6875 
L 54.296875 0 
L 45.3125 0 
L 45.3125 8.40625 
Q 42.046875 3.421875 37.71875 1 
Q 33.40625 -1.421875 27.6875 -1.421875 
Q 18.265625 -1.421875 13.375 4.4375 
Q 8.5 10.296875 8.5 21.578125 
z
M 31.109375 56 
z
" id="DejaVuSans-117"/>
      </defs>
      <g style="fill:#4d4d4d;" transform="translate(200.144139 191.6975)rotate(-90)scale(0.088 -0.088)">
       <use xlink:href="#DejaVuSans-108"/>
       <use x="27.783203" xlink:href="#DejaVuSans-111"/>
       <use x="88.964844" xlink:href="#DejaVuSans-119"/>
       <use x="170.751953" xlink:href="#DejaVuSans-45"/>
       <use x="206.835938" xlink:href="#DejaVuSans-109"/>
       <use x="304.248047" xlink:href="#DejaVuSans-101"/>
       <use x="365.771484" xlink:href="#DejaVuSans-100"/>
       <use x="429.248047" xlink:href="#DejaVuSans-105"/>
       <use x="457.03125" xlink:href="#DejaVuSans-117"/>
       <use x="520.410156" xlink:href="#DejaVuSans-109"/>
      </g>
     </g>
    </g>
    <g id="xtick_3">
     <g id="line2d_3">
      <path d="M 218.692813 132.38 
" style="fill:none;stroke:#333333;stroke-width:1.5;"/>
      <g>
       <use style="fill:#333333;stroke:#333333;" x="218.692813" xlink:href="#mc6578be5cf" y="132.38"/>
      </g>
     </g>
     <g id="text_3">
      <!-- medium -->
      <g style="fill:#4d4d4d;" transform="translate(221.121063 173.496625)rotate(-90)scale(0.088 -0.088)">
       <use xlink:href="#DejaVuSans-109"/>
       <use x="97.412109" xlink:href="#DejaVuSans-101"/>
       <use x="158.935547" xlink:href="#DejaVuSans-100"/>
       <use x="222.412109" xlink:href="#DejaVuSans-105"/>
       <use x="250.195312" xlink:href="#DejaVuSans-117"/>
       <use x="313.574219" xlink:href="#DejaVuSans-109"/>
      </g>
     </g>
    </g>
    <g id="xtick_4">
     <g id="line2d_4">
      <path d="M 239.669736 132.38 
" style="fill:none;stroke:#333333;stroke-width:1.5;"/>
      <g>
       <use style="fill:#333333;stroke:#333333;" x="239.669736" xlink:href="#mc6578be5cf" y="132.38"/>
      </g>
     </g>
     <g id="text_4">
      <!-- medium-high -->
      <defs>
       <path d="M 54.890625 33.015625 
L 54.890625 0 
L 45.90625 0 
L 45.90625 32.71875 
Q 45.90625 40.484375 42.875 44.328125 
Q 39.84375 48.1875 33.796875 48.1875 
Q 26.515625 48.1875 22.3125 43.546875 
Q 18.109375 38.921875 18.109375 30.90625 
L 18.109375 0 
L 9.078125 0 
L 9.078125 75.984375 
L 18.109375 75.984375 
L 18.109375 46.1875 
Q 21.34375 51.125 25.703125 53.5625 
Q 30.078125 56 35.796875 56 
Q 45.21875 56 50.046875 50.171875 
Q 54.890625 44.34375 54.890625 33.015625 
z
" id="DejaVuSans-104"/>
       <path d="M 45.40625 27.984375 
Q 45.40625 37.75 41.375 43.109375 
Q 37.359375 48.484375 30.078125 48.484375 
Q 22.859375 48.484375 18.828125 43.109375 
Q 14.796875 37.75 14.796875 27.984375 
Q 14.796875 18.265625 18.828125 12.890625 
Q 22.859375 7.515625 30.078125 7.515625 
Q 37.359375 7.515625 41.375 12.890625 
Q 45.40625 18.265625 45.40625 27.984375 
z
M 54.390625 6.78125 
Q 54.390625 -7.171875 48.1875 -13.984375 
Q 42 -20.796875 29.203125 -20.796875 
Q 24.46875 -20.796875 20.265625 -20.09375 
Q 16.0625 -19.390625 12.109375 -17.921875 
L 12.109375 -9.1875 
Q 16.0625 -11.328125 19.921875 -12.34375 
Q 23.78125 -13.375 27.78125 -13.375 
Q 36.625 -13.375 41.015625 -8.765625 
Q 45.40625 -4.15625 45.40625 5.171875 
L 45.40625 9.625 
Q 42.625 4.78125 38.28125 2.390625 
Q 33.9375 0 27.875 0 
Q 17.828125 0 11.671875 7.65625 
Q 5.515625 15.328125 5.515625 27.984375 
Q 5.515625 40.671875 11.671875 48.328125 
Q 17.828125 56 27.875 56 
Q 33.9375 56 38.28125 53.609375 
Q 42.625 51.21875 45.40625 46.390625 
L 45.40625 54.6875 
L 54.390625 54.6875 
z
" id="DejaVuSans-103"/>
      </defs>
      <g style="fill:#4d4d4d;" transform="translate(242.097986 195.856875)rotate(-90)scale(0.088 -0.088)">
       <use xlink:href="#DejaVuSans-109"/>
       <use x="97.412109" xlink:href="#DejaVuSans-101"/>
       <use x="158.935547" xlink:href="#DejaVuSans-100"/>
       <use x="222.412109" xlink:href="#DejaVuSans-105"/>
       <use x="250.195312" xlink:href="#DejaVuSans-117"/>
       <use x="313.574219" xlink:href="#DejaVuSans-109"/>
       <use x="410.986328" xlink:href="#DejaVuSans-45"/>
       <use x="447.070312" xlink:href="#DejaVuSans-104"/>
       <use x="510.449219" xlink:href="#DejaVuSans-105"/>
       <use x="538.232422" xlink:href="#DejaVuSans-103"/>
       <use x="601.708984" xlink:href="#DejaVuSans-104"/>
      </g>
     </g>
    </g>
    <g id="xtick_5">
     <g id="line2d_5">
      <path d="M 260.646659 132.38 
" style="fill:none;stroke:#333333;stroke-width:1.5;"/>
      <g>
       <use style="fill:#333333;stroke:#333333;" x="260.646659" xlink:href="#mc6578be5cf" y="132.38"/>
      </g>
     </g>
     <g id="text_5">
      <!-- high -->
      <g style="fill:#4d4d4d;" transform="translate(263.074909 156.515375)rotate(-90)scale(0.088 -0.088)">
       <use xlink:href="#DejaVuSans-104"/>
       <use x="63.378906" xlink:href="#DejaVuSans-105"/>
       <use x="91.162109" xlink:href="#DejaVuSans-103"/>
       <use x="154.638672" xlink:href="#DejaVuSans-104"/>
      </g>
     </g>
    </g>
   </g>
   <g id="matplotlib.axis_2">
    <g id="ytick_1">
     <g id="line2d_6">
      <path d="M 164.152813 124.266829 
" style="fill:none;stroke:#333333;stroke-width:1.5;"/>
      <defs>
       <path d="M 0 0 
L -2.75 0 
" id="m8b6c3d9f58" style="stroke:#333333;"/>
      </defs>
      <g>
       <use style="fill:#333333;stroke:#333333;" x="164.152813" xlink:href="#m8b6c3d9f58" y="124.266829"/>
      </g>
     </g>
     <g id="text_6">
      <!-- 456-484 -->
      <defs>
       <path d="M 37.796875 64.3125 
L 12.890625 25.390625 
L 37.796875 25.390625 
z
M 35.203125 72.90625 
L 47.609375 72.90625 
L 47.609375 25.390625 
L 58.015625 25.390625 
L 58.015625 17.1875 
L 47.609375 17.1875 
L 47.609375 0 
L 37.796875 0 
L 37.796875 17.1875 
L 4.890625 17.1875 
L 4.890625 26.703125 
z
" id="DejaVuSans-52"/>
       <path d="M 10.796875 72.90625 
L 49.515625 72.90625 
L 49.515625 64.59375 
L 19.828125 64.59375 
L 19.828125 46.734375 
Q 21.96875 47.46875 24.109375 47.828125 
Q 26.265625 48.1875 28.421875 48.1875 
Q 40.625 48.1875 47.75 41.5 
Q 54.890625 34.8125 54.890625 23.390625 
Q 54.890625 11.625 47.5625 5.09375 
Q 40.234375 -1.421875 26.90625 -1.421875 
Q 22.3125 -1.421875 17.546875 -0.640625 
Q 12.796875 0.140625 7.71875 1.703125 
L 7.71875 11.625 
Q 12.109375 9.234375 16.796875 8.0625 
Q 21.484375 6.890625 26.703125 6.890625 
Q 35.15625 6.890625 40.078125 11.328125 
Q 45.015625 15.765625 45.015625 23.390625 
Q 45.015625 31 40.078125 35.4375 
Q 35.15625 39.890625 26.703125 39.890625 
Q 22.75 39.890625 18.8125 39.015625 
Q 14.890625 38.140625 10.796875 36.28125 
z
" id="DejaVuSans-53"/>
       <path d="M 33.015625 40.375 
Q 26.375 40.375 22.484375 35.828125 
Q 18.609375 31.296875 18.609375 23.390625 
Q 18.609375 15.53125 22.484375 10.953125 
Q 26.375 6.390625 33.015625 6.390625 
Q 39.65625 6.390625 43.53125 10.953125 
Q 47.40625 15.53125 47.40625 23.390625 
Q 47.40625 31.296875 43.53125 35.828125 
Q 39.65625 40.375 33.015625 40.375 
z
M 52.59375 71.296875 
L 52.59375 62.3125 
Q 48.875 64.0625 45.09375 64.984375 
Q 41.3125 65.921875 37.59375 65.921875 
Q 27.828125 65.921875 22.671875 59.328125 
Q 17.53125 52.734375 16.796875 39.40625 
Q 19.671875 43.65625 24.015625 45.921875 
Q 28.375 48.1875 33.59375 48.1875 
Q 44.578125 48.1875 50.953125 41.515625 
Q 57.328125 34.859375 57.328125 23.390625 
Q 57.328125 12.15625 50.6875 5.359375 
Q 44.046875 -1.421875 33.015625 -1.421875 
Q 20.359375 -1.421875 13.671875 8.265625 
Q 6.984375 17.96875 6.984375 36.375 
Q 6.984375 53.65625 15.1875 63.9375 
Q 23.390625 74.21875 37.203125 74.21875 
Q 40.921875 74.21875 44.703125 73.484375 
Q 48.484375 72.75 52.59375 71.296875 
z
" id="DejaVuSans-54"/>
       <path d="M 31.78125 34.625 
Q 24.75 34.625 20.71875 30.859375 
Q 16.703125 27.09375 16.703125 20.515625 
Q 16.703125 13.921875 20.71875 10.15625 
Q 24.75 6.390625 31.78125 6.390625 
Q 38.8125 6.390625 42.859375 10.171875 
Q 46.921875 13.96875 46.921875 20.515625 
Q 46.921875 27.09375 42.890625 30.859375 
Q 38.875 34.625 31.78125 34.625 
z
M 21.921875 38.8125 
Q 15.578125 40.375 12.03125 44.71875 
Q 8.5 49.078125 8.5 55.328125 
Q 8.5 64.0625 14.71875 69.140625 
Q 20.953125 74.21875 31.78125 74.21875 
Q 42.671875 74.21875 48.875 69.140625 
Q 55.078125 64.0625 55.078125 55.328125 
Q 55.078125 49.078125 51.53125 44.71875 
Q 48 40.375 41.703125 38.8125 
Q 48.828125 37.15625 52.796875 32.3125 
Q 56.78125 27.484375 56.78125 20.515625 
Q 56.78125 9.90625 50.3125 4.234375 
Q 43.84375 -1.421875 31.78125 -1.421875 
Q 19.734375 -1.421875 13.25 4.234375 
Q 6.78125 9.90625 6.78125 20.515625 
Q 6.78125 27.484375 10.78125 32.3125 
Q 14.796875 37.15625 21.921875 38.8125 
z
M 18.3125 54.390625 
Q 18.3125 48.734375 21.84375 45.5625 
Q 25.390625 42.390625 31.78125 42.390625 
Q 38.140625 42.390625 41.71875 45.5625 
Q 45.3125 48.734375 45.3125 54.390625 
Q 45.3125 60.0625 41.71875 63.234375 
Q 38.140625 66.40625 31.78125 66.40625 
Q 25.390625 66.40625 21.84375 63.234375 
Q 18.3125 60.0625 18.3125 54.390625 
z
" id="DejaVuSans-56"/>
      </defs>
      <g style="fill:#4d4d4d;" transform="translate(122.433938 126.695079)scale(0.088 -0.088)">
       <use xlink:href="#DejaVuSans-52"/>
       <use x="63.623047" xlink:href="#DejaVuSans-53"/>
       <use x="127.246094" xlink:href="#DejaVuSans-54"/>
       <use x="190.869141" xlink:href="#DejaVuSans-45"/>
       <use x="226.953125" xlink:href="#DejaVuSans-52"/>
       <use x="290.576172" xlink:href="#DejaVuSans-56"/>
       <use x="354.199219" xlink:href="#DejaVuSans-52"/>
      </g>
     </g>
    </g>
    <g id="ytick_2">
     <g id="line2d_7">
      <path d="M 164.152813 110.744878 
" style="fill:none;stroke:#333333;stroke-width:1.5;"/>
      <g>
       <use style="fill:#333333;stroke:#333333;" x="164.152813" xlink:href="#m8b6c3d9f58" y="110.744878"/>
      </g>
     </g>
     <g id="text_7">
      <!-- 456-484 low magnitude -->
      <defs>
       <path id="DejaVuSans-32"/>
       <path d="M 34.28125 27.484375 
Q 23.390625 27.484375 19.1875 25 
Q 14.984375 22.515625 14.984375 16.5 
Q 14.984375 11.71875 18.140625 8.90625 
Q 21.296875 6.109375 26.703125 6.109375 
Q 34.1875 6.109375 38.703125 11.40625 
Q 43.21875 16.703125 43.21875 25.484375 
L 43.21875 27.484375 
z
M 52.203125 31.203125 
L 52.203125 0 
L 43.21875 0 
L 43.21875 8.296875 
Q 40.140625 3.328125 35.546875 0.953125 
Q 30.953125 -1.421875 24.3125 -1.421875 
Q 15.921875 -1.421875 10.953125 3.296875 
Q 6 8.015625 6 15.921875 
Q 6 25.140625 12.171875 29.828125 
Q 18.359375 34.515625 30.609375 34.515625 
L 43.21875 34.515625 
L 43.21875 35.40625 
Q 43.21875 41.609375 39.140625 45 
Q 35.0625 48.390625 27.6875 48.390625 
Q 23 48.390625 18.546875 47.265625 
Q 14.109375 46.140625 10.015625 43.890625 
L 10.015625 52.203125 
Q 14.9375 54.109375 19.578125 55.046875 
Q 24.21875 56 28.609375 56 
Q 40.484375 56 46.34375 49.84375 
Q 52.203125 43.703125 52.203125 31.203125 
z
" id="DejaVuSans-97"/>
       <path d="M 54.890625 33.015625 
L 54.890625 0 
L 45.90625 0 
L 45.90625 32.71875 
Q 45.90625 40.484375 42.875 44.328125 
Q 39.84375 48.1875 33.796875 48.1875 
Q 26.515625 48.1875 22.3125 43.546875 
Q 18.109375 38.921875 18.109375 30.90625 
L 18.109375 0 
L 9.078125 0 
L 9.078125 54.6875 
L 18.109375 54.6875 
L 18.109375 46.1875 
Q 21.34375 51.125 25.703125 53.5625 
Q 30.078125 56 35.796875 56 
Q 45.21875 56 50.046875 50.171875 
Q 54.890625 44.34375 54.890625 33.015625 
z
" id="DejaVuSans-110"/>
       <path d="M 18.3125 70.21875 
L 18.3125 54.6875 
L 36.8125 54.6875 
L 36.8125 47.703125 
L 18.3125 47.703125 
L 18.3125 18.015625 
Q 18.3125 11.328125 20.140625 9.421875 
Q 21.96875 7.515625 27.59375 7.515625 
L 36.8125 7.515625 
L 36.8125 0 
L 27.59375 0 
Q 17.1875 0 13.234375 3.875 
Q 9.28125 7.765625 9.28125 18.015625 
L 9.28125 47.703125 
L 2.6875 47.703125 
L 2.6875 54.6875 
L 9.28125 54.6875 
L 9.28125 70.21875 
z
" id="DejaVuSans-116"/>
      </defs>
      <g style="fill:#4d4d4d;" transform="translate(54.213313 113.173128)scale(0.088 -0.088)">
       <use xlink:href="#DejaVuSans-52"/>
       <use x="63.623047" xlink:href="#DejaVuSans-53"/>
       <use x="127.246094" xlink:href="#DejaVuSans-54"/>
       <use x="190.869141" xlink:href="#DejaVuSans-45"/>
       <use x="226.953125" xlink:href="#DejaVuSans-52"/>
       <use x="290.576172" xlink:href="#DejaVuSans-56"/>
       <use x="354.199219" xlink:href="#DejaVuSans-52"/>
       <use x="417.822266" xlink:href="#DejaVuSans-32"/>
       <use x="449.609375" xlink:href="#DejaVuSans-108"/>
       <use x="477.392578" xlink:href="#DejaVuSans-111"/>
       <use x="538.574219" xlink:href="#DejaVuSans-119"/>
       <use x="620.361328" xlink:href="#DejaVuSans-32"/>
       <use x="652.148438" xlink:href="#DejaVuSans-109"/>
       <use x="749.560547" xlink:href="#DejaVuSans-97"/>
       <use x="810.839844" xlink:href="#DejaVuSans-103"/>
       <use x="874.316406" xlink:href="#DejaVuSans-110"/>
       <use x="937.695312" xlink:href="#DejaVuSans-105"/>
       <use x="965.478516" xlink:href="#DejaVuSans-116"/>
       <use x="1004.6875" xlink:href="#DejaVuSans-117"/>
       <use x="1068.066406" xlink:href="#DejaVuSans-100"/>
       <use x="1131.542969" xlink:href="#DejaVuSans-101"/>
      </g>
     </g>
    </g>
    <g id="ytick_3">
     <g id="line2d_8">
      <path d="M 164.152813 97.222927 
" style="fill:none;stroke:#333333;stroke-width:1.5;"/>
      <g>
       <use style="fill:#333333;stroke:#333333;" x="164.152813" xlink:href="#m8b6c3d9f58" y="97.222927"/>
      </g>
     </g>
     <g id="text_8">
      <!-- 456-484 noisy -->
      <defs>
       <path d="M 44.28125 53.078125 
L 44.28125 44.578125 
Q 40.484375 46.53125 36.375 47.5 
Q 32.28125 48.484375 27.875 48.484375 
Q 21.1875 48.484375 17.84375 46.4375 
Q 14.5 44.390625 14.5 40.28125 
Q 14.5 37.15625 16.890625 35.375 
Q 19.28125 33.59375 26.515625 31.984375 
L 29.59375 31.296875 
Q 39.15625 29.25 43.1875 25.515625 
Q 47.21875 21.78125 47.21875 15.09375 
Q 47.21875 7.46875 41.1875 3.015625 
Q 35.15625 -1.421875 24.609375 -1.421875 
Q 20.21875 -1.421875 15.453125 -0.5625 
Q 10.6875 0.296875 5.421875 2 
L 5.421875 11.28125 
Q 10.40625 8.6875 15.234375 7.390625 
Q 20.0625 6.109375 24.8125 6.109375 
Q 31.15625 6.109375 34.5625 8.28125 
Q 37.984375 10.453125 37.984375 14.40625 
Q 37.984375 18.0625 35.515625 20.015625 
Q 33.0625 21.96875 24.703125 23.78125 
L 21.578125 24.515625 
Q 13.234375 26.265625 9.515625 29.90625 
Q 5.8125 33.546875 5.8125 39.890625 
Q 5.8125 47.609375 11.28125 51.796875 
Q 16.75 56 26.8125 56 
Q 31.78125 56 36.171875 55.265625 
Q 40.578125 54.546875 44.28125 53.078125 
z
" id="DejaVuSans-115"/>
       <path d="M 32.171875 -5.078125 
Q 28.375 -14.84375 24.75 -17.8125 
Q 21.140625 -20.796875 15.09375 -20.796875 
L 7.90625 -20.796875 
L 7.90625 -13.28125 
L 13.1875 -13.28125 
Q 16.890625 -13.28125 18.9375 -11.515625 
Q 21 -9.765625 23.484375 -3.21875 
L 25.09375 0.875 
L 2.984375 54.6875 
L 12.5 54.6875 
L 29.59375 11.921875 
L 46.6875 54.6875 
L 56.203125 54.6875 
z
" id="DejaVuSans-121"/>
      </defs>
      <g style="fill:#4d4d4d;" transform="translate(96.438188 99.651177)scale(0.088 -0.088)">
       <use xlink:href="#DejaVuSans-52"/>
       <use x="63.623047" xlink:href="#DejaVuSans-53"/>
       <use x="127.246094" xlink:href="#DejaVuSans-54"/>
       <use x="190.869141" xlink:href="#DejaVuSans-45"/>
       <use x="226.953125" xlink:href="#DejaVuSans-52"/>
       <use x="290.576172" xlink:href="#DejaVuSans-56"/>
       <use x="354.199219" xlink:href="#DejaVuSans-52"/>
       <use x="417.822266" xlink:href="#DejaVuSans-32"/>
       <use x="449.609375" xlink:href="#DejaVuSans-110"/>
       <use x="512.988281" xlink:href="#DejaVuSans-111"/>
       <use x="574.169922" xlink:href="#DejaVuSans-105"/>
       <use x="601.953125" xlink:href="#DejaVuSans-115"/>
       <use x="654.052734" xlink:href="#DejaVuSans-121"/>
      </g>
     </g>
    </g>
    <g id="ytick_4">
     <g id="line2d_9">
      <path d="M 164.152813 83.700976 
" style="fill:none;stroke:#333333;stroke-width:1.5;"/>
      <g>
       <use style="fill:#333333;stroke:#333333;" x="164.152813" xlink:href="#m8b6c3d9f58" y="83.700976"/>
      </g>
     </g>
     <g id="text_9">
      <!-- 456-484 low magnitude - noisy -->
      <g style="fill:#4d4d4d;" transform="translate(22.245938 86.129226)scale(0.088 -0.088)">
       <use xlink:href="#DejaVuSans-52"/>
       <use x="63.623047" xlink:href="#DejaVuSans-53"/>
       <use x="127.246094" xlink:href="#DejaVuSans-54"/>
       <use x="190.869141" xlink:href="#DejaVuSans-45"/>
       <use x="226.953125" xlink:href="#DejaVuSans-52"/>
       <use x="290.576172" xlink:href="#DejaVuSans-56"/>
       <use x="354.199219" xlink:href="#DejaVuSans-52"/>
       <use x="417.822266" xlink:href="#DejaVuSans-32"/>
       <use x="449.609375" xlink:href="#DejaVuSans-108"/>
       <use x="477.392578" xlink:href="#DejaVuSans-111"/>
       <use x="538.574219" xlink:href="#DejaVuSans-119"/>
       <use x="620.361328" xlink:href="#DejaVuSans-32"/>
       <use x="652.148438" xlink:href="#DejaVuSans-109"/>
       <use x="749.560547" xlink:href="#DejaVuSans-97"/>
       <use x="810.839844" xlink:href="#DejaVuSans-103"/>
       <use x="874.316406" xlink:href="#DejaVuSans-110"/>
       <use x="937.695312" xlink:href="#DejaVuSans-105"/>
       <use x="965.478516" xlink:href="#DejaVuSans-116"/>
       <use x="1004.6875" xlink:href="#DejaVuSans-117"/>
       <use x="1068.066406" xlink:href="#DejaVuSans-100"/>
       <use x="1131.542969" xlink:href="#DejaVuSans-101"/>
       <use x="1193.066406" xlink:href="#DejaVuSans-32"/>
       <use x="1224.853516" xlink:href="#DejaVuSans-45"/>
       <use x="1260.9375" xlink:href="#DejaVuSans-32"/>
       <use x="1292.724609" xlink:href="#DejaVuSans-110"/>
       <use x="1356.103516" xlink:href="#DejaVuSans-111"/>
       <use x="1417.285156" xlink:href="#DejaVuSans-105"/>
       <use x="1445.068359" xlink:href="#DejaVuSans-115"/>
       <use x="1497.167969" xlink:href="#DejaVuSans-121"/>
      </g>
     </g>
    </g>
    <g id="ytick_5">
     <g id="line2d_10">
      <path d="M 164.152813 70.179024 
" style="fill:none;stroke:#333333;stroke-width:1.5;"/>
      <g>
       <use style="fill:#333333;stroke:#333333;" x="164.152813" xlink:href="#m8b6c3d9f58" y="70.179024"/>
      </g>
     </g>
     <g id="text_10">
      <!-- 443-450 -->
      <defs>
       <path d="M 40.578125 39.3125 
Q 47.65625 37.796875 51.625 33 
Q 55.609375 28.21875 55.609375 21.1875 
Q 55.609375 10.40625 48.1875 4.484375 
Q 40.765625 -1.421875 27.09375 -1.421875 
Q 22.515625 -1.421875 17.65625 -0.515625 
Q 12.796875 0.390625 7.625 2.203125 
L 7.625 11.71875 
Q 11.71875 9.328125 16.59375 8.109375 
Q 21.484375 6.890625 26.8125 6.890625 
Q 36.078125 6.890625 40.9375 10.546875 
Q 45.796875 14.203125 45.796875 21.1875 
Q 45.796875 27.640625 41.28125 31.265625 
Q 36.765625 34.90625 28.71875 34.90625 
L 20.21875 34.90625 
L 20.21875 43.015625 
L 29.109375 43.015625 
Q 36.375 43.015625 40.234375 45.921875 
Q 44.09375 48.828125 44.09375 54.296875 
Q 44.09375 59.90625 40.109375 62.90625 
Q 36.140625 65.921875 28.71875 65.921875 
Q 24.65625 65.921875 20.015625 65.03125 
Q 15.375 64.15625 9.8125 62.3125 
L 9.8125 71.09375 
Q 15.4375 72.65625 20.34375 73.4375 
Q 25.25 74.21875 29.59375 74.21875 
Q 40.828125 74.21875 47.359375 69.109375 
Q 53.90625 64.015625 53.90625 55.328125 
Q 53.90625 49.265625 50.4375 45.09375 
Q 46.96875 40.921875 40.578125 39.3125 
z
" id="DejaVuSans-51"/>
       <path d="M 31.78125 66.40625 
Q 24.171875 66.40625 20.328125 58.90625 
Q 16.5 51.421875 16.5 36.375 
Q 16.5 21.390625 20.328125 13.890625 
Q 24.171875 6.390625 31.78125 6.390625 
Q 39.453125 6.390625 43.28125 13.890625 
Q 47.125 21.390625 47.125 36.375 
Q 47.125 51.421875 43.28125 58.90625 
Q 39.453125 66.40625 31.78125 66.40625 
z
M 31.78125 74.21875 
Q 44.046875 74.21875 50.515625 64.515625 
Q 56.984375 54.828125 56.984375 36.375 
Q 56.984375 17.96875 50.515625 8.265625 
Q 44.046875 -1.421875 31.78125 -1.421875 
Q 19.53125 -1.421875 13.0625 8.265625 
Q 6.59375 17.96875 6.59375 36.375 
Q 6.59375 54.828125 13.0625 64.515625 
Q 19.53125 74.21875 31.78125 74.21875 
z
" id="DejaVuSans-48"/>
      </defs>
      <g style="fill:#4d4d4d;" transform="translate(122.433938 72.607274)scale(0.088 -0.088)">
       <use xlink:href="#DejaVuSans-52"/>
       <use x="63.623047" xlink:href="#DejaVuSans-52"/>
       <use x="127.246094" xlink:href="#DejaVuSans-51"/>
       <use x="190.869141" xlink:href="#DejaVuSans-45"/>
       <use x="226.953125" xlink:href="#DejaVuSans-52"/>
       <use x="290.576172" xlink:href="#DejaVuSans-53"/>
       <use x="354.199219" xlink:href="#DejaVuSans-48"/>
      </g>
     </g>
    </g>
    <g id="ytick_6">
     <g id="line2d_11">
      <path d="M 164.152813 56.657073 
" style="fill:none;stroke:#333333;stroke-width:1.5;"/>
      <g>
       <use style="fill:#333333;stroke:#333333;" x="164.152813" xlink:href="#m8b6c3d9f58" y="56.657073"/>
      </g>
     </g>
     <g id="text_11">
      <!-- core -->
      <defs>
       <path d="M 48.78125 52.59375 
L 48.78125 44.1875 
Q 44.96875 46.296875 41.140625 47.34375 
Q 37.3125 48.390625 33.40625 48.390625 
Q 24.65625 48.390625 19.8125 42.84375 
Q 14.984375 37.3125 14.984375 27.296875 
Q 14.984375 17.28125 19.8125 11.734375 
Q 24.65625 6.203125 33.40625 6.203125 
Q 37.3125 6.203125 41.140625 7.25 
Q 44.96875 8.296875 48.78125 10.40625 
L 48.78125 2.09375 
Q 45.015625 0.34375 40.984375 -0.53125 
Q 36.96875 -1.421875 32.421875 -1.421875 
Q 20.0625 -1.421875 12.78125 6.34375 
Q 5.515625 14.109375 5.515625 27.296875 
Q 5.515625 40.671875 12.859375 48.328125 
Q 20.21875 56 33.015625 56 
Q 37.15625 56 41.109375 55.140625 
Q 45.0625 54.296875 48.78125 52.59375 
z
" id="DejaVuSans-99"/>
       <path d="M 41.109375 46.296875 
Q 39.59375 47.171875 37.8125 47.578125 
Q 36.03125 48 33.890625 48 
Q 26.265625 48 22.1875 43.046875 
Q 18.109375 38.09375 18.109375 28.8125 
L 18.109375 0 
L 9.078125 0 
L 9.078125 54.6875 
L 18.109375 54.6875 
L 18.109375 46.1875 
Q 20.953125 51.171875 25.484375 53.578125 
Q 30.03125 56 36.53125 56 
Q 37.453125 56 38.578125 55.875 
Q 39.703125 55.765625 41.0625 55.515625 
z
" id="DejaVuSans-114"/>
      </defs>
      <g style="fill:#4d4d4d;" transform="translate(140.145313 59.085323)scale(0.088 -0.088)">
       <use xlink:href="#DejaVuSans-99"/>
       <use x="54.980469" xlink:href="#DejaVuSans-111"/>
       <use x="116.162109" xlink:href="#DejaVuSans-114"/>
       <use x="155.025391" xlink:href="#DejaVuSans-101"/>
      </g>
     </g>
    </g>
    <g id="ytick_7">
     <g id="line2d_12">
      <path d="M 164.152813 43.135122 
" style="fill:none;stroke:#333333;stroke-width:1.5;"/>
      <g>
       <use style="fill:#333333;stroke:#333333;" x="164.152813" xlink:href="#m8b6c3d9f58" y="43.135122"/>
      </g>
     </g>
     <g id="text_12">
      <!-- flat - noisy -->
      <defs>
       <path d="M 37.109375 75.984375 
L 37.109375 68.5 
L 28.515625 68.5 
Q 23.6875 68.5 21.796875 66.546875 
Q 19.921875 64.59375 19.921875 59.515625 
L 19.921875 54.6875 
L 34.71875 54.6875 
L 34.71875 47.703125 
L 19.921875 47.703125 
L 19.921875 0 
L 10.890625 0 
L 10.890625 47.703125 
L 2.296875 47.703125 
L 2.296875 54.6875 
L 10.890625 54.6875 
L 10.890625 58.5 
Q 10.890625 67.625 15.140625 71.796875 
Q 19.390625 75.984375 28.609375 75.984375 
z
" id="DejaVuSans-102"/>
      </defs>
      <g style="fill:#4d4d4d;" transform="translate(112.850188 45.563372)scale(0.088 -0.088)">
       <use xlink:href="#DejaVuSans-102"/>
       <use x="35.205078" xlink:href="#DejaVuSans-108"/>
       <use x="62.988281" xlink:href="#DejaVuSans-97"/>
       <use x="124.267578" xlink:href="#DejaVuSans-116"/>
       <use x="163.476562" xlink:href="#DejaVuSans-32"/>
       <use x="195.263672" xlink:href="#DejaVuSans-45"/>
       <use x="231.347656" xlink:href="#DejaVuSans-32"/>
       <use x="263.134766" xlink:href="#DejaVuSans-110"/>
       <use x="326.513672" xlink:href="#DejaVuSans-111"/>
       <use x="387.695312" xlink:href="#DejaVuSans-105"/>
       <use x="415.478516" xlink:href="#DejaVuSans-115"/>
       <use x="467.578125" xlink:href="#DejaVuSans-121"/>
      </g>
     </g>
    </g>
    <g id="ytick_8">
     <g id="line2d_13">
      <path d="M 164.152813 29.613171 
" style="fill:none;stroke:#333333;stroke-width:1.5;"/>
      <g>
       <use style="fill:#333333;stroke:#333333;" x="164.152813" xlink:href="#m8b6c3d9f58" y="29.613171"/>
      </g>
     </g>
     <g id="text_13">
      <!-- flat -->
      <g style="fill:#4d4d4d;" transform="translate(144.817563 32.041421)scale(0.088 -0.088)">
       <use xlink:href="#DejaVuSans-102"/>
       <use x="35.205078" xlink:href="#DejaVuSans-108"/>
       <use x="62.988281" xlink:href="#DejaVuSans-97"/>
       <use x="124.267578" xlink:href="#DejaVuSans-116"/>
      </g>
     </g>
    </g>
    <g id="text_14">
     <!-- escape map -->
     <defs>
      <path d="M 18.109375 8.203125 
L 18.109375 -20.796875 
L 9.078125 -20.796875 
L 9.078125 54.6875 
L 18.109375 54.6875 
L 18.109375 46.390625 
Q 20.953125 51.265625 25.265625 53.625 
Q 29.59375 56 35.59375 56 
Q 45.5625 56 51.78125 48.09375 
Q 58.015625 40.1875 58.015625 27.296875 
Q 58.015625 14.40625 51.78125 6.484375 
Q 45.5625 -1.421875 35.59375 -1.421875 
Q 29.59375 -1.421875 25.265625 0.953125 
Q 20.953125 3.328125 18.109375 8.203125 
z
M 48.6875 27.296875 
Q 48.6875 37.203125 44.609375 42.84375 
Q 40.53125 48.484375 33.40625 48.484375 
Q 26.265625 48.484375 22.1875 42.84375 
Q 18.109375 37.203125 18.109375 27.296875 
Q 18.109375 17.390625 22.1875 11.75 
Q 26.265625 6.109375 33.40625 6.109375 
Q 40.53125 6.109375 44.609375 11.75 
Q 48.6875 17.390625 48.6875 27.296875 
z
" id="DejaVuSans-112"/>
     </defs>
     <g transform="translate(15.558281 109.707266)rotate(-90)scale(0.11 -0.11)">
      <use xlink:href="#DejaVuSans-101"/>
      <use x="61.523438" xlink:href="#DejaVuSans-115"/>
      <use x="113.623047" xlink:href="#DejaVuSans-99"/>
      <use x="168.603516" xlink:href="#DejaVuSans-97"/>
      <use x="229.882812" xlink:href="#DejaVuSans-112"/>
      <use x="293.359375" xlink:href="#DejaVuSans-101"/>
      <use x="354.882812" xlink:href="#DejaVuSans-32"/>
      <use x="386.669922" xlink:href="#DejaVuSans-109"/>
      <use x="484.082031" xlink:href="#DejaVuSans-97"/>
      <use x="545.361328" xlink:href="#DejaVuSans-112"/>
     </g>
    </g>
   </g>
   <g id="PathCollection_1">
    <path clip-path="url(#p3bd7cc0eb5)" d="M 178.411207 125.52079 
C 179.116297 125.52079 179.792604 125.240654 180.291178 124.74208 
C 180.789752 124.243506 181.069888 123.567199 181.069888 122.862109 
C 181.069888 122.157018 180.789752 121.480712 180.291178 120.982138 
C 179.792604 120.483563 179.116297 120.203428 178.411207 120.203428 
C 177.706117 120.203428 177.02981 120.483563 176.531236 120.982138 
C 176.032662 121.480712 175.752526 122.157018 175.752526 122.862109 
C 175.752526 123.567199 176.032662 124.243506 176.531236 124.74208 
C 177.02981 125.240654 177.706117 125.52079 178.411207 125.52079 
z
" style="fill-opacity:0.25098;stroke:#000000;stroke-opacity:0.25098;stroke-width:0.886227;"/>
    <path clip-path="url(#p3bd7cc0eb5)" d="M 219.20146 125.273033 
C 219.90655 125.273033 220.582857 124.992897 221.081431 124.494323 
C 221.580005 123.995749 221.86014 123.319442 221.86014 122.614352 
C 221.86014 121.909261 221.580005 121.232955 221.081431 120.734381 
C 220.582857 120.235806 219.90655 119.955671 219.20146 119.955671 
C 218.496369 119.955671 217.820063 120.235806 217.321488 120.734381 
C 216.822914 121.232955 216.542779 121.909261 216.542779 122.614352 
C 216.542779 123.319442 216.822914 123.995749 217.321488 124.494323 
C 217.820063 124.992897 218.496369 125.273033 219.20146 125.273033 
z
" style="fill-opacity:0.25098;stroke:#000000;stroke-opacity:0.25098;stroke-width:0.886227;"/>
    <path clip-path="url(#p3bd7cc0eb5)" d="M 259.106048 87.01304 
C 259.811139 87.01304 260.487445 86.732904 260.98602 86.23433 
C 261.484594 85.735756 261.764729 85.059449 261.764729 84.354359 
C 261.764729 83.649268 261.484594 82.972962 260.98602 82.474388 
C 260.487445 81.975813 259.811139 81.695678 259.106048 81.695678 
C 258.400958 81.695678 257.724651 81.975813 257.226077 82.474388 
C 256.727503 82.972962 256.447368 83.649268 256.447368 84.354359 
C 256.447368 85.059449 256.727503 85.735756 257.226077 86.23433 
C 257.724651 86.732904 258.400958 87.01304 259.106048 87.01304 
z
" style="fill-opacity:0.25098;stroke:#000000;stroke-opacity:0.25098;stroke-width:0.886227;"/>
    <path clip-path="url(#p3bd7cc0eb5)" d="M 179.868929 125.802067 
C 180.574019 125.802067 181.250326 125.521932 181.7489 125.023358 
C 182.247475 124.524783 182.52761 123.848477 182.52761 123.143386 
C 182.52761 122.438296 182.247475 121.761989 181.7489 121.263415 
C 181.250326 120.764841 180.574019 120.484706 179.868929 120.484706 
C 179.163839 120.484706 178.487532 120.764841 177.988958 121.263415 
C 177.490384 121.761989 177.210248 122.438296 177.210248 123.143386 
C 177.210248 123.848477 177.490384 124.524783 177.988958 125.023358 
C 178.487532 125.521932 179.163839 125.802067 179.868929 125.802067 
z
" style="fill-opacity:0.25098;stroke:#000000;stroke-opacity:0.25098;stroke-width:0.886227;"/>
    <path clip-path="url(#p3bd7cc0eb5)" d="M 261.263129 98.10472 
C 261.968219 98.10472 262.644526 97.824584 263.1431 97.32601 
C 263.641674 96.827436 263.92181 96.151129 263.92181 95.446039 
C 263.92181 94.740948 263.641674 94.064642 263.1431 93.566068 
C 262.644526 93.067493 261.968219 92.787358 261.263129 92.787358 
C 260.558039 92.787358 259.881732 93.067493 259.383158 93.566068 
C 258.884584 94.064642 258.604448 94.740948 258.604448 95.446039 
C 258.604448 96.151129 258.884584 96.827436 259.383158 97.32601 
C 259.881732 97.824584 260.558039 98.10472 261.263129 98.10472 
z
" style="fill-opacity:0.25098;stroke:#000000;stroke-opacity:0.25098;stroke-width:0.886227;"/>
    <path clip-path="url(#p3bd7cc0eb5)" d="M 177.677908 128.391969 
C 178.382999 128.391969 179.059305 128.111834 179.557879 127.61326 
C 180.056454 127.114686 180.336589 126.438379 180.336589 125.733289 
C 180.336589 125.028198 180.056454 124.351892 179.557879 123.853317 
C 179.059305 123.354743 178.382999 123.074608 177.677908 123.074608 
C 176.972818 123.074608 176.296511 123.354743 175.797937 123.853317 
C 175.299363 124.351892 175.019227 125.028198 175.019227 125.733289 
C 175.019227 126.438379 175.299363 127.114686 175.797937 127.61326 
C 176.296511 128.111834 176.972818 128.391969 177.677908 128.391969 
z
" style="fill-opacity:0.25098;stroke:#000000;stroke-opacity:0.25098;stroke-width:0.886227;"/>
    <path clip-path="url(#p3bd7cc0eb5)" d="M 174.871614 125.119949 
C 175.576705 125.119949 176.253011 124.839814 176.751586 124.34124 
C 177.25016 123.842665 177.530295 123.166359 177.530295 122.461268 
C 177.530295 121.756178 177.25016 121.079871 176.751586 120.581297 
C 176.253011 120.082723 175.576705 119.802588 174.871614 119.802588 
C 174.166524 119.802588 173.490217 120.082723 172.991643 120.581297 
C 172.493069 121.079871 172.212934 121.756178 172.212934 122.461268 
C 172.212934 123.166359 172.493069 123.842665 172.991643 124.34124 
C 173.490217 124.839814 174.166524 125.119949 174.871614 125.119949 
z
" style="fill-opacity:0.25098;stroke:#000000;stroke-opacity:0.25098;stroke-width:0.886227;"/>
    <path clip-path="url(#p3bd7cc0eb5)" d="M 178.98748 125.57527 
C 179.69257 125.57527 180.368877 125.295135 180.867451 124.796561 
C 181.366025 124.297986 181.64616 123.62168 181.64616 122.916589 
C 181.64616 122.211499 181.366025 121.535192 180.867451 121.036618 
C 180.368877 120.538044 179.69257 120.257909 178.98748 120.257909 
C 178.282389 120.257909 177.606083 120.538044 177.107508 121.036618 
C 176.608934 121.535192 176.328799 122.211499 176.328799 122.916589 
C 176.328799 123.62168 176.608934 124.297986 177.107508 124.796561 
C 177.606083 125.295135 178.282389 125.57527 178.98748 125.57527 
z
" style="fill-opacity:0.25098;stroke:#000000;stroke-opacity:0.25098;stroke-width:0.886227;"/>
    <path clip-path="url(#p3bd7cc0eb5)" d="M 177.102668 31.525321 
C 177.807759 31.525321 178.484065 31.245185 178.98264 30.746611 
C 179.481214 30.248037 179.761349 29.57173 179.761349 28.86664 
C 179.761349 28.161549 179.481214 27.485243 178.98264 26.986669 
C 178.484065 26.488094 177.807759 26.207959 177.102668 26.207959 
C 176.397578 26.207959 175.721271 26.488094 175.222697 26.986669 
C 174.724123 27.485243 174.443988 28.161549 174.443988 28.86664 
C 174.443988 29.57173 174.724123 30.248037 175.222697 30.746611 
C 175.721271 31.245185 176.397578 31.525321 177.102668 31.525321 
z
" style="fill-opacity:0.25098;stroke:#000000;stroke-opacity:0.25098;stroke-width:0.886227;"/>
    <path clip-path="url(#p3bd7cc0eb5)" d="M 176.789754 128.595017 
C 177.494844 128.595017 178.171151 128.314881 178.669725 127.816307 
C 179.168299 127.317733 179.448434 126.641426 179.448434 125.936336 
C 179.448434 125.231245 179.168299 124.554939 178.669725 124.056365 
C 178.171151 123.55779 177.494844 123.277655 176.789754 123.277655 
C 176.084663 123.277655 175.408357 123.55779 174.909782 124.056365 
C 174.411208 124.554939 174.131073 125.231245 174.131073 125.936336 
C 174.131073 126.641426 174.411208 127.317733 174.909782 127.816307 
C 175.408357 128.314881 176.084663 128.595017 176.789754 128.595017 
z
" style="fill-opacity:0.25098;stroke:#000000;stroke-opacity:0.25098;stroke-width:0.886227;"/>
    <path clip-path="url(#p3bd7cc0eb5)" d="M 175.137473 127.026486 
C 175.842563 127.026486 176.51887 126.746351 177.017444 126.247776 
C 177.516018 125.749202 177.796154 125.072896 177.796154 124.367805 
C 177.796154 123.662715 177.516018 122.986408 177.017444 122.487834 
C 176.51887 121.98926 175.842563 121.709124 175.137473 121.709124 
C 174.432382 121.709124 173.756076 121.98926 173.257502 122.487834 
C 172.758927 122.986408 172.478792 123.662715 172.478792 124.367805 
C 172.478792 125.072896 172.758927 125.749202 173.257502 126.247776 
C 173.756076 126.746351 174.432382 127.026486 175.137473 127.026486 
z
" style="fill-opacity:0.25098;stroke:#000000;stroke-opacity:0.25098;stroke-width:0.886227;"/>
    <path clip-path="url(#p3bd7cc0eb5)" d="M 176.651371 127.012833 
C 177.356462 127.012833 178.032768 126.732698 178.531343 126.234124 
C 179.029917 125.73555 179.310052 125.059243 179.310052 124.354153 
C 179.310052 123.649062 179.029917 122.972756 178.531343 122.474182 
C 178.032768 121.975607 177.356462 121.695472 176.651371 121.695472 
C 175.946281 121.695472 175.269974 121.975607 174.7714 122.474182 
C 174.272826 122.972756 173.992691 123.649062 173.992691 124.354153 
C 173.992691 125.059243 174.272826 125.73555 174.7714 126.234124 
C 175.269974 126.732698 175.946281 127.012833 176.651371 127.012833 
z
" style="fill-opacity:0.25098;stroke:#000000;stroke-opacity:0.25098;stroke-width:0.886227;"/>
    <path clip-path="url(#p3bd7cc0eb5)" d="M 218.381113 72.977419 
C 219.086203 72.977419 219.76251 72.697284 220.261084 72.19871 
C 220.759658 71.700136 221.039793 71.023829 221.039793 70.318739 
C 221.039793 69.613648 220.759658 68.937342 220.261084 68.438767 
C 219.76251 67.940193 219.086203 67.660058 218.381113 67.660058 
C 217.676022 67.660058 216.999716 67.940193 216.501141 68.438767 
C 216.002567 68.937342 215.722432 69.613648 215.722432 70.318739 
C 215.722432 71.023829 216.002567 71.700136 216.501141 72.19871 
C 216.999716 72.697284 217.676022 72.977419 218.381113 72.977419 
z
" style="fill-opacity:0.25098;stroke:#000000;stroke-opacity:0.25098;stroke-width:0.886227;"/>
    <path clip-path="url(#p3bd7cc0eb5)" d="M 216.623157 70.907374 
C 217.328247 70.907374 218.004554 70.627239 218.503128 70.128665 
C 219.001702 69.63009 219.281838 68.953784 219.281838 68.248693 
C 219.281838 67.543603 219.001702 66.867296 218.503128 66.368722 
C 218.004554 65.870148 217.328247 65.590013 216.623157 65.590013 
C 215.918067 65.590013 215.24176 65.870148 214.743186 66.368722 
C 214.244612 66.867296 213.964476 67.543603 213.964476 68.248693 
C 213.964476 68.953784 214.244612 69.63009 214.743186 70.128665 
C 215.24176 70.627239 215.918067 70.907374 216.623157 70.907374 
z
" style="fill-opacity:0.25098;stroke:#000000;stroke-opacity:0.25098;stroke-width:0.886227;"/>
    <path clip-path="url(#p3bd7cc0eb5)" d="M 259.777064 32.073411 
C 260.482154 32.073411 261.158461 31.793276 261.657035 31.294702 
C 262.15561 30.796128 262.435745 30.119821 262.435745 29.414731 
C 262.435745 28.70964 262.15561 28.033334 261.657035 27.534759 
C 261.158461 27.036185 260.482154 26.75605 259.777064 26.75605 
C 259.071974 26.75605 258.395667 27.036185 257.897093 27.534759 
C 257.398519 28.033334 257.118383 28.70964 257.118383 29.414731 
C 257.118383 30.119821 257.398519 30.796128 257.897093 31.294702 
C 258.395667 31.793276 259.071974 32.073411 259.777064 32.073411 
z
" style="fill-opacity:0.25098;stroke:#000000;stroke-opacity:0.25098;stroke-width:0.886227;"/>
    <path clip-path="url(#p3bd7cc0eb5)" d="M 259.004517 73.095847 
C 259.709607 73.095847 260.385914 72.815711 260.884488 72.317137 
C 261.383062 71.818563 261.663198 71.142256 261.663198 70.437166 
C 261.663198 69.732075 261.383062 69.055769 260.884488 68.557195 
C 260.385914 68.05862 259.709607 67.778485 259.004517 67.778485 
C 258.299426 67.778485 257.62312 68.05862 257.124546 68.557195 
C 256.625971 69.055769 256.345836 69.732075 256.345836 70.437166 
C 256.345836 71.142256 256.625971 71.818563 257.124546 72.317137 
C 257.62312 72.815711 258.299426 73.095847 259.004517 73.095847 
z
" style="fill-opacity:0.25098;stroke:#000000;stroke-opacity:0.25098;stroke-width:0.886227;"/>
    <path clip-path="url(#p3bd7cc0eb5)" d="M 263.370973 71.547099 
C 264.076063 71.547099 264.75237 71.266964 265.250944 70.76839 
C 265.749518 70.269816 266.029654 69.593509 266.029654 68.888419 
C 266.029654 68.183328 265.749518 67.507022 265.250944 67.008447 
C 264.75237 66.509873 264.076063 66.229738 263.370973 66.229738 
C 262.665882 66.229738 261.989576 66.509873 261.491002 67.008447 
C 260.992427 67.507022 260.712292 68.183328 260.712292 68.888419 
C 260.712292 69.593509 260.992427 70.269816 261.491002 70.76839 
C 261.989576 71.266964 262.665882 71.547099 263.370973 71.547099 
z
" style="fill-opacity:0.25098;stroke:#000000;stroke-opacity:0.25098;stroke-width:0.886227;"/>
    <path clip-path="url(#p3bd7cc0eb5)" d="M 262.025635 72.319081 
C 262.730725 72.319081 263.407032 72.038945 263.905606 71.540371 
C 264.40418 71.041797 264.684316 70.36549 264.684316 69.6604 
C 264.684316 68.95531 264.40418 68.279003 263.905606 67.780429 
C 263.407032 67.281855 262.730725 67.001719 262.025635 67.001719 
C 261.320544 67.001719 260.644238 67.281855 260.145664 67.780429 
C 259.647089 68.279003 259.366954 68.95531 259.366954 69.6604 
C 259.366954 70.36549 259.647089 71.041797 260.145664 71.540371 
C 260.644238 72.038945 261.320544 72.319081 262.025635 72.319081 
z
" style="fill-opacity:0.25098;stroke:#000000;stroke-opacity:0.25098;stroke-width:0.886227;"/>
    <path clip-path="url(#p3bd7cc0eb5)" d="M 260.706942 72.966249 
C 261.412032 72.966249 262.088339 72.686114 262.586913 72.187539 
C 263.085487 71.688965 263.365623 71.012659 263.365623 70.307568 
C 263.365623 69.602478 263.085487 68.926171 262.586913 68.427597 
C 262.088339 67.929023 261.412032 67.648887 260.706942 67.648887 
C 260.001852 67.648887 259.325545 67.929023 258.826971 68.427597 
C 258.328397 68.926171 258.048261 69.602478 258.048261 70.307568 
C 258.048261 71.012659 258.328397 71.688965 258.826971 72.187539 
C 259.325545 72.686114 260.001852 72.966249 260.706942 72.966249 
z
" style="fill-opacity:0.25098;stroke:#000000;stroke-opacity:0.25098;stroke-width:0.886227;"/>
    <path clip-path="url(#p3bd7cc0eb5)" d="M 176.039528 57.570369 
C 176.744618 57.570369 177.420925 57.290233 177.919499 56.791659 
C 178.418073 56.293085 178.698209 55.616778 178.698209 54.911688 
C 178.698209 54.206597 178.418073 53.530291 177.919499 53.031717 
C 177.420925 52.533142 176.744618 52.253007 176.039528 52.253007 
C 175.334437 52.253007 174.658131 52.533142 174.159557 53.031717 
C 173.660982 53.530291 173.380847 54.206597 173.380847 54.911688 
C 173.380847 55.616778 173.660982 56.293085 174.159557 56.791659 
C 174.658131 57.290233 175.334437 57.570369 176.039528 57.570369 
z
" style="fill-opacity:0.25098;stroke:#000000;stroke-opacity:0.25098;stroke-width:0.886227;"/>
    <path clip-path="url(#p3bd7cc0eb5)" d="M 258.377416 31.839489 
C 259.082506 31.839489 259.758813 31.559353 260.257387 31.060779 
C 260.755961 30.562205 261.036097 29.885898 261.036097 29.180808 
C 261.036097 28.475717 260.755961 27.799411 260.257387 27.300837 
C 259.758813 26.802262 259.082506 26.522127 258.377416 26.522127 
C 257.672325 26.522127 256.996019 26.802262 256.497445 27.300837 
C 255.99887 27.799411 255.718735 28.475717 255.718735 29.180808 
C 255.718735 29.885898 255.99887 30.562205 256.497445 31.060779 
C 256.996019 31.559353 257.672325 31.839489 258.377416 31.839489 
z
" style="fill-opacity:0.25098;stroke:#000000;stroke-opacity:0.25098;stroke-width:0.886227;"/>
    <path clip-path="url(#p3bd7cc0eb5)" d="M 179.372045 113.944055 
C 180.077135 113.944055 180.753442 113.66392 181.252016 113.165346 
C 181.75059 112.666771 182.030726 111.990465 182.030726 111.285374 
C 182.030726 110.580284 181.75059 109.903977 181.252016 109.405403 
C 180.753442 108.906829 180.077135 108.626694 179.372045 108.626694 
C 178.666954 108.626694 177.990648 108.906829 177.492074 109.405403 
C 176.993499 109.903977 176.713364 110.580284 176.713364 111.285374 
C 176.713364 111.990465 176.993499 112.666771 177.492074 113.165346 
C 177.990648 113.66392 178.666954 113.944055 179.372045 113.944055 
z
" style="fill-opacity:0.25098;stroke:#000000;stroke-opacity:0.25098;stroke-width:0.886227;"/>
   </g>
   <g id="patch_3">
    <path d="M 164.152813 21.5 
L 273.232813 21.5 
L 273.232813 7.2 
L 164.152813 7.2 
z
" style="fill:none;stroke:#000000;stroke-linejoin:miter;"/>
   </g>
   <g id="patch_4">
    <path d="M 164.152813 132.38 
L 164.152813 21.5 
" style="fill:none;stroke:#000000;stroke-linecap:square;stroke-linejoin:miter;"/>
   </g>
   <g id="patch_5">
    <path d="M 164.152813 132.38 
L 273.232813 132.38 
" style="fill:none;stroke:#000000;stroke-linecap:square;stroke-linejoin:miter;"/>
   </g>
   <g id="text_15">
    <!-- convalescent -->
    <defs>
     <path d="M 2.984375 54.6875 
L 12.5 54.6875 
L 29.59375 8.796875 
L 46.6875 54.6875 
L 56.203125 54.6875 
L 35.6875 0 
L 23.484375 0 
z
" id="DejaVuSans-118"/>
    </defs>
    <g style="fill:#1a1a1a;" transform="translate(189.630125 16.77825)scale(0.088 -0.088)">
     <use xlink:href="#DejaVuSans-99"/>
     <use x="54.980469" xlink:href="#DejaVuSans-111"/>
     <use x="116.162109" xlink:href="#DejaVuSans-110"/>
     <use x="179.541016" xlink:href="#DejaVuSans-118"/>
     <use x="238.720703" xlink:href="#DejaVuSans-97"/>
     <use x="300" xlink:href="#DejaVuSans-108"/>
     <use x="327.783203" xlink:href="#DejaVuSans-101"/>
     <use x="389.306641" xlink:href="#DejaVuSans-115"/>
     <use x="441.40625" xlink:href="#DejaVuSans-99"/>
     <use x="496.386719" xlink:href="#DejaVuSans-101"/>
     <use x="557.910156" xlink:href="#DejaVuSans-110"/>
     <use x="621.289062" xlink:href="#DejaVuSans-116"/>
    </g>
   </g>
  </g>
  <g id="axes_2">
   <g id="patch_6">
    <path d="M 278.272813 132.38 
L 387.352813 132.38 
L 387.352813 21.5 
L 278.272813 21.5 
z
" style="fill:#ffffff;"/>
   </g>
   <g id="matplotlib.axis_3">
    <g id="xtick_6">
     <g id="line2d_14">
      <path d="M 290.858966 132.38 
" style="fill:none;stroke:#333333;stroke-linecap:square;stroke-width:1.5;"/>
      <g>
       <use style="fill:#333333;stroke:#333333;" x="290.858966" xlink:href="#mc6578be5cf" y="132.38"/>
      </g>
     </g>
     <g id="text_16">
      <!-- low -->
      <g style="fill:#4d4d4d;" transform="translate(293.287216 152.356)rotate(-90)scale(0.088 -0.088)">
       <use xlink:href="#DejaVuSans-108"/>
       <use x="27.783203" xlink:href="#DejaVuSans-111"/>
       <use x="88.964844" xlink:href="#DejaVuSans-119"/>
      </g>
     </g>
    </g>
    <g id="xtick_7">
     <g id="line2d_15">
      <path d="M 311.835889 132.38 
" style="fill:none;stroke:#333333;stroke-linecap:square;stroke-width:1.5;"/>
      <g>
       <use style="fill:#333333;stroke:#333333;" x="311.835889" xlink:href="#mc6578be5cf" y="132.38"/>
      </g>
     </g>
     <g id="text_17">
      <!-- low-medium -->
      <g style="fill:#4d4d4d;" transform="translate(314.264139 191.6975)rotate(-90)scale(0.088 -0.088)">
       <use xlink:href="#DejaVuSans-108"/>
       <use x="27.783203" xlink:href="#DejaVuSans-111"/>
       <use x="88.964844" xlink:href="#DejaVuSans-119"/>
       <use x="170.751953" xlink:href="#DejaVuSans-45"/>
       <use x="206.835938" xlink:href="#DejaVuSans-109"/>
       <use x="304.248047" xlink:href="#DejaVuSans-101"/>
       <use x="365.771484" xlink:href="#DejaVuSans-100"/>
       <use x="429.248047" xlink:href="#DejaVuSans-105"/>
       <use x="457.03125" xlink:href="#DejaVuSans-117"/>
       <use x="520.410156" xlink:href="#DejaVuSans-109"/>
      </g>
     </g>
    </g>
    <g id="xtick_8">
     <g id="line2d_16">
      <path d="M 332.812813 132.38 
" style="fill:none;stroke:#333333;stroke-linecap:square;stroke-width:1.5;"/>
      <g>
       <use style="fill:#333333;stroke:#333333;" x="332.812813" xlink:href="#mc6578be5cf" y="132.38"/>
      </g>
     </g>
     <g id="text_18">
      <!-- medium -->
      <g style="fill:#4d4d4d;" transform="translate(335.241063 173.496625)rotate(-90)scale(0.088 -0.088)">
       <use xlink:href="#DejaVuSans-109"/>
       <use x="97.412109" xlink:href="#DejaVuSans-101"/>
       <use x="158.935547" xlink:href="#DejaVuSans-100"/>
       <use x="222.412109" xlink:href="#DejaVuSans-105"/>
       <use x="250.195312" xlink:href="#DejaVuSans-117"/>
       <use x="313.574219" xlink:href="#DejaVuSans-109"/>
      </g>
     </g>
    </g>
    <g id="xtick_9">
     <g id="line2d_17">
      <path d="M 353.789736 132.38 
" style="fill:none;stroke:#333333;stroke-linecap:square;stroke-width:1.5;"/>
      <g>
       <use style="fill:#333333;stroke:#333333;" x="353.789736" xlink:href="#mc6578be5cf" y="132.38"/>
      </g>
     </g>
     <g id="text_19">
      <!-- medium-high -->
      <g style="fill:#4d4d4d;" transform="translate(356.217986 195.856875)rotate(-90)scale(0.088 -0.088)">
       <use xlink:href="#DejaVuSans-109"/>
       <use x="97.412109" xlink:href="#DejaVuSans-101"/>
       <use x="158.935547" xlink:href="#DejaVuSans-100"/>
       <use x="222.412109" xlink:href="#DejaVuSans-105"/>
       <use x="250.195312" xlink:href="#DejaVuSans-117"/>
       <use x="313.574219" xlink:href="#DejaVuSans-109"/>
       <use x="410.986328" xlink:href="#DejaVuSans-45"/>
       <use x="447.070312" xlink:href="#DejaVuSans-104"/>
       <use x="510.449219" xlink:href="#DejaVuSans-105"/>
       <use x="538.232422" xlink:href="#DejaVuSans-103"/>
       <use x="601.708984" xlink:href="#DejaVuSans-104"/>
      </g>
     </g>
    </g>
    <g id="xtick_10">
     <g id="line2d_18">
      <path d="M 374.766659 132.38 
" style="fill:none;stroke:#333333;stroke-linecap:square;stroke-width:1.5;"/>
      <g>
       <use style="fill:#333333;stroke:#333333;" x="374.766659" xlink:href="#mc6578be5cf" y="132.38"/>
      </g>
     </g>
     <g id="text_20">
      <!-- high -->
      <g style="fill:#4d4d4d;" transform="translate(377.194909 156.515375)rotate(-90)scale(0.088 -0.088)">
       <use xlink:href="#DejaVuSans-104"/>
       <use x="63.378906" xlink:href="#DejaVuSans-105"/>
       <use x="91.162109" xlink:href="#DejaVuSans-103"/>
       <use x="154.638672" xlink:href="#DejaVuSans-104"/>
      </g>
     </g>
    </g>
    <g id="text_21">
     <!-- staining background -->
     <defs>
      <path d="M 48.6875 27.296875 
Q 48.6875 37.203125 44.609375 42.84375 
Q 40.53125 48.484375 33.40625 48.484375 
Q 26.265625 48.484375 22.1875 42.84375 
Q 18.109375 37.203125 18.109375 27.296875 
Q 18.109375 17.390625 22.1875 11.75 
Q 26.265625 6.109375 33.40625 6.109375 
Q 40.53125 6.109375 44.609375 11.75 
Q 48.6875 17.390625 48.6875 27.296875 
z
M 18.109375 46.390625 
Q 20.953125 51.265625 25.265625 53.625 
Q 29.59375 56 35.59375 56 
Q 45.5625 56 51.78125 48.09375 
Q 58.015625 40.1875 58.015625 27.296875 
Q 58.015625 14.40625 51.78125 6.484375 
Q 45.5625 -1.421875 35.59375 -1.421875 
Q 29.59375 -1.421875 25.265625 0.953125 
Q 20.953125 3.328125 18.109375 8.203125 
L 18.109375 0 
L 9.078125 0 
L 9.078125 75.984375 
L 18.109375 75.984375 
z
" id="DejaVuSans-98"/>
      <path d="M 9.078125 75.984375 
L 18.109375 75.984375 
L 18.109375 31.109375 
L 44.921875 54.6875 
L 56.390625 54.6875 
L 27.390625 29.109375 
L 57.625 0 
L 45.90625 0 
L 18.109375 26.703125 
L 18.109375 0 
L 9.078125 0 
z
" id="DejaVuSans-107"/>
     </defs>
     <g transform="translate(215.966016 208.615156)scale(0.11 -0.11)">
      <use xlink:href="#DejaVuSans-115"/>
      <use x="52.099609" xlink:href="#DejaVuSans-116"/>
      <use x="91.308594" xlink:href="#DejaVuSans-97"/>
      <use x="152.587891" xlink:href="#DejaVuSans-105"/>
      <use x="180.371094" xlink:href="#DejaVuSans-110"/>
      <use x="243.75" xlink:href="#DejaVuSans-105"/>
      <use x="271.533203" xlink:href="#DejaVuSans-110"/>
      <use x="334.912109" xlink:href="#DejaVuSans-103"/>
      <use x="398.388672" xlink:href="#DejaVuSans-32"/>
      <use x="430.175781" xlink:href="#DejaVuSans-98"/>
      <use x="493.652344" xlink:href="#DejaVuSans-97"/>
      <use x="554.931641" xlink:href="#DejaVuSans-99"/>
      <use x="609.912109" xlink:href="#DejaVuSans-107"/>
      <use x="667.822266" xlink:href="#DejaVuSans-103"/>
      <use x="731.298828" xlink:href="#DejaVuSans-114"/>
      <use x="770.162109" xlink:href="#DejaVuSans-111"/>
      <use x="831.34375" xlink:href="#DejaVuSans-117"/>
      <use x="894.722656" xlink:href="#DejaVuSans-110"/>
      <use x="958.101562" xlink:href="#DejaVuSans-100"/>
     </g>
    </g>
   </g>
   <g id="matplotlib.axis_4">
    <g id="ytick_9"/>
    <g id="ytick_10"/>
    <g id="ytick_11"/>
    <g id="ytick_12"/>
    <g id="ytick_13"/>
    <g id="ytick_14"/>
    <g id="ytick_15"/>
    <g id="ytick_16"/>
   </g>
   <g id="PathCollection_2">
    <path clip-path="url(#pd192e3c323)" d="M 355.850565 127.726683 
C 356.555655 127.726683 357.231962 127.446547 357.730536 126.947973 
C 358.22911 126.449399 358.509246 125.773092 358.509246 125.068002 
C 358.509246 124.362912 358.22911 123.686605 357.730536 123.188031 
C 357.231962 122.689457 356.555655 122.409321 355.850565 122.409321 
C 355.145474 122.409321 354.469168 122.689457 353.970594 123.188031 
C 353.472019 123.686605 353.191884 124.362912 353.191884 125.068002 
C 353.191884 125.773092 353.472019 126.449399 353.970594 126.947973 
C 354.469168 127.446547 355.145474 127.726683 355.850565 127.726683 
z
" style="fill-opacity:0.25098;stroke:#000000;stroke-opacity:0.25098;stroke-width:0.886227;"/>
    <path clip-path="url(#pd192e3c323)" d="M 288.032753 31.131263 
C 288.737844 31.131263 289.41415 30.851127 289.912725 30.352553 
C 290.411299 29.853979 290.691434 29.177672 290.691434 28.472582 
C 290.691434 27.767492 290.411299 27.091185 289.912725 26.592611 
C 289.41415 26.094037 288.737844 25.813901 288.032753 25.813901 
C 287.327663 25.813901 286.651356 26.094037 286.152782 26.592611 
C 285.654208 27.091185 285.374073 27.767492 285.374073 28.472582 
C 285.374073 29.177672 285.654208 29.853979 286.152782 30.352553 
C 286.651356 30.851127 287.327663 31.131263 288.032753 31.131263 
z
" style="fill-opacity:0.25098;stroke:#000000;stroke-opacity:0.25098;stroke-width:0.886227;"/>
    <path clip-path="url(#pd192e3c323)" d="M 314.39488 111.718835 
C 315.09997 111.718835 315.776277 111.4387 316.274851 110.940126 
C 316.773425 110.441552 317.053561 109.765245 317.053561 109.060155 
C 317.053561 108.355064 316.773425 107.678758 316.274851 107.180183 
C 315.776277 106.681609 315.09997 106.401474 314.39488 106.401474 
C 313.68979 106.401474 313.013483 106.681609 312.514909 107.180183 
C 312.016335 107.678758 311.736199 108.355064 311.736199 109.060155 
C 311.736199 109.765245 312.016335 110.441552 312.514909 110.940126 
C 313.013483 111.4387 313.68979 111.718835 314.39488 111.718835 
z
" style="fill-opacity:0.25098;stroke:#000000;stroke-opacity:0.25098;stroke-width:0.886227;"/>
    <path clip-path="url(#pd192e3c323)" d="M 353.943068 57.322847 
C 354.648159 57.322847 355.324465 57.042712 355.82304 56.544138 
C 356.321614 56.045564 356.601749 55.369257 356.601749 54.664167 
C 356.601749 53.959076 356.321614 53.282769 355.82304 52.784195 
C 355.324465 52.285621 354.648159 52.005486 353.943068 52.005486 
C 353.237978 52.005486 352.561671 52.285621 352.063097 52.784195 
C 351.564523 53.282769 351.284388 53.959076 351.284388 54.664167 
C 351.284388 55.369257 351.564523 56.045564 352.063097 56.544138 
C 352.561671 57.042712 353.237978 57.322847 353.943068 57.322847 
z
" style="fill-opacity:0.25098;stroke:#000000;stroke-opacity:0.25098;stroke-width:0.886227;"/>
    <path clip-path="url(#pd192e3c323)" d="M 289.66881 30.97683 
C 290.3739 30.97683 291.050207 30.696694 291.548781 30.19812 
C 292.047355 29.699546 292.327491 29.023239 292.327491 28.318149 
C 292.327491 27.613059 292.047355 26.936752 291.548781 26.438178 
C 291.050207 25.939604 290.3739 25.659468 289.66881 25.659468 
C 288.96372 25.659468 288.287413 25.939604 287.788839 26.438178 
C 287.290265 26.936752 287.010129 27.613059 287.010129 28.318149 
C 287.010129 29.023239 287.290265 29.699546 287.788839 30.19812 
C 288.287413 30.696694 288.96372 30.97683 289.66881 30.97683 
z
" style="fill-opacity:0.25098;stroke:#000000;stroke-opacity:0.25098;stroke-width:0.886227;"/>
    <path clip-path="url(#pd192e3c323)" d="M 290.70609 30.983745 
C 291.411181 30.983745 292.087487 30.703609 292.586062 30.205035 
C 293.084636 29.706461 293.364771 29.030154 293.364771 28.325064 
C 293.364771 27.619974 293.084636 26.943667 292.586062 26.445093 
C 292.087487 25.946519 291.411181 25.666383 290.70609 25.666383 
C 290.001 25.666383 289.324693 25.946519 288.826119 26.445093 
C 288.327545 26.943667 288.04741 27.619974 288.04741 28.325064 
C 288.04741 29.030154 288.327545 29.706461 288.826119 30.205035 
C 289.324693 30.703609 290.001 30.983745 290.70609 30.983745 
z
" style="fill-opacity:0.25098;stroke:#000000;stroke-opacity:0.25098;stroke-width:0.886227;"/>
    <path clip-path="url(#pd192e3c323)" d="M 292.650085 114.88139 
C 293.355175 114.88139 294.031482 114.601254 294.530056 114.10268 
C 295.02863 113.604106 295.308765 112.927799 295.308765 112.222709 
C 295.308765 111.517619 295.02863 110.841312 294.530056 110.342738 
C 294.031482 109.844164 293.355175 109.564028 292.650085 109.564028 
C 291.944994 109.564028 291.268687 109.844164 290.770113 110.342738 
C 290.271539 110.841312 289.991404 111.517619 289.991404 112.222709 
C 289.991404 112.927799 290.271539 113.604106 290.770113 114.10268 
C 291.268687 114.601254 291.944994 114.88139 292.650085 114.88139 
z
" style="fill-opacity:0.25098;stroke:#000000;stroke-opacity:0.25098;stroke-width:0.886227;"/>
    <path clip-path="url(#pd192e3c323)" d="M 287.713622 126.435716 
C 288.418712 126.435716 289.095019 126.155581 289.593593 125.657006 
C 290.092167 125.158432 290.372303 124.482126 290.372303 123.777035 
C 290.372303 123.071945 290.092167 122.395638 289.593593 121.897064 
C 289.095019 121.39849 288.418712 121.118354 287.713622 121.118354 
C 287.008531 121.118354 286.332225 121.39849 285.833651 121.897064 
C 285.335076 122.395638 285.054941 123.071945 285.054941 123.777035 
C 285.054941 124.482126 285.335076 125.158432 285.833651 125.657006 
C 286.332225 126.155581 287.008531 126.435716 287.713622 126.435716 
z
" style="fill-opacity:0.25098;stroke:#000000;stroke-opacity:0.25098;stroke-width:0.886227;"/>
    <path clip-path="url(#pd192e3c323)" d="M 371.652276 86.431857 
C 372.357366 86.431857 373.033673 86.151722 373.532247 85.653148 
C 374.030821 85.154573 374.310957 84.478267 374.310957 83.773176 
C 374.310957 83.068086 374.030821 82.391779 373.532247 81.893205 
C 373.033673 81.394631 372.357366 81.114496 371.652276 81.114496 
C 370.947185 81.114496 370.270879 81.394631 369.772305 81.893205 
C 369.27373 82.391779 368.993595 83.068086 368.993595 83.773176 
C 368.993595 84.478267 369.27373 85.154573 369.772305 85.653148 
C 370.270879 86.151722 370.947185 86.431857 371.652276 86.431857 
z
" style="fill-opacity:0.25098;stroke:#000000;stroke-opacity:0.25098;stroke-width:0.886227;"/>
    <path clip-path="url(#pd192e3c323)" d="M 310.558784 33.706666 
C 311.263875 33.706666 311.940181 33.42653 312.438755 32.927956 
C 312.93733 32.429382 313.217465 31.753075 313.217465 31.047985 
C 313.217465 30.342894 312.93733 29.666588 312.438755 29.168014 
C 311.940181 28.669439 311.263875 28.389304 310.558784 28.389304 
C 309.853694 28.389304 309.177387 28.669439 308.678813 29.168014 
C 308.180239 29.666588 307.900103 30.342894 307.900103 31.047985 
C 307.900103 31.753075 308.180239 32.429382 308.678813 32.927956 
C 309.177387 33.42653 309.853694 33.706666 310.558784 33.706666 
z
" style="fill-opacity:0.25098;stroke:#000000;stroke-opacity:0.25098;stroke-width:0.886227;"/>
    <path clip-path="url(#pd192e3c323)" d="M 375.955309 59.505518 
C 376.660399 59.505518 377.336706 59.225382 377.83528 58.726808 
C 378.333854 58.228234 378.61399 57.551927 378.61399 56.846837 
C 378.61399 56.141747 378.333854 55.46544 377.83528 54.966866 
C 377.336706 54.468292 376.660399 54.188156 375.955309 54.188156 
C 375.250219 54.188156 374.573912 54.468292 374.075338 54.966866 
C 373.576764 55.46544 373.296628 56.141747 373.296628 56.846837 
C 373.296628 57.551927 373.576764 58.228234 374.075338 58.726808 
C 374.573912 59.225382 375.250219 59.505518 375.955309 59.505518 
z
" style="fill-opacity:0.25098;stroke:#000000;stroke-opacity:0.25098;stroke-width:0.886227;"/>
    <path clip-path="url(#pd192e3c323)" d="M 293.101337 30.944081 
C 293.806427 30.944081 294.482734 30.663946 294.981308 30.165372 
C 295.479882 29.666798 295.760018 28.990491 295.760018 28.2854 
C 295.760018 27.58031 295.479882 26.904003 294.981308 26.405429 
C 294.482734 25.906855 293.806427 25.62672 293.101337 25.62672 
C 292.396247 25.62672 291.71994 25.906855 291.221366 26.405429 
C 290.722792 26.904003 290.442656 27.58031 290.442656 28.2854 
C 290.442656 28.990491 290.722792 29.666798 291.221366 30.165372 
C 291.71994 30.663946 292.396247 30.944081 293.101337 30.944081 
z
" style="fill-opacity:0.25098;stroke:#000000;stroke-opacity:0.25098;stroke-width:0.886227;"/>
    <path clip-path="url(#pd192e3c323)" d="M 291.609274 33.320282 
C 292.314365 33.320282 292.990671 33.040147 293.489245 32.541573 
C 293.98782 32.042998 294.267955 31.366692 294.267955 30.661601 
C 294.267955 29.956511 293.98782 29.280204 293.489245 28.78163 
C 292.990671 28.283056 292.314365 28.002921 291.609274 28.002921 
C 290.904184 28.002921 290.227877 28.283056 289.729303 28.78163 
C 289.230729 29.280204 288.950593 29.956511 288.950593 30.661601 
C 288.950593 31.366692 289.230729 32.042998 289.729303 32.541573 
C 290.227877 33.040147 290.904184 33.320282 291.609274 33.320282 
z
" style="fill-opacity:0.25098;stroke:#000000;stroke-opacity:0.25098;stroke-width:0.886227;"/>
    <path clip-path="url(#pd192e3c323)" d="M 355.074791 126.070947 
C 355.779881 126.070947 356.456188 125.790812 356.954762 125.292238 
C 357.453336 124.793663 357.733472 124.117357 357.733472 123.412266 
C 357.733472 122.707176 357.453336 122.030869 356.954762 121.532295 
C 356.456188 121.033721 355.779881 120.753586 355.074791 120.753586 
C 354.369701 120.753586 353.693394 121.033721 353.19482 121.532295 
C 352.696246 122.030869 352.41611 122.707176 352.41611 123.412266 
C 352.41611 124.117357 352.696246 124.793663 353.19482 125.292238 
C 353.693394 125.790812 354.369701 126.070947 355.074791 126.070947 
z
" style="fill-opacity:0.25098;stroke:#000000;stroke-opacity:0.25098;stroke-width:0.886227;"/>
    <path clip-path="url(#pd192e3c323)" d="M 356.664325 126.606464 
C 357.369415 126.606464 358.045722 126.326328 358.544296 125.827754 
C 359.04287 125.32918 359.323006 124.652873 359.323006 123.947783 
C 359.323006 123.242692 359.04287 122.566386 358.544296 122.067812 
C 358.045722 121.569237 357.369415 121.289102 356.664325 121.289102 
C 355.959235 121.289102 355.282928 121.569237 354.784354 122.067812 
C 354.28578 122.566386 354.005644 123.242692 354.005644 123.947783 
C 354.005644 124.652873 354.28578 125.32918 354.784354 125.827754 
C 355.282928 126.326328 355.959235 126.606464 356.664325 126.606464 
z
" style="fill-opacity:0.25098;stroke:#000000;stroke-opacity:0.25098;stroke-width:0.886227;"/>
    <path clip-path="url(#pd192e3c323)" d="M 290.200477 32.946702 
C 290.905568 32.946702 291.581874 32.666567 292.080449 32.167993 
C 292.579023 31.669418 292.859158 30.993112 292.859158 30.288021 
C 292.859158 29.582931 292.579023 28.906624 292.080449 28.40805 
C 291.581874 27.909476 290.905568 27.629341 290.200477 27.629341 
C 289.495387 27.629341 288.81908 27.909476 288.320506 28.40805 
C 287.821932 28.906624 287.541797 29.582931 287.541797 30.288021 
C 287.541797 30.993112 287.821932 31.669418 288.320506 32.167993 
C 288.81908 32.666567 289.495387 32.946702 290.200477 32.946702 
z
" style="fill-opacity:0.25098;stroke:#000000;stroke-opacity:0.25098;stroke-width:0.886227;"/>
    <path clip-path="url(#pd192e3c323)" d="M 290.684754 30.341225 
C 291.389844 30.341225 292.066151 30.06109 292.564725 29.562516 
C 293.063299 29.063941 293.343435 28.387635 293.343435 27.682544 
C 293.343435 26.977454 293.063299 26.301147 292.564725 25.802573 
C 292.066151 25.303999 291.389844 25.023864 290.684754 25.023864 
C 289.979664 25.023864 289.303357 25.303999 288.804783 25.802573 
C 288.306209 26.301147 288.026073 26.977454 288.026073 27.682544 
C 288.026073 28.387635 288.306209 29.063941 288.804783 29.562516 
C 289.303357 30.06109 289.979664 30.341225 290.684754 30.341225 
z
" style="fill-opacity:0.25098;stroke:#000000;stroke-opacity:0.25098;stroke-width:0.886227;"/>
    <path clip-path="url(#pd192e3c323)" d="M 293.085644 30.799067 
C 293.790734 30.799067 294.467041 30.518932 294.965615 30.020357 
C 295.464189 29.521783 295.744324 28.845477 295.744324 28.140386 
C 295.744324 27.435296 295.464189 26.758989 294.965615 26.260415 
C 294.467041 25.761841 293.790734 25.481705 293.085644 25.481705 
C 292.380553 25.481705 291.704247 25.761841 291.205672 26.260415 
C 290.707098 26.758989 290.426963 27.435296 290.426963 28.140386 
C 290.426963 28.845477 290.707098 29.521783 291.205672 30.020357 
C 291.704247 30.518932 292.380553 30.799067 293.085644 30.799067 
z
" style="fill-opacity:0.25098;stroke:#000000;stroke-opacity:0.25098;stroke-width:0.886227;"/>
    <path clip-path="url(#pd192e3c323)" d="M 289.402217 32.569866 
C 290.107307 32.569866 290.783614 32.28973 291.282188 31.791156 
C 291.780762 31.292582 292.060897 30.616275 292.060897 29.911185 
C 292.060897 29.206095 291.780762 28.529788 291.282188 28.031214 
C 290.783614 27.53264 290.107307 27.252504 289.402217 27.252504 
C 288.697126 27.252504 288.02082 27.53264 287.522245 28.031214 
C 287.023671 28.529788 286.743536 29.206095 286.743536 29.911185 
C 286.743536 30.616275 287.023671 31.292582 287.522245 31.791156 
C 288.02082 32.28973 288.697126 32.569866 289.402217 32.569866 
z
" style="fill-opacity:0.25098;stroke:#000000;stroke-opacity:0.25098;stroke-width:0.886227;"/>
    <path clip-path="url(#pd192e3c323)" d="M 376.907736 45.719562 
C 377.612826 45.719562 378.289133 45.439427 378.787707 44.940853 
C 379.286281 44.442278 379.566416 43.765972 379.566416 43.060881 
C 379.566416 42.355791 379.286281 41.679484 378.787707 41.18091 
C 378.289133 40.682336 377.612826 40.402201 376.907736 40.402201 
C 376.202645 40.402201 375.526338 40.682336 375.027764 41.18091 
C 374.52919 41.679484 374.249055 42.355791 374.249055 43.060881 
C 374.249055 43.765972 374.52919 44.442278 375.027764 44.940853 
C 375.526338 45.439427 376.202645 45.719562 376.907736 45.719562 
z
" style="fill-opacity:0.25098;stroke:#000000;stroke-opacity:0.25098;stroke-width:0.886227;"/>
    <path clip-path="url(#pd192e3c323)" d="M 376.161639 45.868913 
C 376.86673 45.868913 377.543036 45.588778 378.04161 45.090203 
C 378.540185 44.591629 378.82032 43.915323 378.82032 43.210232 
C 378.82032 42.505142 378.540185 41.828835 378.04161 41.330261 
C 377.543036 40.831687 376.86673 40.551552 376.161639 40.551552 
C 375.456549 40.551552 374.780242 40.831687 374.281668 41.330261 
C 373.783094 41.828835 373.502958 42.505142 373.502958 43.210232 
C 373.502958 43.915323 373.783094 44.591629 374.281668 45.090203 
C 374.780242 45.588778 375.456549 45.868913 376.161639 45.868913 
z
" style="fill-opacity:0.25098;stroke:#000000;stroke-opacity:0.25098;stroke-width:0.886227;"/>
    <path clip-path="url(#pd192e3c323)" d="M 334.720462 33.488818 
C 335.425552 33.488818 336.101859 33.208682 336.600433 32.710108 
C 337.099007 32.211534 337.379142 31.535227 337.379142 30.830137 
C 337.379142 30.125047 337.099007 29.44874 336.600433 28.950166 
C 336.101859 28.451592 335.425552 28.171456 334.720462 28.171456 
C 334.015371 28.171456 333.339065 28.451592 332.84049 28.950166 
C 332.341916 29.44874 332.061781 30.125047 332.061781 30.830137 
C 332.061781 31.535227 332.341916 32.211534 332.84049 32.710108 
C 333.339065 33.208682 334.015371 33.488818 334.720462 33.488818 
z
" style="fill-opacity:0.25098;stroke:#000000;stroke-opacity:0.25098;stroke-width:0.886227;"/>
    <path clip-path="url(#pd192e3c323)" d="M 351.637604 59.04871 
C 352.342695 59.04871 353.019001 58.768574 353.517576 58.27 
C 354.01615 57.771426 354.296285 57.095119 354.296285 56.390029 
C 354.296285 55.684938 354.01615 55.008632 353.517576 54.510058 
C 353.019001 54.011483 352.342695 53.731348 351.637604 53.731348 
C 350.932514 53.731348 350.256207 54.011483 349.757633 54.510058 
C 349.259059 55.008632 348.978924 55.684938 348.978924 56.390029 
C 348.978924 57.095119 349.259059 57.771426 349.757633 58.27 
C 350.256207 58.768574 350.932514 59.04871 351.637604 59.04871 
z
" style="fill-opacity:0.25098;stroke:#000000;stroke-opacity:0.25098;stroke-width:0.886227;"/>
    <path clip-path="url(#pd192e3c323)" d="M 351.311752 86.488798 
C 352.016842 86.488798 352.693149 86.208663 353.191723 85.710088 
C 353.690297 85.211514 353.970433 84.535208 353.970433 83.830117 
C 353.970433 83.125027 353.690297 82.44872 353.191723 81.950146 
C 352.693149 81.451572 352.016842 81.171436 351.311752 81.171436 
C 350.606662 81.171436 349.930355 81.451572 349.431781 81.950146 
C 348.933207 82.44872 348.653071 83.125027 348.653071 83.830117 
C 348.653071 84.535208 348.933207 85.211514 349.431781 85.710088 
C 349.930355 86.208663 350.606662 86.488798 351.311752 86.488798 
z
" style="fill-opacity:0.25098;stroke:#000000;stroke-opacity:0.25098;stroke-width:0.886227;"/>
    <path clip-path="url(#pd192e3c323)" d="M 333.834667 33.400909 
C 334.539757 33.400909 335.216064 33.120774 335.714638 32.6222 
C 336.213212 32.123626 336.493348 31.447319 336.493348 30.742228 
C 336.493348 30.037138 336.213212 29.360831 335.714638 28.862257 
C 335.216064 28.363683 334.539757 28.083548 333.834667 28.083548 
C 333.129577 28.083548 332.45327 28.363683 331.954696 28.862257 
C 331.456122 29.360831 331.175986 30.037138 331.175986 30.742228 
C 331.175986 31.447319 331.456122 32.123626 331.954696 32.6222 
C 332.45327 33.120774 333.129577 33.400909 333.834667 33.400909 
z
" style="fill-opacity:0.25098;stroke:#000000;stroke-opacity:0.25098;stroke-width:0.886227;"/>
    <path clip-path="url(#pd192e3c323)" d="M 330.278175 111.699602 
C 330.983265 111.699602 331.659572 111.419467 332.158146 110.920893 
C 332.65672 110.422319 332.936855 109.746012 332.936855 109.040922 
C 332.936855 108.335831 332.65672 107.659525 332.158146 107.16095 
C 331.659572 106.662376 330.983265 106.382241 330.278175 106.382241 
C 329.573084 106.382241 328.896778 106.662376 328.398203 107.16095 
C 327.899629 107.659525 327.619494 108.335831 327.619494 109.040922 
C 327.619494 109.746012 327.899629 110.422319 328.398203 110.920893 
C 328.896778 111.419467 329.573084 111.699602 330.278175 111.699602 
z
" style="fill-opacity:0.25098;stroke:#000000;stroke-opacity:0.25098;stroke-width:0.886227;"/>
    <path clip-path="url(#pd192e3c323)" d="M 332.477311 31.518295 
C 333.182401 31.518295 333.858708 31.23816 334.357282 30.739586 
C 334.855856 30.241011 335.135991 29.564705 335.135991 28.859614 
C 335.135991 28.154524 334.855856 27.478217 334.357282 26.979643 
C 333.858708 26.481069 333.182401 26.200934 332.477311 26.200934 
C 331.77222 26.200934 331.095914 26.481069 330.597339 26.979643 
C 330.098765 27.478217 329.81863 28.154524 329.81863 28.859614 
C 329.81863 29.564705 330.098765 30.241011 330.597339 30.739586 
C 331.095914 31.23816 331.77222 31.518295 332.477311 31.518295 
z
" style="fill-opacity:0.25098;stroke:#000000;stroke-opacity:0.25098;stroke-width:0.886227;"/>
    <path clip-path="url(#pd192e3c323)" d="M 292.198894 34.166072 
C 292.903984 34.166072 293.580291 33.885936 294.078865 33.387362 
C 294.577439 32.888788 294.857575 32.212481 294.857575 31.507391 
C 294.857575 30.802301 294.577439 30.125994 294.078865 29.62742 
C 293.580291 29.128846 292.903984 28.84871 292.198894 28.84871 
C 291.493804 28.84871 290.817497 29.128846 290.318923 29.62742 
C 289.820349 30.125994 289.540213 30.802301 289.540213 31.507391 
C 289.540213 32.212481 289.820349 32.888788 290.318923 33.387362 
C 290.817497 33.885936 291.493804 34.166072 292.198894 34.166072 
z
" style="fill-opacity:0.25098;stroke:#000000;stroke-opacity:0.25098;stroke-width:0.886227;"/>
   </g>
   <g id="patch_7">
    <path d="M 278.272813 21.5 
L 387.352813 21.5 
L 387.352813 7.2 
L 278.272813 7.2 
z
" style="fill:none;stroke:#000000;stroke-linejoin:miter;"/>
   </g>
   <g id="patch_8">
    <path d="M 278.272813 132.38 
L 278.272813 21.5 
" style="fill:none;stroke:#000000;stroke-linecap:square;stroke-linejoin:miter;"/>
   </g>
   <g id="patch_9">
    <path d="M 278.272813 132.38 
L 387.352813 132.38 
" style="fill:none;stroke:#000000;stroke-linecap:square;stroke-linejoin:miter;"/>
   </g>
   <g id="text_22">
    <!-- vaccine -->
    <g style="fill:#1a1a1a;" transform="translate(315.955313 16.77825)scale(0.088 -0.088)">
     <use xlink:href="#DejaVuSans-118"/>
     <use x="59.179688" xlink:href="#DejaVuSans-97"/>
     <use x="120.458984" xlink:href="#DejaVuSans-99"/>
     <use x="175.439453" xlink:href="#DejaVuSans-99"/>
     <use x="230.419922" xlink:href="#DejaVuSans-105"/>
     <use x="258.203125" xlink:href="#DejaVuSans-110"/>
     <use x="321.582031" xlink:href="#DejaVuSans-101"/>
    </g>
   </g>
  </g>
 </g>
 <defs>
  <clipPath id="p3bd7cc0eb5">
   <rect height="110.88" width="109.08" x="164.152813" y="21.5"/>
  </clipPath>
  <clipPath id="pd192e3c323">
   <rect height="110.88" width="109.08" x="278.272813" y="21.5"/>
  </clipPath>
 </defs>
</svg>
