<?xml version="1.0" encoding="utf-8" standalone="no"?>
<!DOCTYPE svg PUBLIC "-//W3C//DTD SVG 1.1//EN"
  "http://www.w3.org/Graphics/SVG/1.1/DTD/svg11.dtd">
<!-- Created with matplotlib (https://matplotlib.org/) -->
<svg height="218.102812pt" version="1.1" viewBox="0 0 394.552813 218.102812" width="394.552813pt" xmlns="http://www.w3.org/2000/svg" xmlns:xlink="http://www.w3.org/1999/xlink">
 <defs>
  <style type="text/css">
*{stroke-linecap:butt;stroke-linejoin:round;}
  </style>
 </defs>
 <g id="figure_1">
  <g id="patch_1">
   <path d="M 0 218.102812 
L 394.552813 218.102812 
L 394.552813 0 
L 0 0 
z
" style="fill:#ffffff;stroke:#ffffff;stroke-linejoin:miter;"/>
  </g>
  <g id="axes_1">
   <g id="patch_2">
    <path d="M 164.152813 132.38 
L 273.232813 132.38 
L 273.232813 21.5 
L 164.152813 21.5 
z
" style="fill:#ffffff;"/>
   </g>
   <g id="matplotlib.axis_1">
    <g id="xtick_1">
     <g id="line2d_1">
      <path d="M 176.738966 132.38 
" style="fill:none;stroke:#333333;stroke-width:1.5;"/>
      <defs>
       <path d="M 0 0 
L 0 2.75 
" id="mef06eb42e7" style="stroke:#333333;"/>
      </defs>
      <g>
       <use style="fill:#333333;stroke:#333333;" x="176.738966" xlink:href="#mef06eb42e7" y="132.38"/>
      </g>
     </g>
     <g id="text_1">
      <!-- low -->
      <defs>
       <path d="M 9.421875 75.984375 
L 18.40625 75.984375 
L 18.40625 0 
L 9.421875 0 
z
" id="DejaVuSans-108"/>
       <path d="M 30.609375 48.390625 
Q 23.390625 48.390625 19.1875 42.75 
Q 14.984375 37.109375 14.984375 27.296875 
Q 14.984375 17.484375 19.15625 11.84375 
Q 23.34375 6.203125 30.609375 6.203125 
Q 37.796875 6.203125 41.984375 11.859375 
Q 46.1875 17.53125 46.1875 27.296875 
Q 46.1875 37.015625 41.984375 42.703125 
Q 37.796875 48.390625 30.609375 48.390625 
z
M 30.609375 56 
Q 42.328125 56 49.015625 48.375 
Q 55.71875 40.765625 55.71875 27.296875 
Q 55.71875 13.875 49.015625 6.21875 
Q 42.328125 -1.421875 30.609375 -1.421875 
Q 18.84375 -1.421875 12.171875 6.21875 
Q 5.515625 13.875 5.515625 27.296875 
Q 5.515625 40.765625 12.171875 48.375 
Q 18.84375 56 30.609375 56 
z
" id="DejaVuSans-111"/>
       <path d="M 4.203125 54.6875 
L 13.1875 54.6875 
L 24.421875 12.015625 
L 35.59375 54.6875 
L 46.1875 54.6875 
L 57.421875 12.015625 
L 68.609375 54.6875 
L 77.59375 54.6875 
L 63.28125 0 
L 52.6875 0 
L 40.921875 44.828125 
L 29.109375 0 
L 18.5 0 
z
" id="DejaVuSans-119"/>
      </defs>
      <g style="fill:#4d4d4d;" transform="translate(179.167216 152.356)rotate(-90)scale(0.088 -0.088)">
       <use xlink:href="#DejaVuSans-108"/>
       <use x="27.783203" xlink:href="#DejaVuSans-111"/>
       <use x="88.964844" xlink:href="#DejaVuSans-119"/>
      </g>
     </g>
    </g>
    <g id="xtick_2">
     <g id="line2d_2">
      <path d="M 197.715889 132.38 
" style="fill:none;stroke:#333333;stroke-width:1.5;"/>
      <g>
       <use style="fill:#333333;stroke:#333333;" x="197.715889" xlink:href="#mef06eb42e7" y="132.38"/>
      </g>
     </g>
     <g id="text_2">
      <!-- low-medium -->
      <defs>
       <path d="M 4.890625 31.390625 
L 31.203125 31.390625 
L 31.203125 23.390625 
L 4.890625 23.390625 
z
" id="DejaVuSans-45"/>
       <path d="M 52 44.1875 
Q 55.375 50.25 60.0625 53.125 
Q 64.75 56 71.09375 56 
Q 79.640625 56 84.28125 50.015625 
Q 88.921875 44.046875 88.921875 33.015625 
L 88.921875 0 
L 79.890625 0 
L 79.890625 32.71875 
Q 79.890625 40.578125 77.09375 44.375 
Q 74.3125 48.1875 68.609375 48.1875 
Q 61.625 48.1875 57.5625 43.546875 
Q 53.515625 38.921875 53.515625 30.90625 
L 53.515625 0 
L 44.484375 0 
L 44.484375 32.71875 
Q 44.484375 40.625 41.703125 44.40625 
Q 38.921875 48.1875 33.109375 48.1875 
Q 26.21875 48.1875 22.15625 43.53125 
Q 18.109375 38.875 18.109375 30.90625 
L 18.109375 0 
L 9.078125 0 
L 9.078125 54.6875 
L 18.109375 54.6875 
L 18.109375 46.1875 
Q 21.1875 51.21875 25.484375 53.609375 
Q 29.78125 56 35.6875 56 
Q 41.65625 56 45.828125 52.96875 
Q 50 49.953125 52 44.1875 
z
" id="DejaVuSans-109"/>
       <path d="M 56.203125 29.59375 
L 56.203125 25.203125 
L 14.890625 25.203125 
Q 15.484375 15.921875 20.484375 11.0625 
Q 25.484375 6.203125 34.421875 6.203125 
Q 39.59375 6.203125 44.453125 7.46875 
Q 49.3125 8.734375 54.109375 11.28125 
L 54.109375 2.78125 
Q 49.265625 0.734375 44.1875 -0.34375 
Q 39.109375 -1.421875 33.890625 -1.421875 
Q 20.796875 -1.421875 13.15625 6.1875 
Q 5.515625 13.8125 5.515625 26.8125 
Q 5.515625 40.234375 12.765625 48.109375 
Q 20.015625 56 32.328125 56 
Q 43.359375 56 49.78125 48.890625 
Q 56.203125 41.796875 56.203125 29.59375 
z
M 47.21875 32.234375 
Q 47.125 39.59375 43.09375 43.984375 
Q 39.0625 48.390625 32.421875 48.390625 
Q 24.90625 48.390625 20.390625 44.140625 
Q 15.875 39.890625 15.1875 32.171875 
z
" id="DejaVuSans-101"/>
       <path d="M 45.40625 46.390625 
L 45.40625 75.984375 
L 54.390625 75.984375 
L 54.390625 0 
L 45.40625 0 
L 45.40625 8.203125 
Q 42.578125 3.328125 38.25 0.953125 
Q 33.9375 -1.421875 27.875 -1.421875 
Q 17.96875 -1.421875 11.734375 6.484375 
Q 5.515625 14.40625 5.515625 27.296875 
Q 5.515625 40.1875 11.734375 48.09375 
Q 17.96875 56 27.875 56 
Q 33.9375 56 38.25 53.625 
Q 42.578125 51.265625 45.40625 46.390625 
z
M 14.796875 27.296875 
Q 14.796875 17.390625 18.875 11.75 
Q 22.953125 6.109375 30.078125 6.109375 
Q 37.203125 6.109375 41.296875 11.75 
Q 45.40625 17.390625 45.40625 27.296875 
Q 45.40625 37.203125 41.296875 42.84375 
Q 37.203125 48.484375 30.078125 48.484375 
Q 22.953125 48.484375 18.875 42.84375 
Q 14.796875 37.203125 14.796875 27.296875 
z
" id="DejaVuSans-100"/>
       <path d="M 9.421875 54.6875 
L 18.40625 54.6875 
L 18.40625 0 
L 9.421875 0 
z
M 9.421875 75.984375 
L 18.40625 75.984375 
L 18.40625 64.59375 
L 9.421875 64.59375 
z
" id="DejaVuSans-105"/>
       <path d="M 8.5 21.578125 
L 8.5 54.6875 
L 17.484375 54.6875 
L 17.484375 21.921875 
Q 17.484375 14.15625 20.5 10.265625 
Q 23.53125 6.390625 29.59375 6.390625 
Q 36.859375 6.390625 41.078125 11.03125 
Q 45.3125 15.671875 45.3125 23.6875 
L 45.3125 54.6875 
L 54.296875 54.6875 
L 54.296875 0 
L 45.3125 0 
L 45.3125 8.40625 
Q 42.046875 3.421875 37.71875 1 
Q 33.40625 -1.421875 27.6875 -1.421875 
Q 18.265625 -1.421875 13.375 4.4375 
Q 8.5 10.296875 8.5 21.578125 
z
M 31.109375 56 
z
" id="DejaVuSans-117"/>
      </defs>
      <g style="fill:#4d4d4d;" transform="translate(200.144139 191.6975)rotate(-90)scale(0.088 -0.088)">
       <use xlink:href="#DejaVuSans-108"/>
       <use x="27.783203" xlink:href="#DejaVuSans-111"/>
       <use x="88.964844" xlink:href="#DejaVuSans-119"/>
       <use x="170.751953" xlink:href="#DejaVuSans-45"/>
       <use x="206.835938" xlink:href="#DejaVuSans-109"/>
       <use x="304.248047" xlink:href="#DejaVuSans-101"/>
       <use x="365.771484" xlink:href="#DejaVuSans-100"/>
       <use x="429.248047" xlink:href="#DejaVuSans-105"/>
       <use x="457.03125" xlink:href="#DejaVuSans-117"/>
       <use x="520.410156" xlink:href="#DejaVuSans-109"/>
      </g>
     </g>
    </g>
    <g id="xtick_3">
     <g id="line2d_3">
      <path d="M 218.692813 132.38 
" style="fill:none;stroke:#333333;stroke-width:1.5;"/>
      <g>
       <use style="fill:#333333;stroke:#333333;" x="218.692813" xlink:href="#mef06eb42e7" y="132.38"/>
      </g>
     </g>
     <g id="text_3">
      <!-- medium -->
      <g style="fill:#4d4d4d;" transform="translate(221.121063 173.496625)rotate(-90)scale(0.088 -0.088)">
       <use xlink:href="#DejaVuSans-109"/>
       <use x="97.412109" xlink:href="#DejaVuSans-101"/>
       <use x="158.935547" xlink:href="#DejaVuSans-100"/>
       <use x="222.412109" xlink:href="#DejaVuSans-105"/>
       <use x="250.195312" xlink:href="#DejaVuSans-117"/>
       <use x="313.574219" xlink:href="#DejaVuSans-109"/>
      </g>
     </g>
    </g>
    <g id="xtick_4">
     <g id="line2d_4">
      <path d="M 239.669736 132.38 
" style="fill:none;stroke:#333333;stroke-width:1.5;"/>
      <g>
       <use style="fill:#333333;stroke:#333333;" x="239.669736" xlink:href="#mef06eb42e7" y="132.38"/>
      </g>
     </g>
     <g id="text_4">
      <!-- medium-high -->
      <defs>
       <path d="M 54.890625 33.015625 
L 54.890625 0 
L 45.90625 0 
L 45.90625 32.71875 
Q 45.90625 40.484375 42.875 44.328125 
Q 39.84375 48.1875 33.796875 48.1875 
Q 26.515625 48.1875 22.3125 43.546875 
Q 18.109375 38.921875 18.109375 30.90625 
L 18.109375 0 
L 9.078125 0 
L 9.078125 75.984375 
L 18.109375 75.984375 
L 18.109375 46.1875 
Q 21.34375 51.125 25.703125 53.5625 
Q 30.078125 56 35.796875 56 
Q 45.21875 56 50.046875 50.171875 
Q 54.890625 44.34375 54.890625 33.015625 
z
" id="DejaVuSans-104"/>
       <path d="M 45.40625 27.984375 
Q 45.40625 37.75 41.375 43.109375 
Q 37.359375 48.484375 30.078125 48.484375 
Q 22.859375 48.484375 18.828125 43.109375 
Q 14.796875 37.75 14.796875 27.984375 
Q 14.796875 18.265625 18.828125 12.890625 
Q 22.859375 7.515625 30.078125 7.515625 
Q 37.359375 7.515625 41.375 12.890625 
Q 45.40625 18.265625 45.40625 27.984375 
z
M 54.390625 6.78125 
Q 54.390625 -7.171875 48.1875 -13.984375 
Q 42 -20.796875 29.203125 -20.796875 
Q 24.46875 -20.796875 20.265625 -20.09375 
Q 16.0625 -19.390625 12.109375 -17.921875 
L 12.109375 -9.1875 
Q 16.0625 -11.328125 19.921875 -12.34375 
Q 23.78125 -13.375 27.78125 -13.375 
Q 36.625 -13.375 41.015625 -8.765625 
Q 45.40625 -4.15625 45.40625 5.171875 
L 45.40625 9.625 
Q 42.625 4.78125 38.28125 2.390625 
Q 33.9375 0 27.875 0 
Q 17.828125 0 11.671875 7.65625 
Q 5.515625 15.328125 5.515625 27.984375 
Q 5.515625 40.671875 11.671875 48.328125 
Q 17.828125 56 27.875 56 
Q 33.9375 56 38.28125 53.609375 
Q 42.625 51.21875 45.40625 46.390625 
L 45.40625 54.6875 
L 54.390625 54.6875 
z
" id="DejaVuSans-103"/>
      </defs>
      <g style="fill:#4d4d4d;" transform="translate(242.097986 195.856875)rotate(-90)scale(0.088 -0.088)">
       <use xlink:href="#DejaVuSans-109"/>
       <use x="97.412109" xlink:href="#DejaVuSans-101"/>
       <use x="158.935547" xlink:href="#DejaVuSans-100"/>
       <use x="222.412109" xlink:href="#DejaVuSans-105"/>
       <use x="250.195312" xlink:href="#DejaVuSans-117"/>
       <use x="313.574219" xlink:href="#DejaVuSans-109"/>
       <use x="410.986328" xlink:href="#DejaVuSans-45"/>
       <use x="447.070312" xlink:href="#DejaVuSans-104"/>
       <use x="510.449219" xlink:href="#DejaVuSans-105"/>
       <use x="538.232422" xlink:href="#DejaVuSans-103"/>
       <use x="601.708984" xlink:href="#DejaVuSans-104"/>
      </g>
     </g>
    </g>
    <g id="xtick_5">
     <g id="line2d_5">
      <path d="M 260.646659 132.38 
" style="fill:none;stroke:#333333;stroke-width:1.5;"/>
      <g>
       <use style="fill:#333333;stroke:#333333;" x="260.646659" xlink:href="#mef06eb42e7" y="132.38"/>
      </g>
     </g>
     <g id="text_5">
      <!-- high -->
      <g style="fill:#4d4d4d;" transform="translate(263.074909 156.515375)rotate(-90)scale(0.088 -0.088)">
       <use xlink:href="#DejaVuSans-104"/>
       <use x="63.378906" xlink:href="#DejaVuSans-105"/>
       <use x="91.162109" xlink:href="#DejaVuSans-103"/>
       <use x="154.638672" xlink:href="#DejaVuSans-104"/>
      </g>
     </g>
    </g>
   </g>
   <g id="matplotlib.axis_2">
    <g id="ytick_1">
     <g id="line2d_6">
      <path d="M 164.152813 124.266829 
" style="fill:none;stroke:#333333;stroke-width:1.5;"/>
      <defs>
       <path d="M 0 0 
L -2.75 0 
" id="mea0e91e48f" style="stroke:#333333;"/>
      </defs>
      <g>
       <use style="fill:#333333;stroke:#333333;" x="164.152813" xlink:href="#mea0e91e48f" y="124.266829"/>
      </g>
     </g>
     <g id="text_6">
      <!-- 456-484 -->
      <defs>
       <path d="M 37.796875 64.3125 
L 12.890625 25.390625 
L 37.796875 25.390625 
z
M 35.203125 72.90625 
L 47.609375 72.90625 
L 47.609375 25.390625 
L 58.015625 25.390625 
L 58.015625 17.1875 
L 47.609375 17.1875 
L 47.609375 0 
L 37.796875 0 
L 37.796875 17.1875 
L 4.890625 17.1875 
L 4.890625 26.703125 
z
" id="DejaVuSans-52"/>
       <path d="M 10.796875 72.90625 
L 49.515625 72.90625 
L 49.515625 64.59375 
L 19.828125 64.59375 
L 19.828125 46.734375 
Q 21.96875 47.46875 24.109375 47.828125 
Q 26.265625 48.1875 28.421875 48.1875 
Q 40.625 48.1875 47.75 41.5 
Q 54.890625 34.8125 54.890625 23.390625 
Q 54.890625 11.625 47.5625 5.09375 
Q 40.234375 -1.421875 26.90625 -1.421875 
Q 22.3125 -1.421875 17.546875 -0.640625 
Q 12.796875 0.140625 7.71875 1.703125 
L 7.71875 11.625 
Q 12.109375 9.234375 16.796875 8.0625 
Q 21.484375 6.890625 26.703125 6.890625 
Q 35.15625 6.890625 40.078125 11.328125 
Q 45.015625 15.765625 45.015625 23.390625 
Q 45.015625 31 40.078125 35.4375 
Q 35.15625 39.890625 26.703125 39.890625 
Q 22.75 39.890625 18.8125 39.015625 
Q 14.890625 38.140625 10.796875 36.28125 
z
" id="DejaVuSans-53"/>
       <path d="M 33.015625 40.375 
Q 26.375 40.375 22.484375 35.828125 
Q 18.609375 31.296875 18.609375 23.390625 
Q 18.609375 15.53125 22.484375 10.953125 
Q 26.375 6.390625 33.015625 6.390625 
Q 39.65625 6.390625 43.53125 10.953125 
Q 47.40625 15.53125 47.40625 23.390625 
Q 47.40625 31.296875 43.53125 35.828125 
Q 39.65625 40.375 33.015625 40.375 
z
M 52.59375 71.296875 
L 52.59375 62.3125 
Q 48.875 64.0625 45.09375 64.984375 
Q 41.3125 65.921875 37.59375 65.921875 
Q 27.828125 65.921875 22.671875 59.328125 
Q 17.53125 52.734375 16.796875 39.40625 
Q 19.671875 43.65625 24.015625 45.921875 
Q 28.375 48.1875 33.59375 48.1875 
Q 44.578125 48.1875 50.953125 41.515625 
Q 57.328125 34.859375 57.328125 23.390625 
Q 57.328125 12.15625 50.6875 5.359375 
Q 44.046875 -1.421875 33.015625 -1.421875 
Q 20.359375 -1.421875 13.671875 8.265625 
Q 6.984375 17.96875 6.984375 36.375 
Q 6.984375 53.65625 15.1875 63.9375 
Q 23.390625 74.21875 37.203125 74.21875 
Q 40.921875 74.21875 44.703125 73.484375 
Q 48.484375 72.75 52.59375 71.296875 
z
" id="DejaVuSans-54"/>
       <path d="M 31.78125 34.625 
Q 24.75 34.625 20.71875 30.859375 
Q 16.703125 27.09375 16.703125 20.515625 
Q 16.703125 13.921875 20.71875 10.15625 
Q 24.75 6.390625 31.78125 6.390625 
Q 38.8125 6.390625 42.859375 10.171875 
Q 46.921875 13.96875 46.921875 20.515625 
Q 46.921875 27.09375 42.890625 30.859375 
Q 38.875 34.625 31.78125 34.625 
z
M 21.921875 38.8125 
Q 15.578125 40.375 12.03125 44.71875 
Q 8.5 49.078125 8.5 55.328125 
Q 8.5 64.0625 14.71875 69.140625 
Q 20.953125 74.21875 31.78125 74.21875 
Q 42.671875 74.21875 48.875 69.140625 
Q 55.078125 64.0625 55.078125 55.328125 
Q 55.078125 49.078125 51.53125 44.71875 
Q 48 40.375 41.703125 38.8125 
Q 48.828125 37.15625 52.796875 32.3125 
Q 56.78125 27.484375 56.78125 20.515625 
Q 56.78125 9.90625 50.3125 4.234375 
Q 43.84375 -1.421875 31.78125 -1.421875 
Q 19.734375 -1.421875 13.25 4.234375 
Q 6.78125 9.90625 6.78125 20.515625 
Q 6.78125 27.484375 10.78125 32.3125 
Q 14.796875 37.15625 21.921875 38.8125 
z
M 18.3125 54.390625 
Q 18.3125 48.734375 21.84375 45.5625 
Q 25.390625 42.390625 31.78125 42.390625 
Q 38.140625 42.390625 41.71875 45.5625 
Q 45.3125 48.734375 45.3125 54.390625 
Q 45.3125 60.0625 41.71875 63.234375 
Q 38.140625 66.40625 31.78125 66.40625 
Q 25.390625 66.40625 21.84375 63.234375 
Q 18.3125 60.0625 18.3125 54.390625 
z
" id="DejaVuSans-56"/>
      </defs>
      <g style="fill:#4d4d4d;" transform="translate(122.433938 126.695079)scale(0.088 -0.088)">
       <use xlink:href="#DejaVuSans-52"/>
       <use x="63.623047" xlink:href="#DejaVuSans-53"/>
       <use x="127.246094" xlink:href="#DejaVuSans-54"/>
       <use x="190.869141" xlink:href="#DejaVuSans-45"/>
       <use x="226.953125" xlink:href="#DejaVuSans-52"/>
       <use x="290.576172" xlink:href="#DejaVuSans-56"/>
       <use x="354.199219" xlink:href="#DejaVuSans-52"/>
      </g>
     </g>
    </g>
    <g id="ytick_2">
     <g id="line2d_7">
      <path d="M 164.152813 110.744878 
" style="fill:none;stroke:#333333;stroke-width:1.5;"/>
      <g>
       <use style="fill:#333333;stroke:#333333;" x="164.152813" xlink:href="#mea0e91e48f" y="110.744878"/>
      </g>
     </g>
     <g id="text_7">
      <!-- 456-484 low magnitude -->
      <defs>
       <path id="DejaVuSans-32"/>
       <path d="M 34.28125 27.484375 
Q 23.390625 27.484375 19.1875 25 
Q 14.984375 22.515625 14.984375 16.5 
Q 14.984375 11.71875 18.140625 8.90625 
Q 21.296875 6.109375 26.703125 6.109375 
Q 34.1875 6.109375 38.703125 11.40625 
Q 43.21875 16.703125 43.21875 25.484375 
L 43.21875 27.484375 
z
M 52.203125 31.203125 
L 52.203125 0 
L 43.21875 0 
L 43.21875 8.296875 
Q 40.140625 3.328125 35.546875 0.953125 
Q 30.953125 -1.421875 24.3125 -1.421875 
Q 15.921875 -1.421875 10.953125 3.296875 
Q 6 8.015625 6 15.921875 
Q 6 25.140625 12.171875 29.828125 
Q 18.359375 34.515625 30.609375 34.515625 
L 43.21875 34.515625 
L 43.21875 35.40625 
Q 43.21875 41.609375 39.140625 45 
Q 35.0625 48.390625 27.6875 48.390625 
Q 23 48.390625 18.546875 47.265625 
Q 14.109375 46.140625 10.015625 43.890625 
L 10.015625 52.203125 
Q 14.9375 54.109375 19.578125 55.046875 
Q 24.21875 56 28.609375 56 
Q 40.484375 56 46.34375 49.84375 
Q 52.203125 43.703125 52.203125 31.203125 
z
" id="DejaVuSans-97"/>
       <path d="M 54.890625 33.015625 
L 54.890625 0 
L 45.90625 0 
L 45.90625 32.71875 
Q 45.90625 40.484375 42.875 44.328125 
Q 39.84375 48.1875 33.796875 48.1875 
Q 26.515625 48.1875 22.3125 43.546875 
Q 18.109375 38.921875 18.109375 30.90625 
L 18.109375 0 
L 9.078125 0 
L 9.078125 54.6875 
L 18.109375 54.6875 
L 18.109375 46.1875 
Q 21.34375 51.125 25.703125 53.5625 
Q 30.078125 56 35.796875 56 
Q 45.21875 56 50.046875 50.171875 
Q 54.890625 44.34375 54.890625 33.015625 
z
" id="DejaVuSans-110"/>
       <path d="M 18.3125 70.21875 
L 18.3125 54.6875 
L 36.8125 54.6875 
L 36.8125 47.703125 
L 18.3125 47.703125 
L 18.3125 18.015625 
Q 18.3125 11.328125 20.140625 9.421875 
Q 21.96875 7.515625 27.59375 7.515625 
L 36.8125 7.515625 
L 36.8125 0 
L 27.59375 0 
Q 17.1875 0 13.234375 3.875 
Q 9.28125 7.765625 9.28125 18.015625 
L 9.28125 47.703125 
L 2.6875 47.703125 
L 2.6875 54.6875 
L 9.28125 54.6875 
L 9.28125 70.21875 
z
" id="DejaVuSans-116"/>
      </defs>
      <g style="fill:#4d4d4d;" transform="translate(54.213313 113.173128)scale(0.088 -0.088)">
       <use xlink:href="#DejaVuSans-52"/>
       <use x="63.623047" xlink:href="#DejaVuSans-53"/>
       <use x="127.246094" xlink:href="#DejaVuSans-54"/>
       <use x="190.869141" xlink:href="#DejaVuSans-45"/>
       <use x="226.953125" xlink:href="#DejaVuSans-52"/>
       <use x="290.576172" xlink:href="#DejaVuSans-56"/>
       <use x="354.199219" xlink:href="#DejaVuSans-52"/>
       <use x="417.822266" xlink:href="#DejaVuSans-32"/>
       <use x="449.609375" xlink:href="#DejaVuSans-108"/>
       <use x="477.392578" xlink:href="#DejaVuSans-111"/>
       <use x="538.574219" xlink:href="#DejaVuSans-119"/>
       <use x="620.361328" xlink:href="#DejaVuSans-32"/>
       <use x="652.148438" xlink:href="#DejaVuSans-109"/>
       <use x="749.560547" xlink:href="#DejaVuSans-97"/>
       <use x="810.839844" xlink:href="#DejaVuSans-103"/>
       <use x="874.316406" xlink:href="#DejaVuSans-110"/>
       <use x="937.695312" xlink:href="#DejaVuSans-105"/>
       <use x="965.478516" xlink:href="#DejaVuSans-116"/>
       <use x="1004.6875" xlink:href="#DejaVuSans-117"/>
       <use x="1068.066406" xlink:href="#DejaVuSans-100"/>
       <use x="1131.542969" xlink:href="#DejaVuSans-101"/>
      </g>
     </g>
    </g>
    <g id="ytick_3">
     <g id="line2d_8">
      <path d="M 164.152813 97.222927 
" style="fill:none;stroke:#333333;stroke-width:1.5;"/>
      <g>
       <use style="fill:#333333;stroke:#333333;" x="164.152813" xlink:href="#mea0e91e48f" y="97.222927"/>
      </g>
     </g>
     <g id="text_8">
      <!-- 456-484 noisy -->
      <defs>
       <path d="M 44.28125 53.078125 
L 44.28125 44.578125 
Q 40.484375 46.53125 36.375 47.5 
Q 32.28125 48.484375 27.875 48.484375 
Q 21.1875 48.484375 17.84375 46.4375 
Q 14.5 44.390625 14.5 40.28125 
Q 14.5 37.15625 16.890625 35.375 
Q 19.28125 33.59375 26.515625 31.984375 
L 29.59375 31.296875 
Q 39.15625 29.25 43.1875 25.515625 
Q 47.21875 21.78125 47.21875 15.09375 
Q 47.21875 7.46875 41.1875 3.015625 
Q 35.15625 -1.421875 24.609375 -1.421875 
Q 20.21875 -1.421875 15.453125 -0.5625 
Q 10.6875 0.296875 5.421875 2 
L 5.421875 11.28125 
Q 10.40625 8.6875 15.234375 7.390625 
Q 20.0625 6.109375 24.8125 6.109375 
Q 31.15625 6.109375 34.5625 8.28125 
Q 37.984375 10.453125 37.984375 14.40625 
Q 37.984375 18.0625 35.515625 20.015625 
Q 33.0625 21.96875 24.703125 23.78125 
L 21.578125 24.515625 
Q 13.234375 26.265625 9.515625 29.90625 
Q 5.8125 33.546875 5.8125 39.890625 
Q 5.8125 47.609375 11.28125 51.796875 
Q 16.75 56 26.8125 56 
Q 31.78125 56 36.171875 55.265625 
Q 40.578125 54.546875 44.28125 53.078125 
z
" id="DejaVuSans-115"/>
       <path d="M 32.171875 -5.078125 
Q 28.375 -14.84375 24.75 -17.8125 
Q 21.140625 -20.796875 15.09375 -20.796875 
L 7.90625 -20.796875 
L 7.90625 -13.28125 
L 13.1875 -13.28125 
Q 16.890625 -13.28125 18.9375 -11.515625 
Q 21 -9.765625 23.484375 -3.21875 
L 25.09375 0.875 
L 2.984375 54.6875 
L 12.5 54.6875 
L 29.59375 11.921875 
L 46.6875 54.6875 
L 56.203125 54.6875 
z
" id="DejaVuSans-121"/>
      </defs>
      <g style="fill:#4d4d4d;" transform="translate(96.438188 99.651177)scale(0.088 -0.088)">
       <use xlink:href="#DejaVuSans-52"/>
       <use x="63.623047" xlink:href="#DejaVuSans-53"/>
       <use x="127.246094" xlink:href="#DejaVuSans-54"/>
       <use x="190.869141" xlink:href="#DejaVuSans-45"/>
       <use x="226.953125" xlink:href="#DejaVuSans-52"/>
       <use x="290.576172" xlink:href="#DejaVuSans-56"/>
       <use x="354.199219" xlink:href="#DejaVuSans-52"/>
       <use x="417.822266" xlink:href="#DejaVuSans-32"/>
       <use x="449.609375" xlink:href="#DejaVuSans-110"/>
       <use x="512.988281" xlink:href="#DejaVuSans-111"/>
       <use x="574.169922" xlink:href="#DejaVuSans-105"/>
       <use x="601.953125" xlink:href="#DejaVuSans-115"/>
       <use x="654.052734" xlink:href="#DejaVuSans-121"/>
      </g>
     </g>
    </g>
    <g id="ytick_4">
     <g id="line2d_9">
      <path d="M 164.152813 83.700976 
" style="fill:none;stroke:#333333;stroke-width:1.5;"/>
      <g>
       <use style="fill:#333333;stroke:#333333;" x="164.152813" xlink:href="#mea0e91e48f" y="83.700976"/>
      </g>
     </g>
     <g id="text_9">
      <!-- 456-484 low magnitude - noisy -->
      <g style="fill:#4d4d4d;" transform="translate(22.245938 86.129226)scale(0.088 -0.088)">
       <use xlink:href="#DejaVuSans-52"/>
       <use x="63.623047" xlink:href="#DejaVuSans-53"/>
       <use x="127.246094" xlink:href="#DejaVuSans-54"/>
       <use x="190.869141" xlink:href="#DejaVuSans-45"/>
       <use x="226.953125" xlink:href="#DejaVuSans-52"/>
       <use x="290.576172" xlink:href="#DejaVuSans-56"/>
       <use x="354.199219" xlink:href="#DejaVuSans-52"/>
       <use x="417.822266" xlink:href="#DejaVuSans-32"/>
       <use x="449.609375" xlink:href="#DejaVuSans-108"/>
       <use x="477.392578" xlink:href="#DejaVuSans-111"/>
       <use x="538.574219" xlink:href="#DejaVuSans-119"/>
       <use x="620.361328" xlink:href="#DejaVuSans-32"/>
       <use x="652.148438" xlink:href="#DejaVuSans-109"/>
       <use x="749.560547" xlink:href="#DejaVuSans-97"/>
       <use x="810.839844" xlink:href="#DejaVuSans-103"/>
       <use x="874.316406" xlink:href="#DejaVuSans-110"/>
       <use x="937.695312" xlink:href="#DejaVuSans-105"/>
       <use x="965.478516" xlink:href="#DejaVuSans-116"/>
       <use x="1004.6875" xlink:href="#DejaVuSans-117"/>
       <use x="1068.066406" xlink:href="#DejaVuSans-100"/>
       <use x="1131.542969" xlink:href="#DejaVuSans-101"/>
       <use x="1193.066406" xlink:href="#DejaVuSans-32"/>
       <use x="1224.853516" xlink:href="#DejaVuSans-45"/>
       <use x="1260.9375" xlink:href="#DejaVuSans-32"/>
       <use x="1292.724609" xlink:href="#DejaVuSans-110"/>
       <use x="1356.103516" xlink:href="#DejaVuSans-111"/>
       <use x="1417.285156" xlink:href="#DejaVuSans-105"/>
       <use x="1445.068359" xlink:href="#DejaVuSans-115"/>
       <use x="1497.167969" xlink:href="#DejaVuSans-121"/>
      </g>
     </g>
    </g>
    <g id="ytick_5">
     <g id="line2d_10">
      <path d="M 164.152813 70.179024 
" style="fill:none;stroke:#333333;stroke-width:1.5;"/>
      <g>
       <use style="fill:#333333;stroke:#333333;" x="164.152813" xlink:href="#mea0e91e48f" y="70.179024"/>
      </g>
     </g>
     <g id="text_10">
      <!-- 443-450 -->
      <defs>
       <path d="M 40.578125 39.3125 
Q 47.65625 37.796875 51.625 33 
Q 55.609375 28.21875 55.609375 21.1875 
Q 55.609375 10.40625 48.1875 4.484375 
Q 40.765625 -1.421875 27.09375 -1.421875 
Q 22.515625 -1.421875 17.65625 -0.515625 
Q 12.796875 0.390625 7.625 2.203125 
L 7.625 11.71875 
Q 11.71875 9.328125 16.59375 8.109375 
Q 21.484375 6.890625 26.8125 6.890625 
Q 36.078125 6.890625 40.9375 10.546875 
Q 45.796875 14.203125 45.796875 21.1875 
Q 45.796875 27.640625 41.28125 31.265625 
Q 36.765625 34.90625 28.71875 34.90625 
L 20.21875 34.90625 
L 20.21875 43.015625 
L 29.109375 43.015625 
Q 36.375 43.015625 40.234375 45.921875 
Q 44.09375 48.828125 44.09375 54.296875 
Q 44.09375 59.90625 40.109375 62.90625 
Q 36.140625 65.921875 28.71875 65.921875 
Q 24.65625 65.921875 20.015625 65.03125 
Q 15.375 64.15625 9.8125 62.3125 
L 9.8125 71.09375 
Q 15.4375 72.65625 20.34375 73.4375 
Q 25.25 74.21875 29.59375 74.21875 
Q 40.828125 74.21875 47.359375 69.109375 
Q 53.90625 64.015625 53.90625 55.328125 
Q 53.90625 49.265625 50.4375 45.09375 
Q 46.96875 40.921875 40.578125 39.3125 
z
" id="DejaVuSans-51"/>
       <path d="M 31.78125 66.40625 
Q 24.171875 66.40625 20.328125 58.90625 
Q 16.5 51.421875 16.5 36.375 
Q 16.5 21.390625 20.328125 13.890625 
Q 24.171875 6.390625 31.78125 6.390625 
Q 39.453125 6.390625 43.28125 13.890625 
Q 47.125 21.390625 47.125 36.375 
Q 47.125 51.421875 43.28125 58.90625 
Q 39.453125 66.40625 31.78125 66.40625 
z
M 31.78125 74.21875 
Q 44.046875 74.21875 50.515625 64.515625 
Q 56.984375 54.828125 56.984375 36.375 
Q 56.984375 17.96875 50.515625 8.265625 
Q 44.046875 -1.421875 31.78125 -1.421875 
Q 19.53125 -1.421875 13.0625 8.265625 
Q 6.59375 17.96875 6.59375 36.375 
Q 6.59375 54.828125 13.0625 64.515625 
Q 19.53125 74.21875 31.78125 74.21875 
z
" id="DejaVuSans-48"/>
      </defs>
      <g style="fill:#4d4d4d;" transform="translate(122.433938 72.607274)scale(0.088 -0.088)">
       <use xlink:href="#DejaVuSans-52"/>
       <use x="63.623047" xlink:href="#DejaVuSans-52"/>
       <use x="127.246094" xlink:href="#DejaVuSans-51"/>
       <use x="190.869141" xlink:href="#DejaVuSans-45"/>
       <use x="226.953125" xlink:href="#DejaVuSans-52"/>
       <use x="290.576172" xlink:href="#DejaVuSans-53"/>
       <use x="354.199219" xlink:href="#DejaVuSans-48"/>
      </g>
     </g>
    </g>
    <g id="ytick_6">
     <g id="line2d_11">
      <path d="M 164.152813 56.657073 
" style="fill:none;stroke:#333333;stroke-width:1.5;"/>
      <g>
       <use style="fill:#333333;stroke:#333333;" x="164.152813" xlink:href="#mea0e91e48f" y="56.657073"/>
      </g>
     </g>
     <g id="text_11">
      <!-- core -->
      <defs>
       <path d="M 48.78125 52.59375 
L 48.78125 44.1875 
Q 44.96875 46.296875 41.140625 47.34375 
Q 37.3125 48.390625 33.40625 48.390625 
Q 24.65625 48.390625 19.8125 42.84375 
Q 14.984375 37.3125 14.984375 27.296875 
Q 14.984375 17.28125 19.8125 11.734375 
Q 24.65625 6.203125 33.40625 6.203125 
Q 37.3125 6.203125 41.140625 7.25 
Q 44.96875 8.296875 48.78125 10.40625 
L 48.78125 2.09375 
Q 45.015625 0.34375 40.984375 -0.53125 
Q 36.96875 -1.421875 32.421875 -1.421875 
Q 20.0625 -1.421875 12.78125 6.34375 
Q 5.515625 14.109375 5.515625 27.296875 
Q 5.515625 40.671875 12.859375 48.328125 
Q 20.21875 56 33.015625 56 
Q 37.15625 56 41.109375 55.140625 
Q 45.0625 54.296875 48.78125 52.59375 
z
" id="DejaVuSans-99"/>
       <path d="M 41.109375 46.296875 
Q 39.59375 47.171875 37.8125 47.578125 
Q 36.03125 48 33.890625 48 
Q 26.265625 48 22.1875 43.046875 
Q 18.109375 38.09375 18.109375 28.8125 
L 18.109375 0 
L 9.078125 0 
L 9.078125 54.6875 
L 18.109375 54.6875 
L 18.109375 46.1875 
Q 20.953125 51.171875 25.484375 53.578125 
Q 30.03125 56 36.53125 56 
Q 37.453125 56 38.578125 55.875 
Q 39.703125 55.765625 41.0625 55.515625 
z
" id="DejaVuSans-114"/>
      </defs>
      <g style="fill:#4d4d4d;" transform="translate(140.145313 59.085323)scale(0.088 -0.088)">
       <use xlink:href="#DejaVuSans-99"/>
       <use x="54.980469" xlink:href="#DejaVuSans-111"/>
       <use x="116.162109" xlink:href="#DejaVuSans-114"/>
       <use x="155.025391" xlink:href="#DejaVuSans-101"/>
      </g>
     </g>
    </g>
    <g id="ytick_7">
     <g id="line2d_12">
      <path d="M 164.152813 43.135122 
" style="fill:none;stroke:#333333;stroke-width:1.5;"/>
      <g>
       <use style="fill:#333333;stroke:#333333;" x="164.152813" xlink:href="#mea0e91e48f" y="43.135122"/>
      </g>
     </g>
     <g id="text_12">
      <!-- flat - noisy -->
      <defs>
       <path d="M 37.109375 75.984375 
L 37.109375 68.5 
L 28.515625 68.5 
Q 23.6875 68.5 21.796875 66.546875 
Q 19.921875 64.59375 19.921875 59.515625 
L 19.921875 54.6875 
L 34.71875 54.6875 
L 34.71875 47.703125 
L 19.921875 47.703125 
L 19.921875 0 
L 10.890625 0 
L 10.890625 47.703125 
L 2.296875 47.703125 
L 2.296875 54.6875 
L 10.890625 54.6875 
L 10.890625 58.5 
Q 10.890625 67.625 15.140625 71.796875 
Q 19.390625 75.984375 28.609375 75.984375 
z
" id="DejaVuSans-102"/>
      </defs>
      <g style="fill:#4d4d4d;" transform="translate(112.850188 45.563372)scale(0.088 -0.088)">
       <use xlink:href="#DejaVuSans-102"/>
       <use x="35.205078" xlink:href="#DejaVuSans-108"/>
       <use x="62.988281" xlink:href="#DejaVuSans-97"/>
       <use x="124.267578" xlink:href="#DejaVuSans-116"/>
       <use x="163.476562" xlink:href="#DejaVuSans-32"/>
       <use x="195.263672" xlink:href="#DejaVuSans-45"/>
       <use x="231.347656" xlink:href="#DejaVuSans-32"/>
       <use x="263.134766" xlink:href="#DejaVuSans-110"/>
       <use x="326.513672" xlink:href="#DejaVuSans-111"/>
       <use x="387.695312" xlink:href="#DejaVuSans-105"/>
       <use x="415.478516" xlink:href="#DejaVuSans-115"/>
       <use x="467.578125" xlink:href="#DejaVuSans-121"/>
      </g>
     </g>
    </g>
    <g id="ytick_8">
     <g id="line2d_13">
      <path d="M 164.152813 29.613171 
" style="fill:none;stroke:#333333;stroke-width:1.5;"/>
      <g>
       <use style="fill:#333333;stroke:#333333;" x="164.152813" xlink:href="#mea0e91e48f" y="29.613171"/>
      </g>
     </g>
     <g id="text_13">
      <!-- flat -->
      <g style="fill:#4d4d4d;" transform="translate(144.817563 32.041421)scale(0.088 -0.088)">
       <use xlink:href="#DejaVuSans-102"/>
       <use x="35.205078" xlink:href="#DejaVuSans-108"/>
       <use x="62.988281" xlink:href="#DejaVuSans-97"/>
       <use x="124.267578" xlink:href="#DejaVuSans-116"/>
      </g>
     </g>
    </g>
    <g id="text_14">
     <!-- escape map -->
     <defs>
      <path d="M 18.109375 8.203125 
L 18.109375 -20.796875 
L 9.078125 -20.796875 
L 9.078125 54.6875 
L 18.109375 54.6875 
L 18.109375 46.390625 
Q 20.953125 51.265625 25.265625 53.625 
Q 29.59375 56 35.59375 56 
Q 45.5625 56 51.78125 48.09375 
Q 58.015625 40.1875 58.015625 27.296875 
Q 58.015625 14.40625 51.78125 6.484375 
Q 45.5625 -1.421875 35.59375 -1.421875 
Q 29.59375 -1.421875 25.265625 0.953125 
Q 20.953125 3.328125 18.109375 8.203125 
z
M 48.6875 27.296875 
Q 48.6875 37.203125 44.609375 42.84375 
Q 40.53125 48.484375 33.40625 48.484375 
Q 26.265625 48.484375 22.1875 42.84375 
Q 18.109375 37.203125 18.109375 27.296875 
Q 18.109375 17.390625 22.1875 11.75 
Q 26.265625 6.109375 33.40625 6.109375 
Q 40.53125 6.109375 44.609375 11.75 
Q 48.6875 17.390625 48.6875 27.296875 
z
" id="DejaVuSans-112"/>
     </defs>
     <g transform="translate(15.558281 109.707266)rotate(-90)scale(0.11 -0.11)">
      <use xlink:href="#DejaVuSans-101"/>
      <use x="61.523438" xlink:href="#DejaVuSans-115"/>
      <use x="113.623047" xlink:href="#DejaVuSans-99"/>
      <use x="168.603516" xlink:href="#DejaVuSans-97"/>
      <use x="229.882812" xlink:href="#DejaVuSans-112"/>
      <use x="293.359375" xlink:href="#DejaVuSans-101"/>
      <use x="354.882812" xlink:href="#DejaVuSans-32"/>
      <use x="386.669922" xlink:href="#DejaVuSans-109"/>
      <use x="484.082031" xlink:href="#DejaVuSans-97"/>
      <use x="545.361328" xlink:href="#DejaVuSans-112"/>
     </g>
    </g>
   </g>
   <g id="PathCollection_1">
    <path clip-path="url(#pa12130db17)" d="M 176.628416 126.206259 
C 177.333506 126.206259 178.009813 125.926123 178.508387 125.427549 
C 179.006961 124.928975 179.287096 124.252668 179.287096 123.547578 
C 179.287096 122.842488 179.006961 122.166181 178.508387 121.667607 
C 178.009813 121.169033 177.333506 120.888897 176.628416 120.888897 
C 175.923325 120.888897 175.247019 121.169033 174.748444 121.667607 
C 174.24987 122.166181 173.969735 122.842488 173.969735 123.547578 
C 173.969735 124.252668 174.24987 124.928975 174.748444 125.427549 
C 175.247019 125.926123 175.923325 126.206259 176.628416 126.206259 
z
" style="fill-opacity:0.25098;stroke:#000000;stroke-opacity:0.25098;stroke-width:0.886227;"/>
    <path clip-path="url(#pa12130db17)" d="M 221.24296 127.834308 
C 221.948051 127.834308 222.624357 127.554173 223.122932 127.055598 
C 223.621506 126.557024 223.901641 125.880718 223.901641 125.175627 
C 223.901641 124.470537 223.621506 123.79423 223.122932 123.295656 
C 222.624357 122.797082 221.948051 122.516947 221.24296 122.516947 
C 220.53787 122.516947 219.861563 122.797082 219.362989 123.295656 
C 218.864415 123.79423 218.58428 124.470537 218.58428 125.175627 
C 218.58428 125.880718 218.864415 126.557024 219.362989 127.055598 
C 219.861563 127.554173 220.53787 127.834308 221.24296 127.834308 
z
" style="fill-opacity:0.25098;stroke:#000000;stroke-opacity:0.25098;stroke-width:0.886227;"/>
    <path clip-path="url(#pa12130db17)" d="M 257.768386 84.810916 
C 258.473476 84.810916 259.149783 84.530781 259.648357 84.032207 
C 260.146931 83.533632 260.427066 82.857326 260.427066 82.152235 
C 260.427066 81.447145 260.146931 80.770838 259.648357 80.272264 
C 259.149783 79.77369 258.473476 79.493555 257.768386 79.493555 
C 257.063295 79.493555 256.386989 79.77369 255.888414 80.272264 
C 255.38984 80.770838 255.109705 81.447145 255.109705 82.152235 
C 255.109705 82.857326 255.38984 83.533632 255.888414 84.032207 
C 256.386989 84.530781 257.063295 84.810916 257.768386 84.810916 
z
" style="fill-opacity:0.25098;stroke:#000000;stroke-opacity:0.25098;stroke-width:0.886227;"/>
    <path clip-path="url(#pa12130db17)" d="M 178.352952 126.211789 
C 179.058042 126.211789 179.734349 125.931653 180.232923 125.433079 
C 180.731497 124.934505 181.011632 124.258198 181.011632 123.553108 
C 181.011632 122.848017 180.731497 122.171711 180.232923 121.673137 
C 179.734349 121.174562 179.058042 120.894427 178.352952 120.894427 
C 177.647861 120.894427 176.971555 121.174562 176.47298 121.673137 
C 175.974406 122.171711 175.694271 122.848017 175.694271 123.553108 
C 175.694271 124.258198 175.974406 124.934505 176.47298 125.433079 
C 176.971555 125.931653 177.647861 126.211789 178.352952 126.211789 
z
" style="fill-opacity:0.25098;stroke:#000000;stroke-opacity:0.25098;stroke-width:0.886227;"/>
    <path clip-path="url(#pa12130db17)" d="M 260.956211 99.086316 
C 261.661302 99.086316 262.337608 98.806181 262.836182 98.307607 
C 263.334757 97.809032 263.614892 97.132726 263.614892 96.427635 
C 263.614892 95.722545 263.334757 95.046238 262.836182 94.547664 
C 262.337608 94.04909 261.661302 93.768955 260.956211 93.768955 
C 260.251121 93.768955 259.574814 94.04909 259.07624 94.547664 
C 258.577666 95.046238 258.297531 95.722545 258.297531 96.427635 
C 258.297531 97.132726 258.577666 97.809032 259.07624 98.307607 
C 259.574814 98.806181 260.251121 99.086316 260.956211 99.086316 
z
" style="fill-opacity:0.25098;stroke:#000000;stroke-opacity:0.25098;stroke-width:0.886227;"/>
    <path clip-path="url(#pa12130db17)" d="M 174.150501 126.306877 
C 174.855591 126.306877 175.531898 126.026742 176.030472 125.528168 
C 176.529047 125.029593 176.809182 124.353287 176.809182 123.648196 
C 176.809182 122.943106 176.529047 122.266799 176.030472 121.768225 
C 175.531898 121.269651 174.855591 120.989516 174.150501 120.989516 
C 173.445411 120.989516 172.769104 121.269651 172.27053 121.768225 
C 171.771956 122.266799 171.49182 122.943106 171.49182 123.648196 
C 171.49182 124.353287 171.771956 125.029593 172.27053 125.528168 
C 172.769104 126.026742 173.445411 126.306877 174.150501 126.306877 
z
" style="fill-opacity:0.25098;stroke:#000000;stroke-opacity:0.25098;stroke-width:0.886227;"/>
    <path clip-path="url(#pa12130db17)" d="M 175.5489 128.54389 
C 176.25399 128.54389 176.930297 128.263754 177.428871 127.76518 
C 177.927445 127.266606 178.20758 126.590299 178.20758 125.885209 
C 178.20758 125.180118 177.927445 124.503812 177.428871 124.005238 
C 176.930297 123.506663 176.25399 123.226528 175.5489 123.226528 
C 174.843809 123.226528 174.167503 123.506663 173.668929 124.005238 
C 173.170354 124.503812 172.890219 125.180118 172.890219 125.885209 
C 172.890219 126.590299 173.170354 127.266606 173.668929 127.76518 
C 174.167503 128.263754 174.843809 128.54389 175.5489 128.54389 
z
" style="fill-opacity:0.25098;stroke:#000000;stroke-opacity:0.25098;stroke-width:0.886227;"/>
    <path clip-path="url(#pa12130db17)" d="M 174.097837 126.657188 
C 174.802928 126.657188 175.479234 126.377053 175.977808 125.878479 
C 176.476383 125.379905 176.756518 124.703598 176.756518 123.998508 
C 176.756518 123.293417 176.476383 122.617111 175.977808 122.118536 
C 175.479234 121.619962 174.802928 121.339827 174.097837 121.339827 
C 173.392747 121.339827 172.71644 121.619962 172.217866 122.118536 
C 171.719292 122.617111 171.439157 123.293417 171.439157 123.998508 
C 171.439157 124.703598 171.719292 125.379905 172.217866 125.878479 
C 172.71644 126.377053 173.392747 126.657188 174.097837 126.657188 
z
" style="fill-opacity:0.25098;stroke:#000000;stroke-opacity:0.25098;stroke-width:0.886227;"/>
    <path clip-path="url(#pa12130db17)" d="M 179.702253 33.631931 
C 180.407344 33.631931 181.08365 33.351796 181.582225 32.853222 
C 182.080799 32.354648 182.360934 31.678341 182.360934 30.973251 
C 182.360934 30.26816 182.080799 29.591854 181.582225 29.093279 
C 181.08365 28.594705 180.407344 28.31457 179.702253 28.31457 
C 178.997163 28.31457 178.320856 28.594705 177.822282 29.093279 
C 177.323708 29.591854 177.043573 30.26816 177.043573 30.973251 
C 177.043573 31.678341 177.323708 32.354648 177.822282 32.853222 
C 178.320856 33.351796 178.997163 33.631931 179.702253 33.631931 
z
" style="fill-opacity:0.25098;stroke:#000000;stroke-opacity:0.25098;stroke-width:0.886227;"/>
    <path clip-path="url(#pa12130db17)" d="M 179.760494 128.180726 
C 180.465584 128.180726 181.141891 127.900591 181.640465 127.402016 
C 182.139039 126.903442 182.419175 126.227136 182.419175 125.522045 
C 182.419175 124.816955 182.139039 124.140648 181.640465 123.642074 
C 181.141891 123.1435 180.465584 122.863364 179.760494 122.863364 
C 179.055403 122.863364 178.379097 123.1435 177.880523 123.642074 
C 177.381948 124.140648 177.101813 124.816955 177.101813 125.522045 
C 177.101813 126.227136 177.381948 126.903442 177.880523 127.402016 
C 178.379097 127.900591 179.055403 128.180726 179.760494 128.180726 
z
" style="fill-opacity:0.25098;stroke:#000000;stroke-opacity:0.25098;stroke-width:0.886227;"/>
    <path clip-path="url(#pa12130db17)" d="M 176.126683 126.29287 
C 176.831774 126.29287 177.50808 126.012735 178.006654 125.51416 
C 178.505229 125.015586 178.785364 124.33928 178.785364 123.634189 
C 178.785364 122.929099 178.505229 122.252792 178.006654 121.754218 
C 177.50808 121.255644 176.831774 120.975508 176.126683 120.975508 
C 175.421593 120.975508 174.745286 121.255644 174.246712 121.754218 
C 173.748138 122.252792 173.468002 122.929099 173.468002 123.634189 
C 173.468002 124.33928 173.748138 125.015586 174.246712 125.51416 
C 174.745286 126.012735 175.421593 126.29287 176.126683 126.29287 
z
" style="fill-opacity:0.25098;stroke:#000000;stroke-opacity:0.25098;stroke-width:0.886227;"/>
    <path clip-path="url(#pa12130db17)" d="M 174.028118 127.682656 
C 174.733208 127.682656 175.409515 127.402521 175.908089 126.903947 
C 176.406663 126.405373 176.686798 125.729066 176.686798 125.023976 
C 176.686798 124.318885 176.406663 123.642579 175.908089 123.144004 
C 175.409515 122.64543 174.733208 122.365295 174.028118 122.365295 
C 173.323027 122.365295 172.646721 122.64543 172.148146 123.144004 
C 171.649572 123.642579 171.369437 124.318885 171.369437 125.023976 
C 171.369437 125.729066 171.649572 126.405373 172.148146 126.903947 
C 172.646721 127.402521 173.323027 127.682656 174.028118 127.682656 
z
" style="fill-opacity:0.25098;stroke:#000000;stroke-opacity:0.25098;stroke-width:0.886227;"/>
    <path clip-path="url(#pa12130db17)" d="M 220.2973 74.178829 
C 221.002391 74.178829 221.678697 73.898694 222.177271 73.40012 
C 222.675846 72.901546 222.955981 72.225239 222.955981 71.520149 
C 222.955981 70.815058 222.675846 70.138752 222.177271 69.640177 
C 221.678697 69.141603 221.002391 68.861468 220.2973 68.861468 
C 219.59221 68.861468 218.915903 69.141603 218.417329 69.640177 
C 217.918755 70.138752 217.638619 70.815058 217.638619 71.520149 
C 217.638619 72.225239 217.918755 72.901546 218.417329 73.40012 
C 218.915903 73.898694 219.59221 74.178829 220.2973 74.178829 
z
" style="fill-opacity:0.25098;stroke:#000000;stroke-opacity:0.25098;stroke-width:0.886227;"/>
    <path clip-path="url(#pa12130db17)" d="M 217.523919 72.317687 
C 218.229009 72.317687 218.905316 72.037552 219.40389 71.538978 
C 219.902464 71.040403 220.1826 70.364097 220.1826 69.659006 
C 220.1826 68.953916 219.902464 68.277609 219.40389 67.779035 
C 218.905316 67.280461 218.229009 67.000326 217.523919 67.000326 
C 216.818829 67.000326 216.142522 67.280461 215.643948 67.779035 
C 215.145374 68.277609 214.865238 68.953916 214.865238 69.659006 
C 214.865238 70.364097 215.145374 71.040403 215.643948 71.538978 
C 216.142522 72.037552 216.818829 72.317687 217.523919 72.317687 
z
" style="fill-opacity:0.25098;stroke:#000000;stroke-opacity:0.25098;stroke-width:0.886227;"/>
    <path clip-path="url(#pa12130db17)" d="M 258.750447 30.40431 
C 259.455537 30.40431 260.131844 30.124175 260.630418 29.625601 
C 261.128992 29.127027 261.409128 28.45072 261.409128 27.745629 
C 261.409128 27.040539 261.128992 26.364232 260.630418 25.865658 
C 260.131844 25.367084 259.455537 25.086949 258.750447 25.086949 
C 258.045356 25.086949 257.36905 25.367084 256.870476 25.865658 
C 256.371901 26.364232 256.091766 27.040539 256.091766 27.745629 
C 256.091766 28.45072 256.371901 29.127027 256.870476 29.625601 
C 257.36905 30.124175 258.045356 30.40431 258.750447 30.40431 
z
" style="fill-opacity:0.25098;stroke:#000000;stroke-opacity:0.25098;stroke-width:0.886227;"/>
    <path clip-path="url(#pa12130db17)" d="M 262.446803 73.646595 
C 263.151894 73.646595 263.8282 73.36646 264.326774 72.867885 
C 264.825349 72.369311 265.105484 71.693005 265.105484 70.987914 
C 265.105484 70.282824 264.825349 69.606517 264.326774 69.107943 
C 263.8282 68.609369 263.151894 68.329233 262.446803 68.329233 
C 261.741713 68.329233 261.065406 68.609369 260.566832 69.107943 
C 260.068258 69.606517 259.788122 70.282824 259.788122 70.987914 
C 259.788122 71.693005 260.068258 72.369311 260.566832 72.867885 
C 261.065406 73.36646 261.741713 73.646595 262.446803 73.646595 
z
" style="fill-opacity:0.25098;stroke:#000000;stroke-opacity:0.25098;stroke-width:0.886227;"/>
    <path clip-path="url(#pa12130db17)" d="M 261.546567 71.387109 
C 262.251657 71.387109 262.927964 71.106973 263.426538 70.608399 
C 263.925112 70.109825 264.205247 69.433518 264.205247 68.728428 
C 264.205247 68.023337 263.925112 67.347031 263.426538 66.848457 
C 262.927964 66.349882 262.251657 66.069747 261.546567 66.069747 
C 260.841476 66.069747 260.16517 66.349882 259.666596 66.848457 
C 259.168021 67.347031 258.887886 68.023337 258.887886 68.728428 
C 258.887886 69.433518 259.168021 70.109825 259.666596 70.608399 
C 260.16517 71.106973 260.841476 71.387109 261.546567 71.387109 
z
" style="fill-opacity:0.25098;stroke:#000000;stroke-opacity:0.25098;stroke-width:0.886227;"/>
    <path clip-path="url(#pa12130db17)" d="M 259.319684 70.832679 
C 260.024774 70.832679 260.701081 70.552543 261.199655 70.053969 
C 261.698229 69.555395 261.978365 68.879088 261.978365 68.173998 
C 261.978365 67.468908 261.698229 66.792601 261.199655 66.294027 
C 260.701081 65.795453 260.024774 65.515317 259.319684 65.515317 
C 258.614594 65.515317 257.938287 65.795453 257.439713 66.294027 
C 256.941139 66.792601 256.661003 67.468908 256.661003 68.173998 
C 256.661003 68.879088 256.941139 69.555395 257.439713 70.053969 
C 257.938287 70.552543 258.614594 70.832679 259.319684 70.832679 
z
" style="fill-opacity:0.25098;stroke:#000000;stroke-opacity:0.25098;stroke-width:0.886227;"/>
    <path clip-path="url(#pa12130db17)" d="M 263.495038 73.163966 
C 264.200129 73.163966 264.876435 72.88383 265.375009 72.385256 
C 265.873584 71.886682 266.153719 71.210375 266.153719 70.505285 
C 266.153719 69.800195 265.873584 69.123888 265.375009 68.625314 
C 264.876435 68.12674 264.200129 67.846604 263.495038 67.846604 
C 262.789948 67.846604 262.113641 68.12674 261.615067 68.625314 
C 261.116493 69.123888 260.836357 69.800195 260.836357 70.505285 
C 260.836357 71.210375 261.116493 71.886682 261.615067 72.385256 
C 262.113641 72.88383 262.789948 73.163966 263.495038 73.163966 
z
" style="fill-opacity:0.25098;stroke:#000000;stroke-opacity:0.25098;stroke-width:0.886227;"/>
    <path clip-path="url(#pa12130db17)" d="M 174.04616 59.284025 
C 174.75125 59.284025 175.427557 59.00389 175.926131 58.505315 
C 176.424706 58.006741 176.704841 57.330435 176.704841 56.625344 
C 176.704841 55.920254 176.424706 55.243947 175.926131 54.745373 
C 175.427557 54.246799 174.75125 53.966664 174.04616 53.966664 
C 173.34107 53.966664 172.664763 54.246799 172.166189 54.745373 
C 171.667615 55.243947 171.387479 55.920254 171.387479 56.625344 
C 171.387479 57.330435 171.667615 58.006741 172.166189 58.505315 
C 172.664763 59.00389 173.34107 59.284025 174.04616 59.284025 
z
" style="fill-opacity:0.25098;stroke:#000000;stroke-opacity:0.25098;stroke-width:0.886227;"/>
    <path clip-path="url(#pa12130db17)" d="M 263.473852 34.175315 
C 264.178942 34.175315 264.855249 33.895179 265.353823 33.396605 
C 265.852397 32.898031 266.132533 32.221724 266.132533 31.516634 
C 266.132533 30.811544 265.852397 30.135237 265.353823 29.636663 
C 264.855249 29.138089 264.178942 28.857953 263.473852 28.857953 
C 262.768761 28.857953 262.092455 29.138089 261.593881 29.636663 
C 261.095306 30.135237 260.815171 30.811544 260.815171 31.516634 
C 260.815171 32.221724 261.095306 32.898031 261.593881 33.396605 
C 262.092455 33.895179 262.768761 34.175315 263.473852 34.175315 
z
" style="fill-opacity:0.25098;stroke:#000000;stroke-opacity:0.25098;stroke-width:0.886227;"/>
    <path clip-path="url(#pa12130db17)" d="M 176.907556 111.689429 
C 177.612646 111.689429 178.288953 111.409294 178.787527 110.91072 
C 179.286101 110.412146 179.566237 109.735839 179.566237 109.030749 
C 179.566237 108.325658 179.286101 107.649352 178.787527 107.150777 
C 178.288953 106.652203 177.612646 106.372068 176.907556 106.372068 
C 176.202466 106.372068 175.526159 106.652203 175.027585 107.150777 
C 174.529011 107.649352 174.248875 108.325658 174.248875 109.030749 
C 174.248875 109.735839 174.529011 110.412146 175.027585 110.91072 
C 175.526159 111.409294 176.202466 111.689429 176.907556 111.689429 
z
" style="fill-opacity:0.25098;stroke:#000000;stroke-opacity:0.25098;stroke-width:0.886227;"/>
    <path clip-path="url(#pa12130db17)" d="M 176.283862 112.308421 
C 176.988952 112.308421 177.665259 112.028286 178.163833 111.529712 
C 178.662407 111.031137 178.942542 110.354831 178.942542 109.64974 
C 178.942542 108.94465 178.662407 108.268343 178.163833 107.769769 
C 177.665259 107.271195 176.988952 106.99106 176.283862 106.99106 
C 175.578771 106.99106 174.902465 107.271195 174.40389 107.769769 
C 173.905316 108.268343 173.625181 108.94465 173.625181 109.64974 
C 173.625181 110.354831 173.905316 111.031137 174.40389 111.529712 
C 174.902465 112.028286 175.578771 112.308421 176.283862 112.308421 
z
" style="fill-opacity:0.25098;stroke:#000000;stroke-opacity:0.25098;stroke-width:0.886227;"/>
   </g>
   <g id="patch_3">
    <path d="M 164.152813 21.5 
L 273.232813 21.5 
L 273.232813 7.2 
L 164.152813 7.2 
z
" style="fill:none;stroke:#000000;stroke-linejoin:miter;"/>
   </g>
   <g id="patch_4">
    <path d="M 164.152813 132.38 
L 164.152813 21.5 
" style="fill:none;stroke:#000000;stroke-linecap:square;stroke-linejoin:miter;"/>
   </g>
   <g id="patch_5">
    <path d="M 164.152813 132.38 
L 273.232813 132.38 
" style="fill:none;stroke:#000000;stroke-linecap:square;stroke-linejoin:miter;"/>
   </g>
   <g id="text_15">
    <!-- convalescent -->
    <defs>
     <path d="M 2.984375 54.6875 
L 12.5 54.6875 
L 29.59375 8.796875 
L 46.6875 54.6875 
L 56.203125 54.6875 
L 35.6875 0 
L 23.484375 0 
z
" id="DejaVuSans-118"/>
    </defs>
    <g style="fill:#1a1a1a;" transform="translate(189.630125 16.77825)scale(0.088 -0.088)">
     <use xlink:href="#DejaVuSans-99"/>
     <use x="54.980469" xlink:href="#DejaVuSans-111"/>
     <use x="116.162109" xlink:href="#DejaVuSans-110"/>
     <use x="179.541016" xlink:href="#DejaVuSans-118"/>
     <use x="238.720703" xlink:href="#DejaVuSans-97"/>
     <use x="300" xlink:href="#DejaVuSans-108"/>
     <use x="327.783203" xlink:href="#DejaVuSans-101"/>
     <use x="389.306641" xlink:href="#DejaVuSans-115"/>
     <use x="441.40625" xlink:href="#DejaVuSans-99"/>
     <use x="496.386719" xlink:href="#DejaVuSans-101"/>
     <use x="557.910156" xlink:href="#DejaVuSans-110"/>
     <use x="621.289062" xlink:href="#DejaVuSans-116"/>
    </g>
   </g>
  </g>
  <g id="axes_2">
   <g id="patch_6">
    <path d="M 278.272813 132.38 
L 387.352813 132.38 
L 387.352813 21.5 
L 278.272813 21.5 
z
" style="fill:#ffffff;"/>
   </g>
   <g id="matplotlib.axis_3">
    <g id="xtick_6">
     <g id="line2d_14">
      <path d="M 290.858966 132.38 
" style="fill:none;stroke:#333333;stroke-linecap:square;stroke-width:1.5;"/>
      <g>
       <use style="fill:#333333;stroke:#333333;" x="290.858966" xlink:href="#mef06eb42e7" y="132.38"/>
      </g>
     </g>
     <g id="text_16">
      <!-- low -->
      <g style="fill:#4d4d4d;" transform="translate(293.287216 152.356)rotate(-90)scale(0.088 -0.088)">
       <use xlink:href="#DejaVuSans-108"/>
       <use x="27.783203" xlink:href="#DejaVuSans-111"/>
       <use x="88.964844" xlink:href="#DejaVuSans-119"/>
      </g>
     </g>
    </g>
    <g id="xtick_7">
     <g id="line2d_15">
      <path d="M 311.835889 132.38 
" style="fill:none;stroke:#333333;stroke-linecap:square;stroke-width:1.5;"/>
      <g>
       <use style="fill:#333333;stroke:#333333;" x="311.835889" xlink:href="#mef06eb42e7" y="132.38"/>
      </g>
     </g>
     <g id="text_17">
      <!-- low-medium -->
      <g style="fill:#4d4d4d;" transform="translate(314.264139 191.6975)rotate(-90)scale(0.088 -0.088)">
       <use xlink:href="#DejaVuSans-108"/>
       <use x="27.783203" xlink:href="#DejaVuSans-111"/>
       <use x="88.964844" xlink:href="#DejaVuSans-119"/>
       <use x="170.751953" xlink:href="#DejaVuSans-45"/>
       <use x="206.835938" xlink:href="#DejaVuSans-109"/>
       <use x="304.248047" xlink:href="#DejaVuSans-101"/>
       <use x="365.771484" xlink:href="#DejaVuSans-100"/>
       <use x="429.248047" xlink:href="#DejaVuSans-105"/>
       <use x="457.03125" xlink:href="#DejaVuSans-117"/>
       <use x="520.410156" xlink:href="#DejaVuSans-109"/>
      </g>
     </g>
    </g>
    <g id="xtick_8">
     <g id="line2d_16">
      <path d="M 332.812813 132.38 
" style="fill:none;stroke:#333333;stroke-linecap:square;stroke-width:1.5;"/>
      <g>
       <use style="fill:#333333;stroke:#333333;" x="332.812813" xlink:href="#mef06eb42e7" y="132.38"/>
      </g>
     </g>
     <g id="text_18">
      <!-- medium -->
      <g style="fill:#4d4d4d;" transform="translate(335.241063 173.496625)rotate(-90)scale(0.088 -0.088)">
       <use xlink:href="#DejaVuSans-109"/>
       <use x="97.412109" xlink:href="#DejaVuSans-101"/>
       <use x="158.935547" xlink:href="#DejaVuSans-100"/>
       <use x="222.412109" xlink:href="#DejaVuSans-105"/>
       <use x="250.195312" xlink:href="#DejaVuSans-117"/>
       <use x="313.574219" xlink:href="#DejaVuSans-109"/>
      </g>
     </g>
    </g>
    <g id="xtick_9">
     <g id="line2d_17">
      <path d="M 353.789736 132.38 
" style="fill:none;stroke:#333333;stroke-linecap:square;stroke-width:1.5;"/>
      <g>
       <use style="fill:#333333;stroke:#333333;" x="353.789736" xlink:href="#mef06eb42e7" y="132.38"/>
      </g>
     </g>
     <g id="text_19">
      <!-- medium-high -->
      <g style="fill:#4d4d4d;" transform="translate(356.217986 195.856875)rotate(-90)scale(0.088 -0.088)">
       <use xlink:href="#DejaVuSans-109"/>
       <use x="97.412109" xlink:href="#DejaVuSans-101"/>
       <use x="158.935547" xlink:href="#DejaVuSans-100"/>
       <use x="222.412109" xlink:href="#DejaVuSans-105"/>
       <use x="250.195312" xlink:href="#DejaVuSans-117"/>
       <use x="313.574219" xlink:href="#DejaVuSans-109"/>
       <use x="410.986328" xlink:href="#DejaVuSans-45"/>
       <use x="447.070312" xlink:href="#DejaVuSans-104"/>
       <use x="510.449219" xlink:href="#DejaVuSans-105"/>
       <use x="538.232422" xlink:href="#DejaVuSans-103"/>
       <use x="601.708984" xlink:href="#DejaVuSans-104"/>
      </g>
     </g>
    </g>
    <g id="xtick_10">
     <g id="line2d_18">
      <path d="M 374.766659 132.38 
" style="fill:none;stroke:#333333;stroke-linecap:square;stroke-width:1.5;"/>
      <g>
       <use style="fill:#333333;stroke:#333333;" x="374.766659" xlink:href="#mef06eb42e7" y="132.38"/>
      </g>
     </g>
     <g id="text_20">
      <!-- high -->
      <g style="fill:#4d4d4d;" transform="translate(377.194909 156.515375)rotate(-90)scale(0.088 -0.088)">
       <use xlink:href="#DejaVuSans-104"/>
       <use x="63.378906" xlink:href="#DejaVuSans-105"/>
       <use x="91.162109" xlink:href="#DejaVuSans-103"/>
       <use x="154.638672" xlink:href="#DejaVuSans-104"/>
      </g>
     </g>
    </g>
    <g id="text_21">
     <!-- staining background -->
     <defs>
      <path d="M 48.6875 27.296875 
Q 48.6875 37.203125 44.609375 42.84375 
Q 40.53125 48.484375 33.40625 48.484375 
Q 26.265625 48.484375 22.1875 42.84375 
Q 18.109375 37.203125 18.109375 27.296875 
Q 18.109375 17.390625 22.1875 11.75 
Q 26.265625 6.109375 33.40625 6.109375 
Q 40.53125 6.109375 44.609375 11.75 
Q 48.6875 17.390625 48.6875 27.296875 
z
M 18.109375 46.390625 
Q 20.953125 51.265625 25.265625 53.625 
Q 29.59375 56 35.59375 56 
Q 45.5625 56 51.78125 48.09375 
Q 58.015625 40.1875 58.015625 27.296875 
Q 58.015625 14.40625 51.78125 6.484375 
Q 45.5625 -1.421875 35.59375 -1.421875 
Q 29.59375 -1.421875 25.265625 0.953125 
Q 20.953125 3.328125 18.109375 8.203125 
L 18.109375 0 
L 9.078125 0 
L 9.078125 75.984375 
L 18.109375 75.984375 
z
" id="DejaVuSans-98"/>
      <path d="M 9.078125 75.984375 
L 18.109375 75.984375 
L 18.109375 31.109375 
L 44.921875 54.6875 
L 56.390625 54.6875 
L 27.390625 29.109375 
L 57.625 0 
L 45.90625 0 
L 18.109375 26.703125 
L 18.109375 0 
L 9.078125 0 
z
" id="DejaVuSans-107"/>
     </defs>
     <g transform="translate(215.966016 208.615156)scale(0.11 -0.11)">
      <use xlink:href="#DejaVuSans-115"/>
      <use x="52.099609" xlink:href="#DejaVuSans-116"/>
      <use x="91.308594" xlink:href="#DejaVuSans-97"/>
      <use x="152.587891" xlink:href="#DejaVuSans-105"/>
      <use x="180.371094" xlink:href="#DejaVuSans-110"/>
      <use x="243.75" xlink:href="#DejaVuSans-105"/>
      <use x="271.533203" xlink:href="#DejaVuSans-110"/>
      <use x="334.912109" xlink:href="#DejaVuSans-103"/>
      <use x="398.388672" xlink:href="#DejaVuSans-32"/>
      <use x="430.175781" xlink:href="#DejaVuSans-98"/>
      <use x="493.652344" xlink:href="#DejaVuSans-97"/>
      <use x="554.931641" xlink:href="#DejaVuSans-99"/>
      <use x="609.912109" xlink:href="#DejaVuSans-107"/>
      <use x="667.822266" xlink:href="#DejaVuSans-103"/>
      <use x="731.298828" xlink:href="#DejaVuSans-114"/>
      <use x="770.162109" xlink:href="#DejaVuSans-111"/>
      <use x="831.34375" xlink:href="#DejaVuSans-117"/>
      <use x="894.722656" xlink:href="#DejaVuSans-110"/>
      <use x="958.101562" xlink:href="#DejaVuSans-100"/>
     </g>
    </g>
   </g>
   <g id="matplotlib.axis_4">
    <g id="ytick_9"/>
    <g id="ytick_10"/>
    <g id="ytick_11"/>
    <g id="ytick_12"/>
    <g id="ytick_13"/>
    <g id="ytick_14"/>
    <g id="ytick_15"/>
    <g id="ytick_16"/>
   </g>
   <g id="PathCollection_2">
    <path clip-path="url(#p709c3f58f8)" d="M 350.78652 128.781909 
C 351.491611 128.781909 352.167918 128.501774 352.666492 128.0032 
C 353.165066 127.504625 353.445201 126.828319 353.445201 126.123228 
C 353.445201 125.418138 353.165066 124.741831 352.666492 124.243257 
C 352.167918 123.744683 351.491611 123.464548 350.78652 123.464548 
C 350.08143 123.464548 349.405123 123.744683 348.906549 124.243257 
C 348.407975 124.741831 348.12784 125.418138 348.12784 126.123228 
C 348.12784 126.828319 348.407975 127.504625 348.906549 128.0032 
C 349.405123 128.501774 350.08143 128.781909 350.78652 128.781909 
z
" style="fill-opacity:0.25098;stroke:#000000;stroke-opacity:0.25098;stroke-width:0.886227;"/>
    <path clip-path="url(#p709c3f58f8)" d="M 293.116944 30.840137 
C 293.822034 30.840137 294.498341 30.560001 294.996915 30.061427 
C 295.495489 29.562853 295.775625 28.886546 295.775625 28.181456 
C 295.775625 27.476365 295.495489 26.800059 294.996915 26.301485 
C 294.498341 25.80291 293.822034 25.522775 293.116944 25.522775 
C 292.411853 25.522775 291.735547 25.80291 291.236973 26.301485 
C 290.738398 26.800059 290.458263 27.476365 290.458263 28.181456 
C 290.458263 28.886546 290.738398 29.562853 291.236973 30.061427 
C 291.735547 30.560001 292.411853 30.840137 293.116944 30.840137 
z
" style="fill-opacity:0.25098;stroke:#000000;stroke-opacity:0.25098;stroke-width:0.886227;"/>
    <path clip-path="url(#p709c3f58f8)" d="M 312.764745 112.833598 
C 313.469835 112.833598 314.146142 112.553463 314.644716 112.054889 
C 315.14329 111.556315 315.423426 110.880008 315.423426 110.174918 
C 315.423426 109.469827 315.14329 108.793521 314.644716 108.294946 
C 314.146142 107.796372 313.469835 107.516237 312.764745 107.516237 
C 312.059654 107.516237 311.383348 107.796372 310.884774 108.294946 
C 310.386199 108.793521 310.106064 109.469827 310.106064 110.174918 
C 310.106064 110.880008 310.386199 111.556315 310.884774 112.054889 
C 311.383348 112.553463 312.059654 112.833598 312.764745 112.833598 
z
" style="fill-opacity:0.25098;stroke:#000000;stroke-opacity:0.25098;stroke-width:0.886227;"/>
    <path clip-path="url(#p709c3f58f8)" d="M 354.016025 57.980974 
C 354.721115 57.980974 355.397422 57.700839 355.895996 57.202265 
C 356.39457 56.70369 356.674706 56.027384 356.674706 55.322293 
C 356.674706 54.617203 356.39457 53.940896 355.895996 53.442322 
C 355.397422 52.943748 354.721115 52.663613 354.016025 52.663613 
C 353.310934 52.663613 352.634628 52.943748 352.136054 53.442322 
C 351.637479 53.940896 351.357344 54.617203 351.357344 55.322293 
C 351.357344 56.027384 351.637479 56.70369 352.136054 57.202265 
C 352.634628 57.700839 353.310934 57.980974 354.016025 57.980974 
z
" style="fill-opacity:0.25098;stroke:#000000;stroke-opacity:0.25098;stroke-width:0.886227;"/>
    <path clip-path="url(#p709c3f58f8)" d="M 288.134074 32.232859 
C 288.839164 32.232859 289.515471 31.952723 290.014045 31.454149 
C 290.512619 30.955575 290.792754 30.279268 290.792754 29.574178 
C 290.792754 28.869088 290.512619 28.192781 290.014045 27.694207 
C 289.515471 27.195633 288.839164 26.915497 288.134074 26.915497 
C 287.428983 26.915497 286.752677 27.195633 286.254102 27.694207 
C 285.755528 28.192781 285.475393 28.869088 285.475393 29.574178 
C 285.475393 30.279268 285.755528 30.955575 286.254102 31.454149 
C 286.752677 31.952723 287.428983 32.232859 288.134074 32.232859 
z
" style="fill-opacity:0.25098;stroke:#000000;stroke-opacity:0.25098;stroke-width:0.886227;"/>
    <path clip-path="url(#p709c3f58f8)" d="M 289.386646 31.133746 
C 290.091736 31.133746 290.768043 30.85361 291.266617 30.355036 
C 291.765191 29.856462 292.045326 29.180155 292.045326 28.475065 
C 292.045326 27.769974 291.765191 27.093668 291.266617 26.595094 
C 290.768043 26.096519 290.091736 25.816384 289.386646 25.816384 
C 288.681555 25.816384 288.005249 26.096519 287.506674 26.595094 
C 287.0081 27.093668 286.727965 27.769974 286.727965 28.475065 
C 286.727965 29.180155 287.0081 29.856462 287.506674 30.355036 
C 288.005249 30.85361 288.681555 31.133746 289.386646 31.133746 
z
" style="fill-opacity:0.25098;stroke:#000000;stroke-opacity:0.25098;stroke-width:0.886227;"/>
    <path clip-path="url(#p709c3f58f8)" d="M 292.03504 114.417687 
C 292.74013 114.417687 293.416437 114.137551 293.915011 113.638977 
C 294.413585 113.140403 294.693721 112.464096 294.693721 111.759006 
C 294.693721 111.053915 294.413585 110.377609 293.915011 109.879035 
C 293.416437 109.38046 292.74013 109.100325 292.03504 109.100325 
C 291.329949 109.100325 290.653643 109.38046 290.155069 109.879035 
C 289.656494 110.377609 289.376359 111.053915 289.376359 111.759006 
C 289.376359 112.464096 289.656494 113.140403 290.155069 113.638977 
C 290.653643 114.137551 291.329949 114.417687 292.03504 114.417687 
z
" style="fill-opacity:0.25098;stroke:#000000;stroke-opacity:0.25098;stroke-width:0.886227;"/>
    <path clip-path="url(#p709c3f58f8)" d="M 289.125172 128.065522 
C 289.830263 128.065522 290.506569 127.785387 291.005144 127.286812 
C 291.503718 126.788238 291.783853 126.111932 291.783853 125.406841 
C 291.783853 124.701751 291.503718 124.025444 291.005144 123.52687 
C 290.506569 123.028296 289.830263 122.74816 289.125172 122.74816 
C 288.420082 122.74816 287.743775 123.028296 287.245201 123.52687 
C 286.746627 124.025444 286.466492 124.701751 286.466492 125.406841 
C 286.466492 126.111932 286.746627 126.788238 287.245201 127.286812 
C 287.743775 127.785387 288.420082 128.065522 289.125172 128.065522 
z
" style="fill-opacity:0.25098;stroke:#000000;stroke-opacity:0.25098;stroke-width:0.886227;"/>
    <path clip-path="url(#p709c3f58f8)" d="M 374.064826 88.182285 
C 374.769917 88.182285 375.446223 87.90215 375.944798 87.403576 
C 376.443372 86.905002 376.723507 86.228695 376.723507 85.523605 
C 376.723507 84.818514 376.443372 84.142208 375.944798 83.643633 
C 375.446223 83.145059 374.769917 82.864924 374.064826 82.864924 
C 373.359736 82.864924 372.683429 83.145059 372.184855 83.643633 
C 371.686281 84.142208 371.406146 84.818514 371.406146 85.523605 
C 371.406146 86.228695 371.686281 86.905002 372.184855 87.403576 
C 372.683429 87.90215 373.359736 88.182285 374.064826 88.182285 
z
" style="fill-opacity:0.25098;stroke:#000000;stroke-opacity:0.25098;stroke-width:0.886227;"/>
    <path clip-path="url(#p709c3f58f8)" d="M 311.953017 33.65201 
C 312.658107 33.65201 313.334414 33.371875 313.832988 32.8733 
C 314.331562 32.374726 314.611697 31.69842 314.611697 30.993329 
C 314.611697 30.288239 314.331562 29.611932 313.832988 29.113358 
C 313.334414 28.614784 312.658107 28.334648 311.953017 28.334648 
C 311.247926 28.334648 310.57162 28.614784 310.073045 29.113358 
C 309.574471 29.611932 309.294336 30.288239 309.294336 30.993329 
C 309.294336 31.69842 309.574471 32.374726 310.073045 32.8733 
C 310.57162 33.371875 311.247926 33.65201 311.953017 33.65201 
z
" style="fill-opacity:0.25098;stroke:#000000;stroke-opacity:0.25098;stroke-width:0.886227;"/>
    <path clip-path="url(#p709c3f58f8)" d="M 373.549305 60.732912 
C 374.254395 60.732912 374.930702 60.452777 375.429276 59.954202 
C 375.92785 59.455628 376.207986 58.779322 376.207986 58.074231 
C 376.207986 57.369141 375.92785 56.692834 375.429276 56.19426 
C 374.930702 55.695686 374.254395 55.41555 373.549305 55.41555 
C 372.844215 55.41555 372.167908 55.695686 371.669334 56.19426 
C 371.17076 56.692834 370.890624 57.369141 370.890624 58.074231 
C 370.890624 58.779322 371.17076 59.455628 371.669334 59.954202 
C 372.167908 60.452777 372.844215 60.732912 373.549305 60.732912 
z
" style="fill-opacity:0.25098;stroke:#000000;stroke-opacity:0.25098;stroke-width:0.886227;"/>
    <path clip-path="url(#p709c3f58f8)" d="M 291.407921 31.560389 
C 292.113011 31.560389 292.789318 31.280253 293.287892 30.781679 
C 293.786466 30.283105 294.066601 29.606798 294.066601 28.901708 
C 294.066601 28.196617 293.786466 27.520311 293.287892 27.021737 
C 292.789318 26.523162 292.113011 26.243027 291.407921 26.243027 
C 290.70283 26.243027 290.026524 26.523162 289.527949 27.021737 
C 289.029375 27.520311 288.74924 28.196617 288.74924 28.901708 
C 288.74924 29.606798 289.029375 30.283105 289.527949 30.781679 
C 290.026524 31.280253 290.70283 31.560389 291.407921 31.560389 
z
" style="fill-opacity:0.25098;stroke:#000000;stroke-opacity:0.25098;stroke-width:0.886227;"/>
    <path clip-path="url(#p709c3f58f8)" d="M 293.255314 33.534542 
C 293.960405 33.534542 294.636711 33.254406 295.135285 32.755832 
C 295.63386 32.257258 295.913995 31.580951 295.913995 30.875861 
C 295.913995 30.170771 295.63386 29.494464 295.135285 28.99589 
C 294.636711 28.497315 293.960405 28.21718 293.255314 28.21718 
C 292.550224 28.21718 291.873917 28.497315 291.375343 28.99589 
C 290.876769 29.494464 290.596633 30.170771 290.596633 30.875861 
C 290.596633 31.580951 290.876769 32.257258 291.375343 32.755832 
C 291.873917 33.254406 292.550224 33.534542 293.255314 33.534542 
z
" style="fill-opacity:0.25098;stroke:#000000;stroke-opacity:0.25098;stroke-width:0.886227;"/>
    <path clip-path="url(#p709c3f58f8)" d="M 351.938187 126.945772 
C 352.643277 126.945772 353.319584 126.665636 353.818158 126.167062 
C 354.316732 125.668488 354.596867 124.992181 354.596867 124.287091 
C 354.596867 123.582001 354.316732 122.905694 353.818158 122.40712 
C 353.319584 121.908546 352.643277 121.62841 351.938187 121.62841 
C 351.233096 121.62841 350.55679 121.908546 350.058215 122.40712 
C 349.559641 122.905694 349.279506 123.582001 349.279506 124.287091 
C 349.279506 124.992181 349.559641 125.668488 350.058215 126.167062 
C 350.55679 126.665636 351.233096 126.945772 351.938187 126.945772 
z
" style="fill-opacity:0.25098;stroke:#000000;stroke-opacity:0.25098;stroke-width:0.886227;"/>
    <path clip-path="url(#p709c3f58f8)" d="M 351.356603 127.997614 
C 352.061693 127.997614 352.738 127.717479 353.236574 127.218904 
C 353.735148 126.72033 354.015284 126.044024 354.015284 125.338933 
C 354.015284 124.633843 353.735148 123.957536 353.236574 123.458962 
C 352.738 122.960388 352.061693 122.680252 351.356603 122.680252 
C 350.651513 122.680252 349.975206 122.960388 349.476632 123.458962 
C 348.978058 123.957536 348.697922 124.633843 348.697922 125.338933 
C 348.697922 126.044024 348.978058 126.72033 349.476632 127.218904 
C 349.975206 127.717479 350.651513 127.997614 351.356603 127.997614 
z
" style="fill-opacity:0.25098;stroke:#000000;stroke-opacity:0.25098;stroke-width:0.886227;"/>
    <path clip-path="url(#p709c3f58f8)" d="M 292.932687 32.503132 
C 293.637777 32.503132 294.314084 32.222997 294.812658 31.724423 
C 295.311232 31.225848 295.591368 30.549542 295.591368 29.844451 
C 295.591368 29.139361 295.311232 28.463054 294.812658 27.96448 
C 294.314084 27.465906 293.637777 27.185771 292.932687 27.185771 
C 292.227596 27.185771 291.55129 27.465906 291.052716 27.96448 
C 290.554141 28.463054 290.274006 29.139361 290.274006 29.844451 
C 290.274006 30.549542 290.554141 31.225848 291.052716 31.724423 
C 291.55129 32.222997 292.227596 32.503132 292.932687 32.503132 
z
" style="fill-opacity:0.25098;stroke:#000000;stroke-opacity:0.25098;stroke-width:0.886227;"/>
    <path clip-path="url(#p709c3f58f8)" d="M 287.803732 34.02568 
C 288.508822 34.02568 289.185129 33.745545 289.683703 33.246971 
C 290.182277 32.748396 290.462413 32.07209 290.462413 31.366999 
C 290.462413 30.661909 290.182277 29.985602 289.683703 29.487028 
C 289.185129 28.988454 288.508822 28.708319 287.803732 28.708319 
C 287.098641 28.708319 286.422335 28.988454 285.923761 29.487028 
C 285.425186 29.985602 285.145051 30.661909 285.145051 31.366999 
C 285.145051 32.07209 285.425186 32.748396 285.923761 33.246971 
C 286.422335 33.745545 287.098641 34.02568 287.803732 34.02568 
z
" style="fill-opacity:0.25098;stroke:#000000;stroke-opacity:0.25098;stroke-width:0.886227;"/>
    <path clip-path="url(#p709c3f58f8)" d="M 287.897362 33.266571 
C 288.602453 33.266571 289.278759 32.986436 289.777333 32.487862 
C 290.275908 31.989287 290.556043 31.312981 290.556043 30.60789 
C 290.556043 29.9028 290.275908 29.226493 289.777333 28.727919 
C 289.278759 28.229345 288.602453 27.94921 287.897362 27.94921 
C 287.192272 27.94921 286.515965 28.229345 286.017391 28.727919 
C 285.518817 29.226493 285.238681 29.9028 285.238681 30.60789 
C 285.238681 31.312981 285.518817 31.989287 286.017391 32.487862 
C 286.515965 32.986436 287.192272 33.266571 287.897362 33.266571 
z
" style="fill-opacity:0.25098;stroke:#000000;stroke-opacity:0.25098;stroke-width:0.886227;"/>
    <path clip-path="url(#p709c3f58f8)" d="M 290.926838 32.228149 
C 291.631929 32.228149 292.308235 31.948014 292.80681 31.44944 
C 293.305384 30.950866 293.585519 30.274559 293.585519 29.569469 
C 293.585519 28.864378 293.305384 28.188072 292.80681 27.689497 
C 292.308235 27.190923 291.631929 26.910788 290.926838 26.910788 
C 290.221748 26.910788 289.545441 27.190923 289.046867 27.689497 
C 288.548293 28.188072 288.268158 28.864378 288.268158 29.569469 
C 288.268158 30.274559 288.548293 30.950866 289.046867 31.44944 
C 289.545441 31.948014 290.221748 32.228149 290.926838 32.228149 
z
" style="fill-opacity:0.25098;stroke:#000000;stroke-opacity:0.25098;stroke-width:0.886227;"/>
    <path clip-path="url(#p709c3f58f8)" d="M 376.216829 44.143491 
C 376.92192 44.143491 377.598226 43.863356 378.0968 43.364781 
C 378.595375 42.866207 378.87551 42.189901 378.87551 41.48481 
C 378.87551 40.77972 378.595375 40.103413 378.0968 39.604839 
C 377.598226 39.106265 376.92192 38.826129 376.216829 38.826129 
C 375.511739 38.826129 374.835432 39.106265 374.336858 39.604839 
C 373.838284 40.103413 373.558148 40.77972 373.558148 41.48481 
C 373.558148 42.189901 373.838284 42.866207 374.336858 43.364781 
C 374.835432 43.863356 375.511739 44.143491 376.216829 44.143491 
z
" style="fill-opacity:0.25098;stroke:#000000;stroke-opacity:0.25098;stroke-width:0.886227;"/>
    <path clip-path="url(#p709c3f58f8)" d="M 375.591247 47.711553 
C 376.296338 47.711553 376.972644 47.431417 377.471219 46.932843 
C 377.969793 46.434269 378.249928 45.757962 378.249928 45.052872 
C 378.249928 44.347781 377.969793 43.671475 377.471219 43.172901 
C 376.972644 42.674326 376.296338 42.394191 375.591247 42.394191 
C 374.886157 42.394191 374.20985 42.674326 373.711276 43.172901 
C 373.212702 43.671475 372.932567 44.347781 372.932567 45.052872 
C 372.932567 45.757962 373.212702 46.434269 373.711276 46.932843 
C 374.20985 47.431417 374.886157 47.711553 375.591247 47.711553 
z
" style="fill-opacity:0.25098;stroke:#000000;stroke-opacity:0.25098;stroke-width:0.886227;"/>
    <path clip-path="url(#p709c3f58f8)" d="M 335.588985 31.650489 
C 336.294076 31.650489 336.970382 31.370354 337.468956 30.871779 
C 337.967531 30.373205 338.247666 29.696899 338.247666 28.991808 
C 338.247666 28.286718 337.967531 27.610411 337.468956 27.111837 
C 336.970382 26.613263 336.294076 26.333127 335.588985 26.333127 
C 334.883895 26.333127 334.207588 26.613263 333.709014 27.111837 
C 333.21044 27.610411 332.930305 28.286718 332.930305 28.991808 
C 332.930305 29.696899 333.21044 30.373205 333.709014 30.871779 
C 334.207588 31.370354 334.883895 31.650489 335.588985 31.650489 
z
" style="fill-opacity:0.25098;stroke:#000000;stroke-opacity:0.25098;stroke-width:0.886227;"/>
    <path clip-path="url(#p709c3f58f8)" d="M 350.857972 57.796092 
C 351.563062 57.796092 352.239369 57.515956 352.737943 57.017382 
C 353.236517 56.518808 353.516653 55.842501 353.516653 55.137411 
C 353.516653 54.432321 353.236517 53.756014 352.737943 53.25744 
C 352.239369 52.758866 351.563062 52.47873 350.857972 52.47873 
C 350.152881 52.47873 349.476575 52.758866 348.978001 53.25744 
C 348.479426 53.756014 348.199291 54.432321 348.199291 55.137411 
C 348.199291 55.842501 348.479426 56.518808 348.978001 57.017382 
C 349.476575 57.515956 350.152881 57.796092 350.857972 57.796092 
z
" style="fill-opacity:0.25098;stroke:#000000;stroke-opacity:0.25098;stroke-width:0.886227;"/>
    <path clip-path="url(#p709c3f58f8)" d="M 356.467075 85.220049 
C 357.172166 85.220049 357.848472 84.939913 358.347047 84.441339 
C 358.845621 83.942765 359.125756 83.266458 359.125756 82.561368 
C 359.125756 81.856277 358.845621 81.179971 358.347047 80.681397 
C 357.848472 80.182822 357.172166 79.902687 356.467075 79.902687 
C 355.761985 79.902687 355.085678 80.182822 354.587104 80.681397 
C 354.08853 81.179971 353.808395 81.856277 353.808395 82.561368 
C 353.808395 83.266458 354.08853 83.942765 354.587104 84.441339 
C 355.085678 84.939913 355.761985 85.220049 356.467075 85.220049 
z
" style="fill-opacity:0.25098;stroke:#000000;stroke-opacity:0.25098;stroke-width:0.886227;"/>
    <path clip-path="url(#p709c3f58f8)" d="M 331.609482 32.938519 
C 332.314572 32.938519 332.990879 32.658384 333.489453 32.159809 
C 333.988027 31.661235 334.268163 30.984929 334.268163 30.279838 
C 334.268163 29.574748 333.988027 28.898441 333.489453 28.399867 
C 332.990879 27.901293 332.314572 27.621157 331.609482 27.621157 
C 330.904391 27.621157 330.228085 27.901293 329.729511 28.399867 
C 329.230936 28.898441 328.950801 29.574748 328.950801 30.279838 
C 328.950801 30.984929 329.230936 31.661235 329.729511 32.159809 
C 330.228085 32.658384 330.904391 32.938519 331.609482 32.938519 
z
" style="fill-opacity:0.25098;stroke:#000000;stroke-opacity:0.25098;stroke-width:0.886227;"/>
    <path clip-path="url(#p709c3f58f8)" d="M 331.857985 115.082932 
C 332.563075 115.082932 333.239382 114.802797 333.737956 114.304222 
C 334.23653 113.805648 334.516665 113.129342 334.516665 112.424251 
C 334.516665 111.719161 334.23653 111.042854 333.737956 110.54428 
C 333.239382 110.045706 332.563075 109.76557 331.857985 109.76557 
C 331.152894 109.76557 330.476588 110.045706 329.978013 110.54428 
C 329.479439 111.042854 329.199304 111.719161 329.199304 112.424251 
C 329.199304 113.129342 329.479439 113.805648 329.978013 114.304222 
C 330.476588 114.802797 331.152894 115.082932 331.857985 115.082932 
z
" style="fill-opacity:0.25098;stroke:#000000;stroke-opacity:0.25098;stroke-width:0.886227;"/>
    <path clip-path="url(#p709c3f58f8)" d="M 334.017475 30.981892 
C 334.722565 30.981892 335.398872 30.701756 335.897446 30.203182 
C 336.39602 29.704608 336.676156 29.028301 336.676156 28.323211 
C 336.676156 27.61812 336.39602 26.941814 335.897446 26.44324 
C 335.398872 25.944665 334.722565 25.66453 334.017475 25.66453 
C 333.312385 25.66453 332.636078 25.944665 332.137504 26.44324 
C 331.63893 26.941814 331.358794 27.61812 331.358794 28.323211 
C 331.358794 29.028301 331.63893 29.704608 332.137504 30.203182 
C 332.636078 30.701756 333.312385 30.981892 334.017475 30.981892 
z
" style="fill-opacity:0.25098;stroke:#000000;stroke-opacity:0.25098;stroke-width:0.886227;"/>
    <path clip-path="url(#p709c3f58f8)" d="M 291.749412 32.626687 
C 292.454503 32.626687 293.130809 32.346552 293.629383 31.847978 
C 294.127958 31.349404 294.408093 30.673097 294.408093 29.968006 
C 294.408093 29.262916 294.127958 28.586609 293.629383 28.088035 
C 293.130809 27.589461 292.454503 27.309326 291.749412 27.309326 
C 291.044322 27.309326 290.368015 27.589461 289.869441 28.088035 
C 289.370867 28.586609 289.090731 29.262916 289.090731 29.968006 
C 289.090731 30.673097 289.370867 31.349404 289.869441 31.847978 
C 290.368015 32.346552 291.044322 32.626687 291.749412 32.626687 
z
" style="fill-opacity:0.25098;stroke:#000000;stroke-opacity:0.25098;stroke-width:0.886227;"/>
   </g>
   <g id="patch_7">
    <path d="M 278.272813 21.5 
L 387.352813 21.5 
L 387.352813 7.2 
L 278.272813 7.2 
z
" style="fill:none;stroke:#000000;stroke-linejoin:miter;"/>
   </g>
   <g id="patch_8">
    <path d="M 278.272813 132.38 
L 278.272813 21.5 
" style="fill:none;stroke:#000000;stroke-linecap:square;stroke-linejoin:miter;"/>
   </g>
   <g id="patch_9">
    <path d="M 278.272813 132.38 
L 387.352813 132.38 
" style="fill:none;stroke:#000000;stroke-linecap:square;stroke-linejoin:miter;"/>
   </g>
   <g id="text_22">
    <!-- vaccine -->
    <g style="fill:#1a1a1a;" transform="translate(315.955313 16.77825)scale(0.088 -0.088)">
     <use xlink:href="#DejaVuSans-118"/>
     <use x="59.179688" xlink:href="#DejaVuSans-97"/>
     <use x="120.458984" xlink:href="#DejaVuSans-99"/>
     <use x="175.439453" xlink:href="#DejaVuSans-99"/>
     <use x="230.419922" xlink:href="#DejaVuSans-105"/>
     <use x="258.203125" xlink:href="#DejaVuSans-110"/>
     <use x="321.582031" xlink:href="#DejaVuSans-101"/>
    </g>
   </g>
  </g>
 </g>
 <defs>
  <clipPath id="pa12130db17">
   <rect height="110.88" width="109.08" x="164.152813" y="21.5"/>
  </clipPath>
  <clipPath id="p709c3f58f8">
   <rect height="110.88" width="109.08" x="278.272813" y="21.5"/>
  </clipPath>
 </defs>
</svg>
