<?xml version="1.0" encoding="utf-8" standalone="no"?>
<!DOCTYPE svg PUBLIC "-//W3C//DTD SVG 1.1//EN"
  "http://www.w3.org/Graphics/SVG/1.1/DTD/svg11.dtd">
<!-- Created with matplotlib (https://matplotlib.org/) -->
<svg height="173.876625pt" version="1.1" viewBox="0 0 394.552813 173.876625" width="394.552813pt" xmlns="http://www.w3.org/2000/svg" xmlns:xlink="http://www.w3.org/1999/xlink">
 <defs>
  <style type="text/css">
*{stroke-linecap:butt;stroke-linejoin:round;}
  </style>
 </defs>
 <g id="figure_1">
  <g id="patch_1">
   <path d="M 0 173.876625 
L 394.552813 173.876625 
L 394.552813 0 
L 0 0 
z
" style="fill:#ffffff;stroke:#ffffff;stroke-linejoin:miter;"/>
  </g>
  <g id="axes_1">
   <g id="patch_2">
    <path d="M 164.152813 132.38 
L 273.232813 132.38 
L 273.232813 21.5 
L 164.152813 21.5 
z
" style="fill:#ffffff;"/>
   </g>
   <g id="matplotlib.axis_1">
    <g id="xtick_1">
     <g id="line2d_1">
      <path d="M 183.070454 132.38 
" style="fill:none;stroke:#333333;stroke-width:1.5;"/>
      <defs>
       <path d="M 0 0 
L 0 2.75 
" id="m0b1025418a" style="stroke:#333333;"/>
      </defs>
      <g>
       <use style="fill:#333333;stroke:#333333;" x="183.070454" xlink:href="#m0b1025418a" y="132.38"/>
      </g>
     </g>
     <g id="text_1">
      <!-- 2.5 -->
      <defs>
       <path d="M 19.1875 8.296875 
L 53.609375 8.296875 
L 53.609375 0 
L 7.328125 0 
L 7.328125 8.296875 
Q 12.9375 14.109375 22.625 23.890625 
Q 32.328125 33.6875 34.8125 36.53125 
Q 39.546875 41.84375 41.421875 45.53125 
Q 43.3125 49.21875 43.3125 52.78125 
Q 43.3125 58.59375 39.234375 62.25 
Q 35.15625 65.921875 28.609375 65.921875 
Q 23.96875 65.921875 18.8125 64.3125 
Q 13.671875 62.703125 7.8125 59.421875 
L 7.8125 69.390625 
Q 13.765625 71.78125 18.9375 73 
Q 24.125 74.21875 28.421875 74.21875 
Q 39.75 74.21875 46.484375 68.546875 
Q 53.21875 62.890625 53.21875 53.421875 
Q 53.21875 48.921875 51.53125 44.890625 
Q 49.859375 40.875 45.40625 35.40625 
Q 44.1875 33.984375 37.640625 27.21875 
Q 31.109375 20.453125 19.1875 8.296875 
z
" id="DejaVuSans-50"/>
       <path d="M 10.6875 12.40625 
L 21 12.40625 
L 21 0 
L 10.6875 0 
z
" id="DejaVuSans-46"/>
       <path d="M 10.796875 72.90625 
L 49.515625 72.90625 
L 49.515625 64.59375 
L 19.828125 64.59375 
L 19.828125 46.734375 
Q 21.96875 47.46875 24.109375 47.828125 
Q 26.265625 48.1875 28.421875 48.1875 
Q 40.625 48.1875 47.75 41.5 
Q 54.890625 34.8125 54.890625 23.390625 
Q 54.890625 11.625 47.5625 5.09375 
Q 40.234375 -1.421875 26.90625 -1.421875 
Q 22.3125 -1.421875 17.546875 -0.640625 
Q 12.796875 0.140625 7.71875 1.703125 
L 7.71875 11.625 
Q 12.109375 9.234375 16.796875 8.0625 
Q 21.484375 6.890625 26.703125 6.890625 
Q 35.15625 6.890625 40.078125 11.328125 
Q 45.015625 15.765625 45.015625 23.390625 
Q 45.015625 31 40.078125 35.4375 
Q 35.15625 39.890625 26.703125 39.890625 
Q 22.75 39.890625 18.8125 39.015625 
Q 14.890625 38.140625 10.796875 36.28125 
z
" id="DejaVuSans-53"/>
      </defs>
      <g style="fill:#4d4d4d;" transform="translate(185.498704 151.32475)rotate(-90)scale(0.088 -0.088)">
       <use xlink:href="#DejaVuSans-50"/>
       <use x="63.623047" xlink:href="#DejaVuSans-46"/>
       <use x="95.410156" xlink:href="#DejaVuSans-53"/>
      </g>
     </g>
    </g>
    <g id="xtick_2">
     <g id="line2d_2">
      <path d="M 204.025792 132.38 
" style="fill:none;stroke:#333333;stroke-width:1.5;"/>
      <g>
       <use style="fill:#333333;stroke:#333333;" x="204.025792" xlink:href="#m0b1025418a" y="132.38"/>
      </g>
     </g>
     <g id="text_2">
      <!-- 3 -->
      <defs>
       <path d="M 40.578125 39.3125 
Q 47.65625 37.796875 51.625 33 
Q 55.609375 28.21875 55.609375 21.1875 
Q 55.609375 10.40625 48.1875 4.484375 
Q 40.765625 -1.421875 27.09375 -1.421875 
Q 22.515625 -1.421875 17.65625 -0.515625 
Q 12.796875 0.390625 7.625 2.203125 
L 7.625 11.71875 
Q 11.71875 9.328125 16.59375 8.109375 
Q 21.484375 6.890625 26.8125 6.890625 
Q 36.078125 6.890625 40.9375 10.546875 
Q 45.796875 14.203125 45.796875 21.1875 
Q 45.796875 27.640625 41.28125 31.265625 
Q 36.765625 34.90625 28.71875 34.90625 
L 20.21875 34.90625 
L 20.21875 43.015625 
L 29.109375 43.015625 
Q 36.375 43.015625 40.234375 45.921875 
Q 44.09375 48.828125 44.09375 54.296875 
Q 44.09375 59.90625 40.109375 62.90625 
Q 36.140625 65.921875 28.71875 65.921875 
Q 24.65625 65.921875 20.015625 65.03125 
Q 15.375 64.15625 9.8125 62.3125 
L 9.8125 71.09375 
Q 15.4375 72.65625 20.34375 73.4375 
Q 25.25 74.21875 29.59375 74.21875 
Q 40.828125 74.21875 47.359375 69.109375 
Q 53.90625 64.015625 53.90625 55.328125 
Q 53.90625 49.265625 50.4375 45.09375 
Q 46.96875 40.921875 40.578125 39.3125 
z
" id="DejaVuSans-51"/>
      </defs>
      <g style="fill:#4d4d4d;" transform="translate(206.454042 142.929)rotate(-90)scale(0.088 -0.088)">
       <use xlink:href="#DejaVuSans-51"/>
      </g>
     </g>
    </g>
    <g id="xtick_3">
     <g id="line2d_3">
      <path d="M 224.98113 132.38 
" style="fill:none;stroke:#333333;stroke-width:1.5;"/>
      <g>
       <use style="fill:#333333;stroke:#333333;" x="224.98113" xlink:href="#m0b1025418a" y="132.38"/>
      </g>
     </g>
     <g id="text_3">
      <!-- 3.5 -->
      <g style="fill:#4d4d4d;" transform="translate(227.40938 151.32475)rotate(-90)scale(0.088 -0.088)">
       <use xlink:href="#DejaVuSans-51"/>
       <use x="63.623047" xlink:href="#DejaVuSans-46"/>
       <use x="95.410156" xlink:href="#DejaVuSans-53"/>
      </g>
     </g>
    </g>
    <g id="xtick_4">
     <g id="line2d_4">
      <path d="M 245.936468 132.38 
" style="fill:none;stroke:#333333;stroke-width:1.5;"/>
      <g>
       <use style="fill:#333333;stroke:#333333;" x="245.936468" xlink:href="#m0b1025418a" y="132.38"/>
      </g>
     </g>
     <g id="text_4">
      <!-- 4 -->
      <defs>
       <path d="M 37.796875 64.3125 
L 12.890625 25.390625 
L 37.796875 25.390625 
z
M 35.203125 72.90625 
L 47.609375 72.90625 
L 47.609375 25.390625 
L 58.015625 25.390625 
L 58.015625 17.1875 
L 47.609375 17.1875 
L 47.609375 0 
L 37.796875 0 
L 37.796875 17.1875 
L 4.890625 17.1875 
L 4.890625 26.703125 
z
" id="DejaVuSans-52"/>
      </defs>
      <g style="fill:#4d4d4d;" transform="translate(248.364718 142.929)rotate(-90)scale(0.088 -0.088)">
       <use xlink:href="#DejaVuSans-52"/>
      </g>
     </g>
    </g>
    <g id="xtick_5">
     <g id="line2d_5">
      <path d="M 266.891806 132.38 
" style="fill:none;stroke:#333333;stroke-width:1.5;"/>
      <g>
       <use style="fill:#333333;stroke:#333333;" x="266.891806" xlink:href="#m0b1025418a" y="132.38"/>
      </g>
     </g>
     <g id="text_5">
      <!-- 4.5 -->
      <g style="fill:#4d4d4d;" transform="translate(269.320056 151.32475)rotate(-90)scale(0.088 -0.088)">
       <use xlink:href="#DejaVuSans-52"/>
       <use x="63.623047" xlink:href="#DejaVuSans-46"/>
       <use x="95.410156" xlink:href="#DejaVuSans-53"/>
      </g>
     </g>
    </g>
    <g id="xtick_6"/>
    <g id="xtick_7"/>
    <g id="xtick_8"/>
    <g id="xtick_9"/>
    <g id="xtick_10"/>
   </g>
   <g id="matplotlib.axis_2">
    <g id="ytick_1">
     <g id="line2d_6">
      <path d="M 164.152813 124.266829 
" style="fill:none;stroke:#333333;stroke-width:1.5;"/>
      <defs>
       <path d="M 0 0 
L -2.75 0 
" id="m92f94f32e9" style="stroke:#333333;"/>
      </defs>
      <g>
       <use style="fill:#333333;stroke:#333333;" x="164.152813" xlink:href="#m92f94f32e9" y="124.266829"/>
      </g>
     </g>
     <g id="text_6">
      <!-- 456-484 -->
      <defs>
       <path d="M 33.015625 40.375 
Q 26.375 40.375 22.484375 35.828125 
Q 18.609375 31.296875 18.609375 23.390625 
Q 18.609375 15.53125 22.484375 10.953125 
Q 26.375 6.390625 33.015625 6.390625 
Q 39.65625 6.390625 43.53125 10.953125 
Q 47.40625 15.53125 47.40625 23.390625 
Q 47.40625 31.296875 43.53125 35.828125 
Q 39.65625 40.375 33.015625 40.375 
z
M 52.59375 71.296875 
L 52.59375 62.3125 
Q 48.875 64.0625 45.09375 64.984375 
Q 41.3125 65.921875 37.59375 65.921875 
Q 27.828125 65.921875 22.671875 59.328125 
Q 17.53125 52.734375 16.796875 39.40625 
Q 19.671875 43.65625 24.015625 45.921875 
Q 28.375 48.1875 33.59375 48.1875 
Q 44.578125 48.1875 50.953125 41.515625 
Q 57.328125 34.859375 57.328125 23.390625 
Q 57.328125 12.15625 50.6875 5.359375 
Q 44.046875 -1.421875 33.015625 -1.421875 
Q 20.359375 -1.421875 13.671875 8.265625 
Q 6.984375 17.96875 6.984375 36.375 
Q 6.984375 53.65625 15.1875 63.9375 
Q 23.390625 74.21875 37.203125 74.21875 
Q 40.921875 74.21875 44.703125 73.484375 
Q 48.484375 72.75 52.59375 71.296875 
z
" id="DejaVuSans-54"/>
       <path d="M 4.890625 31.390625 
L 31.203125 31.390625 
L 31.203125 23.390625 
L 4.890625 23.390625 
z
" id="DejaVuSans-45"/>
       <path d="M 31.78125 34.625 
Q 24.75 34.625 20.71875 30.859375 
Q 16.703125 27.09375 16.703125 20.515625 
Q 16.703125 13.921875 20.71875 10.15625 
Q 24.75 6.390625 31.78125 6.390625 
Q 38.8125 6.390625 42.859375 10.171875 
Q 46.921875 13.96875 46.921875 20.515625 
Q 46.921875 27.09375 42.890625 30.859375 
Q 38.875 34.625 31.78125 34.625 
z
M 21.921875 38.8125 
Q 15.578125 40.375 12.03125 44.71875 
Q 8.5 49.078125 8.5 55.328125 
Q 8.5 64.0625 14.71875 69.140625 
Q 20.953125 74.21875 31.78125 74.21875 
Q 42.671875 74.21875 48.875 69.140625 
Q 55.078125 64.0625 55.078125 55.328125 
Q 55.078125 49.078125 51.53125 44.71875 
Q 48 40.375 41.703125 38.8125 
Q 48.828125 37.15625 52.796875 32.3125 
Q 56.78125 27.484375 56.78125 20.515625 
Q 56.78125 9.90625 50.3125 4.234375 
Q 43.84375 -1.421875 31.78125 -1.421875 
Q 19.734375 -1.421875 13.25 4.234375 
Q 6.78125 9.90625 6.78125 20.515625 
Q 6.78125 27.484375 10.78125 32.3125 
Q 14.796875 37.15625 21.921875 38.8125 
z
M 18.3125 54.390625 
Q 18.3125 48.734375 21.84375 45.5625 
Q 25.390625 42.390625 31.78125 42.390625 
Q 38.140625 42.390625 41.71875 45.5625 
Q 45.3125 48.734375 45.3125 54.390625 
Q 45.3125 60.0625 41.71875 63.234375 
Q 38.140625 66.40625 31.78125 66.40625 
Q 25.390625 66.40625 21.84375 63.234375 
Q 18.3125 60.0625 18.3125 54.390625 
z
" id="DejaVuSans-56"/>
      </defs>
      <g style="fill:#4d4d4d;" transform="translate(122.433938 126.695079)scale(0.088 -0.088)">
       <use xlink:href="#DejaVuSans-52"/>
       <use x="63.623047" xlink:href="#DejaVuSans-53"/>
       <use x="127.246094" xlink:href="#DejaVuSans-54"/>
       <use x="190.869141" xlink:href="#DejaVuSans-45"/>
       <use x="226.953125" xlink:href="#DejaVuSans-52"/>
       <use x="290.576172" xlink:href="#DejaVuSans-56"/>
       <use x="354.199219" xlink:href="#DejaVuSans-52"/>
      </g>
     </g>
    </g>
    <g id="ytick_2">
     <g id="line2d_7">
      <path d="M 164.152813 110.744878 
" style="fill:none;stroke:#333333;stroke-width:1.5;"/>
      <g>
       <use style="fill:#333333;stroke:#333333;" x="164.152813" xlink:href="#m92f94f32e9" y="110.744878"/>
      </g>
     </g>
     <g id="text_7">
      <!-- 456-484 low magnitude -->
      <defs>
       <path id="DejaVuSans-32"/>
       <path d="M 9.421875 75.984375 
L 18.40625 75.984375 
L 18.40625 0 
L 9.421875 0 
z
" id="DejaVuSans-108"/>
       <path d="M 30.609375 48.390625 
Q 23.390625 48.390625 19.1875 42.75 
Q 14.984375 37.109375 14.984375 27.296875 
Q 14.984375 17.484375 19.15625 11.84375 
Q 23.34375 6.203125 30.609375 6.203125 
Q 37.796875 6.203125 41.984375 11.859375 
Q 46.1875 17.53125 46.1875 27.296875 
Q 46.1875 37.015625 41.984375 42.703125 
Q 37.796875 48.390625 30.609375 48.390625 
z
M 30.609375 56 
Q 42.328125 56 49.015625 48.375 
Q 55.71875 40.765625 55.71875 27.296875 
Q 55.71875 13.875 49.015625 6.21875 
Q 42.328125 -1.421875 30.609375 -1.421875 
Q 18.84375 -1.421875 12.171875 6.21875 
Q 5.515625 13.875 5.515625 27.296875 
Q 5.515625 40.765625 12.171875 48.375 
Q 18.84375 56 30.609375 56 
z
" id="DejaVuSans-111"/>
       <path d="M 4.203125 54.6875 
L 13.1875 54.6875 
L 24.421875 12.015625 
L 35.59375 54.6875 
L 46.1875 54.6875 
L 57.421875 12.015625 
L 68.609375 54.6875 
L 77.59375 54.6875 
L 63.28125 0 
L 52.6875 0 
L 40.921875 44.828125 
L 29.109375 0 
L 18.5 0 
z
" id="DejaVuSans-119"/>
       <path d="M 52 44.1875 
Q 55.375 50.25 60.0625 53.125 
Q 64.75 56 71.09375 56 
Q 79.640625 56 84.28125 50.015625 
Q 88.921875 44.046875 88.921875 33.015625 
L 88.921875 0 
L 79.890625 0 
L 79.890625 32.71875 
Q 79.890625 40.578125 77.09375 44.375 
Q 74.3125 48.1875 68.609375 48.1875 
Q 61.625 48.1875 57.5625 43.546875 
Q 53.515625 38.921875 53.515625 30.90625 
L 53.515625 0 
L 44.484375 0 
L 44.484375 32.71875 
Q 44.484375 40.625 41.703125 44.40625 
Q 38.921875 48.1875 33.109375 48.1875 
Q 26.21875 48.1875 22.15625 43.53125 
Q 18.109375 38.875 18.109375 30.90625 
L 18.109375 0 
L 9.078125 0 
L 9.078125 54.6875 
L 18.109375 54.6875 
L 18.109375 46.1875 
Q 21.1875 51.21875 25.484375 53.609375 
Q 29.78125 56 35.6875 56 
Q 41.65625 56 45.828125 52.96875 
Q 50 49.953125 52 44.1875 
z
" id="DejaVuSans-109"/>
       <path d="M 34.28125 27.484375 
Q 23.390625 27.484375 19.1875 25 
Q 14.984375 22.515625 14.984375 16.5 
Q 14.984375 11.71875 18.140625 8.90625 
Q 21.296875 6.109375 26.703125 6.109375 
Q 34.1875 6.109375 38.703125 11.40625 
Q 43.21875 16.703125 43.21875 25.484375 
L 43.21875 27.484375 
z
M 52.203125 31.203125 
L 52.203125 0 
L 43.21875 0 
L 43.21875 8.296875 
Q 40.140625 3.328125 35.546875 0.953125 
Q 30.953125 -1.421875 24.3125 -1.421875 
Q 15.921875 -1.421875 10.953125 3.296875 
Q 6 8.015625 6 15.921875 
Q 6 25.140625 12.171875 29.828125 
Q 18.359375 34.515625 30.609375 34.515625 
L 43.21875 34.515625 
L 43.21875 35.40625 
Q 43.21875 41.609375 39.140625 45 
Q 35.0625 48.390625 27.6875 48.390625 
Q 23 48.390625 18.546875 47.265625 
Q 14.109375 46.140625 10.015625 43.890625 
L 10.015625 52.203125 
Q 14.9375 54.109375 19.578125 55.046875 
Q 24.21875 56 28.609375 56 
Q 40.484375 56 46.34375 49.84375 
Q 52.203125 43.703125 52.203125 31.203125 
z
" id="DejaVuSans-97"/>
       <path d="M 45.40625 27.984375 
Q 45.40625 37.75 41.375 43.109375 
Q 37.359375 48.484375 30.078125 48.484375 
Q 22.859375 48.484375 18.828125 43.109375 
Q 14.796875 37.75 14.796875 27.984375 
Q 14.796875 18.265625 18.828125 12.890625 
Q 22.859375 7.515625 30.078125 7.515625 
Q 37.359375 7.515625 41.375 12.890625 
Q 45.40625 18.265625 45.40625 27.984375 
z
M 54.390625 6.78125 
Q 54.390625 -7.171875 48.1875 -13.984375 
Q 42 -20.796875 29.203125 -20.796875 
Q 24.46875 -20.796875 20.265625 -20.09375 
Q 16.0625 -19.390625 12.109375 -17.921875 
L 12.109375 -9.1875 
Q 16.0625 -11.328125 19.921875 -12.34375 
Q 23.78125 -13.375 27.78125 -13.375 
Q 36.625 -13.375 41.015625 -8.765625 
Q 45.40625 -4.15625 45.40625 5.171875 
L 45.40625 9.625 
Q 42.625 4.78125 38.28125 2.390625 
Q 33.9375 0 27.875 0 
Q 17.828125 0 11.671875 7.65625 
Q 5.515625 15.328125 5.515625 27.984375 
Q 5.515625 40.671875 11.671875 48.328125 
Q 17.828125 56 27.875 56 
Q 33.9375 56 38.28125 53.609375 
Q 42.625 51.21875 45.40625 46.390625 
L 45.40625 54.6875 
L 54.390625 54.6875 
z
" id="DejaVuSans-103"/>
       <path d="M 54.890625 33.015625 
L 54.890625 0 
L 45.90625 0 
L 45.90625 32.71875 
Q 45.90625 40.484375 42.875 44.328125 
Q 39.84375 48.1875 33.796875 48.1875 
Q 26.515625 48.1875 22.3125 43.546875 
Q 18.109375 38.921875 18.109375 30.90625 
L 18.109375 0 
L 9.078125 0 
L 9.078125 54.6875 
L 18.109375 54.6875 
L 18.109375 46.1875 
Q 21.34375 51.125 25.703125 53.5625 
Q 30.078125 56 35.796875 56 
Q 45.21875 56 50.046875 50.171875 
Q 54.890625 44.34375 54.890625 33.015625 
z
" id="DejaVuSans-110"/>
       <path d="M 9.421875 54.6875 
L 18.40625 54.6875 
L 18.40625 0 
L 9.421875 0 
z
M 9.421875 75.984375 
L 18.40625 75.984375 
L 18.40625 64.59375 
L 9.421875 64.59375 
z
" id="DejaVuSans-105"/>
       <path d="M 18.3125 70.21875 
L 18.3125 54.6875 
L 36.8125 54.6875 
L 36.8125 47.703125 
L 18.3125 47.703125 
L 18.3125 18.015625 
Q 18.3125 11.328125 20.140625 9.421875 
Q 21.96875 7.515625 27.59375 7.515625 
L 36.8125 7.515625 
L 36.8125 0 
L 27.59375 0 
Q 17.1875 0 13.234375 3.875 
Q 9.28125 7.765625 9.28125 18.015625 
L 9.28125 47.703125 
L 2.6875 47.703125 
L 2.6875 54.6875 
L 9.28125 54.6875 
L 9.28125 70.21875 
z
" id="DejaVuSans-116"/>
       <path d="M 8.5 21.578125 
L 8.5 54.6875 
L 17.484375 54.6875 
L 17.484375 21.921875 
Q 17.484375 14.15625 20.5 10.265625 
Q 23.53125 6.390625 29.59375 6.390625 
Q 36.859375 6.390625 41.078125 11.03125 
Q 45.3125 15.671875 45.3125 23.6875 
L 45.3125 54.6875 
L 54.296875 54.6875 
L 54.296875 0 
L 45.3125 0 
L 45.3125 8.40625 
Q 42.046875 3.421875 37.71875 1 
Q 33.40625 -1.421875 27.6875 -1.421875 
Q 18.265625 -1.421875 13.375 4.4375 
Q 8.5 10.296875 8.5 21.578125 
z
M 31.109375 56 
z
" id="DejaVuSans-117"/>
       <path d="M 45.40625 46.390625 
L 45.40625 75.984375 
L 54.390625 75.984375 
L 54.390625 0 
L 45.40625 0 
L 45.40625 8.203125 
Q 42.578125 3.328125 38.25 0.953125 
Q 33.9375 -1.421875 27.875 -1.421875 
Q 17.96875 -1.421875 11.734375 6.484375 
Q 5.515625 14.40625 5.515625 27.296875 
Q 5.515625 40.1875 11.734375 48.09375 
Q 17.96875 56 27.875 56 
Q 33.9375 56 38.25 53.625 
Q 42.578125 51.265625 45.40625 46.390625 
z
M 14.796875 27.296875 
Q 14.796875 17.390625 18.875 11.75 
Q 22.953125 6.109375 30.078125 6.109375 
Q 37.203125 6.109375 41.296875 11.75 
Q 45.40625 17.390625 45.40625 27.296875 
Q 45.40625 37.203125 41.296875 42.84375 
Q 37.203125 48.484375 30.078125 48.484375 
Q 22.953125 48.484375 18.875 42.84375 
Q 14.796875 37.203125 14.796875 27.296875 
z
" id="DejaVuSans-100"/>
       <path d="M 56.203125 29.59375 
L 56.203125 25.203125 
L 14.890625 25.203125 
Q 15.484375 15.921875 20.484375 11.0625 
Q 25.484375 6.203125 34.421875 6.203125 
Q 39.59375 6.203125 44.453125 7.46875 
Q 49.3125 8.734375 54.109375 11.28125 
L 54.109375 2.78125 
Q 49.265625 0.734375 44.1875 -0.34375 
Q 39.109375 -1.421875 33.890625 -1.421875 
Q 20.796875 -1.421875 13.15625 6.1875 
Q 5.515625 13.8125 5.515625 26.8125 
Q 5.515625 40.234375 12.765625 48.109375 
Q 20.015625 56 32.328125 56 
Q 43.359375 56 49.78125 48.890625 
Q 56.203125 41.796875 56.203125 29.59375 
z
M 47.21875 32.234375 
Q 47.125 39.59375 43.09375 43.984375 
Q 39.0625 48.390625 32.421875 48.390625 
Q 24.90625 48.390625 20.390625 44.140625 
Q 15.875 39.890625 15.1875 32.171875 
z
" id="DejaVuSans-101"/>
      </defs>
      <g style="fill:#4d4d4d;" transform="translate(54.213313 113.173128)scale(0.088 -0.088)">
       <use xlink:href="#DejaVuSans-52"/>
       <use x="63.623047" xlink:href="#DejaVuSans-53"/>
       <use x="127.246094" xlink:href="#DejaVuSans-54"/>
       <use x="190.869141" xlink:href="#DejaVuSans-45"/>
       <use x="226.953125" xlink:href="#DejaVuSans-52"/>
       <use x="290.576172" xlink:href="#DejaVuSans-56"/>
       <use x="354.199219" xlink:href="#DejaVuSans-52"/>
       <use x="417.822266" xlink:href="#DejaVuSans-32"/>
       <use x="449.609375" xlink:href="#DejaVuSans-108"/>
       <use x="477.392578" xlink:href="#DejaVuSans-111"/>
       <use x="538.574219" xlink:href="#DejaVuSans-119"/>
       <use x="620.361328" xlink:href="#DejaVuSans-32"/>
       <use x="652.148438" xlink:href="#DejaVuSans-109"/>
       <use x="749.560547" xlink:href="#DejaVuSans-97"/>
       <use x="810.839844" xlink:href="#DejaVuSans-103"/>
       <use x="874.316406" xlink:href="#DejaVuSans-110"/>
       <use x="937.695312" xlink:href="#DejaVuSans-105"/>
       <use x="965.478516" xlink:href="#DejaVuSans-116"/>
       <use x="1004.6875" xlink:href="#DejaVuSans-117"/>
       <use x="1068.066406" xlink:href="#DejaVuSans-100"/>
       <use x="1131.542969" xlink:href="#DejaVuSans-101"/>
      </g>
     </g>
    </g>
    <g id="ytick_3">
     <g id="line2d_8">
      <path d="M 164.152813 97.222927 
" style="fill:none;stroke:#333333;stroke-width:1.5;"/>
      <g>
       <use style="fill:#333333;stroke:#333333;" x="164.152813" xlink:href="#m92f94f32e9" y="97.222927"/>
      </g>
     </g>
     <g id="text_8">
      <!-- 456-484 noisy -->
      <defs>
       <path d="M 44.28125 53.078125 
L 44.28125 44.578125 
Q 40.484375 46.53125 36.375 47.5 
Q 32.28125 48.484375 27.875 48.484375 
Q 21.1875 48.484375 17.84375 46.4375 
Q 14.5 44.390625 14.5 40.28125 
Q 14.5 37.15625 16.890625 35.375 
Q 19.28125 33.59375 26.515625 31.984375 
L 29.59375 31.296875 
Q 39.15625 29.25 43.1875 25.515625 
Q 47.21875 21.78125 47.21875 15.09375 
Q 47.21875 7.46875 41.1875 3.015625 
Q 35.15625 -1.421875 24.609375 -1.421875 
Q 20.21875 -1.421875 15.453125 -0.5625 
Q 10.6875 0.296875 5.421875 2 
L 5.421875 11.28125 
Q 10.40625 8.6875 15.234375 7.390625 
Q 20.0625 6.109375 24.8125 6.109375 
Q 31.15625 6.109375 34.5625 8.28125 
Q 37.984375 10.453125 37.984375 14.40625 
Q 37.984375 18.0625 35.515625 20.015625 
Q 33.0625 21.96875 24.703125 23.78125 
L 21.578125 24.515625 
Q 13.234375 26.265625 9.515625 29.90625 
Q 5.8125 33.546875 5.8125 39.890625 
Q 5.8125 47.609375 11.28125 51.796875 
Q 16.75 56 26.8125 56 
Q 31.78125 56 36.171875 55.265625 
Q 40.578125 54.546875 44.28125 53.078125 
z
" id="DejaVuSans-115"/>
       <path d="M 32.171875 -5.078125 
Q 28.375 -14.84375 24.75 -17.8125 
Q 21.140625 -20.796875 15.09375 -20.796875 
L 7.90625 -20.796875 
L 7.90625 -13.28125 
L 13.1875 -13.28125 
Q 16.890625 -13.28125 18.9375 -11.515625 
Q 21 -9.765625 23.484375 -3.21875 
L 25.09375 0.875 
L 2.984375 54.6875 
L 12.5 54.6875 
L 29.59375 11.921875 
L 46.6875 54.6875 
L 56.203125 54.6875 
z
" id="DejaVuSans-121"/>
      </defs>
      <g style="fill:#4d4d4d;" transform="translate(96.438188 99.651177)scale(0.088 -0.088)">
       <use xlink:href="#DejaVuSans-52"/>
       <use x="63.623047" xlink:href="#DejaVuSans-53"/>
       <use x="127.246094" xlink:href="#DejaVuSans-54"/>
       <use x="190.869141" xlink:href="#DejaVuSans-45"/>
       <use x="226.953125" xlink:href="#DejaVuSans-52"/>
       <use x="290.576172" xlink:href="#DejaVuSans-56"/>
       <use x="354.199219" xlink:href="#DejaVuSans-52"/>
       <use x="417.822266" xlink:href="#DejaVuSans-32"/>
       <use x="449.609375" xlink:href="#DejaVuSans-110"/>
       <use x="512.988281" xlink:href="#DejaVuSans-111"/>
       <use x="574.169922" xlink:href="#DejaVuSans-105"/>
       <use x="601.953125" xlink:href="#DejaVuSans-115"/>
       <use x="654.052734" xlink:href="#DejaVuSans-121"/>
      </g>
     </g>
    </g>
    <g id="ytick_4">
     <g id="line2d_9">
      <path d="M 164.152813 83.700976 
" style="fill:none;stroke:#333333;stroke-width:1.5;"/>
      <g>
       <use style="fill:#333333;stroke:#333333;" x="164.152813" xlink:href="#m92f94f32e9" y="83.700976"/>
      </g>
     </g>
     <g id="text_9">
      <!-- 456-484 low magnitude - noisy -->
      <g style="fill:#4d4d4d;" transform="translate(22.245938 86.129226)scale(0.088 -0.088)">
       <use xlink:href="#DejaVuSans-52"/>
       <use x="63.623047" xlink:href="#DejaVuSans-53"/>
       <use x="127.246094" xlink:href="#DejaVuSans-54"/>
       <use x="190.869141" xlink:href="#DejaVuSans-45"/>
       <use x="226.953125" xlink:href="#DejaVuSans-52"/>
       <use x="290.576172" xlink:href="#DejaVuSans-56"/>
       <use x="354.199219" xlink:href="#DejaVuSans-52"/>
       <use x="417.822266" xlink:href="#DejaVuSans-32"/>
       <use x="449.609375" xlink:href="#DejaVuSans-108"/>
       <use x="477.392578" xlink:href="#DejaVuSans-111"/>
       <use x="538.574219" xlink:href="#DejaVuSans-119"/>
       <use x="620.361328" xlink:href="#DejaVuSans-32"/>
       <use x="652.148438" xlink:href="#DejaVuSans-109"/>
       <use x="749.560547" xlink:href="#DejaVuSans-97"/>
       <use x="810.839844" xlink:href="#DejaVuSans-103"/>
       <use x="874.316406" xlink:href="#DejaVuSans-110"/>
       <use x="937.695312" xlink:href="#DejaVuSans-105"/>
       <use x="965.478516" xlink:href="#DejaVuSans-116"/>
       <use x="1004.6875" xlink:href="#DejaVuSans-117"/>
       <use x="1068.066406" xlink:href="#DejaVuSans-100"/>
       <use x="1131.542969" xlink:href="#DejaVuSans-101"/>
       <use x="1193.066406" xlink:href="#DejaVuSans-32"/>
       <use x="1224.853516" xlink:href="#DejaVuSans-45"/>
       <use x="1260.9375" xlink:href="#DejaVuSans-32"/>
       <use x="1292.724609" xlink:href="#DejaVuSans-110"/>
       <use x="1356.103516" xlink:href="#DejaVuSans-111"/>
       <use x="1417.285156" xlink:href="#DejaVuSans-105"/>
       <use x="1445.068359" xlink:href="#DejaVuSans-115"/>
       <use x="1497.167969" xlink:href="#DejaVuSans-121"/>
      </g>
     </g>
    </g>
    <g id="ytick_5">
     <g id="line2d_10">
      <path d="M 164.152813 70.179024 
" style="fill:none;stroke:#333333;stroke-width:1.5;"/>
      <g>
       <use style="fill:#333333;stroke:#333333;" x="164.152813" xlink:href="#m92f94f32e9" y="70.179024"/>
      </g>
     </g>
     <g id="text_10">
      <!-- 443-450 -->
      <defs>
       <path d="M 31.78125 66.40625 
Q 24.171875 66.40625 20.328125 58.90625 
Q 16.5 51.421875 16.5 36.375 
Q 16.5 21.390625 20.328125 13.890625 
Q 24.171875 6.390625 31.78125 6.390625 
Q 39.453125 6.390625 43.28125 13.890625 
Q 47.125 21.390625 47.125 36.375 
Q 47.125 51.421875 43.28125 58.90625 
Q 39.453125 66.40625 31.78125 66.40625 
z
M 31.78125 74.21875 
Q 44.046875 74.21875 50.515625 64.515625 
Q 56.984375 54.828125 56.984375 36.375 
Q 56.984375 17.96875 50.515625 8.265625 
Q 44.046875 -1.421875 31.78125 -1.421875 
Q 19.53125 -1.421875 13.0625 8.265625 
Q 6.59375 17.96875 6.59375 36.375 
Q 6.59375 54.828125 13.0625 64.515625 
Q 19.53125 74.21875 31.78125 74.21875 
z
" id="DejaVuSans-48"/>
      </defs>
      <g style="fill:#4d4d4d;" transform="translate(122.433938 72.607274)scale(0.088 -0.088)">
       <use xlink:href="#DejaVuSans-52"/>
       <use x="63.623047" xlink:href="#DejaVuSans-52"/>
       <use x="127.246094" xlink:href="#DejaVuSans-51"/>
       <use x="190.869141" xlink:href="#DejaVuSans-45"/>
       <use x="226.953125" xlink:href="#DejaVuSans-52"/>
       <use x="290.576172" xlink:href="#DejaVuSans-53"/>
       <use x="354.199219" xlink:href="#DejaVuSans-48"/>
      </g>
     </g>
    </g>
    <g id="ytick_6">
     <g id="line2d_11">
      <path d="M 164.152813 56.657073 
" style="fill:none;stroke:#333333;stroke-width:1.5;"/>
      <g>
       <use style="fill:#333333;stroke:#333333;" x="164.152813" xlink:href="#m92f94f32e9" y="56.657073"/>
      </g>
     </g>
     <g id="text_11">
      <!-- core -->
      <defs>
       <path d="M 48.78125 52.59375 
L 48.78125 44.1875 
Q 44.96875 46.296875 41.140625 47.34375 
Q 37.3125 48.390625 33.40625 48.390625 
Q 24.65625 48.390625 19.8125 42.84375 
Q 14.984375 37.3125 14.984375 27.296875 
Q 14.984375 17.28125 19.8125 11.734375 
Q 24.65625 6.203125 33.40625 6.203125 
Q 37.3125 6.203125 41.140625 7.25 
Q 44.96875 8.296875 48.78125 10.40625 
L 48.78125 2.09375 
Q 45.015625 0.34375 40.984375 -0.53125 
Q 36.96875 -1.421875 32.421875 -1.421875 
Q 20.0625 -1.421875 12.78125 6.34375 
Q 5.515625 14.109375 5.515625 27.296875 
Q 5.515625 40.671875 12.859375 48.328125 
Q 20.21875 56 33.015625 56 
Q 37.15625 56 41.109375 55.140625 
Q 45.0625 54.296875 48.78125 52.59375 
z
" id="DejaVuSans-99"/>
       <path d="M 41.109375 46.296875 
Q 39.59375 47.171875 37.8125 47.578125 
Q 36.03125 48 33.890625 48 
Q 26.265625 48 22.1875 43.046875 
Q 18.109375 38.09375 18.109375 28.8125 
L 18.109375 0 
L 9.078125 0 
L 9.078125 54.6875 
L 18.109375 54.6875 
L 18.109375 46.1875 
Q 20.953125 51.171875 25.484375 53.578125 
Q 30.03125 56 36.53125 56 
Q 37.453125 56 38.578125 55.875 
Q 39.703125 55.765625 41.0625 55.515625 
z
" id="DejaVuSans-114"/>
      </defs>
      <g style="fill:#4d4d4d;" transform="translate(140.145313 59.085323)scale(0.088 -0.088)">
       <use xlink:href="#DejaVuSans-99"/>
       <use x="54.980469" xlink:href="#DejaVuSans-111"/>
       <use x="116.162109" xlink:href="#DejaVuSans-114"/>
       <use x="155.025391" xlink:href="#DejaVuSans-101"/>
      </g>
     </g>
    </g>
    <g id="ytick_7">
     <g id="line2d_12">
      <path d="M 164.152813 43.135122 
" style="fill:none;stroke:#333333;stroke-width:1.5;"/>
      <g>
       <use style="fill:#333333;stroke:#333333;" x="164.152813" xlink:href="#m92f94f32e9" y="43.135122"/>
      </g>
     </g>
     <g id="text_12">
      <!-- flat - noisy -->
      <defs>
       <path d="M 37.109375 75.984375 
L 37.109375 68.5 
L 28.515625 68.5 
Q 23.6875 68.5 21.796875 66.546875 
Q 19.921875 64.59375 19.921875 59.515625 
L 19.921875 54.6875 
L 34.71875 54.6875 
L 34.71875 47.703125 
L 19.921875 47.703125 
L 19.921875 0 
L 10.890625 0 
L 10.890625 47.703125 
L 2.296875 47.703125 
L 2.296875 54.6875 
L 10.890625 54.6875 
L 10.890625 58.5 
Q 10.890625 67.625 15.140625 71.796875 
Q 19.390625 75.984375 28.609375 75.984375 
z
" id="DejaVuSans-102"/>
      </defs>
      <g style="fill:#4d4d4d;" transform="translate(112.850188 45.563372)scale(0.088 -0.088)">
       <use xlink:href="#DejaVuSans-102"/>
       <use x="35.205078" xlink:href="#DejaVuSans-108"/>
       <use x="62.988281" xlink:href="#DejaVuSans-97"/>
       <use x="124.267578" xlink:href="#DejaVuSans-116"/>
       <use x="163.476562" xlink:href="#DejaVuSans-32"/>
       <use x="195.263672" xlink:href="#DejaVuSans-45"/>
       <use x="231.347656" xlink:href="#DejaVuSans-32"/>
       <use x="263.134766" xlink:href="#DejaVuSans-110"/>
       <use x="326.513672" xlink:href="#DejaVuSans-111"/>
       <use x="387.695312" xlink:href="#DejaVuSans-105"/>
       <use x="415.478516" xlink:href="#DejaVuSans-115"/>
       <use x="467.578125" xlink:href="#DejaVuSans-121"/>
      </g>
     </g>
    </g>
    <g id="ytick_8">
     <g id="line2d_13">
      <path d="M 164.152813 29.613171 
" style="fill:none;stroke:#333333;stroke-width:1.5;"/>
      <g>
       <use style="fill:#333333;stroke:#333333;" x="164.152813" xlink:href="#m92f94f32e9" y="29.613171"/>
      </g>
     </g>
     <g id="text_13">
      <!-- flat -->
      <g style="fill:#4d4d4d;" transform="translate(144.817563 32.041421)scale(0.088 -0.088)">
       <use xlink:href="#DejaVuSans-102"/>
       <use x="35.205078" xlink:href="#DejaVuSans-108"/>
       <use x="62.988281" xlink:href="#DejaVuSans-97"/>
       <use x="124.267578" xlink:href="#DejaVuSans-116"/>
      </g>
     </g>
    </g>
    <g id="text_14">
     <!-- escape map -->
     <defs>
      <path d="M 18.109375 8.203125 
L 18.109375 -20.796875 
L 9.078125 -20.796875 
L 9.078125 54.6875 
L 18.109375 54.6875 
L 18.109375 46.390625 
Q 20.953125 51.265625 25.265625 53.625 
Q 29.59375 56 35.59375 56 
Q 45.5625 56 51.78125 48.09375 
Q 58.015625 40.1875 58.015625 27.296875 
Q 58.015625 14.40625 51.78125 6.484375 
Q 45.5625 -1.421875 35.59375 -1.421875 
Q 29.59375 -1.421875 25.265625 0.953125 
Q 20.953125 3.328125 18.109375 8.203125 
z
M 48.6875 27.296875 
Q 48.6875 37.203125 44.609375 42.84375 
Q 40.53125 48.484375 33.40625 48.484375 
Q 26.265625 48.484375 22.1875 42.84375 
Q 18.109375 37.203125 18.109375 27.296875 
Q 18.109375 17.390625 22.1875 11.75 
Q 26.265625 6.109375 33.40625 6.109375 
Q 40.53125 6.109375 44.609375 11.75 
Q 48.6875 17.390625 48.6875 27.296875 
z
" id="DejaVuSans-112"/>
     </defs>
     <g transform="translate(15.558281 109.707266)rotate(-90)scale(0.11 -0.11)">
      <use xlink:href="#DejaVuSans-101"/>
      <use x="61.523438" xlink:href="#DejaVuSans-115"/>
      <use x="113.623047" xlink:href="#DejaVuSans-99"/>
      <use x="168.603516" xlink:href="#DejaVuSans-97"/>
      <use x="229.882812" xlink:href="#DejaVuSans-112"/>
      <use x="293.359375" xlink:href="#DejaVuSans-101"/>
      <use x="354.882812" xlink:href="#DejaVuSans-32"/>
      <use x="386.669922" xlink:href="#DejaVuSans-109"/>
      <use x="484.082031" xlink:href="#DejaVuSans-97"/>
      <use x="545.361328" xlink:href="#DejaVuSans-112"/>
     </g>
    </g>
   </g>
   <g id="PathCollection_1">
    <path clip-path="url(#p6dcd63974f)" d="M 244.632915 127.908566 
C 245.338006 127.908566 246.014312 127.62843 246.512886 127.129856 
C 247.011461 126.631282 247.291596 125.954975 247.291596 125.249885 
C 247.291596 124.544795 247.011461 123.868488 246.512886 123.369914 
C 246.014312 122.87134 245.338006 122.591204 244.632915 122.591204 
C 243.927825 122.591204 243.251518 122.87134 242.752944 123.369914 
C 242.25437 123.868488 241.974234 124.544795 241.974234 125.249885 
C 241.974234 125.954975 242.25437 126.631282 242.752944 127.129856 
C 243.251518 127.62843 243.927825 127.908566 244.632915 127.908566 
z
" style="fill-opacity:0.25098;stroke:#000000;stroke-opacity:0.25098;stroke-width:0.886227;"/>
    <path clip-path="url(#p6dcd63974f)" d="M 216.789515 127.448463 
C 217.494605 127.448463 218.170912 127.168328 218.669486 126.669754 
C 219.16806 126.171179 219.448195 125.494873 219.448195 124.789782 
C 219.448195 124.084692 219.16806 123.408385 218.669486 122.909811 
C 218.170912 122.411237 217.494605 122.131102 216.789515 122.131102 
C 216.084424 122.131102 215.408118 122.411237 214.909543 122.909811 
C 214.410969 123.408385 214.130834 124.084692 214.130834 124.789782 
C 214.130834 125.494873 214.410969 126.171179 214.909543 126.669754 
C 215.408118 127.168328 216.084424 127.448463 216.789515 127.448463 
z
" style="fill-opacity:0.25098;stroke:#000000;stroke-opacity:0.25098;stroke-width:0.886227;"/>
    <path clip-path="url(#p6dcd63974f)" d="M 206.811142 85.308796 
C 207.516233 85.308796 208.192539 85.02866 208.691113 84.530086 
C 209.189688 84.031512 209.469823 83.355205 209.469823 82.650115 
C 209.469823 81.945025 209.189688 81.268718 208.691113 80.770144 
C 208.192539 80.27157 207.516233 79.991434 206.811142 79.991434 
C 206.106052 79.991434 205.429745 80.27157 204.931171 80.770144 
C 204.432597 81.268718 204.152462 81.945025 204.152462 82.650115 
C 204.152462 83.355205 204.432597 84.031512 204.931171 84.530086 
C 205.429745 85.02866 206.106052 85.308796 206.811142 85.308796 
z
" style="fill-opacity:0.25098;stroke:#000000;stroke-opacity:0.25098;stroke-width:0.886227;"/>
    <path clip-path="url(#p6dcd63974f)" d="M 216.174973 128.058213 
C 216.880063 128.058213 217.55637 127.778078 218.054944 127.279504 
C 218.553518 126.780929 218.833653 126.104623 218.833653 125.399532 
C 218.833653 124.694442 218.553518 124.018135 218.054944 123.519561 
C 217.55637 123.020987 216.880063 122.740852 216.174973 122.740852 
C 215.469882 122.740852 214.793576 123.020987 214.295001 123.519561 
C 213.796427 124.018135 213.516292 124.694442 213.516292 125.399532 
C 213.516292 126.104623 213.796427 126.780929 214.295001 127.279504 
C 214.793576 127.778078 215.469882 128.058213 216.174973 128.058213 
z
" style="fill-opacity:0.25098;stroke:#000000;stroke-opacity:0.25098;stroke-width:0.886227;"/>
    <path clip-path="url(#p6dcd63974f)" d="M 186.501152 100.219839 
C 187.206242 100.219839 187.882549 99.939703 188.381123 99.441129 
C 188.879697 98.942555 189.159833 98.266248 189.159833 97.561158 
C 189.159833 96.856068 188.879697 96.179761 188.381123 95.681187 
C 187.882549 95.182613 187.206242 94.902477 186.501152 94.902477 
C 185.796061 94.902477 185.119755 95.182613 184.621181 95.681187 
C 184.122606 96.179761 183.842471 96.856068 183.842471 97.561158 
C 183.842471 98.266248 184.122606 98.942555 184.621181 99.441129 
C 185.119755 99.939703 185.796061 100.219839 186.501152 100.219839 
z
" style="fill-opacity:0.25098;stroke:#000000;stroke-opacity:0.25098;stroke-width:0.886227;"/>
    <path clip-path="url(#p6dcd63974f)" d="M 228.496357 125.122329 
C 229.201447 125.122329 229.877754 124.842194 230.376328 124.34362 
C 230.874902 123.845045 231.155038 123.168739 231.155038 122.463648 
C 231.155038 121.758558 230.874902 121.082251 230.376328 120.583677 
C 229.877754 120.085103 229.201447 119.804968 228.496357 119.804968 
C 227.791266 119.804968 227.11496 120.085103 226.616386 120.583677 
C 226.117811 121.082251 225.837676 121.758558 225.837676 122.463648 
C 225.837676 123.168739 226.117811 123.845045 226.616386 124.34362 
C 227.11496 124.842194 227.791266 125.122329 228.496357 125.122329 
z
" style="fill-opacity:0.25098;stroke:#000000;stroke-opacity:0.25098;stroke-width:0.886227;"/>
    <path clip-path="url(#p6dcd63974f)" d="M 204.508417 127.530646 
C 205.213507 127.530646 205.889814 127.250511 206.388388 126.751937 
C 206.886962 126.253363 207.167098 125.577056 207.167098 124.871966 
C 207.167098 124.166875 206.886962 123.490569 206.388388 122.991994 
C 205.889814 122.49342 205.213507 122.213285 204.508417 122.213285 
C 203.803327 122.213285 203.12702 122.49342 202.628446 122.991994 
C 202.129872 123.490569 201.849736 124.166875 201.849736 124.871966 
C 201.849736 125.577056 202.129872 126.253363 202.628446 126.751937 
C 203.12702 127.250511 203.803327 127.530646 204.508417 127.530646 
z
" style="fill-opacity:0.25098;stroke:#000000;stroke-opacity:0.25098;stroke-width:0.886227;"/>
    <path clip-path="url(#p6dcd63974f)" d="M 195.132003 126.658631 
C 195.837093 126.658631 196.5134 126.378496 197.011974 125.879921 
C 197.510548 125.381347 197.790683 124.705041 197.790683 123.99995 
C 197.790683 123.29486 197.510548 122.618553 197.011974 122.119979 
C 196.5134 121.621405 195.837093 121.341269 195.132003 121.341269 
C 194.426912 121.341269 193.750606 121.621405 193.252031 122.119979 
C 192.753457 122.618553 192.473322 123.29486 192.473322 123.99995 
C 192.473322 124.705041 192.753457 125.381347 193.252031 125.879921 
C 193.750606 126.378496 194.426912 126.658631 195.132003 126.658631 
z
" style="fill-opacity:0.25098;stroke:#000000;stroke-opacity:0.25098;stroke-width:0.886227;"/>
    <path clip-path="url(#p6dcd63974f)" d="M 203.94326 32.507884 
C 204.648351 32.507884 205.324657 32.227749 205.823232 31.729175 
C 206.321806 31.230601 206.601941 30.554294 206.601941 29.849204 
C 206.601941 29.144113 206.321806 28.467807 205.823232 27.969233 
C 205.324657 27.470658 204.648351 27.190523 203.94326 27.190523 
C 203.23817 27.190523 202.561863 27.470658 202.063289 27.969233 
C 201.564715 28.467807 201.28458 29.144113 201.28458 29.849204 
C 201.28458 30.554294 201.564715 31.230601 202.063289 31.729175 
C 202.561863 32.227749 203.23817 32.507884 203.94326 32.507884 
z
" style="fill-opacity:0.25098;stroke:#000000;stroke-opacity:0.25098;stroke-width:0.886227;"/>
    <path clip-path="url(#p6dcd63974f)" d="M 198.785404 127.690961 
C 199.490494 127.690961 200.166801 127.410826 200.665375 126.912252 
C 201.163949 126.413678 201.444085 125.737371 201.444085 125.032281 
C 201.444085 124.32719 201.163949 123.650884 200.665375 123.152309 
C 200.166801 122.653735 199.490494 122.3736 198.785404 122.3736 
C 198.080313 122.3736 197.404007 122.653735 196.905433 123.152309 
C 196.406858 123.650884 196.126723 124.32719 196.126723 125.032281 
C 196.126723 125.737371 196.406858 126.413678 196.905433 126.912252 
C 197.404007 127.410826 198.080313 127.690961 198.785404 127.690961 
z
" style="fill-opacity:0.25098;stroke:#000000;stroke-opacity:0.25098;stroke-width:0.886227;"/>
    <path clip-path="url(#p6dcd63974f)" d="M 192.656275 126.66273 
C 193.361365 126.66273 194.037672 126.382595 194.536246 125.884021 
C 195.03482 125.385447 195.314956 124.70914 195.314956 124.00405 
C 195.314956 123.298959 195.03482 122.622653 194.536246 122.124078 
C 194.037672 121.625504 193.361365 121.345369 192.656275 121.345369 
C 191.951185 121.345369 191.274878 121.625504 190.776304 122.124078 
C 190.27773 122.622653 189.997594 123.298959 189.997594 124.00405 
C 189.997594 124.70914 190.27773 125.385447 190.776304 125.884021 
C 191.274878 126.382595 191.951185 126.66273 192.656275 126.66273 
z
" style="fill-opacity:0.25098;stroke:#000000;stroke-opacity:0.25098;stroke-width:0.886227;"/>
    <path clip-path="url(#p6dcd63974f)" d="M 169.110994 126.828795 
C 169.816085 126.828795 170.492391 126.54866 170.990966 126.050086 
C 171.48954 125.551511 171.769675 124.875205 171.769675 124.170114 
C 171.769675 123.465024 171.48954 122.788717 170.990966 122.290143 
C 170.492391 121.791569 169.816085 121.511434 169.110994 121.511434 
C 168.405904 121.511434 167.729597 121.791569 167.231023 122.290143 
C 166.732449 122.788717 166.452314 123.465024 166.452314 124.170114 
C 166.452314 124.875205 166.732449 125.551511 167.231023 126.050086 
C 167.729597 126.54866 168.405904 126.828795 169.110994 126.828795 
z
" style="fill-opacity:0.25098;stroke:#000000;stroke-opacity:0.25098;stroke-width:0.886227;"/>
    <path clip-path="url(#p6dcd63974f)" d="M 174.381497 70.933893 
C 175.086587 70.933893 175.762894 70.653757 176.261468 70.155183 
C 176.760043 69.656609 177.040178 68.980302 177.040178 68.275212 
C 177.040178 67.570121 176.760043 66.893815 176.261468 66.395241 
C 175.762894 65.896666 175.086587 65.616531 174.381497 65.616531 
C 173.676407 65.616531 173.0001 65.896666 172.501526 66.395241 
C 172.002952 66.893815 171.722816 67.570121 171.722816 68.275212 
C 171.722816 68.980302 172.002952 69.656609 172.501526 70.155183 
C 173.0001 70.653757 173.676407 70.933893 174.381497 70.933893 
z
" style="fill-opacity:0.25098;stroke:#000000;stroke-opacity:0.25098;stroke-width:0.886227;"/>
    <path clip-path="url(#p6dcd63974f)" d="M 268.274631 73.336926 
C 268.979721 73.336926 269.656028 73.056791 270.154602 72.558216 
C 270.653176 72.059642 270.933311 71.383336 270.933311 70.678245 
C 270.933311 69.973155 270.653176 69.296848 270.154602 68.798274 
C 269.656028 68.2997 268.979721 68.019564 268.274631 68.019564 
C 267.56954 68.019564 266.893234 68.2997 266.394659 68.798274 
C 265.896085 69.296848 265.61595 69.973155 265.61595 70.678245 
C 265.61595 71.383336 265.896085 72.059642 266.394659 72.558216 
C 266.893234 73.056791 267.56954 73.336926 268.274631 73.336926 
z
" style="fill-opacity:0.25098;stroke:#000000;stroke-opacity:0.25098;stroke-width:0.886227;"/>
    <path clip-path="url(#p6dcd63974f)" d="M 181.616028 30.882675 
C 182.321118 30.882675 182.997425 30.60254 183.495999 30.103966 
C 183.994573 29.605391 184.274709 28.929085 184.274709 28.223994 
C 184.274709 27.518904 183.994573 26.842597 183.495999 26.344023 
C 182.997425 25.845449 182.321118 25.565314 181.616028 25.565314 
C 180.910937 25.565314 180.234631 25.845449 179.736057 26.344023 
C 179.237482 26.842597 178.957347 27.518904 178.957347 28.223994 
C 178.957347 28.929085 179.237482 29.605391 179.736057 30.103966 
C 180.234631 30.60254 180.910937 30.882675 181.616028 30.882675 
z
" style="fill-opacity:0.25098;stroke:#000000;stroke-opacity:0.25098;stroke-width:0.886227;"/>
    <path clip-path="url(#p6dcd63974f)" d="M 204.584853 72.900357 
C 205.289944 72.900357 205.96625 72.620222 206.464824 72.121647 
C 206.963399 71.623073 207.243534 70.946767 207.243534 70.241676 
C 207.243534 69.536586 206.963399 68.860279 206.464824 68.361705 
C 205.96625 67.863131 205.289944 67.582995 204.584853 67.582995 
C 203.879763 67.582995 203.203456 67.863131 202.704882 68.361705 
C 202.206308 68.860279 201.926173 69.536586 201.926173 70.241676 
C 201.926173 70.946767 202.206308 71.623073 202.704882 72.121647 
C 203.203456 72.620222 203.879763 72.900357 204.584853 72.900357 
z
" style="fill-opacity:0.25098;stroke:#000000;stroke-opacity:0.25098;stroke-width:0.886227;"/>
    <path clip-path="url(#p6dcd63974f)" d="M 197.781802 73.063028 
C 198.486892 73.063028 199.163199 72.782893 199.661773 72.284319 
C 200.160347 71.785744 200.440482 71.109438 200.440482 70.404347 
C 200.440482 69.699257 200.160347 69.02295 199.661773 68.524376 
C 199.163199 68.025802 198.486892 67.745667 197.781802 67.745667 
C 197.076711 67.745667 196.400405 68.025802 195.90183 68.524376 
C 195.403256 69.02295 195.123121 69.699257 195.123121 70.404347 
C 195.123121 71.109438 195.403256 71.785744 195.90183 72.284319 
C 196.400405 72.782893 197.076711 73.063028 197.781802 73.063028 
z
" style="fill-opacity:0.25098;stroke:#000000;stroke-opacity:0.25098;stroke-width:0.886227;"/>
    <path clip-path="url(#p6dcd63974f)" d="M 173.905787 71.244628 
C 174.610877 71.244628 175.287184 70.964492 175.785758 70.465918 
C 176.284332 69.967344 176.564468 69.291037 176.564468 68.585947 
C 176.564468 67.880857 176.284332 67.20455 175.785758 66.705976 
C 175.287184 66.207402 174.610877 65.927266 173.905787 65.927266 
C 173.200697 65.927266 172.52439 66.207402 172.025816 66.705976 
C 171.527242 67.20455 171.247106 67.880857 171.247106 68.585947 
C 171.247106 69.291037 171.527242 69.967344 172.025816 70.465918 
C 172.52439 70.964492 173.200697 71.244628 173.905787 71.244628 
z
" style="fill-opacity:0.25098;stroke:#000000;stroke-opacity:0.25098;stroke-width:0.886227;"/>
    <path clip-path="url(#p6dcd63974f)" d="M 194.89656 71.02954 
C 195.601651 71.02954 196.277957 70.749404 196.776532 70.25083 
C 197.275106 69.752256 197.555241 69.075949 197.555241 68.370859 
C 197.555241 67.665769 197.275106 66.989462 196.776532 66.490888 
C 196.277957 65.992314 195.601651 65.712178 194.89656 65.712178 
C 194.19147 65.712178 193.515163 65.992314 193.016589 66.490888 
C 192.518015 66.989462 192.23788 67.665769 192.23788 68.370859 
C 192.23788 69.075949 192.518015 69.752256 193.016589 70.25083 
C 193.515163 70.749404 194.19147 71.02954 194.89656 71.02954 
z
" style="fill-opacity:0.25098;stroke:#000000;stroke-opacity:0.25098;stroke-width:0.886227;"/>
    <path clip-path="url(#p6dcd63974f)" d="M 194.203225 59.330631 
C 194.908316 59.330631 195.584622 59.050496 196.083196 58.551922 
C 196.581771 58.053348 196.861906 57.377041 196.861906 56.67195 
C 196.861906 55.96686 196.581771 55.290553 196.083196 54.791979 
C 195.584622 54.293405 194.908316 54.01327 194.203225 54.01327 
C 193.498135 54.01327 192.821828 54.293405 192.323254 54.791979 
C 191.82468 55.290553 191.544544 55.96686 191.544544 56.67195 
C 191.544544 57.377041 191.82468 58.053348 192.323254 58.551922 
C 192.821828 59.050496 193.498135 59.330631 194.203225 59.330631 
z
" style="fill-opacity:0.25098;stroke:#000000;stroke-opacity:0.25098;stroke-width:0.886227;"/>
    <path clip-path="url(#p6dcd63974f)" d="M 196.83034 33.285807 
C 197.53543 33.285807 198.211737 33.005671 198.710311 32.507097 
C 199.208885 32.008523 199.489021 31.332216 199.489021 30.627126 
C 199.489021 29.922036 199.208885 29.245729 198.710311 28.747155 
C 198.211737 28.248581 197.53543 27.968445 196.83034 27.968445 
C 196.12525 27.968445 195.448943 28.248581 194.950369 28.747155 
C 194.451795 29.245729 194.171659 29.922036 194.171659 30.627126 
C 194.171659 31.332216 194.451795 32.008523 194.950369 32.507097 
C 195.448943 33.005671 196.12525 33.285807 196.83034 33.285807 
z
" style="fill-opacity:0.25098;stroke:#000000;stroke-opacity:0.25098;stroke-width:0.886227;"/>
    <path clip-path="url(#p6dcd63974f)" d="M 183.83105 111.509261 
C 184.536141 111.509261 185.212447 111.229126 185.711022 110.730552 
C 186.209596 110.231978 186.489731 109.555671 186.489731 108.850581 
C 186.489731 108.14549 186.209596 107.469184 185.711022 106.970609 
C 185.212447 106.472035 184.536141 106.1919 183.83105 106.1919 
C 183.12596 106.1919 182.449653 106.472035 181.951079 106.970609 
C 181.452505 107.469184 181.17237 108.14549 181.17237 108.850581 
C 181.17237 109.555671 181.452505 110.231978 181.951079 110.730552 
C 182.449653 111.229126 183.12596 111.509261 183.83105 111.509261 
z
" style="fill-opacity:0.25098;stroke:#000000;stroke-opacity:0.25098;stroke-width:0.886227;"/>
   </g>
   <g id="patch_3">
    <path d="M 164.152813 21.5 
L 273.232813 21.5 
L 273.232813 7.2 
L 164.152813 7.2 
z
" style="fill:none;stroke:#000000;stroke-linejoin:miter;"/>
   </g>
   <g id="patch_4">
    <path d="M 164.152813 132.38 
L 164.152813 21.5 
" style="fill:none;stroke:#000000;stroke-linecap:square;stroke-linejoin:miter;"/>
   </g>
   <g id="patch_5">
    <path d="M 164.152813 132.38 
L 273.232813 132.38 
" style="fill:none;stroke:#000000;stroke-linecap:square;stroke-linejoin:miter;"/>
   </g>
   <g id="text_15">
    <!-- convalescent -->
    <defs>
     <path d="M 2.984375 54.6875 
L 12.5 54.6875 
L 29.59375 8.796875 
L 46.6875 54.6875 
L 56.203125 54.6875 
L 35.6875 0 
L 23.484375 0 
z
" id="DejaVuSans-118"/>
    </defs>
    <g style="fill:#1a1a1a;" transform="translate(189.630125 16.77825)scale(0.088 -0.088)">
     <use xlink:href="#DejaVuSans-99"/>
     <use x="54.980469" xlink:href="#DejaVuSans-111"/>
     <use x="116.162109" xlink:href="#DejaVuSans-110"/>
     <use x="179.541016" xlink:href="#DejaVuSans-118"/>
     <use x="238.720703" xlink:href="#DejaVuSans-97"/>
     <use x="300" xlink:href="#DejaVuSans-108"/>
     <use x="327.783203" xlink:href="#DejaVuSans-101"/>
     <use x="389.306641" xlink:href="#DejaVuSans-115"/>
     <use x="441.40625" xlink:href="#DejaVuSans-99"/>
     <use x="496.386719" xlink:href="#DejaVuSans-101"/>
     <use x="557.910156" xlink:href="#DejaVuSans-110"/>
     <use x="621.289062" xlink:href="#DejaVuSans-116"/>
    </g>
   </g>
  </g>
  <g id="axes_2">
   <g id="patch_6">
    <path d="M 278.272813 132.38 
L 387.352813 132.38 
L 387.352813 21.5 
L 278.272813 21.5 
z
" style="fill:#ffffff;"/>
   </g>
   <g id="matplotlib.axis_3">
    <g id="xtick_11">
     <g id="line2d_14">
      <path d="M 297.190454 132.38 
" style="fill:none;stroke:#333333;stroke-linecap:square;stroke-width:1.5;"/>
      <g>
       <use style="fill:#333333;stroke:#333333;" x="297.190454" xlink:href="#m0b1025418a" y="132.38"/>
      </g>
     </g>
     <g id="text_16">
      <!-- 2.5 -->
      <g style="fill:#4d4d4d;" transform="translate(299.618704 151.32475)rotate(-90)scale(0.088 -0.088)">
       <use xlink:href="#DejaVuSans-50"/>
       <use x="63.623047" xlink:href="#DejaVuSans-46"/>
       <use x="95.410156" xlink:href="#DejaVuSans-53"/>
      </g>
     </g>
    </g>
    <g id="xtick_12">
     <g id="line2d_15">
      <path d="M 318.145792 132.38 
" style="fill:none;stroke:#333333;stroke-linecap:square;stroke-width:1.5;"/>
      <g>
       <use style="fill:#333333;stroke:#333333;" x="318.145792" xlink:href="#m0b1025418a" y="132.38"/>
      </g>
     </g>
     <g id="text_17">
      <!-- 3 -->
      <g style="fill:#4d4d4d;" transform="translate(320.574042 142.929)rotate(-90)scale(0.088 -0.088)">
       <use xlink:href="#DejaVuSans-51"/>
      </g>
     </g>
    </g>
    <g id="xtick_13">
     <g id="line2d_16">
      <path d="M 339.10113 132.38 
" style="fill:none;stroke:#333333;stroke-linecap:square;stroke-width:1.5;"/>
      <g>
       <use style="fill:#333333;stroke:#333333;" x="339.10113" xlink:href="#m0b1025418a" y="132.38"/>
      </g>
     </g>
     <g id="text_18">
      <!-- 3.5 -->
      <g style="fill:#4d4d4d;" transform="translate(341.52938 151.32475)rotate(-90)scale(0.088 -0.088)">
       <use xlink:href="#DejaVuSans-51"/>
       <use x="63.623047" xlink:href="#DejaVuSans-46"/>
       <use x="95.410156" xlink:href="#DejaVuSans-53"/>
      </g>
     </g>
    </g>
    <g id="xtick_14">
     <g id="line2d_17">
      <path d="M 360.056468 132.38 
" style="fill:none;stroke:#333333;stroke-linecap:square;stroke-width:1.5;"/>
      <g>
       <use style="fill:#333333;stroke:#333333;" x="360.056468" xlink:href="#m0b1025418a" y="132.38"/>
      </g>
     </g>
     <g id="text_19">
      <!-- 4 -->
      <g style="fill:#4d4d4d;" transform="translate(362.484718 142.929)rotate(-90)scale(0.088 -0.088)">
       <use xlink:href="#DejaVuSans-52"/>
      </g>
     </g>
    </g>
    <g id="xtick_15">
     <g id="line2d_18">
      <path d="M 381.011806 132.38 
" style="fill:none;stroke:#333333;stroke-linecap:square;stroke-width:1.5;"/>
      <g>
       <use style="fill:#333333;stroke:#333333;" x="381.011806" xlink:href="#m0b1025418a" y="132.38"/>
      </g>
     </g>
     <g id="text_20">
      <!-- 4.5 -->
      <g style="fill:#4d4d4d;" transform="translate(383.440056 151.32475)rotate(-90)scale(0.088 -0.088)">
       <use xlink:href="#DejaVuSans-52"/>
       <use x="63.623047" xlink:href="#DejaVuSans-46"/>
       <use x="95.410156" xlink:href="#DejaVuSans-53"/>
      </g>
     </g>
    </g>
    <g id="xtick_16"/>
    <g id="xtick_17"/>
    <g id="xtick_18"/>
    <g id="xtick_19"/>
    <g id="xtick_20"/>
    <g id="text_21">
     <!-- log10_NT50 -->
     <defs>
      <path d="M 12.40625 8.296875 
L 28.515625 8.296875 
L 28.515625 63.921875 
L 10.984375 60.40625 
L 10.984375 69.390625 
L 28.421875 72.90625 
L 38.28125 72.90625 
L 38.28125 8.296875 
L 54.390625 8.296875 
L 54.390625 0 
L 12.40625 0 
z
" id="DejaVuSans-49"/>
      <path d="M 50.984375 -16.609375 
L 50.984375 -23.578125 
L -0.984375 -23.578125 
L -0.984375 -16.609375 
z
" id="DejaVuSans-95"/>
      <path d="M 9.8125 72.90625 
L 23.09375 72.90625 
L 55.421875 11.921875 
L 55.421875 72.90625 
L 64.984375 72.90625 
L 64.984375 0 
L 51.703125 0 
L 19.390625 60.984375 
L 19.390625 0 
L 9.8125 0 
z
" id="DejaVuSans-78"/>
      <path d="M -0.296875 72.90625 
L 61.375 72.90625 
L 61.375 64.59375 
L 35.5 64.59375 
L 35.5 0 
L 25.59375 0 
L 25.59375 64.59375 
L -0.296875 64.59375 
z
" id="DejaVuSans-84"/>
     </defs>
     <g transform="translate(239.546406 164.083031)scale(0.11 -0.11)">
      <use xlink:href="#DejaVuSans-108"/>
      <use x="27.783203" xlink:href="#DejaVuSans-111"/>
      <use x="88.964844" xlink:href="#DejaVuSans-103"/>
      <use x="152.441406" xlink:href="#DejaVuSans-49"/>
      <use x="216.064453" xlink:href="#DejaVuSans-48"/>
      <use x="279.6875" xlink:href="#DejaVuSans-95"/>
      <use x="329.6875" xlink:href="#DejaVuSans-78"/>
      <use x="404.492188" xlink:href="#DejaVuSans-84"/>
      <use x="465.576172" xlink:href="#DejaVuSans-53"/>
      <use x="529.199219" xlink:href="#DejaVuSans-48"/>
     </g>
    </g>
   </g>
   <g id="matplotlib.axis_4">
    <g id="ytick_9"/>
    <g id="ytick_10"/>
    <g id="ytick_11"/>
    <g id="ytick_12"/>
    <g id="ytick_13"/>
    <g id="ytick_14"/>
    <g id="ytick_15"/>
    <g id="ytick_16"/>
   </g>
   <g id="PathCollection_2">
    <path clip-path="url(#pfb0a2794e4)" d="M 294.907315 128.590601 
C 295.612405 128.590601 296.288712 128.310465 296.787286 127.811891 
C 297.28586 127.313317 297.565996 126.63701 297.565996 125.93192 
C 297.565996 125.22683 297.28586 124.550523 296.787286 124.051949 
C 296.288712 123.553375 295.612405 123.273239 294.907315 123.273239 
C 294.202225 123.273239 293.525918 123.553375 293.027344 124.051949 
C 292.528769 124.550523 292.248634 125.22683 292.248634 125.93192 
C 292.248634 126.63701 292.528769 127.313317 293.027344 127.811891 
C 293.525918 128.310465 294.202225 128.590601 294.907315 128.590601 
z
" style="fill-opacity:0.25098;stroke:#000000;stroke-opacity:0.25098;stroke-width:0.886227;"/>
    <path clip-path="url(#pfb0a2794e4)" d="M 354.564854 33.853531 
C 355.269944 33.853531 355.946251 33.573396 356.444825 33.074822 
C 356.943399 32.576247 357.223535 31.899941 357.223535 31.19485 
C 357.223535 30.48976 356.943399 29.813453 356.444825 29.314879 
C 355.946251 28.816305 355.269944 28.53617 354.564854 28.53617 
C 353.859764 28.53617 353.183457 28.816305 352.684883 29.314879 
C 352.186309 29.813453 351.906173 30.48976 351.906173 31.19485 
C 351.906173 31.899941 352.186309 32.576247 352.684883 33.074822 
C 353.183457 33.573396 353.859764 33.853531 354.564854 33.853531 
z
" style="fill-opacity:0.25098;stroke:#000000;stroke-opacity:0.25098;stroke-width:0.886227;"/>
    <path clip-path="url(#pfb0a2794e4)" d="M 339.922831 111.410354 
C 340.627921 111.410354 341.304228 111.130218 341.802802 110.631644 
C 342.301376 110.13307 342.581511 109.456763 342.581511 108.751673 
C 342.581511 108.046582 342.301376 107.370276 341.802802 106.871702 
C 341.304228 106.373127 340.627921 106.092992 339.922831 106.092992 
C 339.21774 106.092992 338.541434 106.373127 338.042859 106.871702 
C 337.544285 107.370276 337.26415 108.046582 337.26415 108.751673 
C 337.26415 109.456763 337.544285 110.13307 338.042859 110.631644 
C 338.541434 111.130218 339.21774 111.410354 339.922831 111.410354 
z
" style="fill-opacity:0.25098;stroke:#000000;stroke-opacity:0.25098;stroke-width:0.886227;"/>
    <path clip-path="url(#pfb0a2794e4)" d="M 318.076948 58.105928 
C 318.782038 58.105928 319.458345 57.825792 319.956919 57.327218 
C 320.455493 56.828644 320.735628 56.152337 320.735628 55.447247 
C 320.735628 54.742156 320.455493 54.06585 319.956919 53.567276 
C 319.458345 53.068701 318.782038 52.788566 318.076948 52.788566 
C 317.371857 52.788566 316.695551 53.068701 316.196976 53.567276 
C 315.698402 54.06585 315.418267 54.742156 315.418267 55.447247 
C 315.418267 56.152337 315.698402 56.828644 316.196976 57.327218 
C 316.695551 57.825792 317.371857 58.105928 318.076948 58.105928 
z
" style="fill-opacity:0.25098;stroke:#000000;stroke-opacity:0.25098;stroke-width:0.886227;"/>
    <path clip-path="url(#pfb0a2794e4)" d="M 327.082372 32.643318 
C 327.787462 32.643318 328.463769 32.363182 328.962343 31.864608 
C 329.460917 31.366034 329.741053 30.689727 329.741053 29.984637 
C 329.741053 29.279546 329.460917 28.60324 328.962343 28.104666 
C 328.463769 27.606091 327.787462 27.325956 327.082372 27.325956 
C 326.377282 27.325956 325.700975 27.606091 325.202401 28.104666 
C 324.703827 28.60324 324.423691 29.279546 324.423691 29.984637 
C 324.423691 30.689727 324.703827 31.366034 325.202401 31.864608 
C 325.700975 32.363182 326.377282 32.643318 327.082372 32.643318 
z
" style="fill-opacity:0.25098;stroke:#000000;stroke-opacity:0.25098;stroke-width:0.886227;"/>
    <path clip-path="url(#pfb0a2794e4)" d="M 349.492682 31.577922 
C 350.197773 31.577922 350.874079 31.297786 351.372654 30.799212 
C 351.871228 30.300638 352.151363 29.624331 352.151363 28.919241 
C 352.151363 28.214151 351.871228 27.537844 351.372654 27.03927 
C 350.874079 26.540696 350.197773 26.26056 349.492682 26.26056 
C 348.787592 26.26056 348.111285 26.540696 347.612711 27.03927 
C 347.114137 27.537844 346.834002 28.214151 346.834002 28.919241 
C 346.834002 29.624331 347.114137 30.300638 347.612711 30.799212 
C 348.111285 31.297786 348.787592 31.577922 349.492682 31.577922 
z
" style="fill-opacity:0.25098;stroke:#000000;stroke-opacity:0.25098;stroke-width:0.886227;"/>
    <path clip-path="url(#pfb0a2794e4)" d="M 324.614527 115.19373 
C 325.319617 115.19373 325.995924 114.913594 326.494498 114.41502 
C 326.993072 113.916446 327.273208 113.240139 327.273208 112.535049 
C 327.273208 111.829959 326.993072 111.153652 326.494498 110.655078 
C 325.995924 110.156504 325.319617 109.876368 324.614527 109.876368 
C 323.909437 109.876368 323.23313 110.156504 322.734556 110.655078 
C 322.235982 111.153652 321.955846 111.829959 321.955846 112.535049 
C 321.955846 113.240139 322.235982 113.916446 322.734556 114.41502 
C 323.23313 114.913594 323.909437 115.19373 324.614527 115.19373 
z
" style="fill-opacity:0.25098;stroke:#000000;stroke-opacity:0.25098;stroke-width:0.886227;"/>
    <path clip-path="url(#pfb0a2794e4)" d="M 314.833679 126.89795 
C 315.538769 126.89795 316.215076 126.617815 316.71365 126.11924 
C 317.212224 125.620666 317.49236 124.94436 317.49236 124.239269 
C 317.49236 123.534179 317.212224 122.857872 316.71365 122.359298 
C 316.215076 121.860724 315.538769 121.580588 314.833679 121.580588 
C 314.128588 121.580588 313.452282 121.860724 312.953708 122.359298 
C 312.455133 122.857872 312.174998 123.534179 312.174998 124.239269 
C 312.174998 124.94436 312.455133 125.620666 312.953708 126.11924 
C 313.452282 126.617815 314.128588 126.89795 314.833679 126.89795 
z
" style="fill-opacity:0.25098;stroke:#000000;stroke-opacity:0.25098;stroke-width:0.886227;"/>
    <path clip-path="url(#pfb0a2794e4)" d="M 311.792226 88.302478 
C 312.497317 88.302478 313.173623 88.022343 313.672198 87.523769 
C 314.170772 87.025195 314.450907 86.348888 314.450907 85.643798 
C 314.450907 84.938707 314.170772 84.262401 313.672198 83.763826 
C 313.173623 83.265252 312.497317 82.985117 311.792226 82.985117 
C 311.087136 82.985117 310.410829 83.265252 309.912255 83.763826 
C 309.413681 84.262401 309.133546 84.938707 309.133546 85.643798 
C 309.133546 86.348888 309.413681 87.025195 309.912255 87.523769 
C 310.410829 88.022343 311.087136 88.302478 311.792226 88.302478 
z
" style="fill-opacity:0.25098;stroke:#000000;stroke-opacity:0.25098;stroke-width:0.886227;"/>
    <path clip-path="url(#pfb0a2794e4)" d="M 336.841008 34.160504 
C 337.546098 34.160504 338.222405 33.880368 338.720979 33.381794 
C 339.219553 32.88322 339.499689 32.206913 339.499689 31.501823 
C 339.499689 30.796732 339.219553 30.120426 338.720979 29.621852 
C 338.222405 29.123277 337.546098 28.843142 336.841008 28.843142 
C 336.135918 28.843142 335.459611 29.123277 334.961037 29.621852 
C 334.462463 30.120426 334.182327 30.796732 334.182327 31.501823 
C 334.182327 32.206913 334.462463 32.88322 334.961037 33.381794 
C 335.459611 33.880368 336.135918 34.160504 336.841008 34.160504 
z
" style="fill-opacity:0.25098;stroke:#000000;stroke-opacity:0.25098;stroke-width:0.886227;"/>
    <path clip-path="url(#pfb0a2794e4)" d="M 307.518585 60.637374 
C 308.223675 60.637374 308.899982 60.357238 309.398556 59.858664 
C 309.89713 59.36009 310.177266 58.683783 310.177266 57.978693 
C 310.177266 57.273602 309.89713 56.597296 309.398556 56.098722 
C 308.899982 55.600147 308.223675 55.320012 307.518585 55.320012 
C 306.813495 55.320012 306.137188 55.600147 305.638614 56.098722 
C 305.14004 56.597296 304.859904 57.273602 304.859904 57.978693 
C 304.859904 58.683783 305.14004 59.36009 305.638614 59.858664 
C 306.137188 60.357238 306.813495 60.637374 307.518585 60.637374 
z
" style="fill-opacity:0.25098;stroke:#000000;stroke-opacity:0.25098;stroke-width:0.886227;"/>
    <path clip-path="url(#pfb0a2794e4)" d="M 325.812617 30.575933 
C 326.517707 30.575933 327.194014 30.295797 327.692588 29.797223 
C 328.191162 29.298649 328.471297 28.622342 328.471297 27.917252 
C 328.471297 27.212161 328.191162 26.535855 327.692588 26.037281 
C 327.194014 25.538706 326.517707 25.258571 325.812617 25.258571 
C 325.107526 25.258571 324.43122 25.538706 323.932646 26.037281 
C 323.434071 26.535855 323.153936 27.212161 323.153936 27.917252 
C 323.153936 28.622342 323.434071 29.298649 323.932646 29.797223 
C 324.43122 30.295797 325.107526 30.575933 325.812617 30.575933 
z
" style="fill-opacity:0.25098;stroke:#000000;stroke-opacity:0.25098;stroke-width:0.886227;"/>
    <path clip-path="url(#pfb0a2794e4)" d="M 342.257427 31.520072 
C 342.962517 31.520072 343.638824 31.239936 344.137398 30.741362 
C 344.635972 30.242788 344.916108 29.566481 344.916108 28.861391 
C 344.916108 28.156301 344.635972 27.479994 344.137398 26.98142 
C 343.638824 26.482846 342.962517 26.20271 342.257427 26.20271 
C 341.552336 26.20271 340.87603 26.482846 340.377456 26.98142 
C 339.878881 27.479994 339.598746 28.156301 339.598746 28.861391 
C 339.598746 29.566481 339.878881 30.242788 340.377456 30.741362 
C 340.87603 31.239936 341.552336 31.520072 342.257427 31.520072 
z
" style="fill-opacity:0.25098;stroke:#000000;stroke-opacity:0.25098;stroke-width:0.886227;"/>
    <path clip-path="url(#pfb0a2794e4)" d="M 314.976292 127.861639 
C 315.681383 127.861639 316.357689 127.581503 316.856263 127.082929 
C 317.354838 126.584355 317.634973 125.908048 317.634973 125.202958 
C 317.634973 124.497868 317.354838 123.821561 316.856263 123.322987 
C 316.357689 122.824413 315.681383 122.544277 314.976292 122.544277 
C 314.271202 122.544277 313.594895 122.824413 313.096321 123.322987 
C 312.597747 123.821561 312.317611 124.497868 312.317611 125.202958 
C 312.317611 125.908048 312.597747 126.584355 313.096321 127.082929 
C 313.594895 127.581503 314.271202 127.861639 314.976292 127.861639 
z
" style="fill-opacity:0.25098;stroke:#000000;stroke-opacity:0.25098;stroke-width:0.886227;"/>
    <path clip-path="url(#pfb0a2794e4)" d="M 318.349295 128.514685 
C 319.054385 128.514685 319.730692 128.23455 320.229266 127.735976 
C 320.72784 127.237402 321.007976 126.561095 321.007976 125.856005 
C 321.007976 125.150914 320.72784 124.474608 320.229266 123.976033 
C 319.730692 123.477459 319.054385 123.197324 318.349295 123.197324 
C 317.644205 123.197324 316.967898 123.477459 316.469324 123.976033 
C 315.97075 124.474608 315.690614 125.150914 315.690614 125.856005 
C 315.690614 126.561095 315.97075 127.237402 316.469324 127.735976 
C 316.967898 128.23455 317.644205 128.514685 318.349295 128.514685 
z
" style="fill-opacity:0.25098;stroke:#000000;stroke-opacity:0.25098;stroke-width:0.886227;"/>
    <path clip-path="url(#pfb0a2794e4)" d="M 350.21986 32.451755 
C 350.92495 32.451755 351.601257 32.171619 352.099831 31.673045 
C 352.598405 31.174471 352.878541 30.498164 352.878541 29.793074 
C 352.878541 29.087983 352.598405 28.411677 352.099831 27.913103 
C 351.601257 27.414528 350.92495 27.134393 350.21986 27.134393 
C 349.514769 27.134393 348.838463 27.414528 348.339889 27.913103 
C 347.841314 28.411677 347.561179 29.087983 347.561179 29.793074 
C 347.561179 30.498164 347.841314 31.174471 348.339889 31.673045 
C 348.838463 32.171619 349.514769 32.451755 350.21986 32.451755 
z
" style="fill-opacity:0.25098;stroke:#000000;stroke-opacity:0.25098;stroke-width:0.886227;"/>
    <path clip-path="url(#pfb0a2794e4)" d="M 332.777037 34.272675 
C 333.482127 34.272675 334.158434 33.992539 334.657008 33.493965 
C 335.155582 32.995391 335.435718 32.319084 335.435718 31.613994 
C 335.435718 30.908903 335.155582 30.232597 334.657008 29.734023 
C 334.158434 29.235448 333.482127 28.955313 332.777037 28.955313 
C 332.071946 28.955313 331.39564 29.235448 330.897066 29.734023 
C 330.398491 30.232597 330.118356 30.908903 330.118356 31.613994 
C 330.118356 32.319084 330.398491 32.995391 330.897066 33.493965 
C 331.39564 33.992539 332.071946 34.272675 332.777037 34.272675 
z
" style="fill-opacity:0.25098;stroke:#000000;stroke-opacity:0.25098;stroke-width:0.886227;"/>
    <path clip-path="url(#pfb0a2794e4)" d="M 326.993167 30.653028 
C 327.698257 30.653028 328.374564 30.372893 328.873138 29.874319 
C 329.371712 29.375744 329.651848 28.699438 329.651848 27.994347 
C 329.651848 27.289257 329.371712 26.61295 328.873138 26.114376 
C 328.374564 25.615802 327.698257 25.335667 326.993167 25.335667 
C 326.288077 25.335667 325.61177 25.615802 325.113196 26.114376 
C 324.614622 26.61295 324.334486 27.289257 324.334486 27.994347 
C 324.334486 28.699438 324.614622 29.375744 325.113196 29.874319 
C 325.61177 30.372893 326.288077 30.653028 326.993167 30.653028 
z
" style="fill-opacity:0.25098;stroke:#000000;stroke-opacity:0.25098;stroke-width:0.886227;"/>
    <path clip-path="url(#pfb0a2794e4)" d="M 356.105246 32.494559 
C 356.810336 32.494559 357.486643 32.214423 357.985217 31.715849 
C 358.483791 31.217275 358.763927 30.540968 358.763927 29.835878 
C 358.763927 29.130788 358.483791 28.454481 357.985217 27.955907 
C 357.486643 27.457333 356.810336 27.177197 356.105246 27.177197 
C 355.400156 27.177197 354.723849 27.457333 354.225275 27.955907 
C 353.726701 28.454481 353.446565 29.130788 353.446565 29.835878 
C 353.446565 30.540968 353.726701 31.217275 354.225275 31.715849 
C 354.723849 32.214423 355.400156 32.494559 356.105246 32.494559 
z
" style="fill-opacity:0.25098;stroke:#000000;stroke-opacity:0.25098;stroke-width:0.886227;"/>
   </g>
   <g id="patch_7">
    <path d="M 278.272813 21.5 
L 387.352813 21.5 
L 387.352813 7.2 
L 278.272813 7.2 
z
" style="fill:none;stroke:#000000;stroke-linejoin:miter;"/>
   </g>
   <g id="patch_8">
    <path d="M 278.272813 132.38 
L 278.272813 21.5 
" style="fill:none;stroke:#000000;stroke-linecap:square;stroke-linejoin:miter;"/>
   </g>
   <g id="patch_9">
    <path d="M 278.272813 132.38 
L 387.352813 132.38 
" style="fill:none;stroke:#000000;stroke-linecap:square;stroke-linejoin:miter;"/>
   </g>
   <g id="text_22">
    <!-- vaccine -->
    <g style="fill:#1a1a1a;" transform="translate(315.955313 16.77825)scale(0.088 -0.088)">
     <use xlink:href="#DejaVuSans-118"/>
     <use x="59.179688" xlink:href="#DejaVuSans-97"/>
     <use x="120.458984" xlink:href="#DejaVuSans-99"/>
     <use x="175.439453" xlink:href="#DejaVuSans-99"/>
     <use x="230.419922" xlink:href="#DejaVuSans-105"/>
     <use x="258.203125" xlink:href="#DejaVuSans-110"/>
     <use x="321.582031" xlink:href="#DejaVuSans-101"/>
    </g>
   </g>
  </g>
 </g>
 <defs>
  <clipPath id="p6dcd63974f">
   <rect height="110.88" width="109.08" x="164.152813" y="21.5"/>
  </clipPath>
  <clipPath id="pfb0a2794e4">
   <rect height="110.88" width="109.08" x="278.272813" y="21.5"/>
  </clipPath>
 </defs>
</svg>
