<?xml version="1.0" encoding="utf-8" standalone="no"?>
<!DOCTYPE svg PUBLIC "-//W3C//DTD SVG 1.1//EN"
  "http://www.w3.org/Graphics/SVG/1.1/DTD/svg11.dtd">
<!-- Created with matplotlib (https://matplotlib.org/) -->
<svg height="171.079875pt" version="1.1" viewBox="0 0 394.552813 171.079875" width="394.552813pt" xmlns="http://www.w3.org/2000/svg" xmlns:xlink="http://www.w3.org/1999/xlink">
 <defs>
  <style type="text/css">
*{stroke-linecap:butt;stroke-linejoin:round;}
  </style>
 </defs>
 <g id="figure_1">
  <g id="patch_1">
   <path d="M 0 171.079875 
L 394.552813 171.079875 
L 394.552813 0 
L 0 0 
z
" style="fill:#ffffff;stroke:#ffffff;stroke-linejoin:miter;"/>
  </g>
  <g id="axes_1">
   <g id="patch_2">
    <path d="M 164.152813 132.38 
L 273.232813 132.38 
L 273.232813 21.5 
L 164.152813 21.5 
z
" style="fill:#ffffff;"/>
   </g>
   <g id="matplotlib.axis_1">
    <g id="xtick_1">
     <g id="line2d_1">
      <path d="M 164.729662 132.38 
" style="fill:none;stroke:#333333;stroke-width:1.5;"/>
      <defs>
       <path d="M 0 0 
L 0 2.75 
" id="m8efe012a8c" style="stroke:#333333;"/>
      </defs>
      <g>
       <use style="fill:#333333;stroke:#333333;" x="164.729662" xlink:href="#m8efe012a8c" y="132.38"/>
      </g>
     </g>
     <g id="text_1">
      <!-- 6 -->
      <defs>
       <path d="M 33.015625 40.375 
Q 26.375 40.375 22.484375 35.828125 
Q 18.609375 31.296875 18.609375 23.390625 
Q 18.609375 15.53125 22.484375 10.953125 
Q 26.375 6.390625 33.015625 6.390625 
Q 39.65625 6.390625 43.53125 10.953125 
Q 47.40625 15.53125 47.40625 23.390625 
Q 47.40625 31.296875 43.53125 35.828125 
Q 39.65625 40.375 33.015625 40.375 
z
M 52.59375 71.296875 
L 52.59375 62.3125 
Q 48.875 64.0625 45.09375 64.984375 
Q 41.3125 65.921875 37.59375 65.921875 
Q 27.828125 65.921875 22.671875 59.328125 
Q 17.53125 52.734375 16.796875 39.40625 
Q 19.671875 43.65625 24.015625 45.921875 
Q 28.375 48.1875 33.59375 48.1875 
Q 44.578125 48.1875 50.953125 41.515625 
Q 57.328125 34.859375 57.328125 23.390625 
Q 57.328125 12.15625 50.6875 5.359375 
Q 44.046875 -1.421875 33.015625 -1.421875 
Q 20.359375 -1.421875 13.671875 8.265625 
Q 6.984375 17.96875 6.984375 36.375 
Q 6.984375 53.65625 15.1875 63.9375 
Q 23.390625 74.21875 37.203125 74.21875 
Q 40.921875 74.21875 44.703125 73.484375 
Q 48.484375 72.75 52.59375 71.296875 
z
" id="DejaVuSans-54"/>
      </defs>
      <g style="fill:#4d4d4d;" transform="translate(167.157912 142.929)rotate(-90)scale(0.088 -0.088)">
       <use xlink:href="#DejaVuSans-54"/>
      </g>
     </g>
    </g>
    <g id="xtick_2">
     <g id="line2d_2">
      <path d="M 188.192318 132.38 
" style="fill:none;stroke:#333333;stroke-width:1.5;"/>
      <g>
       <use style="fill:#333333;stroke:#333333;" x="188.192318" xlink:href="#m8efe012a8c" y="132.38"/>
      </g>
     </g>
     <g id="text_2">
      <!-- 7 -->
      <defs>
       <path d="M 8.203125 72.90625 
L 55.078125 72.90625 
L 55.078125 68.703125 
L 28.609375 0 
L 18.3125 0 
L 43.21875 64.59375 
L 8.203125 64.59375 
z
" id="DejaVuSans-55"/>
      </defs>
      <g style="fill:#4d4d4d;" transform="translate(190.620568 142.929)rotate(-90)scale(0.088 -0.088)">
       <use xlink:href="#DejaVuSans-55"/>
      </g>
     </g>
    </g>
    <g id="xtick_3">
     <g id="line2d_3">
      <path d="M 211.654973 132.38 
" style="fill:none;stroke:#333333;stroke-width:1.5;"/>
      <g>
       <use style="fill:#333333;stroke:#333333;" x="211.654973" xlink:href="#m8efe012a8c" y="132.38"/>
      </g>
     </g>
     <g id="text_3">
      <!-- 8 -->
      <defs>
       <path d="M 31.78125 34.625 
Q 24.75 34.625 20.71875 30.859375 
Q 16.703125 27.09375 16.703125 20.515625 
Q 16.703125 13.921875 20.71875 10.15625 
Q 24.75 6.390625 31.78125 6.390625 
Q 38.8125 6.390625 42.859375 10.171875 
Q 46.921875 13.96875 46.921875 20.515625 
Q 46.921875 27.09375 42.890625 30.859375 
Q 38.875 34.625 31.78125 34.625 
z
M 21.921875 38.8125 
Q 15.578125 40.375 12.03125 44.71875 
Q 8.5 49.078125 8.5 55.328125 
Q 8.5 64.0625 14.71875 69.140625 
Q 20.953125 74.21875 31.78125 74.21875 
Q 42.671875 74.21875 48.875 69.140625 
Q 55.078125 64.0625 55.078125 55.328125 
Q 55.078125 49.078125 51.53125 44.71875 
Q 48 40.375 41.703125 38.8125 
Q 48.828125 37.15625 52.796875 32.3125 
Q 56.78125 27.484375 56.78125 20.515625 
Q 56.78125 9.90625 50.3125 4.234375 
Q 43.84375 -1.421875 31.78125 -1.421875 
Q 19.734375 -1.421875 13.25 4.234375 
Q 6.78125 9.90625 6.78125 20.515625 
Q 6.78125 27.484375 10.78125 32.3125 
Q 14.796875 37.15625 21.921875 38.8125 
z
M 18.3125 54.390625 
Q 18.3125 48.734375 21.84375 45.5625 
Q 25.390625 42.390625 31.78125 42.390625 
Q 38.140625 42.390625 41.71875 45.5625 
Q 45.3125 48.734375 45.3125 54.390625 
Q 45.3125 60.0625 41.71875 63.234375 
Q 38.140625 66.40625 31.78125 66.40625 
Q 25.390625 66.40625 21.84375 63.234375 
Q 18.3125 60.0625 18.3125 54.390625 
z
" id="DejaVuSans-56"/>
      </defs>
      <g style="fill:#4d4d4d;" transform="translate(214.083223 142.929)rotate(-90)scale(0.088 -0.088)">
       <use xlink:href="#DejaVuSans-56"/>
      </g>
     </g>
    </g>
    <g id="xtick_4">
     <g id="line2d_4">
      <path d="M 235.117628 132.38 
" style="fill:none;stroke:#333333;stroke-width:1.5;"/>
      <g>
       <use style="fill:#333333;stroke:#333333;" x="235.117628" xlink:href="#m8efe012a8c" y="132.38"/>
      </g>
     </g>
     <g id="text_4">
      <!-- 9 -->
      <defs>
       <path d="M 10.984375 1.515625 
L 10.984375 10.5 
Q 14.703125 8.734375 18.5 7.8125 
Q 22.3125 6.890625 25.984375 6.890625 
Q 35.75 6.890625 40.890625 13.453125 
Q 46.046875 20.015625 46.78125 33.40625 
Q 43.953125 29.203125 39.59375 26.953125 
Q 35.25 24.703125 29.984375 24.703125 
Q 19.046875 24.703125 12.671875 31.3125 
Q 6.296875 37.9375 6.296875 49.421875 
Q 6.296875 60.640625 12.9375 67.421875 
Q 19.578125 74.21875 30.609375 74.21875 
Q 43.265625 74.21875 49.921875 64.515625 
Q 56.59375 54.828125 56.59375 36.375 
Q 56.59375 19.140625 48.40625 8.859375 
Q 40.234375 -1.421875 26.421875 -1.421875 
Q 22.703125 -1.421875 18.890625 -0.6875 
Q 15.09375 0.046875 10.984375 1.515625 
z
M 30.609375 32.421875 
Q 37.25 32.421875 41.125 36.953125 
Q 45.015625 41.5 45.015625 49.421875 
Q 45.015625 57.28125 41.125 61.84375 
Q 37.25 66.40625 30.609375 66.40625 
Q 23.96875 66.40625 20.09375 61.84375 
Q 16.21875 57.28125 16.21875 49.421875 
Q 16.21875 41.5 20.09375 36.953125 
Q 23.96875 32.421875 30.609375 32.421875 
z
" id="DejaVuSans-57"/>
      </defs>
      <g style="fill:#4d4d4d;" transform="translate(237.545878 142.929)rotate(-90)scale(0.088 -0.088)">
       <use xlink:href="#DejaVuSans-57"/>
      </g>
     </g>
    </g>
    <g id="xtick_5">
     <g id="line2d_5">
      <path d="M 258.580283 132.38 
" style="fill:none;stroke:#333333;stroke-width:1.5;"/>
      <g>
       <use style="fill:#333333;stroke:#333333;" x="258.580283" xlink:href="#m8efe012a8c" y="132.38"/>
      </g>
     </g>
     <g id="text_5">
      <!-- 10 -->
      <defs>
       <path d="M 12.40625 8.296875 
L 28.515625 8.296875 
L 28.515625 63.921875 
L 10.984375 60.40625 
L 10.984375 69.390625 
L 28.421875 72.90625 
L 38.28125 72.90625 
L 38.28125 8.296875 
L 54.390625 8.296875 
L 54.390625 0 
L 12.40625 0 
z
" id="DejaVuSans-49"/>
       <path d="M 31.78125 66.40625 
Q 24.171875 66.40625 20.328125 58.90625 
Q 16.5 51.421875 16.5 36.375 
Q 16.5 21.390625 20.328125 13.890625 
Q 24.171875 6.390625 31.78125 6.390625 
Q 39.453125 6.390625 43.28125 13.890625 
Q 47.125 21.390625 47.125 36.375 
Q 47.125 51.421875 43.28125 58.90625 
Q 39.453125 66.40625 31.78125 66.40625 
z
M 31.78125 74.21875 
Q 44.046875 74.21875 50.515625 64.515625 
Q 56.984375 54.828125 56.984375 36.375 
Q 56.984375 17.96875 50.515625 8.265625 
Q 44.046875 -1.421875 31.78125 -1.421875 
Q 19.53125 -1.421875 13.0625 8.265625 
Q 6.59375 17.96875 6.59375 36.375 
Q 6.59375 54.828125 13.0625 64.515625 
Q 19.53125 74.21875 31.78125 74.21875 
z
" id="DejaVuSans-48"/>
      </defs>
      <g style="fill:#4d4d4d;" transform="translate(261.008533 148.528)rotate(-90)scale(0.088 -0.088)">
       <use xlink:href="#DejaVuSans-49"/>
       <use x="63.623047" xlink:href="#DejaVuSans-48"/>
      </g>
     </g>
    </g>
    <g id="xtick_6"/>
    <g id="xtick_7"/>
    <g id="xtick_8"/>
    <g id="xtick_9"/>
    <g id="xtick_10"/>
   </g>
   <g id="matplotlib.axis_2">
    <g id="ytick_1">
     <g id="line2d_6">
      <path d="M 164.152813 124.266829 
" style="fill:none;stroke:#333333;stroke-width:1.5;"/>
      <defs>
       <path d="M 0 0 
L -2.75 0 
" id="m01085c109c" style="stroke:#333333;"/>
      </defs>
      <g>
       <use style="fill:#333333;stroke:#333333;" x="164.152813" xlink:href="#m01085c109c" y="124.266829"/>
      </g>
     </g>
     <g id="text_6">
      <!-- 456-484 -->
      <defs>
       <path d="M 37.796875 64.3125 
L 12.890625 25.390625 
L 37.796875 25.390625 
z
M 35.203125 72.90625 
L 47.609375 72.90625 
L 47.609375 25.390625 
L 58.015625 25.390625 
L 58.015625 17.1875 
L 47.609375 17.1875 
L 47.609375 0 
L 37.796875 0 
L 37.796875 17.1875 
L 4.890625 17.1875 
L 4.890625 26.703125 
z
" id="DejaVuSans-52"/>
       <path d="M 10.796875 72.90625 
L 49.515625 72.90625 
L 49.515625 64.59375 
L 19.828125 64.59375 
L 19.828125 46.734375 
Q 21.96875 47.46875 24.109375 47.828125 
Q 26.265625 48.1875 28.421875 48.1875 
Q 40.625 48.1875 47.75 41.5 
Q 54.890625 34.8125 54.890625 23.390625 
Q 54.890625 11.625 47.5625 5.09375 
Q 40.234375 -1.421875 26.90625 -1.421875 
Q 22.3125 -1.421875 17.546875 -0.640625 
Q 12.796875 0.140625 7.71875 1.703125 
L 7.71875 11.625 
Q 12.109375 9.234375 16.796875 8.0625 
Q 21.484375 6.890625 26.703125 6.890625 
Q 35.15625 6.890625 40.078125 11.328125 
Q 45.015625 15.765625 45.015625 23.390625 
Q 45.015625 31 40.078125 35.4375 
Q 35.15625 39.890625 26.703125 39.890625 
Q 22.75 39.890625 18.8125 39.015625 
Q 14.890625 38.140625 10.796875 36.28125 
z
" id="DejaVuSans-53"/>
       <path d="M 4.890625 31.390625 
L 31.203125 31.390625 
L 31.203125 23.390625 
L 4.890625 23.390625 
z
" id="DejaVuSans-45"/>
      </defs>
      <g style="fill:#4d4d4d;" transform="translate(122.433938 126.695079)scale(0.088 -0.088)">
       <use xlink:href="#DejaVuSans-52"/>
       <use x="63.623047" xlink:href="#DejaVuSans-53"/>
       <use x="127.246094" xlink:href="#DejaVuSans-54"/>
       <use x="190.869141" xlink:href="#DejaVuSans-45"/>
       <use x="226.953125" xlink:href="#DejaVuSans-52"/>
       <use x="290.576172" xlink:href="#DejaVuSans-56"/>
       <use x="354.199219" xlink:href="#DejaVuSans-52"/>
      </g>
     </g>
    </g>
    <g id="ytick_2">
     <g id="line2d_7">
      <path d="M 164.152813 110.744878 
" style="fill:none;stroke:#333333;stroke-width:1.5;"/>
      <g>
       <use style="fill:#333333;stroke:#333333;" x="164.152813" xlink:href="#m01085c109c" y="110.744878"/>
      </g>
     </g>
     <g id="text_7">
      <!-- 456-484 low magnitude -->
      <defs>
       <path id="DejaVuSans-32"/>
       <path d="M 9.421875 75.984375 
L 18.40625 75.984375 
L 18.40625 0 
L 9.421875 0 
z
" id="DejaVuSans-108"/>
       <path d="M 30.609375 48.390625 
Q 23.390625 48.390625 19.1875 42.75 
Q 14.984375 37.109375 14.984375 27.296875 
Q 14.984375 17.484375 19.15625 11.84375 
Q 23.34375 6.203125 30.609375 6.203125 
Q 37.796875 6.203125 41.984375 11.859375 
Q 46.1875 17.53125 46.1875 27.296875 
Q 46.1875 37.015625 41.984375 42.703125 
Q 37.796875 48.390625 30.609375 48.390625 
z
M 30.609375 56 
Q 42.328125 56 49.015625 48.375 
Q 55.71875 40.765625 55.71875 27.296875 
Q 55.71875 13.875 49.015625 6.21875 
Q 42.328125 -1.421875 30.609375 -1.421875 
Q 18.84375 -1.421875 12.171875 6.21875 
Q 5.515625 13.875 5.515625 27.296875 
Q 5.515625 40.765625 12.171875 48.375 
Q 18.84375 56 30.609375 56 
z
" id="DejaVuSans-111"/>
       <path d="M 4.203125 54.6875 
L 13.1875 54.6875 
L 24.421875 12.015625 
L 35.59375 54.6875 
L 46.1875 54.6875 
L 57.421875 12.015625 
L 68.609375 54.6875 
L 77.59375 54.6875 
L 63.28125 0 
L 52.6875 0 
L 40.921875 44.828125 
L 29.109375 0 
L 18.5 0 
z
" id="DejaVuSans-119"/>
       <path d="M 52 44.1875 
Q 55.375 50.25 60.0625 53.125 
Q 64.75 56 71.09375 56 
Q 79.640625 56 84.28125 50.015625 
Q 88.921875 44.046875 88.921875 33.015625 
L 88.921875 0 
L 79.890625 0 
L 79.890625 32.71875 
Q 79.890625 40.578125 77.09375 44.375 
Q 74.3125 48.1875 68.609375 48.1875 
Q 61.625 48.1875 57.5625 43.546875 
Q 53.515625 38.921875 53.515625 30.90625 
L 53.515625 0 
L 44.484375 0 
L 44.484375 32.71875 
Q 44.484375 40.625 41.703125 44.40625 
Q 38.921875 48.1875 33.109375 48.1875 
Q 26.21875 48.1875 22.15625 43.53125 
Q 18.109375 38.875 18.109375 30.90625 
L 18.109375 0 
L 9.078125 0 
L 9.078125 54.6875 
L 18.109375 54.6875 
L 18.109375 46.1875 
Q 21.1875 51.21875 25.484375 53.609375 
Q 29.78125 56 35.6875 56 
Q 41.65625 56 45.828125 52.96875 
Q 50 49.953125 52 44.1875 
z
" id="DejaVuSans-109"/>
       <path d="M 34.28125 27.484375 
Q 23.390625 27.484375 19.1875 25 
Q 14.984375 22.515625 14.984375 16.5 
Q 14.984375 11.71875 18.140625 8.90625 
Q 21.296875 6.109375 26.703125 6.109375 
Q 34.1875 6.109375 38.703125 11.40625 
Q 43.21875 16.703125 43.21875 25.484375 
L 43.21875 27.484375 
z
M 52.203125 31.203125 
L 52.203125 0 
L 43.21875 0 
L 43.21875 8.296875 
Q 40.140625 3.328125 35.546875 0.953125 
Q 30.953125 -1.421875 24.3125 -1.421875 
Q 15.921875 -1.421875 10.953125 3.296875 
Q 6 8.015625 6 15.921875 
Q 6 25.140625 12.171875 29.828125 
Q 18.359375 34.515625 30.609375 34.515625 
L 43.21875 34.515625 
L 43.21875 35.40625 
Q 43.21875 41.609375 39.140625 45 
Q 35.0625 48.390625 27.6875 48.390625 
Q 23 48.390625 18.546875 47.265625 
Q 14.109375 46.140625 10.015625 43.890625 
L 10.015625 52.203125 
Q 14.9375 54.109375 19.578125 55.046875 
Q 24.21875 56 28.609375 56 
Q 40.484375 56 46.34375 49.84375 
Q 52.203125 43.703125 52.203125 31.203125 
z
" id="DejaVuSans-97"/>
       <path d="M 45.40625 27.984375 
Q 45.40625 37.75 41.375 43.109375 
Q 37.359375 48.484375 30.078125 48.484375 
Q 22.859375 48.484375 18.828125 43.109375 
Q 14.796875 37.75 14.796875 27.984375 
Q 14.796875 18.265625 18.828125 12.890625 
Q 22.859375 7.515625 30.078125 7.515625 
Q 37.359375 7.515625 41.375 12.890625 
Q 45.40625 18.265625 45.40625 27.984375 
z
M 54.390625 6.78125 
Q 54.390625 -7.171875 48.1875 -13.984375 
Q 42 -20.796875 29.203125 -20.796875 
Q 24.46875 -20.796875 20.265625 -20.09375 
Q 16.0625 -19.390625 12.109375 -17.921875 
L 12.109375 -9.1875 
Q 16.0625 -11.328125 19.921875 -12.34375 
Q 23.78125 -13.375 27.78125 -13.375 
Q 36.625 -13.375 41.015625 -8.765625 
Q 45.40625 -4.15625 45.40625 5.171875 
L 45.40625 9.625 
Q 42.625 4.78125 38.28125 2.390625 
Q 33.9375 0 27.875 0 
Q 17.828125 0 11.671875 7.65625 
Q 5.515625 15.328125 5.515625 27.984375 
Q 5.515625 40.671875 11.671875 48.328125 
Q 17.828125 56 27.875 56 
Q 33.9375 56 38.28125 53.609375 
Q 42.625 51.21875 45.40625 46.390625 
L 45.40625 54.6875 
L 54.390625 54.6875 
z
" id="DejaVuSans-103"/>
       <path d="M 54.890625 33.015625 
L 54.890625 0 
L 45.90625 0 
L 45.90625 32.71875 
Q 45.90625 40.484375 42.875 44.328125 
Q 39.84375 48.1875 33.796875 48.1875 
Q 26.515625 48.1875 22.3125 43.546875 
Q 18.109375 38.921875 18.109375 30.90625 
L 18.109375 0 
L 9.078125 0 
L 9.078125 54.6875 
L 18.109375 54.6875 
L 18.109375 46.1875 
Q 21.34375 51.125 25.703125 53.5625 
Q 30.078125 56 35.796875 56 
Q 45.21875 56 50.046875 50.171875 
Q 54.890625 44.34375 54.890625 33.015625 
z
" id="DejaVuSans-110"/>
       <path d="M 9.421875 54.6875 
L 18.40625 54.6875 
L 18.40625 0 
L 9.421875 0 
z
M 9.421875 75.984375 
L 18.40625 75.984375 
L 18.40625 64.59375 
L 9.421875 64.59375 
z
" id="DejaVuSans-105"/>
       <path d="M 18.3125 70.21875 
L 18.3125 54.6875 
L 36.8125 54.6875 
L 36.8125 47.703125 
L 18.3125 47.703125 
L 18.3125 18.015625 
Q 18.3125 11.328125 20.140625 9.421875 
Q 21.96875 7.515625 27.59375 7.515625 
L 36.8125 7.515625 
L 36.8125 0 
L 27.59375 0 
Q 17.1875 0 13.234375 3.875 
Q 9.28125 7.765625 9.28125 18.015625 
L 9.28125 47.703125 
L 2.6875 47.703125 
L 2.6875 54.6875 
L 9.28125 54.6875 
L 9.28125 70.21875 
z
" id="DejaVuSans-116"/>
       <path d="M 8.5 21.578125 
L 8.5 54.6875 
L 17.484375 54.6875 
L 17.484375 21.921875 
Q 17.484375 14.15625 20.5 10.265625 
Q 23.53125 6.390625 29.59375 6.390625 
Q 36.859375 6.390625 41.078125 11.03125 
Q 45.3125 15.671875 45.3125 23.6875 
L 45.3125 54.6875 
L 54.296875 54.6875 
L 54.296875 0 
L 45.3125 0 
L 45.3125 8.40625 
Q 42.046875 3.421875 37.71875 1 
Q 33.40625 -1.421875 27.6875 -1.421875 
Q 18.265625 -1.421875 13.375 4.4375 
Q 8.5 10.296875 8.5 21.578125 
z
M 31.109375 56 
z
" id="DejaVuSans-117"/>
       <path d="M 45.40625 46.390625 
L 45.40625 75.984375 
L 54.390625 75.984375 
L 54.390625 0 
L 45.40625 0 
L 45.40625 8.203125 
Q 42.578125 3.328125 38.25 0.953125 
Q 33.9375 -1.421875 27.875 -1.421875 
Q 17.96875 -1.421875 11.734375 6.484375 
Q 5.515625 14.40625 5.515625 27.296875 
Q 5.515625 40.1875 11.734375 48.09375 
Q 17.96875 56 27.875 56 
Q 33.9375 56 38.25 53.625 
Q 42.578125 51.265625 45.40625 46.390625 
z
M 14.796875 27.296875 
Q 14.796875 17.390625 18.875 11.75 
Q 22.953125 6.109375 30.078125 6.109375 
Q 37.203125 6.109375 41.296875 11.75 
Q 45.40625 17.390625 45.40625 27.296875 
Q 45.40625 37.203125 41.296875 42.84375 
Q 37.203125 48.484375 30.078125 48.484375 
Q 22.953125 48.484375 18.875 42.84375 
Q 14.796875 37.203125 14.796875 27.296875 
z
" id="DejaVuSans-100"/>
       <path d="M 56.203125 29.59375 
L 56.203125 25.203125 
L 14.890625 25.203125 
Q 15.484375 15.921875 20.484375 11.0625 
Q 25.484375 6.203125 34.421875 6.203125 
Q 39.59375 6.203125 44.453125 7.46875 
Q 49.3125 8.734375 54.109375 11.28125 
L 54.109375 2.78125 
Q 49.265625 0.734375 44.1875 -0.34375 
Q 39.109375 -1.421875 33.890625 -1.421875 
Q 20.796875 -1.421875 13.15625 6.1875 
Q 5.515625 13.8125 5.515625 26.8125 
Q 5.515625 40.234375 12.765625 48.109375 
Q 20.015625 56 32.328125 56 
Q 43.359375 56 49.78125 48.890625 
Q 56.203125 41.796875 56.203125 29.59375 
z
M 47.21875 32.234375 
Q 47.125 39.59375 43.09375 43.984375 
Q 39.0625 48.390625 32.421875 48.390625 
Q 24.90625 48.390625 20.390625 44.140625 
Q 15.875 39.890625 15.1875 32.171875 
z
" id="DejaVuSans-101"/>
      </defs>
      <g style="fill:#4d4d4d;" transform="translate(54.213313 113.173128)scale(0.088 -0.088)">
       <use xlink:href="#DejaVuSans-52"/>
       <use x="63.623047" xlink:href="#DejaVuSans-53"/>
       <use x="127.246094" xlink:href="#DejaVuSans-54"/>
       <use x="190.869141" xlink:href="#DejaVuSans-45"/>
       <use x="226.953125" xlink:href="#DejaVuSans-52"/>
       <use x="290.576172" xlink:href="#DejaVuSans-56"/>
       <use x="354.199219" xlink:href="#DejaVuSans-52"/>
       <use x="417.822266" xlink:href="#DejaVuSans-32"/>
       <use x="449.609375" xlink:href="#DejaVuSans-108"/>
       <use x="477.392578" xlink:href="#DejaVuSans-111"/>
       <use x="538.574219" xlink:href="#DejaVuSans-119"/>
       <use x="620.361328" xlink:href="#DejaVuSans-32"/>
       <use x="652.148438" xlink:href="#DejaVuSans-109"/>
       <use x="749.560547" xlink:href="#DejaVuSans-97"/>
       <use x="810.839844" xlink:href="#DejaVuSans-103"/>
       <use x="874.316406" xlink:href="#DejaVuSans-110"/>
       <use x="937.695312" xlink:href="#DejaVuSans-105"/>
       <use x="965.478516" xlink:href="#DejaVuSans-116"/>
       <use x="1004.6875" xlink:href="#DejaVuSans-117"/>
       <use x="1068.066406" xlink:href="#DejaVuSans-100"/>
       <use x="1131.542969" xlink:href="#DejaVuSans-101"/>
      </g>
     </g>
    </g>
    <g id="ytick_3">
     <g id="line2d_8">
      <path d="M 164.152813 97.222927 
" style="fill:none;stroke:#333333;stroke-width:1.5;"/>
      <g>
       <use style="fill:#333333;stroke:#333333;" x="164.152813" xlink:href="#m01085c109c" y="97.222927"/>
      </g>
     </g>
     <g id="text_8">
      <!-- 456-484 noisy -->
      <defs>
       <path d="M 44.28125 53.078125 
L 44.28125 44.578125 
Q 40.484375 46.53125 36.375 47.5 
Q 32.28125 48.484375 27.875 48.484375 
Q 21.1875 48.484375 17.84375 46.4375 
Q 14.5 44.390625 14.5 40.28125 
Q 14.5 37.15625 16.890625 35.375 
Q 19.28125 33.59375 26.515625 31.984375 
L 29.59375 31.296875 
Q 39.15625 29.25 43.1875 25.515625 
Q 47.21875 21.78125 47.21875 15.09375 
Q 47.21875 7.46875 41.1875 3.015625 
Q 35.15625 -1.421875 24.609375 -1.421875 
Q 20.21875 -1.421875 15.453125 -0.5625 
Q 10.6875 0.296875 5.421875 2 
L 5.421875 11.28125 
Q 10.40625 8.6875 15.234375 7.390625 
Q 20.0625 6.109375 24.8125 6.109375 
Q 31.15625 6.109375 34.5625 8.28125 
Q 37.984375 10.453125 37.984375 14.40625 
Q 37.984375 18.0625 35.515625 20.015625 
Q 33.0625 21.96875 24.703125 23.78125 
L 21.578125 24.515625 
Q 13.234375 26.265625 9.515625 29.90625 
Q 5.8125 33.546875 5.8125 39.890625 
Q 5.8125 47.609375 11.28125 51.796875 
Q 16.75 56 26.8125 56 
Q 31.78125 56 36.171875 55.265625 
Q 40.578125 54.546875 44.28125 53.078125 
z
" id="DejaVuSans-115"/>
       <path d="M 32.171875 -5.078125 
Q 28.375 -14.84375 24.75 -17.8125 
Q 21.140625 -20.796875 15.09375 -20.796875 
L 7.90625 -20.796875 
L 7.90625 -13.28125 
L 13.1875 -13.28125 
Q 16.890625 -13.28125 18.9375 -11.515625 
Q 21 -9.765625 23.484375 -3.21875 
L 25.09375 0.875 
L 2.984375 54.6875 
L 12.5 54.6875 
L 29.59375 11.921875 
L 46.6875 54.6875 
L 56.203125 54.6875 
z
" id="DejaVuSans-121"/>
      </defs>
      <g style="fill:#4d4d4d;" transform="translate(96.438188 99.651177)scale(0.088 -0.088)">
       <use xlink:href="#DejaVuSans-52"/>
       <use x="63.623047" xlink:href="#DejaVuSans-53"/>
       <use x="127.246094" xlink:href="#DejaVuSans-54"/>
       <use x="190.869141" xlink:href="#DejaVuSans-45"/>
       <use x="226.953125" xlink:href="#DejaVuSans-52"/>
       <use x="290.576172" xlink:href="#DejaVuSans-56"/>
       <use x="354.199219" xlink:href="#DejaVuSans-52"/>
       <use x="417.822266" xlink:href="#DejaVuSans-32"/>
       <use x="449.609375" xlink:href="#DejaVuSans-110"/>
       <use x="512.988281" xlink:href="#DejaVuSans-111"/>
       <use x="574.169922" xlink:href="#DejaVuSans-105"/>
       <use x="601.953125" xlink:href="#DejaVuSans-115"/>
       <use x="654.052734" xlink:href="#DejaVuSans-121"/>
      </g>
     </g>
    </g>
    <g id="ytick_4">
     <g id="line2d_9">
      <path d="M 164.152813 83.700976 
" style="fill:none;stroke:#333333;stroke-width:1.5;"/>
      <g>
       <use style="fill:#333333;stroke:#333333;" x="164.152813" xlink:href="#m01085c109c" y="83.700976"/>
      </g>
     </g>
     <g id="text_9">
      <!-- 456-484 low magnitude - noisy -->
      <g style="fill:#4d4d4d;" transform="translate(22.245938 86.129226)scale(0.088 -0.088)">
       <use xlink:href="#DejaVuSans-52"/>
       <use x="63.623047" xlink:href="#DejaVuSans-53"/>
       <use x="127.246094" xlink:href="#DejaVuSans-54"/>
       <use x="190.869141" xlink:href="#DejaVuSans-45"/>
       <use x="226.953125" xlink:href="#DejaVuSans-52"/>
       <use x="290.576172" xlink:href="#DejaVuSans-56"/>
       <use x="354.199219" xlink:href="#DejaVuSans-52"/>
       <use x="417.822266" xlink:href="#DejaVuSans-32"/>
       <use x="449.609375" xlink:href="#DejaVuSans-108"/>
       <use x="477.392578" xlink:href="#DejaVuSans-111"/>
       <use x="538.574219" xlink:href="#DejaVuSans-119"/>
       <use x="620.361328" xlink:href="#DejaVuSans-32"/>
       <use x="652.148438" xlink:href="#DejaVuSans-109"/>
       <use x="749.560547" xlink:href="#DejaVuSans-97"/>
       <use x="810.839844" xlink:href="#DejaVuSans-103"/>
       <use x="874.316406" xlink:href="#DejaVuSans-110"/>
       <use x="937.695312" xlink:href="#DejaVuSans-105"/>
       <use x="965.478516" xlink:href="#DejaVuSans-116"/>
       <use x="1004.6875" xlink:href="#DejaVuSans-117"/>
       <use x="1068.066406" xlink:href="#DejaVuSans-100"/>
       <use x="1131.542969" xlink:href="#DejaVuSans-101"/>
       <use x="1193.066406" xlink:href="#DejaVuSans-32"/>
       <use x="1224.853516" xlink:href="#DejaVuSans-45"/>
       <use x="1260.9375" xlink:href="#DejaVuSans-32"/>
       <use x="1292.724609" xlink:href="#DejaVuSans-110"/>
       <use x="1356.103516" xlink:href="#DejaVuSans-111"/>
       <use x="1417.285156" xlink:href="#DejaVuSans-105"/>
       <use x="1445.068359" xlink:href="#DejaVuSans-115"/>
       <use x="1497.167969" xlink:href="#DejaVuSans-121"/>
      </g>
     </g>
    </g>
    <g id="ytick_5">
     <g id="line2d_10">
      <path d="M 164.152813 70.179024 
" style="fill:none;stroke:#333333;stroke-width:1.5;"/>
      <g>
       <use style="fill:#333333;stroke:#333333;" x="164.152813" xlink:href="#m01085c109c" y="70.179024"/>
      </g>
     </g>
     <g id="text_10">
      <!-- 443-450 -->
      <defs>
       <path d="M 40.578125 39.3125 
Q 47.65625 37.796875 51.625 33 
Q 55.609375 28.21875 55.609375 21.1875 
Q 55.609375 10.40625 48.1875 4.484375 
Q 40.765625 -1.421875 27.09375 -1.421875 
Q 22.515625 -1.421875 17.65625 -0.515625 
Q 12.796875 0.390625 7.625 2.203125 
L 7.625 11.71875 
Q 11.71875 9.328125 16.59375 8.109375 
Q 21.484375 6.890625 26.8125 6.890625 
Q 36.078125 6.890625 40.9375 10.546875 
Q 45.796875 14.203125 45.796875 21.1875 
Q 45.796875 27.640625 41.28125 31.265625 
Q 36.765625 34.90625 28.71875 34.90625 
L 20.21875 34.90625 
L 20.21875 43.015625 
L 29.109375 43.015625 
Q 36.375 43.015625 40.234375 45.921875 
Q 44.09375 48.828125 44.09375 54.296875 
Q 44.09375 59.90625 40.109375 62.90625 
Q 36.140625 65.921875 28.71875 65.921875 
Q 24.65625 65.921875 20.015625 65.03125 
Q 15.375 64.15625 9.8125 62.3125 
L 9.8125 71.09375 
Q 15.4375 72.65625 20.34375 73.4375 
Q 25.25 74.21875 29.59375 74.21875 
Q 40.828125 74.21875 47.359375 69.109375 
Q 53.90625 64.015625 53.90625 55.328125 
Q 53.90625 49.265625 50.4375 45.09375 
Q 46.96875 40.921875 40.578125 39.3125 
z
" id="DejaVuSans-51"/>
      </defs>
      <g style="fill:#4d4d4d;" transform="translate(122.433938 72.607274)scale(0.088 -0.088)">
       <use xlink:href="#DejaVuSans-52"/>
       <use x="63.623047" xlink:href="#DejaVuSans-52"/>
       <use x="127.246094" xlink:href="#DejaVuSans-51"/>
       <use x="190.869141" xlink:href="#DejaVuSans-45"/>
       <use x="226.953125" xlink:href="#DejaVuSans-52"/>
       <use x="290.576172" xlink:href="#DejaVuSans-53"/>
       <use x="354.199219" xlink:href="#DejaVuSans-48"/>
      </g>
     </g>
    </g>
    <g id="ytick_6">
     <g id="line2d_11">
      <path d="M 164.152813 56.657073 
" style="fill:none;stroke:#333333;stroke-width:1.5;"/>
      <g>
       <use style="fill:#333333;stroke:#333333;" x="164.152813" xlink:href="#m01085c109c" y="56.657073"/>
      </g>
     </g>
     <g id="text_11">
      <!-- core -->
      <defs>
       <path d="M 48.78125 52.59375 
L 48.78125 44.1875 
Q 44.96875 46.296875 41.140625 47.34375 
Q 37.3125 48.390625 33.40625 48.390625 
Q 24.65625 48.390625 19.8125 42.84375 
Q 14.984375 37.3125 14.984375 27.296875 
Q 14.984375 17.28125 19.8125 11.734375 
Q 24.65625 6.203125 33.40625 6.203125 
Q 37.3125 6.203125 41.140625 7.25 
Q 44.96875 8.296875 48.78125 10.40625 
L 48.78125 2.09375 
Q 45.015625 0.34375 40.984375 -0.53125 
Q 36.96875 -1.421875 32.421875 -1.421875 
Q 20.0625 -1.421875 12.78125 6.34375 
Q 5.515625 14.109375 5.515625 27.296875 
Q 5.515625 40.671875 12.859375 48.328125 
Q 20.21875 56 33.015625 56 
Q 37.15625 56 41.109375 55.140625 
Q 45.0625 54.296875 48.78125 52.59375 
z
" id="DejaVuSans-99"/>
       <path d="M 41.109375 46.296875 
Q 39.59375 47.171875 37.8125 47.578125 
Q 36.03125 48 33.890625 48 
Q 26.265625 48 22.1875 43.046875 
Q 18.109375 38.09375 18.109375 28.8125 
L 18.109375 0 
L 9.078125 0 
L 9.078125 54.6875 
L 18.109375 54.6875 
L 18.109375 46.1875 
Q 20.953125 51.171875 25.484375 53.578125 
Q 30.03125 56 36.53125 56 
Q 37.453125 56 38.578125 55.875 
Q 39.703125 55.765625 41.0625 55.515625 
z
" id="DejaVuSans-114"/>
      </defs>
      <g style="fill:#4d4d4d;" transform="translate(140.145313 59.085323)scale(0.088 -0.088)">
       <use xlink:href="#DejaVuSans-99"/>
       <use x="54.980469" xlink:href="#DejaVuSans-111"/>
       <use x="116.162109" xlink:href="#DejaVuSans-114"/>
       <use x="155.025391" xlink:href="#DejaVuSans-101"/>
      </g>
     </g>
    </g>
    <g id="ytick_7">
     <g id="line2d_12">
      <path d="M 164.152813 43.135122 
" style="fill:none;stroke:#333333;stroke-width:1.5;"/>
      <g>
       <use style="fill:#333333;stroke:#333333;" x="164.152813" xlink:href="#m01085c109c" y="43.135122"/>
      </g>
     </g>
     <g id="text_12">
      <!-- flat - noisy -->
      <defs>
       <path d="M 37.109375 75.984375 
L 37.109375 68.5 
L 28.515625 68.5 
Q 23.6875 68.5 21.796875 66.546875 
Q 19.921875 64.59375 19.921875 59.515625 
L 19.921875 54.6875 
L 34.71875 54.6875 
L 34.71875 47.703125 
L 19.921875 47.703125 
L 19.921875 0 
L 10.890625 0 
L 10.890625 47.703125 
L 2.296875 47.703125 
L 2.296875 54.6875 
L 10.890625 54.6875 
L 10.890625 58.5 
Q 10.890625 67.625 15.140625 71.796875 
Q 19.390625 75.984375 28.609375 75.984375 
z
" id="DejaVuSans-102"/>
      </defs>
      <g style="fill:#4d4d4d;" transform="translate(112.850188 45.563372)scale(0.088 -0.088)">
       <use xlink:href="#DejaVuSans-102"/>
       <use x="35.205078" xlink:href="#DejaVuSans-108"/>
       <use x="62.988281" xlink:href="#DejaVuSans-97"/>
       <use x="124.267578" xlink:href="#DejaVuSans-116"/>
       <use x="163.476562" xlink:href="#DejaVuSans-32"/>
       <use x="195.263672" xlink:href="#DejaVuSans-45"/>
       <use x="231.347656" xlink:href="#DejaVuSans-32"/>
       <use x="263.134766" xlink:href="#DejaVuSans-110"/>
       <use x="326.513672" xlink:href="#DejaVuSans-111"/>
       <use x="387.695312" xlink:href="#DejaVuSans-105"/>
       <use x="415.478516" xlink:href="#DejaVuSans-115"/>
       <use x="467.578125" xlink:href="#DejaVuSans-121"/>
      </g>
     </g>
    </g>
    <g id="ytick_8">
     <g id="line2d_13">
      <path d="M 164.152813 29.613171 
" style="fill:none;stroke:#333333;stroke-width:1.5;"/>
      <g>
       <use style="fill:#333333;stroke:#333333;" x="164.152813" xlink:href="#m01085c109c" y="29.613171"/>
      </g>
     </g>
     <g id="text_13">
      <!-- flat -->
      <g style="fill:#4d4d4d;" transform="translate(144.817563 32.041421)scale(0.088 -0.088)">
       <use xlink:href="#DejaVuSans-102"/>
       <use x="35.205078" xlink:href="#DejaVuSans-108"/>
       <use x="62.988281" xlink:href="#DejaVuSans-97"/>
       <use x="124.267578" xlink:href="#DejaVuSans-116"/>
      </g>
     </g>
    </g>
    <g id="text_14">
     <!-- escape map -->
     <defs>
      <path d="M 18.109375 8.203125 
L 18.109375 -20.796875 
L 9.078125 -20.796875 
L 9.078125 54.6875 
L 18.109375 54.6875 
L 18.109375 46.390625 
Q 20.953125 51.265625 25.265625 53.625 
Q 29.59375 56 35.59375 56 
Q 45.5625 56 51.78125 48.09375 
Q 58.015625 40.1875 58.015625 27.296875 
Q 58.015625 14.40625 51.78125 6.484375 
Q 45.5625 -1.421875 35.59375 -1.421875 
Q 29.59375 -1.421875 25.265625 0.953125 
Q 20.953125 3.328125 18.109375 8.203125 
z
M 48.6875 27.296875 
Q 48.6875 37.203125 44.609375 42.84375 
Q 40.53125 48.484375 33.40625 48.484375 
Q 26.265625 48.484375 22.1875 42.84375 
Q 18.109375 37.203125 18.109375 27.296875 
Q 18.109375 17.390625 22.1875 11.75 
Q 26.265625 6.109375 33.40625 6.109375 
Q 40.53125 6.109375 44.609375 11.75 
Q 48.6875 17.390625 48.6875 27.296875 
z
" id="DejaVuSans-112"/>
     </defs>
     <g transform="translate(15.558281 109.707266)rotate(-90)scale(0.11 -0.11)">
      <use xlink:href="#DejaVuSans-101"/>
      <use x="61.523438" xlink:href="#DejaVuSans-115"/>
      <use x="113.623047" xlink:href="#DejaVuSans-99"/>
      <use x="168.603516" xlink:href="#DejaVuSans-97"/>
      <use x="229.882812" xlink:href="#DejaVuSans-112"/>
      <use x="293.359375" xlink:href="#DejaVuSans-101"/>
      <use x="354.882812" xlink:href="#DejaVuSans-32"/>
      <use x="386.669922" xlink:href="#DejaVuSans-109"/>
      <use x="484.082031" xlink:href="#DejaVuSans-97"/>
      <use x="545.361328" xlink:href="#DejaVuSans-112"/>
     </g>
    </g>
   </g>
   <g id="PathCollection_1">
    <path clip-path="url(#p22d8a0cbe3)" d="M 268.274631 125.360483 
C 268.979721 125.360483 269.656028 125.080348 270.154602 124.581774 
C 270.653176 124.083199 270.933311 123.406893 270.933311 122.701802 
C 270.933311 121.996712 270.653176 121.320405 270.154602 120.821831 
C 269.656028 120.323257 268.979721 120.043122 268.274631 120.043122 
C 267.56954 120.043122 266.893234 120.323257 266.394659 120.821831 
C 265.896085 121.320405 265.61595 121.996712 265.61595 122.701802 
C 265.61595 123.406893 265.896085 124.083199 266.394659 124.581774 
C 266.893234 125.080348 267.56954 125.360483 268.274631 125.360483 
z
" style="fill-opacity:0.25098;stroke:#000000;stroke-opacity:0.25098;stroke-width:0.886227;"/>
    <path clip-path="url(#p22d8a0cbe3)" d="M 262.187855 127.200095 
C 262.892945 127.200095 263.569252 126.91996 264.067826 126.421385 
C 264.5664 125.922811 264.846536 125.246505 264.846536 124.541414 
C 264.846536 123.836324 264.5664 123.160017 264.067826 122.661443 
C 263.569252 122.162869 262.892945 121.882733 262.187855 121.882733 
C 261.482764 121.882733 260.806458 122.162869 260.307884 122.661443 
C 259.809309 123.160017 259.529174 123.836324 259.529174 124.541414 
C 259.529174 125.246505 259.809309 125.922811 260.307884 126.421385 
C 260.806458 126.91996 261.482764 127.200095 262.187855 127.200095 
z
" style="fill-opacity:0.25098;stroke:#000000;stroke-opacity:0.25098;stroke-width:0.886227;"/>
    <path clip-path="url(#p22d8a0cbe3)" d="M 231.152268 86.370685 
C 231.857359 86.370685 232.533665 86.09055 233.032239 85.591976 
C 233.530814 85.093402 233.810949 84.417095 233.810949 83.712005 
C 233.810949 83.006914 233.530814 82.330608 233.032239 81.832033 
C 232.533665 81.333459 231.857359 81.053324 231.152268 81.053324 
C 230.447178 81.053324 229.770871 81.333459 229.272297 81.832033 
C 228.773723 82.330608 228.493587 83.006914 228.493587 83.712005 
C 228.493587 84.417095 228.773723 85.093402 229.272297 85.591976 
C 229.770871 86.09055 230.447178 86.370685 231.152268 86.370685 
z
" style="fill-opacity:0.25098;stroke:#000000;stroke-opacity:0.25098;stroke-width:0.886227;"/>
    <path clip-path="url(#p22d8a0cbe3)" d="M 206.077005 128.853649 
C 206.782096 128.853649 207.458402 128.573513 207.956977 128.074939 
C 208.455551 127.576365 208.735686 126.900058 208.735686 126.194968 
C 208.735686 125.489878 208.455551 124.813571 207.956977 124.314997 
C 207.458402 123.816423 206.782096 123.536287 206.077005 123.536287 
C 205.371915 123.536287 204.695608 123.816423 204.197034 124.314997 
C 203.69846 124.813571 203.418325 125.489878 203.418325 126.194968 
C 203.418325 126.900058 203.69846 127.576365 204.197034 128.074939 
C 204.695608 128.573513 205.371915 128.853649 206.077005 128.853649 
z
" style="fill-opacity:0.25098;stroke:#000000;stroke-opacity:0.25098;stroke-width:0.886227;"/>
    <path clip-path="url(#p22d8a0cbe3)" d="M 201.369047 99.828097 
C 202.074138 99.828097 202.750444 99.547961 203.249019 99.049387 
C 203.747593 98.550813 204.027728 97.874506 204.027728 97.169416 
C 204.027728 96.464325 203.747593 95.788019 203.249019 95.289445 
C 202.750444 94.79087 202.074138 94.510735 201.369047 94.510735 
C 200.663957 94.510735 199.98765 94.79087 199.489076 95.289445 
C 198.990502 95.788019 198.710367 96.464325 198.710367 97.169416 
C 198.710367 97.874506 198.990502 98.550813 199.489076 99.049387 
C 199.98765 99.547961 200.663957 99.828097 201.369047 99.828097 
z
" style="fill-opacity:0.25098;stroke:#000000;stroke-opacity:0.25098;stroke-width:0.886227;"/>
    <path clip-path="url(#p22d8a0cbe3)" d="M 201.290127 127.625927 
C 201.995217 127.625927 202.671524 127.345792 203.170098 126.847217 
C 203.668672 126.348643 203.948808 125.672337 203.948808 124.967246 
C 203.948808 124.262156 203.668672 123.585849 203.170098 123.087275 
C 202.671524 122.588701 201.995217 122.308565 201.290127 122.308565 
C 200.585036 122.308565 199.90873 122.588701 199.410156 123.087275 
C 198.911581 123.585849 198.631446 124.262156 198.631446 124.967246 
C 198.631446 125.672337 198.911581 126.348643 199.410156 126.847217 
C 199.90873 127.345792 200.585036 127.625927 201.290127 127.625927 
z
" style="fill-opacity:0.25098;stroke:#000000;stroke-opacity:0.25098;stroke-width:0.886227;"/>
    <path clip-path="url(#p22d8a0cbe3)" d="M 201.03223 125.826243 
C 201.737321 125.826243 202.413627 125.546107 202.912201 125.047533 
C 203.410776 124.548959 203.690911 123.872652 203.690911 123.167562 
C 203.690911 122.462471 203.410776 121.786165 202.912201 121.287591 
C 202.413627 120.789016 201.737321 120.508881 201.03223 120.508881 
C 200.32714 120.508881 199.650833 120.789016 199.152259 121.287591 
C 198.653685 121.786165 198.373549 122.462471 198.373549 123.167562 
C 198.373549 123.872652 198.653685 124.548959 199.152259 125.047533 
C 199.650833 125.546107 200.32714 125.826243 201.03223 125.826243 
z
" style="fill-opacity:0.25098;stroke:#000000;stroke-opacity:0.25098;stroke-width:0.886227;"/>
    <path clip-path="url(#p22d8a0cbe3)" d="M 236.700858 125.69545 
C 237.405949 125.69545 238.082255 125.415315 238.580829 124.916741 
C 239.079404 124.418167 239.359539 123.74186 239.359539 123.03677 
C 239.359539 122.331679 239.079404 121.655373 238.580829 121.156798 
C 238.082255 120.658224 237.405949 120.378089 236.700858 120.378089 
C 235.995768 120.378089 235.319461 120.658224 234.820887 121.156798 
C 234.322313 121.655373 234.042178 122.331679 234.042178 123.03677 
C 234.042178 123.74186 234.322313 124.418167 234.820887 124.916741 
C 235.319461 125.415315 235.995768 125.69545 236.700858 125.69545 
z
" style="fill-opacity:0.25098;stroke:#000000;stroke-opacity:0.25098;stroke-width:0.886227;"/>
    <path clip-path="url(#p22d8a0cbe3)" d="M 234.436435 33.34478 
C 235.141525 33.34478 235.817832 33.064645 236.316406 32.56607 
C 236.81498 32.067496 237.095115 31.39119 237.095115 30.686099 
C 237.095115 29.981009 236.81498 29.304702 236.316406 28.806128 
C 235.817832 28.307554 235.141525 28.027419 234.436435 28.027419 
C 233.731344 28.027419 233.055038 28.307554 232.556463 28.806128 
C 232.057889 29.304702 231.777754 29.981009 231.777754 30.686099 
C 231.777754 31.39119 232.057889 32.067496 232.556463 32.56607 
C 233.055038 33.064645 233.731344 33.34478 234.436435 33.34478 
z
" style="fill-opacity:0.25098;stroke:#000000;stroke-opacity:0.25098;stroke-width:0.886227;"/>
    <path clip-path="url(#p22d8a0cbe3)" d="M 202.811462 128.711263 
C 203.516552 128.711263 204.192859 128.431128 204.691433 127.932553 
C 205.190007 127.433979 205.470143 126.757673 205.470143 126.052582 
C 205.470143 125.347492 205.190007 124.671185 204.691433 124.172611 
C 204.192859 123.674037 203.516552 123.393901 202.811462 123.393901 
C 202.106372 123.393901 201.430065 123.674037 200.931491 124.172611 
C 200.432917 124.671185 200.152781 125.347492 200.152781 126.052582 
C 200.152781 126.757673 200.432917 127.433979 200.931491 127.932553 
C 201.430065 128.431128 202.106372 128.711263 202.811462 128.711263 
z
" style="fill-opacity:0.25098;stroke:#000000;stroke-opacity:0.25098;stroke-width:0.886227;"/>
    <path clip-path="url(#p22d8a0cbe3)" d="M 204.78578 125.154494 
C 205.490871 125.154494 206.167177 124.874359 206.665752 124.375784 
C 207.164326 123.87721 207.444461 123.200904 207.444461 122.495813 
C 207.444461 121.790723 207.164326 121.114416 206.665752 120.615842 
C 206.167177 120.117268 205.490871 119.837132 204.78578 119.837132 
C 204.08069 119.837132 203.404383 120.117268 202.905809 120.615842 
C 202.407235 121.114416 202.1271 121.790723 202.1271 122.495813 
C 202.1271 123.200904 202.407235 123.87721 202.905809 124.375784 
C 203.404383 124.874359 204.08069 125.154494 204.78578 125.154494 
z
" style="fill-opacity:0.25098;stroke:#000000;stroke-opacity:0.25098;stroke-width:0.886227;"/>
    <path clip-path="url(#p22d8a0cbe3)" d="M 203.995439 128.742579 
C 204.700529 128.742579 205.376836 128.462443 205.87541 127.963869 
C 206.373984 127.465295 206.65412 126.788988 206.65412 126.083898 
C 206.65412 125.378807 206.373984 124.702501 205.87541 124.203927 
C 205.376836 123.705352 204.700529 123.425217 203.995439 123.425217 
C 203.290349 123.425217 202.614042 123.705352 202.115468 124.203927 
C 201.616894 124.702501 201.336758 125.378807 201.336758 126.083898 
C 201.336758 126.788988 201.616894 127.465295 202.115468 127.963869 
C 202.614042 128.462443 203.290349 128.742579 203.995439 128.742579 
z
" style="fill-opacity:0.25098;stroke:#000000;stroke-opacity:0.25098;stroke-width:0.886227;"/>
    <path clip-path="url(#p22d8a0cbe3)" d="M 171.447566 72.61438 
C 172.152657 72.61438 172.828963 72.334244 173.327538 71.83567 
C 173.826112 71.337096 174.106247 70.660789 174.106247 69.955699 
C 174.106247 69.250609 173.826112 68.574302 173.327538 68.075728 
C 172.828963 67.577154 172.152657 67.297018 171.447566 67.297018 
C 170.742476 67.297018 170.066169 67.577154 169.567595 68.075728 
C 169.069021 68.574302 168.788886 69.250609 168.788886 69.955699 
C 168.788886 70.660789 169.069021 71.337096 169.567595 71.83567 
C 170.066169 72.334244 170.742476 72.61438 171.447566 72.61438 
z
" style="fill-opacity:0.25098;stroke:#000000;stroke-opacity:0.25098;stroke-width:0.886227;"/>
    <path clip-path="url(#p22d8a0cbe3)" d="M 233.858019 73.685739 
C 234.56311 73.685739 235.239416 73.405604 235.73799 72.90703 
C 236.236565 72.408456 236.5167 71.732149 236.5167 71.027059 
C 236.5167 70.321968 236.236565 69.645662 235.73799 69.147087 
C 235.239416 68.648513 234.56311 68.368378 233.858019 68.368378 
C 233.152929 68.368378 232.476622 68.648513 231.978048 69.147087 
C 231.479474 69.645662 231.199338 70.321968 231.199338 71.027059 
C 231.199338 71.732149 231.479474 72.408456 231.978048 72.90703 
C 232.476622 73.405604 233.152929 73.685739 233.858019 73.685739 
z
" style="fill-opacity:0.25098;stroke:#000000;stroke-opacity:0.25098;stroke-width:0.886227;"/>
    <path clip-path="url(#p22d8a0cbe3)" d="M 201.590547 31.690867 
C 202.295637 31.690867 202.971944 31.410732 203.470518 30.912157 
C 203.969092 30.413583 204.249228 29.737277 204.249228 29.032186 
C 204.249228 28.327096 203.969092 27.650789 203.470518 27.152215 
C 202.971944 26.653641 202.295637 26.373505 201.590547 26.373505 
C 200.885456 26.373505 200.20915 26.653641 199.710576 27.152215 
C 199.212001 27.650789 198.931866 28.327096 198.931866 29.032186 
C 198.931866 29.737277 199.212001 30.413583 199.710576 30.912157 
C 200.20915 31.410732 200.885456 31.690867 201.590547 31.690867 
z
" style="fill-opacity:0.25098;stroke:#000000;stroke-opacity:0.25098;stroke-width:0.886227;"/>
    <path clip-path="url(#p22d8a0cbe3)" d="M 198.856577 72.640483 
C 199.561667 72.640483 200.237974 72.360348 200.736548 71.861773 
C 201.235122 71.363199 201.515258 70.686893 201.515258 69.981802 
C 201.515258 69.276712 201.235122 68.600405 200.736548 68.101831 
C 200.237974 67.603257 199.561667 67.323121 198.856577 67.323121 
C 198.151487 67.323121 197.47518 67.603257 196.976606 68.101831 
C 196.478032 68.600405 196.197896 69.276712 196.197896 69.981802 
C 196.197896 70.686893 196.478032 71.363199 196.976606 71.861773 
C 197.47518 72.360348 198.151487 72.640483 198.856577 72.640483 
z
" style="fill-opacity:0.25098;stroke:#000000;stroke-opacity:0.25098;stroke-width:0.886227;"/>
    <path clip-path="url(#p22d8a0cbe3)" d="M 171.37644 72.913125 
C 172.08153 72.913125 172.757837 72.632989 173.256411 72.134415 
C 173.754985 71.635841 174.03512 70.959534 174.03512 70.254444 
C 174.03512 69.549353 173.754985 68.873047 173.256411 68.374473 
C 172.757837 67.875898 172.08153 67.595763 171.37644 67.595763 
C 170.671349 67.595763 169.995043 67.875898 169.496468 68.374473 
C 168.997894 68.873047 168.717759 69.549353 168.717759 70.254444 
C 168.717759 70.959534 168.997894 71.635841 169.496468 72.134415 
C 169.995043 72.632989 170.671349 72.913125 171.37644 72.913125 
z
" style="fill-opacity:0.25098;stroke:#000000;stroke-opacity:0.25098;stroke-width:0.886227;"/>
    <path clip-path="url(#p22d8a0cbe3)" d="M 173.686378 71.702873 
C 174.391468 71.702873 175.067775 71.422737 175.566349 70.924163 
C 176.064923 70.425589 176.345058 69.749282 176.345058 69.044192 
C 176.345058 68.339101 176.064923 67.662795 175.566349 67.164221 
C 175.067775 66.665646 174.391468 66.385511 173.686378 66.385511 
C 172.981287 66.385511 172.304981 66.665646 171.806406 67.164221 
C 171.307832 67.662795 171.027697 68.339101 171.027697 69.044192 
C 171.027697 69.749282 171.307832 70.425589 171.806406 70.924163 
C 172.304981 71.422737 172.981287 71.702873 173.686378 71.702873 
z
" style="fill-opacity:0.25098;stroke:#000000;stroke-opacity:0.25098;stroke-width:0.886227;"/>
    <path clip-path="url(#p22d8a0cbe3)" d="M 170.786857 73.412126 
C 171.491947 73.412126 172.168254 73.13199 172.666828 72.633416 
C 173.165403 72.134842 173.445538 71.458535 173.445538 70.753445 
C 173.445538 70.048354 173.165403 69.372048 172.666828 68.873474 
C 172.168254 68.374899 171.491947 68.094764 170.786857 68.094764 
C 170.081767 68.094764 169.40546 68.374899 168.906886 68.873474 
C 168.408312 69.372048 168.128176 70.048354 168.128176 70.753445 
C 168.128176 71.458535 168.408312 72.134842 168.906886 72.633416 
C 169.40546 73.13199 170.081767 73.412126 170.786857 73.412126 
z
" style="fill-opacity:0.25098;stroke:#000000;stroke-opacity:0.25098;stroke-width:0.886227;"/>
    <path clip-path="url(#p22d8a0cbe3)" d="M 201.11343 61.170698 
C 201.81852 61.170698 202.494827 60.890563 202.993401 60.391988 
C 203.491975 59.893414 203.77211 59.217108 203.77211 58.512017 
C 203.77211 57.806927 203.491975 57.13062 202.993401 56.632046 
C 202.494827 56.133472 201.81852 55.853336 201.11343 55.853336 
C 200.408339 55.853336 199.732033 56.133472 199.233458 56.632046 
C 198.734884 57.13062 198.454749 57.806927 198.454749 58.512017 
C 198.454749 59.217108 198.734884 59.893414 199.233458 60.391988 
C 199.732033 60.890563 200.408339 61.170698 201.11343 61.170698 
z
" style="fill-opacity:0.25098;stroke:#000000;stroke-opacity:0.25098;stroke-width:0.886227;"/>
    <path clip-path="url(#p22d8a0cbe3)" d="M 266.340836 32.817788 
C 267.045927 32.817788 267.722233 32.537653 268.220808 32.039079 
C 268.719382 31.540504 268.999517 30.864198 268.999517 30.159107 
C 268.999517 29.454017 268.719382 28.77771 268.220808 28.279136 
C 267.722233 27.780562 267.045927 27.500427 266.340836 27.500427 
C 265.635746 27.500427 264.959439 27.780562 264.460865 28.279136 
C 263.962291 28.77771 263.682156 29.454017 263.682156 30.159107 
C 263.682156 30.864198 263.962291 31.540504 264.460865 32.039079 
C 264.959439 32.537653 265.635746 32.817788 266.340836 32.817788 
z
" style="fill-opacity:0.25098;stroke:#000000;stroke-opacity:0.25098;stroke-width:0.886227;"/>
    <path clip-path="url(#p22d8a0cbe3)" d="M 236.365072 115.263292 
C 237.070162 115.263292 237.746469 114.983157 238.245043 114.484583 
C 238.743617 113.986009 239.023753 113.309702 239.023753 112.604612 
C 239.023753 111.899521 238.743617 111.223215 238.245043 110.72464 
C 237.746469 110.226066 237.070162 109.945931 236.365072 109.945931 
C 235.659981 109.945931 234.983675 110.226066 234.485101 110.72464 
C 233.986526 111.223215 233.706391 111.899521 233.706391 112.604612 
C 233.706391 113.309702 233.986526 113.986009 234.485101 114.484583 
C 234.983675 114.983157 235.659981 115.263292 236.365072 115.263292 
z
" style="fill-opacity:0.25098;stroke:#000000;stroke-opacity:0.25098;stroke-width:0.886227;"/>
    <path clip-path="url(#p22d8a0cbe3)" d="M 201.813813 113.990685 
C 202.518903 113.990685 203.19521 113.71055 203.693784 113.211976 
C 204.192358 112.713401 204.472494 112.037095 204.472494 111.332004 
C 204.472494 110.626914 204.192358 109.950607 203.693784 109.452033 
C 203.19521 108.953459 202.518903 108.673324 201.813813 108.673324 
C 201.108722 108.673324 200.432416 108.953459 199.933842 109.452033 
C 199.435267 109.950607 199.155132 110.626914 199.155132 111.332004 
C 199.155132 112.037095 199.435267 112.713401 199.933842 113.211976 
C 200.432416 113.71055 201.108722 113.990685 201.813813 113.990685 
z
" style="fill-opacity:0.25098;stroke:#000000;stroke-opacity:0.25098;stroke-width:0.886227;"/>
   </g>
   <g id="patch_3">
    <path d="M 164.152813 21.5 
L 273.232813 21.5 
L 273.232813 7.2 
L 164.152813 7.2 
z
" style="fill:none;stroke:#000000;stroke-linejoin:miter;"/>
   </g>
   <g id="patch_4">
    <path d="M 164.152813 132.38 
L 164.152813 21.5 
" style="fill:none;stroke:#000000;stroke-linecap:square;stroke-linejoin:miter;"/>
   </g>
   <g id="patch_5">
    <path d="M 164.152813 132.38 
L 273.232813 132.38 
" style="fill:none;stroke:#000000;stroke-linecap:square;stroke-linejoin:miter;"/>
   </g>
   <g id="text_15">
    <!-- convalescent -->
    <defs>
     <path d="M 2.984375 54.6875 
L 12.5 54.6875 
L 29.59375 8.796875 
L 46.6875 54.6875 
L 56.203125 54.6875 
L 35.6875 0 
L 23.484375 0 
z
" id="DejaVuSans-118"/>
    </defs>
    <g style="fill:#1a1a1a;" transform="translate(189.630125 16.77825)scale(0.088 -0.088)">
     <use xlink:href="#DejaVuSans-99"/>
     <use x="54.980469" xlink:href="#DejaVuSans-111"/>
     <use x="116.162109" xlink:href="#DejaVuSans-110"/>
     <use x="179.541016" xlink:href="#DejaVuSans-118"/>
     <use x="238.720703" xlink:href="#DejaVuSans-97"/>
     <use x="300" xlink:href="#DejaVuSans-108"/>
     <use x="327.783203" xlink:href="#DejaVuSans-101"/>
     <use x="389.306641" xlink:href="#DejaVuSans-115"/>
     <use x="441.40625" xlink:href="#DejaVuSans-99"/>
     <use x="496.386719" xlink:href="#DejaVuSans-101"/>
     <use x="557.910156" xlink:href="#DejaVuSans-110"/>
     <use x="621.289062" xlink:href="#DejaVuSans-116"/>
    </g>
   </g>
  </g>
  <g id="axes_2">
   <g id="patch_6">
    <path d="M 278.272813 132.38 
L 387.352813 132.38 
L 387.352813 21.5 
L 278.272813 21.5 
z
" style="fill:#ffffff;"/>
   </g>
   <g id="matplotlib.axis_3">
    <g id="xtick_11">
     <g id="line2d_14">
      <path d="M 278.849662 132.38 
" style="fill:none;stroke:#333333;stroke-linecap:square;stroke-width:1.5;"/>
      <g>
       <use style="fill:#333333;stroke:#333333;" x="278.849662" xlink:href="#m8efe012a8c" y="132.38"/>
      </g>
     </g>
     <g id="text_16">
      <!-- 6 -->
      <g style="fill:#4d4d4d;" transform="translate(281.277912 142.929)rotate(-90)scale(0.088 -0.088)">
       <use xlink:href="#DejaVuSans-54"/>
      </g>
     </g>
    </g>
    <g id="xtick_12">
     <g id="line2d_15">
      <path d="M 302.312318 132.38 
" style="fill:none;stroke:#333333;stroke-linecap:square;stroke-width:1.5;"/>
      <g>
       <use style="fill:#333333;stroke:#333333;" x="302.312318" xlink:href="#m8efe012a8c" y="132.38"/>
      </g>
     </g>
     <g id="text_17">
      <!-- 7 -->
      <g style="fill:#4d4d4d;" transform="translate(304.740568 142.929)rotate(-90)scale(0.088 -0.088)">
       <use xlink:href="#DejaVuSans-55"/>
      </g>
     </g>
    </g>
    <g id="xtick_13">
     <g id="line2d_16">
      <path d="M 325.774973 132.38 
" style="fill:none;stroke:#333333;stroke-linecap:square;stroke-width:1.5;"/>
      <g>
       <use style="fill:#333333;stroke:#333333;" x="325.774973" xlink:href="#m8efe012a8c" y="132.38"/>
      </g>
     </g>
     <g id="text_18">
      <!-- 8 -->
      <g style="fill:#4d4d4d;" transform="translate(328.203223 142.929)rotate(-90)scale(0.088 -0.088)">
       <use xlink:href="#DejaVuSans-56"/>
      </g>
     </g>
    </g>
    <g id="xtick_14">
     <g id="line2d_17">
      <path d="M 349.237628 132.38 
" style="fill:none;stroke:#333333;stroke-linecap:square;stroke-width:1.5;"/>
      <g>
       <use style="fill:#333333;stroke:#333333;" x="349.237628" xlink:href="#m8efe012a8c" y="132.38"/>
      </g>
     </g>
     <g id="text_19">
      <!-- 9 -->
      <g style="fill:#4d4d4d;" transform="translate(351.665878 142.929)rotate(-90)scale(0.088 -0.088)">
       <use xlink:href="#DejaVuSans-57"/>
      </g>
     </g>
    </g>
    <g id="xtick_15">
     <g id="line2d_18">
      <path d="M 372.700283 132.38 
" style="fill:none;stroke:#333333;stroke-linecap:square;stroke-width:1.5;"/>
      <g>
       <use style="fill:#333333;stroke:#333333;" x="372.700283" xlink:href="#m8efe012a8c" y="132.38"/>
      </g>
     </g>
     <g id="text_20">
      <!-- 10 -->
      <g style="fill:#4d4d4d;" transform="translate(375.128533 148.528)rotate(-90)scale(0.088 -0.088)">
       <use xlink:href="#DejaVuSans-49"/>
       <use x="63.623047" xlink:href="#DejaVuSans-48"/>
      </g>
     </g>
    </g>
    <g id="xtick_16"/>
    <g id="xtick_17"/>
    <g id="xtick_18"/>
    <g id="xtick_19"/>
    <g id="xtick_20"/>
    <g id="text_21">
     <!-- log2_sortdilution -->
     <defs>
      <path d="M 19.1875 8.296875 
L 53.609375 8.296875 
L 53.609375 0 
L 7.328125 0 
L 7.328125 8.296875 
Q 12.9375 14.109375 22.625 23.890625 
Q 32.328125 33.6875 34.8125 36.53125 
Q 39.546875 41.84375 41.421875 45.53125 
Q 43.3125 49.21875 43.3125 52.78125 
Q 43.3125 58.59375 39.234375 62.25 
Q 35.15625 65.921875 28.609375 65.921875 
Q 23.96875 65.921875 18.8125 64.3125 
Q 13.671875 62.703125 7.8125 59.421875 
L 7.8125 69.390625 
Q 13.765625 71.78125 18.9375 73 
Q 24.125 74.21875 28.421875 74.21875 
Q 39.75 74.21875 46.484375 68.546875 
Q 53.21875 62.890625 53.21875 53.421875 
Q 53.21875 48.921875 51.53125 44.890625 
Q 49.859375 40.875 45.40625 35.40625 
Q 44.1875 33.984375 37.640625 27.21875 
Q 31.109375 20.453125 19.1875 8.296875 
z
" id="DejaVuSans-50"/>
      <path d="M 50.984375 -16.609375 
L 50.984375 -23.578125 
L -0.984375 -23.578125 
L -0.984375 -16.609375 
z
" id="DejaVuSans-95"/>
     </defs>
     <g transform="translate(226.302578 161.286281)scale(0.11 -0.11)">
      <use xlink:href="#DejaVuSans-108"/>
      <use x="27.783203" xlink:href="#DejaVuSans-111"/>
      <use x="88.964844" xlink:href="#DejaVuSans-103"/>
      <use x="152.441406" xlink:href="#DejaVuSans-50"/>
      <use x="216.064453" xlink:href="#DejaVuSans-95"/>
      <use x="266.064453" xlink:href="#DejaVuSans-115"/>
      <use x="318.164062" xlink:href="#DejaVuSans-111"/>
      <use x="379.345703" xlink:href="#DejaVuSans-114"/>
      <use x="420.458984" xlink:href="#DejaVuSans-116"/>
      <use x="459.667969" xlink:href="#DejaVuSans-100"/>
      <use x="523.144531" xlink:href="#DejaVuSans-105"/>
      <use x="550.927734" xlink:href="#DejaVuSans-108"/>
      <use x="578.710938" xlink:href="#DejaVuSans-117"/>
      <use x="642.089844" xlink:href="#DejaVuSans-116"/>
      <use x="681.298828" xlink:href="#DejaVuSans-105"/>
      <use x="709.082031" xlink:href="#DejaVuSans-111"/>
      <use x="770.263672" xlink:href="#DejaVuSans-110"/>
     </g>
    </g>
   </g>
   <g id="matplotlib.axis_4">
    <g id="ytick_9"/>
    <g id="ytick_10"/>
    <g id="ytick_11"/>
    <g id="ytick_12"/>
    <g id="ytick_13"/>
    <g id="ytick_14"/>
    <g id="ytick_15"/>
    <g id="ytick_16"/>
   </g>
   <g id="PathCollection_2">
    <path clip-path="url(#p49f71d9b3e)" d="M 287.027906 127.088264 
C 287.732996 127.088264 288.409303 126.808128 288.907877 126.309554 
C 289.406451 125.81098 289.686587 125.134673 289.686587 124.429583 
C 289.686587 123.724493 289.406451 123.048186 288.907877 122.549612 
C 288.409303 122.051038 287.732996 121.770902 287.027906 121.770902 
C 286.322816 121.770902 285.646509 122.051038 285.147935 122.549612 
C 284.649361 123.048186 284.369225 123.724493 284.369225 124.429583 
C 284.369225 125.134673 284.649361 125.81098 285.147935 126.309554 
C 285.646509 126.808128 286.322816 127.088264 287.027906 127.088264 
z
" style="fill-opacity:0.25098;stroke:#000000;stroke-opacity:0.25098;stroke-width:0.886227;"/>
    <path clip-path="url(#p49f71d9b3e)" d="M 380.562096 33.176156 
C 381.267187 33.176156 381.943493 32.89602 382.442068 32.397446 
C 382.940642 31.898872 383.220777 31.222565 383.220777 30.517475 
C 383.220777 29.812385 382.940642 29.136078 382.442068 28.637504 
C 381.943493 28.13893 381.267187 27.858794 380.562096 27.858794 
C 379.857006 27.858794 379.180699 28.13893 378.682125 28.637504 
C 378.183551 29.136078 377.903416 29.812385 377.903416 30.517475 
C 377.903416 31.222565 378.183551 31.898872 378.682125 32.397446 
C 379.180699 32.89602 379.857006 33.176156 380.562096 33.176156 
z
" style="fill-opacity:0.25098;stroke:#000000;stroke-opacity:0.25098;stroke-width:0.886227;"/>
    <path clip-path="url(#p49f71d9b3e)" d="M 320.093507 113.108317 
C 320.798598 113.108317 321.474904 112.828181 321.973479 112.329607 
C 322.472053 111.831033 322.752188 111.154726 322.752188 110.449636 
C 322.752188 109.744546 322.472053 109.068239 321.973479 108.569665 
C 321.474904 108.071091 320.798598 107.790955 320.093507 107.790955 
C 319.388417 107.790955 318.71211 108.071091 318.213536 108.569665 
C 317.714962 109.068239 317.434827 109.744546 317.434827 110.449636 
C 317.434827 111.154726 317.714962 111.831033 318.213536 112.329607 
C 318.71211 112.828181 319.388417 113.108317 320.093507 113.108317 
z
" style="fill-opacity:0.25098;stroke:#000000;stroke-opacity:0.25098;stroke-width:0.886227;"/>
    <path clip-path="url(#p49f71d9b3e)" d="M 320.50023 58.315104 
C 321.205321 58.315104 321.881627 58.034969 322.380201 57.536395 
C 322.878776 57.037821 323.158911 56.361514 323.158911 55.656424 
C 323.158911 54.951333 322.878776 54.275027 322.380201 53.776452 
C 321.881627 53.277878 321.205321 52.997743 320.50023 52.997743 
C 319.79514 52.997743 319.118833 53.277878 318.620259 53.776452 
C 318.121685 54.275027 317.84155 54.951333 317.84155 55.656424 
C 317.84155 56.361514 318.121685 57.037821 318.620259 57.536395 
C 319.118833 58.034969 319.79514 58.315104 320.50023 58.315104 
z
" style="fill-opacity:0.25098;stroke:#000000;stroke-opacity:0.25098;stroke-width:0.886227;"/>
    <path clip-path="url(#p49f71d9b3e)" d="M 318.282442 33.60149 
C 318.987532 33.60149 319.663839 33.321354 320.162413 32.82278 
C 320.660987 32.324206 320.941122 31.647899 320.941122 30.942809 
C 320.941122 30.237718 320.660987 29.561412 320.162413 29.062838 
C 319.663839 28.564263 318.987532 28.284128 318.282442 28.284128 
C 317.577351 28.284128 316.901045 28.564263 316.402471 29.062838 
C 315.903896 29.561412 315.623761 30.237718 315.623761 30.942809 
C 315.623761 31.647899 315.903896 32.324206 316.402471 32.82278 
C 316.901045 33.321354 317.577351 33.60149 318.282442 33.60149 
z
" style="fill-opacity:0.25098;stroke:#000000;stroke-opacity:0.25098;stroke-width:0.886227;"/>
    <path clip-path="url(#p49f71d9b3e)" d="M 347.742039 33.206382 
C 348.447129 33.206382 349.123436 32.926247 349.62201 32.427672 
C 350.120584 31.929098 350.40072 31.252792 350.40072 30.547701 
C 350.40072 29.842611 350.120584 29.166304 349.62201 28.66773 
C 349.123436 28.169156 348.447129 27.88902 347.742039 27.88902 
C 347.036948 27.88902 346.360642 28.169156 345.862068 28.66773 
C 345.363493 29.166304 345.083358 29.842611 345.083358 30.547701 
C 345.083358 31.252792 345.363493 31.929098 345.862068 32.427672 
C 346.360642 32.926247 347.036948 33.206382 347.742039 33.206382 
z
" style="fill-opacity:0.25098;stroke:#000000;stroke-opacity:0.25098;stroke-width:0.886227;"/>
    <path clip-path="url(#p49f71d9b3e)" d="M 349.27906 112.595084 
C 349.984151 112.595084 350.660457 112.314949 351.159031 111.816375 
C 351.657606 111.3178 351.937741 110.641494 351.937741 109.936403 
C 351.937741 109.231313 351.657606 108.555006 351.159031 108.056432 
C 350.660457 107.557858 349.984151 107.277723 349.27906 107.277723 
C 348.57397 107.277723 347.897663 107.557858 347.399089 108.056432 
C 346.900515 108.555006 346.620379 109.231313 346.620379 109.936403 
C 346.620379 110.641494 346.900515 111.3178 347.399089 111.816375 
C 347.897663 112.314949 348.57397 112.595084 349.27906 112.595084 
z
" style="fill-opacity:0.25098;stroke:#000000;stroke-opacity:0.25098;stroke-width:0.886227;"/>
    <path clip-path="url(#p49f71d9b3e)" d="M 287.03901 127.574291 
C 287.7441 127.574291 288.420407 127.294156 288.918981 126.795582 
C 289.417555 126.297008 289.697691 125.620701 289.697691 124.915611 
C 289.697691 124.21052 289.417555 123.534214 288.918981 123.03564 
C 288.420407 122.537065 287.7441 122.25693 287.03901 122.25693 
C 286.333919 122.25693 285.657613 122.537065 285.159039 123.03564 
C 284.660464 123.534214 284.380329 124.21052 284.380329 124.915611 
C 284.380329 125.620701 284.660464 126.297008 285.159039 126.795582 
C 285.657613 127.294156 286.333919 127.574291 287.03901 127.574291 
z
" style="fill-opacity:0.25098;stroke:#000000;stroke-opacity:0.25098;stroke-width:0.886227;"/>
    <path clip-path="url(#p49f71d9b3e)" d="M 318.928217 87.223949 
C 319.633307 87.223949 320.309614 86.943814 320.808188 86.44524 
C 321.306762 85.946665 321.586897 85.270359 321.586897 84.565268 
C 321.586897 83.860178 321.306762 83.183871 320.808188 82.685297 
C 320.309614 82.186723 319.633307 81.906588 318.928217 81.906588 
C 318.223126 81.906588 317.54682 82.186723 317.048245 82.685297 
C 316.549671 83.183871 316.269536 83.860178 316.269536 84.565268 
C 316.269536 85.270359 316.549671 85.946665 317.048245 86.44524 
C 317.54682 86.943814 318.223126 87.223949 318.928217 87.223949 
z
" style="fill-opacity:0.25098;stroke:#000000;stroke-opacity:0.25098;stroke-width:0.886227;"/>
    <path clip-path="url(#p49f71d9b3e)" d="M 378.072917 32.884395 
C 378.778008 32.884395 379.454314 32.60426 379.952888 32.105686 
C 380.451463 31.607111 380.731598 30.930805 380.731598 30.225714 
C 380.731598 29.520624 380.451463 28.844317 379.952888 28.345743 
C 379.454314 27.847169 378.778008 27.567034 378.072917 27.567034 
C 377.367827 27.567034 376.69152 27.847169 376.192946 28.345743 
C 375.694372 28.844317 375.414236 29.520624 375.414236 30.225714 
C 375.414236 30.930805 375.694372 31.607111 376.192946 32.105686 
C 376.69152 32.60426 377.367827 32.884395 378.072917 32.884395 
z
" style="fill-opacity:0.25098;stroke:#000000;stroke-opacity:0.25098;stroke-width:0.886227;"/>
    <path clip-path="url(#p49f71d9b3e)" d="M 316.77452 57.888605 
C 317.47961 57.888605 318.155917 57.60847 318.654491 57.109896 
C 319.153065 56.611322 319.433201 55.935015 319.433201 55.229925 
C 319.433201 54.524834 319.153065 53.848528 318.654491 53.349953 
C 318.155917 52.851379 317.47961 52.571244 316.77452 52.571244 
C 316.06943 52.571244 315.393123 52.851379 314.894549 53.349953 
C 314.395975 53.848528 314.115839 54.524834 314.115839 55.229925 
C 314.115839 55.935015 314.395975 56.611322 314.894549 57.109896 
C 315.393123 57.60847 316.06943 57.888605 316.77452 57.888605 
z
" style="fill-opacity:0.25098;stroke:#000000;stroke-opacity:0.25098;stroke-width:0.886227;"/>
    <path clip-path="url(#p49f71d9b3e)" d="M 344.940851 33.703543 
C 345.645942 33.703543 346.322248 33.423407 346.820823 32.924833 
C 347.319397 32.426259 347.599532 31.749952 347.599532 31.044862 
C 347.599532 30.339771 347.319397 29.663465 346.820823 29.164891 
C 346.322248 28.666316 345.645942 28.386181 344.940851 28.386181 
C 344.235761 28.386181 343.559454 28.666316 343.06088 29.164891 
C 342.562306 29.663465 342.282171 30.339771 342.282171 31.044862 
C 342.282171 31.749952 342.562306 32.426259 343.06088 32.924833 
C 343.559454 33.423407 344.235761 33.703543 344.940851 33.703543 
z
" style="fill-opacity:0.25098;stroke:#000000;stroke-opacity:0.25098;stroke-width:0.886227;"/>
    <path clip-path="url(#p49f71d9b3e)" d="M 346.357728 30.895313 
C 347.062818 30.895313 347.739125 30.615178 348.237699 30.116603 
C 348.736273 29.618029 349.016408 28.941722 349.016408 28.236632 
C 349.016408 27.531542 348.736273 26.855235 348.237699 26.356661 
C 347.739125 25.858087 347.062818 25.577951 346.357728 25.577951 
C 345.652637 25.577951 344.976331 25.858087 344.477756 26.356661 
C 343.979182 26.855235 343.699047 27.531542 343.699047 28.236632 
C 343.699047 28.941722 343.979182 29.618029 344.477756 30.116603 
C 344.976331 30.615178 345.652637 30.895313 346.357728 30.895313 
z
" style="fill-opacity:0.25098;stroke:#000000;stroke-opacity:0.25098;stroke-width:0.886227;"/>
    <path clip-path="url(#p49f71d9b3e)" d="M 315.515481 128.863993 
C 316.220572 128.863993 316.896878 128.583858 317.395453 128.085284 
C 317.894027 127.58671 318.174162 126.910403 318.174162 126.205313 
C 318.174162 125.500222 317.894027 124.823916 317.395453 124.325341 
C 316.896878 123.826767 316.220572 123.546632 315.515481 123.546632 
C 314.810391 123.546632 314.134084 123.826767 313.63551 124.325341 
C 313.136936 124.823916 312.856801 125.500222 312.856801 126.205313 
C 312.856801 126.910403 313.136936 127.58671 313.63551 128.085284 
C 314.134084 128.583858 314.810391 128.863993 315.515481 128.863993 
z
" style="fill-opacity:0.25098;stroke:#000000;stroke-opacity:0.25098;stroke-width:0.886227;"/>
    <path clip-path="url(#p49f71d9b3e)" d="M 315.282587 127.678452 
C 315.987677 127.678452 316.663984 127.398317 317.162558 126.899743 
C 317.661132 126.401168 317.941268 125.724862 317.941268 125.019771 
C 317.941268 124.314681 317.661132 123.638374 317.162558 123.1398 
C 316.663984 122.641226 315.987677 122.361091 315.282587 122.361091 
C 314.577497 122.361091 313.90119 122.641226 313.402616 123.1398 
C 312.904042 123.638374 312.623906 124.314681 312.623906 125.019771 
C 312.623906 125.724862 312.904042 126.401168 313.402616 126.899743 
C 313.90119 127.398317 314.577497 127.678452 315.282587 127.678452 
z
" style="fill-opacity:0.25098;stroke:#000000;stroke-opacity:0.25098;stroke-width:0.886227;"/>
    <path clip-path="url(#p49f71d9b3e)" d="M 377.285511 33.942034 
C 377.990602 33.942034 378.666908 33.661899 379.165482 33.163324 
C 379.664057 32.66475 379.944192 31.988444 379.944192 31.283353 
C 379.944192 30.578263 379.664057 29.901956 379.165482 29.403382 
C 378.666908 28.904808 377.990602 28.624672 377.285511 28.624672 
C 376.580421 28.624672 375.904114 28.904808 375.40554 29.403382 
C 374.906966 29.901956 374.62683 30.578263 374.62683 31.283353 
C 374.62683 31.988444 374.906966 32.66475 375.40554 33.163324 
C 375.904114 33.661899 376.580421 33.942034 377.285511 33.942034 
z
" style="fill-opacity:0.25098;stroke:#000000;stroke-opacity:0.25098;stroke-width:0.886227;"/>
    <path clip-path="url(#p49f71d9b3e)" d="M 319.870986 32.638841 
C 320.576076 32.638841 321.252383 32.358706 321.750957 31.860132 
C 322.249531 31.361558 322.529666 30.685251 322.529666 29.980161 
C 322.529666 29.27507 322.249531 28.598764 321.750957 28.100189 
C 321.252383 27.601615 320.576076 27.32148 319.870986 27.32148 
C 319.165895 27.32148 318.489589 27.601615 317.991014 28.100189 
C 317.49244 28.598764 317.212305 29.27507 317.212305 29.980161 
C 317.212305 30.685251 317.49244 31.361558 317.991014 31.860132 
C 318.489589 32.358706 319.165895 32.638841 319.870986 32.638841 
z
" style="fill-opacity:0.25098;stroke:#000000;stroke-opacity:0.25098;stroke-width:0.886227;"/>
    <path clip-path="url(#p49f71d9b3e)" d="M 318.926883 32.502587 
C 319.631973 32.502587 320.30828 32.222451 320.806854 31.723877 
C 321.305428 31.225303 321.585563 30.548996 321.585563 29.843906 
C 321.585563 29.138816 321.305428 28.462509 320.806854 27.963935 
C 320.30828 27.465361 319.631973 27.185225 318.926883 27.185225 
C 318.221792 27.185225 317.545486 27.465361 317.046911 27.963935 
C 316.548337 28.462509 316.268202 29.138816 316.268202 29.843906 
C 316.268202 30.548996 316.548337 31.225303 317.046911 31.723877 
C 317.545486 32.222451 318.221792 32.502587 318.926883 32.502587 
z
" style="fill-opacity:0.25098;stroke:#000000;stroke-opacity:0.25098;stroke-width:0.886227;"/>
    <path clip-path="url(#p49f71d9b3e)" d="M 347.734383 31.230979 
C 348.439474 31.230979 349.11578 30.950844 349.614354 30.45227 
C 350.112929 29.953696 350.393064 29.277389 350.393064 28.572299 
C 350.393064 27.867208 350.112929 27.190902 349.614354 26.692327 
C 349.11578 26.193753 348.439474 25.913618 347.734383 25.913618 
C 347.029293 25.913618 346.352986 26.193753 345.854412 26.692327 
C 345.355838 27.190902 345.075702 27.867208 345.075702 28.572299 
C 345.075702 29.277389 345.355838 29.953696 345.854412 30.45227 
C 346.352986 30.950844 347.029293 31.230979 347.734383 31.230979 
z
" style="fill-opacity:0.25098;stroke:#000000;stroke-opacity:0.25098;stroke-width:0.886227;"/>
    <path clip-path="url(#p49f71d9b3e)" d="M 316.460804 47.188715 
C 317.165895 47.188715 317.842201 46.90858 318.340776 46.410006 
C 318.83935 45.911432 319.119485 45.235125 319.119485 44.530035 
C 319.119485 43.824944 318.83935 43.148638 318.340776 42.650064 
C 317.842201 42.151489 317.165895 41.871354 316.460804 41.871354 
C 315.755714 41.871354 315.079407 42.151489 314.580833 42.650064 
C 314.082259 43.148638 313.802124 43.824944 313.802124 44.530035 
C 313.802124 45.235125 314.082259 45.911432 314.580833 46.410006 
C 315.079407 46.90858 315.755714 47.188715 316.460804 47.188715 
z
" style="fill-opacity:0.25098;stroke:#000000;stroke-opacity:0.25098;stroke-width:0.886227;"/>
    <path clip-path="url(#p49f71d9b3e)" d="M 381.590199 45.345651 
C 382.295289 45.345651 382.971596 45.065516 383.47017 44.566942 
C 383.968744 44.068367 384.24888 43.392061 384.24888 42.68697 
C 384.24888 41.98188 383.968744 41.305573 383.47017 40.806999 
C 382.971596 40.308425 382.295289 40.02829 381.590199 40.02829 
C 380.885109 40.02829 380.208802 40.308425 379.710228 40.806999 
C 379.211654 41.305573 378.931518 41.98188 378.931518 42.68697 
C 378.931518 43.392061 379.211654 44.068367 379.710228 44.566942 
C 380.208802 45.065516 380.885109 45.345651 381.590199 45.345651 
z
" style="fill-opacity:0.25098;stroke:#000000;stroke-opacity:0.25098;stroke-width:0.886227;"/>
    <path clip-path="url(#p49f71d9b3e)" d="M 316.765021 31.471177 
C 317.470111 31.471177 318.146418 31.191041 318.644992 30.692467 
C 319.143566 30.193893 319.423702 29.517586 319.423702 28.812496 
C 319.423702 28.107406 319.143566 27.431099 318.644992 26.932525 
C 318.146418 26.433951 317.470111 26.153815 316.765021 26.153815 
C 316.059931 26.153815 315.383624 26.433951 314.88505 26.932525 
C 314.386476 27.431099 314.10634 28.107406 314.10634 28.812496 
C 314.10634 29.517586 314.386476 30.193893 314.88505 30.692467 
C 315.383624 31.191041 316.059931 31.471177 316.765021 31.471177 
z
" style="fill-opacity:0.25098;stroke:#000000;stroke-opacity:0.25098;stroke-width:0.886227;"/>
    <path clip-path="url(#p49f71d9b3e)" d="M 283.230994 57.491073 
C 283.936085 57.491073 284.612391 57.210937 285.110966 56.712363 
C 285.60954 56.213789 285.889675 55.537482 285.889675 54.832392 
C 285.889675 54.127301 285.60954 53.450995 285.110966 52.952421 
C 284.612391 52.453846 283.936085 52.173711 283.230994 52.173711 
C 282.525904 52.173711 281.849597 52.453846 281.351023 52.952421 
C 280.852449 53.450995 280.572314 54.127301 280.572314 54.832392 
C 280.572314 55.537482 280.852449 56.213789 281.351023 56.712363 
C 281.849597 57.210937 282.525904 57.491073 283.230994 57.491073 
z
" style="fill-opacity:0.25098;stroke:#000000;stroke-opacity:0.25098;stroke-width:0.886227;"/>
    <path clip-path="url(#p49f71d9b3e)" d="M 314.83984 84.773334 
C 315.544931 84.773334 316.221237 84.493199 316.719811 83.994625 
C 317.218386 83.496051 317.498521 82.819744 317.498521 82.114654 
C 317.498521 81.409563 317.218386 80.733257 316.719811 80.234682 
C 316.221237 79.736108 315.544931 79.455973 314.83984 79.455973 
C 314.13475 79.455973 313.458443 79.736108 312.959869 80.234682 
C 312.461295 80.733257 312.181159 81.409563 312.181159 82.114654 
C 312.181159 82.819744 312.461295 83.496051 312.959869 83.994625 
C 313.458443 84.493199 314.13475 84.773334 314.83984 84.773334 
z
" style="fill-opacity:0.25098;stroke:#000000;stroke-opacity:0.25098;stroke-width:0.886227;"/>
    <path clip-path="url(#p49f71d9b3e)" d="M 314.434188 33.35239 
C 315.139278 33.35239 315.815585 33.072255 316.314159 32.573681 
C 316.812733 32.075106 317.092869 31.3988 317.092869 30.693709 
C 317.092869 29.988619 316.812733 29.312312 316.314159 28.813738 
C 315.815585 28.315164 315.139278 28.035029 314.434188 28.035029 
C 313.729098 28.035029 313.052791 28.315164 312.554217 28.813738 
C 312.055643 29.312312 311.775507 29.988619 311.775507 30.693709 
C 311.775507 31.3988 312.055643 32.075106 312.554217 32.573681 
C 313.052791 33.072255 313.729098 33.35239 314.434188 33.35239 
z
" style="fill-opacity:0.25098;stroke:#000000;stroke-opacity:0.25098;stroke-width:0.886227;"/>
    <path clip-path="url(#p49f71d9b3e)" d="M 319.873578 113.114296 
C 320.578669 113.114296 321.254975 112.834161 321.753549 112.335587 
C 322.252124 111.837013 322.532259 111.160706 322.532259 110.455616 
C 322.532259 109.750525 322.252124 109.074219 321.753549 108.575644 
C 321.254975 108.07707 320.578669 107.796935 319.873578 107.796935 
C 319.168488 107.796935 318.492181 108.07707 317.993607 108.575644 
C 317.495033 109.074219 317.214897 109.750525 317.214897 110.455616 
C 317.214897 111.160706 317.495033 111.837013 317.993607 112.335587 
C 318.492181 112.834161 319.168488 113.114296 319.873578 113.114296 
z
" style="fill-opacity:0.25098;stroke:#000000;stroke-opacity:0.25098;stroke-width:0.886227;"/>
    <path clip-path="url(#p49f71d9b3e)" d="M 320.496432 33.334334 
C 321.201523 33.334334 321.877829 33.054199 322.376403 32.555625 
C 322.874978 32.057051 323.155113 31.380744 323.155113 30.675654 
C 323.155113 29.970563 322.874978 29.294257 322.376403 28.795682 
C 321.877829 28.297108 321.201523 28.016973 320.496432 28.016973 
C 319.791342 28.016973 319.115035 28.297108 318.616461 28.795682 
C 318.117887 29.294257 317.837751 29.970563 317.837751 30.675654 
C 317.837751 31.380744 318.117887 32.057051 318.616461 32.555625 
C 319.115035 33.054199 319.791342 33.334334 320.496432 33.334334 
z
" style="fill-opacity:0.25098;stroke:#000000;stroke-opacity:0.25098;stroke-width:0.886227;"/>
    <path clip-path="url(#p49f71d9b3e)" d="M 320.573061 31.801906 
C 321.278152 31.801906 321.954458 31.521771 322.453032 31.023196 
C 322.951607 30.524622 323.231742 29.848316 323.231742 29.143225 
C 323.231742 28.438135 322.951607 27.761828 322.453032 27.263254 
C 321.954458 26.76468 321.278152 26.484545 320.573061 26.484545 
C 319.867971 26.484545 319.191664 26.76468 318.69309 27.263254 
C 318.194516 27.761828 317.91438 28.438135 317.91438 29.143225 
C 317.91438 29.848316 318.194516 30.524622 318.69309 31.023196 
C 319.191664 31.521771 319.867971 31.801906 320.573061 31.801906 
z
" style="fill-opacity:0.25098;stroke:#000000;stroke-opacity:0.25098;stroke-width:0.886227;"/>
   </g>
   <g id="patch_7">
    <path d="M 278.272813 21.5 
L 387.352813 21.5 
L 387.352813 7.2 
L 278.272813 7.2 
z
" style="fill:none;stroke:#000000;stroke-linejoin:miter;"/>
   </g>
   <g id="patch_8">
    <path d="M 278.272813 132.38 
L 278.272813 21.5 
" style="fill:none;stroke:#000000;stroke-linecap:square;stroke-linejoin:miter;"/>
   </g>
   <g id="patch_9">
    <path d="M 278.272813 132.38 
L 387.352813 132.38 
" style="fill:none;stroke:#000000;stroke-linecap:square;stroke-linejoin:miter;"/>
   </g>
   <g id="text_22">
    <!-- vaccine -->
    <g style="fill:#1a1a1a;" transform="translate(315.955313 16.77825)scale(0.088 -0.088)">
     <use xlink:href="#DejaVuSans-118"/>
     <use x="59.179688" xlink:href="#DejaVuSans-97"/>
     <use x="120.458984" xlink:href="#DejaVuSans-99"/>
     <use x="175.439453" xlink:href="#DejaVuSans-99"/>
     <use x="230.419922" xlink:href="#DejaVuSans-105"/>
     <use x="258.203125" xlink:href="#DejaVuSans-110"/>
     <use x="321.582031" xlink:href="#DejaVuSans-101"/>
    </g>
   </g>
  </g>
 </g>
 <defs>
  <clipPath id="p22d8a0cbe3">
   <rect height="110.88" width="109.08" x="164.152813" y="21.5"/>
  </clipPath>
  <clipPath id="p49f71d9b3e">
   <rect height="110.88" width="109.08" x="278.272813" y="21.5"/>
  </clipPath>
 </defs>
</svg>
