<?xml version="1.0" encoding="utf-8" standalone="no"?>
<!DOCTYPE svg PUBLIC "-//W3C//DTD SVG 1.1//EN"
  "http://www.w3.org/Graphics/SVG/1.1/DTD/svg11.dtd">
<!-- Created with matplotlib (https://matplotlib.org/) -->
<svg height="173.876625pt" version="1.1" viewBox="0 0 394.80839 173.876625" width="394.80839pt" xmlns="http://www.w3.org/2000/svg" xmlns:xlink="http://www.w3.org/1999/xlink">
 <defs>
  <style type="text/css">
*{stroke-linecap:butt;stroke-linejoin:round;}
  </style>
 </defs>
 <g id="figure_1">
  <g id="patch_1">
   <path d="M 0 173.876625 
L 394.80839 173.876625 
L 394.80839 0 
L 0 0 
z
" style="fill:#ffffff;stroke:#ffffff;stroke-linejoin:miter;"/>
  </g>
  <g id="axes_1">
   <g id="patch_2">
    <path d="M 164.152813 132.38 
L 273.232813 132.38 
L 273.232813 21.5 
L 164.152813 21.5 
z
" style="fill:#ffffff;"/>
   </g>
   <g id="matplotlib.axis_1">
    <g id="xtick_1">
     <g id="line2d_1">
      <path d="M 168.50045 132.38 
" style="fill:none;stroke:#333333;stroke-width:1.5;"/>
      <defs>
       <path d="M 0 0 
L 0 2.75 
" id="m2d2a371c34" style="stroke:#333333;"/>
      </defs>
      <g>
       <use style="fill:#333333;stroke:#333333;" x="168.50045" xlink:href="#m2d2a371c34" y="132.38"/>
      </g>
     </g>
     <g id="text_1">
      <!-- 2 -->
      <defs>
       <path d="M 19.1875 8.296875 
L 53.609375 8.296875 
L 53.609375 0 
L 7.328125 0 
L 7.328125 8.296875 
Q 12.9375 14.109375 22.625 23.890625 
Q 32.328125 33.6875 34.8125 36.53125 
Q 39.546875 41.84375 41.421875 45.53125 
Q 43.3125 49.21875 43.3125 52.78125 
Q 43.3125 58.59375 39.234375 62.25 
Q 35.15625 65.921875 28.609375 65.921875 
Q 23.96875 65.921875 18.8125 64.3125 
Q 13.671875 62.703125 7.8125 59.421875 
L 7.8125 69.390625 
Q 13.765625 71.78125 18.9375 73 
Q 24.125 74.21875 28.421875 74.21875 
Q 39.75 74.21875 46.484375 68.546875 
Q 53.21875 62.890625 53.21875 53.421875 
Q 53.21875 48.921875 51.53125 44.890625 
Q 49.859375 40.875 45.40625 35.40625 
Q 44.1875 33.984375 37.640625 27.21875 
Q 31.109375 20.453125 19.1875 8.296875 
z
" id="DejaVuSans-50"/>
      </defs>
      <g style="fill:#4d4d4d;" transform="translate(170.9287 142.929)rotate(-90)scale(0.088 -0.088)">
       <use xlink:href="#DejaVuSans-50"/>
      </g>
     </g>
    </g>
    <g id="xtick_2">
     <g id="line2d_2">
      <path d="M 188.646363 132.38 
" style="fill:none;stroke:#333333;stroke-width:1.5;"/>
      <g>
       <use style="fill:#333333;stroke:#333333;" x="188.646363" xlink:href="#m2d2a371c34" y="132.38"/>
      </g>
     </g>
     <g id="text_2">
      <!-- 2.5 -->
      <defs>
       <path d="M 10.6875 12.40625 
L 21 12.40625 
L 21 0 
L 10.6875 0 
z
" id="DejaVuSans-46"/>
       <path d="M 10.796875 72.90625 
L 49.515625 72.90625 
L 49.515625 64.59375 
L 19.828125 64.59375 
L 19.828125 46.734375 
Q 21.96875 47.46875 24.109375 47.828125 
Q 26.265625 48.1875 28.421875 48.1875 
Q 40.625 48.1875 47.75 41.5 
Q 54.890625 34.8125 54.890625 23.390625 
Q 54.890625 11.625 47.5625 5.09375 
Q 40.234375 -1.421875 26.90625 -1.421875 
Q 22.3125 -1.421875 17.546875 -0.640625 
Q 12.796875 0.140625 7.71875 1.703125 
L 7.71875 11.625 
Q 12.109375 9.234375 16.796875 8.0625 
Q 21.484375 6.890625 26.703125 6.890625 
Q 35.15625 6.890625 40.078125 11.328125 
Q 45.015625 15.765625 45.015625 23.390625 
Q 45.015625 31 40.078125 35.4375 
Q 35.15625 39.890625 26.703125 39.890625 
Q 22.75 39.890625 18.8125 39.015625 
Q 14.890625 38.140625 10.796875 36.28125 
z
" id="DejaVuSans-53"/>
      </defs>
      <g style="fill:#4d4d4d;" transform="translate(191.074613 151.32475)rotate(-90)scale(0.088 -0.088)">
       <use xlink:href="#DejaVuSans-50"/>
       <use x="63.623047" xlink:href="#DejaVuSans-46"/>
       <use x="95.410156" xlink:href="#DejaVuSans-53"/>
      </g>
     </g>
    </g>
    <g id="xtick_3">
     <g id="line2d_3">
      <path d="M 208.792276 132.38 
" style="fill:none;stroke:#333333;stroke-width:1.5;"/>
      <g>
       <use style="fill:#333333;stroke:#333333;" x="208.792276" xlink:href="#m2d2a371c34" y="132.38"/>
      </g>
     </g>
     <g id="text_3">
      <!-- 3 -->
      <defs>
       <path d="M 40.578125 39.3125 
Q 47.65625 37.796875 51.625 33 
Q 55.609375 28.21875 55.609375 21.1875 
Q 55.609375 10.40625 48.1875 4.484375 
Q 40.765625 -1.421875 27.09375 -1.421875 
Q 22.515625 -1.421875 17.65625 -0.515625 
Q 12.796875 0.390625 7.625 2.203125 
L 7.625 11.71875 
Q 11.71875 9.328125 16.59375 8.109375 
Q 21.484375 6.890625 26.8125 6.890625 
Q 36.078125 6.890625 40.9375 10.546875 
Q 45.796875 14.203125 45.796875 21.1875 
Q 45.796875 27.640625 41.28125 31.265625 
Q 36.765625 34.90625 28.71875 34.90625 
L 20.21875 34.90625 
L 20.21875 43.015625 
L 29.109375 43.015625 
Q 36.375 43.015625 40.234375 45.921875 
Q 44.09375 48.828125 44.09375 54.296875 
Q 44.09375 59.90625 40.109375 62.90625 
Q 36.140625 65.921875 28.71875 65.921875 
Q 24.65625 65.921875 20.015625 65.03125 
Q 15.375 64.15625 9.8125 62.3125 
L 9.8125 71.09375 
Q 15.4375 72.65625 20.34375 73.4375 
Q 25.25 74.21875 29.59375 74.21875 
Q 40.828125 74.21875 47.359375 69.109375 
Q 53.90625 64.015625 53.90625 55.328125 
Q 53.90625 49.265625 50.4375 45.09375 
Q 46.96875 40.921875 40.578125 39.3125 
z
" id="DejaVuSans-51"/>
      </defs>
      <g style="fill:#4d4d4d;" transform="translate(211.220526 142.929)rotate(-90)scale(0.088 -0.088)">
       <use xlink:href="#DejaVuSans-51"/>
      </g>
     </g>
    </g>
    <g id="xtick_4">
     <g id="line2d_4">
      <path d="M 228.938189 132.38 
" style="fill:none;stroke:#333333;stroke-width:1.5;"/>
      <g>
       <use style="fill:#333333;stroke:#333333;" x="228.938189" xlink:href="#m2d2a371c34" y="132.38"/>
      </g>
     </g>
     <g id="text_4">
      <!-- 3.5 -->
      <g style="fill:#4d4d4d;" transform="translate(231.366439 151.32475)rotate(-90)scale(0.088 -0.088)">
       <use xlink:href="#DejaVuSans-51"/>
       <use x="63.623047" xlink:href="#DejaVuSans-46"/>
       <use x="95.410156" xlink:href="#DejaVuSans-53"/>
      </g>
     </g>
    </g>
    <g id="xtick_5">
     <g id="line2d_5">
      <path d="M 249.084102 132.38 
" style="fill:none;stroke:#333333;stroke-width:1.5;"/>
      <g>
       <use style="fill:#333333;stroke:#333333;" x="249.084102" xlink:href="#m2d2a371c34" y="132.38"/>
      </g>
     </g>
     <g id="text_5">
      <!-- 4 -->
      <defs>
       <path d="M 37.796875 64.3125 
L 12.890625 25.390625 
L 37.796875 25.390625 
z
M 35.203125 72.90625 
L 47.609375 72.90625 
L 47.609375 25.390625 
L 58.015625 25.390625 
L 58.015625 17.1875 
L 47.609375 17.1875 
L 47.609375 0 
L 37.796875 0 
L 37.796875 17.1875 
L 4.890625 17.1875 
L 4.890625 26.703125 
z
" id="DejaVuSans-52"/>
      </defs>
      <g style="fill:#4d4d4d;" transform="translate(251.512352 142.929)rotate(-90)scale(0.088 -0.088)">
       <use xlink:href="#DejaVuSans-52"/>
      </g>
     </g>
    </g>
    <g id="xtick_6">
     <g id="line2d_6">
      <path d="M 269.230015 132.38 
" style="fill:none;stroke:#333333;stroke-width:1.5;"/>
      <g>
       <use style="fill:#333333;stroke:#333333;" x="269.230015" xlink:href="#m2d2a371c34" y="132.38"/>
      </g>
     </g>
     <g id="text_6">
      <!-- 4.5 -->
      <g style="fill:#4d4d4d;" transform="translate(271.658265 151.32475)rotate(-90)scale(0.088 -0.088)">
       <use xlink:href="#DejaVuSans-52"/>
       <use x="63.623047" xlink:href="#DejaVuSans-46"/>
       <use x="95.410156" xlink:href="#DejaVuSans-53"/>
      </g>
     </g>
    </g>
    <g id="xtick_7"/>
    <g id="xtick_8"/>
    <g id="xtick_9"/>
    <g id="xtick_10"/>
    <g id="xtick_11"/>
   </g>
   <g id="matplotlib.axis_2">
    <g id="ytick_1">
     <g id="line2d_7">
      <path d="M 164.152813 124.266829 
" style="fill:none;stroke:#333333;stroke-width:1.5;"/>
      <defs>
       <path d="M 0 0 
L -2.75 0 
" id="me5e310fad5" style="stroke:#333333;"/>
      </defs>
      <g>
       <use style="fill:#333333;stroke:#333333;" x="164.152813" xlink:href="#me5e310fad5" y="124.266829"/>
      </g>
     </g>
     <g id="text_7">
      <!-- 456-484 -->
      <defs>
       <path d="M 33.015625 40.375 
Q 26.375 40.375 22.484375 35.828125 
Q 18.609375 31.296875 18.609375 23.390625 
Q 18.609375 15.53125 22.484375 10.953125 
Q 26.375 6.390625 33.015625 6.390625 
Q 39.65625 6.390625 43.53125 10.953125 
Q 47.40625 15.53125 47.40625 23.390625 
Q 47.40625 31.296875 43.53125 35.828125 
Q 39.65625 40.375 33.015625 40.375 
z
M 52.59375 71.296875 
L 52.59375 62.3125 
Q 48.875 64.0625 45.09375 64.984375 
Q 41.3125 65.921875 37.59375 65.921875 
Q 27.828125 65.921875 22.671875 59.328125 
Q 17.53125 52.734375 16.796875 39.40625 
Q 19.671875 43.65625 24.015625 45.921875 
Q 28.375 48.1875 33.59375 48.1875 
Q 44.578125 48.1875 50.953125 41.515625 
Q 57.328125 34.859375 57.328125 23.390625 
Q 57.328125 12.15625 50.6875 5.359375 
Q 44.046875 -1.421875 33.015625 -1.421875 
Q 20.359375 -1.421875 13.671875 8.265625 
Q 6.984375 17.96875 6.984375 36.375 
Q 6.984375 53.65625 15.1875 63.9375 
Q 23.390625 74.21875 37.203125 74.21875 
Q 40.921875 74.21875 44.703125 73.484375 
Q 48.484375 72.75 52.59375 71.296875 
z
" id="DejaVuSans-54"/>
       <path d="M 4.890625 31.390625 
L 31.203125 31.390625 
L 31.203125 23.390625 
L 4.890625 23.390625 
z
" id="DejaVuSans-45"/>
       <path d="M 31.78125 34.625 
Q 24.75 34.625 20.71875 30.859375 
Q 16.703125 27.09375 16.703125 20.515625 
Q 16.703125 13.921875 20.71875 10.15625 
Q 24.75 6.390625 31.78125 6.390625 
Q 38.8125 6.390625 42.859375 10.171875 
Q 46.921875 13.96875 46.921875 20.515625 
Q 46.921875 27.09375 42.890625 30.859375 
Q 38.875 34.625 31.78125 34.625 
z
M 21.921875 38.8125 
Q 15.578125 40.375 12.03125 44.71875 
Q 8.5 49.078125 8.5 55.328125 
Q 8.5 64.0625 14.71875 69.140625 
Q 20.953125 74.21875 31.78125 74.21875 
Q 42.671875 74.21875 48.875 69.140625 
Q 55.078125 64.0625 55.078125 55.328125 
Q 55.078125 49.078125 51.53125 44.71875 
Q 48 40.375 41.703125 38.8125 
Q 48.828125 37.15625 52.796875 32.3125 
Q 56.78125 27.484375 56.78125 20.515625 
Q 56.78125 9.90625 50.3125 4.234375 
Q 43.84375 -1.421875 31.78125 -1.421875 
Q 19.734375 -1.421875 13.25 4.234375 
Q 6.78125 9.90625 6.78125 20.515625 
Q 6.78125 27.484375 10.78125 32.3125 
Q 14.796875 37.15625 21.921875 38.8125 
z
M 18.3125 54.390625 
Q 18.3125 48.734375 21.84375 45.5625 
Q 25.390625 42.390625 31.78125 42.390625 
Q 38.140625 42.390625 41.71875 45.5625 
Q 45.3125 48.734375 45.3125 54.390625 
Q 45.3125 60.0625 41.71875 63.234375 
Q 38.140625 66.40625 31.78125 66.40625 
Q 25.390625 66.40625 21.84375 63.234375 
Q 18.3125 60.0625 18.3125 54.390625 
z
" id="DejaVuSans-56"/>
      </defs>
      <g style="fill:#4d4d4d;" transform="translate(122.433938 126.695079)scale(0.088 -0.088)">
       <use xlink:href="#DejaVuSans-52"/>
       <use x="63.623047" xlink:href="#DejaVuSans-53"/>
       <use x="127.246094" xlink:href="#DejaVuSans-54"/>
       <use x="190.869141" xlink:href="#DejaVuSans-45"/>
       <use x="226.953125" xlink:href="#DejaVuSans-52"/>
       <use x="290.576172" xlink:href="#DejaVuSans-56"/>
       <use x="354.199219" xlink:href="#DejaVuSans-52"/>
      </g>
     </g>
    </g>
    <g id="ytick_2">
     <g id="line2d_8">
      <path d="M 164.152813 110.744878 
" style="fill:none;stroke:#333333;stroke-width:1.5;"/>
      <g>
       <use style="fill:#333333;stroke:#333333;" x="164.152813" xlink:href="#me5e310fad5" y="110.744878"/>
      </g>
     </g>
     <g id="text_8">
      <!-- 456-484 low magnitude -->
      <defs>
       <path id="DejaVuSans-32"/>
       <path d="M 9.421875 75.984375 
L 18.40625 75.984375 
L 18.40625 0 
L 9.421875 0 
z
" id="DejaVuSans-108"/>
       <path d="M 30.609375 48.390625 
Q 23.390625 48.390625 19.1875 42.75 
Q 14.984375 37.109375 14.984375 27.296875 
Q 14.984375 17.484375 19.15625 11.84375 
Q 23.34375 6.203125 30.609375 6.203125 
Q 37.796875 6.203125 41.984375 11.859375 
Q 46.1875 17.53125 46.1875 27.296875 
Q 46.1875 37.015625 41.984375 42.703125 
Q 37.796875 48.390625 30.609375 48.390625 
z
M 30.609375 56 
Q 42.328125 56 49.015625 48.375 
Q 55.71875 40.765625 55.71875 27.296875 
Q 55.71875 13.875 49.015625 6.21875 
Q 42.328125 -1.421875 30.609375 -1.421875 
Q 18.84375 -1.421875 12.171875 6.21875 
Q 5.515625 13.875 5.515625 27.296875 
Q 5.515625 40.765625 12.171875 48.375 
Q 18.84375 56 30.609375 56 
z
" id="DejaVuSans-111"/>
       <path d="M 4.203125 54.6875 
L 13.1875 54.6875 
L 24.421875 12.015625 
L 35.59375 54.6875 
L 46.1875 54.6875 
L 57.421875 12.015625 
L 68.609375 54.6875 
L 77.59375 54.6875 
L 63.28125 0 
L 52.6875 0 
L 40.921875 44.828125 
L 29.109375 0 
L 18.5 0 
z
" id="DejaVuSans-119"/>
       <path d="M 52 44.1875 
Q 55.375 50.25 60.0625 53.125 
Q 64.75 56 71.09375 56 
Q 79.640625 56 84.28125 50.015625 
Q 88.921875 44.046875 88.921875 33.015625 
L 88.921875 0 
L 79.890625 0 
L 79.890625 32.71875 
Q 79.890625 40.578125 77.09375 44.375 
Q 74.3125 48.1875 68.609375 48.1875 
Q 61.625 48.1875 57.5625 43.546875 
Q 53.515625 38.921875 53.515625 30.90625 
L 53.515625 0 
L 44.484375 0 
L 44.484375 32.71875 
Q 44.484375 40.625 41.703125 44.40625 
Q 38.921875 48.1875 33.109375 48.1875 
Q 26.21875 48.1875 22.15625 43.53125 
Q 18.109375 38.875 18.109375 30.90625 
L 18.109375 0 
L 9.078125 0 
L 9.078125 54.6875 
L 18.109375 54.6875 
L 18.109375 46.1875 
Q 21.1875 51.21875 25.484375 53.609375 
Q 29.78125 56 35.6875 56 
Q 41.65625 56 45.828125 52.96875 
Q 50 49.953125 52 44.1875 
z
" id="DejaVuSans-109"/>
       <path d="M 34.28125 27.484375 
Q 23.390625 27.484375 19.1875 25 
Q 14.984375 22.515625 14.984375 16.5 
Q 14.984375 11.71875 18.140625 8.90625 
Q 21.296875 6.109375 26.703125 6.109375 
Q 34.1875 6.109375 38.703125 11.40625 
Q 43.21875 16.703125 43.21875 25.484375 
L 43.21875 27.484375 
z
M 52.203125 31.203125 
L 52.203125 0 
L 43.21875 0 
L 43.21875 8.296875 
Q 40.140625 3.328125 35.546875 0.953125 
Q 30.953125 -1.421875 24.3125 -1.421875 
Q 15.921875 -1.421875 10.953125 3.296875 
Q 6 8.015625 6 15.921875 
Q 6 25.140625 12.171875 29.828125 
Q 18.359375 34.515625 30.609375 34.515625 
L 43.21875 34.515625 
L 43.21875 35.40625 
Q 43.21875 41.609375 39.140625 45 
Q 35.0625 48.390625 27.6875 48.390625 
Q 23 48.390625 18.546875 47.265625 
Q 14.109375 46.140625 10.015625 43.890625 
L 10.015625 52.203125 
Q 14.9375 54.109375 19.578125 55.046875 
Q 24.21875 56 28.609375 56 
Q 40.484375 56 46.34375 49.84375 
Q 52.203125 43.703125 52.203125 31.203125 
z
" id="DejaVuSans-97"/>
       <path d="M 45.40625 27.984375 
Q 45.40625 37.75 41.375 43.109375 
Q 37.359375 48.484375 30.078125 48.484375 
Q 22.859375 48.484375 18.828125 43.109375 
Q 14.796875 37.75 14.796875 27.984375 
Q 14.796875 18.265625 18.828125 12.890625 
Q 22.859375 7.515625 30.078125 7.515625 
Q 37.359375 7.515625 41.375 12.890625 
Q 45.40625 18.265625 45.40625 27.984375 
z
M 54.390625 6.78125 
Q 54.390625 -7.171875 48.1875 -13.984375 
Q 42 -20.796875 29.203125 -20.796875 
Q 24.46875 -20.796875 20.265625 -20.09375 
Q 16.0625 -19.390625 12.109375 -17.921875 
L 12.109375 -9.1875 
Q 16.0625 -11.328125 19.921875 -12.34375 
Q 23.78125 -13.375 27.78125 -13.375 
Q 36.625 -13.375 41.015625 -8.765625 
Q 45.40625 -4.15625 45.40625 5.171875 
L 45.40625 9.625 
Q 42.625 4.78125 38.28125 2.390625 
Q 33.9375 0 27.875 0 
Q 17.828125 0 11.671875 7.65625 
Q 5.515625 15.328125 5.515625 27.984375 
Q 5.515625 40.671875 11.671875 48.328125 
Q 17.828125 56 27.875 56 
Q 33.9375 56 38.28125 53.609375 
Q 42.625 51.21875 45.40625 46.390625 
L 45.40625 54.6875 
L 54.390625 54.6875 
z
" id="DejaVuSans-103"/>
       <path d="M 54.890625 33.015625 
L 54.890625 0 
L 45.90625 0 
L 45.90625 32.71875 
Q 45.90625 40.484375 42.875 44.328125 
Q 39.84375 48.1875 33.796875 48.1875 
Q 26.515625 48.1875 22.3125 43.546875 
Q 18.109375 38.921875 18.109375 30.90625 
L 18.109375 0 
L 9.078125 0 
L 9.078125 54.6875 
L 18.109375 54.6875 
L 18.109375 46.1875 
Q 21.34375 51.125 25.703125 53.5625 
Q 30.078125 56 35.796875 56 
Q 45.21875 56 50.046875 50.171875 
Q 54.890625 44.34375 54.890625 33.015625 
z
" id="DejaVuSans-110"/>
       <path d="M 9.421875 54.6875 
L 18.40625 54.6875 
L 18.40625 0 
L 9.421875 0 
z
M 9.421875 75.984375 
L 18.40625 75.984375 
L 18.40625 64.59375 
L 9.421875 64.59375 
z
" id="DejaVuSans-105"/>
       <path d="M 18.3125 70.21875 
L 18.3125 54.6875 
L 36.8125 54.6875 
L 36.8125 47.703125 
L 18.3125 47.703125 
L 18.3125 18.015625 
Q 18.3125 11.328125 20.140625 9.421875 
Q 21.96875 7.515625 27.59375 7.515625 
L 36.8125 7.515625 
L 36.8125 0 
L 27.59375 0 
Q 17.1875 0 13.234375 3.875 
Q 9.28125 7.765625 9.28125 18.015625 
L 9.28125 47.703125 
L 2.6875 47.703125 
L 2.6875 54.6875 
L 9.28125 54.6875 
L 9.28125 70.21875 
z
" id="DejaVuSans-116"/>
       <path d="M 8.5 21.578125 
L 8.5 54.6875 
L 17.484375 54.6875 
L 17.484375 21.921875 
Q 17.484375 14.15625 20.5 10.265625 
Q 23.53125 6.390625 29.59375 6.390625 
Q 36.859375 6.390625 41.078125 11.03125 
Q 45.3125 15.671875 45.3125 23.6875 
L 45.3125 54.6875 
L 54.296875 54.6875 
L 54.296875 0 
L 45.3125 0 
L 45.3125 8.40625 
Q 42.046875 3.421875 37.71875 1 
Q 33.40625 -1.421875 27.6875 -1.421875 
Q 18.265625 -1.421875 13.375 4.4375 
Q 8.5 10.296875 8.5 21.578125 
z
M 31.109375 56 
z
" id="DejaVuSans-117"/>
       <path d="M 45.40625 46.390625 
L 45.40625 75.984375 
L 54.390625 75.984375 
L 54.390625 0 
L 45.40625 0 
L 45.40625 8.203125 
Q 42.578125 3.328125 38.25 0.953125 
Q 33.9375 -1.421875 27.875 -1.421875 
Q 17.96875 -1.421875 11.734375 6.484375 
Q 5.515625 14.40625 5.515625 27.296875 
Q 5.515625 40.1875 11.734375 48.09375 
Q 17.96875 56 27.875 56 
Q 33.9375 56 38.25 53.625 
Q 42.578125 51.265625 45.40625 46.390625 
z
M 14.796875 27.296875 
Q 14.796875 17.390625 18.875 11.75 
Q 22.953125 6.109375 30.078125 6.109375 
Q 37.203125 6.109375 41.296875 11.75 
Q 45.40625 17.390625 45.40625 27.296875 
Q 45.40625 37.203125 41.296875 42.84375 
Q 37.203125 48.484375 30.078125 48.484375 
Q 22.953125 48.484375 18.875 42.84375 
Q 14.796875 37.203125 14.796875 27.296875 
z
" id="DejaVuSans-100"/>
       <path d="M 56.203125 29.59375 
L 56.203125 25.203125 
L 14.890625 25.203125 
Q 15.484375 15.921875 20.484375 11.0625 
Q 25.484375 6.203125 34.421875 6.203125 
Q 39.59375 6.203125 44.453125 7.46875 
Q 49.3125 8.734375 54.109375 11.28125 
L 54.109375 2.78125 
Q 49.265625 0.734375 44.1875 -0.34375 
Q 39.109375 -1.421875 33.890625 -1.421875 
Q 20.796875 -1.421875 13.15625 6.1875 
Q 5.515625 13.8125 5.515625 26.8125 
Q 5.515625 40.234375 12.765625 48.109375 
Q 20.015625 56 32.328125 56 
Q 43.359375 56 49.78125 48.890625 
Q 56.203125 41.796875 56.203125 29.59375 
z
M 47.21875 32.234375 
Q 47.125 39.59375 43.09375 43.984375 
Q 39.0625 48.390625 32.421875 48.390625 
Q 24.90625 48.390625 20.390625 44.140625 
Q 15.875 39.890625 15.1875 32.171875 
z
" id="DejaVuSans-101"/>
      </defs>
      <g style="fill:#4d4d4d;" transform="translate(54.213313 113.173128)scale(0.088 -0.088)">
       <use xlink:href="#DejaVuSans-52"/>
       <use x="63.623047" xlink:href="#DejaVuSans-53"/>
       <use x="127.246094" xlink:href="#DejaVuSans-54"/>
       <use x="190.869141" xlink:href="#DejaVuSans-45"/>
       <use x="226.953125" xlink:href="#DejaVuSans-52"/>
       <use x="290.576172" xlink:href="#DejaVuSans-56"/>
       <use x="354.199219" xlink:href="#DejaVuSans-52"/>
       <use x="417.822266" xlink:href="#DejaVuSans-32"/>
       <use x="449.609375" xlink:href="#DejaVuSans-108"/>
       <use x="477.392578" xlink:href="#DejaVuSans-111"/>
       <use x="538.574219" xlink:href="#DejaVuSans-119"/>
       <use x="620.361328" xlink:href="#DejaVuSans-32"/>
       <use x="652.148438" xlink:href="#DejaVuSans-109"/>
       <use x="749.560547" xlink:href="#DejaVuSans-97"/>
       <use x="810.839844" xlink:href="#DejaVuSans-103"/>
       <use x="874.316406" xlink:href="#DejaVuSans-110"/>
       <use x="937.695312" xlink:href="#DejaVuSans-105"/>
       <use x="965.478516" xlink:href="#DejaVuSans-116"/>
       <use x="1004.6875" xlink:href="#DejaVuSans-117"/>
       <use x="1068.066406" xlink:href="#DejaVuSans-100"/>
       <use x="1131.542969" xlink:href="#DejaVuSans-101"/>
      </g>
     </g>
    </g>
    <g id="ytick_3">
     <g id="line2d_9">
      <path d="M 164.152813 97.222927 
" style="fill:none;stroke:#333333;stroke-width:1.5;"/>
      <g>
       <use style="fill:#333333;stroke:#333333;" x="164.152813" xlink:href="#me5e310fad5" y="97.222927"/>
      </g>
     </g>
     <g id="text_9">
      <!-- 456-484 noisy -->
      <defs>
       <path d="M 44.28125 53.078125 
L 44.28125 44.578125 
Q 40.484375 46.53125 36.375 47.5 
Q 32.28125 48.484375 27.875 48.484375 
Q 21.1875 48.484375 17.84375 46.4375 
Q 14.5 44.390625 14.5 40.28125 
Q 14.5 37.15625 16.890625 35.375 
Q 19.28125 33.59375 26.515625 31.984375 
L 29.59375 31.296875 
Q 39.15625 29.25 43.1875 25.515625 
Q 47.21875 21.78125 47.21875 15.09375 
Q 47.21875 7.46875 41.1875 3.015625 
Q 35.15625 -1.421875 24.609375 -1.421875 
Q 20.21875 -1.421875 15.453125 -0.5625 
Q 10.6875 0.296875 5.421875 2 
L 5.421875 11.28125 
Q 10.40625 8.6875 15.234375 7.390625 
Q 20.0625 6.109375 24.8125 6.109375 
Q 31.15625 6.109375 34.5625 8.28125 
Q 37.984375 10.453125 37.984375 14.40625 
Q 37.984375 18.0625 35.515625 20.015625 
Q 33.0625 21.96875 24.703125 23.78125 
L 21.578125 24.515625 
Q 13.234375 26.265625 9.515625 29.90625 
Q 5.8125 33.546875 5.8125 39.890625 
Q 5.8125 47.609375 11.28125 51.796875 
Q 16.75 56 26.8125 56 
Q 31.78125 56 36.171875 55.265625 
Q 40.578125 54.546875 44.28125 53.078125 
z
" id="DejaVuSans-115"/>
       <path d="M 32.171875 -5.078125 
Q 28.375 -14.84375 24.75 -17.8125 
Q 21.140625 -20.796875 15.09375 -20.796875 
L 7.90625 -20.796875 
L 7.90625 -13.28125 
L 13.1875 -13.28125 
Q 16.890625 -13.28125 18.9375 -11.515625 
Q 21 -9.765625 23.484375 -3.21875 
L 25.09375 0.875 
L 2.984375 54.6875 
L 12.5 54.6875 
L 29.59375 11.921875 
L 46.6875 54.6875 
L 56.203125 54.6875 
z
" id="DejaVuSans-121"/>
      </defs>
      <g style="fill:#4d4d4d;" transform="translate(96.438188 99.651177)scale(0.088 -0.088)">
       <use xlink:href="#DejaVuSans-52"/>
       <use x="63.623047" xlink:href="#DejaVuSans-53"/>
       <use x="127.246094" xlink:href="#DejaVuSans-54"/>
       <use x="190.869141" xlink:href="#DejaVuSans-45"/>
       <use x="226.953125" xlink:href="#DejaVuSans-52"/>
       <use x="290.576172" xlink:href="#DejaVuSans-56"/>
       <use x="354.199219" xlink:href="#DejaVuSans-52"/>
       <use x="417.822266" xlink:href="#DejaVuSans-32"/>
       <use x="449.609375" xlink:href="#DejaVuSans-110"/>
       <use x="512.988281" xlink:href="#DejaVuSans-111"/>
       <use x="574.169922" xlink:href="#DejaVuSans-105"/>
       <use x="601.953125" xlink:href="#DejaVuSans-115"/>
       <use x="654.052734" xlink:href="#DejaVuSans-121"/>
      </g>
     </g>
    </g>
    <g id="ytick_4">
     <g id="line2d_10">
      <path d="M 164.152813 83.700976 
" style="fill:none;stroke:#333333;stroke-width:1.5;"/>
      <g>
       <use style="fill:#333333;stroke:#333333;" x="164.152813" xlink:href="#me5e310fad5" y="83.700976"/>
      </g>
     </g>
     <g id="text_10">
      <!-- 456-484 low magnitude - noisy -->
      <g style="fill:#4d4d4d;" transform="translate(22.245938 86.129226)scale(0.088 -0.088)">
       <use xlink:href="#DejaVuSans-52"/>
       <use x="63.623047" xlink:href="#DejaVuSans-53"/>
       <use x="127.246094" xlink:href="#DejaVuSans-54"/>
       <use x="190.869141" xlink:href="#DejaVuSans-45"/>
       <use x="226.953125" xlink:href="#DejaVuSans-52"/>
       <use x="290.576172" xlink:href="#DejaVuSans-56"/>
       <use x="354.199219" xlink:href="#DejaVuSans-52"/>
       <use x="417.822266" xlink:href="#DejaVuSans-32"/>
       <use x="449.609375" xlink:href="#DejaVuSans-108"/>
       <use x="477.392578" xlink:href="#DejaVuSans-111"/>
       <use x="538.574219" xlink:href="#DejaVuSans-119"/>
       <use x="620.361328" xlink:href="#DejaVuSans-32"/>
       <use x="652.148438" xlink:href="#DejaVuSans-109"/>
       <use x="749.560547" xlink:href="#DejaVuSans-97"/>
       <use x="810.839844" xlink:href="#DejaVuSans-103"/>
       <use x="874.316406" xlink:href="#DejaVuSans-110"/>
       <use x="937.695312" xlink:href="#DejaVuSans-105"/>
       <use x="965.478516" xlink:href="#DejaVuSans-116"/>
       <use x="1004.6875" xlink:href="#DejaVuSans-117"/>
       <use x="1068.066406" xlink:href="#DejaVuSans-100"/>
       <use x="1131.542969" xlink:href="#DejaVuSans-101"/>
       <use x="1193.066406" xlink:href="#DejaVuSans-32"/>
       <use x="1224.853516" xlink:href="#DejaVuSans-45"/>
       <use x="1260.9375" xlink:href="#DejaVuSans-32"/>
       <use x="1292.724609" xlink:href="#DejaVuSans-110"/>
       <use x="1356.103516" xlink:href="#DejaVuSans-111"/>
       <use x="1417.285156" xlink:href="#DejaVuSans-105"/>
       <use x="1445.068359" xlink:href="#DejaVuSans-115"/>
       <use x="1497.167969" xlink:href="#DejaVuSans-121"/>
      </g>
     </g>
    </g>
    <g id="ytick_5">
     <g id="line2d_11">
      <path d="M 164.152813 70.179024 
" style="fill:none;stroke:#333333;stroke-width:1.5;"/>
      <g>
       <use style="fill:#333333;stroke:#333333;" x="164.152813" xlink:href="#me5e310fad5" y="70.179024"/>
      </g>
     </g>
     <g id="text_11">
      <!-- 443-450 -->
      <defs>
       <path d="M 31.78125 66.40625 
Q 24.171875 66.40625 20.328125 58.90625 
Q 16.5 51.421875 16.5 36.375 
Q 16.5 21.390625 20.328125 13.890625 
Q 24.171875 6.390625 31.78125 6.390625 
Q 39.453125 6.390625 43.28125 13.890625 
Q 47.125 21.390625 47.125 36.375 
Q 47.125 51.421875 43.28125 58.90625 
Q 39.453125 66.40625 31.78125 66.40625 
z
M 31.78125 74.21875 
Q 44.046875 74.21875 50.515625 64.515625 
Q 56.984375 54.828125 56.984375 36.375 
Q 56.984375 17.96875 50.515625 8.265625 
Q 44.046875 -1.421875 31.78125 -1.421875 
Q 19.53125 -1.421875 13.0625 8.265625 
Q 6.59375 17.96875 6.59375 36.375 
Q 6.59375 54.828125 13.0625 64.515625 
Q 19.53125 74.21875 31.78125 74.21875 
z
" id="DejaVuSans-48"/>
      </defs>
      <g style="fill:#4d4d4d;" transform="translate(122.433938 72.607274)scale(0.088 -0.088)">
       <use xlink:href="#DejaVuSans-52"/>
       <use x="63.623047" xlink:href="#DejaVuSans-52"/>
       <use x="127.246094" xlink:href="#DejaVuSans-51"/>
       <use x="190.869141" xlink:href="#DejaVuSans-45"/>
       <use x="226.953125" xlink:href="#DejaVuSans-52"/>
       <use x="290.576172" xlink:href="#DejaVuSans-53"/>
       <use x="354.199219" xlink:href="#DejaVuSans-48"/>
      </g>
     </g>
    </g>
    <g id="ytick_6">
     <g id="line2d_12">
      <path d="M 164.152813 56.657073 
" style="fill:none;stroke:#333333;stroke-width:1.5;"/>
      <g>
       <use style="fill:#333333;stroke:#333333;" x="164.152813" xlink:href="#me5e310fad5" y="56.657073"/>
      </g>
     </g>
     <g id="text_12">
      <!-- core -->
      <defs>
       <path d="M 48.78125 52.59375 
L 48.78125 44.1875 
Q 44.96875 46.296875 41.140625 47.34375 
Q 37.3125 48.390625 33.40625 48.390625 
Q 24.65625 48.390625 19.8125 42.84375 
Q 14.984375 37.3125 14.984375 27.296875 
Q 14.984375 17.28125 19.8125 11.734375 
Q 24.65625 6.203125 33.40625 6.203125 
Q 37.3125 6.203125 41.140625 7.25 
Q 44.96875 8.296875 48.78125 10.40625 
L 48.78125 2.09375 
Q 45.015625 0.34375 40.984375 -0.53125 
Q 36.96875 -1.421875 32.421875 -1.421875 
Q 20.0625 -1.421875 12.78125 6.34375 
Q 5.515625 14.109375 5.515625 27.296875 
Q 5.515625 40.671875 12.859375 48.328125 
Q 20.21875 56 33.015625 56 
Q 37.15625 56 41.109375 55.140625 
Q 45.0625 54.296875 48.78125 52.59375 
z
" id="DejaVuSans-99"/>
       <path d="M 41.109375 46.296875 
Q 39.59375 47.171875 37.8125 47.578125 
Q 36.03125 48 33.890625 48 
Q 26.265625 48 22.1875 43.046875 
Q 18.109375 38.09375 18.109375 28.8125 
L 18.109375 0 
L 9.078125 0 
L 9.078125 54.6875 
L 18.109375 54.6875 
L 18.109375 46.1875 
Q 20.953125 51.171875 25.484375 53.578125 
Q 30.03125 56 36.53125 56 
Q 37.453125 56 38.578125 55.875 
Q 39.703125 55.765625 41.0625 55.515625 
z
" id="DejaVuSans-114"/>
      </defs>
      <g style="fill:#4d4d4d;" transform="translate(140.145313 59.085323)scale(0.088 -0.088)">
       <use xlink:href="#DejaVuSans-99"/>
       <use x="54.980469" xlink:href="#DejaVuSans-111"/>
       <use x="116.162109" xlink:href="#DejaVuSans-114"/>
       <use x="155.025391" xlink:href="#DejaVuSans-101"/>
      </g>
     </g>
    </g>
    <g id="ytick_7">
     <g id="line2d_13">
      <path d="M 164.152813 43.135122 
" style="fill:none;stroke:#333333;stroke-width:1.5;"/>
      <g>
       <use style="fill:#333333;stroke:#333333;" x="164.152813" xlink:href="#me5e310fad5" y="43.135122"/>
      </g>
     </g>
     <g id="text_13">
      <!-- flat - noisy -->
      <defs>
       <path d="M 37.109375 75.984375 
L 37.109375 68.5 
L 28.515625 68.5 
Q 23.6875 68.5 21.796875 66.546875 
Q 19.921875 64.59375 19.921875 59.515625 
L 19.921875 54.6875 
L 34.71875 54.6875 
L 34.71875 47.703125 
L 19.921875 47.703125 
L 19.921875 0 
L 10.890625 0 
L 10.890625 47.703125 
L 2.296875 47.703125 
L 2.296875 54.6875 
L 10.890625 54.6875 
L 10.890625 58.5 
Q 10.890625 67.625 15.140625 71.796875 
Q 19.390625 75.984375 28.609375 75.984375 
z
" id="DejaVuSans-102"/>
      </defs>
      <g style="fill:#4d4d4d;" transform="translate(112.850188 45.563372)scale(0.088 -0.088)">
       <use xlink:href="#DejaVuSans-102"/>
       <use x="35.205078" xlink:href="#DejaVuSans-108"/>
       <use x="62.988281" xlink:href="#DejaVuSans-97"/>
       <use x="124.267578" xlink:href="#DejaVuSans-116"/>
       <use x="163.476562" xlink:href="#DejaVuSans-32"/>
       <use x="195.263672" xlink:href="#DejaVuSans-45"/>
       <use x="231.347656" xlink:href="#DejaVuSans-32"/>
       <use x="263.134766" xlink:href="#DejaVuSans-110"/>
       <use x="326.513672" xlink:href="#DejaVuSans-111"/>
       <use x="387.695312" xlink:href="#DejaVuSans-105"/>
       <use x="415.478516" xlink:href="#DejaVuSans-115"/>
       <use x="467.578125" xlink:href="#DejaVuSans-121"/>
      </g>
     </g>
    </g>
    <g id="ytick_8">
     <g id="line2d_14">
      <path d="M 164.152813 29.613171 
" style="fill:none;stroke:#333333;stroke-width:1.5;"/>
      <g>
       <use style="fill:#333333;stroke:#333333;" x="164.152813" xlink:href="#me5e310fad5" y="29.613171"/>
      </g>
     </g>
     <g id="text_14">
      <!-- flat -->
      <g style="fill:#4d4d4d;" transform="translate(144.817563 32.041421)scale(0.088 -0.088)">
       <use xlink:href="#DejaVuSans-102"/>
       <use x="35.205078" xlink:href="#DejaVuSans-108"/>
       <use x="62.988281" xlink:href="#DejaVuSans-97"/>
       <use x="124.267578" xlink:href="#DejaVuSans-116"/>
      </g>
     </g>
    </g>
    <g id="text_15">
     <!-- escape map -->
     <defs>
      <path d="M 18.109375 8.203125 
L 18.109375 -20.796875 
L 9.078125 -20.796875 
L 9.078125 54.6875 
L 18.109375 54.6875 
L 18.109375 46.390625 
Q 20.953125 51.265625 25.265625 53.625 
Q 29.59375 56 35.59375 56 
Q 45.5625 56 51.78125 48.09375 
Q 58.015625 40.1875 58.015625 27.296875 
Q 58.015625 14.40625 51.78125 6.484375 
Q 45.5625 -1.421875 35.59375 -1.421875 
Q 29.59375 -1.421875 25.265625 0.953125 
Q 20.953125 3.328125 18.109375 8.203125 
z
M 48.6875 27.296875 
Q 48.6875 37.203125 44.609375 42.84375 
Q 40.53125 48.484375 33.40625 48.484375 
Q 26.265625 48.484375 22.1875 42.84375 
Q 18.109375 37.203125 18.109375 27.296875 
Q 18.109375 17.390625 22.1875 11.75 
Q 26.265625 6.109375 33.40625 6.109375 
Q 40.53125 6.109375 44.609375 11.75 
Q 48.6875 17.390625 48.6875 27.296875 
z
" id="DejaVuSans-112"/>
     </defs>
     <g transform="translate(15.558281 109.707266)rotate(-90)scale(0.11 -0.11)">
      <use xlink:href="#DejaVuSans-101"/>
      <use x="61.523438" xlink:href="#DejaVuSans-115"/>
      <use x="113.623047" xlink:href="#DejaVuSans-99"/>
      <use x="168.603516" xlink:href="#DejaVuSans-97"/>
      <use x="229.882812" xlink:href="#DejaVuSans-112"/>
      <use x="293.359375" xlink:href="#DejaVuSans-101"/>
      <use x="354.882812" xlink:href="#DejaVuSans-32"/>
      <use x="386.669922" xlink:href="#DejaVuSans-109"/>
      <use x="484.082031" xlink:href="#DejaVuSans-97"/>
      <use x="545.361328" xlink:href="#DejaVuSans-112"/>
     </g>
    </g>
   </g>
   <g id="PathCollection_1">
    <path clip-path="url(#pb1437b468a)" d="M 245.330858 126.540974 
C 246.035948 126.540974 246.712255 126.260839 247.210829 125.762264 
C 247.709403 125.26369 247.989539 124.587384 247.989539 123.882293 
C 247.989539 123.177203 247.709403 122.500896 247.210829 122.002322 
C 246.712255 121.503748 246.035948 121.223613 245.330858 121.223613 
C 244.625767 121.223613 243.949461 121.503748 243.450887 122.002322 
C 242.952312 122.500896 242.672177 123.177203 242.672177 123.882293 
C 242.672177 124.587384 242.952312 125.26369 243.450887 125.762264 
C 243.949461 126.260839 244.625767 126.540974 245.330858 126.540974 
z
" style="fill-opacity:0.25098;stroke:#000000;stroke-opacity:0.25098;stroke-width:0.886227;"/>
    <path clip-path="url(#pb1437b468a)" d="M 226.916685 125.588258 
C 227.621775 125.588258 228.298082 125.308122 228.796656 124.809548 
C 229.29523 124.310974 229.575366 123.634667 229.575366 122.929577 
C 229.575366 122.224486 229.29523 121.54818 228.796656 121.049606 
C 228.298082 120.551031 227.621775 120.270896 226.916685 120.270896 
C 226.211594 120.270896 225.535288 120.551031 225.036714 121.049606 
C 224.538139 121.54818 224.258004 122.224486 224.258004 122.929577 
C 224.258004 123.634667 224.538139 124.310974 225.036714 124.809548 
C 225.535288 125.308122 226.211594 125.588258 226.916685 125.588258 
z
" style="fill-opacity:0.25098;stroke:#000000;stroke-opacity:0.25098;stroke-width:0.886227;"/>
    <path clip-path="url(#pb1437b468a)" d="M 204.971334 87.62007 
C 205.676424 87.62007 206.352731 87.339935 206.851305 86.84136 
C 207.34988 86.342786 207.630015 85.66648 207.630015 84.961389 
C 207.630015 84.256299 207.34988 83.579992 206.851305 83.081418 
C 206.352731 82.582844 205.676424 82.302708 204.971334 82.302708 
C 204.266244 82.302708 203.589937 82.582844 203.091363 83.081418 
C 202.592789 83.579992 202.312653 84.256299 202.312653 84.961389 
C 202.312653 85.66648 202.592789 86.342786 203.091363 86.84136 
C 203.589937 87.339935 204.266244 87.62007 204.971334 87.62007 
z
" style="fill-opacity:0.25098;stroke:#000000;stroke-opacity:0.25098;stroke-width:0.886227;"/>
    <path clip-path="url(#pb1437b468a)" d="M 220.280771 128.94179 
C 220.985861 128.94179 221.662168 128.661654 222.160742 128.16308 
C 222.659316 127.664506 222.939451 126.988199 222.939451 126.283109 
C 222.939451 125.578018 222.659316 124.901712 222.160742 124.403138 
C 221.662168 123.904563 220.985861 123.624428 220.280771 123.624428 
C 219.57568 123.624428 218.899373 123.904563 218.400799 124.403138 
C 217.902225 124.901712 217.62209 125.578018 217.62209 126.283109 
C 217.62209 126.988199 217.902225 127.664506 218.400799 128.16308 
C 218.899373 128.661654 219.57568 128.94179 220.280771 128.94179 
z
" style="fill-opacity:0.25098;stroke:#000000;stroke-opacity:0.25098;stroke-width:0.886227;"/>
    <path clip-path="url(#pb1437b468a)" d="M 184.315053 101.788869 
C 185.020143 101.788869 185.69645 101.508734 186.195024 101.01016 
C 186.693598 100.511585 186.973733 99.835279 186.973733 99.130188 
C 186.973733 98.425098 186.693598 97.748791 186.195024 97.250217 
C 185.69645 96.751643 185.020143 96.471508 184.315053 96.471508 
C 183.609962 96.471508 182.933656 96.751643 182.435082 97.250217 
C 181.936507 97.748791 181.656372 98.425098 181.656372 99.130188 
C 181.656372 99.835279 181.936507 100.511585 182.435082 101.01016 
C 182.933656 101.508734 183.609962 101.788869 184.315053 101.788869 
z
" style="fill-opacity:0.25098;stroke:#000000;stroke-opacity:0.25098;stroke-width:0.886227;"/>
    <path clip-path="url(#pb1437b468a)" d="M 228.695648 125.120863 
C 229.400738 125.120863 230.077045 124.840728 230.575619 124.342154 
C 231.074193 123.84358 231.354328 123.167273 231.354328 122.462183 
C 231.354328 121.757092 231.074193 121.080786 230.575619 120.582211 
C 230.077045 120.083637 229.400738 119.803502 228.695648 119.803502 
C 227.990557 119.803502 227.314251 120.083637 226.815676 120.582211 
C 226.317102 121.080786 226.036967 121.757092 226.036967 122.462183 
C 226.036967 123.167273 226.317102 123.84358 226.815676 124.342154 
C 227.314251 124.840728 227.990557 125.120863 228.695648 125.120863 
z
" style="fill-opacity:0.25098;stroke:#000000;stroke-opacity:0.25098;stroke-width:0.886227;"/>
    <path clip-path="url(#pb1437b468a)" d="M 208.548401 125.564538 
C 209.253491 125.564538 209.929798 125.284403 210.428372 124.785829 
C 210.926946 124.287255 211.207082 123.610948 211.207082 122.905858 
C 211.207082 122.200767 210.926946 121.524461 210.428372 121.025886 
C 209.929798 120.527312 209.253491 120.247177 208.548401 120.247177 
C 207.843311 120.247177 207.167004 120.527312 206.66843 121.025886 
C 206.169856 121.524461 205.88972 122.200767 205.88972 122.905858 
C 205.88972 123.610948 206.169856 124.287255 206.66843 124.785829 
C 207.167004 125.284403 207.843311 125.564538 208.548401 125.564538 
z
" style="fill-opacity:0.25098;stroke:#000000;stroke-opacity:0.25098;stroke-width:0.886227;"/>
    <path clip-path="url(#pb1437b468a)" d="M 207.214078 125.484602 
C 207.919168 125.484602 208.595475 125.204466 209.094049 124.705892 
C 209.592623 124.207318 209.872758 123.531011 209.872758 122.825921 
C 209.872758 122.120831 209.592623 121.444524 209.094049 120.94595 
C 208.595475 120.447376 207.919168 120.16724 207.214078 120.16724 
C 206.508987 120.16724 205.832681 120.447376 205.334106 120.94595 
C 204.835532 121.444524 204.555397 122.120831 204.555397 122.825921 
C 204.555397 123.531011 204.835532 124.207318 205.334106 124.705892 
C 205.832681 125.204466 206.508987 125.484602 207.214078 125.484602 
z
" style="fill-opacity:0.25098;stroke:#000000;stroke-opacity:0.25098;stroke-width:0.886227;"/>
    <path clip-path="url(#pb1437b468a)" d="M 207.540519 30.626695 
C 208.245609 30.626695 208.921916 30.346559 209.42049 29.847985 
C 209.919064 29.349411 210.1992 28.673104 210.1992 27.968014 
C 210.1992 27.262923 209.919064 26.586617 209.42049 26.088043 
C 208.921916 25.589468 208.245609 25.309333 207.540519 25.309333 
C 206.835428 25.309333 206.159122 25.589468 205.660548 26.088043 
C 205.161973 26.586617 204.881838 27.262923 204.881838 27.968014 
C 204.881838 28.673104 205.161973 29.349411 205.660548 29.847985 
C 206.159122 30.346559 206.835428 30.626695 207.540519 30.626695 
z
" style="fill-opacity:0.25098;stroke:#000000;stroke-opacity:0.25098;stroke-width:0.886227;"/>
    <path clip-path="url(#pb1437b468a)" d="M 202.886933 128.50159 
C 203.592024 128.50159 204.26833 128.221455 204.766904 127.722881 
C 205.265479 127.224307 205.545614 126.548 205.545614 125.84291 
C 205.545614 125.137819 205.265479 124.461513 204.766904 123.962939 
C 204.26833 123.464364 203.592024 123.184229 202.886933 123.184229 
C 202.181843 123.184229 201.505536 123.464364 201.006962 123.962939 
C 200.508388 124.461513 200.228252 125.137819 200.228252 125.84291 
C 200.228252 126.548 200.508388 127.224307 201.006962 127.722881 
C 201.505536 128.221455 202.181843 128.50159 202.886933 128.50159 
z
" style="fill-opacity:0.25098;stroke:#000000;stroke-opacity:0.25098;stroke-width:0.886227;"/>
    <path clip-path="url(#pb1437b468a)" d="M 198.91534 126.620552 
C 199.62043 126.620552 200.296737 126.340417 200.795311 125.841843 
C 201.293885 125.343268 201.574021 124.666962 201.574021 123.961871 
C 201.574021 123.256781 201.293885 122.580474 200.795311 122.0819 
C 200.296737 121.583326 199.62043 121.303191 198.91534 121.303191 
C 198.21025 121.303191 197.533943 121.583326 197.035369 122.0819 
C 196.536795 122.580474 196.256659 123.256781 196.256659 123.961871 
C 196.256659 124.666962 196.536795 125.343268 197.035369 125.841843 
C 197.533943 126.340417 198.21025 126.620552 198.91534 126.620552 
z
" style="fill-opacity:0.25098;stroke:#000000;stroke-opacity:0.25098;stroke-width:0.886227;"/>
    <path clip-path="url(#pb1437b468a)" d="M 170.345847 125.666463 
C 171.050938 125.666463 171.727244 125.386328 172.225818 124.887754 
C 172.724393 124.38918 173.004528 123.712873 173.004528 123.007782 
C 173.004528 122.302692 172.724393 121.626385 172.225818 121.127811 
C 171.727244 120.629237 171.050938 120.349102 170.345847 120.349102 
C 169.640757 120.349102 168.96445 120.629237 168.465876 121.127811 
C 167.967302 121.626385 167.687166 122.302692 167.687166 123.007782 
C 167.687166 123.712873 167.967302 124.38918 168.465876 124.887754 
C 168.96445 125.386328 169.640757 125.666463 170.345847 125.666463 
z
" style="fill-opacity:0.25098;stroke:#000000;stroke-opacity:0.25098;stroke-width:0.886227;"/>
    <path clip-path="url(#pb1437b468a)" d="M 169.110994 72.610846 
C 169.816085 72.610846 170.492391 72.330711 170.990966 71.832137 
C 171.48954 71.333563 171.769675 70.657256 171.769675 69.952165 
C 171.769675 69.247075 171.48954 68.570768 170.990966 68.072194 
C 170.492391 67.57362 169.816085 67.293485 169.110994 67.293485 
C 168.405904 67.293485 167.729597 67.57362 167.231023 68.072194 
C 166.732449 68.570768 166.452314 69.247075 166.452314 69.952165 
C 166.452314 70.657256 166.732449 71.333563 167.231023 71.832137 
C 167.729597 72.330711 168.405904 72.610846 169.110994 72.610846 
z
" style="fill-opacity:0.25098;stroke:#000000;stroke-opacity:0.25098;stroke-width:0.886227;"/>
    <path clip-path="url(#pb1437b468a)" d="M 268.274631 71.634325 
C 268.979721 71.634325 269.656028 71.354189 270.154602 70.855615 
C 270.653176 70.357041 270.933311 69.680734 270.933311 68.975644 
C 270.933311 68.270553 270.653176 67.594247 270.154602 67.095673 
C 269.656028 66.597098 268.979721 66.316963 268.274631 66.316963 
C 267.56954 66.316963 266.893234 66.597098 266.394659 67.095673 
C 265.896085 67.594247 265.61595 68.270553 265.61595 68.975644 
C 265.61595 69.680734 265.896085 70.357041 266.394659 70.855615 
C 266.893234 71.354189 267.56954 71.634325 268.274631 71.634325 
z
" style="fill-opacity:0.25098;stroke:#000000;stroke-opacity:0.25098;stroke-width:0.886227;"/>
    <path clip-path="url(#pb1437b468a)" d="M 189.002277 32.095785 
C 189.707367 32.095785 190.383674 31.815649 190.882248 31.317075 
C 191.380822 30.818501 191.660958 30.142194 191.660958 29.437104 
C 191.660958 28.732013 191.380822 28.055707 190.882248 27.557133 
C 190.383674 27.058558 189.707367 26.778423 189.002277 26.778423 
C 188.297186 26.778423 187.62088 27.058558 187.122306 27.557133 
C 186.623731 28.055707 186.343596 28.732013 186.343596 29.437104 
C 186.343596 30.142194 186.623731 30.818501 187.122306 31.317075 
C 187.62088 31.815649 188.297186 32.095785 189.002277 32.095785 
z
" style="fill-opacity:0.25098;stroke:#000000;stroke-opacity:0.25098;stroke-width:0.886227;"/>
    <path clip-path="url(#pb1437b468a)" d="M 207.278236 72.759267 
C 207.983327 72.759267 208.659633 72.479131 209.158207 71.980557 
C 209.656782 71.481983 209.936917 70.805676 209.936917 70.100586 
C 209.936917 69.395496 209.656782 68.719189 209.158207 68.220615 
C 208.659633 67.722041 207.983327 67.441905 207.278236 67.441905 
C 206.573146 67.441905 205.896839 67.722041 205.398265 68.220615 
C 204.899691 68.719189 204.619555 69.395496 204.619555 70.100586 
C 204.619555 70.805676 204.899691 71.481983 205.398265 71.980557 
C 205.896839 72.479131 206.573146 72.759267 207.278236 72.759267 
z
" style="fill-opacity:0.25098;stroke:#000000;stroke-opacity:0.25098;stroke-width:0.886227;"/>
    <path clip-path="url(#pb1437b468a)" d="M 203.792865 71.092694 
C 204.497956 71.092694 205.174262 70.812559 205.672836 70.313984 
C 206.171411 69.81541 206.451546 69.139104 206.451546 68.434013 
C 206.451546 67.728923 206.171411 67.052616 205.672836 66.554042 
C 205.174262 66.055468 204.497956 65.775332 203.792865 65.775332 
C 203.087775 65.775332 202.411468 66.055468 201.912894 66.554042 
C 201.41432 67.052616 201.134185 67.728923 201.134185 68.434013 
C 201.134185 69.139104 201.41432 69.81541 201.912894 70.313984 
C 202.411468 70.812559 203.087775 71.092694 203.792865 71.092694 
z
" style="fill-opacity:0.25098;stroke:#000000;stroke-opacity:0.25098;stroke-width:0.886227;"/>
    <path clip-path="url(#pb1437b468a)" d="M 175.46523 71.03031 
C 176.170321 71.03031 176.846627 70.750174 177.345202 70.2516 
C 177.843776 69.753026 178.123911 69.076719 178.123911 68.371629 
C 178.123911 67.666539 177.843776 66.990232 177.345202 66.491658 
C 176.846627 65.993084 176.170321 65.712948 175.46523 65.712948 
C 174.76014 65.712948 174.083833 65.993084 173.585259 66.491658 
C 173.086685 66.990232 172.80655 67.666539 172.80655 68.371629 
C 172.80655 69.076719 173.086685 69.753026 173.585259 70.2516 
C 174.083833 70.750174 174.76014 71.03031 175.46523 71.03031 
z
" style="fill-opacity:0.25098;stroke:#000000;stroke-opacity:0.25098;stroke-width:0.886227;"/>
    <path clip-path="url(#pb1437b468a)" d="M 199.354013 71.762704 
C 200.059104 71.762704 200.73541 71.482569 201.233985 70.983995 
C 201.732559 70.48542 202.012694 69.809114 202.012694 69.104023 
C 202.012694 68.398933 201.732559 67.722626 201.233985 67.224052 
C 200.73541 66.725478 200.059104 66.445343 199.354013 66.445343 
C 198.648923 66.445343 197.972616 66.725478 197.474042 67.224052 
C 196.975468 67.722626 196.695333 68.398933 196.695333 69.104023 
C 196.695333 69.809114 196.975468 70.48542 197.474042 70.983995 
C 197.972616 71.482569 198.648923 71.762704 199.354013 71.762704 
z
" style="fill-opacity:0.25098;stroke:#000000;stroke-opacity:0.25098;stroke-width:0.886227;"/>
    <path clip-path="url(#pb1437b468a)" d="M 204.315212 59.090225 
C 205.020302 59.090225 205.696609 58.81009 206.195183 58.311516 
C 206.693757 57.812942 206.973892 57.136635 206.973892 56.431544 
C 206.973892 55.726454 206.693757 55.050147 206.195183 54.551573 
C 205.696609 54.052999 205.020302 53.772864 204.315212 53.772864 
C 203.610121 53.772864 202.933815 54.052999 202.435241 54.551573 
C 201.936666 55.050147 201.656531 55.726454 201.656531 56.431544 
C 201.656531 57.136635 201.936666 57.812942 202.435241 58.311516 
C 202.933815 58.81009 203.610121 59.090225 204.315212 59.090225 
z
" style="fill-opacity:0.25098;stroke:#000000;stroke-opacity:0.25098;stroke-width:0.886227;"/>
    <path clip-path="url(#pb1437b468a)" d="M 193.405963 33.830142 
C 194.111053 33.830142 194.78736 33.550007 195.285934 33.051433 
C 195.784508 32.552858 196.064643 31.876552 196.064643 31.171461 
C 196.064643 30.466371 195.784508 29.790064 195.285934 29.29149 
C 194.78736 28.792916 194.111053 28.512781 193.405963 28.512781 
C 192.700872 28.512781 192.024566 28.792916 191.525991 29.29149 
C 191.027417 29.790064 190.747282 30.466371 190.747282 31.171461 
C 190.747282 31.876552 191.027417 32.552858 191.525991 33.051433 
C 192.024566 33.550007 192.700872 33.830142 193.405963 33.830142 
z
" style="fill-opacity:0.25098;stroke:#000000;stroke-opacity:0.25098;stroke-width:0.886227;"/>
    <path clip-path="url(#pb1437b468a)" d="M 192.989376 113.998996 
C 193.694466 113.998996 194.370773 113.71886 194.869347 113.220286 
C 195.367921 112.721712 195.648056 112.045405 195.648056 111.340315 
C 195.648056 110.635225 195.367921 109.958918 194.869347 109.460344 
C 194.370773 108.96177 193.694466 108.681634 192.989376 108.681634 
C 192.284285 108.681634 191.607978 108.96177 191.109404 109.460344 
C 190.61083 109.958918 190.330695 110.635225 190.330695 111.340315 
C 190.330695 112.045405 190.61083 112.721712 191.109404 113.220286 
C 191.607978 113.71886 192.284285 113.998996 192.989376 113.998996 
z
" style="fill-opacity:0.25098;stroke:#000000;stroke-opacity:0.25098;stroke-width:0.886227;"/>
    <path clip-path="url(#pb1437b468a)" d="M 188.121877 113.925941 
C 188.826967 113.925941 189.503274 113.645806 190.001848 113.147232 
C 190.500422 112.648657 190.780558 111.972351 190.780558 111.26726 
C 190.780558 110.56217 190.500422 109.885863 190.001848 109.387289 
C 189.503274 108.888715 188.826967 108.60858 188.121877 108.60858 
C 187.416786 108.60858 186.74048 108.888715 186.241906 109.387289 
C 185.743331 109.885863 185.463196 110.56217 185.463196 111.26726 
C 185.463196 111.972351 185.743331 112.648657 186.241906 113.147232 
C 186.74048 113.645806 187.416786 113.925941 188.121877 113.925941 
z
" style="fill-opacity:0.25098;stroke:#000000;stroke-opacity:0.25098;stroke-width:0.886227;"/>
   </g>
   <g id="patch_3">
    <path d="M 164.152813 21.5 
L 273.232813 21.5 
L 273.232813 7.2 
L 164.152813 7.2 
z
" style="fill:none;stroke:#000000;stroke-linejoin:miter;"/>
   </g>
   <g id="patch_4">
    <path d="M 164.152813 132.38 
L 164.152813 21.5 
" style="fill:none;stroke:#000000;stroke-linecap:square;stroke-linejoin:miter;"/>
   </g>
   <g id="patch_5">
    <path d="M 164.152813 132.38 
L 273.232813 132.38 
" style="fill:none;stroke:#000000;stroke-linecap:square;stroke-linejoin:miter;"/>
   </g>
   <g id="text_16">
    <!-- convalescent -->
    <defs>
     <path d="M 2.984375 54.6875 
L 12.5 54.6875 
L 29.59375 8.796875 
L 46.6875 54.6875 
L 56.203125 54.6875 
L 35.6875 0 
L 23.484375 0 
z
" id="DejaVuSans-118"/>
    </defs>
    <g style="fill:#1a1a1a;" transform="translate(189.630125 16.77825)scale(0.088 -0.088)">
     <use xlink:href="#DejaVuSans-99"/>
     <use x="54.980469" xlink:href="#DejaVuSans-111"/>
     <use x="116.162109" xlink:href="#DejaVuSans-110"/>
     <use x="179.541016" xlink:href="#DejaVuSans-118"/>
     <use x="238.720703" xlink:href="#DejaVuSans-97"/>
     <use x="300" xlink:href="#DejaVuSans-108"/>
     <use x="327.783203" xlink:href="#DejaVuSans-101"/>
     <use x="389.306641" xlink:href="#DejaVuSans-115"/>
     <use x="441.40625" xlink:href="#DejaVuSans-99"/>
     <use x="496.386719" xlink:href="#DejaVuSans-101"/>
     <use x="557.910156" xlink:href="#DejaVuSans-110"/>
     <use x="621.289062" xlink:href="#DejaVuSans-116"/>
    </g>
   </g>
  </g>
  <g id="axes_2">
   <g id="patch_6">
    <path d="M 278.272813 132.38 
L 387.352813 132.38 
L 387.352813 21.5 
L 278.272813 21.5 
z
" style="fill:#ffffff;"/>
   </g>
   <g id="matplotlib.axis_3">
    <g id="xtick_12">
     <g id="line2d_15">
      <path d="M 282.62045 132.38 
" style="fill:none;stroke:#333333;stroke-linecap:square;stroke-width:1.5;"/>
      <g>
       <use style="fill:#333333;stroke:#333333;" x="282.62045" xlink:href="#m2d2a371c34" y="132.38"/>
      </g>
     </g>
     <g id="text_17">
      <!-- 2 -->
      <g style="fill:#4d4d4d;" transform="translate(285.0487 142.929)rotate(-90)scale(0.088 -0.088)">
       <use xlink:href="#DejaVuSans-50"/>
      </g>
     </g>
    </g>
    <g id="xtick_13">
     <g id="line2d_16">
      <path d="M 302.766363 132.38 
" style="fill:none;stroke:#333333;stroke-linecap:square;stroke-width:1.5;"/>
      <g>
       <use style="fill:#333333;stroke:#333333;" x="302.766363" xlink:href="#m2d2a371c34" y="132.38"/>
      </g>
     </g>
     <g id="text_18">
      <!-- 2.5 -->
      <g style="fill:#4d4d4d;" transform="translate(305.194613 151.32475)rotate(-90)scale(0.088 -0.088)">
       <use xlink:href="#DejaVuSans-50"/>
       <use x="63.623047" xlink:href="#DejaVuSans-46"/>
       <use x="95.410156" xlink:href="#DejaVuSans-53"/>
      </g>
     </g>
    </g>
    <g id="xtick_14">
     <g id="line2d_17">
      <path d="M 322.912276 132.38 
" style="fill:none;stroke:#333333;stroke-linecap:square;stroke-width:1.5;"/>
      <g>
       <use style="fill:#333333;stroke:#333333;" x="322.912276" xlink:href="#m2d2a371c34" y="132.38"/>
      </g>
     </g>
     <g id="text_19">
      <!-- 3 -->
      <g style="fill:#4d4d4d;" transform="translate(325.340526 142.929)rotate(-90)scale(0.088 -0.088)">
       <use xlink:href="#DejaVuSans-51"/>
      </g>
     </g>
    </g>
    <g id="xtick_15">
     <g id="line2d_18">
      <path d="M 343.058189 132.38 
" style="fill:none;stroke:#333333;stroke-linecap:square;stroke-width:1.5;"/>
      <g>
       <use style="fill:#333333;stroke:#333333;" x="343.058189" xlink:href="#m2d2a371c34" y="132.38"/>
      </g>
     </g>
     <g id="text_20">
      <!-- 3.5 -->
      <g style="fill:#4d4d4d;" transform="translate(345.486439 151.32475)rotate(-90)scale(0.088 -0.088)">
       <use xlink:href="#DejaVuSans-51"/>
       <use x="63.623047" xlink:href="#DejaVuSans-46"/>
       <use x="95.410156" xlink:href="#DejaVuSans-53"/>
      </g>
     </g>
    </g>
    <g id="xtick_16">
     <g id="line2d_19">
      <path d="M 363.204102 132.38 
" style="fill:none;stroke:#333333;stroke-linecap:square;stroke-width:1.5;"/>
      <g>
       <use style="fill:#333333;stroke:#333333;" x="363.204102" xlink:href="#m2d2a371c34" y="132.38"/>
      </g>
     </g>
     <g id="text_21">
      <!-- 4 -->
      <g style="fill:#4d4d4d;" transform="translate(365.632352 142.929)rotate(-90)scale(0.088 -0.088)">
       <use xlink:href="#DejaVuSans-52"/>
      </g>
     </g>
    </g>
    <g id="xtick_17">
     <g id="line2d_20">
      <path d="M 383.350015 132.38 
" style="fill:none;stroke:#333333;stroke-linecap:square;stroke-width:1.5;"/>
      <g>
       <use style="fill:#333333;stroke:#333333;" x="383.350015" xlink:href="#m2d2a371c34" y="132.38"/>
      </g>
     </g>
     <g id="text_22">
      <!-- 4.5 -->
      <g style="fill:#4d4d4d;" transform="translate(385.778265 151.32475)rotate(-90)scale(0.088 -0.088)">
       <use xlink:href="#DejaVuSans-52"/>
       <use x="63.623047" xlink:href="#DejaVuSans-46"/>
       <use x="95.410156" xlink:href="#DejaVuSans-53"/>
      </g>
     </g>
    </g>
    <g id="xtick_18"/>
    <g id="xtick_19"/>
    <g id="xtick_20"/>
    <g id="xtick_21"/>
    <g id="xtick_22"/>
    <g id="text_23">
     <!-- log10_NT50 -->
     <defs>
      <path d="M 12.40625 8.296875 
L 28.515625 8.296875 
L 28.515625 63.921875 
L 10.984375 60.40625 
L 10.984375 69.390625 
L 28.421875 72.90625 
L 38.28125 72.90625 
L 38.28125 8.296875 
L 54.390625 8.296875 
L 54.390625 0 
L 12.40625 0 
z
" id="DejaVuSans-49"/>
      <path d="M 50.984375 -16.609375 
L 50.984375 -23.578125 
L -0.984375 -23.578125 
L -0.984375 -16.609375 
z
" id="DejaVuSans-95"/>
      <path d="M 9.8125 72.90625 
L 23.09375 72.90625 
L 55.421875 11.921875 
L 55.421875 72.90625 
L 64.984375 72.90625 
L 64.984375 0 
L 51.703125 0 
L 19.390625 60.984375 
L 19.390625 0 
L 9.8125 0 
z
" id="DejaVuSans-78"/>
      <path d="M -0.296875 72.90625 
L 61.375 72.90625 
L 61.375 64.59375 
L 35.5 64.59375 
L 35.5 0 
L 25.59375 0 
L 25.59375 64.59375 
L -0.296875 64.59375 
z
" id="DejaVuSans-84"/>
     </defs>
     <g transform="translate(239.546406 164.083031)scale(0.11 -0.11)">
      <use xlink:href="#DejaVuSans-108"/>
      <use x="27.783203" xlink:href="#DejaVuSans-111"/>
      <use x="88.964844" xlink:href="#DejaVuSans-103"/>
      <use x="152.441406" xlink:href="#DejaVuSans-49"/>
      <use x="216.064453" xlink:href="#DejaVuSans-48"/>
      <use x="279.6875" xlink:href="#DejaVuSans-95"/>
      <use x="329.6875" xlink:href="#DejaVuSans-78"/>
      <use x="404.492188" xlink:href="#DejaVuSans-84"/>
      <use x="465.576172" xlink:href="#DejaVuSans-53"/>
      <use x="529.199219" xlink:href="#DejaVuSans-48"/>
     </g>
    </g>
   </g>
   <g id="matplotlib.axis_4">
    <g id="ytick_9"/>
    <g id="ytick_10"/>
    <g id="ytick_11"/>
    <g id="ytick_12"/>
    <g id="ytick_13"/>
    <g id="ytick_14"/>
    <g id="ytick_15"/>
    <g id="ytick_16"/>
   </g>
   <g id="PathCollection_2">
    <path clip-path="url(#pc12f21e06d)" d="M 303.831812 128.702914 
C 304.536902 128.702914 305.213209 128.422778 305.711783 127.924204 
C 306.210357 127.42563 306.490493 126.749323 306.490493 126.044233 
C 306.490493 125.339143 306.210357 124.662836 305.711783 124.164262 
C 305.213209 123.665688 304.536902 123.385552 303.831812 123.385552 
C 303.126721 123.385552 302.450415 123.665688 301.951841 124.164262 
C 301.453266 124.662836 301.173131 125.339143 301.173131 126.044233 
C 301.173131 126.749323 301.453266 127.42563 301.951841 127.924204 
C 302.450415 128.422778 303.126721 128.702914 303.831812 128.702914 
z
" style="fill-opacity:0.25098;stroke:#000000;stroke-opacity:0.25098;stroke-width:0.886227;"/>
    <path clip-path="url(#pc12f21e06d)" d="M 355.986141 32.090254 
C 356.691232 32.090254 357.367538 31.810118 357.866112 31.311544 
C 358.364687 30.81297 358.644822 30.136663 358.644822 29.431573 
C 358.644822 28.726482 358.364687 28.050176 357.866112 27.551602 
C 357.367538 27.053027 356.691232 26.772892 355.986141 26.772892 
C 355.281051 26.772892 354.604744 27.053027 354.10617 27.551602 
C 353.607596 28.050176 353.32746 28.726482 353.32746 29.431573 
C 353.32746 30.136663 353.607596 30.81297 354.10617 31.311544 
C 354.604744 31.810118 355.281051 32.090254 355.986141 32.090254 
z
" style="fill-opacity:0.25098;stroke:#000000;stroke-opacity:0.25098;stroke-width:0.886227;"/>
    <path clip-path="url(#pc12f21e06d)" d="M 342.373172 113.466366 
C 343.078263 113.466366 343.754569 113.186231 344.253144 112.687657 
C 344.751718 112.189083 345.031853 111.512776 345.031853 110.807686 
C 345.031853 110.102595 344.751718 109.426289 344.253144 108.927714 
C 343.754569 108.42914 343.078263 108.149005 342.373172 108.149005 
C 341.668082 108.149005 340.991775 108.42914 340.493201 108.927714 
C 339.994627 109.426289 339.714492 110.102595 339.714492 110.807686 
C 339.714492 111.512776 339.994627 112.189083 340.493201 112.687657 
C 340.991775 113.186231 341.668082 113.466366 342.373172 113.466366 
z
" style="fill-opacity:0.25098;stroke:#000000;stroke-opacity:0.25098;stroke-width:0.886227;"/>
    <path clip-path="url(#pc12f21e06d)" d="M 319.314159 58.026774 
C 320.019249 58.026774 320.695556 57.746639 321.19413 57.248065 
C 321.692704 56.749491 321.972839 56.073184 321.972839 55.368094 
C 321.972839 54.663003 321.692704 53.986697 321.19413 53.488122 
C 320.695556 52.989548 320.019249 52.709413 319.314159 52.709413 
C 318.609068 52.709413 317.932762 52.989548 317.434187 53.488122 
C 316.935613 53.986697 316.655478 54.663003 316.655478 55.368094 
C 316.655478 56.073184 316.935613 56.749491 317.434187 57.248065 
C 317.932762 57.746639 318.609068 58.026774 319.314159 58.026774 
z
" style="fill-opacity:0.25098;stroke:#000000;stroke-opacity:0.25098;stroke-width:0.886227;"/>
    <path clip-path="url(#pc12f21e06d)" d="M 332.605362 30.364381 
C 333.310453 30.364381 333.986759 30.084245 334.485334 29.585671 
C 334.983908 29.087097 335.264043 28.41079 335.264043 27.7057 
C 335.264043 27.000609 334.983908 26.324303 334.485334 25.825729 
C 333.986759 25.327154 333.310453 25.047019 332.605362 25.047019 
C 331.900272 25.047019 331.223965 25.327154 330.725391 25.825729 
C 330.226817 26.324303 329.946682 27.000609 329.946682 27.7057 
C 329.946682 28.41079 330.226817 29.087097 330.725391 29.585671 
C 331.223965 30.084245 331.900272 30.364381 332.605362 30.364381 
z
" style="fill-opacity:0.25098;stroke:#000000;stroke-opacity:0.25098;stroke-width:0.886227;"/>
    <path clip-path="url(#pc12f21e06d)" d="M 355.125658 31.977718 
C 355.830748 31.977718 356.507055 31.697583 357.005629 31.199009 
C 357.504203 30.700435 357.784338 30.024128 357.784338 29.319038 
C 357.784338 28.613947 357.504203 27.937641 357.005629 27.439066 
C 356.507055 26.940492 355.830748 26.660357 355.125658 26.660357 
C 354.420567 26.660357 353.744261 26.940492 353.245686 27.439066 
C 352.747112 27.937641 352.466977 28.613947 352.466977 29.319038 
C 352.466977 30.024128 352.747112 30.700435 353.245686 31.199009 
C 353.744261 31.697583 354.420567 31.977718 355.125658 31.977718 
z
" style="fill-opacity:0.25098;stroke:#000000;stroke-opacity:0.25098;stroke-width:0.886227;"/>
    <path clip-path="url(#pc12f21e06d)" d="M 335.974838 113.779502 
C 336.679928 113.779502 337.356235 113.499366 337.854809 113.000792 
C 338.353383 112.502218 338.633519 111.825911 338.633519 111.120821 
C 338.633519 110.41573 338.353383 109.739424 337.854809 109.24085 
C 337.356235 108.742275 336.679928 108.46214 335.974838 108.46214 
C 335.269748 108.46214 334.593441 108.742275 334.094867 109.24085 
C 333.596293 109.739424 333.316157 110.41573 333.316157 111.120821 
C 333.316157 111.825911 333.596293 112.502218 334.094867 113.000792 
C 334.593441 113.499366 335.269748 113.779502 335.974838 113.779502 
z
" style="fill-opacity:0.25098;stroke:#000000;stroke-opacity:0.25098;stroke-width:0.886227;"/>
    <path clip-path="url(#pc12f21e06d)" d="M 321.652852 126.066792 
C 322.357943 126.066792 323.034249 125.786657 323.532824 125.288082 
C 324.031398 124.789508 324.311533 124.113202 324.311533 123.408111 
C 324.311533 122.703021 324.031398 122.026714 323.532824 121.52814 
C 323.034249 121.029566 322.357943 120.74943 321.652852 120.74943 
C 320.947762 120.74943 320.271455 121.029566 319.772881 121.52814 
C 319.274307 122.026714 318.994172 122.703021 318.994172 123.408111 
C 318.994172 124.113202 319.274307 124.789508 319.772881 125.288082 
C 320.271455 125.786657 320.947762 126.066792 321.652852 126.066792 
z
" style="fill-opacity:0.25098;stroke:#000000;stroke-opacity:0.25098;stroke-width:0.886227;"/>
    <path clip-path="url(#pc12f21e06d)" d="M 316.422041 84.598921 
C 317.127131 84.598921 317.803438 84.318786 318.302012 83.820212 
C 318.800586 83.321638 319.080722 82.645331 319.080722 81.940241 
C 319.080722 81.23515 318.800586 80.558844 318.302012 80.060269 
C 317.803438 79.561695 317.127131 79.28156 316.422041 79.28156 
C 315.716951 79.28156 315.040644 79.561695 314.54207 80.060269 
C 314.043496 80.558844 313.76336 81.23515 313.76336 81.940241 
C 313.76336 82.645331 314.043496 83.321638 314.54207 83.820212 
C 315.040644 84.318786 315.716951 84.598921 316.422041 84.598921 
z
" style="fill-opacity:0.25098;stroke:#000000;stroke-opacity:0.25098;stroke-width:0.886227;"/>
    <path clip-path="url(#pc12f21e06d)" d="M 335.558658 30.760681 
C 336.263748 30.760681 336.940055 30.480546 337.438629 29.981971 
C 337.937203 29.483397 338.217339 28.807091 338.217339 28.102 
C 338.217339 27.39691 337.937203 26.720603 337.438629 26.222029 
C 336.940055 25.723455 336.263748 25.443319 335.558658 25.443319 
C 334.853568 25.443319 334.177261 25.723455 333.678687 26.222029 
C 333.180113 26.720603 332.899977 27.39691 332.899977 28.102 
C 332.899977 28.807091 333.180113 29.483397 333.678687 29.981971 
C 334.177261 30.480546 334.853568 30.760681 335.558658 30.760681 
z
" style="fill-opacity:0.25098;stroke:#000000;stroke-opacity:0.25098;stroke-width:0.886227;"/>
    <path clip-path="url(#pc12f21e06d)" d="M 312.392699 59.190866 
C 313.097789 59.190866 313.774096 58.91073 314.27267 58.412156 
C 314.771244 57.913582 315.05138 57.237275 315.05138 56.532185 
C 315.05138 55.827095 314.771244 55.150788 314.27267 54.652214 
C 313.774096 54.15364 313.097789 53.873504 312.392699 53.873504 
C 311.687608 53.873504 311.011302 54.15364 310.512728 54.652214 
C 310.014153 55.150788 309.734018 55.827095 309.734018 56.532185 
C 309.734018 57.237275 310.014153 57.913582 310.512728 58.412156 
C 311.011302 58.91073 311.687608 59.190866 312.392699 59.190866 
z
" style="fill-opacity:0.25098;stroke:#000000;stroke-opacity:0.25098;stroke-width:0.886227;"/>
    <path clip-path="url(#pc12f21e06d)" d="M 326.032273 31.387298 
C 326.737364 31.387298 327.41367 31.107163 327.912245 30.608589 
C 328.410819 30.110015 328.690954 29.433708 328.690954 28.728618 
C 328.690954 28.023527 328.410819 27.34722 327.912245 26.848646 
C 327.41367 26.350072 326.737364 26.069937 326.032273 26.069937 
C 325.327183 26.069937 324.650876 26.350072 324.152302 26.848646 
C 323.653728 27.34722 323.373593 28.023527 323.373593 28.728618 
C 323.373593 29.433708 323.653728 30.110015 324.152302 30.608589 
C 324.650876 31.107163 325.327183 31.387298 326.032273 31.387298 
z
" style="fill-opacity:0.25098;stroke:#000000;stroke-opacity:0.25098;stroke-width:0.886227;"/>
    <path clip-path="url(#pc12f21e06d)" d="M 347.806729 33.555334 
C 348.511819 33.555334 349.188126 33.275198 349.6867 32.776624 
C 350.185274 32.27805 350.465409 31.601743 350.465409 30.896653 
C 350.465409 30.191563 350.185274 29.515256 349.6867 29.016682 
C 349.188126 28.518108 348.511819 28.237972 347.806729 28.237972 
C 347.101638 28.237972 346.425332 28.518108 345.926757 29.016682 
C 345.428183 29.515256 345.148048 30.191563 345.148048 30.896653 
C 345.148048 31.601743 345.428183 32.27805 345.926757 32.776624 
C 346.425332 33.275198 347.101638 33.555334 347.806729 33.555334 
z
" style="fill-opacity:0.25098;stroke:#000000;stroke-opacity:0.25098;stroke-width:0.886227;"/>
    <path clip-path="url(#pc12f21e06d)" d="M 328.53662 126.827571 
C 329.24171 126.827571 329.918017 126.547436 330.416591 126.048861 
C 330.915165 125.550287 331.195301 124.873981 331.195301 124.16889 
C 331.195301 123.4638 330.915165 122.787493 330.416591 122.288919 
C 329.918017 121.790345 329.24171 121.510209 328.53662 121.510209 
C 327.831529 121.510209 327.155223 121.790345 326.656649 122.288919 
C 326.158074 122.787493 325.877939 123.4638 325.877939 124.16889 
C 325.877939 124.873981 326.158074 125.550287 326.656649 126.048861 
C 327.155223 126.547436 327.831529 126.827571 328.53662 126.827571 
z
" style="fill-opacity:0.25098;stroke:#000000;stroke-opacity:0.25098;stroke-width:0.886227;"/>
    <path clip-path="url(#pc12f21e06d)" d="M 323.609006 125.301321 
C 324.314097 125.301321 324.990403 125.021186 325.488977 124.522612 
C 325.987552 124.024038 326.267687 123.347731 326.267687 122.642641 
C 326.267687 121.93755 325.987552 121.261244 325.488977 120.762669 
C 324.990403 120.264095 324.314097 119.98396 323.609006 119.98396 
C 322.903916 119.98396 322.227609 120.264095 321.729035 120.762669 
C 321.230461 121.261244 320.950325 121.93755 320.950325 122.642641 
C 320.950325 123.347731 321.230461 124.024038 321.729035 124.522612 
C 322.227609 125.021186 322.903916 125.301321 323.609006 125.301321 
z
" style="fill-opacity:0.25098;stroke:#000000;stroke-opacity:0.25098;stroke-width:0.886227;"/>
    <path clip-path="url(#pc12f21e06d)" d="M 347.497752 30.253233 
C 348.202842 30.253233 348.879149 29.973098 349.377723 29.474524 
C 349.876297 28.975949 350.156432 28.299643 350.156432 27.594552 
C 350.156432 26.889462 349.876297 26.213155 349.377723 25.714581 
C 348.879149 25.216007 348.202842 24.935872 347.497752 24.935872 
C 346.792661 24.935872 346.116355 25.216007 345.61778 25.714581 
C 345.119206 26.213155 344.839071 26.889462 344.839071 27.594552 
C 344.839071 28.299643 345.119206 28.975949 345.61778 29.474524 
C 346.116355 29.973098 346.792661 30.253233 347.497752 30.253233 
z
" style="fill-opacity:0.25098;stroke:#000000;stroke-opacity:0.25098;stroke-width:0.886227;"/>
    <path clip-path="url(#pc12f21e06d)" d="M 333.361286 30.579784 
C 334.066376 30.579784 334.742683 30.299648 335.241257 29.801074 
C 335.739831 29.3025 336.019967 28.626193 336.019967 27.921103 
C 336.019967 27.216013 335.739831 26.539706 335.241257 26.041132 
C 334.742683 25.542558 334.066376 25.262422 333.361286 25.262422 
C 332.656196 25.262422 331.979889 25.542558 331.481315 26.041132 
C 330.982741 26.539706 330.702605 27.216013 330.702605 27.921103 
C 330.702605 28.626193 330.982741 29.3025 331.481315 29.801074 
C 331.979889 30.299648 332.656196 30.579784 333.361286 30.579784 
z
" style="fill-opacity:0.25098;stroke:#000000;stroke-opacity:0.25098;stroke-width:0.886227;"/>
    <path clip-path="url(#pc12f21e06d)" d="M 330.241782 33.421696 
C 330.946872 33.421696 331.623179 33.14156 332.121753 32.642986 
C 332.620327 32.144412 332.900463 31.468105 332.900463 30.763015 
C 332.900463 30.057924 332.620327 29.381618 332.121753 28.883044 
C 331.623179 28.384469 330.946872 28.104334 330.241782 28.104334 
C 329.536692 28.104334 328.860385 28.384469 328.361811 28.883044 
C 327.863237 29.381618 327.583101 30.057924 327.583101 30.763015 
C 327.583101 31.468105 327.863237 32.144412 328.361811 32.642986 
C 328.860385 33.14156 329.536692 33.421696 330.241782 33.421696 
z
" style="fill-opacity:0.25098;stroke:#000000;stroke-opacity:0.25098;stroke-width:0.886227;"/>
    <path clip-path="url(#pc12f21e06d)" d="M 349.833813 33.588528 
C 350.538904 33.588528 351.21521 33.308393 351.713785 32.809819 
C 352.212359 32.311244 352.492494 31.634938 352.492494 30.929847 
C 352.492494 30.224757 352.212359 29.54845 351.713785 29.049876 
C 351.21521 28.551302 350.538904 28.271167 349.833813 28.271167 
C 349.128723 28.271167 348.452416 28.551302 347.953842 29.049876 
C 347.455268 29.54845 347.175133 30.224757 347.175133 30.929847 
C 347.175133 31.634938 347.455268 32.311244 347.953842 32.809819 
C 348.452416 33.308393 349.128723 33.588528 349.833813 33.588528 
z
" style="fill-opacity:0.25098;stroke:#000000;stroke-opacity:0.25098;stroke-width:0.886227;"/>
   </g>
   <g id="patch_7">
    <path d="M 278.272813 21.5 
L 387.352813 21.5 
L 387.352813 7.2 
L 278.272813 7.2 
z
" style="fill:none;stroke:#000000;stroke-linejoin:miter;"/>
   </g>
   <g id="patch_8">
    <path d="M 278.272813 132.38 
L 278.272813 21.5 
" style="fill:none;stroke:#000000;stroke-linecap:square;stroke-linejoin:miter;"/>
   </g>
   <g id="patch_9">
    <path d="M 278.272813 132.38 
L 387.352813 132.38 
" style="fill:none;stroke:#000000;stroke-linecap:square;stroke-linejoin:miter;"/>
   </g>
   <g id="text_24">
    <!-- vaccine -->
    <g style="fill:#1a1a1a;" transform="translate(315.955313 16.77825)scale(0.088 -0.088)">
     <use xlink:href="#DejaVuSans-118"/>
     <use x="59.179688" xlink:href="#DejaVuSans-97"/>
     <use x="120.458984" xlink:href="#DejaVuSans-99"/>
     <use x="175.439453" xlink:href="#DejaVuSans-99"/>
     <use x="230.419922" xlink:href="#DejaVuSans-105"/>
     <use x="258.203125" xlink:href="#DejaVuSans-110"/>
     <use x="321.582031" xlink:href="#DejaVuSans-101"/>
    </g>
   </g>
  </g>
 </g>
 <defs>
  <clipPath id="pb1437b468a">
   <rect height="110.88" width="109.08" x="164.152813" y="21.5"/>
  </clipPath>
  <clipPath id="pc12f21e06d">
   <rect height="110.88" width="109.08" x="278.272813" y="21.5"/>
  </clipPath>
 </defs>
</svg>
