<?xml version="1.0" encoding="utf-8" standalone="no"?>
<!DOCTYPE svg PUBLIC "-//W3C//DTD SVG 1.1//EN"
  "http://www.w3.org/Graphics/SVG/1.1/DTD/svg11.dtd">
<!-- Created with matplotlib (https://matplotlib.org/) -->
<svg height="238.575187pt" version="1.1" viewBox="0 0 394.552813 238.575187" width="394.552813pt" xmlns="http://www.w3.org/2000/svg" xmlns:xlink="http://www.w3.org/1999/xlink">
 <defs>
  <style type="text/css">
*{stroke-linecap:butt;stroke-linejoin:round;}
  </style>
 </defs>
 <g id="figure_1">
  <g id="patch_1">
   <path d="M 0 238.575187 
L 394.552813 238.575187 
L 394.552813 0 
L 0 0 
z
" style="fill:#ffffff;stroke:#ffffff;stroke-linejoin:miter;"/>
  </g>
  <g id="axes_1">
   <g id="patch_2">
    <path d="M 164.152813 132.38 
L 273.232813 132.38 
L 273.232813 21.5 
L 164.152813 21.5 
z
" style="fill:#ffffff;"/>
   </g>
   <g id="matplotlib.axis_1">
    <g id="xtick_1">
     <g id="line2d_1">
      <path d="M 179.73567 132.38 
" style="fill:none;stroke:#333333;stroke-width:1.5;"/>
      <defs>
       <path d="M 0 0 
L 0 2.75 
" id="m0e210ed299" style="stroke:#333333;"/>
      </defs>
      <g>
       <use style="fill:#333333;stroke:#333333;" x="179.73567" xlink:href="#m0e210ed299" y="132.38"/>
      </g>
     </g>
     <g id="text_1">
      <!-- extra escape -->
      <defs>
       <path d="M 56.203125 29.59375 
L 56.203125 25.203125 
L 14.890625 25.203125 
Q 15.484375 15.921875 20.484375 11.0625 
Q 25.484375 6.203125 34.421875 6.203125 
Q 39.59375 6.203125 44.453125 7.46875 
Q 49.3125 8.734375 54.109375 11.28125 
L 54.109375 2.78125 
Q 49.265625 0.734375 44.1875 -0.34375 
Q 39.109375 -1.421875 33.890625 -1.421875 
Q 20.796875 -1.421875 13.15625 6.1875 
Q 5.515625 13.8125 5.515625 26.8125 
Q 5.515625 40.234375 12.765625 48.109375 
Q 20.015625 56 32.328125 56 
Q 43.359375 56 49.78125 48.890625 
Q 56.203125 41.796875 56.203125 29.59375 
z
M 47.21875 32.234375 
Q 47.125 39.59375 43.09375 43.984375 
Q 39.0625 48.390625 32.421875 48.390625 
Q 24.90625 48.390625 20.390625 44.140625 
Q 15.875 39.890625 15.1875 32.171875 
z
" id="DejaVuSans-101"/>
       <path d="M 54.890625 54.6875 
L 35.109375 28.078125 
L 55.90625 0 
L 45.3125 0 
L 29.390625 21.484375 
L 13.484375 0 
L 2.875 0 
L 24.125 28.609375 
L 4.6875 54.6875 
L 15.28125 54.6875 
L 29.78125 35.203125 
L 44.28125 54.6875 
z
" id="DejaVuSans-120"/>
       <path d="M 18.3125 70.21875 
L 18.3125 54.6875 
L 36.8125 54.6875 
L 36.8125 47.703125 
L 18.3125 47.703125 
L 18.3125 18.015625 
Q 18.3125 11.328125 20.140625 9.421875 
Q 21.96875 7.515625 27.59375 7.515625 
L 36.8125 7.515625 
L 36.8125 0 
L 27.59375 0 
Q 17.1875 0 13.234375 3.875 
Q 9.28125 7.765625 9.28125 18.015625 
L 9.28125 47.703125 
L 2.6875 47.703125 
L 2.6875 54.6875 
L 9.28125 54.6875 
L 9.28125 70.21875 
z
" id="DejaVuSans-116"/>
       <path d="M 41.109375 46.296875 
Q 39.59375 47.171875 37.8125 47.578125 
Q 36.03125 48 33.890625 48 
Q 26.265625 48 22.1875 43.046875 
Q 18.109375 38.09375 18.109375 28.8125 
L 18.109375 0 
L 9.078125 0 
L 9.078125 54.6875 
L 18.109375 54.6875 
L 18.109375 46.1875 
Q 20.953125 51.171875 25.484375 53.578125 
Q 30.03125 56 36.53125 56 
Q 37.453125 56 38.578125 55.875 
Q 39.703125 55.765625 41.0625 55.515625 
z
" id="DejaVuSans-114"/>
       <path d="M 34.28125 27.484375 
Q 23.390625 27.484375 19.1875 25 
Q 14.984375 22.515625 14.984375 16.5 
Q 14.984375 11.71875 18.140625 8.90625 
Q 21.296875 6.109375 26.703125 6.109375 
Q 34.1875 6.109375 38.703125 11.40625 
Q 43.21875 16.703125 43.21875 25.484375 
L 43.21875 27.484375 
z
M 52.203125 31.203125 
L 52.203125 0 
L 43.21875 0 
L 43.21875 8.296875 
Q 40.140625 3.328125 35.546875 0.953125 
Q 30.953125 -1.421875 24.3125 -1.421875 
Q 15.921875 -1.421875 10.953125 3.296875 
Q 6 8.015625 6 15.921875 
Q 6 25.140625 12.171875 29.828125 
Q 18.359375 34.515625 30.609375 34.515625 
L 43.21875 34.515625 
L 43.21875 35.40625 
Q 43.21875 41.609375 39.140625 45 
Q 35.0625 48.390625 27.6875 48.390625 
Q 23 48.390625 18.546875 47.265625 
Q 14.109375 46.140625 10.015625 43.890625 
L 10.015625 52.203125 
Q 14.9375 54.109375 19.578125 55.046875 
Q 24.21875 56 28.609375 56 
Q 40.484375 56 46.34375 49.84375 
Q 52.203125 43.703125 52.203125 31.203125 
z
" id="DejaVuSans-97"/>
       <path id="DejaVuSans-32"/>
       <path d="M 44.28125 53.078125 
L 44.28125 44.578125 
Q 40.484375 46.53125 36.375 47.5 
Q 32.28125 48.484375 27.875 48.484375 
Q 21.1875 48.484375 17.84375 46.4375 
Q 14.5 44.390625 14.5 40.28125 
Q 14.5 37.15625 16.890625 35.375 
Q 19.28125 33.59375 26.515625 31.984375 
L 29.59375 31.296875 
Q 39.15625 29.25 43.1875 25.515625 
Q 47.21875 21.78125 47.21875 15.09375 
Q 47.21875 7.46875 41.1875 3.015625 
Q 35.15625 -1.421875 24.609375 -1.421875 
Q 20.21875 -1.421875 15.453125 -0.5625 
Q 10.6875 0.296875 5.421875 2 
L 5.421875 11.28125 
Q 10.40625 8.6875 15.234375 7.390625 
Q 20.0625 6.109375 24.8125 6.109375 
Q 31.15625 6.109375 34.5625 8.28125 
Q 37.984375 10.453125 37.984375 14.40625 
Q 37.984375 18.0625 35.515625 20.015625 
Q 33.0625 21.96875 24.703125 23.78125 
L 21.578125 24.515625 
Q 13.234375 26.265625 9.515625 29.90625 
Q 5.8125 33.546875 5.8125 39.890625 
Q 5.8125 47.609375 11.28125 51.796875 
Q 16.75 56 26.8125 56 
Q 31.78125 56 36.171875 55.265625 
Q 40.578125 54.546875 44.28125 53.078125 
z
" id="DejaVuSans-115"/>
       <path d="M 48.78125 52.59375 
L 48.78125 44.1875 
Q 44.96875 46.296875 41.140625 47.34375 
Q 37.3125 48.390625 33.40625 48.390625 
Q 24.65625 48.390625 19.8125 42.84375 
Q 14.984375 37.3125 14.984375 27.296875 
Q 14.984375 17.28125 19.8125 11.734375 
Q 24.65625 6.203125 33.40625 6.203125 
Q 37.3125 6.203125 41.140625 7.25 
Q 44.96875 8.296875 48.78125 10.40625 
L 48.78125 2.09375 
Q 45.015625 0.34375 40.984375 -0.53125 
Q 36.96875 -1.421875 32.421875 -1.421875 
Q 20.0625 -1.421875 12.78125 6.34375 
Q 5.515625 14.109375 5.515625 27.296875 
Q 5.515625 40.671875 12.859375 48.328125 
Q 20.21875 56 33.015625 56 
Q 37.15625 56 41.109375 55.140625 
Q 45.0625 54.296875 48.78125 52.59375 
z
" id="DejaVuSans-99"/>
       <path d="M 18.109375 8.203125 
L 18.109375 -20.796875 
L 9.078125 -20.796875 
L 9.078125 54.6875 
L 18.109375 54.6875 
L 18.109375 46.390625 
Q 20.953125 51.265625 25.265625 53.625 
Q 29.59375 56 35.59375 56 
Q 45.5625 56 51.78125 48.09375 
Q 58.015625 40.1875 58.015625 27.296875 
Q 58.015625 14.40625 51.78125 6.484375 
Q 45.5625 -1.421875 35.59375 -1.421875 
Q 29.59375 -1.421875 25.265625 0.953125 
Q 20.953125 3.328125 18.109375 8.203125 
z
M 48.6875 27.296875 
Q 48.6875 37.203125 44.609375 42.84375 
Q 40.53125 48.484375 33.40625 48.484375 
Q 26.265625 48.484375 22.1875 42.84375 
Q 18.109375 37.203125 18.109375 27.296875 
Q 18.109375 17.390625 22.1875 11.75 
Q 26.265625 6.109375 33.40625 6.109375 
Q 40.53125 6.109375 44.609375 11.75 
Q 48.6875 17.390625 48.6875 27.296875 
z
" id="DejaVuSans-112"/>
      </defs>
      <g style="fill:#4d4d4d;" transform="translate(182.16392 194.288)rotate(-90)scale(0.088 -0.088)">
       <use xlink:href="#DejaVuSans-101"/>
       <use x="59.773438" xlink:href="#DejaVuSans-120"/>
       <use x="118.953125" xlink:href="#DejaVuSans-116"/>
       <use x="158.162109" xlink:href="#DejaVuSans-114"/>
       <use x="199.275391" xlink:href="#DejaVuSans-97"/>
       <use x="260.554688" xlink:href="#DejaVuSans-32"/>
       <use x="292.341797" xlink:href="#DejaVuSans-101"/>
       <use x="353.865234" xlink:href="#DejaVuSans-115"/>
       <use x="405.964844" xlink:href="#DejaVuSans-99"/>
       <use x="460.945312" xlink:href="#DejaVuSans-97"/>
       <use x="522.224609" xlink:href="#DejaVuSans-112"/>
       <use x="585.701172" xlink:href="#DejaVuSans-101"/>
      </g>
     </g>
    </g>
    <g id="xtick_2">
     <g id="line2d_2">
      <path d="M 205.707098 132.38 
" style="fill:none;stroke:#333333;stroke-width:1.5;"/>
      <g>
       <use style="fill:#333333;stroke:#333333;" x="205.707098" xlink:href="#m0e210ed299" y="132.38"/>
      </g>
     </g>
     <g id="text_2">
      <!-- normal -->
      <defs>
       <path d="M 54.890625 33.015625 
L 54.890625 0 
L 45.90625 0 
L 45.90625 32.71875 
Q 45.90625 40.484375 42.875 44.328125 
Q 39.84375 48.1875 33.796875 48.1875 
Q 26.515625 48.1875 22.3125 43.546875 
Q 18.109375 38.921875 18.109375 30.90625 
L 18.109375 0 
L 9.078125 0 
L 9.078125 54.6875 
L 18.109375 54.6875 
L 18.109375 46.1875 
Q 21.34375 51.125 25.703125 53.5625 
Q 30.078125 56 35.796875 56 
Q 45.21875 56 50.046875 50.171875 
Q 54.890625 44.34375 54.890625 33.015625 
z
" id="DejaVuSans-110"/>
       <path d="M 30.609375 48.390625 
Q 23.390625 48.390625 19.1875 42.75 
Q 14.984375 37.109375 14.984375 27.296875 
Q 14.984375 17.484375 19.15625 11.84375 
Q 23.34375 6.203125 30.609375 6.203125 
Q 37.796875 6.203125 41.984375 11.859375 
Q 46.1875 17.53125 46.1875 27.296875 
Q 46.1875 37.015625 41.984375 42.703125 
Q 37.796875 48.390625 30.609375 48.390625 
z
M 30.609375 56 
Q 42.328125 56 49.015625 48.375 
Q 55.71875 40.765625 55.71875 27.296875 
Q 55.71875 13.875 49.015625 6.21875 
Q 42.328125 -1.421875 30.609375 -1.421875 
Q 18.84375 -1.421875 12.171875 6.21875 
Q 5.515625 13.875 5.515625 27.296875 
Q 5.515625 40.765625 12.171875 48.375 
Q 18.84375 56 30.609375 56 
z
" id="DejaVuSans-111"/>
       <path d="M 52 44.1875 
Q 55.375 50.25 60.0625 53.125 
Q 64.75 56 71.09375 56 
Q 79.640625 56 84.28125 50.015625 
Q 88.921875 44.046875 88.921875 33.015625 
L 88.921875 0 
L 79.890625 0 
L 79.890625 32.71875 
Q 79.890625 40.578125 77.09375 44.375 
Q 74.3125 48.1875 68.609375 48.1875 
Q 61.625 48.1875 57.5625 43.546875 
Q 53.515625 38.921875 53.515625 30.90625 
L 53.515625 0 
L 44.484375 0 
L 44.484375 32.71875 
Q 44.484375 40.625 41.703125 44.40625 
Q 38.921875 48.1875 33.109375 48.1875 
Q 26.21875 48.1875 22.15625 43.53125 
Q 18.109375 38.875 18.109375 30.90625 
L 18.109375 0 
L 9.078125 0 
L 9.078125 54.6875 
L 18.109375 54.6875 
L 18.109375 46.1875 
Q 21.1875 51.21875 25.484375 53.609375 
Q 29.78125 56 35.6875 56 
Q 41.65625 56 45.828125 52.96875 
Q 50 49.953125 52 44.1875 
z
" id="DejaVuSans-109"/>
       <path d="M 9.421875 75.984375 
L 18.40625 75.984375 
L 18.40625 0 
L 9.421875 0 
z
" id="DejaVuSans-108"/>
      </defs>
      <g style="fill:#4d4d4d;" transform="translate(208.135348 168.164375)rotate(-90)scale(0.088 -0.088)">
       <use xlink:href="#DejaVuSans-110"/>
       <use x="63.378906" xlink:href="#DejaVuSans-111"/>
       <use x="124.560547" xlink:href="#DejaVuSans-114"/>
       <use x="163.923828" xlink:href="#DejaVuSans-109"/>
       <use x="261.335938" xlink:href="#DejaVuSans-97"/>
       <use x="322.615234" xlink:href="#DejaVuSans-108"/>
      </g>
     </g>
    </g>
    <g id="xtick_3">
     <g id="line2d_3">
      <path d="M 231.678527 132.38 
" style="fill:none;stroke:#333333;stroke-width:1.5;"/>
      <g>
       <use style="fill:#333333;stroke:#333333;" x="231.678527" xlink:href="#m0e210ed299" y="132.38"/>
      </g>
     </g>
     <g id="text_3">
      <!-- normal-no escape -->
      <defs>
       <path d="M 4.890625 31.390625 
L 31.203125 31.390625 
L 31.203125 23.390625 
L 4.890625 23.390625 
z
" id="DejaVuSans-45"/>
      </defs>
      <g style="fill:#4d4d4d;" transform="translate(234.106777 216.32925)rotate(-90)scale(0.088 -0.088)">
       <use xlink:href="#DejaVuSans-110"/>
       <use x="63.378906" xlink:href="#DejaVuSans-111"/>
       <use x="124.560547" xlink:href="#DejaVuSans-114"/>
       <use x="163.923828" xlink:href="#DejaVuSans-109"/>
       <use x="261.335938" xlink:href="#DejaVuSans-97"/>
       <use x="322.615234" xlink:href="#DejaVuSans-108"/>
       <use x="350.398438" xlink:href="#DejaVuSans-45"/>
       <use x="386.482422" xlink:href="#DejaVuSans-110"/>
       <use x="449.861328" xlink:href="#DejaVuSans-111"/>
       <use x="511.042969" xlink:href="#DejaVuSans-32"/>
       <use x="542.830078" xlink:href="#DejaVuSans-101"/>
       <use x="604.353516" xlink:href="#DejaVuSans-115"/>
       <use x="656.453125" xlink:href="#DejaVuSans-99"/>
       <use x="711.433594" xlink:href="#DejaVuSans-97"/>
       <use x="772.712891" xlink:href="#DejaVuSans-112"/>
       <use x="836.189453" xlink:href="#DejaVuSans-101"/>
      </g>
     </g>
    </g>
    <g id="xtick_4">
     <g id="line2d_4">
      <path d="M 257.649955 132.38 
" style="fill:none;stroke:#333333;stroke-width:1.5;"/>
      <g>
       <use style="fill:#333333;stroke:#333333;" x="257.649955" xlink:href="#m0e210ed299" y="132.38"/>
      </g>
     </g>
     <g id="text_4">
      <!-- no escape -->
      <g style="fill:#4d4d4d;" transform="translate(260.078205 182.32)rotate(-90)scale(0.088 -0.088)">
       <use xlink:href="#DejaVuSans-110"/>
       <use x="63.378906" xlink:href="#DejaVuSans-111"/>
       <use x="124.560547" xlink:href="#DejaVuSans-32"/>
       <use x="156.347656" xlink:href="#DejaVuSans-101"/>
       <use x="217.871094" xlink:href="#DejaVuSans-115"/>
       <use x="269.970703" xlink:href="#DejaVuSans-99"/>
       <use x="324.951172" xlink:href="#DejaVuSans-97"/>
       <use x="386.230469" xlink:href="#DejaVuSans-112"/>
       <use x="449.707031" xlink:href="#DejaVuSans-101"/>
      </g>
     </g>
    </g>
   </g>
   <g id="matplotlib.axis_2">
    <g id="ytick_1">
     <g id="line2d_5">
      <path d="M 164.152813 124.266829 
" style="fill:none;stroke:#333333;stroke-width:1.5;"/>
      <defs>
       <path d="M 0 0 
L -2.75 0 
" id="m54d1bd6757" style="stroke:#333333;"/>
      </defs>
      <g>
       <use style="fill:#333333;stroke:#333333;" x="164.152813" xlink:href="#m54d1bd6757" y="124.266829"/>
      </g>
     </g>
     <g id="text_5">
      <!-- 456-484 -->
      <defs>
       <path d="M 37.796875 64.3125 
L 12.890625 25.390625 
L 37.796875 25.390625 
z
M 35.203125 72.90625 
L 47.609375 72.90625 
L 47.609375 25.390625 
L 58.015625 25.390625 
L 58.015625 17.1875 
L 47.609375 17.1875 
L 47.609375 0 
L 37.796875 0 
L 37.796875 17.1875 
L 4.890625 17.1875 
L 4.890625 26.703125 
z
" id="DejaVuSans-52"/>
       <path d="M 10.796875 72.90625 
L 49.515625 72.90625 
L 49.515625 64.59375 
L 19.828125 64.59375 
L 19.828125 46.734375 
Q 21.96875 47.46875 24.109375 47.828125 
Q 26.265625 48.1875 28.421875 48.1875 
Q 40.625 48.1875 47.75 41.5 
Q 54.890625 34.8125 54.890625 23.390625 
Q 54.890625 11.625 47.5625 5.09375 
Q 40.234375 -1.421875 26.90625 -1.421875 
Q 22.3125 -1.421875 17.546875 -0.640625 
Q 12.796875 0.140625 7.71875 1.703125 
L 7.71875 11.625 
Q 12.109375 9.234375 16.796875 8.0625 
Q 21.484375 6.890625 26.703125 6.890625 
Q 35.15625 6.890625 40.078125 11.328125 
Q 45.015625 15.765625 45.015625 23.390625 
Q 45.015625 31 40.078125 35.4375 
Q 35.15625 39.890625 26.703125 39.890625 
Q 22.75 39.890625 18.8125 39.015625 
Q 14.890625 38.140625 10.796875 36.28125 
z
" id="DejaVuSans-53"/>
       <path d="M 33.015625 40.375 
Q 26.375 40.375 22.484375 35.828125 
Q 18.609375 31.296875 18.609375 23.390625 
Q 18.609375 15.53125 22.484375 10.953125 
Q 26.375 6.390625 33.015625 6.390625 
Q 39.65625 6.390625 43.53125 10.953125 
Q 47.40625 15.53125 47.40625 23.390625 
Q 47.40625 31.296875 43.53125 35.828125 
Q 39.65625 40.375 33.015625 40.375 
z
M 52.59375 71.296875 
L 52.59375 62.3125 
Q 48.875 64.0625 45.09375 64.984375 
Q 41.3125 65.921875 37.59375 65.921875 
Q 27.828125 65.921875 22.671875 59.328125 
Q 17.53125 52.734375 16.796875 39.40625 
Q 19.671875 43.65625 24.015625 45.921875 
Q 28.375 48.1875 33.59375 48.1875 
Q 44.578125 48.1875 50.953125 41.515625 
Q 57.328125 34.859375 57.328125 23.390625 
Q 57.328125 12.15625 50.6875 5.359375 
Q 44.046875 -1.421875 33.015625 -1.421875 
Q 20.359375 -1.421875 13.671875 8.265625 
Q 6.984375 17.96875 6.984375 36.375 
Q 6.984375 53.65625 15.1875 63.9375 
Q 23.390625 74.21875 37.203125 74.21875 
Q 40.921875 74.21875 44.703125 73.484375 
Q 48.484375 72.75 52.59375 71.296875 
z
" id="DejaVuSans-54"/>
       <path d="M 31.78125 34.625 
Q 24.75 34.625 20.71875 30.859375 
Q 16.703125 27.09375 16.703125 20.515625 
Q 16.703125 13.921875 20.71875 10.15625 
Q 24.75 6.390625 31.78125 6.390625 
Q 38.8125 6.390625 42.859375 10.171875 
Q 46.921875 13.96875 46.921875 20.515625 
Q 46.921875 27.09375 42.890625 30.859375 
Q 38.875 34.625 31.78125 34.625 
z
M 21.921875 38.8125 
Q 15.578125 40.375 12.03125 44.71875 
Q 8.5 49.078125 8.5 55.328125 
Q 8.5 64.0625 14.71875 69.140625 
Q 20.953125 74.21875 31.78125 74.21875 
Q 42.671875 74.21875 48.875 69.140625 
Q 55.078125 64.0625 55.078125 55.328125 
Q 55.078125 49.078125 51.53125 44.71875 
Q 48 40.375 41.703125 38.8125 
Q 48.828125 37.15625 52.796875 32.3125 
Q 56.78125 27.484375 56.78125 20.515625 
Q 56.78125 9.90625 50.3125 4.234375 
Q 43.84375 -1.421875 31.78125 -1.421875 
Q 19.734375 -1.421875 13.25 4.234375 
Q 6.78125 9.90625 6.78125 20.515625 
Q 6.78125 27.484375 10.78125 32.3125 
Q 14.796875 37.15625 21.921875 38.8125 
z
M 18.3125 54.390625 
Q 18.3125 48.734375 21.84375 45.5625 
Q 25.390625 42.390625 31.78125 42.390625 
Q 38.140625 42.390625 41.71875 45.5625 
Q 45.3125 48.734375 45.3125 54.390625 
Q 45.3125 60.0625 41.71875 63.234375 
Q 38.140625 66.40625 31.78125 66.40625 
Q 25.390625 66.40625 21.84375 63.234375 
Q 18.3125 60.0625 18.3125 54.390625 
z
" id="DejaVuSans-56"/>
      </defs>
      <g style="fill:#4d4d4d;" transform="translate(122.433938 126.695079)scale(0.088 -0.088)">
       <use xlink:href="#DejaVuSans-52"/>
       <use x="63.623047" xlink:href="#DejaVuSans-53"/>
       <use x="127.246094" xlink:href="#DejaVuSans-54"/>
       <use x="190.869141" xlink:href="#DejaVuSans-45"/>
       <use x="226.953125" xlink:href="#DejaVuSans-52"/>
       <use x="290.576172" xlink:href="#DejaVuSans-56"/>
       <use x="354.199219" xlink:href="#DejaVuSans-52"/>
      </g>
     </g>
    </g>
    <g id="ytick_2">
     <g id="line2d_6">
      <path d="M 164.152813 110.744878 
" style="fill:none;stroke:#333333;stroke-width:1.5;"/>
      <g>
       <use style="fill:#333333;stroke:#333333;" x="164.152813" xlink:href="#m54d1bd6757" y="110.744878"/>
      </g>
     </g>
     <g id="text_6">
      <!-- 456-484 low magnitude -->
      <defs>
       <path d="M 4.203125 54.6875 
L 13.1875 54.6875 
L 24.421875 12.015625 
L 35.59375 54.6875 
L 46.1875 54.6875 
L 57.421875 12.015625 
L 68.609375 54.6875 
L 77.59375 54.6875 
L 63.28125 0 
L 52.6875 0 
L 40.921875 44.828125 
L 29.109375 0 
L 18.5 0 
z
" id="DejaVuSans-119"/>
       <path d="M 45.40625 27.984375 
Q 45.40625 37.75 41.375 43.109375 
Q 37.359375 48.484375 30.078125 48.484375 
Q 22.859375 48.484375 18.828125 43.109375 
Q 14.796875 37.75 14.796875 27.984375 
Q 14.796875 18.265625 18.828125 12.890625 
Q 22.859375 7.515625 30.078125 7.515625 
Q 37.359375 7.515625 41.375 12.890625 
Q 45.40625 18.265625 45.40625 27.984375 
z
M 54.390625 6.78125 
Q 54.390625 -7.171875 48.1875 -13.984375 
Q 42 -20.796875 29.203125 -20.796875 
Q 24.46875 -20.796875 20.265625 -20.09375 
Q 16.0625 -19.390625 12.109375 -17.921875 
L 12.109375 -9.1875 
Q 16.0625 -11.328125 19.921875 -12.34375 
Q 23.78125 -13.375 27.78125 -13.375 
Q 36.625 -13.375 41.015625 -8.765625 
Q 45.40625 -4.15625 45.40625 5.171875 
L 45.40625 9.625 
Q 42.625 4.78125 38.28125 2.390625 
Q 33.9375 0 27.875 0 
Q 17.828125 0 11.671875 7.65625 
Q 5.515625 15.328125 5.515625 27.984375 
Q 5.515625 40.671875 11.671875 48.328125 
Q 17.828125 56 27.875 56 
Q 33.9375 56 38.28125 53.609375 
Q 42.625 51.21875 45.40625 46.390625 
L 45.40625 54.6875 
L 54.390625 54.6875 
z
" id="DejaVuSans-103"/>
       <path d="M 9.421875 54.6875 
L 18.40625 54.6875 
L 18.40625 0 
L 9.421875 0 
z
M 9.421875 75.984375 
L 18.40625 75.984375 
L 18.40625 64.59375 
L 9.421875 64.59375 
z
" id="DejaVuSans-105"/>
       <path d="M 8.5 21.578125 
L 8.5 54.6875 
L 17.484375 54.6875 
L 17.484375 21.921875 
Q 17.484375 14.15625 20.5 10.265625 
Q 23.53125 6.390625 29.59375 6.390625 
Q 36.859375 6.390625 41.078125 11.03125 
Q 45.3125 15.671875 45.3125 23.6875 
L 45.3125 54.6875 
L 54.296875 54.6875 
L 54.296875 0 
L 45.3125 0 
L 45.3125 8.40625 
Q 42.046875 3.421875 37.71875 1 
Q 33.40625 -1.421875 27.6875 -1.421875 
Q 18.265625 -1.421875 13.375 4.4375 
Q 8.5 10.296875 8.5 21.578125 
z
M 31.109375 56 
z
" id="DejaVuSans-117"/>
       <path d="M 45.40625 46.390625 
L 45.40625 75.984375 
L 54.390625 75.984375 
L 54.390625 0 
L 45.40625 0 
L 45.40625 8.203125 
Q 42.578125 3.328125 38.25 0.953125 
Q 33.9375 -1.421875 27.875 -1.421875 
Q 17.96875 -1.421875 11.734375 6.484375 
Q 5.515625 14.40625 5.515625 27.296875 
Q 5.515625 40.1875 11.734375 48.09375 
Q 17.96875 56 27.875 56 
Q 33.9375 56 38.25 53.625 
Q 42.578125 51.265625 45.40625 46.390625 
z
M 14.796875 27.296875 
Q 14.796875 17.390625 18.875 11.75 
Q 22.953125 6.109375 30.078125 6.109375 
Q 37.203125 6.109375 41.296875 11.75 
Q 45.40625 17.390625 45.40625 27.296875 
Q 45.40625 37.203125 41.296875 42.84375 
Q 37.203125 48.484375 30.078125 48.484375 
Q 22.953125 48.484375 18.875 42.84375 
Q 14.796875 37.203125 14.796875 27.296875 
z
" id="DejaVuSans-100"/>
      </defs>
      <g style="fill:#4d4d4d;" transform="translate(54.213313 113.173128)scale(0.088 -0.088)">
       <use xlink:href="#DejaVuSans-52"/>
       <use x="63.623047" xlink:href="#DejaVuSans-53"/>
       <use x="127.246094" xlink:href="#DejaVuSans-54"/>
       <use x="190.869141" xlink:href="#DejaVuSans-45"/>
       <use x="226.953125" xlink:href="#DejaVuSans-52"/>
       <use x="290.576172" xlink:href="#DejaVuSans-56"/>
       <use x="354.199219" xlink:href="#DejaVuSans-52"/>
       <use x="417.822266" xlink:href="#DejaVuSans-32"/>
       <use x="449.609375" xlink:href="#DejaVuSans-108"/>
       <use x="477.392578" xlink:href="#DejaVuSans-111"/>
       <use x="538.574219" xlink:href="#DejaVuSans-119"/>
       <use x="620.361328" xlink:href="#DejaVuSans-32"/>
       <use x="652.148438" xlink:href="#DejaVuSans-109"/>
       <use x="749.560547" xlink:href="#DejaVuSans-97"/>
       <use x="810.839844" xlink:href="#DejaVuSans-103"/>
       <use x="874.316406" xlink:href="#DejaVuSans-110"/>
       <use x="937.695312" xlink:href="#DejaVuSans-105"/>
       <use x="965.478516" xlink:href="#DejaVuSans-116"/>
       <use x="1004.6875" xlink:href="#DejaVuSans-117"/>
       <use x="1068.066406" xlink:href="#DejaVuSans-100"/>
       <use x="1131.542969" xlink:href="#DejaVuSans-101"/>
      </g>
     </g>
    </g>
    <g id="ytick_3">
     <g id="line2d_7">
      <path d="M 164.152813 97.222927 
" style="fill:none;stroke:#333333;stroke-width:1.5;"/>
      <g>
       <use style="fill:#333333;stroke:#333333;" x="164.152813" xlink:href="#m54d1bd6757" y="97.222927"/>
      </g>
     </g>
     <g id="text_7">
      <!-- 456-484 noisy -->
      <defs>
       <path d="M 32.171875 -5.078125 
Q 28.375 -14.84375 24.75 -17.8125 
Q 21.140625 -20.796875 15.09375 -20.796875 
L 7.90625 -20.796875 
L 7.90625 -13.28125 
L 13.1875 -13.28125 
Q 16.890625 -13.28125 18.9375 -11.515625 
Q 21 -9.765625 23.484375 -3.21875 
L 25.09375 0.875 
L 2.984375 54.6875 
L 12.5 54.6875 
L 29.59375 11.921875 
L 46.6875 54.6875 
L 56.203125 54.6875 
z
" id="DejaVuSans-121"/>
      </defs>
      <g style="fill:#4d4d4d;" transform="translate(96.438188 99.651177)scale(0.088 -0.088)">
       <use xlink:href="#DejaVuSans-52"/>
       <use x="63.623047" xlink:href="#DejaVuSans-53"/>
       <use x="127.246094" xlink:href="#DejaVuSans-54"/>
       <use x="190.869141" xlink:href="#DejaVuSans-45"/>
       <use x="226.953125" xlink:href="#DejaVuSans-52"/>
       <use x="290.576172" xlink:href="#DejaVuSans-56"/>
       <use x="354.199219" xlink:href="#DejaVuSans-52"/>
       <use x="417.822266" xlink:href="#DejaVuSans-32"/>
       <use x="449.609375" xlink:href="#DejaVuSans-110"/>
       <use x="512.988281" xlink:href="#DejaVuSans-111"/>
       <use x="574.169922" xlink:href="#DejaVuSans-105"/>
       <use x="601.953125" xlink:href="#DejaVuSans-115"/>
       <use x="654.052734" xlink:href="#DejaVuSans-121"/>
      </g>
     </g>
    </g>
    <g id="ytick_4">
     <g id="line2d_8">
      <path d="M 164.152813 83.700976 
" style="fill:none;stroke:#333333;stroke-width:1.5;"/>
      <g>
       <use style="fill:#333333;stroke:#333333;" x="164.152813" xlink:href="#m54d1bd6757" y="83.700976"/>
      </g>
     </g>
     <g id="text_8">
      <!-- 456-484 low magnitude - noisy -->
      <g style="fill:#4d4d4d;" transform="translate(22.245938 86.129226)scale(0.088 -0.088)">
       <use xlink:href="#DejaVuSans-52"/>
       <use x="63.623047" xlink:href="#DejaVuSans-53"/>
       <use x="127.246094" xlink:href="#DejaVuSans-54"/>
       <use x="190.869141" xlink:href="#DejaVuSans-45"/>
       <use x="226.953125" xlink:href="#DejaVuSans-52"/>
       <use x="290.576172" xlink:href="#DejaVuSans-56"/>
       <use x="354.199219" xlink:href="#DejaVuSans-52"/>
       <use x="417.822266" xlink:href="#DejaVuSans-32"/>
       <use x="449.609375" xlink:href="#DejaVuSans-108"/>
       <use x="477.392578" xlink:href="#DejaVuSans-111"/>
       <use x="538.574219" xlink:href="#DejaVuSans-119"/>
       <use x="620.361328" xlink:href="#DejaVuSans-32"/>
       <use x="652.148438" xlink:href="#DejaVuSans-109"/>
       <use x="749.560547" xlink:href="#DejaVuSans-97"/>
       <use x="810.839844" xlink:href="#DejaVuSans-103"/>
       <use x="874.316406" xlink:href="#DejaVuSans-110"/>
       <use x="937.695312" xlink:href="#DejaVuSans-105"/>
       <use x="965.478516" xlink:href="#DejaVuSans-116"/>
       <use x="1004.6875" xlink:href="#DejaVuSans-117"/>
       <use x="1068.066406" xlink:href="#DejaVuSans-100"/>
       <use x="1131.542969" xlink:href="#DejaVuSans-101"/>
       <use x="1193.066406" xlink:href="#DejaVuSans-32"/>
       <use x="1224.853516" xlink:href="#DejaVuSans-45"/>
       <use x="1260.9375" xlink:href="#DejaVuSans-32"/>
       <use x="1292.724609" xlink:href="#DejaVuSans-110"/>
       <use x="1356.103516" xlink:href="#DejaVuSans-111"/>
       <use x="1417.285156" xlink:href="#DejaVuSans-105"/>
       <use x="1445.068359" xlink:href="#DejaVuSans-115"/>
       <use x="1497.167969" xlink:href="#DejaVuSans-121"/>
      </g>
     </g>
    </g>
    <g id="ytick_5">
     <g id="line2d_9">
      <path d="M 164.152813 70.179024 
" style="fill:none;stroke:#333333;stroke-width:1.5;"/>
      <g>
       <use style="fill:#333333;stroke:#333333;" x="164.152813" xlink:href="#m54d1bd6757" y="70.179024"/>
      </g>
     </g>
     <g id="text_9">
      <!-- 443-450 -->
      <defs>
       <path d="M 40.578125 39.3125 
Q 47.65625 37.796875 51.625 33 
Q 55.609375 28.21875 55.609375 21.1875 
Q 55.609375 10.40625 48.1875 4.484375 
Q 40.765625 -1.421875 27.09375 -1.421875 
Q 22.515625 -1.421875 17.65625 -0.515625 
Q 12.796875 0.390625 7.625 2.203125 
L 7.625 11.71875 
Q 11.71875 9.328125 16.59375 8.109375 
Q 21.484375 6.890625 26.8125 6.890625 
Q 36.078125 6.890625 40.9375 10.546875 
Q 45.796875 14.203125 45.796875 21.1875 
Q 45.796875 27.640625 41.28125 31.265625 
Q 36.765625 34.90625 28.71875 34.90625 
L 20.21875 34.90625 
L 20.21875 43.015625 
L 29.109375 43.015625 
Q 36.375 43.015625 40.234375 45.921875 
Q 44.09375 48.828125 44.09375 54.296875 
Q 44.09375 59.90625 40.109375 62.90625 
Q 36.140625 65.921875 28.71875 65.921875 
Q 24.65625 65.921875 20.015625 65.03125 
Q 15.375 64.15625 9.8125 62.3125 
L 9.8125 71.09375 
Q 15.4375 72.65625 20.34375 73.4375 
Q 25.25 74.21875 29.59375 74.21875 
Q 40.828125 74.21875 47.359375 69.109375 
Q 53.90625 64.015625 53.90625 55.328125 
Q 53.90625 49.265625 50.4375 45.09375 
Q 46.96875 40.921875 40.578125 39.3125 
z
" id="DejaVuSans-51"/>
       <path d="M 31.78125 66.40625 
Q 24.171875 66.40625 20.328125 58.90625 
Q 16.5 51.421875 16.5 36.375 
Q 16.5 21.390625 20.328125 13.890625 
Q 24.171875 6.390625 31.78125 6.390625 
Q 39.453125 6.390625 43.28125 13.890625 
Q 47.125 21.390625 47.125 36.375 
Q 47.125 51.421875 43.28125 58.90625 
Q 39.453125 66.40625 31.78125 66.40625 
z
M 31.78125 74.21875 
Q 44.046875 74.21875 50.515625 64.515625 
Q 56.984375 54.828125 56.984375 36.375 
Q 56.984375 17.96875 50.515625 8.265625 
Q 44.046875 -1.421875 31.78125 -1.421875 
Q 19.53125 -1.421875 13.0625 8.265625 
Q 6.59375 17.96875 6.59375 36.375 
Q 6.59375 54.828125 13.0625 64.515625 
Q 19.53125 74.21875 31.78125 74.21875 
z
" id="DejaVuSans-48"/>
      </defs>
      <g style="fill:#4d4d4d;" transform="translate(122.433938 72.607274)scale(0.088 -0.088)">
       <use xlink:href="#DejaVuSans-52"/>
       <use x="63.623047" xlink:href="#DejaVuSans-52"/>
       <use x="127.246094" xlink:href="#DejaVuSans-51"/>
       <use x="190.869141" xlink:href="#DejaVuSans-45"/>
       <use x="226.953125" xlink:href="#DejaVuSans-52"/>
       <use x="290.576172" xlink:href="#DejaVuSans-53"/>
       <use x="354.199219" xlink:href="#DejaVuSans-48"/>
      </g>
     </g>
    </g>
    <g id="ytick_6">
     <g id="line2d_10">
      <path d="M 164.152813 56.657073 
" style="fill:none;stroke:#333333;stroke-width:1.5;"/>
      <g>
       <use style="fill:#333333;stroke:#333333;" x="164.152813" xlink:href="#m54d1bd6757" y="56.657073"/>
      </g>
     </g>
     <g id="text_10">
      <!-- core -->
      <g style="fill:#4d4d4d;" transform="translate(140.145313 59.085323)scale(0.088 -0.088)">
       <use xlink:href="#DejaVuSans-99"/>
       <use x="54.980469" xlink:href="#DejaVuSans-111"/>
       <use x="116.162109" xlink:href="#DejaVuSans-114"/>
       <use x="155.025391" xlink:href="#DejaVuSans-101"/>
      </g>
     </g>
    </g>
    <g id="ytick_7">
     <g id="line2d_11">
      <path d="M 164.152813 43.135122 
" style="fill:none;stroke:#333333;stroke-width:1.5;"/>
      <g>
       <use style="fill:#333333;stroke:#333333;" x="164.152813" xlink:href="#m54d1bd6757" y="43.135122"/>
      </g>
     </g>
     <g id="text_11">
      <!-- flat - noisy -->
      <defs>
       <path d="M 37.109375 75.984375 
L 37.109375 68.5 
L 28.515625 68.5 
Q 23.6875 68.5 21.796875 66.546875 
Q 19.921875 64.59375 19.921875 59.515625 
L 19.921875 54.6875 
L 34.71875 54.6875 
L 34.71875 47.703125 
L 19.921875 47.703125 
L 19.921875 0 
L 10.890625 0 
L 10.890625 47.703125 
L 2.296875 47.703125 
L 2.296875 54.6875 
L 10.890625 54.6875 
L 10.890625 58.5 
Q 10.890625 67.625 15.140625 71.796875 
Q 19.390625 75.984375 28.609375 75.984375 
z
" id="DejaVuSans-102"/>
      </defs>
      <g style="fill:#4d4d4d;" transform="translate(112.850188 45.563372)scale(0.088 -0.088)">
       <use xlink:href="#DejaVuSans-102"/>
       <use x="35.205078" xlink:href="#DejaVuSans-108"/>
       <use x="62.988281" xlink:href="#DejaVuSans-97"/>
       <use x="124.267578" xlink:href="#DejaVuSans-116"/>
       <use x="163.476562" xlink:href="#DejaVuSans-32"/>
       <use x="195.263672" xlink:href="#DejaVuSans-45"/>
       <use x="231.347656" xlink:href="#DejaVuSans-32"/>
       <use x="263.134766" xlink:href="#DejaVuSans-110"/>
       <use x="326.513672" xlink:href="#DejaVuSans-111"/>
       <use x="387.695312" xlink:href="#DejaVuSans-105"/>
       <use x="415.478516" xlink:href="#DejaVuSans-115"/>
       <use x="467.578125" xlink:href="#DejaVuSans-121"/>
      </g>
     </g>
    </g>
    <g id="ytick_8">
     <g id="line2d_12">
      <path d="M 164.152813 29.613171 
" style="fill:none;stroke:#333333;stroke-width:1.5;"/>
      <g>
       <use style="fill:#333333;stroke:#333333;" x="164.152813" xlink:href="#m54d1bd6757" y="29.613171"/>
      </g>
     </g>
     <g id="text_12">
      <!-- flat -->
      <g style="fill:#4d4d4d;" transform="translate(144.817563 32.041421)scale(0.088 -0.088)">
       <use xlink:href="#DejaVuSans-102"/>
       <use x="35.205078" xlink:href="#DejaVuSans-108"/>
       <use x="62.988281" xlink:href="#DejaVuSans-97"/>
       <use x="124.267578" xlink:href="#DejaVuSans-116"/>
      </g>
     </g>
    </g>
    <g id="text_13">
     <!-- escape map -->
     <g transform="translate(15.558281 109.707266)rotate(-90)scale(0.11 -0.11)">
      <use xlink:href="#DejaVuSans-101"/>
      <use x="61.523438" xlink:href="#DejaVuSans-115"/>
      <use x="113.623047" xlink:href="#DejaVuSans-99"/>
      <use x="168.603516" xlink:href="#DejaVuSans-97"/>
      <use x="229.882812" xlink:href="#DejaVuSans-112"/>
      <use x="293.359375" xlink:href="#DejaVuSans-101"/>
      <use x="354.882812" xlink:href="#DejaVuSans-32"/>
      <use x="386.669922" xlink:href="#DejaVuSans-109"/>
      <use x="484.082031" xlink:href="#DejaVuSans-97"/>
      <use x="545.361328" xlink:href="#DejaVuSans-112"/>
     </g>
    </g>
   </g>
   <g id="PathCollection_1">
    <path clip-path="url(#pe846ee6ed9)" d="M 207.653967 126.241068 
C 208.359058 126.241068 209.035364 125.960933 209.533938 125.462359 
C 210.032513 124.963785 210.312648 124.287478 210.312648 123.582388 
C 210.312648 122.877297 210.032513 122.200991 209.533938 121.702416 
C 209.035364 121.203842 208.359058 120.923707 207.653967 120.923707 
C 206.948877 120.923707 206.27257 121.203842 205.773996 121.702416 
C 205.275422 122.200991 204.995286 122.877297 204.995286 123.582388 
C 204.995286 124.287478 205.275422 124.963785 205.773996 125.462359 
C 206.27257 125.960933 206.948877 126.241068 207.653967 126.241068 
z
" style="fill-opacity:0.25098;stroke:#000000;stroke-opacity:0.25098;stroke-width:0.886227;"/>
    <path clip-path="url(#pe846ee6ed9)" d="M 229.59478 128.229274 
C 230.299871 128.229274 230.976177 127.949139 231.474752 127.450565 
C 231.973326 126.951991 232.253461 126.275684 232.253461 125.570594 
C 232.253461 124.865503 231.973326 124.189197 231.474752 123.690622 
C 230.976177 123.192048 230.299871 122.911913 229.59478 122.911913 
C 228.88969 122.911913 228.213383 123.192048 227.714809 123.690622 
C 227.216235 124.189197 226.9361 124.865503 226.9361 125.570594 
C 226.9361 126.275684 227.216235 126.951991 227.714809 127.450565 
C 228.213383 127.949139 228.88969 128.229274 229.59478 128.229274 
z
" style="fill-opacity:0.25098;stroke:#000000;stroke-opacity:0.25098;stroke-width:0.886227;"/>
    <path clip-path="url(#pe846ee6ed9)" d="M 254.464184 86.876594 
C 255.169275 86.876594 255.845581 86.596458 256.344155 86.097884 
C 256.84273 85.59931 257.122865 84.923003 257.122865 84.217913 
C 257.122865 83.512823 256.84273 82.836516 256.344155 82.337942 
C 255.845581 81.839368 255.169275 81.559232 254.464184 81.559232 
C 253.759094 81.559232 253.082787 81.839368 252.584213 82.337942 
C 252.085639 82.836516 251.805503 83.512823 251.805503 84.217913 
C 251.805503 84.923003 252.085639 85.59931 252.584213 86.097884 
C 253.082787 86.596458 253.759094 86.876594 254.464184 86.876594 
z
" style="fill-opacity:0.25098;stroke:#000000;stroke-opacity:0.25098;stroke-width:0.886227;"/>
    <path clip-path="url(#pe846ee6ed9)" d="M 205.936653 127.018048 
C 206.641744 127.018048 207.31805 126.737913 207.816624 126.239339 
C 208.315199 125.740765 208.595334 125.064458 208.595334 124.359368 
C 208.595334 123.654277 208.315199 122.977971 207.816624 122.479396 
C 207.31805 121.980822 206.641744 121.700687 205.936653 121.700687 
C 205.231563 121.700687 204.555256 121.980822 204.056682 122.479396 
C 203.558108 122.977971 203.277972 123.654277 203.277972 124.359368 
C 203.277972 125.064458 203.558108 125.740765 204.056682 126.239339 
C 204.555256 126.737913 205.231563 127.018048 205.936653 127.018048 
z
" style="fill-opacity:0.25098;stroke:#000000;stroke-opacity:0.25098;stroke-width:0.886227;"/>
    <path clip-path="url(#pe846ee6ed9)" d="M 254.325742 100.946487 
C 255.030833 100.946487 255.707139 100.666352 256.205713 100.167778 
C 256.704288 99.669204 256.984423 98.992897 256.984423 98.287807 
C 256.984423 97.582716 256.704288 96.90641 256.205713 96.407835 
C 255.707139 95.909261 255.030833 95.629126 254.325742 95.629126 
C 253.620652 95.629126 252.944345 95.909261 252.445771 96.407835 
C 251.947197 96.90641 251.667062 97.582716 251.667062 98.287807 
C 251.667062 98.992897 251.947197 99.669204 252.445771 100.167778 
C 252.944345 100.666352 253.620652 100.946487 254.325742 100.946487 
z
" style="fill-opacity:0.25098;stroke:#000000;stroke-opacity:0.25098;stroke-width:0.886227;"/>
    <path clip-path="url(#pe846ee6ed9)" d="M 202.443319 125.650941 
C 203.14841 125.650941 203.824716 125.370805 204.32329 124.872231 
C 204.821865 124.373657 205.102 123.69735 205.102 122.99226 
C 205.102 122.28717 204.821865 121.610863 204.32329 121.112289 
C 203.824716 120.613715 203.14841 120.333579 202.443319 120.333579 
C 201.738229 120.333579 201.061922 120.613715 200.563348 121.112289 
C 200.064774 121.610863 199.784638 122.28717 199.784638 122.99226 
C 199.784638 123.69735 200.064774 124.373657 200.563348 124.872231 
C 201.061922 125.370805 201.738229 125.650941 202.443319 125.650941 
z
" style="fill-opacity:0.25098;stroke:#000000;stroke-opacity:0.25098;stroke-width:0.886227;"/>
    <path clip-path="url(#pe846ee6ed9)" d="M 206.758177 128.510279 
C 207.463268 128.510279 208.139574 128.230143 208.638149 127.731569 
C 209.136723 127.232995 209.416858 126.556688 209.416858 125.851598 
C 209.416858 125.146507 209.136723 124.470201 208.638149 123.971627 
C 208.139574 123.473052 207.463268 123.192917 206.758177 123.192917 
C 206.053087 123.192917 205.37678 123.473052 204.878206 123.971627 
C 204.379632 124.470201 204.099497 125.146507 204.099497 125.851598 
C 204.099497 126.556688 204.379632 127.232995 204.878206 127.731569 
C 205.37678 128.230143 206.053087 128.510279 206.758177 128.510279 
z
" style="fill-opacity:0.25098;stroke:#000000;stroke-opacity:0.25098;stroke-width:0.886227;"/>
    <path clip-path="url(#pe846ee6ed9)" d="M 203.336333 126.941613 
C 204.041424 126.941613 204.71773 126.661478 205.216304 126.162904 
C 205.714879 125.66433 205.995014 124.988023 205.995014 124.282933 
C 205.995014 123.577842 205.714879 122.901536 205.216304 122.402961 
C 204.71773 121.904387 204.041424 121.624252 203.336333 121.624252 
C 202.631243 121.624252 201.954936 121.904387 201.456362 122.402961 
C 200.957788 122.901536 200.677652 123.577842 200.677652 124.282933 
C 200.677652 124.988023 200.957788 125.66433 201.456362 126.162904 
C 201.954936 126.661478 202.631243 126.941613 203.336333 126.941613 
z
" style="fill-opacity:0.25098;stroke:#000000;stroke-opacity:0.25098;stroke-width:0.886227;"/>
    <path clip-path="url(#pe846ee6ed9)" d="M 205.932644 33.911926 
C 206.637734 33.911926 207.314041 33.631791 207.812615 33.133217 
C 208.311189 32.634643 208.591324 31.958336 208.591324 31.253246 
C 208.591324 30.548155 208.311189 29.871849 207.812615 29.373274 
C 207.314041 28.8747 206.637734 28.594565 205.932644 28.594565 
C 205.227553 28.594565 204.551247 28.8747 204.052672 29.373274 
C 203.554098 29.871849 203.273963 30.548155 203.273963 31.253246 
C 203.273963 31.958336 203.554098 32.634643 204.052672 33.133217 
C 204.551247 33.631791 205.227553 33.911926 205.932644 33.911926 
z
" style="fill-opacity:0.25098;stroke:#000000;stroke-opacity:0.25098;stroke-width:0.886227;"/>
    <path clip-path="url(#pe846ee6ed9)" d="M 209.445403 126.613894 
C 210.150494 126.613894 210.8268 126.333758 211.325375 125.835184 
C 211.823949 125.33661 212.104084 124.660303 212.104084 123.955213 
C 212.104084 123.250123 211.823949 122.573816 211.325375 122.075242 
C 210.8268 121.576668 210.150494 121.296532 209.445403 121.296532 
C 208.740313 121.296532 208.064006 121.576668 207.565432 122.075242 
C 207.066858 122.573816 206.786723 123.250123 206.786723 123.955213 
C 206.786723 124.660303 207.066858 125.33661 207.565432 125.835184 
C 208.064006 126.333758 208.740313 126.613894 209.445403 126.613894 
z
" style="fill-opacity:0.25098;stroke:#000000;stroke-opacity:0.25098;stroke-width:0.886227;"/>
    <path clip-path="url(#pe846ee6ed9)" d="M 202.253102 126.253863 
C 202.958192 126.253863 203.634499 125.973728 204.133073 125.475154 
C 204.631647 124.976579 204.911783 124.300273 204.911783 123.595182 
C 204.911783 122.890092 204.631647 122.213785 204.133073 121.715211 
C 203.634499 121.216637 202.958192 120.936502 202.253102 120.936502 
C 201.548011 120.936502 200.871705 121.216637 200.373131 121.715211 
C 199.874556 122.213785 199.594421 122.890092 199.594421 123.595182 
C 199.594421 124.300273 199.874556 124.976579 200.373131 125.475154 
C 200.871705 125.973728 201.548011 126.253863 202.253102 126.253863 
z
" style="fill-opacity:0.25098;stroke:#000000;stroke-opacity:0.25098;stroke-width:0.886227;"/>
    <path clip-path="url(#pe846ee6ed9)" d="M 205.658971 125.501153 
C 206.364062 125.501153 207.040368 125.221018 207.538942 124.722444 
C 208.037517 124.223869 208.317652 123.547563 208.317652 122.842472 
C 208.317652 122.137382 208.037517 121.461075 207.538942 120.962501 
C 207.040368 120.463927 206.364062 120.183792 205.658971 120.183792 
C 204.953881 120.183792 204.277574 120.463927 203.779 120.962501 
C 203.280426 121.461075 203.000291 122.137382 203.000291 122.842472 
C 203.000291 123.547563 203.280426 124.223869 203.779 124.722444 
C 204.277574 125.221018 204.953881 125.501153 205.658971 125.501153 
z
" style="fill-opacity:0.25098;stroke:#000000;stroke-opacity:0.25098;stroke-width:0.886227;"/>
    <path clip-path="url(#pe846ee6ed9)" d="M 230.762705 72.50942 
C 231.467795 72.50942 232.144102 72.229285 232.642676 71.730711 
C 233.14125 71.232137 233.421386 70.55583 233.421386 69.85074 
C 233.421386 69.145649 233.14125 68.469343 232.642676 67.970768 
C 232.144102 67.472194 231.467795 67.192059 230.762705 67.192059 
C 230.057614 67.192059 229.381308 67.472194 228.882734 67.970768 
C 228.384159 68.469343 228.104024 69.145649 228.104024 69.85074 
C 228.104024 70.55583 228.384159 71.232137 228.882734 71.730711 
C 229.381308 72.229285 230.057614 72.50942 230.762705 72.50942 
z
" style="fill-opacity:0.25098;stroke:#000000;stroke-opacity:0.25098;stroke-width:0.886227;"/>
    <path clip-path="url(#pe846ee6ed9)" d="M 228.927327 71.263801 
C 229.632417 71.263801 230.308724 70.983665 230.807298 70.485091 
C 231.305872 69.986517 231.586007 69.31021 231.586007 68.60512 
C 231.586007 67.90003 231.305872 67.223723 230.807298 66.725149 
C 230.308724 66.226575 229.632417 65.946439 228.927327 65.946439 
C 228.222236 65.946439 227.54593 66.226575 227.047355 66.725149 
C 226.548781 67.223723 226.268646 67.90003 226.268646 68.60512 
C 226.268646 69.31021 226.548781 69.986517 227.047355 70.485091 
C 227.54593 70.983665 228.222236 71.263801 228.927327 71.263801 
z
" style="fill-opacity:0.25098;stroke:#000000;stroke-opacity:0.25098;stroke-width:0.886227;"/>
    <path clip-path="url(#pe846ee6ed9)" d="M 256.795284 30.992171 
C 257.500374 30.992171 258.176681 30.712035 258.675255 30.213461 
C 259.173829 29.714887 259.453964 29.03858 259.453964 28.33349 
C 259.453964 27.628399 259.173829 26.952093 258.675255 26.453519 
C 258.176681 25.954944 257.500374 25.674809 256.795284 25.674809 
C 256.090193 25.674809 255.413887 25.954944 254.915312 26.453519 
C 254.416738 26.952093 254.136603 27.628399 254.136603 28.33349 
C 254.136603 29.03858 254.416738 29.714887 254.915312 30.213461 
C 255.413887 30.712035 256.090193 30.992171 256.795284 30.992171 
z
" style="fill-opacity:0.25098;stroke:#000000;stroke-opacity:0.25098;stroke-width:0.886227;"/>
    <path clip-path="url(#pe846ee6ed9)" d="M 256.919441 73.143582 
C 257.624532 73.143582 258.300838 72.863447 258.799413 72.364872 
C 259.297987 71.866298 259.578122 71.189992 259.578122 70.484901 
C 259.578122 69.779811 259.297987 69.103504 258.799413 68.60493 
C 258.300838 68.106356 257.624532 67.82622 256.919441 67.82622 
C 256.214351 67.82622 255.538044 68.106356 255.03947 68.60493 
C 254.540896 69.103504 254.260761 69.779811 254.260761 70.484901 
C 254.260761 71.189992 254.540896 71.866298 255.03947 72.364872 
C 255.538044 72.863447 256.214351 73.143582 256.919441 73.143582 
z
" style="fill-opacity:0.25098;stroke:#000000;stroke-opacity:0.25098;stroke-width:0.886227;"/>
    <path clip-path="url(#pe846ee6ed9)" d="M 257.365807 72.256482 
C 258.070897 72.256482 258.747204 71.976346 259.245778 71.477772 
C 259.744352 70.979198 260.024488 70.302891 260.024488 69.597801 
C 260.024488 68.892711 259.744352 68.216404 259.245778 67.71783 
C 258.747204 67.219256 258.070897 66.93912 257.365807 66.93912 
C 256.660716 66.93912 255.98441 67.219256 255.485836 67.71783 
C 254.987261 68.216404 254.707126 68.892711 254.707126 69.597801 
C 254.707126 70.302891 254.987261 70.979198 255.485836 71.477772 
C 255.98441 71.976346 256.660716 72.256482 257.365807 72.256482 
z
" style="fill-opacity:0.25098;stroke:#000000;stroke-opacity:0.25098;stroke-width:0.886227;"/>
    <path clip-path="url(#pe846ee6ed9)" d="M 260.501733 71.522835 
C 261.206823 71.522835 261.88313 71.2427 262.381704 70.744125 
C 262.880278 70.245551 263.160413 69.569245 263.160413 68.864154 
C 263.160413 68.159064 262.880278 67.482757 262.381704 66.984183 
C 261.88313 66.485609 261.206823 66.205473 260.501733 66.205473 
C 259.796642 66.205473 259.120336 66.485609 258.621761 66.984183 
C 258.123187 67.482757 257.843052 68.159064 257.843052 68.864154 
C 257.843052 69.569245 258.123187 70.245551 258.621761 70.744125 
C 259.120336 71.2427 259.796642 71.522835 260.501733 71.522835 
z
" style="fill-opacity:0.25098;stroke:#000000;stroke-opacity:0.25098;stroke-width:0.886227;"/>
    <path clip-path="url(#pe846ee6ed9)" d="M 260.671761 73.07399 
C 261.376851 73.07399 262.053158 72.793855 262.551732 72.29528 
C 263.050306 71.796706 263.330441 71.1204 263.330441 70.415309 
C 263.330441 69.710219 263.050306 69.033912 262.551732 68.535338 
C 262.053158 68.036764 261.376851 67.756628 260.671761 67.756628 
C 259.96667 67.756628 259.290363 68.036764 258.791789 68.535338 
C 258.293215 69.033912 258.01308 69.710219 258.01308 70.415309 
C 258.01308 71.1204 258.293215 71.796706 258.791789 72.29528 
C 259.290363 72.793855 259.96667 73.07399 260.671761 73.07399 
z
" style="fill-opacity:0.25098;stroke:#000000;stroke-opacity:0.25098;stroke-width:0.886227;"/>
    <path clip-path="url(#pe846ee6ed9)" d="M 202.991092 60.882067 
C 203.696183 60.882067 204.372489 60.601932 204.871064 60.103358 
C 205.369638 59.604784 205.649773 58.928477 205.649773 58.223387 
C 205.649773 57.518296 205.369638 56.84199 204.871064 56.343415 
C 204.372489 55.844841 203.696183 55.564706 202.991092 55.564706 
C 202.286002 55.564706 201.609695 55.844841 201.111121 56.343415 
C 200.612547 56.84199 200.332412 57.518296 200.332412 58.223387 
C 200.332412 58.928477 200.612547 59.604784 201.111121 60.103358 
C 201.609695 60.601932 202.286002 60.882067 202.991092 60.882067 
z
" style="fill-opacity:0.25098;stroke:#000000;stroke-opacity:0.25098;stroke-width:0.886227;"/>
    <path clip-path="url(#pe846ee6ed9)" d="M 255.187632 33.296347 
C 255.892722 33.296347 256.569029 33.016212 257.067603 32.517638 
C 257.566177 32.019063 257.846312 31.342757 257.846312 30.637666 
C 257.846312 29.932576 257.566177 29.256269 257.067603 28.757695 
C 256.569029 28.259121 255.892722 27.978986 255.187632 27.978986 
C 254.482541 27.978986 253.806235 28.259121 253.30766 28.757695 
C 252.809086 29.256269 252.528951 29.932576 252.528951 30.637666 
C 252.528951 31.342757 252.809086 32.019063 253.30766 32.517638 
C 253.806235 33.016212 254.482541 33.296347 255.187632 33.296347 
z
" style="fill-opacity:0.25098;stroke:#000000;stroke-opacity:0.25098;stroke-width:0.886227;"/>
    <path clip-path="url(#pe846ee6ed9)" d="M 206.650941 113.477648 
C 207.356031 113.477648 208.032338 113.197513 208.530912 112.698939 
C 209.029486 112.200364 209.309622 111.524058 209.309622 110.818967 
C 209.309622 110.113877 209.029486 109.43757 208.530912 108.938996 
C 208.032338 108.440422 207.356031 108.160287 206.650941 108.160287 
C 205.94585 108.160287 205.269544 108.440422 204.77097 108.938996 
C 204.272395 109.43757 203.99226 110.113877 203.99226 110.818967 
C 203.99226 111.524058 204.272395 112.200364 204.77097 112.698939 
C 205.269544 113.197513 205.94585 113.477648 206.650941 113.477648 
z
" style="fill-opacity:0.25098;stroke:#000000;stroke-opacity:0.25098;stroke-width:0.886227;"/>
    <path clip-path="url(#pe846ee6ed9)" d="M 202.978564 112.732077 
C 203.683655 112.732077 204.359961 112.451941 204.858536 111.953367 
C 205.35711 111.454793 205.637245 110.778486 205.637245 110.073396 
C 205.637245 109.368306 205.35711 108.691999 204.858536 108.193425 
C 204.359961 107.694851 203.683655 107.414715 202.978564 107.414715 
C 202.273474 107.414715 201.597167 107.694851 201.098593 108.193425 
C 200.600019 108.691999 200.319884 109.368306 200.319884 110.073396 
C 200.319884 110.778486 200.600019 111.454793 201.098593 111.953367 
C 201.597167 112.451941 202.273474 112.732077 202.978564 112.732077 
z
" style="fill-opacity:0.25098;stroke:#000000;stroke-opacity:0.25098;stroke-width:0.886227;"/>
   </g>
   <g id="patch_3">
    <path d="M 164.152813 21.5 
L 273.232813 21.5 
L 273.232813 7.2 
L 164.152813 7.2 
z
" style="fill:none;stroke:#000000;stroke-linejoin:miter;"/>
   </g>
   <g id="patch_4">
    <path d="M 164.152813 132.38 
L 164.152813 21.5 
" style="fill:none;stroke:#000000;stroke-linecap:square;stroke-linejoin:miter;"/>
   </g>
   <g id="patch_5">
    <path d="M 164.152813 132.38 
L 273.232813 132.38 
" style="fill:none;stroke:#000000;stroke-linecap:square;stroke-linejoin:miter;"/>
   </g>
   <g id="text_14">
    <!-- convalescent -->
    <defs>
     <path d="M 2.984375 54.6875 
L 12.5 54.6875 
L 29.59375 8.796875 
L 46.6875 54.6875 
L 56.203125 54.6875 
L 35.6875 0 
L 23.484375 0 
z
" id="DejaVuSans-118"/>
    </defs>
    <g style="fill:#1a1a1a;" transform="translate(189.630125 16.77825)scale(0.088 -0.088)">
     <use xlink:href="#DejaVuSans-99"/>
     <use x="54.980469" xlink:href="#DejaVuSans-111"/>
     <use x="116.162109" xlink:href="#DejaVuSans-110"/>
     <use x="179.541016" xlink:href="#DejaVuSans-118"/>
     <use x="238.720703" xlink:href="#DejaVuSans-97"/>
     <use x="300" xlink:href="#DejaVuSans-108"/>
     <use x="327.783203" xlink:href="#DejaVuSans-101"/>
     <use x="389.306641" xlink:href="#DejaVuSans-115"/>
     <use x="441.40625" xlink:href="#DejaVuSans-99"/>
     <use x="496.386719" xlink:href="#DejaVuSans-101"/>
     <use x="557.910156" xlink:href="#DejaVuSans-110"/>
     <use x="621.289062" xlink:href="#DejaVuSans-116"/>
    </g>
   </g>
  </g>
  <g id="axes_2">
   <g id="patch_6">
    <path d="M 278.272813 132.38 
L 387.352813 132.38 
L 387.352813 21.5 
L 278.272813 21.5 
z
" style="fill:#ffffff;"/>
   </g>
   <g id="matplotlib.axis_3">
    <g id="xtick_5">
     <g id="line2d_13">
      <path d="M 293.85567 132.38 
" style="fill:none;stroke:#333333;stroke-linecap:square;stroke-width:1.5;"/>
      <g>
       <use style="fill:#333333;stroke:#333333;" x="293.85567" xlink:href="#m0e210ed299" y="132.38"/>
      </g>
     </g>
     <g id="text_15">
      <!-- extra escape -->
      <g style="fill:#4d4d4d;" transform="translate(296.28392 194.288)rotate(-90)scale(0.088 -0.088)">
       <use xlink:href="#DejaVuSans-101"/>
       <use x="59.773438" xlink:href="#DejaVuSans-120"/>
       <use x="118.953125" xlink:href="#DejaVuSans-116"/>
       <use x="158.162109" xlink:href="#DejaVuSans-114"/>
       <use x="199.275391" xlink:href="#DejaVuSans-97"/>
       <use x="260.554688" xlink:href="#DejaVuSans-32"/>
       <use x="292.341797" xlink:href="#DejaVuSans-101"/>
       <use x="353.865234" xlink:href="#DejaVuSans-115"/>
       <use x="405.964844" xlink:href="#DejaVuSans-99"/>
       <use x="460.945312" xlink:href="#DejaVuSans-97"/>
       <use x="522.224609" xlink:href="#DejaVuSans-112"/>
       <use x="585.701172" xlink:href="#DejaVuSans-101"/>
      </g>
     </g>
    </g>
    <g id="xtick_6">
     <g id="line2d_14">
      <path d="M 319.827098 132.38 
" style="fill:none;stroke:#333333;stroke-linecap:square;stroke-width:1.5;"/>
      <g>
       <use style="fill:#333333;stroke:#333333;" x="319.827098" xlink:href="#m0e210ed299" y="132.38"/>
      </g>
     </g>
     <g id="text_16">
      <!-- normal -->
      <g style="fill:#4d4d4d;" transform="translate(322.255348 168.164375)rotate(-90)scale(0.088 -0.088)">
       <use xlink:href="#DejaVuSans-110"/>
       <use x="63.378906" xlink:href="#DejaVuSans-111"/>
       <use x="124.560547" xlink:href="#DejaVuSans-114"/>
       <use x="163.923828" xlink:href="#DejaVuSans-109"/>
       <use x="261.335938" xlink:href="#DejaVuSans-97"/>
       <use x="322.615234" xlink:href="#DejaVuSans-108"/>
      </g>
     </g>
    </g>
    <g id="xtick_7">
     <g id="line2d_15">
      <path d="M 345.798527 132.38 
" style="fill:none;stroke:#333333;stroke-linecap:square;stroke-width:1.5;"/>
      <g>
       <use style="fill:#333333;stroke:#333333;" x="345.798527" xlink:href="#m0e210ed299" y="132.38"/>
      </g>
     </g>
     <g id="text_17">
      <!-- normal-no escape -->
      <g style="fill:#4d4d4d;" transform="translate(348.226777 216.32925)rotate(-90)scale(0.088 -0.088)">
       <use xlink:href="#DejaVuSans-110"/>
       <use x="63.378906" xlink:href="#DejaVuSans-111"/>
       <use x="124.560547" xlink:href="#DejaVuSans-114"/>
       <use x="163.923828" xlink:href="#DejaVuSans-109"/>
       <use x="261.335938" xlink:href="#DejaVuSans-97"/>
       <use x="322.615234" xlink:href="#DejaVuSans-108"/>
       <use x="350.398438" xlink:href="#DejaVuSans-45"/>
       <use x="386.482422" xlink:href="#DejaVuSans-110"/>
       <use x="449.861328" xlink:href="#DejaVuSans-111"/>
       <use x="511.042969" xlink:href="#DejaVuSans-32"/>
       <use x="542.830078" xlink:href="#DejaVuSans-101"/>
       <use x="604.353516" xlink:href="#DejaVuSans-115"/>
       <use x="656.453125" xlink:href="#DejaVuSans-99"/>
       <use x="711.433594" xlink:href="#DejaVuSans-97"/>
       <use x="772.712891" xlink:href="#DejaVuSans-112"/>
       <use x="836.189453" xlink:href="#DejaVuSans-101"/>
      </g>
     </g>
    </g>
    <g id="xtick_8">
     <g id="line2d_16">
      <path d="M 371.769955 132.38 
" style="fill:none;stroke:#333333;stroke-linecap:square;stroke-width:1.5;"/>
      <g>
       <use style="fill:#333333;stroke:#333333;" x="371.769955" xlink:href="#m0e210ed299" y="132.38"/>
      </g>
     </g>
     <g id="text_18">
      <!-- no escape -->
      <g style="fill:#4d4d4d;" transform="translate(374.198205 182.32)rotate(-90)scale(0.088 -0.088)">
       <use xlink:href="#DejaVuSans-110"/>
       <use x="63.378906" xlink:href="#DejaVuSans-111"/>
       <use x="124.560547" xlink:href="#DejaVuSans-32"/>
       <use x="156.347656" xlink:href="#DejaVuSans-101"/>
       <use x="217.871094" xlink:href="#DejaVuSans-115"/>
       <use x="269.970703" xlink:href="#DejaVuSans-99"/>
       <use x="324.951172" xlink:href="#DejaVuSans-97"/>
       <use x="386.230469" xlink:href="#DejaVuSans-112"/>
       <use x="449.707031" xlink:href="#DejaVuSans-101"/>
      </g>
     </g>
    </g>
    <g id="text_19">
     <!-- FACS plot shape -->
     <defs>
      <path d="M 9.8125 72.90625 
L 51.703125 72.90625 
L 51.703125 64.59375 
L 19.671875 64.59375 
L 19.671875 43.109375 
L 48.578125 43.109375 
L 48.578125 34.8125 
L 19.671875 34.8125 
L 19.671875 0 
L 9.8125 0 
z
" id="DejaVuSans-70"/>
      <path d="M 34.1875 63.1875 
L 20.796875 26.90625 
L 47.609375 26.90625 
z
M 28.609375 72.90625 
L 39.796875 72.90625 
L 67.578125 0 
L 57.328125 0 
L 50.6875 18.703125 
L 17.828125 18.703125 
L 11.1875 0 
L 0.78125 0 
z
" id="DejaVuSans-65"/>
      <path d="M 64.40625 67.28125 
L 64.40625 56.890625 
Q 59.421875 61.53125 53.78125 63.8125 
Q 48.140625 66.109375 41.796875 66.109375 
Q 29.296875 66.109375 22.65625 58.46875 
Q 16.015625 50.828125 16.015625 36.375 
Q 16.015625 21.96875 22.65625 14.328125 
Q 29.296875 6.6875 41.796875 6.6875 
Q 48.140625 6.6875 53.78125 8.984375 
Q 59.421875 11.28125 64.40625 15.921875 
L 64.40625 5.609375 
Q 59.234375 2.09375 53.4375 0.328125 
Q 47.65625 -1.421875 41.21875 -1.421875 
Q 24.65625 -1.421875 15.125 8.703125 
Q 5.609375 18.84375 5.609375 36.375 
Q 5.609375 53.953125 15.125 64.078125 
Q 24.65625 74.21875 41.21875 74.21875 
Q 47.75 74.21875 53.53125 72.484375 
Q 59.328125 70.75 64.40625 67.28125 
z
" id="DejaVuSans-67"/>
      <path d="M 53.515625 70.515625 
L 53.515625 60.890625 
Q 47.90625 63.578125 42.921875 64.890625 
Q 37.9375 66.21875 33.296875 66.21875 
Q 25.25 66.21875 20.875 63.09375 
Q 16.5 59.96875 16.5 54.203125 
Q 16.5 49.359375 19.40625 46.890625 
Q 22.3125 44.4375 30.421875 42.921875 
L 36.375 41.703125 
Q 47.40625 39.59375 52.65625 34.296875 
Q 57.90625 29 57.90625 20.125 
Q 57.90625 9.515625 50.796875 4.046875 
Q 43.703125 -1.421875 29.984375 -1.421875 
Q 24.8125 -1.421875 18.96875 -0.25 
Q 13.140625 0.921875 6.890625 3.21875 
L 6.890625 13.375 
Q 12.890625 10.015625 18.65625 8.296875 
Q 24.421875 6.59375 29.984375 6.59375 
Q 38.421875 6.59375 43.015625 9.90625 
Q 47.609375 13.234375 47.609375 19.390625 
Q 47.609375 24.75 44.3125 27.78125 
Q 41.015625 30.8125 33.5 32.328125 
L 27.484375 33.5 
Q 16.453125 35.6875 11.515625 40.375 
Q 6.59375 45.0625 6.59375 53.421875 
Q 6.59375 63.09375 13.40625 68.65625 
Q 20.21875 74.21875 32.171875 74.21875 
Q 37.3125 74.21875 42.625 73.28125 
Q 47.953125 72.359375 53.515625 70.515625 
z
" id="DejaVuSans-83"/>
      <path d="M 54.890625 33.015625 
L 54.890625 0 
L 45.90625 0 
L 45.90625 32.71875 
Q 45.90625 40.484375 42.875 44.328125 
Q 39.84375 48.1875 33.796875 48.1875 
Q 26.515625 48.1875 22.3125 43.546875 
Q 18.109375 38.921875 18.109375 30.90625 
L 18.109375 0 
L 9.078125 0 
L 9.078125 75.984375 
L 18.109375 75.984375 
L 18.109375 46.1875 
Q 21.34375 51.125 25.703125 53.5625 
Q 30.078125 56 35.796875 56 
Q 45.21875 56 50.046875 50.171875 
Q 54.890625 44.34375 54.890625 33.015625 
z
" id="DejaVuSans-104"/>
     </defs>
     <g transform="translate(227.858906 229.087531)scale(0.11 -0.11)">
      <use xlink:href="#DejaVuSans-70"/>
      <use x="48.394531" xlink:href="#DejaVuSans-65"/>
      <use x="115.052734" xlink:href="#DejaVuSans-67"/>
      <use x="184.876953" xlink:href="#DejaVuSans-83"/>
      <use x="248.353516" xlink:href="#DejaVuSans-32"/>
      <use x="280.140625" xlink:href="#DejaVuSans-112"/>
      <use x="343.617188" xlink:href="#DejaVuSans-108"/>
      <use x="371.400391" xlink:href="#DejaVuSans-111"/>
      <use x="432.582031" xlink:href="#DejaVuSans-116"/>
      <use x="471.791016" xlink:href="#DejaVuSans-32"/>
      <use x="503.578125" xlink:href="#DejaVuSans-115"/>
      <use x="555.677734" xlink:href="#DejaVuSans-104"/>
      <use x="619.056641" xlink:href="#DejaVuSans-97"/>
      <use x="680.335938" xlink:href="#DejaVuSans-112"/>
      <use x="743.8125" xlink:href="#DejaVuSans-101"/>
     </g>
    </g>
   </g>
   <g id="matplotlib.axis_4">
    <g id="ytick_9"/>
    <g id="ytick_10"/>
    <g id="ytick_11"/>
    <g id="ytick_12"/>
    <g id="ytick_13"/>
    <g id="ytick_14"/>
    <g id="ytick_15"/>
    <g id="ytick_16"/>
   </g>
   <g id="PathCollection_2">
    <path clip-path="url(#p9bef61fd3f)" d="M 343.345422 126.558014 
C 344.050512 126.558014 344.726819 126.277879 345.225393 125.779305 
C 345.723967 125.280731 346.004103 124.604424 346.004103 123.899334 
C 346.004103 123.194243 345.723967 122.517937 345.225393 122.019363 
C 344.726819 121.520788 344.050512 121.240653 343.345422 121.240653 
C 342.640332 121.240653 341.964025 121.520788 341.465451 122.019363 
C 340.966877 122.517937 340.686741 123.194243 340.686741 123.899334 
C 340.686741 124.604424 340.966877 125.280731 341.465451 125.779305 
C 341.964025 126.277879 342.640332 126.558014 343.345422 126.558014 
z
" style="fill-opacity:0.25098;stroke:#000000;stroke-opacity:0.25098;stroke-width:0.886227;"/>
    <path clip-path="url(#p9bef61fd3f)" d="M 317.734019 34.112915 
C 318.439109 34.112915 319.115416 33.83278 319.61399 33.334205 
C 320.112564 32.835631 320.392699 32.159325 320.392699 31.454234 
C 320.392699 30.749144 320.112564 30.072837 319.61399 29.574263 
C 319.115416 29.075689 318.439109 28.795553 317.734019 28.795553 
C 317.028928 28.795553 316.352622 29.075689 315.854047 29.574263 
C 315.355473 30.072837 315.075338 30.749144 315.075338 31.454234 
C 315.075338 32.159325 315.355473 32.835631 315.854047 33.334205 
C 316.352622 33.83278 317.028928 34.112915 317.734019 34.112915 
z
" style="fill-opacity:0.25098;stroke:#000000;stroke-opacity:0.25098;stroke-width:0.886227;"/>
    <path clip-path="url(#p9bef61fd3f)" d="M 317.853475 114.208759 
C 318.558566 114.208759 319.234872 113.928623 319.733447 113.430049 
C 320.232021 112.931475 320.512156 112.255168 320.512156 111.550078 
C 320.512156 110.844987 320.232021 110.168681 319.733447 109.670107 
C 319.234872 109.171532 318.558566 108.891397 317.853475 108.891397 
C 317.148385 108.891397 316.472078 109.171532 315.973504 109.670107 
C 315.47493 110.168681 315.194795 110.844987 315.194795 111.550078 
C 315.194795 112.255168 315.47493 112.931475 315.973504 113.430049 
C 316.472078 113.928623 317.148385 114.208759 317.853475 114.208759 
z
" style="fill-opacity:0.25098;stroke:#000000;stroke-opacity:0.25098;stroke-width:0.886227;"/>
    <path clip-path="url(#p9bef61fd3f)" d="M 342.381032 57.822835 
C 343.086122 57.822835 343.762429 57.542699 344.261003 57.044125 
C 344.759577 56.545551 345.039712 55.869244 345.039712 55.164154 
C 345.039712 54.459064 344.759577 53.782757 344.261003 53.284183 
C 343.762429 52.785609 343.086122 52.505473 342.381032 52.505473 
C 341.675941 52.505473 340.999635 52.785609 340.501061 53.284183 
C 340.002486 53.782757 339.722351 54.459064 339.722351 55.164154 
C 339.722351 55.869244 340.002486 56.545551 340.501061 57.044125 
C 340.999635 57.542699 341.675941 57.822835 342.381032 57.822835 
z
" style="fill-opacity:0.25098;stroke:#000000;stroke-opacity:0.25098;stroke-width:0.886227;"/>
    <path clip-path="url(#p9bef61fd3f)" d="M 294.292739 31.781092 
C 294.997829 31.781092 295.674136 31.500957 296.17271 31.002383 
C 296.671284 30.503809 296.951419 29.827502 296.951419 29.122412 
C 296.951419 28.417321 296.671284 27.741015 296.17271 27.24244 
C 295.674136 26.743866 294.997829 26.463731 294.292739 26.463731 
C 293.587648 26.463731 292.911342 26.743866 292.412767 27.24244 
C 291.914193 27.741015 291.634058 28.417321 291.634058 29.122412 
C 291.634058 29.827502 291.914193 30.503809 292.412767 31.002383 
C 292.911342 31.500957 293.587648 31.781092 294.292739 31.781092 
z
" style="fill-opacity:0.25098;stroke:#000000;stroke-opacity:0.25098;stroke-width:0.886227;"/>
    <path clip-path="url(#p9bef61fd3f)" d="M 319.072937 33.265142 
C 319.778027 33.265142 320.454334 32.985007 320.952908 32.486433 
C 321.451482 31.987859 321.731618 31.311552 321.731618 30.606462 
C 321.731618 29.901371 321.451482 29.225065 320.952908 28.72649 
C 320.454334 28.227916 319.778027 27.947781 319.072937 27.947781 
C 318.367846 27.947781 317.69154 28.227916 317.192966 28.72649 
C 316.694391 29.225065 316.414256 29.901371 316.414256 30.606462 
C 316.414256 31.311552 316.694391 31.987859 317.192966 32.486433 
C 317.69154 32.985007 318.367846 33.265142 319.072937 33.265142 
z
" style="fill-opacity:0.25098;stroke:#000000;stroke-opacity:0.25098;stroke-width:0.886227;"/>
    <path clip-path="url(#p9bef61fd3f)" d="M 321.028882 115.38316 
C 321.733972 115.38316 322.410279 115.103024 322.908853 114.60445 
C 323.407427 114.105876 323.687563 113.429569 323.687563 112.724479 
C 323.687563 112.019389 323.407427 111.343082 322.908853 110.844508 
C 322.410279 110.345934 321.733972 110.065798 321.028882 110.065798 
C 320.323792 110.065798 319.647485 110.345934 319.148911 110.844508 
C 318.650336 111.343082 318.370201 112.019389 318.370201 112.724479 
C 318.370201 113.429569 318.650336 114.105876 319.148911 114.60445 
C 319.647485 115.103024 320.323792 115.38316 321.028882 115.38316 
z
" style="fill-opacity:0.25098;stroke:#000000;stroke-opacity:0.25098;stroke-width:0.886227;"/>
    <path clip-path="url(#p9bef61fd3f)" d="M 296.323422 126.951551 
C 297.028513 126.951551 297.704819 126.671416 298.203393 126.172842 
C 298.701968 125.674268 298.982103 124.997961 298.982103 124.292871 
C 298.982103 123.58778 298.701968 122.911474 298.203393 122.412899 
C 297.704819 121.914325 297.028513 121.63419 296.323422 121.63419 
C 295.618332 121.63419 294.942025 121.914325 294.443451 122.412899 
C 293.944877 122.911474 293.664741 123.58778 293.664741 124.292871 
C 293.664741 124.997961 293.944877 125.674268 294.443451 126.172842 
C 294.942025 126.671416 295.618332 126.951551 296.323422 126.951551 
z
" style="fill-opacity:0.25098;stroke:#000000;stroke-opacity:0.25098;stroke-width:0.886227;"/>
    <path clip-path="url(#p9bef61fd3f)" d="M 369.452355 87.104606 
C 370.157445 87.104606 370.833752 86.824471 371.332326 86.325897 
C 371.8309 85.827322 372.111036 85.151016 372.111036 84.445925 
C 372.111036 83.740835 371.8309 83.064528 371.332326 82.565954 
C 370.833752 82.06738 370.157445 81.787245 369.452355 81.787245 
C 368.747264 81.787245 368.070958 82.06738 367.572384 82.565954 
C 367.073809 83.064528 366.793674 83.740835 366.793674 84.445925 
C 366.793674 85.151016 367.073809 85.827322 367.572384 86.325897 
C 368.070958 86.824471 368.747264 87.104606 369.452355 87.104606 
z
" style="fill-opacity:0.25098;stroke:#000000;stroke-opacity:0.25098;stroke-width:0.886227;"/>
    <path clip-path="url(#p9bef61fd3f)" d="M 321.165379 33.454082 
C 321.87047 33.454082 322.546776 33.173947 323.045351 32.675373 
C 323.543925 32.176799 323.82406 31.500492 323.82406 30.795402 
C 323.82406 30.090311 323.543925 29.414005 323.045351 28.91543 
C 322.546776 28.416856 321.87047 28.136721 321.165379 28.136721 
C 320.460289 28.136721 319.783982 28.416856 319.285408 28.91543 
C 318.786834 29.414005 318.506699 30.090311 318.506699 30.795402 
C 318.506699 31.500492 318.786834 32.176799 319.285408 32.675373 
C 319.783982 33.173947 320.460289 33.454082 321.165379 33.454082 
z
" style="fill-opacity:0.25098;stroke:#000000;stroke-opacity:0.25098;stroke-width:0.886227;"/>
    <path clip-path="url(#p9bef61fd3f)" d="M 375.301653 58.345173 
C 376.006743 58.345173 376.68305 58.065038 377.181624 57.566463 
C 377.680198 57.067889 377.960334 56.391583 377.960334 55.686492 
C 377.960334 54.981402 377.680198 54.305095 377.181624 53.806521 
C 376.68305 53.307947 376.006743 53.027811 375.301653 53.027811 
C 374.596563 53.027811 373.920256 53.307947 373.421682 53.806521 
C 372.923108 54.305095 372.642972 54.981402 372.642972 55.686492 
C 372.642972 56.391583 372.923108 57.067889 373.421682 57.566463 
C 373.920256 58.065038 374.596563 58.345173 375.301653 58.345173 
z
" style="fill-opacity:0.25098;stroke:#000000;stroke-opacity:0.25098;stroke-width:0.886227;"/>
    <path clip-path="url(#p9bef61fd3f)" d="M 294.077742 33.374558 
C 294.782832 33.374558 295.459139 33.094423 295.957713 32.595849 
C 296.456287 32.097274 296.736422 31.420968 296.736422 30.715877 
C 296.736422 30.010787 296.456287 29.33448 295.957713 28.835906 
C 295.459139 28.337332 294.782832 28.057197 294.077742 28.057197 
C 293.372651 28.057197 292.696345 28.337332 292.19777 28.835906 
C 291.699196 29.33448 291.419061 30.010787 291.419061 30.715877 
C 291.419061 31.420968 291.699196 32.097274 292.19777 32.595849 
C 292.696345 33.094423 293.372651 33.374558 294.077742 33.374558 
z
" style="fill-opacity:0.25098;stroke:#000000;stroke-opacity:0.25098;stroke-width:0.886227;"/>
    <path clip-path="url(#p9bef61fd3f)" d="M 321.278215 32.596293 
C 321.983306 32.596293 322.659612 32.316158 323.158186 31.817583 
C 323.656761 31.319009 323.936896 30.642703 323.936896 29.937612 
C 323.936896 29.232522 323.656761 28.556215 323.158186 28.057641 
C 322.659612 27.559067 321.983306 27.278931 321.278215 27.278931 
C 320.573125 27.278931 319.896818 27.559067 319.398244 28.057641 
C 318.89967 28.556215 318.619534 29.232522 318.619534 29.937612 
C 318.619534 30.642703 318.89967 31.319009 319.398244 31.817583 
C 319.896818 32.316158 320.573125 32.596293 321.278215 32.596293 
z
" style="fill-opacity:0.25098;stroke:#000000;stroke-opacity:0.25098;stroke-width:0.886227;"/>
    <path clip-path="url(#p9bef61fd3f)" d="M 344.208941 125.934702 
C 344.914031 125.934702 345.590338 125.654567 346.088912 125.155992 
C 346.587486 124.657418 346.867622 123.981112 346.867622 123.276021 
C 346.867622 122.570931 346.587486 121.894624 346.088912 121.39605 
C 345.590338 120.897476 344.914031 120.61734 344.208941 120.61734 
C 343.503851 120.61734 342.827544 120.897476 342.32897 121.39605 
C 341.830396 121.894624 341.55026 122.570931 341.55026 123.276021 
C 341.55026 123.981112 341.830396 124.657418 342.32897 125.155992 
C 342.827544 125.654567 343.503851 125.934702 344.208941 125.934702 
z
" style="fill-opacity:0.25098;stroke:#000000;stroke-opacity:0.25098;stroke-width:0.886227;"/>
    <path clip-path="url(#p9bef61fd3f)" d="M 342.384122 126.883203 
C 343.089212 126.883203 343.765519 126.603067 344.264093 126.104493 
C 344.762667 125.605919 345.042803 124.929612 345.042803 124.224522 
C 345.042803 123.519432 344.762667 122.843125 344.264093 122.344551 
C 343.765519 121.845977 343.089212 121.565841 342.384122 121.565841 
C 341.679031 121.565841 341.002725 121.845977 340.504151 122.344551 
C 340.005576 122.843125 339.725441 123.519432 339.725441 124.224522 
C 339.725441 124.929612 340.005576 125.605919 340.504151 126.104493 
C 341.002725 126.603067 341.679031 126.883203 342.384122 126.883203 
z
" style="fill-opacity:0.25098;stroke:#000000;stroke-opacity:0.25098;stroke-width:0.886227;"/>
    <path clip-path="url(#p9bef61fd3f)" d="M 295.474909 33.290871 
C 296.18 33.290871 296.856306 33.010736 297.354881 32.512161 
C 297.853455 32.013587 298.13359 31.337281 298.13359 30.63219 
C 298.13359 29.9271 297.853455 29.250793 297.354881 28.752219 
C 296.856306 28.253645 296.18 27.973509 295.474909 27.973509 
C 294.769819 27.973509 294.093512 28.253645 293.594938 28.752219 
C 293.096364 29.250793 292.816229 29.9271 292.816229 30.63219 
C 292.816229 31.337281 293.096364 32.013587 293.594938 32.512161 
C 294.093512 33.010736 294.769819 33.290871 295.474909 33.290871 
z
" style="fill-opacity:0.25098;stroke:#000000;stroke-opacity:0.25098;stroke-width:0.886227;"/>
    <path clip-path="url(#p9bef61fd3f)" d="M 321.154762 30.506437 
C 321.859852 30.506437 322.536159 30.226302 323.034733 29.727728 
C 323.533307 29.229154 323.813443 28.552847 323.813443 27.847757 
C 323.813443 27.142666 323.533307 26.46636 323.034733 25.967786 
C 322.536159 25.469211 321.859852 25.189076 321.154762 25.189076 
C 320.449672 25.189076 319.773365 25.469211 319.274791 25.967786 
C 318.776217 26.46636 318.496081 27.142666 318.496081 27.847757 
C 318.496081 28.552847 318.776217 29.229154 319.274791 29.727728 
C 319.773365 30.226302 320.449672 30.506437 321.154762 30.506437 
z
" style="fill-opacity:0.25098;stroke:#000000;stroke-opacity:0.25098;stroke-width:0.886227;"/>
    <path clip-path="url(#p9bef61fd3f)" d="M 322.591553 32.572943 
C 323.296643 32.572943 323.97295 32.292808 324.471524 31.794233 
C 324.970098 31.295659 325.250234 30.619352 325.250234 29.914262 
C 325.250234 29.209172 324.970098 28.532865 324.471524 28.034291 
C 323.97295 27.535717 323.296643 27.255581 322.591553 27.255581 
C 321.886462 27.255581 321.210156 27.535717 320.711582 28.034291 
C 320.213007 28.532865 319.932872 29.209172 319.932872 29.914262 
C 319.932872 30.619352 320.213007 31.295659 320.711582 31.794233 
C 321.210156 32.292808 321.886462 32.572943 322.591553 32.572943 
z
" style="fill-opacity:0.25098;stroke:#000000;stroke-opacity:0.25098;stroke-width:0.886227;"/>
    <path clip-path="url(#p9bef61fd3f)" d="M 319.700692 30.61712 
C 320.405782 30.61712 321.082089 30.336985 321.580663 29.83841 
C 322.079237 29.339836 322.359372 28.66353 322.359372 27.958439 
C 322.359372 27.253349 322.079237 26.577042 321.580663 26.078468 
C 321.082089 25.579894 320.405782 25.299758 319.700692 25.299758 
C 318.995601 25.299758 318.319295 25.579894 317.82072 26.078468 
C 317.322146 26.577042 317.042011 27.253349 317.042011 27.958439 
C 317.042011 28.66353 317.322146 29.339836 317.82072 29.83841 
C 318.319295 30.336985 318.995601 30.61712 319.700692 30.61712 
z
" style="fill-opacity:0.25098;stroke:#000000;stroke-opacity:0.25098;stroke-width:0.886227;"/>
    <path clip-path="url(#p9bef61fd3f)" d="M 371.363095 44.221761 
C 372.068185 44.221761 372.744492 43.941626 373.243066 43.443052 
C 373.74164 42.944477 374.021775 42.268171 374.021775 41.56308 
C 374.021775 40.85799 373.74164 40.181683 373.243066 39.683109 
C 372.744492 39.184535 372.068185 38.9044 371.363095 38.9044 
C 370.658004 38.9044 369.981697 39.184535 369.483123 39.683109 
C 368.984549 40.181683 368.704414 40.85799 368.704414 41.56308 
C 368.704414 42.268171 368.984549 42.944477 369.483123 43.443052 
C 369.981697 43.941626 370.658004 44.221761 371.363095 44.221761 
z
" style="fill-opacity:0.25098;stroke:#000000;stroke-opacity:0.25098;stroke-width:0.886227;"/>
    <path clip-path="url(#p9bef61fd3f)" d="M 374.807195 46.837256 
C 375.512286 46.837256 376.188592 46.557121 376.687167 46.058547 
C 377.185741 45.559973 377.465876 44.883666 377.465876 44.178576 
C 377.465876 43.473485 377.185741 42.797179 376.687167 42.298604 
C 376.188592 41.80003 375.512286 41.519895 374.807195 41.519895 
C 374.102105 41.519895 373.425798 41.80003 372.927224 42.298604 
C 372.42865 42.797179 372.148515 43.473485 372.148515 44.178576 
C 372.148515 44.883666 372.42865 45.559973 372.927224 46.058547 
C 373.425798 46.557121 374.102105 46.837256 374.807195 46.837256 
z
" style="fill-opacity:0.25098;stroke:#000000;stroke-opacity:0.25098;stroke-width:0.886227;"/>
    <path clip-path="url(#p9bef61fd3f)" d="M 322.355878 34.257443 
C 323.060968 34.257443 323.737275 33.977307 324.235849 33.478733 
C 324.734423 32.980159 325.014559 32.303852 325.014559 31.598762 
C 325.014559 30.893671 324.734423 30.217365 324.235849 29.718791 
C 323.737275 29.220216 323.060968 28.940081 322.355878 28.940081 
C 321.650788 28.940081 320.974481 29.220216 320.475907 29.718791 
C 319.977333 30.217365 319.697197 30.893671 319.697197 31.598762 
C 319.697197 32.303852 319.977333 32.980159 320.475907 33.478733 
C 320.974481 33.977307 321.650788 34.257443 322.355878 34.257443 
z
" style="fill-opacity:0.25098;stroke:#000000;stroke-opacity:0.25098;stroke-width:0.886227;"/>
    <path clip-path="url(#p9bef61fd3f)" d="M 347.678728 59.824503 
C 348.383818 59.824503 349.060125 59.544368 349.558699 59.045794 
C 350.057273 58.547219 350.337409 57.870913 350.337409 57.165822 
C 350.337409 56.460732 350.057273 55.784425 349.558699 55.285851 
C 349.060125 54.787277 348.383818 54.507142 347.678728 54.507142 
C 346.973638 54.507142 346.297331 54.787277 345.798757 55.285851 
C 345.300183 55.784425 345.020047 56.460732 345.020047 57.165822 
C 345.020047 57.870913 345.300183 58.547219 345.798757 59.045794 
C 346.297331 59.544368 346.973638 59.824503 347.678728 59.824503 
z
" style="fill-opacity:0.25098;stroke:#000000;stroke-opacity:0.25098;stroke-width:0.886227;"/>
    <path clip-path="url(#p9bef61fd3f)" d="M 344.668496 86.582372 
C 345.373586 86.582372 346.049893 86.302237 346.548467 85.803662 
C 347.047041 85.305088 347.327176 84.628782 347.327176 83.923691 
C 347.327176 83.218601 347.047041 82.542294 346.548467 82.04372 
C 346.049893 81.545146 345.373586 81.26501 344.668496 81.26501 
C 343.963405 81.26501 343.287099 81.545146 342.788524 82.04372 
C 342.28995 82.542294 342.009815 83.218601 342.009815 83.923691 
C 342.009815 84.628782 342.28995 85.305088 342.788524 85.803662 
C 343.287099 86.302237 343.963405 86.582372 344.668496 86.582372 
z
" style="fill-opacity:0.25098;stroke:#000000;stroke-opacity:0.25098;stroke-width:0.886227;"/>
    <path clip-path="url(#p9bef61fd3f)" d="M 347.203366 30.54861 
C 347.908456 30.54861 348.584763 30.268475 349.083337 29.7699 
C 349.581911 29.271326 349.862046 28.59502 349.862046 27.889929 
C 349.862046 27.184839 349.581911 26.508532 349.083337 26.009958 
C 348.584763 25.511384 347.908456 25.231248 347.203366 25.231248 
C 346.498275 25.231248 345.821969 25.511384 345.323394 26.009958 
C 344.82482 26.508532 344.544685 27.184839 344.544685 27.889929 
C 344.544685 28.59502 344.82482 29.271326 345.323394 29.7699 
C 345.821969 30.268475 346.498275 30.54861 347.203366 30.54861 
z
" style="fill-opacity:0.25098;stroke:#000000;stroke-opacity:0.25098;stroke-width:0.886227;"/>
    <path clip-path="url(#p9bef61fd3f)" d="M 322.809093 112.089388 
C 323.514184 112.089388 324.19049 111.809252 324.689064 111.310678 
C 325.187639 110.812104 325.467774 110.135797 325.467774 109.430707 
C 325.467774 108.725616 325.187639 108.04931 324.689064 107.550736 
C 324.19049 107.052161 323.514184 106.772026 322.809093 106.772026 
C 322.104003 106.772026 321.427696 107.052161 320.929122 107.550736 
C 320.430548 108.04931 320.150412 108.725616 320.150412 109.430707 
C 320.150412 110.135797 320.430548 110.812104 320.929122 111.310678 
C 321.427696 111.809252 322.104003 112.089388 322.809093 112.089388 
z
" style="fill-opacity:0.25098;stroke:#000000;stroke-opacity:0.25098;stroke-width:0.886227;"/>
    <path clip-path="url(#p9bef61fd3f)" d="M 318.845084 31.914535 
C 319.550175 31.914535 320.226481 31.6344 320.725055 31.135826 
C 321.22363 30.637252 321.503765 29.960945 321.503765 29.255855 
C 321.503765 28.550764 321.22363 27.874458 320.725055 27.375883 
C 320.226481 26.877309 319.550175 26.597174 318.845084 26.597174 
C 318.139994 26.597174 317.463687 26.877309 316.965113 27.375883 
C 316.466539 27.874458 316.186403 28.550764 316.186403 29.255855 
C 316.186403 29.960945 316.466539 30.637252 316.965113 31.135826 
C 317.463687 31.6344 318.139994 31.914535 318.845084 31.914535 
z
" style="fill-opacity:0.25098;stroke:#000000;stroke-opacity:0.25098;stroke-width:0.886227;"/>
    <path clip-path="url(#p9bef61fd3f)" d="M 293.844909 32.21916 
C 294.55 32.21916 295.226306 31.939025 295.72488 31.44045 
C 296.223455 30.941876 296.50359 30.26557 296.50359 29.560479 
C 296.50359 28.855389 296.223455 28.179082 295.72488 27.680508 
C 295.226306 27.181934 294.55 26.901798 293.844909 26.901798 
C 293.139819 26.901798 292.463512 27.181934 291.964938 27.680508 
C 291.466364 28.179082 291.186228 28.855389 291.186228 29.560479 
C 291.186228 30.26557 291.466364 30.941876 291.964938 31.44045 
C 292.463512 31.939025 293.139819 32.21916 293.844909 32.21916 
z
" style="fill-opacity:0.25098;stroke:#000000;stroke-opacity:0.25098;stroke-width:0.886227;"/>
   </g>
   <g id="patch_7">
    <path d="M 278.272813 21.5 
L 387.352813 21.5 
L 387.352813 7.2 
L 278.272813 7.2 
z
" style="fill:none;stroke:#000000;stroke-linejoin:miter;"/>
   </g>
   <g id="patch_8">
    <path d="M 278.272813 132.38 
L 278.272813 21.5 
" style="fill:none;stroke:#000000;stroke-linecap:square;stroke-linejoin:miter;"/>
   </g>
   <g id="patch_9">
    <path d="M 278.272813 132.38 
L 387.352813 132.38 
" style="fill:none;stroke:#000000;stroke-linecap:square;stroke-linejoin:miter;"/>
   </g>
   <g id="text_20">
    <!-- vaccine -->
    <g style="fill:#1a1a1a;" transform="translate(315.955313 16.77825)scale(0.088 -0.088)">
     <use xlink:href="#DejaVuSans-118"/>
     <use x="59.179688" xlink:href="#DejaVuSans-97"/>
     <use x="120.458984" xlink:href="#DejaVuSans-99"/>
     <use x="175.439453" xlink:href="#DejaVuSans-99"/>
     <use x="230.419922" xlink:href="#DejaVuSans-105"/>
     <use x="258.203125" xlink:href="#DejaVuSans-110"/>
     <use x="321.582031" xlink:href="#DejaVuSans-101"/>
    </g>
   </g>
  </g>
 </g>
 <defs>
  <clipPath id="pe846ee6ed9">
   <rect height="110.88" width="109.08" x="164.152813" y="21.5"/>
  </clipPath>
  <clipPath id="p9bef61fd3f">
   <rect height="110.88" width="109.08" x="278.272813" y="21.5"/>
  </clipPath>
 </defs>
</svg>
