<?xml version="1.0" encoding="utf-8" standalone="no"?>
<!DOCTYPE svg PUBLIC "-//W3C//DTD SVG 1.1//EN"
  "http://www.w3.org/Graphics/SVG/1.1/DTD/svg11.dtd">
<!-- Created with matplotlib (https://matplotlib.org/) -->
<svg height="238.575187pt" version="1.1" viewBox="0 0 394.552813 238.575187" width="394.552813pt" xmlns="http://www.w3.org/2000/svg" xmlns:xlink="http://www.w3.org/1999/xlink">
 <defs>
  <style type="text/css">
*{stroke-linecap:butt;stroke-linejoin:round;}
  </style>
 </defs>
 <g id="figure_1">
  <g id="patch_1">
   <path d="M 0 238.575187 
L 394.552813 238.575187 
L 394.552813 0 
L 0 0 
z
" style="fill:#ffffff;stroke:#ffffff;stroke-linejoin:miter;"/>
  </g>
  <g id="axes_1">
   <g id="patch_2">
    <path d="M 164.152813 132.38 
L 273.232813 132.38 
L 273.232813 21.5 
L 164.152813 21.5 
z
" style="fill:#ffffff;"/>
   </g>
   <g id="matplotlib.axis_1">
    <g id="xtick_1">
     <g id="line2d_1">
      <path d="M 179.73567 132.38 
" style="fill:none;stroke:#333333;stroke-width:1.5;"/>
      <defs>
       <path d="M 0 0 
L 0 2.75 
" id="m38c96b3600" style="stroke:#333333;"/>
      </defs>
      <g>
       <use style="fill:#333333;stroke:#333333;" x="179.73567" xlink:href="#m38c96b3600" y="132.38"/>
      </g>
     </g>
     <g id="text_1">
      <!-- extra escape -->
      <defs>
       <path d="M 56.203125 29.59375 
L 56.203125 25.203125 
L 14.890625 25.203125 
Q 15.484375 15.921875 20.484375 11.0625 
Q 25.484375 6.203125 34.421875 6.203125 
Q 39.59375 6.203125 44.453125 7.46875 
Q 49.3125 8.734375 54.109375 11.28125 
L 54.109375 2.78125 
Q 49.265625 0.734375 44.1875 -0.34375 
Q 39.109375 -1.421875 33.890625 -1.421875 
Q 20.796875 -1.421875 13.15625 6.1875 
Q 5.515625 13.8125 5.515625 26.8125 
Q 5.515625 40.234375 12.765625 48.109375 
Q 20.015625 56 32.328125 56 
Q 43.359375 56 49.78125 48.890625 
Q 56.203125 41.796875 56.203125 29.59375 
z
M 47.21875 32.234375 
Q 47.125 39.59375 43.09375 43.984375 
Q 39.0625 48.390625 32.421875 48.390625 
Q 24.90625 48.390625 20.390625 44.140625 
Q 15.875 39.890625 15.1875 32.171875 
z
" id="DejaVuSans-101"/>
       <path d="M 54.890625 54.6875 
L 35.109375 28.078125 
L 55.90625 0 
L 45.3125 0 
L 29.390625 21.484375 
L 13.484375 0 
L 2.875 0 
L 24.125 28.609375 
L 4.6875 54.6875 
L 15.28125 54.6875 
L 29.78125 35.203125 
L 44.28125 54.6875 
z
" id="DejaVuSans-120"/>
       <path d="M 18.3125 70.21875 
L 18.3125 54.6875 
L 36.8125 54.6875 
L 36.8125 47.703125 
L 18.3125 47.703125 
L 18.3125 18.015625 
Q 18.3125 11.328125 20.140625 9.421875 
Q 21.96875 7.515625 27.59375 7.515625 
L 36.8125 7.515625 
L 36.8125 0 
L 27.59375 0 
Q 17.1875 0 13.234375 3.875 
Q 9.28125 7.765625 9.28125 18.015625 
L 9.28125 47.703125 
L 2.6875 47.703125 
L 2.6875 54.6875 
L 9.28125 54.6875 
L 9.28125 70.21875 
z
" id="DejaVuSans-116"/>
       <path d="M 41.109375 46.296875 
Q 39.59375 47.171875 37.8125 47.578125 
Q 36.03125 48 33.890625 48 
Q 26.265625 48 22.1875 43.046875 
Q 18.109375 38.09375 18.109375 28.8125 
L 18.109375 0 
L 9.078125 0 
L 9.078125 54.6875 
L 18.109375 54.6875 
L 18.109375 46.1875 
Q 20.953125 51.171875 25.484375 53.578125 
Q 30.03125 56 36.53125 56 
Q 37.453125 56 38.578125 55.875 
Q 39.703125 55.765625 41.0625 55.515625 
z
" id="DejaVuSans-114"/>
       <path d="M 34.28125 27.484375 
Q 23.390625 27.484375 19.1875 25 
Q 14.984375 22.515625 14.984375 16.5 
Q 14.984375 11.71875 18.140625 8.90625 
Q 21.296875 6.109375 26.703125 6.109375 
Q 34.1875 6.109375 38.703125 11.40625 
Q 43.21875 16.703125 43.21875 25.484375 
L 43.21875 27.484375 
z
M 52.203125 31.203125 
L 52.203125 0 
L 43.21875 0 
L 43.21875 8.296875 
Q 40.140625 3.328125 35.546875 0.953125 
Q 30.953125 -1.421875 24.3125 -1.421875 
Q 15.921875 -1.421875 10.953125 3.296875 
Q 6 8.015625 6 15.921875 
Q 6 25.140625 12.171875 29.828125 
Q 18.359375 34.515625 30.609375 34.515625 
L 43.21875 34.515625 
L 43.21875 35.40625 
Q 43.21875 41.609375 39.140625 45 
Q 35.0625 48.390625 27.6875 48.390625 
Q 23 48.390625 18.546875 47.265625 
Q 14.109375 46.140625 10.015625 43.890625 
L 10.015625 52.203125 
Q 14.9375 54.109375 19.578125 55.046875 
Q 24.21875 56 28.609375 56 
Q 40.484375 56 46.34375 49.84375 
Q 52.203125 43.703125 52.203125 31.203125 
z
" id="DejaVuSans-97"/>
       <path id="DejaVuSans-32"/>
       <path d="M 44.28125 53.078125 
L 44.28125 44.578125 
Q 40.484375 46.53125 36.375 47.5 
Q 32.28125 48.484375 27.875 48.484375 
Q 21.1875 48.484375 17.84375 46.4375 
Q 14.5 44.390625 14.5 40.28125 
Q 14.5 37.15625 16.890625 35.375 
Q 19.28125 33.59375 26.515625 31.984375 
L 29.59375 31.296875 
Q 39.15625 29.25 43.1875 25.515625 
Q 47.21875 21.78125 47.21875 15.09375 
Q 47.21875 7.46875 41.1875 3.015625 
Q 35.15625 -1.421875 24.609375 -1.421875 
Q 20.21875 -1.421875 15.453125 -0.5625 
Q 10.6875 0.296875 5.421875 2 
L 5.421875 11.28125 
Q 10.40625 8.6875 15.234375 7.390625 
Q 20.0625 6.109375 24.8125 6.109375 
Q 31.15625 6.109375 34.5625 8.28125 
Q 37.984375 10.453125 37.984375 14.40625 
Q 37.984375 18.0625 35.515625 20.015625 
Q 33.0625 21.96875 24.703125 23.78125 
L 21.578125 24.515625 
Q 13.234375 26.265625 9.515625 29.90625 
Q 5.8125 33.546875 5.8125 39.890625 
Q 5.8125 47.609375 11.28125 51.796875 
Q 16.75 56 26.8125 56 
Q 31.78125 56 36.171875 55.265625 
Q 40.578125 54.546875 44.28125 53.078125 
z
" id="DejaVuSans-115"/>
       <path d="M 48.78125 52.59375 
L 48.78125 44.1875 
Q 44.96875 46.296875 41.140625 47.34375 
Q 37.3125 48.390625 33.40625 48.390625 
Q 24.65625 48.390625 19.8125 42.84375 
Q 14.984375 37.3125 14.984375 27.296875 
Q 14.984375 17.28125 19.8125 11.734375 
Q 24.65625 6.203125 33.40625 6.203125 
Q 37.3125 6.203125 41.140625 7.25 
Q 44.96875 8.296875 48.78125 10.40625 
L 48.78125 2.09375 
Q 45.015625 0.34375 40.984375 -0.53125 
Q 36.96875 -1.421875 32.421875 -1.421875 
Q 20.0625 -1.421875 12.78125 6.34375 
Q 5.515625 14.109375 5.515625 27.296875 
Q 5.515625 40.671875 12.859375 48.328125 
Q 20.21875 56 33.015625 56 
Q 37.15625 56 41.109375 55.140625 
Q 45.0625 54.296875 48.78125 52.59375 
z
" id="DejaVuSans-99"/>
       <path d="M 18.109375 8.203125 
L 18.109375 -20.796875 
L 9.078125 -20.796875 
L 9.078125 54.6875 
L 18.109375 54.6875 
L 18.109375 46.390625 
Q 20.953125 51.265625 25.265625 53.625 
Q 29.59375 56 35.59375 56 
Q 45.5625 56 51.78125 48.09375 
Q 58.015625 40.1875 58.015625 27.296875 
Q 58.015625 14.40625 51.78125 6.484375 
Q 45.5625 -1.421875 35.59375 -1.421875 
Q 29.59375 -1.421875 25.265625 0.953125 
Q 20.953125 3.328125 18.109375 8.203125 
z
M 48.6875 27.296875 
Q 48.6875 37.203125 44.609375 42.84375 
Q 40.53125 48.484375 33.40625 48.484375 
Q 26.265625 48.484375 22.1875 42.84375 
Q 18.109375 37.203125 18.109375 27.296875 
Q 18.109375 17.390625 22.1875 11.75 
Q 26.265625 6.109375 33.40625 6.109375 
Q 40.53125 6.109375 44.609375 11.75 
Q 48.6875 17.390625 48.6875 27.296875 
z
" id="DejaVuSans-112"/>
      </defs>
      <g style="fill:#4d4d4d;" transform="translate(182.16392 194.288)rotate(-90)scale(0.088 -0.088)">
       <use xlink:href="#DejaVuSans-101"/>
       <use x="59.773438" xlink:href="#DejaVuSans-120"/>
       <use x="118.953125" xlink:href="#DejaVuSans-116"/>
       <use x="158.162109" xlink:href="#DejaVuSans-114"/>
       <use x="199.275391" xlink:href="#DejaVuSans-97"/>
       <use x="260.554688" xlink:href="#DejaVuSans-32"/>
       <use x="292.341797" xlink:href="#DejaVuSans-101"/>
       <use x="353.865234" xlink:href="#DejaVuSans-115"/>
       <use x="405.964844" xlink:href="#DejaVuSans-99"/>
       <use x="460.945312" xlink:href="#DejaVuSans-97"/>
       <use x="522.224609" xlink:href="#DejaVuSans-112"/>
       <use x="585.701172" xlink:href="#DejaVuSans-101"/>
      </g>
     </g>
    </g>
    <g id="xtick_2">
     <g id="line2d_2">
      <path d="M 205.707098 132.38 
" style="fill:none;stroke:#333333;stroke-width:1.5;"/>
      <g>
       <use style="fill:#333333;stroke:#333333;" x="205.707098" xlink:href="#m38c96b3600" y="132.38"/>
      </g>
     </g>
     <g id="text_2">
      <!-- normal -->
      <defs>
       <path d="M 54.890625 33.015625 
L 54.890625 0 
L 45.90625 0 
L 45.90625 32.71875 
Q 45.90625 40.484375 42.875 44.328125 
Q 39.84375 48.1875 33.796875 48.1875 
Q 26.515625 48.1875 22.3125 43.546875 
Q 18.109375 38.921875 18.109375 30.90625 
L 18.109375 0 
L 9.078125 0 
L 9.078125 54.6875 
L 18.109375 54.6875 
L 18.109375 46.1875 
Q 21.34375 51.125 25.703125 53.5625 
Q 30.078125 56 35.796875 56 
Q 45.21875 56 50.046875 50.171875 
Q 54.890625 44.34375 54.890625 33.015625 
z
" id="DejaVuSans-110"/>
       <path d="M 30.609375 48.390625 
Q 23.390625 48.390625 19.1875 42.75 
Q 14.984375 37.109375 14.984375 27.296875 
Q 14.984375 17.484375 19.15625 11.84375 
Q 23.34375 6.203125 30.609375 6.203125 
Q 37.796875 6.203125 41.984375 11.859375 
Q 46.1875 17.53125 46.1875 27.296875 
Q 46.1875 37.015625 41.984375 42.703125 
Q 37.796875 48.390625 30.609375 48.390625 
z
M 30.609375 56 
Q 42.328125 56 49.015625 48.375 
Q 55.71875 40.765625 55.71875 27.296875 
Q 55.71875 13.875 49.015625 6.21875 
Q 42.328125 -1.421875 30.609375 -1.421875 
Q 18.84375 -1.421875 12.171875 6.21875 
Q 5.515625 13.875 5.515625 27.296875 
Q 5.515625 40.765625 12.171875 48.375 
Q 18.84375 56 30.609375 56 
z
" id="DejaVuSans-111"/>
       <path d="M 52 44.1875 
Q 55.375 50.25 60.0625 53.125 
Q 64.75 56 71.09375 56 
Q 79.640625 56 84.28125 50.015625 
Q 88.921875 44.046875 88.921875 33.015625 
L 88.921875 0 
L 79.890625 0 
L 79.890625 32.71875 
Q 79.890625 40.578125 77.09375 44.375 
Q 74.3125 48.1875 68.609375 48.1875 
Q 61.625 48.1875 57.5625 43.546875 
Q 53.515625 38.921875 53.515625 30.90625 
L 53.515625 0 
L 44.484375 0 
L 44.484375 32.71875 
Q 44.484375 40.625 41.703125 44.40625 
Q 38.921875 48.1875 33.109375 48.1875 
Q 26.21875 48.1875 22.15625 43.53125 
Q 18.109375 38.875 18.109375 30.90625 
L 18.109375 0 
L 9.078125 0 
L 9.078125 54.6875 
L 18.109375 54.6875 
L 18.109375 46.1875 
Q 21.1875 51.21875 25.484375 53.609375 
Q 29.78125 56 35.6875 56 
Q 41.65625 56 45.828125 52.96875 
Q 50 49.953125 52 44.1875 
z
" id="DejaVuSans-109"/>
       <path d="M 9.421875 75.984375 
L 18.40625 75.984375 
L 18.40625 0 
L 9.421875 0 
z
" id="DejaVuSans-108"/>
      </defs>
      <g style="fill:#4d4d4d;" transform="translate(208.135348 168.164375)rotate(-90)scale(0.088 -0.088)">
       <use xlink:href="#DejaVuSans-110"/>
       <use x="63.378906" xlink:href="#DejaVuSans-111"/>
       <use x="124.560547" xlink:href="#DejaVuSans-114"/>
       <use x="163.923828" xlink:href="#DejaVuSans-109"/>
       <use x="261.335938" xlink:href="#DejaVuSans-97"/>
       <use x="322.615234" xlink:href="#DejaVuSans-108"/>
      </g>
     </g>
    </g>
    <g id="xtick_3">
     <g id="line2d_3">
      <path d="M 231.678527 132.38 
" style="fill:none;stroke:#333333;stroke-width:1.5;"/>
      <g>
       <use style="fill:#333333;stroke:#333333;" x="231.678527" xlink:href="#m38c96b3600" y="132.38"/>
      </g>
     </g>
     <g id="text_3">
      <!-- normal-no escape -->
      <defs>
       <path d="M 4.890625 31.390625 
L 31.203125 31.390625 
L 31.203125 23.390625 
L 4.890625 23.390625 
z
" id="DejaVuSans-45"/>
      </defs>
      <g style="fill:#4d4d4d;" transform="translate(234.106777 216.32925)rotate(-90)scale(0.088 -0.088)">
       <use xlink:href="#DejaVuSans-110"/>
       <use x="63.378906" xlink:href="#DejaVuSans-111"/>
       <use x="124.560547" xlink:href="#DejaVuSans-114"/>
       <use x="163.923828" xlink:href="#DejaVuSans-109"/>
       <use x="261.335938" xlink:href="#DejaVuSans-97"/>
       <use x="322.615234" xlink:href="#DejaVuSans-108"/>
       <use x="350.398438" xlink:href="#DejaVuSans-45"/>
       <use x="386.482422" xlink:href="#DejaVuSans-110"/>
       <use x="449.861328" xlink:href="#DejaVuSans-111"/>
       <use x="511.042969" xlink:href="#DejaVuSans-32"/>
       <use x="542.830078" xlink:href="#DejaVuSans-101"/>
       <use x="604.353516" xlink:href="#DejaVuSans-115"/>
       <use x="656.453125" xlink:href="#DejaVuSans-99"/>
       <use x="711.433594" xlink:href="#DejaVuSans-97"/>
       <use x="772.712891" xlink:href="#DejaVuSans-112"/>
       <use x="836.189453" xlink:href="#DejaVuSans-101"/>
      </g>
     </g>
    </g>
    <g id="xtick_4">
     <g id="line2d_4">
      <path d="M 257.649955 132.38 
" style="fill:none;stroke:#333333;stroke-width:1.5;"/>
      <g>
       <use style="fill:#333333;stroke:#333333;" x="257.649955" xlink:href="#m38c96b3600" y="132.38"/>
      </g>
     </g>
     <g id="text_4">
      <!-- no escape -->
      <g style="fill:#4d4d4d;" transform="translate(260.078205 182.32)rotate(-90)scale(0.088 -0.088)">
       <use xlink:href="#DejaVuSans-110"/>
       <use x="63.378906" xlink:href="#DejaVuSans-111"/>
       <use x="124.560547" xlink:href="#DejaVuSans-32"/>
       <use x="156.347656" xlink:href="#DejaVuSans-101"/>
       <use x="217.871094" xlink:href="#DejaVuSans-115"/>
       <use x="269.970703" xlink:href="#DejaVuSans-99"/>
       <use x="324.951172" xlink:href="#DejaVuSans-97"/>
       <use x="386.230469" xlink:href="#DejaVuSans-112"/>
       <use x="449.707031" xlink:href="#DejaVuSans-101"/>
      </g>
     </g>
    </g>
   </g>
   <g id="matplotlib.axis_2">
    <g id="ytick_1">
     <g id="line2d_5">
      <path d="M 164.152813 124.266829 
" style="fill:none;stroke:#333333;stroke-width:1.5;"/>
      <defs>
       <path d="M 0 0 
L -2.75 0 
" id="meb95591dbe" style="stroke:#333333;"/>
      </defs>
      <g>
       <use style="fill:#333333;stroke:#333333;" x="164.152813" xlink:href="#meb95591dbe" y="124.266829"/>
      </g>
     </g>
     <g id="text_5">
      <!-- 456-484 -->
      <defs>
       <path d="M 37.796875 64.3125 
L 12.890625 25.390625 
L 37.796875 25.390625 
z
M 35.203125 72.90625 
L 47.609375 72.90625 
L 47.609375 25.390625 
L 58.015625 25.390625 
L 58.015625 17.1875 
L 47.609375 17.1875 
L 47.609375 0 
L 37.796875 0 
L 37.796875 17.1875 
L 4.890625 17.1875 
L 4.890625 26.703125 
z
" id="DejaVuSans-52"/>
       <path d="M 10.796875 72.90625 
L 49.515625 72.90625 
L 49.515625 64.59375 
L 19.828125 64.59375 
L 19.828125 46.734375 
Q 21.96875 47.46875 24.109375 47.828125 
Q 26.265625 48.1875 28.421875 48.1875 
Q 40.625 48.1875 47.75 41.5 
Q 54.890625 34.8125 54.890625 23.390625 
Q 54.890625 11.625 47.5625 5.09375 
Q 40.234375 -1.421875 26.90625 -1.421875 
Q 22.3125 -1.421875 17.546875 -0.640625 
Q 12.796875 0.140625 7.71875 1.703125 
L 7.71875 11.625 
Q 12.109375 9.234375 16.796875 8.0625 
Q 21.484375 6.890625 26.703125 6.890625 
Q 35.15625 6.890625 40.078125 11.328125 
Q 45.015625 15.765625 45.015625 23.390625 
Q 45.015625 31 40.078125 35.4375 
Q 35.15625 39.890625 26.703125 39.890625 
Q 22.75 39.890625 18.8125 39.015625 
Q 14.890625 38.140625 10.796875 36.28125 
z
" id="DejaVuSans-53"/>
       <path d="M 33.015625 40.375 
Q 26.375 40.375 22.484375 35.828125 
Q 18.609375 31.296875 18.609375 23.390625 
Q 18.609375 15.53125 22.484375 10.953125 
Q 26.375 6.390625 33.015625 6.390625 
Q 39.65625 6.390625 43.53125 10.953125 
Q 47.40625 15.53125 47.40625 23.390625 
Q 47.40625 31.296875 43.53125 35.828125 
Q 39.65625 40.375 33.015625 40.375 
z
M 52.59375 71.296875 
L 52.59375 62.3125 
Q 48.875 64.0625 45.09375 64.984375 
Q 41.3125 65.921875 37.59375 65.921875 
Q 27.828125 65.921875 22.671875 59.328125 
Q 17.53125 52.734375 16.796875 39.40625 
Q 19.671875 43.65625 24.015625 45.921875 
Q 28.375 48.1875 33.59375 48.1875 
Q 44.578125 48.1875 50.953125 41.515625 
Q 57.328125 34.859375 57.328125 23.390625 
Q 57.328125 12.15625 50.6875 5.359375 
Q 44.046875 -1.421875 33.015625 -1.421875 
Q 20.359375 -1.421875 13.671875 8.265625 
Q 6.984375 17.96875 6.984375 36.375 
Q 6.984375 53.65625 15.1875 63.9375 
Q 23.390625 74.21875 37.203125 74.21875 
Q 40.921875 74.21875 44.703125 73.484375 
Q 48.484375 72.75 52.59375 71.296875 
z
" id="DejaVuSans-54"/>
       <path d="M 31.78125 34.625 
Q 24.75 34.625 20.71875 30.859375 
Q 16.703125 27.09375 16.703125 20.515625 
Q 16.703125 13.921875 20.71875 10.15625 
Q 24.75 6.390625 31.78125 6.390625 
Q 38.8125 6.390625 42.859375 10.171875 
Q 46.921875 13.96875 46.921875 20.515625 
Q 46.921875 27.09375 42.890625 30.859375 
Q 38.875 34.625 31.78125 34.625 
z
M 21.921875 38.8125 
Q 15.578125 40.375 12.03125 44.71875 
Q 8.5 49.078125 8.5 55.328125 
Q 8.5 64.0625 14.71875 69.140625 
Q 20.953125 74.21875 31.78125 74.21875 
Q 42.671875 74.21875 48.875 69.140625 
Q 55.078125 64.0625 55.078125 55.328125 
Q 55.078125 49.078125 51.53125 44.71875 
Q 48 40.375 41.703125 38.8125 
Q 48.828125 37.15625 52.796875 32.3125 
Q 56.78125 27.484375 56.78125 20.515625 
Q 56.78125 9.90625 50.3125 4.234375 
Q 43.84375 -1.421875 31.78125 -1.421875 
Q 19.734375 -1.421875 13.25 4.234375 
Q 6.78125 9.90625 6.78125 20.515625 
Q 6.78125 27.484375 10.78125 32.3125 
Q 14.796875 37.15625 21.921875 38.8125 
z
M 18.3125 54.390625 
Q 18.3125 48.734375 21.84375 45.5625 
Q 25.390625 42.390625 31.78125 42.390625 
Q 38.140625 42.390625 41.71875 45.5625 
Q 45.3125 48.734375 45.3125 54.390625 
Q 45.3125 60.0625 41.71875 63.234375 
Q 38.140625 66.40625 31.78125 66.40625 
Q 25.390625 66.40625 21.84375 63.234375 
Q 18.3125 60.0625 18.3125 54.390625 
z
" id="DejaVuSans-56"/>
      </defs>
      <g style="fill:#4d4d4d;" transform="translate(122.433938 126.695079)scale(0.088 -0.088)">
       <use xlink:href="#DejaVuSans-52"/>
       <use x="63.623047" xlink:href="#DejaVuSans-53"/>
       <use x="127.246094" xlink:href="#DejaVuSans-54"/>
       <use x="190.869141" xlink:href="#DejaVuSans-45"/>
       <use x="226.953125" xlink:href="#DejaVuSans-52"/>
       <use x="290.576172" xlink:href="#DejaVuSans-56"/>
       <use x="354.199219" xlink:href="#DejaVuSans-52"/>
      </g>
     </g>
    </g>
    <g id="ytick_2">
     <g id="line2d_6">
      <path d="M 164.152813 110.744878 
" style="fill:none;stroke:#333333;stroke-width:1.5;"/>
      <g>
       <use style="fill:#333333;stroke:#333333;" x="164.152813" xlink:href="#meb95591dbe" y="110.744878"/>
      </g>
     </g>
     <g id="text_6">
      <!-- 456-484 low magnitude -->
      <defs>
       <path d="M 4.203125 54.6875 
L 13.1875 54.6875 
L 24.421875 12.015625 
L 35.59375 54.6875 
L 46.1875 54.6875 
L 57.421875 12.015625 
L 68.609375 54.6875 
L 77.59375 54.6875 
L 63.28125 0 
L 52.6875 0 
L 40.921875 44.828125 
L 29.109375 0 
L 18.5 0 
z
" id="DejaVuSans-119"/>
       <path d="M 45.40625 27.984375 
Q 45.40625 37.75 41.375 43.109375 
Q 37.359375 48.484375 30.078125 48.484375 
Q 22.859375 48.484375 18.828125 43.109375 
Q 14.796875 37.75 14.796875 27.984375 
Q 14.796875 18.265625 18.828125 12.890625 
Q 22.859375 7.515625 30.078125 7.515625 
Q 37.359375 7.515625 41.375 12.890625 
Q 45.40625 18.265625 45.40625 27.984375 
z
M 54.390625 6.78125 
Q 54.390625 -7.171875 48.1875 -13.984375 
Q 42 -20.796875 29.203125 -20.796875 
Q 24.46875 -20.796875 20.265625 -20.09375 
Q 16.0625 -19.390625 12.109375 -17.921875 
L 12.109375 -9.1875 
Q 16.0625 -11.328125 19.921875 -12.34375 
Q 23.78125 -13.375 27.78125 -13.375 
Q 36.625 -13.375 41.015625 -8.765625 
Q 45.40625 -4.15625 45.40625 5.171875 
L 45.40625 9.625 
Q 42.625 4.78125 38.28125 2.390625 
Q 33.9375 0 27.875 0 
Q 17.828125 0 11.671875 7.65625 
Q 5.515625 15.328125 5.515625 27.984375 
Q 5.515625 40.671875 11.671875 48.328125 
Q 17.828125 56 27.875 56 
Q 33.9375 56 38.28125 53.609375 
Q 42.625 51.21875 45.40625 46.390625 
L 45.40625 54.6875 
L 54.390625 54.6875 
z
" id="DejaVuSans-103"/>
       <path d="M 9.421875 54.6875 
L 18.40625 54.6875 
L 18.40625 0 
L 9.421875 0 
z
M 9.421875 75.984375 
L 18.40625 75.984375 
L 18.40625 64.59375 
L 9.421875 64.59375 
z
" id="DejaVuSans-105"/>
       <path d="M 8.5 21.578125 
L 8.5 54.6875 
L 17.484375 54.6875 
L 17.484375 21.921875 
Q 17.484375 14.15625 20.5 10.265625 
Q 23.53125 6.390625 29.59375 6.390625 
Q 36.859375 6.390625 41.078125 11.03125 
Q 45.3125 15.671875 45.3125 23.6875 
L 45.3125 54.6875 
L 54.296875 54.6875 
L 54.296875 0 
L 45.3125 0 
L 45.3125 8.40625 
Q 42.046875 3.421875 37.71875 1 
Q 33.40625 -1.421875 27.6875 -1.421875 
Q 18.265625 -1.421875 13.375 4.4375 
Q 8.5 10.296875 8.5 21.578125 
z
M 31.109375 56 
z
" id="DejaVuSans-117"/>
       <path d="M 45.40625 46.390625 
L 45.40625 75.984375 
L 54.390625 75.984375 
L 54.390625 0 
L 45.40625 0 
L 45.40625 8.203125 
Q 42.578125 3.328125 38.25 0.953125 
Q 33.9375 -1.421875 27.875 -1.421875 
Q 17.96875 -1.421875 11.734375 6.484375 
Q 5.515625 14.40625 5.515625 27.296875 
Q 5.515625 40.1875 11.734375 48.09375 
Q 17.96875 56 27.875 56 
Q 33.9375 56 38.25 53.625 
Q 42.578125 51.265625 45.40625 46.390625 
z
M 14.796875 27.296875 
Q 14.796875 17.390625 18.875 11.75 
Q 22.953125 6.109375 30.078125 6.109375 
Q 37.203125 6.109375 41.296875 11.75 
Q 45.40625 17.390625 45.40625 27.296875 
Q 45.40625 37.203125 41.296875 42.84375 
Q 37.203125 48.484375 30.078125 48.484375 
Q 22.953125 48.484375 18.875 42.84375 
Q 14.796875 37.203125 14.796875 27.296875 
z
" id="DejaVuSans-100"/>
      </defs>
      <g style="fill:#4d4d4d;" transform="translate(54.213313 113.173128)scale(0.088 -0.088)">
       <use xlink:href="#DejaVuSans-52"/>
       <use x="63.623047" xlink:href="#DejaVuSans-53"/>
       <use x="127.246094" xlink:href="#DejaVuSans-54"/>
       <use x="190.869141" xlink:href="#DejaVuSans-45"/>
       <use x="226.953125" xlink:href="#DejaVuSans-52"/>
       <use x="290.576172" xlink:href="#DejaVuSans-56"/>
       <use x="354.199219" xlink:href="#DejaVuSans-52"/>
       <use x="417.822266" xlink:href="#DejaVuSans-32"/>
       <use x="449.609375" xlink:href="#DejaVuSans-108"/>
       <use x="477.392578" xlink:href="#DejaVuSans-111"/>
       <use x="538.574219" xlink:href="#DejaVuSans-119"/>
       <use x="620.361328" xlink:href="#DejaVuSans-32"/>
       <use x="652.148438" xlink:href="#DejaVuSans-109"/>
       <use x="749.560547" xlink:href="#DejaVuSans-97"/>
       <use x="810.839844" xlink:href="#DejaVuSans-103"/>
       <use x="874.316406" xlink:href="#DejaVuSans-110"/>
       <use x="937.695312" xlink:href="#DejaVuSans-105"/>
       <use x="965.478516" xlink:href="#DejaVuSans-116"/>
       <use x="1004.6875" xlink:href="#DejaVuSans-117"/>
       <use x="1068.066406" xlink:href="#DejaVuSans-100"/>
       <use x="1131.542969" xlink:href="#DejaVuSans-101"/>
      </g>
     </g>
    </g>
    <g id="ytick_3">
     <g id="line2d_7">
      <path d="M 164.152813 97.222927 
" style="fill:none;stroke:#333333;stroke-width:1.5;"/>
      <g>
       <use style="fill:#333333;stroke:#333333;" x="164.152813" xlink:href="#meb95591dbe" y="97.222927"/>
      </g>
     </g>
     <g id="text_7">
      <!-- 456-484 noisy -->
      <defs>
       <path d="M 32.171875 -5.078125 
Q 28.375 -14.84375 24.75 -17.8125 
Q 21.140625 -20.796875 15.09375 -20.796875 
L 7.90625 -20.796875 
L 7.90625 -13.28125 
L 13.1875 -13.28125 
Q 16.890625 -13.28125 18.9375 -11.515625 
Q 21 -9.765625 23.484375 -3.21875 
L 25.09375 0.875 
L 2.984375 54.6875 
L 12.5 54.6875 
L 29.59375 11.921875 
L 46.6875 54.6875 
L 56.203125 54.6875 
z
" id="DejaVuSans-121"/>
      </defs>
      <g style="fill:#4d4d4d;" transform="translate(96.438188 99.651177)scale(0.088 -0.088)">
       <use xlink:href="#DejaVuSans-52"/>
       <use x="63.623047" xlink:href="#DejaVuSans-53"/>
       <use x="127.246094" xlink:href="#DejaVuSans-54"/>
       <use x="190.869141" xlink:href="#DejaVuSans-45"/>
       <use x="226.953125" xlink:href="#DejaVuSans-52"/>
       <use x="290.576172" xlink:href="#DejaVuSans-56"/>
       <use x="354.199219" xlink:href="#DejaVuSans-52"/>
       <use x="417.822266" xlink:href="#DejaVuSans-32"/>
       <use x="449.609375" xlink:href="#DejaVuSans-110"/>
       <use x="512.988281" xlink:href="#DejaVuSans-111"/>
       <use x="574.169922" xlink:href="#DejaVuSans-105"/>
       <use x="601.953125" xlink:href="#DejaVuSans-115"/>
       <use x="654.052734" xlink:href="#DejaVuSans-121"/>
      </g>
     </g>
    </g>
    <g id="ytick_4">
     <g id="line2d_8">
      <path d="M 164.152813 83.700976 
" style="fill:none;stroke:#333333;stroke-width:1.5;"/>
      <g>
       <use style="fill:#333333;stroke:#333333;" x="164.152813" xlink:href="#meb95591dbe" y="83.700976"/>
      </g>
     </g>
     <g id="text_8">
      <!-- 456-484 low magnitude - noisy -->
      <g style="fill:#4d4d4d;" transform="translate(22.245938 86.129226)scale(0.088 -0.088)">
       <use xlink:href="#DejaVuSans-52"/>
       <use x="63.623047" xlink:href="#DejaVuSans-53"/>
       <use x="127.246094" xlink:href="#DejaVuSans-54"/>
       <use x="190.869141" xlink:href="#DejaVuSans-45"/>
       <use x="226.953125" xlink:href="#DejaVuSans-52"/>
       <use x="290.576172" xlink:href="#DejaVuSans-56"/>
       <use x="354.199219" xlink:href="#DejaVuSans-52"/>
       <use x="417.822266" xlink:href="#DejaVuSans-32"/>
       <use x="449.609375" xlink:href="#DejaVuSans-108"/>
       <use x="477.392578" xlink:href="#DejaVuSans-111"/>
       <use x="538.574219" xlink:href="#DejaVuSans-119"/>
       <use x="620.361328" xlink:href="#DejaVuSans-32"/>
       <use x="652.148438" xlink:href="#DejaVuSans-109"/>
       <use x="749.560547" xlink:href="#DejaVuSans-97"/>
       <use x="810.839844" xlink:href="#DejaVuSans-103"/>
       <use x="874.316406" xlink:href="#DejaVuSans-110"/>
       <use x="937.695312" xlink:href="#DejaVuSans-105"/>
       <use x="965.478516" xlink:href="#DejaVuSans-116"/>
       <use x="1004.6875" xlink:href="#DejaVuSans-117"/>
       <use x="1068.066406" xlink:href="#DejaVuSans-100"/>
       <use x="1131.542969" xlink:href="#DejaVuSans-101"/>
       <use x="1193.066406" xlink:href="#DejaVuSans-32"/>
       <use x="1224.853516" xlink:href="#DejaVuSans-45"/>
       <use x="1260.9375" xlink:href="#DejaVuSans-32"/>
       <use x="1292.724609" xlink:href="#DejaVuSans-110"/>
       <use x="1356.103516" xlink:href="#DejaVuSans-111"/>
       <use x="1417.285156" xlink:href="#DejaVuSans-105"/>
       <use x="1445.068359" xlink:href="#DejaVuSans-115"/>
       <use x="1497.167969" xlink:href="#DejaVuSans-121"/>
      </g>
     </g>
    </g>
    <g id="ytick_5">
     <g id="line2d_9">
      <path d="M 164.152813 70.179024 
" style="fill:none;stroke:#333333;stroke-width:1.5;"/>
      <g>
       <use style="fill:#333333;stroke:#333333;" x="164.152813" xlink:href="#meb95591dbe" y="70.179024"/>
      </g>
     </g>
     <g id="text_9">
      <!-- 443-450 -->
      <defs>
       <path d="M 40.578125 39.3125 
Q 47.65625 37.796875 51.625 33 
Q 55.609375 28.21875 55.609375 21.1875 
Q 55.609375 10.40625 48.1875 4.484375 
Q 40.765625 -1.421875 27.09375 -1.421875 
Q 22.515625 -1.421875 17.65625 -0.515625 
Q 12.796875 0.390625 7.625 2.203125 
L 7.625 11.71875 
Q 11.71875 9.328125 16.59375 8.109375 
Q 21.484375 6.890625 26.8125 6.890625 
Q 36.078125 6.890625 40.9375 10.546875 
Q 45.796875 14.203125 45.796875 21.1875 
Q 45.796875 27.640625 41.28125 31.265625 
Q 36.765625 34.90625 28.71875 34.90625 
L 20.21875 34.90625 
L 20.21875 43.015625 
L 29.109375 43.015625 
Q 36.375 43.015625 40.234375 45.921875 
Q 44.09375 48.828125 44.09375 54.296875 
Q 44.09375 59.90625 40.109375 62.90625 
Q 36.140625 65.921875 28.71875 65.921875 
Q 24.65625 65.921875 20.015625 65.03125 
Q 15.375 64.15625 9.8125 62.3125 
L 9.8125 71.09375 
Q 15.4375 72.65625 20.34375 73.4375 
Q 25.25 74.21875 29.59375 74.21875 
Q 40.828125 74.21875 47.359375 69.109375 
Q 53.90625 64.015625 53.90625 55.328125 
Q 53.90625 49.265625 50.4375 45.09375 
Q 46.96875 40.921875 40.578125 39.3125 
z
" id="DejaVuSans-51"/>
       <path d="M 31.78125 66.40625 
Q 24.171875 66.40625 20.328125 58.90625 
Q 16.5 51.421875 16.5 36.375 
Q 16.5 21.390625 20.328125 13.890625 
Q 24.171875 6.390625 31.78125 6.390625 
Q 39.453125 6.390625 43.28125 13.890625 
Q 47.125 21.390625 47.125 36.375 
Q 47.125 51.421875 43.28125 58.90625 
Q 39.453125 66.40625 31.78125 66.40625 
z
M 31.78125 74.21875 
Q 44.046875 74.21875 50.515625 64.515625 
Q 56.984375 54.828125 56.984375 36.375 
Q 56.984375 17.96875 50.515625 8.265625 
Q 44.046875 -1.421875 31.78125 -1.421875 
Q 19.53125 -1.421875 13.0625 8.265625 
Q 6.59375 17.96875 6.59375 36.375 
Q 6.59375 54.828125 13.0625 64.515625 
Q 19.53125 74.21875 31.78125 74.21875 
z
" id="DejaVuSans-48"/>
      </defs>
      <g style="fill:#4d4d4d;" transform="translate(122.433938 72.607274)scale(0.088 -0.088)">
       <use xlink:href="#DejaVuSans-52"/>
       <use x="63.623047" xlink:href="#DejaVuSans-52"/>
       <use x="127.246094" xlink:href="#DejaVuSans-51"/>
       <use x="190.869141" xlink:href="#DejaVuSans-45"/>
       <use x="226.953125" xlink:href="#DejaVuSans-52"/>
       <use x="290.576172" xlink:href="#DejaVuSans-53"/>
       <use x="354.199219" xlink:href="#DejaVuSans-48"/>
      </g>
     </g>
    </g>
    <g id="ytick_6">
     <g id="line2d_10">
      <path d="M 164.152813 56.657073 
" style="fill:none;stroke:#333333;stroke-width:1.5;"/>
      <g>
       <use style="fill:#333333;stroke:#333333;" x="164.152813" xlink:href="#meb95591dbe" y="56.657073"/>
      </g>
     </g>
     <g id="text_10">
      <!-- core -->
      <g style="fill:#4d4d4d;" transform="translate(140.145313 59.085323)scale(0.088 -0.088)">
       <use xlink:href="#DejaVuSans-99"/>
       <use x="54.980469" xlink:href="#DejaVuSans-111"/>
       <use x="116.162109" xlink:href="#DejaVuSans-114"/>
       <use x="155.025391" xlink:href="#DejaVuSans-101"/>
      </g>
     </g>
    </g>
    <g id="ytick_7">
     <g id="line2d_11">
      <path d="M 164.152813 43.135122 
" style="fill:none;stroke:#333333;stroke-width:1.5;"/>
      <g>
       <use style="fill:#333333;stroke:#333333;" x="164.152813" xlink:href="#meb95591dbe" y="43.135122"/>
      </g>
     </g>
     <g id="text_11">
      <!-- flat - noisy -->
      <defs>
       <path d="M 37.109375 75.984375 
L 37.109375 68.5 
L 28.515625 68.5 
Q 23.6875 68.5 21.796875 66.546875 
Q 19.921875 64.59375 19.921875 59.515625 
L 19.921875 54.6875 
L 34.71875 54.6875 
L 34.71875 47.703125 
L 19.921875 47.703125 
L 19.921875 0 
L 10.890625 0 
L 10.890625 47.703125 
L 2.296875 47.703125 
L 2.296875 54.6875 
L 10.890625 54.6875 
L 10.890625 58.5 
Q 10.890625 67.625 15.140625 71.796875 
Q 19.390625 75.984375 28.609375 75.984375 
z
" id="DejaVuSans-102"/>
      </defs>
      <g style="fill:#4d4d4d;" transform="translate(112.850188 45.563372)scale(0.088 -0.088)">
       <use xlink:href="#DejaVuSans-102"/>
       <use x="35.205078" xlink:href="#DejaVuSans-108"/>
       <use x="62.988281" xlink:href="#DejaVuSans-97"/>
       <use x="124.267578" xlink:href="#DejaVuSans-116"/>
       <use x="163.476562" xlink:href="#DejaVuSans-32"/>
       <use x="195.263672" xlink:href="#DejaVuSans-45"/>
       <use x="231.347656" xlink:href="#DejaVuSans-32"/>
       <use x="263.134766" xlink:href="#DejaVuSans-110"/>
       <use x="326.513672" xlink:href="#DejaVuSans-111"/>
       <use x="387.695312" xlink:href="#DejaVuSans-105"/>
       <use x="415.478516" xlink:href="#DejaVuSans-115"/>
       <use x="467.578125" xlink:href="#DejaVuSans-121"/>
      </g>
     </g>
    </g>
    <g id="ytick_8">
     <g id="line2d_12">
      <path d="M 164.152813 29.613171 
" style="fill:none;stroke:#333333;stroke-width:1.5;"/>
      <g>
       <use style="fill:#333333;stroke:#333333;" x="164.152813" xlink:href="#meb95591dbe" y="29.613171"/>
      </g>
     </g>
     <g id="text_12">
      <!-- flat -->
      <g style="fill:#4d4d4d;" transform="translate(144.817563 32.041421)scale(0.088 -0.088)">
       <use xlink:href="#DejaVuSans-102"/>
       <use x="35.205078" xlink:href="#DejaVuSans-108"/>
       <use x="62.988281" xlink:href="#DejaVuSans-97"/>
       <use x="124.267578" xlink:href="#DejaVuSans-116"/>
      </g>
     </g>
    </g>
    <g id="text_13">
     <!-- escape map -->
     <g transform="translate(15.558281 109.707266)rotate(-90)scale(0.11 -0.11)">
      <use xlink:href="#DejaVuSans-101"/>
      <use x="61.523438" xlink:href="#DejaVuSans-115"/>
      <use x="113.623047" xlink:href="#DejaVuSans-99"/>
      <use x="168.603516" xlink:href="#DejaVuSans-97"/>
      <use x="229.882812" xlink:href="#DejaVuSans-112"/>
      <use x="293.359375" xlink:href="#DejaVuSans-101"/>
      <use x="354.882812" xlink:href="#DejaVuSans-32"/>
      <use x="386.669922" xlink:href="#DejaVuSans-109"/>
      <use x="484.082031" xlink:href="#DejaVuSans-97"/>
      <use x="545.361328" xlink:href="#DejaVuSans-112"/>
     </g>
    </g>
   </g>
   <g id="PathCollection_1">
    <path clip-path="url(#p759ce8d402)" d="M 207.338976 127.483436 
C 208.044067 127.483436 208.720373 127.203301 209.218948 126.704727 
C 209.717522 126.206152 209.997657 125.529846 209.997657 124.824755 
C 209.997657 124.119665 209.717522 123.443358 209.218948 122.944784 
C 208.720373 122.44621 208.044067 122.166075 207.338976 122.166075 
C 206.633886 122.166075 205.957579 122.44621 205.459005 122.944784 
C 204.960431 123.443358 204.680296 124.119665 204.680296 124.824755 
C 204.680296 125.529846 204.960431 126.206152 205.459005 126.704727 
C 205.957579 127.203301 206.633886 127.483436 207.338976 127.483436 
z
" style="fill-opacity:0.25098;stroke:#000000;stroke-opacity:0.25098;stroke-width:0.886227;"/>
    <path clip-path="url(#p759ce8d402)" d="M 231.844258 127.238699 
C 232.549349 127.238699 233.225655 126.958563 233.72423 126.459989 
C 234.222804 125.961415 234.502939 125.285108 234.502939 124.580018 
C 234.502939 123.874928 234.222804 123.198621 233.72423 122.700047 
C 233.225655 122.201473 232.549349 121.921337 231.844258 121.921337 
C 231.139168 121.921337 230.462861 122.201473 229.964287 122.700047 
C 229.465713 123.198621 229.185578 123.874928 229.185578 124.580018 
C 229.185578 125.285108 229.465713 125.961415 229.964287 126.459989 
C 230.462861 126.958563 231.139168 127.238699 231.844258 127.238699 
z
" style="fill-opacity:0.25098;stroke:#000000;stroke-opacity:0.25098;stroke-width:0.886227;"/>
    <path clip-path="url(#p759ce8d402)" d="M 261.450203 85.151728 
C 262.155294 85.151728 262.8316 84.871592 263.330175 84.373018 
C 263.828749 83.874444 264.108884 83.198137 264.108884 82.493047 
C 264.108884 81.787957 263.828749 81.11165 263.330175 80.613076 
C 262.8316 80.114502 262.155294 79.834366 261.450203 79.834366 
C 260.745113 79.834366 260.068806 80.114502 259.570232 80.613076 
C 259.071658 81.11165 258.791523 81.787957 258.791523 82.493047 
C 258.791523 83.198137 259.071658 83.874444 259.570232 84.373018 
C 260.068806 84.871592 260.745113 85.151728 261.450203 85.151728 
z
" style="fill-opacity:0.25098;stroke:#000000;stroke-opacity:0.25098;stroke-width:0.886227;"/>
    <path clip-path="url(#p759ce8d402)" d="M 203.499119 127.509017 
C 204.204209 127.509017 204.880516 127.228881 205.37909 126.730307 
C 205.877664 126.231733 206.157799 125.555426 206.157799 124.850336 
C 206.157799 124.145245 205.877664 123.468939 205.37909 122.970365 
C 204.880516 122.47179 204.204209 122.191655 203.499119 122.191655 
C 202.794028 122.191655 202.117722 122.47179 201.619147 122.970365 
C 201.120573 123.468939 200.840438 124.145245 200.840438 124.850336 
C 200.840438 125.555426 201.120573 126.231733 201.619147 126.730307 
C 202.117722 127.228881 202.794028 127.509017 203.499119 127.509017 
z
" style="fill-opacity:0.25098;stroke:#000000;stroke-opacity:0.25098;stroke-width:0.886227;"/>
    <path clip-path="url(#p759ce8d402)" d="M 255.945708 100.933407 
C 256.650798 100.933407 257.327105 100.653271 257.825679 100.154697 
C 258.324253 99.656123 258.604388 98.979816 258.604388 98.274726 
C 258.604388 97.569636 258.324253 96.893329 257.825679 96.394755 
C 257.327105 95.896181 256.650798 95.616045 255.945708 95.616045 
C 255.240617 95.616045 254.564311 95.896181 254.065736 96.394755 
C 253.567162 96.893329 253.287027 97.569636 253.287027 98.274726 
C 253.287027 98.979816 253.567162 99.656123 254.065736 100.154697 
C 254.564311 100.653271 255.240617 100.933407 255.945708 100.933407 
z
" style="fill-opacity:0.25098;stroke:#000000;stroke-opacity:0.25098;stroke-width:0.886227;"/>
    <path clip-path="url(#p759ce8d402)" d="M 205.809026 125.896696 
C 206.514117 125.896696 207.190423 125.616561 207.688998 125.117986 
C 208.187572 124.619412 208.467707 123.943106 208.467707 123.238015 
C 208.467707 122.532925 208.187572 121.856618 207.688998 121.358044 
C 207.190423 120.85947 206.514117 120.579334 205.809026 120.579334 
C 205.103936 120.579334 204.427629 120.85947 203.929055 121.358044 
C 203.430481 121.856618 203.150346 122.532925 203.150346 123.238015 
C 203.150346 123.943106 203.430481 124.619412 203.929055 125.117986 
C 204.427629 125.616561 205.103936 125.896696 205.809026 125.896696 
z
" style="fill-opacity:0.25098;stroke:#000000;stroke-opacity:0.25098;stroke-width:0.886227;"/>
    <path clip-path="url(#p759ce8d402)" d="M 202.099371 125.539532 
C 202.804461 125.539532 203.480768 125.259396 203.979342 124.760822 
C 204.477916 124.262248 204.758051 123.585941 204.758051 122.880851 
C 204.758051 122.175761 204.477916 121.499454 203.979342 121.00088 
C 203.480768 120.502306 202.804461 120.22217 202.099371 120.22217 
C 201.39428 120.22217 200.717974 120.502306 200.219399 121.00088 
C 199.720825 121.499454 199.44069 122.175761 199.44069 122.880851 
C 199.44069 123.585941 199.720825 124.262248 200.219399 124.760822 
C 200.717974 125.259396 201.39428 125.539532 202.099371 125.539532 
z
" style="fill-opacity:0.25098;stroke:#000000;stroke-opacity:0.25098;stroke-width:0.886227;"/>
    <path clip-path="url(#p759ce8d402)" d="M 208.399023 125.639913 
C 209.104113 125.639913 209.78042 125.359777 210.278994 124.861203 
C 210.777568 124.362629 211.057704 123.686322 211.057704 122.981232 
C 211.057704 122.276141 210.777568 121.599835 210.278994 121.101261 
C 209.78042 120.602686 209.104113 120.322551 208.399023 120.322551 
C 207.693933 120.322551 207.017626 120.602686 206.519052 121.101261 
C 206.020478 121.599835 205.740342 122.276141 205.740342 122.981232 
C 205.740342 123.686322 206.020478 124.362629 206.519052 124.861203 
C 207.017626 125.359777 207.693933 125.639913 208.399023 125.639913 
z
" style="fill-opacity:0.25098;stroke:#000000;stroke-opacity:0.25098;stroke-width:0.886227;"/>
    <path clip-path="url(#p759ce8d402)" d="M 208.924971 34.292959 
C 209.630061 34.292959 210.306368 34.012824 210.804942 33.51425 
C 211.303516 33.015676 211.583652 32.339369 211.583652 31.634279 
C 211.583652 30.929188 211.303516 30.252882 210.804942 29.754307 
C 210.306368 29.255733 209.630061 28.975598 208.924971 28.975598 
C 208.21988 28.975598 207.543574 29.255733 207.045 29.754307 
C 206.546425 30.252882 206.26629 30.929188 206.26629 31.634279 
C 206.26629 32.339369 206.546425 33.015676 207.045 33.51425 
C 207.543574 34.012824 208.21988 34.292959 208.924971 34.292959 
z
" style="fill-opacity:0.25098;stroke:#000000;stroke-opacity:0.25098;stroke-width:0.886227;"/>
    <path clip-path="url(#p759ce8d402)" d="M 203.320073 125.717706 
C 204.025164 125.717706 204.70147 125.43757 205.200045 124.938996 
C 205.698619 124.440422 205.978754 123.764115 205.978754 123.059025 
C 205.978754 122.353934 205.698619 121.677628 205.200045 121.179054 
C 204.70147 120.680479 204.025164 120.400344 203.320073 120.400344 
C 202.614983 120.400344 201.938676 120.680479 201.440102 121.179054 
C 200.941528 121.677628 200.661393 122.353934 200.661393 123.059025 
C 200.661393 123.764115 200.941528 124.440422 201.440102 124.938996 
C 201.938676 125.43757 202.614983 125.717706 203.320073 125.717706 
z
" style="fill-opacity:0.25098;stroke:#000000;stroke-opacity:0.25098;stroke-width:0.886227;"/>
    <path clip-path="url(#p759ce8d402)" d="M 204.600232 125.216567 
C 205.305323 125.216567 205.981629 124.936432 206.480204 124.437857 
C 206.978778 123.939283 207.258913 123.262977 207.258913 122.557886 
C 207.258913 121.852796 206.978778 121.176489 206.480204 120.677915 
C 205.981629 120.179341 205.305323 119.899205 204.600232 119.899205 
C 203.895142 119.899205 203.218835 120.179341 202.720261 120.677915 
C 202.221687 121.176489 201.941552 121.852796 201.941552 122.557886 
C 201.941552 123.262977 202.221687 123.939283 202.720261 124.437857 
C 203.218835 124.936432 203.895142 125.216567 204.600232 125.216567 
z
" style="fill-opacity:0.25098;stroke:#000000;stroke-opacity:0.25098;stroke-width:0.886227;"/>
    <path clip-path="url(#p759ce8d402)" d="M 202.341752 127.543519 
C 203.046842 127.543519 203.723149 127.263383 204.221723 126.764809 
C 204.720297 126.266235 205.000433 125.589928 205.000433 124.884838 
C 205.000433 124.179747 204.720297 123.503441 204.221723 123.004867 
C 203.723149 122.506292 203.046842 122.226157 202.341752 122.226157 
C 201.636661 122.226157 200.960355 122.506292 200.461781 123.004867 
C 199.963206 123.503441 199.683071 124.179747 199.683071 124.884838 
C 199.683071 125.589928 199.963206 126.266235 200.461781 126.764809 
C 200.960355 127.263383 201.636661 127.543519 202.341752 127.543519 
z
" style="fill-opacity:0.25098;stroke:#000000;stroke-opacity:0.25098;stroke-width:0.886227;"/>
    <path clip-path="url(#p759ce8d402)" d="M 228.51986 74.093898 
C 229.22495 74.093898 229.901257 73.813763 230.399831 73.315188 
C 230.898405 72.816614 231.178541 72.140307 231.178541 71.435217 
C 231.178541 70.730127 230.898405 70.05382 230.399831 69.555246 
C 229.901257 69.056672 229.22495 68.776536 228.51986 68.776536 
C 227.814769 68.776536 227.138463 69.056672 226.639889 69.555246 
C 226.141314 70.05382 225.861179 70.730127 225.861179 71.435217 
C 225.861179 72.140307 226.141314 72.816614 226.639889 73.315188 
C 227.138463 73.813763 227.814769 74.093898 228.51986 74.093898 
z
" style="fill-opacity:0.25098;stroke:#000000;stroke-opacity:0.25098;stroke-width:0.886227;"/>
    <path clip-path="url(#p759ce8d402)" d="M 232.125267 72.176625 
C 232.830357 72.176625 233.506664 71.89649 234.005238 71.397915 
C 234.503812 70.899341 234.783948 70.223035 234.783948 69.517944 
C 234.783948 68.812854 234.503812 68.136547 234.005238 67.637973 
C 233.506664 67.139399 232.830357 66.859263 232.125267 66.859263 
C 231.420176 66.859263 230.74387 67.139399 230.245296 67.637973 
C 229.746721 68.136547 229.466586 68.812854 229.466586 69.517944 
C 229.466586 70.223035 229.746721 70.899341 230.245296 71.397915 
C 230.74387 71.89649 231.420176 72.176625 232.125267 72.176625 
z
" style="fill-opacity:0.25098;stroke:#000000;stroke-opacity:0.25098;stroke-width:0.886227;"/>
    <path clip-path="url(#p759ce8d402)" d="M 254.296295 33.745812 
C 255.001385 33.745812 255.677692 33.465677 256.176266 32.967103 
C 256.67484 32.468528 256.954976 31.792222 256.954976 31.087131 
C 256.954976 30.382041 256.67484 29.705734 256.176266 29.20716 
C 255.677692 28.708586 255.001385 28.428451 254.296295 28.428451 
C 253.591205 28.428451 252.914898 28.708586 252.416324 29.20716 
C 251.917749 29.705734 251.637614 30.382041 251.637614 31.087131 
C 251.637614 31.792222 251.917749 32.468528 252.416324 32.967103 
C 252.914898 33.465677 253.591205 33.745812 254.296295 33.745812 
z
" style="fill-opacity:0.25098;stroke:#000000;stroke-opacity:0.25098;stroke-width:0.886227;"/>
    <path clip-path="url(#p759ce8d402)" d="M 254.880583 73.486244 
C 255.585673 73.486244 256.26198 73.206108 256.760554 72.707534 
C 257.259128 72.20896 257.539264 71.532653 257.539264 70.827563 
C 257.539264 70.122473 257.259128 69.446166 256.760554 68.947592 
C 256.26198 68.449018 255.585673 68.168882 254.880583 68.168882 
C 254.175493 68.168882 253.499186 68.449018 253.000612 68.947592 
C 252.502038 69.446166 252.221902 70.122473 252.221902 70.827563 
C 252.221902 71.532653 252.502038 72.20896 253.000612 72.707534 
C 253.499186 73.206108 254.175493 73.486244 254.880583 73.486244 
z
" style="fill-opacity:0.25098;stroke:#000000;stroke-opacity:0.25098;stroke-width:0.886227;"/>
    <path clip-path="url(#p759ce8d402)" d="M 255.028183 74.022166 
C 255.733274 74.022166 256.40958 73.742031 256.908155 73.243457 
C 257.406729 72.744882 257.686864 72.068576 257.686864 71.363485 
C 257.686864 70.658395 257.406729 69.982088 256.908155 69.483514 
C 256.40958 68.98494 255.733274 68.704805 255.028183 68.704805 
C 254.323093 68.704805 253.646786 68.98494 253.148212 69.483514 
C 252.649638 69.982088 252.369503 70.658395 252.369503 71.363485 
C 252.369503 72.068576 252.649638 72.744882 253.148212 73.243457 
C 253.646786 73.742031 254.323093 74.022166 255.028183 74.022166 
z
" style="fill-opacity:0.25098;stroke:#000000;stroke-opacity:0.25098;stroke-width:0.886227;"/>
    <path clip-path="url(#p759ce8d402)" d="M 261.418355 73.405256 
C 262.123445 73.405256 262.799752 73.125121 263.298326 72.626547 
C 263.7969 72.127973 264.077036 71.451666 264.077036 70.746576 
C 264.077036 70.041485 263.7969 69.365179 263.298326 68.866604 
C 262.799752 68.36803 262.123445 68.087895 261.418355 68.087895 
C 260.713265 68.087895 260.036958 68.36803 259.538384 68.866604 
C 259.03981 69.365179 258.759674 70.041485 258.759674 70.746576 
C 258.759674 71.451666 259.03981 72.127973 259.538384 72.626547 
C 260.036958 73.125121 260.713265 73.405256 261.418355 73.405256 
z
" style="fill-opacity:0.25098;stroke:#000000;stroke-opacity:0.25098;stroke-width:0.886227;"/>
    <path clip-path="url(#p759ce8d402)" d="M 260.834721 73.834539 
C 261.539811 73.834539 262.216118 73.554403 262.714692 73.055829 
C 263.213266 72.557255 263.493402 71.880948 263.493402 71.175858 
C 263.493402 70.470768 263.213266 69.794461 262.714692 69.295887 
C 262.216118 68.797313 261.539811 68.517177 260.834721 68.517177 
C 260.12963 68.517177 259.453324 68.797313 258.95475 69.295887 
C 258.456175 69.794461 258.17604 70.470768 258.17604 71.175858 
C 258.17604 71.880948 258.456175 72.557255 258.95475 73.055829 
C 259.453324 73.554403 260.12963 73.834539 260.834721 73.834539 
z
" style="fill-opacity:0.25098;stroke:#000000;stroke-opacity:0.25098;stroke-width:0.886227;"/>
    <path clip-path="url(#p759ce8d402)" d="M 207.968108 58.867088 
C 208.673198 58.867088 209.349505 58.586952 209.848079 58.088378 
C 210.346653 57.589804 210.626789 56.913497 210.626789 56.208407 
C 210.626789 55.503316 210.346653 54.82701 209.848079 54.328436 
C 209.349505 53.829861 208.673198 53.549726 207.968108 53.549726 
C 207.263017 53.549726 206.586711 53.829861 206.088137 54.328436 
C 205.589562 54.82701 205.309427 55.503316 205.309427 56.208407 
C 205.309427 56.913497 205.589562 57.589804 206.088137 58.088378 
C 206.586711 58.586952 207.263017 58.867088 207.968108 58.867088 
z
" style="fill-opacity:0.25098;stroke:#000000;stroke-opacity:0.25098;stroke-width:0.886227;"/>
    <path clip-path="url(#p759ce8d402)" d="M 261.366232 30.465479 
C 262.071322 30.465479 262.747629 30.185343 263.246203 29.686769 
C 263.744777 29.188195 264.024913 28.511888 264.024913 27.806798 
C 264.024913 27.101707 263.744777 26.425401 263.246203 25.926827 
C 262.747629 25.428252 262.071322 25.148117 261.366232 25.148117 
C 260.661141 25.148117 259.984835 25.428252 259.486261 25.926827 
C 258.987686 26.425401 258.707551 27.101707 258.707551 27.806798 
C 258.707551 28.511888 258.987686 29.188195 259.486261 29.686769 
C 259.984835 30.185343 260.661141 30.465479 261.366232 30.465479 
z
" style="fill-opacity:0.25098;stroke:#000000;stroke-opacity:0.25098;stroke-width:0.886227;"/>
    <path clip-path="url(#p759ce8d402)" d="M 208.059596 113.802844 
C 208.764686 113.802844 209.440993 113.522708 209.939567 113.024134 
C 210.438141 112.52556 210.718277 111.849253 210.718277 111.144163 
C 210.718277 110.439072 210.438141 109.762766 209.939567 109.264192 
C 209.440993 108.765617 208.764686 108.485482 208.059596 108.485482 
C 207.354505 108.485482 206.678199 108.765617 206.179625 109.264192 
C 205.68105 109.762766 205.400915 110.439072 205.400915 111.144163 
C 205.400915 111.849253 205.68105 112.52556 206.179625 113.024134 
C 206.678199 113.522708 207.354505 113.802844 208.059596 113.802844 
z
" style="fill-opacity:0.25098;stroke:#000000;stroke-opacity:0.25098;stroke-width:0.886227;"/>
   </g>
   <g id="patch_3">
    <path d="M 164.152813 21.5 
L 273.232813 21.5 
L 273.232813 7.2 
L 164.152813 7.2 
z
" style="fill:none;stroke:#000000;stroke-linejoin:miter;"/>
   </g>
   <g id="patch_4">
    <path d="M 164.152813 132.38 
L 164.152813 21.5 
" style="fill:none;stroke:#000000;stroke-linecap:square;stroke-linejoin:miter;"/>
   </g>
   <g id="patch_5">
    <path d="M 164.152813 132.38 
L 273.232813 132.38 
" style="fill:none;stroke:#000000;stroke-linecap:square;stroke-linejoin:miter;"/>
   </g>
   <g id="text_14">
    <!-- convalescent -->
    <defs>
     <path d="M 2.984375 54.6875 
L 12.5 54.6875 
L 29.59375 8.796875 
L 46.6875 54.6875 
L 56.203125 54.6875 
L 35.6875 0 
L 23.484375 0 
z
" id="DejaVuSans-118"/>
    </defs>
    <g style="fill:#1a1a1a;" transform="translate(189.630125 16.77825)scale(0.088 -0.088)">
     <use xlink:href="#DejaVuSans-99"/>
     <use x="54.980469" xlink:href="#DejaVuSans-111"/>
     <use x="116.162109" xlink:href="#DejaVuSans-110"/>
     <use x="179.541016" xlink:href="#DejaVuSans-118"/>
     <use x="238.720703" xlink:href="#DejaVuSans-97"/>
     <use x="300" xlink:href="#DejaVuSans-108"/>
     <use x="327.783203" xlink:href="#DejaVuSans-101"/>
     <use x="389.306641" xlink:href="#DejaVuSans-115"/>
     <use x="441.40625" xlink:href="#DejaVuSans-99"/>
     <use x="496.386719" xlink:href="#DejaVuSans-101"/>
     <use x="557.910156" xlink:href="#DejaVuSans-110"/>
     <use x="621.289062" xlink:href="#DejaVuSans-116"/>
    </g>
   </g>
  </g>
  <g id="axes_2">
   <g id="patch_6">
    <path d="M 278.272813 132.38 
L 387.352813 132.38 
L 387.352813 21.5 
L 278.272813 21.5 
z
" style="fill:#ffffff;"/>
   </g>
   <g id="matplotlib.axis_3">
    <g id="xtick_5">
     <g id="line2d_13">
      <path d="M 293.85567 132.38 
" style="fill:none;stroke:#333333;stroke-linecap:square;stroke-width:1.5;"/>
      <g>
       <use style="fill:#333333;stroke:#333333;" x="293.85567" xlink:href="#m38c96b3600" y="132.38"/>
      </g>
     </g>
     <g id="text_15">
      <!-- extra escape -->
      <g style="fill:#4d4d4d;" transform="translate(296.28392 194.288)rotate(-90)scale(0.088 -0.088)">
       <use xlink:href="#DejaVuSans-101"/>
       <use x="59.773438" xlink:href="#DejaVuSans-120"/>
       <use x="118.953125" xlink:href="#DejaVuSans-116"/>
       <use x="158.162109" xlink:href="#DejaVuSans-114"/>
       <use x="199.275391" xlink:href="#DejaVuSans-97"/>
       <use x="260.554688" xlink:href="#DejaVuSans-32"/>
       <use x="292.341797" xlink:href="#DejaVuSans-101"/>
       <use x="353.865234" xlink:href="#DejaVuSans-115"/>
       <use x="405.964844" xlink:href="#DejaVuSans-99"/>
       <use x="460.945312" xlink:href="#DejaVuSans-97"/>
       <use x="522.224609" xlink:href="#DejaVuSans-112"/>
       <use x="585.701172" xlink:href="#DejaVuSans-101"/>
      </g>
     </g>
    </g>
    <g id="xtick_6">
     <g id="line2d_14">
      <path d="M 319.827098 132.38 
" style="fill:none;stroke:#333333;stroke-linecap:square;stroke-width:1.5;"/>
      <g>
       <use style="fill:#333333;stroke:#333333;" x="319.827098" xlink:href="#m38c96b3600" y="132.38"/>
      </g>
     </g>
     <g id="text_16">
      <!-- normal -->
      <g style="fill:#4d4d4d;" transform="translate(322.255348 168.164375)rotate(-90)scale(0.088 -0.088)">
       <use xlink:href="#DejaVuSans-110"/>
       <use x="63.378906" xlink:href="#DejaVuSans-111"/>
       <use x="124.560547" xlink:href="#DejaVuSans-114"/>
       <use x="163.923828" xlink:href="#DejaVuSans-109"/>
       <use x="261.335938" xlink:href="#DejaVuSans-97"/>
       <use x="322.615234" xlink:href="#DejaVuSans-108"/>
      </g>
     </g>
    </g>
    <g id="xtick_7">
     <g id="line2d_15">
      <path d="M 345.798527 132.38 
" style="fill:none;stroke:#333333;stroke-linecap:square;stroke-width:1.5;"/>
      <g>
       <use style="fill:#333333;stroke:#333333;" x="345.798527" xlink:href="#m38c96b3600" y="132.38"/>
      </g>
     </g>
     <g id="text_17">
      <!-- normal-no escape -->
      <g style="fill:#4d4d4d;" transform="translate(348.226777 216.32925)rotate(-90)scale(0.088 -0.088)">
       <use xlink:href="#DejaVuSans-110"/>
       <use x="63.378906" xlink:href="#DejaVuSans-111"/>
       <use x="124.560547" xlink:href="#DejaVuSans-114"/>
       <use x="163.923828" xlink:href="#DejaVuSans-109"/>
       <use x="261.335938" xlink:href="#DejaVuSans-97"/>
       <use x="322.615234" xlink:href="#DejaVuSans-108"/>
       <use x="350.398438" xlink:href="#DejaVuSans-45"/>
       <use x="386.482422" xlink:href="#DejaVuSans-110"/>
       <use x="449.861328" xlink:href="#DejaVuSans-111"/>
       <use x="511.042969" xlink:href="#DejaVuSans-32"/>
       <use x="542.830078" xlink:href="#DejaVuSans-101"/>
       <use x="604.353516" xlink:href="#DejaVuSans-115"/>
       <use x="656.453125" xlink:href="#DejaVuSans-99"/>
       <use x="711.433594" xlink:href="#DejaVuSans-97"/>
       <use x="772.712891" xlink:href="#DejaVuSans-112"/>
       <use x="836.189453" xlink:href="#DejaVuSans-101"/>
      </g>
     </g>
    </g>
    <g id="xtick_8">
     <g id="line2d_16">
      <path d="M 371.769955 132.38 
" style="fill:none;stroke:#333333;stroke-linecap:square;stroke-width:1.5;"/>
      <g>
       <use style="fill:#333333;stroke:#333333;" x="371.769955" xlink:href="#m38c96b3600" y="132.38"/>
      </g>
     </g>
     <g id="text_18">
      <!-- no escape -->
      <g style="fill:#4d4d4d;" transform="translate(374.198205 182.32)rotate(-90)scale(0.088 -0.088)">
       <use xlink:href="#DejaVuSans-110"/>
       <use x="63.378906" xlink:href="#DejaVuSans-111"/>
       <use x="124.560547" xlink:href="#DejaVuSans-32"/>
       <use x="156.347656" xlink:href="#DejaVuSans-101"/>
       <use x="217.871094" xlink:href="#DejaVuSans-115"/>
       <use x="269.970703" xlink:href="#DejaVuSans-99"/>
       <use x="324.951172" xlink:href="#DejaVuSans-97"/>
       <use x="386.230469" xlink:href="#DejaVuSans-112"/>
       <use x="449.707031" xlink:href="#DejaVuSans-101"/>
      </g>
     </g>
    </g>
    <g id="text_19">
     <!-- FACS plot shape -->
     <defs>
      <path d="M 9.8125 72.90625 
L 51.703125 72.90625 
L 51.703125 64.59375 
L 19.671875 64.59375 
L 19.671875 43.109375 
L 48.578125 43.109375 
L 48.578125 34.8125 
L 19.671875 34.8125 
L 19.671875 0 
L 9.8125 0 
z
" id="DejaVuSans-70"/>
      <path d="M 34.1875 63.1875 
L 20.796875 26.90625 
L 47.609375 26.90625 
z
M 28.609375 72.90625 
L 39.796875 72.90625 
L 67.578125 0 
L 57.328125 0 
L 50.6875 18.703125 
L 17.828125 18.703125 
L 11.1875 0 
L 0.78125 0 
z
" id="DejaVuSans-65"/>
      <path d="M 64.40625 67.28125 
L 64.40625 56.890625 
Q 59.421875 61.53125 53.78125 63.8125 
Q 48.140625 66.109375 41.796875 66.109375 
Q 29.296875 66.109375 22.65625 58.46875 
Q 16.015625 50.828125 16.015625 36.375 
Q 16.015625 21.96875 22.65625 14.328125 
Q 29.296875 6.6875 41.796875 6.6875 
Q 48.140625 6.6875 53.78125 8.984375 
Q 59.421875 11.28125 64.40625 15.921875 
L 64.40625 5.609375 
Q 59.234375 2.09375 53.4375 0.328125 
Q 47.65625 -1.421875 41.21875 -1.421875 
Q 24.65625 -1.421875 15.125 8.703125 
Q 5.609375 18.84375 5.609375 36.375 
Q 5.609375 53.953125 15.125 64.078125 
Q 24.65625 74.21875 41.21875 74.21875 
Q 47.75 74.21875 53.53125 72.484375 
Q 59.328125 70.75 64.40625 67.28125 
z
" id="DejaVuSans-67"/>
      <path d="M 53.515625 70.515625 
L 53.515625 60.890625 
Q 47.90625 63.578125 42.921875 64.890625 
Q 37.9375 66.21875 33.296875 66.21875 
Q 25.25 66.21875 20.875 63.09375 
Q 16.5 59.96875 16.5 54.203125 
Q 16.5 49.359375 19.40625 46.890625 
Q 22.3125 44.4375 30.421875 42.921875 
L 36.375 41.703125 
Q 47.40625 39.59375 52.65625 34.296875 
Q 57.90625 29 57.90625 20.125 
Q 57.90625 9.515625 50.796875 4.046875 
Q 43.703125 -1.421875 29.984375 -1.421875 
Q 24.8125 -1.421875 18.96875 -0.25 
Q 13.140625 0.921875 6.890625 3.21875 
L 6.890625 13.375 
Q 12.890625 10.015625 18.65625 8.296875 
Q 24.421875 6.59375 29.984375 6.59375 
Q 38.421875 6.59375 43.015625 9.90625 
Q 47.609375 13.234375 47.609375 19.390625 
Q 47.609375 24.75 44.3125 27.78125 
Q 41.015625 30.8125 33.5 32.328125 
L 27.484375 33.5 
Q 16.453125 35.6875 11.515625 40.375 
Q 6.59375 45.0625 6.59375 53.421875 
Q 6.59375 63.09375 13.40625 68.65625 
Q 20.21875 74.21875 32.171875 74.21875 
Q 37.3125 74.21875 42.625 73.28125 
Q 47.953125 72.359375 53.515625 70.515625 
z
" id="DejaVuSans-83"/>
      <path d="M 54.890625 33.015625 
L 54.890625 0 
L 45.90625 0 
L 45.90625 32.71875 
Q 45.90625 40.484375 42.875 44.328125 
Q 39.84375 48.1875 33.796875 48.1875 
Q 26.515625 48.1875 22.3125 43.546875 
Q 18.109375 38.921875 18.109375 30.90625 
L 18.109375 0 
L 9.078125 0 
L 9.078125 75.984375 
L 18.109375 75.984375 
L 18.109375 46.1875 
Q 21.34375 51.125 25.703125 53.5625 
Q 30.078125 56 35.796875 56 
Q 45.21875 56 50.046875 50.171875 
Q 54.890625 44.34375 54.890625 33.015625 
z
" id="DejaVuSans-104"/>
     </defs>
     <g transform="translate(227.858906 229.087531)scale(0.11 -0.11)">
      <use xlink:href="#DejaVuSans-70"/>
      <use x="48.394531" xlink:href="#DejaVuSans-65"/>
      <use x="115.052734" xlink:href="#DejaVuSans-67"/>
      <use x="184.876953" xlink:href="#DejaVuSans-83"/>
      <use x="248.353516" xlink:href="#DejaVuSans-32"/>
      <use x="280.140625" xlink:href="#DejaVuSans-112"/>
      <use x="343.617188" xlink:href="#DejaVuSans-108"/>
      <use x="371.400391" xlink:href="#DejaVuSans-111"/>
      <use x="432.582031" xlink:href="#DejaVuSans-116"/>
      <use x="471.791016" xlink:href="#DejaVuSans-32"/>
      <use x="503.578125" xlink:href="#DejaVuSans-115"/>
      <use x="555.677734" xlink:href="#DejaVuSans-104"/>
      <use x="619.056641" xlink:href="#DejaVuSans-97"/>
      <use x="680.335938" xlink:href="#DejaVuSans-112"/>
      <use x="743.8125" xlink:href="#DejaVuSans-101"/>
     </g>
    </g>
   </g>
   <g id="matplotlib.axis_4">
    <g id="ytick_9"/>
    <g id="ytick_10"/>
    <g id="ytick_11"/>
    <g id="ytick_12"/>
    <g id="ytick_13"/>
    <g id="ytick_14"/>
    <g id="ytick_15"/>
    <g id="ytick_16"/>
   </g>
   <g id="PathCollection_2">
    <path clip-path="url(#p1173fccfb2)" d="M 346.102333 128.315603 
C 346.807424 128.315603 347.48373 128.035468 347.982304 127.536894 
C 348.480879 127.03832 348.761014 126.362013 348.761014 125.656923 
C 348.761014 124.951832 348.480879 124.275526 347.982304 123.776951 
C 347.48373 123.278377 346.807424 122.998242 346.102333 122.998242 
C 345.397243 122.998242 344.720936 123.278377 344.222362 123.776951 
C 343.723788 124.275526 343.443652 124.951832 343.443652 125.656923 
C 343.443652 126.362013 343.723788 127.03832 344.222362 127.536894 
C 344.720936 128.035468 345.397243 128.315603 346.102333 128.315603 
z
" style="fill-opacity:0.25098;stroke:#000000;stroke-opacity:0.25098;stroke-width:0.886227;"/>
    <path clip-path="url(#p1173fccfb2)" d="M 317.838615 34.226561 
C 318.543706 34.226561 319.220012 33.946426 319.718586 33.447852 
C 320.217161 32.949278 320.497296 32.272971 320.497296 31.567881 
C 320.497296 30.86279 320.217161 30.186484 319.718586 29.687909 
C 319.220012 29.189335 318.543706 28.9092 317.838615 28.9092 
C 317.133525 28.9092 316.457218 29.189335 315.958644 29.687909 
C 315.46007 30.186484 315.179934 30.86279 315.179934 31.567881 
C 315.179934 32.272971 315.46007 32.949278 315.958644 33.447852 
C 316.457218 33.946426 317.133525 34.226561 317.838615 34.226561 
z
" style="fill-opacity:0.25098;stroke:#000000;stroke-opacity:0.25098;stroke-width:0.886227;"/>
    <path clip-path="url(#p1173fccfb2)" d="M 321.091845 114.086572 
C 321.796935 114.086572 322.473242 113.806437 322.971816 113.307863 
C 323.47039 112.809289 323.750526 112.132982 323.750526 111.427892 
C 323.750526 110.722801 323.47039 110.046495 322.971816 109.54792 
C 322.473242 109.049346 321.796935 108.769211 321.091845 108.769211 
C 320.386755 108.769211 319.710448 109.049346 319.211874 109.54792 
C 318.7133 110.046495 318.433164 110.722801 318.433164 111.427892 
C 318.433164 112.132982 318.7133 112.809289 319.211874 113.307863 
C 319.710448 113.806437 320.386755 114.086572 321.091845 114.086572 
z
" style="fill-opacity:0.25098;stroke:#000000;stroke-opacity:0.25098;stroke-width:0.886227;"/>
    <path clip-path="url(#p1173fccfb2)" d="M 344.396339 58.067575 
C 345.101429 58.067575 345.777736 57.787439 346.27631 57.288865 
C 346.774884 56.790291 347.05502 56.113984 347.05502 55.408894 
C 347.05502 54.703803 346.774884 54.027497 346.27631 53.528923 
C 345.777736 53.030348 345.101429 52.750213 344.396339 52.750213 
C 343.691249 52.750213 343.014942 53.030348 342.516368 53.528923 
C 342.017794 54.027497 341.737658 54.703803 341.737658 55.408894 
C 341.737658 56.113984 342.017794 56.790291 342.516368 57.288865 
C 343.014942 57.787439 343.691249 58.067575 344.396339 58.067575 
z
" style="fill-opacity:0.25098;stroke:#000000;stroke-opacity:0.25098;stroke-width:0.886227;"/>
    <path clip-path="url(#p1173fccfb2)" d="M 296.323816 30.510946 
C 297.028907 30.510946 297.705213 30.230811 298.203788 29.732237 
C 298.702362 29.233663 298.982497 28.557356 298.982497 27.852266 
C 298.982497 27.147175 298.702362 26.470869 298.203788 25.972294 
C 297.705213 25.47372 297.028907 25.193585 296.323816 25.193585 
C 295.618726 25.193585 294.942419 25.47372 294.443845 25.972294 
C 293.945271 26.470869 293.665136 27.147175 293.665136 27.852266 
C 293.665136 28.557356 293.945271 29.233663 294.443845 29.732237 
C 294.942419 30.230811 295.618726 30.510946 296.323816 30.510946 
z
" style="fill-opacity:0.25098;stroke:#000000;stroke-opacity:0.25098;stroke-width:0.886227;"/>
    <path clip-path="url(#p1173fccfb2)" d="M 320.656044 32.884584 
C 321.361134 32.884584 322.037441 32.604449 322.536015 32.105875 
C 323.034589 31.607301 323.314724 30.930994 323.314724 30.225904 
C 323.314724 29.520813 323.034589 28.844507 322.536015 28.345932 
C 322.037441 27.847358 321.361134 27.567223 320.656044 27.567223 
C 319.950953 27.567223 319.274647 27.847358 318.776072 28.345932 
C 318.277498 28.844507 317.997363 29.520813 317.997363 30.225904 
C 317.997363 30.930994 318.277498 31.607301 318.776072 32.105875 
C 319.274647 32.604449 319.950953 32.884584 320.656044 32.884584 
z
" style="fill-opacity:0.25098;stroke:#000000;stroke-opacity:0.25098;stroke-width:0.886227;"/>
    <path clip-path="url(#p1173fccfb2)" d="M 319.524502 114.640277 
C 320.229592 114.640277 320.905899 114.360141 321.404473 113.861567 
C 321.903047 113.362993 322.183183 112.686686 322.183183 111.981596 
C 322.183183 111.276505 321.903047 110.600199 321.404473 110.101625 
C 320.905899 109.60305 320.229592 109.322915 319.524502 109.322915 
C 318.819412 109.322915 318.143105 109.60305 317.644531 110.101625 
C 317.145957 110.600199 316.865821 111.276505 316.865821 111.981596 
C 316.865821 112.686686 317.145957 113.362993 317.644531 113.861567 
C 318.143105 114.360141 318.819412 114.640277 319.524502 114.640277 
z
" style="fill-opacity:0.25098;stroke:#000000;stroke-opacity:0.25098;stroke-width:0.886227;"/>
    <path clip-path="url(#p1173fccfb2)" d="M 292.785493 125.822377 
C 293.490584 125.822377 294.166891 125.542242 294.665465 125.043668 
C 295.164039 124.545094 295.444174 123.868787 295.444174 123.163697 
C 295.444174 122.458606 295.164039 121.7823 294.665465 121.283725 
C 294.166891 120.785151 293.490584 120.505016 292.785493 120.505016 
C 292.080403 120.505016 291.404096 120.785151 290.905522 121.283725 
C 290.406948 121.7823 290.126813 122.458606 290.126813 123.163697 
C 290.126813 123.868787 290.406948 124.545094 290.905522 125.043668 
C 291.404096 125.542242 292.080403 125.822377 292.785493 125.822377 
z
" style="fill-opacity:0.25098;stroke:#000000;stroke-opacity:0.25098;stroke-width:0.886227;"/>
    <path clip-path="url(#p1173fccfb2)" d="M 372.457952 86.708173 
C 373.163042 86.708173 373.839349 86.428038 374.337923 85.929464 
C 374.836497 85.430889 375.116632 84.754583 375.116632 84.049492 
C 375.116632 83.344402 374.836497 82.668095 374.337923 82.169521 
C 373.839349 81.670947 373.163042 81.390812 372.457952 81.390812 
C 371.752861 81.390812 371.076555 81.670947 370.57798 82.169521 
C 370.079406 82.668095 369.799271 83.344402 369.799271 84.049492 
C 369.799271 84.754583 370.079406 85.430889 370.57798 85.929464 
C 371.076555 86.428038 371.752861 86.708173 372.457952 86.708173 
z
" style="fill-opacity:0.25098;stroke:#000000;stroke-opacity:0.25098;stroke-width:0.886227;"/>
    <path clip-path="url(#p1173fccfb2)" d="M 318.901107 33.993996 
C 319.606197 33.993996 320.282504 33.71386 320.781078 33.215286 
C 321.279652 32.716712 321.559788 32.040405 321.559788 31.335315 
C 321.559788 30.630224 321.279652 29.953918 320.781078 29.455344 
C 320.282504 28.956769 319.606197 28.676634 318.901107 28.676634 
C 318.196017 28.676634 317.51971 28.956769 317.021136 29.455344 
C 316.522562 29.953918 316.242426 30.630224 316.242426 31.335315 
C 316.242426 32.040405 316.522562 32.716712 317.021136 33.215286 
C 317.51971 33.71386 318.196017 33.993996 318.901107 33.993996 
z
" style="fill-opacity:0.25098;stroke:#000000;stroke-opacity:0.25098;stroke-width:0.886227;"/>
    <path clip-path="url(#p1173fccfb2)" d="M 371.915101 60.734256 
C 372.620192 60.734256 373.296499 60.45412 373.795073 59.955546 
C 374.293647 59.456972 374.573782 58.780665 374.573782 58.075575 
C 374.573782 57.370484 374.293647 56.694178 373.795073 56.195604 
C 373.296499 55.697029 372.620192 55.416894 371.915101 55.416894 
C 371.210011 55.416894 370.533704 55.697029 370.03513 56.195604 
C 369.536556 56.694178 369.256421 57.370484 369.256421 58.075575 
C 369.256421 58.780665 369.536556 59.456972 370.03513 59.955546 
C 370.533704 60.45412 371.210011 60.734256 371.915101 60.734256 
z
" style="fill-opacity:0.25098;stroke:#000000;stroke-opacity:0.25098;stroke-width:0.886227;"/>
    <path clip-path="url(#p1173fccfb2)" d="M 291.668212 31.205604 
C 292.373302 31.205604 293.049609 30.925469 293.548183 30.426895 
C 294.046757 29.928321 294.326893 29.252014 294.326893 28.546924 
C 294.326893 27.841833 294.046757 27.165527 293.548183 26.666952 
C 293.049609 26.168378 292.373302 25.888243 291.668212 25.888243 
C 290.963122 25.888243 290.286815 26.168378 289.788241 26.666952 
C 289.289667 27.165527 289.009531 27.841833 289.009531 28.546924 
C 289.009531 29.252014 289.289667 29.928321 289.788241 30.426895 
C 290.286815 30.925469 290.963122 31.205604 291.668212 31.205604 
z
" style="fill-opacity:0.25098;stroke:#000000;stroke-opacity:0.25098;stroke-width:0.886227;"/>
    <path clip-path="url(#p1173fccfb2)" d="M 323.320207 33.649529 
C 324.025297 33.649529 324.701604 33.369394 325.200178 32.87082 
C 325.698752 32.372245 325.978887 31.695939 325.978887 30.990848 
C 325.978887 30.285758 325.698752 29.609451 325.200178 29.110877 
C 324.701604 28.612303 324.025297 28.332168 323.320207 28.332168 
C 322.615116 28.332168 321.93881 28.612303 321.440235 29.110877 
C 320.941661 29.609451 320.661526 30.285758 320.661526 30.990848 
C 320.661526 31.695939 320.941661 32.372245 321.440235 32.87082 
C 321.93881 33.369394 322.615116 33.649529 323.320207 33.649529 
z
" style="fill-opacity:0.25098;stroke:#000000;stroke-opacity:0.25098;stroke-width:0.886227;"/>
    <path clip-path="url(#p1173fccfb2)" d="M 346.053518 127.934687 
C 346.758608 127.934687 347.434915 127.654552 347.933489 127.155978 
C 348.432064 126.657404 348.712199 125.981097 348.712199 125.276007 
C 348.712199 124.570916 348.432064 123.89461 347.933489 123.396035 
C 347.434915 122.897461 346.758608 122.617326 346.053518 122.617326 
C 345.348428 122.617326 344.672121 122.897461 344.173547 123.396035 
C 343.674973 123.89461 343.394837 124.570916 343.394837 125.276007 
C 343.394837 125.981097 343.674973 126.657404 344.173547 127.155978 
C 344.672121 127.654552 345.348428 127.934687 346.053518 127.934687 
z
" style="fill-opacity:0.25098;stroke:#000000;stroke-opacity:0.25098;stroke-width:0.886227;"/>
    <path clip-path="url(#p1173fccfb2)" d="M 348.23247 124.92078 
C 348.93756 124.92078 349.613867 124.640645 350.112441 124.142071 
C 350.611015 123.643497 350.89115 122.96719 350.89115 122.2621 
C 350.89115 121.557009 350.611015 120.880703 350.112441 120.382128 
C 349.613867 119.883554 348.93756 119.603419 348.23247 119.603419 
C 347.527379 119.603419 346.851073 119.883554 346.352498 120.382128 
C 345.853924 120.880703 345.573789 121.557009 345.573789 122.2621 
C 345.573789 122.96719 345.853924 123.643497 346.352498 124.142071 
C 346.851073 124.640645 347.527379 124.92078 348.23247 124.92078 
z
" style="fill-opacity:0.25098;stroke:#000000;stroke-opacity:0.25098;stroke-width:0.886227;"/>
    <path clip-path="url(#p1173fccfb2)" d="M 296.382646 33.943959 
C 297.087736 33.943959 297.764043 33.663824 298.262617 33.16525 
C 298.761191 32.666676 299.041326 31.990369 299.041326 31.285279 
C 299.041326 30.580188 298.761191 29.903882 298.262617 29.405307 
C 297.764043 28.906733 297.087736 28.626598 296.382646 28.626598 
C 295.677555 28.626598 295.001249 28.906733 294.502674 29.405307 
C 294.0041 29.903882 293.723965 30.580188 293.723965 31.285279 
C 293.723965 31.990369 294.0041 32.666676 294.502674 33.16525 
C 295.001249 33.663824 295.677555 33.943959 296.382646 33.943959 
z
" style="fill-opacity:0.25098;stroke:#000000;stroke-opacity:0.25098;stroke-width:0.886227;"/>
    <path clip-path="url(#p1173fccfb2)" d="M 323.097167 31.74505 
C 323.802258 31.74505 324.478564 31.464915 324.977138 30.96634 
C 325.475713 30.467766 325.755848 29.79146 325.755848 29.086369 
C 325.755848 28.381279 325.475713 27.704972 324.977138 27.206398 
C 324.478564 26.707824 323.802258 26.427689 323.097167 26.427689 
C 322.392077 26.427689 321.71577 26.707824 321.217196 27.206398 
C 320.718622 27.704972 320.438486 28.381279 320.438486 29.086369 
C 320.438486 29.79146 320.718622 30.467766 321.217196 30.96634 
C 321.71577 31.464915 322.392077 31.74505 323.097167 31.74505 
z
" style="fill-opacity:0.25098;stroke:#000000;stroke-opacity:0.25098;stroke-width:0.886227;"/>
    <path clip-path="url(#p1173fccfb2)" d="M 320.287812 32.191305 
C 320.992902 32.191305 321.669209 31.911169 322.167783 31.412595 
C 322.666357 30.914021 322.946493 30.237714 322.946493 29.532624 
C 322.946493 28.827533 322.666357 28.151227 322.167783 27.652653 
C 321.669209 27.154078 320.992902 26.873943 320.287812 26.873943 
C 319.582722 26.873943 318.906415 27.154078 318.407841 27.652653 
C 317.909267 28.151227 317.629131 28.827533 317.629131 29.532624 
C 317.629131 30.237714 317.909267 30.914021 318.407841 31.412595 
C 318.906415 31.911169 319.582722 32.191305 320.287812 32.191305 
z
" style="fill-opacity:0.25098;stroke:#000000;stroke-opacity:0.25098;stroke-width:0.886227;"/>
    <path clip-path="url(#p1173fccfb2)" d="M 319.89692 30.891957 
C 320.60201 30.891957 321.278317 30.611821 321.776891 30.113247 
C 322.275465 29.614673 322.555601 28.938366 322.555601 28.233276 
C 322.555601 27.528186 322.275465 26.851879 321.776891 26.353305 
C 321.278317 25.854731 320.60201 25.574595 319.89692 25.574595 
C 319.191829 25.574595 318.515523 25.854731 318.016949 26.353305 
C 317.518374 26.851879 317.238239 27.528186 317.238239 28.233276 
C 317.238239 28.938366 317.518374 29.614673 318.016949 30.113247 
C 318.515523 30.611821 319.191829 30.891957 319.89692 30.891957 
z
" style="fill-opacity:0.25098;stroke:#000000;stroke-opacity:0.25098;stroke-width:0.886227;"/>
    <path clip-path="url(#p1173fccfb2)" d="M 368.757538 44.983467 
C 369.462628 44.983467 370.138935 44.703332 370.637509 44.204757 
C 371.136083 43.706183 371.416218 43.029877 371.416218 42.324786 
C 371.416218 41.619696 371.136083 40.943389 370.637509 40.444815 
C 370.138935 39.946241 369.462628 39.666105 368.757538 39.666105 
C 368.052447 39.666105 367.376141 39.946241 366.877566 40.444815 
C 366.378992 40.943389 366.098857 41.619696 366.098857 42.324786 
C 366.098857 43.029877 366.378992 43.706183 366.877566 44.204757 
C 367.376141 44.703332 368.052447 44.983467 368.757538 44.983467 
z
" style="fill-opacity:0.25098;stroke:#000000;stroke-opacity:0.25098;stroke-width:0.886227;"/>
    <path clip-path="url(#p1173fccfb2)" d="M 375.417921 46.287596 
C 376.123011 46.287596 376.799318 46.00746 377.297892 45.508886 
C 377.796466 45.010312 378.076602 44.334005 378.076602 43.628915 
C 378.076602 42.923825 377.796466 42.247518 377.297892 41.748944 
C 376.799318 41.25037 376.123011 40.970234 375.417921 40.970234 
C 374.71283 40.970234 374.036524 41.25037 373.53795 41.748944 
C 373.039375 42.247518 372.75924 42.923825 372.75924 43.628915 
C 372.75924 44.334005 373.039375 45.010312 373.53795 45.508886 
C 374.036524 46.00746 374.71283 46.287596 375.417921 46.287596 
z
" style="fill-opacity:0.25098;stroke:#000000;stroke-opacity:0.25098;stroke-width:0.886227;"/>
    <path clip-path="url(#p1173fccfb2)" d="M 321.263556 30.422207 
C 321.968647 30.422207 322.644953 30.142072 323.143527 29.643498 
C 323.642102 29.144924 323.922237 28.468617 323.922237 27.763526 
C 323.922237 27.058436 323.642102 26.382129 323.143527 25.883555 
C 322.644953 25.384981 321.968647 25.104846 321.263556 25.104846 
C 320.558466 25.104846 319.882159 25.384981 319.383585 25.883555 
C 318.885011 26.382129 318.604875 27.058436 318.604875 27.763526 
C 318.604875 28.468617 318.885011 29.144924 319.383585 29.643498 
C 319.882159 30.142072 320.558466 30.422207 321.263556 30.422207 
z
" style="fill-opacity:0.25098;stroke:#000000;stroke-opacity:0.25098;stroke-width:0.886227;"/>
    <path clip-path="url(#p1173fccfb2)" d="M 344.181517 61.014374 
C 344.886608 61.014374 345.562914 60.734238 346.061488 60.235664 
C 346.560063 59.73709 346.840198 59.060783 346.840198 58.355693 
C 346.840198 57.650603 346.560063 56.974296 346.061488 56.475722 
C 345.562914 55.977148 344.886608 55.697012 344.181517 55.697012 
C 343.476427 55.697012 342.80012 55.977148 342.301546 56.475722 
C 341.802972 56.974296 341.522836 57.650603 341.522836 58.355693 
C 341.522836 59.060783 341.802972 59.73709 342.301546 60.235664 
C 342.80012 60.734238 343.476427 61.014374 344.181517 61.014374 
z
" style="fill-opacity:0.25098;stroke:#000000;stroke-opacity:0.25098;stroke-width:0.886227;"/>
    <path clip-path="url(#p1173fccfb2)" d="M 346.100306 87.120101 
C 346.805396 87.120101 347.481703 86.839965 347.980277 86.341391 
C 348.478851 85.842817 348.758986 85.16651 348.758986 84.46142 
C 348.758986 83.75633 348.478851 83.080023 347.980277 82.581449 
C 347.481703 82.082875 346.805396 81.802739 346.100306 81.802739 
C 345.395215 81.802739 344.718909 82.082875 344.220335 82.581449 
C 343.72176 83.080023 343.441625 83.75633 343.441625 84.46142 
C 343.441625 85.16651 343.72176 85.842817 344.220335 86.341391 
C 344.718909 86.839965 345.395215 87.120101 346.100306 87.120101 
z
" style="fill-opacity:0.25098;stroke:#000000;stroke-opacity:0.25098;stroke-width:0.886227;"/>
    <path clip-path="url(#p1173fccfb2)" d="M 348.893466 30.404159 
C 349.598556 30.404159 350.274863 30.124023 350.773437 29.625449 
C 351.272011 29.126875 351.552146 28.450568 351.552146 27.745478 
C 351.552146 27.040388 351.272011 26.364081 350.773437 25.865507 
C 350.274863 25.366933 349.598556 25.086797 348.893466 25.086797 
C 348.188375 25.086797 347.512069 25.366933 347.013494 25.865507 
C 346.51492 26.364081 346.234785 27.040388 346.234785 27.745478 
C 346.234785 28.450568 346.51492 29.126875 347.013494 29.625449 
C 347.512069 30.124023 348.188375 30.404159 348.893466 30.404159 
z
" style="fill-opacity:0.25098;stroke:#000000;stroke-opacity:0.25098;stroke-width:0.886227;"/>
    <path clip-path="url(#p1173fccfb2)" d="M 318.553497 111.447955 
C 319.258587 111.447955 319.934894 111.167819 320.433468 110.669245 
C 320.932042 110.170671 321.212177 109.494364 321.212177 108.789274 
C 321.212177 108.084183 320.932042 107.407877 320.433468 106.909303 
C 319.934894 106.410728 319.258587 106.130593 318.553497 106.130593 
C 317.848406 106.130593 317.1721 106.410728 316.673525 106.909303 
C 316.174951 107.407877 315.894816 108.084183 315.894816 108.789274 
C 315.894816 109.494364 316.174951 110.170671 316.673525 110.669245 
C 317.1721 111.167819 317.848406 111.447955 318.553497 111.447955 
z
" style="fill-opacity:0.25098;stroke:#000000;stroke-opacity:0.25098;stroke-width:0.886227;"/>
    <path clip-path="url(#p1173fccfb2)" d="M 323.381099 32.673667 
C 324.086189 32.673667 324.762496 32.393532 325.26107 31.894958 
C 325.759644 31.396384 326.03978 30.720077 326.03978 30.014987 
C 326.03978 29.309896 325.759644 28.63359 325.26107 28.135015 
C 324.762496 27.636441 324.086189 27.356306 323.381099 27.356306 
C 322.676008 27.356306 321.999702 27.636441 321.501128 28.135015 
C 321.002553 28.63359 320.722418 29.309896 320.722418 30.014987 
C 320.722418 30.720077 321.002553 31.396384 321.501128 31.894958 
C 321.999702 32.393532 322.676008 32.673667 323.381099 32.673667 
z
" style="fill-opacity:0.25098;stroke:#000000;stroke-opacity:0.25098;stroke-width:0.886227;"/>
    <path clip-path="url(#p1173fccfb2)" d="M 292.751192 33.896713 
C 293.456282 33.896713 294.132589 33.616578 294.631163 33.118004 
C 295.129737 32.61943 295.409872 31.943123 295.409872 31.238033 
C 295.409872 30.532942 295.129737 29.856636 294.631163 29.358061 
C 294.132589 28.859487 293.456282 28.579352 292.751192 28.579352 
C 292.046101 28.579352 291.369795 28.859487 290.87122 29.358061 
C 290.372646 29.856636 290.092511 30.532942 290.092511 31.238033 
C 290.092511 31.943123 290.372646 32.61943 290.87122 33.118004 
C 291.369795 33.616578 292.046101 33.896713 292.751192 33.896713 
z
" style="fill-opacity:0.25098;stroke:#000000;stroke-opacity:0.25098;stroke-width:0.886227;"/>
   </g>
   <g id="patch_7">
    <path d="M 278.272813 21.5 
L 387.352813 21.5 
L 387.352813 7.2 
L 278.272813 7.2 
z
" style="fill:none;stroke:#000000;stroke-linejoin:miter;"/>
   </g>
   <g id="patch_8">
    <path d="M 278.272813 132.38 
L 278.272813 21.5 
" style="fill:none;stroke:#000000;stroke-linecap:square;stroke-linejoin:miter;"/>
   </g>
   <g id="patch_9">
    <path d="M 278.272813 132.38 
L 387.352813 132.38 
" style="fill:none;stroke:#000000;stroke-linecap:square;stroke-linejoin:miter;"/>
   </g>
   <g id="text_20">
    <!-- vaccine -->
    <g style="fill:#1a1a1a;" transform="translate(315.955313 16.77825)scale(0.088 -0.088)">
     <use xlink:href="#DejaVuSans-118"/>
     <use x="59.179688" xlink:href="#DejaVuSans-97"/>
     <use x="120.458984" xlink:href="#DejaVuSans-99"/>
     <use x="175.439453" xlink:href="#DejaVuSans-99"/>
     <use x="230.419922" xlink:href="#DejaVuSans-105"/>
     <use x="258.203125" xlink:href="#DejaVuSans-110"/>
     <use x="321.582031" xlink:href="#DejaVuSans-101"/>
    </g>
   </g>
  </g>
 </g>
 <defs>
  <clipPath id="p759ce8d402">
   <rect height="110.88" width="109.08" x="164.152813" y="21.5"/>
  </clipPath>
  <clipPath id="p1173fccfb2">
   <rect height="110.88" width="109.08" x="278.272813" y="21.5"/>
  </clipPath>
 </defs>
</svg>
