<?xml version="1.0" encoding="utf-8" standalone="no"?>
<!DOCTYPE svg PUBLIC "-//W3C//DTD SVG 1.1//EN"
  "http://www.w3.org/Graphics/SVG/1.1/DTD/svg11.dtd">
<!-- Created with matplotlib (https://matplotlib.org/) -->
<svg height="171.079875pt" version="1.1" viewBox="0 0 394.552813 171.079875" width="394.552813pt" xmlns="http://www.w3.org/2000/svg" xmlns:xlink="http://www.w3.org/1999/xlink">
 <defs>
  <style type="text/css">
*{stroke-linecap:butt;stroke-linejoin:round;}
  </style>
 </defs>
 <g id="figure_1">
  <g id="patch_1">
   <path d="M 0 171.079875 
L 394.552813 171.079875 
L 394.552813 0 
L 0 0 
z
" style="fill:#ffffff;stroke:#ffffff;stroke-linejoin:miter;"/>
  </g>
  <g id="axes_1">
   <g id="patch_2">
    <path d="M 164.152813 132.38 
L 273.232813 132.38 
L 273.232813 21.5 
L 164.152813 21.5 
z
" style="fill:#ffffff;"/>
   </g>
   <g id="matplotlib.axis_1">
    <g id="xtick_1">
     <g id="line2d_1">
      <path d="M 164.739403 132.38 
" style="fill:none;stroke:#333333;stroke-width:1.5;"/>
      <defs>
       <path d="M 0 0 
L 0 2.75 
" id="meb0c1d65fa" style="stroke:#333333;"/>
      </defs>
      <g>
       <use style="fill:#333333;stroke:#333333;" x="164.739403" xlink:href="#meb0c1d65fa" y="132.38"/>
      </g>
     </g>
     <g id="text_1">
      <!-- 6 -->
      <defs>
       <path d="M 33.015625 40.375 
Q 26.375 40.375 22.484375 35.828125 
Q 18.609375 31.296875 18.609375 23.390625 
Q 18.609375 15.53125 22.484375 10.953125 
Q 26.375 6.390625 33.015625 6.390625 
Q 39.65625 6.390625 43.53125 10.953125 
Q 47.40625 15.53125 47.40625 23.390625 
Q 47.40625 31.296875 43.53125 35.828125 
Q 39.65625 40.375 33.015625 40.375 
z
M 52.59375 71.296875 
L 52.59375 62.3125 
Q 48.875 64.0625 45.09375 64.984375 
Q 41.3125 65.921875 37.59375 65.921875 
Q 27.828125 65.921875 22.671875 59.328125 
Q 17.53125 52.734375 16.796875 39.40625 
Q 19.671875 43.65625 24.015625 45.921875 
Q 28.375 48.1875 33.59375 48.1875 
Q 44.578125 48.1875 50.953125 41.515625 
Q 57.328125 34.859375 57.328125 23.390625 
Q 57.328125 12.15625 50.6875 5.359375 
Q 44.046875 -1.421875 33.015625 -1.421875 
Q 20.359375 -1.421875 13.671875 8.265625 
Q 6.984375 17.96875 6.984375 36.375 
Q 6.984375 53.65625 15.1875 63.9375 
Q 23.390625 74.21875 37.203125 74.21875 
Q 40.921875 74.21875 44.703125 73.484375 
Q 48.484375 72.75 52.59375 71.296875 
z
" id="DejaVuSans-54"/>
      </defs>
      <g style="fill:#4d4d4d;" transform="translate(167.167653 142.929)rotate(-90)scale(0.088 -0.088)">
       <use xlink:href="#DejaVuSans-54"/>
      </g>
     </g>
    </g>
    <g id="xtick_2">
     <g id="line2d_2">
      <path d="M 188.252446 132.38 
" style="fill:none;stroke:#333333;stroke-width:1.5;"/>
      <g>
       <use style="fill:#333333;stroke:#333333;" x="188.252446" xlink:href="#meb0c1d65fa" y="132.38"/>
      </g>
     </g>
     <g id="text_2">
      <!-- 7 -->
      <defs>
       <path d="M 8.203125 72.90625 
L 55.078125 72.90625 
L 55.078125 68.703125 
L 28.609375 0 
L 18.3125 0 
L 43.21875 64.59375 
L 8.203125 64.59375 
z
" id="DejaVuSans-55"/>
      </defs>
      <g style="fill:#4d4d4d;" transform="translate(190.680696 142.929)rotate(-90)scale(0.088 -0.088)">
       <use xlink:href="#DejaVuSans-55"/>
      </g>
     </g>
    </g>
    <g id="xtick_3">
     <g id="line2d_3">
      <path d="M 211.76549 132.38 
" style="fill:none;stroke:#333333;stroke-width:1.5;"/>
      <g>
       <use style="fill:#333333;stroke:#333333;" x="211.76549" xlink:href="#meb0c1d65fa" y="132.38"/>
      </g>
     </g>
     <g id="text_3">
      <!-- 8 -->
      <defs>
       <path d="M 31.78125 34.625 
Q 24.75 34.625 20.71875 30.859375 
Q 16.703125 27.09375 16.703125 20.515625 
Q 16.703125 13.921875 20.71875 10.15625 
Q 24.75 6.390625 31.78125 6.390625 
Q 38.8125 6.390625 42.859375 10.171875 
Q 46.921875 13.96875 46.921875 20.515625 
Q 46.921875 27.09375 42.890625 30.859375 
Q 38.875 34.625 31.78125 34.625 
z
M 21.921875 38.8125 
Q 15.578125 40.375 12.03125 44.71875 
Q 8.5 49.078125 8.5 55.328125 
Q 8.5 64.0625 14.71875 69.140625 
Q 20.953125 74.21875 31.78125 74.21875 
Q 42.671875 74.21875 48.875 69.140625 
Q 55.078125 64.0625 55.078125 55.328125 
Q 55.078125 49.078125 51.53125 44.71875 
Q 48 40.375 41.703125 38.8125 
Q 48.828125 37.15625 52.796875 32.3125 
Q 56.78125 27.484375 56.78125 20.515625 
Q 56.78125 9.90625 50.3125 4.234375 
Q 43.84375 -1.421875 31.78125 -1.421875 
Q 19.734375 -1.421875 13.25 4.234375 
Q 6.78125 9.90625 6.78125 20.515625 
Q 6.78125 27.484375 10.78125 32.3125 
Q 14.796875 37.15625 21.921875 38.8125 
z
M 18.3125 54.390625 
Q 18.3125 48.734375 21.84375 45.5625 
Q 25.390625 42.390625 31.78125 42.390625 
Q 38.140625 42.390625 41.71875 45.5625 
Q 45.3125 48.734375 45.3125 54.390625 
Q 45.3125 60.0625 41.71875 63.234375 
Q 38.140625 66.40625 31.78125 66.40625 
Q 25.390625 66.40625 21.84375 63.234375 
Q 18.3125 60.0625 18.3125 54.390625 
z
" id="DejaVuSans-56"/>
      </defs>
      <g style="fill:#4d4d4d;" transform="translate(214.19374 142.929)rotate(-90)scale(0.088 -0.088)">
       <use xlink:href="#DejaVuSans-56"/>
      </g>
     </g>
    </g>
    <g id="xtick_4">
     <g id="line2d_4">
      <path d="M 235.278533 132.38 
" style="fill:none;stroke:#333333;stroke-width:1.5;"/>
      <g>
       <use style="fill:#333333;stroke:#333333;" x="235.278533" xlink:href="#meb0c1d65fa" y="132.38"/>
      </g>
     </g>
     <g id="text_4">
      <!-- 9 -->
      <defs>
       <path d="M 10.984375 1.515625 
L 10.984375 10.5 
Q 14.703125 8.734375 18.5 7.8125 
Q 22.3125 6.890625 25.984375 6.890625 
Q 35.75 6.890625 40.890625 13.453125 
Q 46.046875 20.015625 46.78125 33.40625 
Q 43.953125 29.203125 39.59375 26.953125 
Q 35.25 24.703125 29.984375 24.703125 
Q 19.046875 24.703125 12.671875 31.3125 
Q 6.296875 37.9375 6.296875 49.421875 
Q 6.296875 60.640625 12.9375 67.421875 
Q 19.578125 74.21875 30.609375 74.21875 
Q 43.265625 74.21875 49.921875 64.515625 
Q 56.59375 54.828125 56.59375 36.375 
Q 56.59375 19.140625 48.40625 8.859375 
Q 40.234375 -1.421875 26.421875 -1.421875 
Q 22.703125 -1.421875 18.890625 -0.6875 
Q 15.09375 0.046875 10.984375 1.515625 
z
M 30.609375 32.421875 
Q 37.25 32.421875 41.125 36.953125 
Q 45.015625 41.5 45.015625 49.421875 
Q 45.015625 57.28125 41.125 61.84375 
Q 37.25 66.40625 30.609375 66.40625 
Q 23.96875 66.40625 20.09375 61.84375 
Q 16.21875 57.28125 16.21875 49.421875 
Q 16.21875 41.5 20.09375 36.953125 
Q 23.96875 32.421875 30.609375 32.421875 
z
" id="DejaVuSans-57"/>
      </defs>
      <g style="fill:#4d4d4d;" transform="translate(237.706783 142.929)rotate(-90)scale(0.088 -0.088)">
       <use xlink:href="#DejaVuSans-57"/>
      </g>
     </g>
    </g>
    <g id="xtick_5">
     <g id="line2d_5">
      <path d="M 258.791577 132.38 
" style="fill:none;stroke:#333333;stroke-width:1.5;"/>
      <g>
       <use style="fill:#333333;stroke:#333333;" x="258.791577" xlink:href="#meb0c1d65fa" y="132.38"/>
      </g>
     </g>
     <g id="text_5">
      <!-- 10 -->
      <defs>
       <path d="M 12.40625 8.296875 
L 28.515625 8.296875 
L 28.515625 63.921875 
L 10.984375 60.40625 
L 10.984375 69.390625 
L 28.421875 72.90625 
L 38.28125 72.90625 
L 38.28125 8.296875 
L 54.390625 8.296875 
L 54.390625 0 
L 12.40625 0 
z
" id="DejaVuSans-49"/>
       <path d="M 31.78125 66.40625 
Q 24.171875 66.40625 20.328125 58.90625 
Q 16.5 51.421875 16.5 36.375 
Q 16.5 21.390625 20.328125 13.890625 
Q 24.171875 6.390625 31.78125 6.390625 
Q 39.453125 6.390625 43.28125 13.890625 
Q 47.125 21.390625 47.125 36.375 
Q 47.125 51.421875 43.28125 58.90625 
Q 39.453125 66.40625 31.78125 66.40625 
z
M 31.78125 74.21875 
Q 44.046875 74.21875 50.515625 64.515625 
Q 56.984375 54.828125 56.984375 36.375 
Q 56.984375 17.96875 50.515625 8.265625 
Q 44.046875 -1.421875 31.78125 -1.421875 
Q 19.53125 -1.421875 13.0625 8.265625 
Q 6.59375 17.96875 6.59375 36.375 
Q 6.59375 54.828125 13.0625 64.515625 
Q 19.53125 74.21875 31.78125 74.21875 
z
" id="DejaVuSans-48"/>
      </defs>
      <g style="fill:#4d4d4d;" transform="translate(261.219827 148.528)rotate(-90)scale(0.088 -0.088)">
       <use xlink:href="#DejaVuSans-49"/>
       <use x="63.623047" xlink:href="#DejaVuSans-48"/>
      </g>
     </g>
    </g>
    <g id="xtick_6"/>
    <g id="xtick_7"/>
    <g id="xtick_8"/>
    <g id="xtick_9"/>
    <g id="xtick_10"/>
   </g>
   <g id="matplotlib.axis_2">
    <g id="ytick_1">
     <g id="line2d_6">
      <path d="M 164.152813 124.266829 
" style="fill:none;stroke:#333333;stroke-width:1.5;"/>
      <defs>
       <path d="M 0 0 
L -2.75 0 
" id="m9a7ff48ce5" style="stroke:#333333;"/>
      </defs>
      <g>
       <use style="fill:#333333;stroke:#333333;" x="164.152813" xlink:href="#m9a7ff48ce5" y="124.266829"/>
      </g>
     </g>
     <g id="text_6">
      <!-- 456-484 -->
      <defs>
       <path d="M 37.796875 64.3125 
L 12.890625 25.390625 
L 37.796875 25.390625 
z
M 35.203125 72.90625 
L 47.609375 72.90625 
L 47.609375 25.390625 
L 58.015625 25.390625 
L 58.015625 17.1875 
L 47.609375 17.1875 
L 47.609375 0 
L 37.796875 0 
L 37.796875 17.1875 
L 4.890625 17.1875 
L 4.890625 26.703125 
z
" id="DejaVuSans-52"/>
       <path d="M 10.796875 72.90625 
L 49.515625 72.90625 
L 49.515625 64.59375 
L 19.828125 64.59375 
L 19.828125 46.734375 
Q 21.96875 47.46875 24.109375 47.828125 
Q 26.265625 48.1875 28.421875 48.1875 
Q 40.625 48.1875 47.75 41.5 
Q 54.890625 34.8125 54.890625 23.390625 
Q 54.890625 11.625 47.5625 5.09375 
Q 40.234375 -1.421875 26.90625 -1.421875 
Q 22.3125 -1.421875 17.546875 -0.640625 
Q 12.796875 0.140625 7.71875 1.703125 
L 7.71875 11.625 
Q 12.109375 9.234375 16.796875 8.0625 
Q 21.484375 6.890625 26.703125 6.890625 
Q 35.15625 6.890625 40.078125 11.328125 
Q 45.015625 15.765625 45.015625 23.390625 
Q 45.015625 31 40.078125 35.4375 
Q 35.15625 39.890625 26.703125 39.890625 
Q 22.75 39.890625 18.8125 39.015625 
Q 14.890625 38.140625 10.796875 36.28125 
z
" id="DejaVuSans-53"/>
       <path d="M 4.890625 31.390625 
L 31.203125 31.390625 
L 31.203125 23.390625 
L 4.890625 23.390625 
z
" id="DejaVuSans-45"/>
      </defs>
      <g style="fill:#4d4d4d;" transform="translate(122.433938 126.695079)scale(0.088 -0.088)">
       <use xlink:href="#DejaVuSans-52"/>
       <use x="63.623047" xlink:href="#DejaVuSans-53"/>
       <use x="127.246094" xlink:href="#DejaVuSans-54"/>
       <use x="190.869141" xlink:href="#DejaVuSans-45"/>
       <use x="226.953125" xlink:href="#DejaVuSans-52"/>
       <use x="290.576172" xlink:href="#DejaVuSans-56"/>
       <use x="354.199219" xlink:href="#DejaVuSans-52"/>
      </g>
     </g>
    </g>
    <g id="ytick_2">
     <g id="line2d_7">
      <path d="M 164.152813 110.744878 
" style="fill:none;stroke:#333333;stroke-width:1.5;"/>
      <g>
       <use style="fill:#333333;stroke:#333333;" x="164.152813" xlink:href="#m9a7ff48ce5" y="110.744878"/>
      </g>
     </g>
     <g id="text_7">
      <!-- 456-484 low magnitude -->
      <defs>
       <path id="DejaVuSans-32"/>
       <path d="M 9.421875 75.984375 
L 18.40625 75.984375 
L 18.40625 0 
L 9.421875 0 
z
" id="DejaVuSans-108"/>
       <path d="M 30.609375 48.390625 
Q 23.390625 48.390625 19.1875 42.75 
Q 14.984375 37.109375 14.984375 27.296875 
Q 14.984375 17.484375 19.15625 11.84375 
Q 23.34375 6.203125 30.609375 6.203125 
Q 37.796875 6.203125 41.984375 11.859375 
Q 46.1875 17.53125 46.1875 27.296875 
Q 46.1875 37.015625 41.984375 42.703125 
Q 37.796875 48.390625 30.609375 48.390625 
z
M 30.609375 56 
Q 42.328125 56 49.015625 48.375 
Q 55.71875 40.765625 55.71875 27.296875 
Q 55.71875 13.875 49.015625 6.21875 
Q 42.328125 -1.421875 30.609375 -1.421875 
Q 18.84375 -1.421875 12.171875 6.21875 
Q 5.515625 13.875 5.515625 27.296875 
Q 5.515625 40.765625 12.171875 48.375 
Q 18.84375 56 30.609375 56 
z
" id="DejaVuSans-111"/>
       <path d="M 4.203125 54.6875 
L 13.1875 54.6875 
L 24.421875 12.015625 
L 35.59375 54.6875 
L 46.1875 54.6875 
L 57.421875 12.015625 
L 68.609375 54.6875 
L 77.59375 54.6875 
L 63.28125 0 
L 52.6875 0 
L 40.921875 44.828125 
L 29.109375 0 
L 18.5 0 
z
" id="DejaVuSans-119"/>
       <path d="M 52 44.1875 
Q 55.375 50.25 60.0625 53.125 
Q 64.75 56 71.09375 56 
Q 79.640625 56 84.28125 50.015625 
Q 88.921875 44.046875 88.921875 33.015625 
L 88.921875 0 
L 79.890625 0 
L 79.890625 32.71875 
Q 79.890625 40.578125 77.09375 44.375 
Q 74.3125 48.1875 68.609375 48.1875 
Q 61.625 48.1875 57.5625 43.546875 
Q 53.515625 38.921875 53.515625 30.90625 
L 53.515625 0 
L 44.484375 0 
L 44.484375 32.71875 
Q 44.484375 40.625 41.703125 44.40625 
Q 38.921875 48.1875 33.109375 48.1875 
Q 26.21875 48.1875 22.15625 43.53125 
Q 18.109375 38.875 18.109375 30.90625 
L 18.109375 0 
L 9.078125 0 
L 9.078125 54.6875 
L 18.109375 54.6875 
L 18.109375 46.1875 
Q 21.1875 51.21875 25.484375 53.609375 
Q 29.78125 56 35.6875 56 
Q 41.65625 56 45.828125 52.96875 
Q 50 49.953125 52 44.1875 
z
" id="DejaVuSans-109"/>
       <path d="M 34.28125 27.484375 
Q 23.390625 27.484375 19.1875 25 
Q 14.984375 22.515625 14.984375 16.5 
Q 14.984375 11.71875 18.140625 8.90625 
Q 21.296875 6.109375 26.703125 6.109375 
Q 34.1875 6.109375 38.703125 11.40625 
Q 43.21875 16.703125 43.21875 25.484375 
L 43.21875 27.484375 
z
M 52.203125 31.203125 
L 52.203125 0 
L 43.21875 0 
L 43.21875 8.296875 
Q 40.140625 3.328125 35.546875 0.953125 
Q 30.953125 -1.421875 24.3125 -1.421875 
Q 15.921875 -1.421875 10.953125 3.296875 
Q 6 8.015625 6 15.921875 
Q 6 25.140625 12.171875 29.828125 
Q 18.359375 34.515625 30.609375 34.515625 
L 43.21875 34.515625 
L 43.21875 35.40625 
Q 43.21875 41.609375 39.140625 45 
Q 35.0625 48.390625 27.6875 48.390625 
Q 23 48.390625 18.546875 47.265625 
Q 14.109375 46.140625 10.015625 43.890625 
L 10.015625 52.203125 
Q 14.9375 54.109375 19.578125 55.046875 
Q 24.21875 56 28.609375 56 
Q 40.484375 56 46.34375 49.84375 
Q 52.203125 43.703125 52.203125 31.203125 
z
" id="DejaVuSans-97"/>
       <path d="M 45.40625 27.984375 
Q 45.40625 37.75 41.375 43.109375 
Q 37.359375 48.484375 30.078125 48.484375 
Q 22.859375 48.484375 18.828125 43.109375 
Q 14.796875 37.75 14.796875 27.984375 
Q 14.796875 18.265625 18.828125 12.890625 
Q 22.859375 7.515625 30.078125 7.515625 
Q 37.359375 7.515625 41.375 12.890625 
Q 45.40625 18.265625 45.40625 27.984375 
z
M 54.390625 6.78125 
Q 54.390625 -7.171875 48.1875 -13.984375 
Q 42 -20.796875 29.203125 -20.796875 
Q 24.46875 -20.796875 20.265625 -20.09375 
Q 16.0625 -19.390625 12.109375 -17.921875 
L 12.109375 -9.1875 
Q 16.0625 -11.328125 19.921875 -12.34375 
Q 23.78125 -13.375 27.78125 -13.375 
Q 36.625 -13.375 41.015625 -8.765625 
Q 45.40625 -4.15625 45.40625 5.171875 
L 45.40625 9.625 
Q 42.625 4.78125 38.28125 2.390625 
Q 33.9375 0 27.875 0 
Q 17.828125 0 11.671875 7.65625 
Q 5.515625 15.328125 5.515625 27.984375 
Q 5.515625 40.671875 11.671875 48.328125 
Q 17.828125 56 27.875 56 
Q 33.9375 56 38.28125 53.609375 
Q 42.625 51.21875 45.40625 46.390625 
L 45.40625 54.6875 
L 54.390625 54.6875 
z
" id="DejaVuSans-103"/>
       <path d="M 54.890625 33.015625 
L 54.890625 0 
L 45.90625 0 
L 45.90625 32.71875 
Q 45.90625 40.484375 42.875 44.328125 
Q 39.84375 48.1875 33.796875 48.1875 
Q 26.515625 48.1875 22.3125 43.546875 
Q 18.109375 38.921875 18.109375 30.90625 
L 18.109375 0 
L 9.078125 0 
L 9.078125 54.6875 
L 18.109375 54.6875 
L 18.109375 46.1875 
Q 21.34375 51.125 25.703125 53.5625 
Q 30.078125 56 35.796875 56 
Q 45.21875 56 50.046875 50.171875 
Q 54.890625 44.34375 54.890625 33.015625 
z
" id="DejaVuSans-110"/>
       <path d="M 9.421875 54.6875 
L 18.40625 54.6875 
L 18.40625 0 
L 9.421875 0 
z
M 9.421875 75.984375 
L 18.40625 75.984375 
L 18.40625 64.59375 
L 9.421875 64.59375 
z
" id="DejaVuSans-105"/>
       <path d="M 18.3125 70.21875 
L 18.3125 54.6875 
L 36.8125 54.6875 
L 36.8125 47.703125 
L 18.3125 47.703125 
L 18.3125 18.015625 
Q 18.3125 11.328125 20.140625 9.421875 
Q 21.96875 7.515625 27.59375 7.515625 
L 36.8125 7.515625 
L 36.8125 0 
L 27.59375 0 
Q 17.1875 0 13.234375 3.875 
Q 9.28125 7.765625 9.28125 18.015625 
L 9.28125 47.703125 
L 2.6875 47.703125 
L 2.6875 54.6875 
L 9.28125 54.6875 
L 9.28125 70.21875 
z
" id="DejaVuSans-116"/>
       <path d="M 8.5 21.578125 
L 8.5 54.6875 
L 17.484375 54.6875 
L 17.484375 21.921875 
Q 17.484375 14.15625 20.5 10.265625 
Q 23.53125 6.390625 29.59375 6.390625 
Q 36.859375 6.390625 41.078125 11.03125 
Q 45.3125 15.671875 45.3125 23.6875 
L 45.3125 54.6875 
L 54.296875 54.6875 
L 54.296875 0 
L 45.3125 0 
L 45.3125 8.40625 
Q 42.046875 3.421875 37.71875 1 
Q 33.40625 -1.421875 27.6875 -1.421875 
Q 18.265625 -1.421875 13.375 4.4375 
Q 8.5 10.296875 8.5 21.578125 
z
M 31.109375 56 
z
" id="DejaVuSans-117"/>
       <path d="M 45.40625 46.390625 
L 45.40625 75.984375 
L 54.390625 75.984375 
L 54.390625 0 
L 45.40625 0 
L 45.40625 8.203125 
Q 42.578125 3.328125 38.25 0.953125 
Q 33.9375 -1.421875 27.875 -1.421875 
Q 17.96875 -1.421875 11.734375 6.484375 
Q 5.515625 14.40625 5.515625 27.296875 
Q 5.515625 40.1875 11.734375 48.09375 
Q 17.96875 56 27.875 56 
Q 33.9375 56 38.25 53.625 
Q 42.578125 51.265625 45.40625 46.390625 
z
M 14.796875 27.296875 
Q 14.796875 17.390625 18.875 11.75 
Q 22.953125 6.109375 30.078125 6.109375 
Q 37.203125 6.109375 41.296875 11.75 
Q 45.40625 17.390625 45.40625 27.296875 
Q 45.40625 37.203125 41.296875 42.84375 
Q 37.203125 48.484375 30.078125 48.484375 
Q 22.953125 48.484375 18.875 42.84375 
Q 14.796875 37.203125 14.796875 27.296875 
z
" id="DejaVuSans-100"/>
       <path d="M 56.203125 29.59375 
L 56.203125 25.203125 
L 14.890625 25.203125 
Q 15.484375 15.921875 20.484375 11.0625 
Q 25.484375 6.203125 34.421875 6.203125 
Q 39.59375 6.203125 44.453125 7.46875 
Q 49.3125 8.734375 54.109375 11.28125 
L 54.109375 2.78125 
Q 49.265625 0.734375 44.1875 -0.34375 
Q 39.109375 -1.421875 33.890625 -1.421875 
Q 20.796875 -1.421875 13.15625 6.1875 
Q 5.515625 13.8125 5.515625 26.8125 
Q 5.515625 40.234375 12.765625 48.109375 
Q 20.015625 56 32.328125 56 
Q 43.359375 56 49.78125 48.890625 
Q 56.203125 41.796875 56.203125 29.59375 
z
M 47.21875 32.234375 
Q 47.125 39.59375 43.09375 43.984375 
Q 39.0625 48.390625 32.421875 48.390625 
Q 24.90625 48.390625 20.390625 44.140625 
Q 15.875 39.890625 15.1875 32.171875 
z
" id="DejaVuSans-101"/>
      </defs>
      <g style="fill:#4d4d4d;" transform="translate(54.213313 113.173128)scale(0.088 -0.088)">
       <use xlink:href="#DejaVuSans-52"/>
       <use x="63.623047" xlink:href="#DejaVuSans-53"/>
       <use x="127.246094" xlink:href="#DejaVuSans-54"/>
       <use x="190.869141" xlink:href="#DejaVuSans-45"/>
       <use x="226.953125" xlink:href="#DejaVuSans-52"/>
       <use x="290.576172" xlink:href="#DejaVuSans-56"/>
       <use x="354.199219" xlink:href="#DejaVuSans-52"/>
       <use x="417.822266" xlink:href="#DejaVuSans-32"/>
       <use x="449.609375" xlink:href="#DejaVuSans-108"/>
       <use x="477.392578" xlink:href="#DejaVuSans-111"/>
       <use x="538.574219" xlink:href="#DejaVuSans-119"/>
       <use x="620.361328" xlink:href="#DejaVuSans-32"/>
       <use x="652.148438" xlink:href="#DejaVuSans-109"/>
       <use x="749.560547" xlink:href="#DejaVuSans-97"/>
       <use x="810.839844" xlink:href="#DejaVuSans-103"/>
       <use x="874.316406" xlink:href="#DejaVuSans-110"/>
       <use x="937.695312" xlink:href="#DejaVuSans-105"/>
       <use x="965.478516" xlink:href="#DejaVuSans-116"/>
       <use x="1004.6875" xlink:href="#DejaVuSans-117"/>
       <use x="1068.066406" xlink:href="#DejaVuSans-100"/>
       <use x="1131.542969" xlink:href="#DejaVuSans-101"/>
      </g>
     </g>
    </g>
    <g id="ytick_3">
     <g id="line2d_8">
      <path d="M 164.152813 97.222927 
" style="fill:none;stroke:#333333;stroke-width:1.5;"/>
      <g>
       <use style="fill:#333333;stroke:#333333;" x="164.152813" xlink:href="#m9a7ff48ce5" y="97.222927"/>
      </g>
     </g>
     <g id="text_8">
      <!-- 456-484 noisy -->
      <defs>
       <path d="M 44.28125 53.078125 
L 44.28125 44.578125 
Q 40.484375 46.53125 36.375 47.5 
Q 32.28125 48.484375 27.875 48.484375 
Q 21.1875 48.484375 17.84375 46.4375 
Q 14.5 44.390625 14.5 40.28125 
Q 14.5 37.15625 16.890625 35.375 
Q 19.28125 33.59375 26.515625 31.984375 
L 29.59375 31.296875 
Q 39.15625 29.25 43.1875 25.515625 
Q 47.21875 21.78125 47.21875 15.09375 
Q 47.21875 7.46875 41.1875 3.015625 
Q 35.15625 -1.421875 24.609375 -1.421875 
Q 20.21875 -1.421875 15.453125 -0.5625 
Q 10.6875 0.296875 5.421875 2 
L 5.421875 11.28125 
Q 10.40625 8.6875 15.234375 7.390625 
Q 20.0625 6.109375 24.8125 6.109375 
Q 31.15625 6.109375 34.5625 8.28125 
Q 37.984375 10.453125 37.984375 14.40625 
Q 37.984375 18.0625 35.515625 20.015625 
Q 33.0625 21.96875 24.703125 23.78125 
L 21.578125 24.515625 
Q 13.234375 26.265625 9.515625 29.90625 
Q 5.8125 33.546875 5.8125 39.890625 
Q 5.8125 47.609375 11.28125 51.796875 
Q 16.75 56 26.8125 56 
Q 31.78125 56 36.171875 55.265625 
Q 40.578125 54.546875 44.28125 53.078125 
z
" id="DejaVuSans-115"/>
       <path d="M 32.171875 -5.078125 
Q 28.375 -14.84375 24.75 -17.8125 
Q 21.140625 -20.796875 15.09375 -20.796875 
L 7.90625 -20.796875 
L 7.90625 -13.28125 
L 13.1875 -13.28125 
Q 16.890625 -13.28125 18.9375 -11.515625 
Q 21 -9.765625 23.484375 -3.21875 
L 25.09375 0.875 
L 2.984375 54.6875 
L 12.5 54.6875 
L 29.59375 11.921875 
L 46.6875 54.6875 
L 56.203125 54.6875 
z
" id="DejaVuSans-121"/>
      </defs>
      <g style="fill:#4d4d4d;" transform="translate(96.438188 99.651177)scale(0.088 -0.088)">
       <use xlink:href="#DejaVuSans-52"/>
       <use x="63.623047" xlink:href="#DejaVuSans-53"/>
       <use x="127.246094" xlink:href="#DejaVuSans-54"/>
       <use x="190.869141" xlink:href="#DejaVuSans-45"/>
       <use x="226.953125" xlink:href="#DejaVuSans-52"/>
       <use x="290.576172" xlink:href="#DejaVuSans-56"/>
       <use x="354.199219" xlink:href="#DejaVuSans-52"/>
       <use x="417.822266" xlink:href="#DejaVuSans-32"/>
       <use x="449.609375" xlink:href="#DejaVuSans-110"/>
       <use x="512.988281" xlink:href="#DejaVuSans-111"/>
       <use x="574.169922" xlink:href="#DejaVuSans-105"/>
       <use x="601.953125" xlink:href="#DejaVuSans-115"/>
       <use x="654.052734" xlink:href="#DejaVuSans-121"/>
      </g>
     </g>
    </g>
    <g id="ytick_4">
     <g id="line2d_9">
      <path d="M 164.152813 83.700976 
" style="fill:none;stroke:#333333;stroke-width:1.5;"/>
      <g>
       <use style="fill:#333333;stroke:#333333;" x="164.152813" xlink:href="#m9a7ff48ce5" y="83.700976"/>
      </g>
     </g>
     <g id="text_9">
      <!-- 456-484 low magnitude - noisy -->
      <g style="fill:#4d4d4d;" transform="translate(22.245938 86.129226)scale(0.088 -0.088)">
       <use xlink:href="#DejaVuSans-52"/>
       <use x="63.623047" xlink:href="#DejaVuSans-53"/>
       <use x="127.246094" xlink:href="#DejaVuSans-54"/>
       <use x="190.869141" xlink:href="#DejaVuSans-45"/>
       <use x="226.953125" xlink:href="#DejaVuSans-52"/>
       <use x="290.576172" xlink:href="#DejaVuSans-56"/>
       <use x="354.199219" xlink:href="#DejaVuSans-52"/>
       <use x="417.822266" xlink:href="#DejaVuSans-32"/>
       <use x="449.609375" xlink:href="#DejaVuSans-108"/>
       <use x="477.392578" xlink:href="#DejaVuSans-111"/>
       <use x="538.574219" xlink:href="#DejaVuSans-119"/>
       <use x="620.361328" xlink:href="#DejaVuSans-32"/>
       <use x="652.148438" xlink:href="#DejaVuSans-109"/>
       <use x="749.560547" xlink:href="#DejaVuSans-97"/>
       <use x="810.839844" xlink:href="#DejaVuSans-103"/>
       <use x="874.316406" xlink:href="#DejaVuSans-110"/>
       <use x="937.695312" xlink:href="#DejaVuSans-105"/>
       <use x="965.478516" xlink:href="#DejaVuSans-116"/>
       <use x="1004.6875" xlink:href="#DejaVuSans-117"/>
       <use x="1068.066406" xlink:href="#DejaVuSans-100"/>
       <use x="1131.542969" xlink:href="#DejaVuSans-101"/>
       <use x="1193.066406" xlink:href="#DejaVuSans-32"/>
       <use x="1224.853516" xlink:href="#DejaVuSans-45"/>
       <use x="1260.9375" xlink:href="#DejaVuSans-32"/>
       <use x="1292.724609" xlink:href="#DejaVuSans-110"/>
       <use x="1356.103516" xlink:href="#DejaVuSans-111"/>
       <use x="1417.285156" xlink:href="#DejaVuSans-105"/>
       <use x="1445.068359" xlink:href="#DejaVuSans-115"/>
       <use x="1497.167969" xlink:href="#DejaVuSans-121"/>
      </g>
     </g>
    </g>
    <g id="ytick_5">
     <g id="line2d_10">
      <path d="M 164.152813 70.179024 
" style="fill:none;stroke:#333333;stroke-width:1.5;"/>
      <g>
       <use style="fill:#333333;stroke:#333333;" x="164.152813" xlink:href="#m9a7ff48ce5" y="70.179024"/>
      </g>
     </g>
     <g id="text_10">
      <!-- 443-450 -->
      <defs>
       <path d="M 40.578125 39.3125 
Q 47.65625 37.796875 51.625 33 
Q 55.609375 28.21875 55.609375 21.1875 
Q 55.609375 10.40625 48.1875 4.484375 
Q 40.765625 -1.421875 27.09375 -1.421875 
Q 22.515625 -1.421875 17.65625 -0.515625 
Q 12.796875 0.390625 7.625 2.203125 
L 7.625 11.71875 
Q 11.71875 9.328125 16.59375 8.109375 
Q 21.484375 6.890625 26.8125 6.890625 
Q 36.078125 6.890625 40.9375 10.546875 
Q 45.796875 14.203125 45.796875 21.1875 
Q 45.796875 27.640625 41.28125 31.265625 
Q 36.765625 34.90625 28.71875 34.90625 
L 20.21875 34.90625 
L 20.21875 43.015625 
L 29.109375 43.015625 
Q 36.375 43.015625 40.234375 45.921875 
Q 44.09375 48.828125 44.09375 54.296875 
Q 44.09375 59.90625 40.109375 62.90625 
Q 36.140625 65.921875 28.71875 65.921875 
Q 24.65625 65.921875 20.015625 65.03125 
Q 15.375 64.15625 9.8125 62.3125 
L 9.8125 71.09375 
Q 15.4375 72.65625 20.34375 73.4375 
Q 25.25 74.21875 29.59375 74.21875 
Q 40.828125 74.21875 47.359375 69.109375 
Q 53.90625 64.015625 53.90625 55.328125 
Q 53.90625 49.265625 50.4375 45.09375 
Q 46.96875 40.921875 40.578125 39.3125 
z
" id="DejaVuSans-51"/>
      </defs>
      <g style="fill:#4d4d4d;" transform="translate(122.433938 72.607274)scale(0.088 -0.088)">
       <use xlink:href="#DejaVuSans-52"/>
       <use x="63.623047" xlink:href="#DejaVuSans-52"/>
       <use x="127.246094" xlink:href="#DejaVuSans-51"/>
       <use x="190.869141" xlink:href="#DejaVuSans-45"/>
       <use x="226.953125" xlink:href="#DejaVuSans-52"/>
       <use x="290.576172" xlink:href="#DejaVuSans-53"/>
       <use x="354.199219" xlink:href="#DejaVuSans-48"/>
      </g>
     </g>
    </g>
    <g id="ytick_6">
     <g id="line2d_11">
      <path d="M 164.152813 56.657073 
" style="fill:none;stroke:#333333;stroke-width:1.5;"/>
      <g>
       <use style="fill:#333333;stroke:#333333;" x="164.152813" xlink:href="#m9a7ff48ce5" y="56.657073"/>
      </g>
     </g>
     <g id="text_11">
      <!-- core -->
      <defs>
       <path d="M 48.78125 52.59375 
L 48.78125 44.1875 
Q 44.96875 46.296875 41.140625 47.34375 
Q 37.3125 48.390625 33.40625 48.390625 
Q 24.65625 48.390625 19.8125 42.84375 
Q 14.984375 37.3125 14.984375 27.296875 
Q 14.984375 17.28125 19.8125 11.734375 
Q 24.65625 6.203125 33.40625 6.203125 
Q 37.3125 6.203125 41.140625 7.25 
Q 44.96875 8.296875 48.78125 10.40625 
L 48.78125 2.09375 
Q 45.015625 0.34375 40.984375 -0.53125 
Q 36.96875 -1.421875 32.421875 -1.421875 
Q 20.0625 -1.421875 12.78125 6.34375 
Q 5.515625 14.109375 5.515625 27.296875 
Q 5.515625 40.671875 12.859375 48.328125 
Q 20.21875 56 33.015625 56 
Q 37.15625 56 41.109375 55.140625 
Q 45.0625 54.296875 48.78125 52.59375 
z
" id="DejaVuSans-99"/>
       <path d="M 41.109375 46.296875 
Q 39.59375 47.171875 37.8125 47.578125 
Q 36.03125 48 33.890625 48 
Q 26.265625 48 22.1875 43.046875 
Q 18.109375 38.09375 18.109375 28.8125 
L 18.109375 0 
L 9.078125 0 
L 9.078125 54.6875 
L 18.109375 54.6875 
L 18.109375 46.1875 
Q 20.953125 51.171875 25.484375 53.578125 
Q 30.03125 56 36.53125 56 
Q 37.453125 56 38.578125 55.875 
Q 39.703125 55.765625 41.0625 55.515625 
z
" id="DejaVuSans-114"/>
      </defs>
      <g style="fill:#4d4d4d;" transform="translate(140.145313 59.085323)scale(0.088 -0.088)">
       <use xlink:href="#DejaVuSans-99"/>
       <use x="54.980469" xlink:href="#DejaVuSans-111"/>
       <use x="116.162109" xlink:href="#DejaVuSans-114"/>
       <use x="155.025391" xlink:href="#DejaVuSans-101"/>
      </g>
     </g>
    </g>
    <g id="ytick_7">
     <g id="line2d_12">
      <path d="M 164.152813 43.135122 
" style="fill:none;stroke:#333333;stroke-width:1.5;"/>
      <g>
       <use style="fill:#333333;stroke:#333333;" x="164.152813" xlink:href="#m9a7ff48ce5" y="43.135122"/>
      </g>
     </g>
     <g id="text_12">
      <!-- flat - noisy -->
      <defs>
       <path d="M 37.109375 75.984375 
L 37.109375 68.5 
L 28.515625 68.5 
Q 23.6875 68.5 21.796875 66.546875 
Q 19.921875 64.59375 19.921875 59.515625 
L 19.921875 54.6875 
L 34.71875 54.6875 
L 34.71875 47.703125 
L 19.921875 47.703125 
L 19.921875 0 
L 10.890625 0 
L 10.890625 47.703125 
L 2.296875 47.703125 
L 2.296875 54.6875 
L 10.890625 54.6875 
L 10.890625 58.5 
Q 10.890625 67.625 15.140625 71.796875 
Q 19.390625 75.984375 28.609375 75.984375 
z
" id="DejaVuSans-102"/>
      </defs>
      <g style="fill:#4d4d4d;" transform="translate(112.850188 45.563372)scale(0.088 -0.088)">
       <use xlink:href="#DejaVuSans-102"/>
       <use x="35.205078" xlink:href="#DejaVuSans-108"/>
       <use x="62.988281" xlink:href="#DejaVuSans-97"/>
       <use x="124.267578" xlink:href="#DejaVuSans-116"/>
       <use x="163.476562" xlink:href="#DejaVuSans-32"/>
       <use x="195.263672" xlink:href="#DejaVuSans-45"/>
       <use x="231.347656" xlink:href="#DejaVuSans-32"/>
       <use x="263.134766" xlink:href="#DejaVuSans-110"/>
       <use x="326.513672" xlink:href="#DejaVuSans-111"/>
       <use x="387.695312" xlink:href="#DejaVuSans-105"/>
       <use x="415.478516" xlink:href="#DejaVuSans-115"/>
       <use x="467.578125" xlink:href="#DejaVuSans-121"/>
      </g>
     </g>
    </g>
    <g id="ytick_8">
     <g id="line2d_13">
      <path d="M 164.152813 29.613171 
" style="fill:none;stroke:#333333;stroke-width:1.5;"/>
      <g>
       <use style="fill:#333333;stroke:#333333;" x="164.152813" xlink:href="#m9a7ff48ce5" y="29.613171"/>
      </g>
     </g>
     <g id="text_13">
      <!-- flat -->
      <g style="fill:#4d4d4d;" transform="translate(144.817563 32.041421)scale(0.088 -0.088)">
       <use xlink:href="#DejaVuSans-102"/>
       <use x="35.205078" xlink:href="#DejaVuSans-108"/>
       <use x="62.988281" xlink:href="#DejaVuSans-97"/>
       <use x="124.267578" xlink:href="#DejaVuSans-116"/>
      </g>
     </g>
    </g>
    <g id="text_14">
     <!-- escape map -->
     <defs>
      <path d="M 18.109375 8.203125 
L 18.109375 -20.796875 
L 9.078125 -20.796875 
L 9.078125 54.6875 
L 18.109375 54.6875 
L 18.109375 46.390625 
Q 20.953125 51.265625 25.265625 53.625 
Q 29.59375 56 35.59375 56 
Q 45.5625 56 51.78125 48.09375 
Q 58.015625 40.1875 58.015625 27.296875 
Q 58.015625 14.40625 51.78125 6.484375 
Q 45.5625 -1.421875 35.59375 -1.421875 
Q 29.59375 -1.421875 25.265625 0.953125 
Q 20.953125 3.328125 18.109375 8.203125 
z
M 48.6875 27.296875 
Q 48.6875 37.203125 44.609375 42.84375 
Q 40.53125 48.484375 33.40625 48.484375 
Q 26.265625 48.484375 22.1875 42.84375 
Q 18.109375 37.203125 18.109375 27.296875 
Q 18.109375 17.390625 22.1875 11.75 
Q 26.265625 6.109375 33.40625 6.109375 
Q 40.53125 6.109375 44.609375 11.75 
Q 48.6875 17.390625 48.6875 27.296875 
z
" id="DejaVuSans-112"/>
     </defs>
     <g transform="translate(15.558281 109.707266)rotate(-90)scale(0.11 -0.11)">
      <use xlink:href="#DejaVuSans-101"/>
      <use x="61.523438" xlink:href="#DejaVuSans-115"/>
      <use x="113.623047" xlink:href="#DejaVuSans-99"/>
      <use x="168.603516" xlink:href="#DejaVuSans-97"/>
      <use x="229.882812" xlink:href="#DejaVuSans-112"/>
      <use x="293.359375" xlink:href="#DejaVuSans-101"/>
      <use x="354.882812" xlink:href="#DejaVuSans-32"/>
      <use x="386.669922" xlink:href="#DejaVuSans-109"/>
      <use x="484.082031" xlink:href="#DejaVuSans-97"/>
      <use x="545.361328" xlink:href="#DejaVuSans-112"/>
     </g>
    </g>
   </g>
   <g id="PathCollection_1">
    <path clip-path="url(#p69021b9ccf)" d="M 264.626384 126.863566 
C 265.331474 126.863566 266.007781 126.583431 266.506355 126.084857 
C 267.004929 125.586282 267.285064 124.909976 267.285064 124.204885 
C 267.285064 123.499795 267.004929 122.823488 266.506355 122.324914 
C 266.007781 121.82634 265.331474 121.546205 264.626384 121.546205 
C 263.921293 121.546205 263.244987 121.82634 262.746412 122.324914 
C 262.247838 122.823488 261.967703 123.499795 261.967703 124.204885 
C 261.967703 124.909976 262.247838 125.586282 262.746412 126.084857 
C 263.244987 126.583431 263.921293 126.863566 264.626384 126.863566 
z
" style="fill-opacity:0.25098;stroke:#000000;stroke-opacity:0.25098;stroke-width:0.886227;"/>
    <path clip-path="url(#p69021b9ccf)" d="M 265.822605 128.085346 
C 266.527695 128.085346 267.204002 127.805211 267.702576 127.306637 
C 268.20115 126.808062 268.481286 126.131756 268.481286 125.426665 
C 268.481286 124.721575 268.20115 124.045268 267.702576 123.546694 
C 267.204002 123.04812 266.527695 122.767985 265.822605 122.767985 
C 265.117515 122.767985 264.441208 123.04812 263.942634 123.546694 
C 263.44406 124.045268 263.163924 124.721575 263.163924 125.426665 
C 263.163924 126.131756 263.44406 126.808062 263.942634 127.306637 
C 264.441208 127.805211 265.117515 128.085346 265.822605 128.085346 
z
" style="fill-opacity:0.25098;stroke:#000000;stroke-opacity:0.25098;stroke-width:0.886227;"/>
    <path clip-path="url(#p69021b9ccf)" d="M 233.774151 85.52492 
C 234.479241 85.52492 235.155548 85.244784 235.654122 84.74621 
C 236.152696 84.247636 236.432832 83.571329 236.432832 82.866239 
C 236.432832 82.161149 236.152696 81.484842 235.654122 80.986268 
C 235.155548 80.487694 234.479241 80.207558 233.774151 80.207558 
C 233.069061 80.207558 232.392754 80.487694 231.89418 80.986268 
C 231.395606 81.484842 231.11547 82.161149 231.11547 82.866239 
C 231.11547 83.571329 231.395606 84.247636 231.89418 84.74621 
C 232.392754 85.244784 233.069061 85.52492 233.774151 85.52492 
z
" style="fill-opacity:0.25098;stroke:#000000;stroke-opacity:0.25098;stroke-width:0.886227;"/>
    <path clip-path="url(#p69021b9ccf)" d="M 203.835754 128.347528 
C 204.540845 128.347528 205.217151 128.067392 205.715725 127.568818 
C 206.2143 127.070244 206.494435 126.393937 206.494435 125.688847 
C 206.494435 124.983757 206.2143 124.30745 205.715725 123.808876 
C 205.217151 123.310301 204.540845 123.030166 203.835754 123.030166 
C 203.130664 123.030166 202.454357 123.310301 201.955783 123.808876 
C 201.457209 124.30745 201.177074 124.983757 201.177074 125.688847 
C 201.177074 126.393937 201.457209 127.070244 201.955783 127.568818 
C 202.454357 128.067392 203.130664 128.347528 203.835754 128.347528 
z
" style="fill-opacity:0.25098;stroke:#000000;stroke-opacity:0.25098;stroke-width:0.886227;"/>
    <path clip-path="url(#p69021b9ccf)" d="M 200.741327 98.629567 
C 201.446418 98.629567 202.122724 98.349432 202.621298 97.850858 
C 203.119873 97.352284 203.400008 96.675977 203.400008 95.970887 
C 203.400008 95.265796 203.119873 94.58949 202.621298 94.090915 
C 202.122724 93.592341 201.446418 93.312206 200.741327 93.312206 
C 200.036237 93.312206 199.35993 93.592341 198.861356 94.090915 
C 198.362782 94.58949 198.082646 95.265796 198.082646 95.970887 
C 198.082646 96.675977 198.362782 97.352284 198.861356 97.850858 
C 199.35993 98.349432 200.036237 98.629567 200.741327 98.629567 
z
" style="fill-opacity:0.25098;stroke:#000000;stroke-opacity:0.25098;stroke-width:0.886227;"/>
    <path clip-path="url(#p69021b9ccf)" d="M 205.741717 128.250923 
C 206.446807 128.250923 207.123114 127.970787 207.621688 127.472213 
C 208.120262 126.973639 208.400397 126.297332 208.400397 125.592242 
C 208.400397 124.887152 208.120262 124.210845 207.621688 123.712271 
C 207.123114 123.213697 206.446807 122.933561 205.741717 122.933561 
C 205.036626 122.933561 204.36032 123.213697 203.861745 123.712271 
C 203.363171 124.210845 203.083036 124.887152 203.083036 125.592242 
C 203.083036 126.297332 203.363171 126.973639 203.861745 127.472213 
C 204.36032 127.970787 205.036626 128.250923 205.741717 128.250923 
z
" style="fill-opacity:0.25098;stroke:#000000;stroke-opacity:0.25098;stroke-width:0.886227;"/>
    <path clip-path="url(#p69021b9ccf)" d="M 206.050185 126.211435 
C 206.755276 126.211435 207.431582 125.931299 207.930157 125.432725 
C 208.428731 124.934151 208.708866 124.257844 208.708866 123.552754 
C 208.708866 122.847663 208.428731 122.171357 207.930157 121.672783 
C 207.431582 121.174208 206.755276 120.894073 206.050185 120.894073 
C 205.345095 120.894073 204.668788 121.174208 204.170214 121.672783 
C 203.67164 122.171357 203.391505 122.847663 203.391505 123.552754 
C 203.391505 124.257844 203.67164 124.934151 204.170214 125.432725 
C 204.668788 125.931299 205.345095 126.211435 206.050185 126.211435 
z
" style="fill-opacity:0.25098;stroke:#000000;stroke-opacity:0.25098;stroke-width:0.886227;"/>
    <path clip-path="url(#p69021b9ccf)" d="M 230.98939 128.44668 
C 231.694481 128.44668 232.370787 128.166545 232.869361 127.667971 
C 233.367936 127.169397 233.648071 126.49309 233.648071 125.788 
C 233.648071 125.082909 233.367936 124.406603 232.869361 123.908028 
C 232.370787 123.409454 231.694481 123.129319 230.98939 123.129319 
C 230.2843 123.129319 229.607993 123.409454 229.109419 123.908028 
C 228.610845 124.406603 228.330709 125.082909 228.330709 125.788 
C 228.330709 126.49309 228.610845 127.169397 229.109419 127.667971 
C 229.607993 128.166545 230.2843 128.44668 230.98939 128.44668 
z
" style="fill-opacity:0.25098;stroke:#000000;stroke-opacity:0.25098;stroke-width:0.886227;"/>
    <path clip-path="url(#p69021b9ccf)" d="M 236.852347 30.799715 
C 237.557438 30.799715 238.233744 30.51958 238.732319 30.021006 
C 239.230893 29.522431 239.511028 28.846125 239.511028 28.141034 
C 239.511028 27.435944 239.230893 26.759637 238.732319 26.261063 
C 238.233744 25.762489 237.557438 25.482354 236.852347 25.482354 
C 236.147257 25.482354 235.47095 25.762489 234.972376 26.261063 
C 234.473802 26.759637 234.193667 27.435944 234.193667 28.141034 
C 234.193667 28.846125 234.473802 29.522431 234.972376 30.021006 
C 235.47095 30.51958 236.147257 30.799715 236.852347 30.799715 
z
" style="fill-opacity:0.25098;stroke:#000000;stroke-opacity:0.25098;stroke-width:0.886227;"/>
    <path clip-path="url(#p69021b9ccf)" d="M 206.112604 125.750056 
C 206.817694 125.750056 207.494001 125.469921 207.992575 124.971347 
C 208.491149 124.472772 208.771284 123.796466 208.771284 123.091375 
C 208.771284 122.386285 208.491149 121.709978 207.992575 121.211404 
C 207.494001 120.71283 206.817694 120.432695 206.112604 120.432695 
C 205.407513 120.432695 204.731207 120.71283 204.232632 121.211404 
C 203.734058 121.709978 203.453923 122.386285 203.453923 123.091375 
C 203.453923 123.796466 203.734058 124.472772 204.232632 124.971347 
C 204.731207 125.469921 205.407513 125.750056 206.112604 125.750056 
z
" style="fill-opacity:0.25098;stroke:#000000;stroke-opacity:0.25098;stroke-width:0.886227;"/>
    <path clip-path="url(#p69021b9ccf)" d="M 201.085758 127.48637 
C 201.790849 127.48637 202.467155 127.206235 202.96573 126.70766 
C 203.464304 126.209086 203.744439 125.53278 203.744439 124.827689 
C 203.744439 124.122599 203.464304 123.446292 202.96573 122.947718 
C 202.467155 122.449144 201.790849 122.169008 201.085758 122.169008 
C 200.380668 122.169008 199.704361 122.449144 199.205787 122.947718 
C 198.707213 123.446292 198.427078 124.122599 198.427078 124.827689 
C 198.427078 125.53278 198.707213 126.209086 199.205787 126.70766 
C 199.704361 127.206235 200.380668 127.48637 201.085758 127.48637 
z
" style="fill-opacity:0.25098;stroke:#000000;stroke-opacity:0.25098;stroke-width:0.886227;"/>
    <path clip-path="url(#p69021b9ccf)" d="M 206.733542 126.280408 
C 207.438633 126.280408 208.114939 126.000272 208.613514 125.501698 
C 209.112088 125.003124 209.392223 124.326817 209.392223 123.621727 
C 209.392223 122.916636 209.112088 122.24033 208.613514 121.741756 
C 208.114939 121.243181 207.438633 120.963046 206.733542 120.963046 
C 206.028452 120.963046 205.352145 121.243181 204.853571 121.741756 
C 204.354997 122.24033 204.074862 122.916636 204.074862 123.621727 
C 204.074862 124.326817 204.354997 125.003124 204.853571 125.501698 
C 205.352145 126.000272 206.028452 126.280408 206.733542 126.280408 
z
" style="fill-opacity:0.25098;stroke:#000000;stroke-opacity:0.25098;stroke-width:0.886227;"/>
    <path clip-path="url(#p69021b9ccf)" d="M 169.110994 71.748182 
C 169.816085 71.748182 170.492391 71.468046 170.990966 70.969472 
C 171.48954 70.470898 171.769675 69.794591 171.769675 69.089501 
C 171.769675 68.384411 171.48954 67.708104 170.990966 67.20953 
C 170.492391 66.710956 169.816085 66.43082 169.110994 66.43082 
C 168.405904 66.43082 167.729597 66.710956 167.231023 67.20953 
C 166.732449 67.708104 166.452314 68.384411 166.452314 69.089501 
C 166.452314 69.794591 166.732449 70.470898 167.231023 70.969472 
C 167.729597 71.468046 168.405904 71.748182 169.110994 71.748182 
z
" style="fill-opacity:0.25098;stroke:#000000;stroke-opacity:0.25098;stroke-width:0.886227;"/>
    <path clip-path="url(#p69021b9ccf)" d="M 233.154743 73.59387 
C 233.859833 73.59387 234.53614 73.313734 235.034714 72.81516 
C 235.533288 72.316586 235.813424 71.640279 235.813424 70.935189 
C 235.813424 70.230099 235.533288 69.553792 235.034714 69.055218 
C 234.53614 68.556644 233.859833 68.276508 233.154743 68.276508 
C 232.449653 68.276508 231.773346 68.556644 231.274772 69.055218 
C 230.776198 69.553792 230.496062 70.230099 230.496062 70.935189 
C 230.496062 71.640279 230.776198 72.316586 231.274772 72.81516 
C 231.773346 73.313734 232.449653 73.59387 233.154743 73.59387 
z
" style="fill-opacity:0.25098;stroke:#000000;stroke-opacity:0.25098;stroke-width:0.886227;"/>
    <path clip-path="url(#p69021b9ccf)" d="M 200.213064 34.037855 
C 200.918154 34.037855 201.594461 33.75772 202.093035 33.259146 
C 202.591609 32.760572 202.871745 32.084265 202.871745 31.379175 
C 202.871745 30.674084 202.591609 29.997777 202.093035 29.499203 
C 201.594461 29.000629 200.918154 28.720494 200.213064 28.720494 
C 199.507973 28.720494 198.831667 29.000629 198.333093 29.499203 
C 197.834518 29.997777 197.554383 30.674084 197.554383 31.379175 
C 197.554383 32.084265 197.834518 32.760572 198.333093 33.259146 
C 198.831667 33.75772 199.507973 34.037855 200.213064 34.037855 
z
" style="fill-opacity:0.25098;stroke:#000000;stroke-opacity:0.25098;stroke-width:0.886227;"/>
    <path clip-path="url(#p69021b9ccf)" d="M 199.135879 71.21062 
C 199.840969 71.21062 200.517276 70.930484 201.01585 70.43191 
C 201.514424 69.933336 201.79456 69.257029 201.79456 68.551939 
C 201.79456 67.846848 201.514424 67.170542 201.01585 66.671968 
C 200.517276 66.173393 199.840969 65.893258 199.135879 65.893258 
C 198.430789 65.893258 197.754482 66.173393 197.255908 66.671968 
C 196.757334 67.170542 196.477198 67.846848 196.477198 68.551939 
C 196.477198 69.257029 196.757334 69.933336 197.255908 70.43191 
C 197.754482 70.930484 198.430789 71.21062 199.135879 71.21062 
z
" style="fill-opacity:0.25098;stroke:#000000;stroke-opacity:0.25098;stroke-width:0.886227;"/>
    <path clip-path="url(#p69021b9ccf)" d="M 171.061009 71.248247 
C 171.7661 71.248247 172.442406 70.968112 172.940981 70.469538 
C 173.439555 69.970964 173.71969 69.294657 173.71969 68.589567 
C 173.71969 67.884476 173.439555 67.20817 172.940981 66.709595 
C 172.442406 66.211021 171.7661 65.930886 171.061009 65.930886 
C 170.355919 65.930886 169.679612 66.211021 169.181038 66.709595 
C 168.682464 67.20817 168.402329 67.884476 168.402329 68.589567 
C 168.402329 69.294657 168.682464 69.970964 169.181038 70.469538 
C 169.679612 70.968112 170.355919 71.248247 171.061009 71.248247 
z
" style="fill-opacity:0.25098;stroke:#000000;stroke-opacity:0.25098;stroke-width:0.886227;"/>
    <path clip-path="url(#p69021b9ccf)" d="M 175.327613 74.259326 
C 176.032704 74.259326 176.70901 73.979191 177.207584 73.480617 
C 177.706159 72.982043 177.986294 72.305736 177.986294 71.600646 
C 177.986294 70.895555 177.706159 70.219249 177.207584 69.720675 
C 176.70901 69.2221 176.032704 68.941965 175.327613 68.941965 
C 174.622523 68.941965 173.946216 69.2221 173.447642 69.720675 
C 172.949068 70.219249 172.668932 70.895555 172.668932 71.600646 
C 172.668932 72.305736 172.949068 72.982043 173.447642 73.480617 
C 173.946216 73.979191 174.622523 74.259326 175.327613 74.259326 
z
" style="fill-opacity:0.25098;stroke:#000000;stroke-opacity:0.25098;stroke-width:0.886227;"/>
    <path clip-path="url(#p69021b9ccf)" d="M 174.616293 71.966834 
C 175.321384 71.966834 175.99769 71.686699 176.496264 71.188124 
C 176.994839 70.68955 177.274974 70.013243 177.274974 69.308153 
C 177.274974 68.603063 176.994839 67.926756 176.496264 67.428182 
C 175.99769 66.929608 175.321384 66.649472 174.616293 66.649472 
C 173.911203 66.649472 173.234896 66.929608 172.736322 67.428182 
C 172.237748 67.926756 171.957612 68.603063 171.957612 69.308153 
C 171.957612 70.013243 172.237748 70.68955 172.736322 71.188124 
C 173.234896 71.686699 173.911203 71.966834 174.616293 71.966834 
z
" style="fill-opacity:0.25098;stroke:#000000;stroke-opacity:0.25098;stroke-width:0.886227;"/>
    <path clip-path="url(#p69021b9ccf)" d="M 206.488205 59.575527 
C 207.193295 59.575527 207.869602 59.295392 208.368176 58.796818 
C 208.86675 58.298243 209.146885 57.621937 209.146885 56.916846 
C 209.146885 56.211756 208.86675 55.535449 208.368176 55.036875 
C 207.869602 54.538301 207.193295 54.258166 206.488205 54.258166 
C 205.783114 54.258166 205.106808 54.538301 204.608234 55.036875 
C 204.109659 55.535449 203.829524 56.211756 203.829524 56.916846 
C 203.829524 57.621937 204.109659 58.298243 204.608234 58.796818 
C 205.106808 59.295392 205.783114 59.575527 206.488205 59.575527 
z
" style="fill-opacity:0.25098;stroke:#000000;stroke-opacity:0.25098;stroke-width:0.886227;"/>
    <path clip-path="url(#p69021b9ccf)" d="M 265.367632 31.624011 
C 266.072722 31.624011 266.749029 31.343875 267.247603 30.845301 
C 267.746177 30.346727 268.026313 29.67042 268.026313 28.96533 
C 268.026313 28.26024 267.746177 27.583933 267.247603 27.085359 
C 266.749029 26.586785 266.072722 26.306649 265.367632 26.306649 
C 264.662542 26.306649 263.986235 26.586785 263.487661 27.085359 
C 262.989087 27.583933 262.708951 28.26024 262.708951 28.96533 
C 262.708951 29.67042 262.989087 30.346727 263.487661 30.845301 
C 263.986235 31.343875 264.662542 31.624011 265.367632 31.624011 
z
" style="fill-opacity:0.25098;stroke:#000000;stroke-opacity:0.25098;stroke-width:0.886227;"/>
    <path clip-path="url(#p69021b9ccf)" d="M 201.475273 111.782629 
C 202.180363 111.782629 202.85667 111.502494 203.355244 111.00392 
C 203.853818 110.505345 204.133954 109.829039 204.133954 109.123948 
C 204.133954 108.418858 203.853818 107.742551 203.355244 107.243977 
C 202.85667 106.745403 202.180363 106.465268 201.475273 106.465268 
C 200.770182 106.465268 200.093876 106.745403 199.595302 107.243977 
C 199.096727 107.742551 198.816592 108.418858 198.816592 109.123948 
C 198.816592 109.829039 199.096727 110.505345 199.595302 111.00392 
C 200.093876 111.502494 200.770182 111.782629 201.475273 111.782629 
z
" style="fill-opacity:0.25098;stroke:#000000;stroke-opacity:0.25098;stroke-width:0.886227;"/>
   </g>
   <g id="patch_3">
    <path d="M 164.152813 21.5 
L 273.232813 21.5 
L 273.232813 7.2 
L 164.152813 7.2 
z
" style="fill:none;stroke:#000000;stroke-linejoin:miter;"/>
   </g>
   <g id="patch_4">
    <path d="M 164.152813 132.38 
L 164.152813 21.5 
" style="fill:none;stroke:#000000;stroke-linecap:square;stroke-linejoin:miter;"/>
   </g>
   <g id="patch_5">
    <path d="M 164.152813 132.38 
L 273.232813 132.38 
" style="fill:none;stroke:#000000;stroke-linecap:square;stroke-linejoin:miter;"/>
   </g>
   <g id="text_15">
    <!-- convalescent -->
    <defs>
     <path d="M 2.984375 54.6875 
L 12.5 54.6875 
L 29.59375 8.796875 
L 46.6875 54.6875 
L 56.203125 54.6875 
L 35.6875 0 
L 23.484375 0 
z
" id="DejaVuSans-118"/>
    </defs>
    <g style="fill:#1a1a1a;" transform="translate(189.630125 16.77825)scale(0.088 -0.088)">
     <use xlink:href="#DejaVuSans-99"/>
     <use x="54.980469" xlink:href="#DejaVuSans-111"/>
     <use x="116.162109" xlink:href="#DejaVuSans-110"/>
     <use x="179.541016" xlink:href="#DejaVuSans-118"/>
     <use x="238.720703" xlink:href="#DejaVuSans-97"/>
     <use x="300" xlink:href="#DejaVuSans-108"/>
     <use x="327.783203" xlink:href="#DejaVuSans-101"/>
     <use x="389.306641" xlink:href="#DejaVuSans-115"/>
     <use x="441.40625" xlink:href="#DejaVuSans-99"/>
     <use x="496.386719" xlink:href="#DejaVuSans-101"/>
     <use x="557.910156" xlink:href="#DejaVuSans-110"/>
     <use x="621.289062" xlink:href="#DejaVuSans-116"/>
    </g>
   </g>
  </g>
  <g id="axes_2">
   <g id="patch_6">
    <path d="M 278.272813 132.38 
L 387.352813 132.38 
L 387.352813 21.5 
L 278.272813 21.5 
z
" style="fill:#ffffff;"/>
   </g>
   <g id="matplotlib.axis_3">
    <g id="xtick_11">
     <g id="line2d_14">
      <path d="M 278.859403 132.38 
" style="fill:none;stroke:#333333;stroke-linecap:square;stroke-width:1.5;"/>
      <g>
       <use style="fill:#333333;stroke:#333333;" x="278.859403" xlink:href="#meb0c1d65fa" y="132.38"/>
      </g>
     </g>
     <g id="text_16">
      <!-- 6 -->
      <g style="fill:#4d4d4d;" transform="translate(281.287653 142.929)rotate(-90)scale(0.088 -0.088)">
       <use xlink:href="#DejaVuSans-54"/>
      </g>
     </g>
    </g>
    <g id="xtick_12">
     <g id="line2d_15">
      <path d="M 302.372446 132.38 
" style="fill:none;stroke:#333333;stroke-linecap:square;stroke-width:1.5;"/>
      <g>
       <use style="fill:#333333;stroke:#333333;" x="302.372446" xlink:href="#meb0c1d65fa" y="132.38"/>
      </g>
     </g>
     <g id="text_17">
      <!-- 7 -->
      <g style="fill:#4d4d4d;" transform="translate(304.800696 142.929)rotate(-90)scale(0.088 -0.088)">
       <use xlink:href="#DejaVuSans-55"/>
      </g>
     </g>
    </g>
    <g id="xtick_13">
     <g id="line2d_16">
      <path d="M 325.88549 132.38 
" style="fill:none;stroke:#333333;stroke-linecap:square;stroke-width:1.5;"/>
      <g>
       <use style="fill:#333333;stroke:#333333;" x="325.88549" xlink:href="#meb0c1d65fa" y="132.38"/>
      </g>
     </g>
     <g id="text_18">
      <!-- 8 -->
      <g style="fill:#4d4d4d;" transform="translate(328.31374 142.929)rotate(-90)scale(0.088 -0.088)">
       <use xlink:href="#DejaVuSans-56"/>
      </g>
     </g>
    </g>
    <g id="xtick_14">
     <g id="line2d_17">
      <path d="M 349.398533 132.38 
" style="fill:none;stroke:#333333;stroke-linecap:square;stroke-width:1.5;"/>
      <g>
       <use style="fill:#333333;stroke:#333333;" x="349.398533" xlink:href="#meb0c1d65fa" y="132.38"/>
      </g>
     </g>
     <g id="text_19">
      <!-- 9 -->
      <g style="fill:#4d4d4d;" transform="translate(351.826783 142.929)rotate(-90)scale(0.088 -0.088)">
       <use xlink:href="#DejaVuSans-57"/>
      </g>
     </g>
    </g>
    <g id="xtick_15">
     <g id="line2d_18">
      <path d="M 372.911577 132.38 
" style="fill:none;stroke:#333333;stroke-linecap:square;stroke-width:1.5;"/>
      <g>
       <use style="fill:#333333;stroke:#333333;" x="372.911577" xlink:href="#meb0c1d65fa" y="132.38"/>
      </g>
     </g>
     <g id="text_20">
      <!-- 10 -->
      <g style="fill:#4d4d4d;" transform="translate(375.339827 148.528)rotate(-90)scale(0.088 -0.088)">
       <use xlink:href="#DejaVuSans-49"/>
       <use x="63.623047" xlink:href="#DejaVuSans-48"/>
      </g>
     </g>
    </g>
    <g id="xtick_16"/>
    <g id="xtick_17"/>
    <g id="xtick_18"/>
    <g id="xtick_19"/>
    <g id="xtick_20"/>
    <g id="text_21">
     <!-- log2_sortdilution -->
     <defs>
      <path d="M 19.1875 8.296875 
L 53.609375 8.296875 
L 53.609375 0 
L 7.328125 0 
L 7.328125 8.296875 
Q 12.9375 14.109375 22.625 23.890625 
Q 32.328125 33.6875 34.8125 36.53125 
Q 39.546875 41.84375 41.421875 45.53125 
Q 43.3125 49.21875 43.3125 52.78125 
Q 43.3125 58.59375 39.234375 62.25 
Q 35.15625 65.921875 28.609375 65.921875 
Q 23.96875 65.921875 18.8125 64.3125 
Q 13.671875 62.703125 7.8125 59.421875 
L 7.8125 69.390625 
Q 13.765625 71.78125 18.9375 73 
Q 24.125 74.21875 28.421875 74.21875 
Q 39.75 74.21875 46.484375 68.546875 
Q 53.21875 62.890625 53.21875 53.421875 
Q 53.21875 48.921875 51.53125 44.890625 
Q 49.859375 40.875 45.40625 35.40625 
Q 44.1875 33.984375 37.640625 27.21875 
Q 31.109375 20.453125 19.1875 8.296875 
z
" id="DejaVuSans-50"/>
      <path d="M 50.984375 -16.609375 
L 50.984375 -23.578125 
L -0.984375 -23.578125 
L -0.984375 -16.609375 
z
" id="DejaVuSans-95"/>
     </defs>
     <g transform="translate(226.302578 161.286281)scale(0.11 -0.11)">
      <use xlink:href="#DejaVuSans-108"/>
      <use x="27.783203" xlink:href="#DejaVuSans-111"/>
      <use x="88.964844" xlink:href="#DejaVuSans-103"/>
      <use x="152.441406" xlink:href="#DejaVuSans-50"/>
      <use x="216.064453" xlink:href="#DejaVuSans-95"/>
      <use x="266.064453" xlink:href="#DejaVuSans-115"/>
      <use x="318.164062" xlink:href="#DejaVuSans-111"/>
      <use x="379.345703" xlink:href="#DejaVuSans-114"/>
      <use x="420.458984" xlink:href="#DejaVuSans-116"/>
      <use x="459.667969" xlink:href="#DejaVuSans-100"/>
      <use x="523.144531" xlink:href="#DejaVuSans-105"/>
      <use x="550.927734" xlink:href="#DejaVuSans-108"/>
      <use x="578.710938" xlink:href="#DejaVuSans-117"/>
      <use x="642.089844" xlink:href="#DejaVuSans-116"/>
      <use x="681.298828" xlink:href="#DejaVuSans-105"/>
      <use x="709.082031" xlink:href="#DejaVuSans-111"/>
      <use x="770.263672" xlink:href="#DejaVuSans-110"/>
     </g>
    </g>
   </g>
   <g id="matplotlib.axis_4">
    <g id="ytick_9"/>
    <g id="ytick_10"/>
    <g id="ytick_11"/>
    <g id="ytick_12"/>
    <g id="ytick_13"/>
    <g id="ytick_14"/>
    <g id="ytick_15"/>
    <g id="ytick_16"/>
   </g>
   <g id="PathCollection_2">
    <path clip-path="url(#p27902d3d12)" d="M 284.216769 126.971116 
C 284.921859 126.971116 285.598166 126.690981 286.09674 126.192407 
C 286.595314 125.693832 286.875449 125.017526 286.875449 124.312435 
C 286.875449 123.607345 286.595314 122.931038 286.09674 122.432464 
C 285.598166 121.93389 284.921859 121.653755 284.216769 121.653755 
C 283.511678 121.653755 282.835372 121.93389 282.336798 122.432464 
C 281.838223 122.931038 281.558088 123.607345 281.558088 124.312435 
C 281.558088 125.017526 281.838223 125.693832 282.336798 126.192407 
C 282.835372 126.690981 283.511678 126.971116 284.216769 126.971116 
z
" style="fill-opacity:0.25098;stroke:#000000;stroke-opacity:0.25098;stroke-width:0.886227;"/>
    <path clip-path="url(#p27902d3d12)" d="M 382.394631 30.563048 
C 383.099721 30.563048 383.776028 30.282913 384.274602 29.784339 
C 384.773176 29.285764 385.053311 28.609458 385.053311 27.904367 
C 385.053311 27.199277 384.773176 26.52297 384.274602 26.024396 
C 383.776028 25.525822 383.099721 25.245687 382.394631 25.245687 
C 381.68954 25.245687 381.013234 25.525822 380.514659 26.024396 
C 380.016085 26.52297 379.73595 27.199277 379.73595 27.904367 
C 379.73595 28.609458 380.016085 29.285764 380.514659 29.784339 
C 381.013234 30.282913 381.68954 30.563048 382.394631 30.563048 
z
" style="fill-opacity:0.25098;stroke:#000000;stroke-opacity:0.25098;stroke-width:0.886227;"/>
    <path clip-path="url(#p27902d3d12)" d="M 314.657555 113.123144 
C 315.362645 113.123144 316.038952 112.843008 316.537526 112.344434 
C 317.0361 111.84586 317.316235 111.169553 317.316235 110.464463 
C 317.316235 109.759372 317.0361 109.083066 316.537526 108.584492 
C 316.038952 108.085917 315.362645 107.805782 314.657555 107.805782 
C 313.952464 107.805782 313.276158 108.085917 312.777583 108.584492 
C 312.279009 109.083066 311.998874 109.759372 311.998874 110.464463 
C 311.998874 111.169553 312.279009 111.84586 312.777583 112.344434 
C 313.276158 112.843008 313.952464 113.123144 314.657555 113.123144 
z
" style="fill-opacity:0.25098;stroke:#000000;stroke-opacity:0.25098;stroke-width:0.886227;"/>
    <path clip-path="url(#p27902d3d12)" d="M 314.143715 60.947412 
C 314.848806 60.947412 315.525112 60.667277 316.023686 60.168703 
C 316.522261 59.670128 316.802396 58.993822 316.802396 58.288731 
C 316.802396 57.583641 316.522261 56.907334 316.023686 56.40876 
C 315.525112 55.910186 314.848806 55.630051 314.143715 55.630051 
C 313.438625 55.630051 312.762318 55.910186 312.263744 56.40876 
C 311.76517 56.907334 311.485034 57.583641 311.485034 58.288731 
C 311.485034 58.993822 311.76517 59.670128 312.263744 60.168703 
C 312.762318 60.667277 313.438625 60.947412 314.143715 60.947412 
z
" style="fill-opacity:0.25098;stroke:#000000;stroke-opacity:0.25098;stroke-width:0.886227;"/>
    <path clip-path="url(#p27902d3d12)" d="M 320.149531 32.341283 
C 320.854621 32.341283 321.530928 32.061148 322.029502 31.562573 
C 322.528076 31.063999 322.808212 30.387693 322.808212 29.682602 
C 322.808212 28.977512 322.528076 28.301205 322.029502 27.802631 
C 321.530928 27.304057 320.854621 27.023921 320.149531 27.023921 
C 319.444441 27.023921 318.768134 27.304057 318.26956 27.802631 
C 317.770985 28.301205 317.49085 28.977512 317.49085 29.682602 
C 317.49085 30.387693 317.770985 31.063999 318.26956 31.562573 
C 318.768134 32.061148 319.444441 32.341283 320.149531 32.341283 
z
" style="fill-opacity:0.25098;stroke:#000000;stroke-opacity:0.25098;stroke-width:0.886227;"/>
    <path clip-path="url(#p27902d3d12)" d="M 348.049517 31.857864 
C 348.754607 31.857864 349.430914 31.577728 349.929488 31.079154 
C 350.428062 30.58058 350.708198 29.904273 350.708198 29.199183 
C 350.708198 28.494092 350.428062 27.817786 349.929488 27.319212 
C 349.430914 26.820637 348.754607 26.540502 348.049517 26.540502 
C 347.344427 26.540502 346.66812 26.820637 346.169546 27.319212 
C 345.670972 27.817786 345.390836 28.494092 345.390836 29.199183 
C 345.390836 29.904273 345.670972 30.58058 346.169546 31.079154 
C 346.66812 31.577728 347.344427 31.857864 348.049517 31.857864 
z
" style="fill-opacity:0.25098;stroke:#000000;stroke-opacity:0.25098;stroke-width:0.886227;"/>
    <path clip-path="url(#p27902d3d12)" d="M 345.594986 111.791959 
C 346.300077 111.791959 346.976384 111.511824 347.474958 111.013249 
C 347.973532 110.514675 348.253667 109.838369 348.253667 109.133278 
C 348.253667 108.428188 347.973532 107.751881 347.474958 107.253307 
C 346.976384 106.754733 346.300077 106.474597 345.594986 106.474597 
C 344.889896 106.474597 344.213589 106.754733 343.715015 107.253307 
C 343.216441 107.751881 342.936306 108.428188 342.936306 109.133278 
C 342.936306 109.838369 343.216441 110.514675 343.715015 111.013249 
C 344.213589 111.511824 344.889896 111.791959 345.594986 111.791959 
z
" style="fill-opacity:0.25098;stroke:#000000;stroke-opacity:0.25098;stroke-width:0.886227;"/>
    <path clip-path="url(#p27902d3d12)" d="M 285.295125 126.733429 
C 286.000216 126.733429 286.676522 126.453294 287.175096 125.95472 
C 287.673671 125.456145 287.953806 124.779839 287.953806 124.074748 
C 287.953806 123.369658 287.673671 122.693351 287.175096 122.194777 
C 286.676522 121.696203 286.000216 121.416068 285.295125 121.416068 
C 284.590035 121.416068 283.913728 121.696203 283.415154 122.194777 
C 282.91658 122.693351 282.636444 123.369658 282.636444 124.074748 
C 282.636444 124.779839 282.91658 125.456145 283.415154 125.95472 
C 283.913728 126.453294 284.590035 126.733429 285.295125 126.733429 
z
" style="fill-opacity:0.25098;stroke:#000000;stroke-opacity:0.25098;stroke-width:0.886227;"/>
    <path clip-path="url(#p27902d3d12)" d="M 318.885847 84.798111 
C 319.590938 84.798111 320.267244 84.517976 320.765819 84.019401 
C 321.264393 83.520827 321.544528 82.844521 321.544528 82.13943 
C 321.544528 81.43434 321.264393 80.758033 320.765819 80.259459 
C 320.267244 79.760885 319.590938 79.480749 318.885847 79.480749 
C 318.180757 79.480749 317.50445 79.760885 317.005876 80.259459 
C 316.507302 80.758033 316.227167 81.43434 316.227167 82.13943 
C 316.227167 82.844521 316.507302 83.520827 317.005876 84.019401 
C 317.50445 84.517976 318.180757 84.798111 318.885847 84.798111 
z
" style="fill-opacity:0.25098;stroke:#000000;stroke-opacity:0.25098;stroke-width:0.886227;"/>
    <path clip-path="url(#p27902d3d12)" d="M 380.52221 32.74563 
C 381.227301 32.74563 381.903607 32.465495 382.402182 31.966921 
C 382.900756 31.468347 383.180891 30.79204 383.180891 30.08695 
C 383.180891 29.381859 382.900756 28.705553 382.402182 28.206978 
C 381.903607 27.708404 381.227301 27.428269 380.52221 27.428269 
C 379.81712 27.428269 379.140813 27.708404 378.642239 28.206978 
C 378.143665 28.705553 377.86353 29.381859 377.86353 30.08695 
C 377.86353 30.79204 378.143665 31.468347 378.642239 31.966921 
C 379.140813 32.465495 379.81712 32.74563 380.52221 32.74563 
z
" style="fill-opacity:0.25098;stroke:#000000;stroke-opacity:0.25098;stroke-width:0.886227;"/>
    <path clip-path="url(#p27902d3d12)" d="M 319.590015 58.40036 
C 320.295106 58.40036 320.971412 58.120225 321.469987 57.621651 
C 321.968561 57.123076 322.248696 56.44677 322.248696 55.741679 
C 322.248696 55.036589 321.968561 54.360282 321.469987 53.861708 
C 320.971412 53.363134 320.295106 53.082999 319.590015 53.082999 
C 318.884925 53.082999 318.208618 53.363134 317.710044 53.861708 
C 317.21147 54.360282 316.931335 55.036589 316.931335 55.741679 
C 316.931335 56.44677 317.21147 57.123076 317.710044 57.621651 
C 318.208618 58.120225 318.884925 58.40036 319.590015 58.40036 
z
" style="fill-opacity:0.25098;stroke:#000000;stroke-opacity:0.25098;stroke-width:0.886227;"/>
    <path clip-path="url(#p27902d3d12)" d="M 350.88784 33.708154 
C 351.59293 33.708154 352.269237 33.428018 352.767811 32.929444 
C 353.266385 32.43087 353.54652 31.754563 353.54652 31.049473 
C 353.54652 30.344382 353.266385 29.668076 352.767811 29.169502 
C 352.269237 28.670927 351.59293 28.390792 350.88784 28.390792 
C 350.182749 28.390792 349.506443 28.670927 349.007868 29.169502 
C 348.509294 29.668076 348.229159 30.344382 348.229159 31.049473 
C 348.229159 31.754563 348.509294 32.43087 349.007868 32.929444 
C 349.506443 33.428018 350.182749 33.708154 350.88784 33.708154 
z
" style="fill-opacity:0.25098;stroke:#000000;stroke-opacity:0.25098;stroke-width:0.886227;"/>
    <path clip-path="url(#p27902d3d12)" d="M 350.329831 31.366689 
C 351.034921 31.366689 351.711228 31.086553 352.209802 30.587979 
C 352.708376 30.089405 352.988512 29.413098 352.988512 28.708008 
C 352.988512 28.002918 352.708376 27.326611 352.209802 26.828037 
C 351.711228 26.329463 351.034921 26.049327 350.329831 26.049327 
C 349.62474 26.049327 348.948434 26.329463 348.44986 26.828037 
C 347.951285 27.326611 347.67115 28.002918 347.67115 28.708008 
C 347.67115 29.413098 347.951285 30.089405 348.44986 30.587979 
C 348.948434 31.086553 349.62474 31.366689 350.329831 31.366689 
z
" style="fill-opacity:0.25098;stroke:#000000;stroke-opacity:0.25098;stroke-width:0.886227;"/>
    <path clip-path="url(#p27902d3d12)" d="M 319.907597 126.336542 
C 320.612687 126.336542 321.288994 126.056406 321.787568 125.557832 
C 322.286142 125.059258 322.566277 124.382951 322.566277 123.677861 
C 322.566277 122.972771 322.286142 122.296464 321.787568 121.79789 
C 321.288994 121.299316 320.612687 121.01918 319.907597 121.01918 
C 319.202506 121.01918 318.5262 121.299316 318.027625 121.79789 
C 317.529051 122.296464 317.248916 122.972771 317.248916 123.677861 
C 317.248916 124.382951 317.529051 125.059258 318.027625 125.557832 
C 318.5262 126.056406 319.202506 126.336542 319.907597 126.336542 
z
" style="fill-opacity:0.25098;stroke:#000000;stroke-opacity:0.25098;stroke-width:0.886227;"/>
    <path clip-path="url(#p27902d3d12)" d="M 319.984605 126.182657 
C 320.689695 126.182657 321.366002 125.902522 321.864576 125.403948 
C 322.36315 124.905374 322.643285 124.229067 322.643285 123.523977 
C 322.643285 122.818886 322.36315 122.14258 321.864576 121.644005 
C 321.366002 121.145431 320.689695 120.865296 319.984605 120.865296 
C 319.279514 120.865296 318.603208 121.145431 318.104633 121.644005 
C 317.606059 122.14258 317.325924 122.818886 317.325924 123.523977 
C 317.325924 124.229067 317.606059 124.905374 318.104633 125.403948 
C 318.603208 125.902522 319.279514 126.182657 319.984605 126.182657 
z
" style="fill-opacity:0.25098;stroke:#000000;stroke-opacity:0.25098;stroke-width:0.886227;"/>
    <path clip-path="url(#p27902d3d12)" d="M 381.798968 34.088372 
C 382.504059 34.088372 383.180365 33.808237 383.678939 33.309663 
C 384.177514 32.811089 384.457649 32.134782 384.457649 31.429691 
C 384.457649 30.724601 384.177514 30.048294 383.678939 29.54972 
C 383.180365 29.051146 382.504059 28.771011 381.798968 28.771011 
C 381.093878 28.771011 380.417571 29.051146 379.918997 29.54972 
C 379.420423 30.048294 379.140287 30.724601 379.140287 31.429691 
C 379.140287 32.134782 379.420423 32.811089 379.918997 33.309663 
C 380.417571 33.808237 381.093878 34.088372 381.798968 34.088372 
z
" style="fill-opacity:0.25098;stroke:#000000;stroke-opacity:0.25098;stroke-width:0.886227;"/>
    <path clip-path="url(#p27902d3d12)" d="M 316.981483 32.939127 
C 317.686574 32.939127 318.36288 32.658992 318.861454 32.160418 
C 319.360029 31.661844 319.640164 30.985537 319.640164 30.280447 
C 319.640164 29.575356 319.360029 28.89905 318.861454 28.400475 
C 318.36288 27.901901 317.686574 27.621766 316.981483 27.621766 
C 316.276393 27.621766 315.600086 27.901901 315.101512 28.400475 
C 314.602938 28.89905 314.322802 29.575356 314.322802 30.280447 
C 314.322802 30.985537 314.602938 31.661844 315.101512 32.160418 
C 315.600086 32.658992 316.276393 32.939127 316.981483 32.939127 
z
" style="fill-opacity:0.25098;stroke:#000000;stroke-opacity:0.25098;stroke-width:0.886227;"/>
    <path clip-path="url(#p27902d3d12)" d="M 314.586082 33.672818 
C 315.291172 33.672818 315.967479 33.392682 316.466053 32.894108 
C 316.964627 32.395534 317.244763 31.719227 317.244763 31.014137 
C 317.244763 30.309046 316.964627 29.63274 316.466053 29.134166 
C 315.967479 28.635591 315.291172 28.355456 314.586082 28.355456 
C 313.880991 28.355456 313.204685 28.635591 312.706111 29.134166 
C 312.207536 29.63274 311.927401 30.309046 311.927401 31.014137 
C 311.927401 31.719227 312.207536 32.395534 312.706111 32.894108 
C 313.204685 33.392682 313.880991 33.672818 314.586082 33.672818 
z
" style="fill-opacity:0.25098;stroke:#000000;stroke-opacity:0.25098;stroke-width:0.886227;"/>
    <path clip-path="url(#p27902d3d12)" d="M 346.613001 32.58763 
C 347.318092 32.58763 347.994398 32.307495 348.492973 31.80892 
C 348.991547 31.310346 349.271682 30.63404 349.271682 29.928949 
C 349.271682 29.223859 348.991547 28.547552 348.492973 28.048978 
C 347.994398 27.550404 347.318092 27.270268 346.613001 27.270268 
C 345.907911 27.270268 345.231604 27.550404 344.73303 28.048978 
C 344.234456 28.547552 343.954321 29.223859 343.954321 29.928949 
C 343.954321 30.63404 344.234456 31.310346 344.73303 31.80892 
C 345.231604 32.307495 345.907911 32.58763 346.613001 32.58763 
z
" style="fill-opacity:0.25098;stroke:#000000;stroke-opacity:0.25098;stroke-width:0.886227;"/>
    <path clip-path="url(#p27902d3d12)" d="M 320.170624 45.555237 
C 320.875714 45.555237 321.552021 45.275102 322.050595 44.776528 
C 322.54917 44.277954 322.829305 43.601647 322.829305 42.896557 
C 322.829305 42.191466 322.54917 41.51516 322.050595 41.016585 
C 321.552021 40.518011 320.875714 40.237876 320.170624 40.237876 
C 319.465534 40.237876 318.789227 40.518011 318.290653 41.016585 
C 317.792079 41.51516 317.511943 42.191466 317.511943 42.896557 
C 317.511943 43.601647 317.792079 44.277954 318.290653 44.776528 
C 318.789227 45.275102 319.465534 45.555237 320.170624 45.555237 
z
" style="fill-opacity:0.25098;stroke:#000000;stroke-opacity:0.25098;stroke-width:0.886227;"/>
    <path clip-path="url(#p27902d3d12)" d="M 380.883922 45.584642 
C 381.589012 45.584642 382.265319 45.304506 382.763893 44.805932 
C 383.262467 44.307358 383.542602 43.631051 383.542602 42.925961 
C 383.542602 42.220871 383.262467 41.544564 382.763893 41.04599 
C 382.265319 40.547416 381.589012 40.26728 380.883922 40.26728 
C 380.178831 40.26728 379.502525 40.547416 379.00395 41.04599 
C 378.505376 41.544564 378.225241 42.220871 378.225241 42.925961 
C 378.225241 43.631051 378.505376 44.307358 379.00395 44.805932 
C 379.502525 45.304506 380.178831 45.584642 380.883922 45.584642 
z
" style="fill-opacity:0.25098;stroke:#000000;stroke-opacity:0.25098;stroke-width:0.886227;"/>
    <path clip-path="url(#p27902d3d12)" d="M 317.519262 32.213708 
C 318.224352 32.213708 318.900659 31.933573 319.399233 31.434999 
C 319.897807 30.936424 320.177943 30.260118 320.177943 29.555027 
C 320.177943 28.849937 319.897807 28.17363 319.399233 27.675056 
C 318.900659 27.176482 318.224352 26.896347 317.519262 26.896347 
C 316.814172 26.896347 316.137865 27.176482 315.639291 27.675056 
C 315.140717 28.17363 314.860581 28.849937 314.860581 29.555027 
C 314.860581 30.260118 315.140717 30.936424 315.639291 31.434999 
C 316.137865 31.933573 316.814172 32.213708 317.519262 32.213708 
z
" style="fill-opacity:0.25098;stroke:#000000;stroke-opacity:0.25098;stroke-width:0.886227;"/>
    <path clip-path="url(#p27902d3d12)" d="M 288.676876 59.784396 
C 289.381967 59.784396 290.058273 59.504261 290.556848 59.005687 
C 291.055422 58.507113 291.335557 57.830806 291.335557 57.125716 
C 291.335557 56.420625 291.055422 55.744319 290.556848 55.245744 
C 290.058273 54.74717 289.381967 54.467035 288.676876 54.467035 
C 287.971786 54.467035 287.295479 54.74717 286.796905 55.245744 
C 286.298331 55.744319 286.018196 56.420625 286.018196 57.125716 
C 286.018196 57.830806 286.298331 58.507113 286.796905 59.005687 
C 287.295479 59.504261 287.971786 59.784396 288.676876 59.784396 
z
" style="fill-opacity:0.25098;stroke:#000000;stroke-opacity:0.25098;stroke-width:0.886227;"/>
    <path clip-path="url(#p27902d3d12)" d="M 317.107786 86.276918 
C 317.812876 86.276918 318.489183 85.996783 318.987757 85.498209 
C 319.486331 84.999635 319.766467 84.323328 319.766467 83.618238 
C 319.766467 82.913147 319.486331 82.236841 318.987757 81.738267 
C 318.489183 81.239692 317.812876 80.959557 317.107786 80.959557 
C 316.402696 80.959557 315.726389 81.239692 315.227815 81.738267 
C 314.729241 82.236841 314.449105 82.913147 314.449105 83.618238 
C 314.449105 84.323328 314.729241 84.999635 315.227815 85.498209 
C 315.726389 85.996783 316.402696 86.276918 317.107786 86.276918 
z
" style="fill-opacity:0.25098;stroke:#000000;stroke-opacity:0.25098;stroke-width:0.886227;"/>
    <path clip-path="url(#p27902d3d12)" d="M 320.824115 33.391503 
C 321.529206 33.391503 322.205512 33.111367 322.704086 32.612793 
C 323.202661 32.114219 323.482796 31.437912 323.482796 30.732822 
C 323.482796 30.027732 323.202661 29.351425 322.704086 28.852851 
C 322.205512 28.354277 321.529206 28.074141 320.824115 28.074141 
C 320.119025 28.074141 319.442718 28.354277 318.944144 28.852851 
C 318.44557 29.351425 318.165434 30.027732 318.165434 30.732822 
C 318.165434 31.437912 318.44557 32.114219 318.944144 32.612793 
C 319.442718 33.111367 320.119025 33.391503 320.824115 33.391503 
z
" style="fill-opacity:0.25098;stroke:#000000;stroke-opacity:0.25098;stroke-width:0.886227;"/>
    <path clip-path="url(#p27902d3d12)" d="M 316.484239 111.489261 
C 317.18933 111.489261 317.865636 111.209125 318.36421 110.710551 
C 318.862785 110.211977 319.14292 109.53567 319.14292 108.83058 
C 319.14292 108.125489 318.862785 107.449183 318.36421 106.950609 
C 317.865636 106.452034 317.18933 106.171899 316.484239 106.171899 
C 315.779149 106.171899 315.102842 106.452034 314.604268 106.950609 
C 314.105694 107.449183 313.825559 108.125489 313.825559 108.83058 
C 313.825559 109.53567 314.105694 110.211977 314.604268 110.710551 
C 315.102842 111.209125 315.779149 111.489261 316.484239 111.489261 
z
" style="fill-opacity:0.25098;stroke:#000000;stroke-opacity:0.25098;stroke-width:0.886227;"/>
    <path clip-path="url(#p27902d3d12)" d="M 315.24989 32.730568 
C 315.95498 32.730568 316.631287 32.450432 317.129861 31.951858 
C 317.628435 31.453284 317.908571 30.776977 317.908571 30.071887 
C 317.908571 29.366797 317.628435 28.69049 317.129861 28.191916 
C 316.631287 27.693342 315.95498 27.413206 315.24989 27.413206 
C 314.544799 27.413206 313.868493 27.693342 313.369919 28.191916 
C 312.871344 28.69049 312.591209 29.366797 312.591209 30.071887 
C 312.591209 30.776977 312.871344 31.453284 313.369919 31.951858 
C 313.868493 32.450432 314.544799 32.730568 315.24989 32.730568 
z
" style="fill-opacity:0.25098;stroke:#000000;stroke-opacity:0.25098;stroke-width:0.886227;"/>
    <path clip-path="url(#p27902d3d12)" d="M 317.387074 33.950513 
C 318.092164 33.950513 318.768471 33.670378 319.267045 33.171803 
C 319.765619 32.673229 320.045754 31.996923 320.045754 31.291832 
C 320.045754 30.586742 319.765619 29.910435 319.267045 29.411861 
C 318.768471 28.913287 318.092164 28.633151 317.387074 28.633151 
C 316.681983 28.633151 316.005677 28.913287 315.507102 29.411861 
C 315.008528 29.910435 314.728393 30.586742 314.728393 31.291832 
C 314.728393 31.996923 315.008528 32.673229 315.507102 33.171803 
C 316.005677 33.670378 316.681983 33.950513 317.387074 33.950513 
z
" style="fill-opacity:0.25098;stroke:#000000;stroke-opacity:0.25098;stroke-width:0.886227;"/>
   </g>
   <g id="patch_7">
    <path d="M 278.272813 21.5 
L 387.352813 21.5 
L 387.352813 7.2 
L 278.272813 7.2 
z
" style="fill:none;stroke:#000000;stroke-linejoin:miter;"/>
   </g>
   <g id="patch_8">
    <path d="M 278.272813 132.38 
L 278.272813 21.5 
" style="fill:none;stroke:#000000;stroke-linecap:square;stroke-linejoin:miter;"/>
   </g>
   <g id="patch_9">
    <path d="M 278.272813 132.38 
L 387.352813 132.38 
" style="fill:none;stroke:#000000;stroke-linecap:square;stroke-linejoin:miter;"/>
   </g>
   <g id="text_22">
    <!-- vaccine -->
    <g style="fill:#1a1a1a;" transform="translate(315.955313 16.77825)scale(0.088 -0.088)">
     <use xlink:href="#DejaVuSans-118"/>
     <use x="59.179688" xlink:href="#DejaVuSans-97"/>
     <use x="120.458984" xlink:href="#DejaVuSans-99"/>
     <use x="175.439453" xlink:href="#DejaVuSans-99"/>
     <use x="230.419922" xlink:href="#DejaVuSans-105"/>
     <use x="258.203125" xlink:href="#DejaVuSans-110"/>
     <use x="321.582031" xlink:href="#DejaVuSans-101"/>
    </g>
   </g>
  </g>
 </g>
 <defs>
  <clipPath id="p69021b9ccf">
   <rect height="110.88" width="109.08" x="164.152813" y="21.5"/>
  </clipPath>
  <clipPath id="p27902d3d12">
   <rect height="110.88" width="109.08" x="278.272813" y="21.5"/>
  </clipPath>
 </defs>
</svg>
