<?xml version="1.0" encoding="utf-8" standalone="no"?>
<!DOCTYPE svg PUBLIC "-//W3C//DTD SVG 1.1//EN"
  "http://www.w3.org/Graphics/SVG/1.1/DTD/svg11.dtd">
<!-- Created with matplotlib (https://matplotlib.org/) -->
<svg height="218.102812pt" version="1.1" viewBox="0 0 336.595188 218.102812" width="336.595188pt" xmlns="http://www.w3.org/2000/svg" xmlns:xlink="http://www.w3.org/1999/xlink">
 <defs>
  <style type="text/css">
*{stroke-linecap:butt;stroke-linejoin:round;}
  </style>
 </defs>
 <g id="figure_1">
  <g id="patch_1">
   <path d="M 0 218.102812 
L 336.595188 218.102812 
L 336.595188 0 
L 0 0 
z
" style="fill:#ffffff;stroke:#ffffff;stroke-linejoin:miter;"/>
  </g>
  <g id="axes_1">
   <g id="patch_2">
    <path d="M 106.195188 132.38 
L 215.275188 132.38 
L 215.275188 21.5 
L 106.195188 21.5 
z
" style="fill:#ffffff;"/>
   </g>
   <g id="matplotlib.axis_1">
    <g id="xtick_1">
     <g id="line2d_1">
      <path d="M 118.781341 132.38 
" style="fill:none;stroke:#333333;stroke-width:1.5;"/>
      <defs>
       <path d="M 0 0 
L 0 2.75 
" id="m37e628778d" style="stroke:#333333;"/>
      </defs>
      <g>
       <use style="fill:#333333;stroke:#333333;" x="118.781341" xlink:href="#m37e628778d" y="132.38"/>
      </g>
     </g>
     <g id="text_1">
      <!-- low -->
      <defs>
       <path d="M 9.421875 75.984375 
L 18.40625 75.984375 
L 18.40625 0 
L 9.421875 0 
z
" id="DejaVuSans-108"/>
       <path d="M 30.609375 48.390625 
Q 23.390625 48.390625 19.1875 42.75 
Q 14.984375 37.109375 14.984375 27.296875 
Q 14.984375 17.484375 19.15625 11.84375 
Q 23.34375 6.203125 30.609375 6.203125 
Q 37.796875 6.203125 41.984375 11.859375 
Q 46.1875 17.53125 46.1875 27.296875 
Q 46.1875 37.015625 41.984375 42.703125 
Q 37.796875 48.390625 30.609375 48.390625 
z
M 30.609375 56 
Q 42.328125 56 49.015625 48.375 
Q 55.71875 40.765625 55.71875 27.296875 
Q 55.71875 13.875 49.015625 6.21875 
Q 42.328125 -1.421875 30.609375 -1.421875 
Q 18.84375 -1.421875 12.171875 6.21875 
Q 5.515625 13.875 5.515625 27.296875 
Q 5.515625 40.765625 12.171875 48.375 
Q 18.84375 56 30.609375 56 
z
" id="DejaVuSans-111"/>
       <path d="M 4.203125 54.6875 
L 13.1875 54.6875 
L 24.421875 12.015625 
L 35.59375 54.6875 
L 46.1875 54.6875 
L 57.421875 12.015625 
L 68.609375 54.6875 
L 77.59375 54.6875 
L 63.28125 0 
L 52.6875 0 
L 40.921875 44.828125 
L 29.109375 0 
L 18.5 0 
z
" id="DejaVuSans-119"/>
      </defs>
      <g style="fill:#4d4d4d;" transform="translate(121.209591 152.356)rotate(-90)scale(0.088 -0.088)">
       <use xlink:href="#DejaVuSans-108"/>
       <use x="27.783203" xlink:href="#DejaVuSans-111"/>
       <use x="88.964844" xlink:href="#DejaVuSans-119"/>
      </g>
     </g>
    </g>
    <g id="xtick_2">
     <g id="line2d_2">
      <path d="M 139.758264 132.38 
" style="fill:none;stroke:#333333;stroke-width:1.5;"/>
      <g>
       <use style="fill:#333333;stroke:#333333;" x="139.758264" xlink:href="#m37e628778d" y="132.38"/>
      </g>
     </g>
     <g id="text_2">
      <!-- low-medium -->
      <defs>
       <path d="M 4.890625 31.390625 
L 31.203125 31.390625 
L 31.203125 23.390625 
L 4.890625 23.390625 
z
" id="DejaVuSans-45"/>
       <path d="M 52 44.1875 
Q 55.375 50.25 60.0625 53.125 
Q 64.75 56 71.09375 56 
Q 79.640625 56 84.28125 50.015625 
Q 88.921875 44.046875 88.921875 33.015625 
L 88.921875 0 
L 79.890625 0 
L 79.890625 32.71875 
Q 79.890625 40.578125 77.09375 44.375 
Q 74.3125 48.1875 68.609375 48.1875 
Q 61.625 48.1875 57.5625 43.546875 
Q 53.515625 38.921875 53.515625 30.90625 
L 53.515625 0 
L 44.484375 0 
L 44.484375 32.71875 
Q 44.484375 40.625 41.703125 44.40625 
Q 38.921875 48.1875 33.109375 48.1875 
Q 26.21875 48.1875 22.15625 43.53125 
Q 18.109375 38.875 18.109375 30.90625 
L 18.109375 0 
L 9.078125 0 
L 9.078125 54.6875 
L 18.109375 54.6875 
L 18.109375 46.1875 
Q 21.1875 51.21875 25.484375 53.609375 
Q 29.78125 56 35.6875 56 
Q 41.65625 56 45.828125 52.96875 
Q 50 49.953125 52 44.1875 
z
" id="DejaVuSans-109"/>
       <path d="M 56.203125 29.59375 
L 56.203125 25.203125 
L 14.890625 25.203125 
Q 15.484375 15.921875 20.484375 11.0625 
Q 25.484375 6.203125 34.421875 6.203125 
Q 39.59375 6.203125 44.453125 7.46875 
Q 49.3125 8.734375 54.109375 11.28125 
L 54.109375 2.78125 
Q 49.265625 0.734375 44.1875 -0.34375 
Q 39.109375 -1.421875 33.890625 -1.421875 
Q 20.796875 -1.421875 13.15625 6.1875 
Q 5.515625 13.8125 5.515625 26.8125 
Q 5.515625 40.234375 12.765625 48.109375 
Q 20.015625 56 32.328125 56 
Q 43.359375 56 49.78125 48.890625 
Q 56.203125 41.796875 56.203125 29.59375 
z
M 47.21875 32.234375 
Q 47.125 39.59375 43.09375 43.984375 
Q 39.0625 48.390625 32.421875 48.390625 
Q 24.90625 48.390625 20.390625 44.140625 
Q 15.875 39.890625 15.1875 32.171875 
z
" id="DejaVuSans-101"/>
       <path d="M 45.40625 46.390625 
L 45.40625 75.984375 
L 54.390625 75.984375 
L 54.390625 0 
L 45.40625 0 
L 45.40625 8.203125 
Q 42.578125 3.328125 38.25 0.953125 
Q 33.9375 -1.421875 27.875 -1.421875 
Q 17.96875 -1.421875 11.734375 6.484375 
Q 5.515625 14.40625 5.515625 27.296875 
Q 5.515625 40.1875 11.734375 48.09375 
Q 17.96875 56 27.875 56 
Q 33.9375 56 38.25 53.625 
Q 42.578125 51.265625 45.40625 46.390625 
z
M 14.796875 27.296875 
Q 14.796875 17.390625 18.875 11.75 
Q 22.953125 6.109375 30.078125 6.109375 
Q 37.203125 6.109375 41.296875 11.75 
Q 45.40625 17.390625 45.40625 27.296875 
Q 45.40625 37.203125 41.296875 42.84375 
Q 37.203125 48.484375 30.078125 48.484375 
Q 22.953125 48.484375 18.875 42.84375 
Q 14.796875 37.203125 14.796875 27.296875 
z
" id="DejaVuSans-100"/>
       <path d="M 9.421875 54.6875 
L 18.40625 54.6875 
L 18.40625 0 
L 9.421875 0 
z
M 9.421875 75.984375 
L 18.40625 75.984375 
L 18.40625 64.59375 
L 9.421875 64.59375 
z
" id="DejaVuSans-105"/>
       <path d="M 8.5 21.578125 
L 8.5 54.6875 
L 17.484375 54.6875 
L 17.484375 21.921875 
Q 17.484375 14.15625 20.5 10.265625 
Q 23.53125 6.390625 29.59375 6.390625 
Q 36.859375 6.390625 41.078125 11.03125 
Q 45.3125 15.671875 45.3125 23.6875 
L 45.3125 54.6875 
L 54.296875 54.6875 
L 54.296875 0 
L 45.3125 0 
L 45.3125 8.40625 
Q 42.046875 3.421875 37.71875 1 
Q 33.40625 -1.421875 27.6875 -1.421875 
Q 18.265625 -1.421875 13.375 4.4375 
Q 8.5 10.296875 8.5 21.578125 
z
M 31.109375 56 
z
" id="DejaVuSans-117"/>
      </defs>
      <g style="fill:#4d4d4d;" transform="translate(142.186514 191.6975)rotate(-90)scale(0.088 -0.088)">
       <use xlink:href="#DejaVuSans-108"/>
       <use x="27.783203" xlink:href="#DejaVuSans-111"/>
       <use x="88.964844" xlink:href="#DejaVuSans-119"/>
       <use x="170.751953" xlink:href="#DejaVuSans-45"/>
       <use x="206.835938" xlink:href="#DejaVuSans-109"/>
       <use x="304.248047" xlink:href="#DejaVuSans-101"/>
       <use x="365.771484" xlink:href="#DejaVuSans-100"/>
       <use x="429.248047" xlink:href="#DejaVuSans-105"/>
       <use x="457.03125" xlink:href="#DejaVuSans-117"/>
       <use x="520.410156" xlink:href="#DejaVuSans-109"/>
      </g>
     </g>
    </g>
    <g id="xtick_3">
     <g id="line2d_3">
      <path d="M 160.735187 132.38 
" style="fill:none;stroke:#333333;stroke-width:1.5;"/>
      <g>
       <use style="fill:#333333;stroke:#333333;" x="160.735187" xlink:href="#m37e628778d" y="132.38"/>
      </g>
     </g>
     <g id="text_3">
      <!-- medium -->
      <g style="fill:#4d4d4d;" transform="translate(163.163437 173.496625)rotate(-90)scale(0.088 -0.088)">
       <use xlink:href="#DejaVuSans-109"/>
       <use x="97.412109" xlink:href="#DejaVuSans-101"/>
       <use x="158.935547" xlink:href="#DejaVuSans-100"/>
       <use x="222.412109" xlink:href="#DejaVuSans-105"/>
       <use x="250.195312" xlink:href="#DejaVuSans-117"/>
       <use x="313.574219" xlink:href="#DejaVuSans-109"/>
      </g>
     </g>
    </g>
    <g id="xtick_4">
     <g id="line2d_4">
      <path d="M 181.712111 132.38 
" style="fill:none;stroke:#333333;stroke-width:1.5;"/>
      <g>
       <use style="fill:#333333;stroke:#333333;" x="181.712111" xlink:href="#m37e628778d" y="132.38"/>
      </g>
     </g>
     <g id="text_4">
      <!-- medium-high -->
      <defs>
       <path d="M 54.890625 33.015625 
L 54.890625 0 
L 45.90625 0 
L 45.90625 32.71875 
Q 45.90625 40.484375 42.875 44.328125 
Q 39.84375 48.1875 33.796875 48.1875 
Q 26.515625 48.1875 22.3125 43.546875 
Q 18.109375 38.921875 18.109375 30.90625 
L 18.109375 0 
L 9.078125 0 
L 9.078125 75.984375 
L 18.109375 75.984375 
L 18.109375 46.1875 
Q 21.34375 51.125 25.703125 53.5625 
Q 30.078125 56 35.796875 56 
Q 45.21875 56 50.046875 50.171875 
Q 54.890625 44.34375 54.890625 33.015625 
z
" id="DejaVuSans-104"/>
       <path d="M 45.40625 27.984375 
Q 45.40625 37.75 41.375 43.109375 
Q 37.359375 48.484375 30.078125 48.484375 
Q 22.859375 48.484375 18.828125 43.109375 
Q 14.796875 37.75 14.796875 27.984375 
Q 14.796875 18.265625 18.828125 12.890625 
Q 22.859375 7.515625 30.078125 7.515625 
Q 37.359375 7.515625 41.375 12.890625 
Q 45.40625 18.265625 45.40625 27.984375 
z
M 54.390625 6.78125 
Q 54.390625 -7.171875 48.1875 -13.984375 
Q 42 -20.796875 29.203125 -20.796875 
Q 24.46875 -20.796875 20.265625 -20.09375 
Q 16.0625 -19.390625 12.109375 -17.921875 
L 12.109375 -9.1875 
Q 16.0625 -11.328125 19.921875 -12.34375 
Q 23.78125 -13.375 27.78125 -13.375 
Q 36.625 -13.375 41.015625 -8.765625 
Q 45.40625 -4.15625 45.40625 5.171875 
L 45.40625 9.625 
Q 42.625 4.78125 38.28125 2.390625 
Q 33.9375 0 27.875 0 
Q 17.828125 0 11.671875 7.65625 
Q 5.515625 15.328125 5.515625 27.984375 
Q 5.515625 40.671875 11.671875 48.328125 
Q 17.828125 56 27.875 56 
Q 33.9375 56 38.28125 53.609375 
Q 42.625 51.21875 45.40625 46.390625 
L 45.40625 54.6875 
L 54.390625 54.6875 
z
" id="DejaVuSans-103"/>
      </defs>
      <g style="fill:#4d4d4d;" transform="translate(184.140361 195.856875)rotate(-90)scale(0.088 -0.088)">
       <use xlink:href="#DejaVuSans-109"/>
       <use x="97.412109" xlink:href="#DejaVuSans-101"/>
       <use x="158.935547" xlink:href="#DejaVuSans-100"/>
       <use x="222.412109" xlink:href="#DejaVuSans-105"/>
       <use x="250.195312" xlink:href="#DejaVuSans-117"/>
       <use x="313.574219" xlink:href="#DejaVuSans-109"/>
       <use x="410.986328" xlink:href="#DejaVuSans-45"/>
       <use x="447.070312" xlink:href="#DejaVuSans-104"/>
       <use x="510.449219" xlink:href="#DejaVuSans-105"/>
       <use x="538.232422" xlink:href="#DejaVuSans-103"/>
       <use x="601.708984" xlink:href="#DejaVuSans-104"/>
      </g>
     </g>
    </g>
    <g id="xtick_5">
     <g id="line2d_5">
      <path d="M 202.689034 132.38 
" style="fill:none;stroke:#333333;stroke-width:1.5;"/>
      <g>
       <use style="fill:#333333;stroke:#333333;" x="202.689034" xlink:href="#m37e628778d" y="132.38"/>
      </g>
     </g>
     <g id="text_5">
      <!-- high -->
      <g style="fill:#4d4d4d;" transform="translate(205.117284 156.515375)rotate(-90)scale(0.088 -0.088)">
       <use xlink:href="#DejaVuSans-104"/>
       <use x="63.378906" xlink:href="#DejaVuSans-105"/>
       <use x="91.162109" xlink:href="#DejaVuSans-103"/>
       <use x="154.638672" xlink:href="#DejaVuSans-104"/>
      </g>
     </g>
    </g>
   </g>
   <g id="matplotlib.axis_2">
    <g id="ytick_1">
     <g id="line2d_6">
      <path d="M 106.195188 116.54 
" style="fill:none;stroke:#333333;stroke-width:1.5;"/>
      <defs>
       <path d="M 0 0 
L -2.75 0 
" id="m66f38bd3f5" style="stroke:#333333;"/>
      </defs>
      <g>
       <use style="fill:#333333;stroke:#333333;" x="106.195188" xlink:href="#m66f38bd3f5" y="116.54"/>
      </g>
     </g>
     <g id="text_6">
      <!-- extra escape -->
      <defs>
       <path d="M 54.890625 54.6875 
L 35.109375 28.078125 
L 55.90625 0 
L 45.3125 0 
L 29.390625 21.484375 
L 13.484375 0 
L 2.875 0 
L 24.125 28.609375 
L 4.6875 54.6875 
L 15.28125 54.6875 
L 29.78125 35.203125 
L 44.28125 54.6875 
z
" id="DejaVuSans-120"/>
       <path d="M 18.3125 70.21875 
L 18.3125 54.6875 
L 36.8125 54.6875 
L 36.8125 47.703125 
L 18.3125 47.703125 
L 18.3125 18.015625 
Q 18.3125 11.328125 20.140625 9.421875 
Q 21.96875 7.515625 27.59375 7.515625 
L 36.8125 7.515625 
L 36.8125 0 
L 27.59375 0 
Q 17.1875 0 13.234375 3.875 
Q 9.28125 7.765625 9.28125 18.015625 
L 9.28125 47.703125 
L 2.6875 47.703125 
L 2.6875 54.6875 
L 9.28125 54.6875 
L 9.28125 70.21875 
z
" id="DejaVuSans-116"/>
       <path d="M 41.109375 46.296875 
Q 39.59375 47.171875 37.8125 47.578125 
Q 36.03125 48 33.890625 48 
Q 26.265625 48 22.1875 43.046875 
Q 18.109375 38.09375 18.109375 28.8125 
L 18.109375 0 
L 9.078125 0 
L 9.078125 54.6875 
L 18.109375 54.6875 
L 18.109375 46.1875 
Q 20.953125 51.171875 25.484375 53.578125 
Q 30.03125 56 36.53125 56 
Q 37.453125 56 38.578125 55.875 
Q 39.703125 55.765625 41.0625 55.515625 
z
" id="DejaVuSans-114"/>
       <path d="M 34.28125 27.484375 
Q 23.390625 27.484375 19.1875 25 
Q 14.984375 22.515625 14.984375 16.5 
Q 14.984375 11.71875 18.140625 8.90625 
Q 21.296875 6.109375 26.703125 6.109375 
Q 34.1875 6.109375 38.703125 11.40625 
Q 43.21875 16.703125 43.21875 25.484375 
L 43.21875 27.484375 
z
M 52.203125 31.203125 
L 52.203125 0 
L 43.21875 0 
L 43.21875 8.296875 
Q 40.140625 3.328125 35.546875 0.953125 
Q 30.953125 -1.421875 24.3125 -1.421875 
Q 15.921875 -1.421875 10.953125 3.296875 
Q 6 8.015625 6 15.921875 
Q 6 25.140625 12.171875 29.828125 
Q 18.359375 34.515625 30.609375 34.515625 
L 43.21875 34.515625 
L 43.21875 35.40625 
Q 43.21875 41.609375 39.140625 45 
Q 35.0625 48.390625 27.6875 48.390625 
Q 23 48.390625 18.546875 47.265625 
Q 14.109375 46.140625 10.015625 43.890625 
L 10.015625 52.203125 
Q 14.9375 54.109375 19.578125 55.046875 
Q 24.21875 56 28.609375 56 
Q 40.484375 56 46.34375 49.84375 
Q 52.203125 43.703125 52.203125 31.203125 
z
" id="DejaVuSans-97"/>
       <path id="DejaVuSans-32"/>
       <path d="M 44.28125 53.078125 
L 44.28125 44.578125 
Q 40.484375 46.53125 36.375 47.5 
Q 32.28125 48.484375 27.875 48.484375 
Q 21.1875 48.484375 17.84375 46.4375 
Q 14.5 44.390625 14.5 40.28125 
Q 14.5 37.15625 16.890625 35.375 
Q 19.28125 33.59375 26.515625 31.984375 
L 29.59375 31.296875 
Q 39.15625 29.25 43.1875 25.515625 
Q 47.21875 21.78125 47.21875 15.09375 
Q 47.21875 7.46875 41.1875 3.015625 
Q 35.15625 -1.421875 24.609375 -1.421875 
Q 20.21875 -1.421875 15.453125 -0.5625 
Q 10.6875 0.296875 5.421875 2 
L 5.421875 11.28125 
Q 10.40625 8.6875 15.234375 7.390625 
Q 20.0625 6.109375 24.8125 6.109375 
Q 31.15625 6.109375 34.5625 8.28125 
Q 37.984375 10.453125 37.984375 14.40625 
Q 37.984375 18.0625 35.515625 20.015625 
Q 33.0625 21.96875 24.703125 23.78125 
L 21.578125 24.515625 
Q 13.234375 26.265625 9.515625 29.90625 
Q 5.8125 33.546875 5.8125 39.890625 
Q 5.8125 47.609375 11.28125 51.796875 
Q 16.75 56 26.8125 56 
Q 31.78125 56 36.171875 55.265625 
Q 40.578125 54.546875 44.28125 53.078125 
z
" id="DejaVuSans-115"/>
       <path d="M 48.78125 52.59375 
L 48.78125 44.1875 
Q 44.96875 46.296875 41.140625 47.34375 
Q 37.3125 48.390625 33.40625 48.390625 
Q 24.65625 48.390625 19.8125 42.84375 
Q 14.984375 37.3125 14.984375 27.296875 
Q 14.984375 17.28125 19.8125 11.734375 
Q 24.65625 6.203125 33.40625 6.203125 
Q 37.3125 6.203125 41.140625 7.25 
Q 44.96875 8.296875 48.78125 10.40625 
L 48.78125 2.09375 
Q 45.015625 0.34375 40.984375 -0.53125 
Q 36.96875 -1.421875 32.421875 -1.421875 
Q 20.0625 -1.421875 12.78125 6.34375 
Q 5.515625 14.109375 5.515625 27.296875 
Q 5.515625 40.671875 12.859375 48.328125 
Q 20.21875 56 33.015625 56 
Q 37.15625 56 41.109375 55.140625 
Q 45.0625 54.296875 48.78125 52.59375 
z
" id="DejaVuSans-99"/>
       <path d="M 18.109375 8.203125 
L 18.109375 -20.796875 
L 9.078125 -20.796875 
L 9.078125 54.6875 
L 18.109375 54.6875 
L 18.109375 46.390625 
Q 20.953125 51.265625 25.265625 53.625 
Q 29.59375 56 35.59375 56 
Q 45.5625 56 51.78125 48.09375 
Q 58.015625 40.1875 58.015625 27.296875 
Q 58.015625 14.40625 51.78125 6.484375 
Q 45.5625 -1.421875 35.59375 -1.421875 
Q 29.59375 -1.421875 25.265625 0.953125 
Q 20.953125 3.328125 18.109375 8.203125 
z
M 48.6875 27.296875 
Q 48.6875 37.203125 44.609375 42.84375 
Q 40.53125 48.484375 33.40625 48.484375 
Q 26.265625 48.484375 22.1875 42.84375 
Q 18.109375 37.203125 18.109375 27.296875 
Q 18.109375 17.390625 22.1875 11.75 
Q 26.265625 6.109375 33.40625 6.109375 
Q 40.53125 6.109375 44.609375 11.75 
Q 48.6875 17.390625 48.6875 27.296875 
z
" id="DejaVuSans-112"/>
      </defs>
      <g style="fill:#4d4d4d;" transform="translate(44.287187 118.96825)scale(0.088 -0.088)">
       <use xlink:href="#DejaVuSans-101"/>
       <use x="59.773438" xlink:href="#DejaVuSans-120"/>
       <use x="118.953125" xlink:href="#DejaVuSans-116"/>
       <use x="158.162109" xlink:href="#DejaVuSans-114"/>
       <use x="199.275391" xlink:href="#DejaVuSans-97"/>
       <use x="260.554688" xlink:href="#DejaVuSans-32"/>
       <use x="292.341797" xlink:href="#DejaVuSans-101"/>
       <use x="353.865234" xlink:href="#DejaVuSans-115"/>
       <use x="405.964844" xlink:href="#DejaVuSans-99"/>
       <use x="460.945312" xlink:href="#DejaVuSans-97"/>
       <use x="522.224609" xlink:href="#DejaVuSans-112"/>
       <use x="585.701172" xlink:href="#DejaVuSans-101"/>
      </g>
     </g>
    </g>
    <g id="ytick_2">
     <g id="line2d_7">
      <path d="M 106.195188 90.14 
" style="fill:none;stroke:#333333;stroke-width:1.5;"/>
      <g>
       <use style="fill:#333333;stroke:#333333;" x="106.195188" xlink:href="#m66f38bd3f5" y="90.14"/>
      </g>
     </g>
     <g id="text_7">
      <!-- normal -->
      <defs>
       <path d="M 54.890625 33.015625 
L 54.890625 0 
L 45.90625 0 
L 45.90625 32.71875 
Q 45.90625 40.484375 42.875 44.328125 
Q 39.84375 48.1875 33.796875 48.1875 
Q 26.515625 48.1875 22.3125 43.546875 
Q 18.109375 38.921875 18.109375 30.90625 
L 18.109375 0 
L 9.078125 0 
L 9.078125 54.6875 
L 18.109375 54.6875 
L 18.109375 46.1875 
Q 21.34375 51.125 25.703125 53.5625 
Q 30.078125 56 35.796875 56 
Q 45.21875 56 50.046875 50.171875 
Q 54.890625 44.34375 54.890625 33.015625 
z
" id="DejaVuSans-110"/>
      </defs>
      <g style="fill:#4d4d4d;" transform="translate(70.410812 92.56825)scale(0.088 -0.088)">
       <use xlink:href="#DejaVuSans-110"/>
       <use x="63.378906" xlink:href="#DejaVuSans-111"/>
       <use x="124.560547" xlink:href="#DejaVuSans-114"/>
       <use x="163.923828" xlink:href="#DejaVuSans-109"/>
       <use x="261.335938" xlink:href="#DejaVuSans-97"/>
       <use x="322.615234" xlink:href="#DejaVuSans-108"/>
      </g>
     </g>
    </g>
    <g id="ytick_3">
     <g id="line2d_8">
      <path d="M 106.195188 63.74 
" style="fill:none;stroke:#333333;stroke-width:1.5;"/>
      <g>
       <use style="fill:#333333;stroke:#333333;" x="106.195188" xlink:href="#m66f38bd3f5" y="63.74"/>
      </g>
     </g>
     <g id="text_8">
      <!-- normal-no escape -->
      <g style="fill:#4d4d4d;" transform="translate(22.245937 66.16825)scale(0.088 -0.088)">
       <use xlink:href="#DejaVuSans-110"/>
       <use x="63.378906" xlink:href="#DejaVuSans-111"/>
       <use x="124.560547" xlink:href="#DejaVuSans-114"/>
       <use x="163.923828" xlink:href="#DejaVuSans-109"/>
       <use x="261.335938" xlink:href="#DejaVuSans-97"/>
       <use x="322.615234" xlink:href="#DejaVuSans-108"/>
       <use x="350.398438" xlink:href="#DejaVuSans-45"/>
       <use x="386.482422" xlink:href="#DejaVuSans-110"/>
       <use x="449.861328" xlink:href="#DejaVuSans-111"/>
       <use x="511.042969" xlink:href="#DejaVuSans-32"/>
       <use x="542.830078" xlink:href="#DejaVuSans-101"/>
       <use x="604.353516" xlink:href="#DejaVuSans-115"/>
       <use x="656.453125" xlink:href="#DejaVuSans-99"/>
       <use x="711.433594" xlink:href="#DejaVuSans-97"/>
       <use x="772.712891" xlink:href="#DejaVuSans-112"/>
       <use x="836.189453" xlink:href="#DejaVuSans-101"/>
      </g>
     </g>
    </g>
    <g id="ytick_4">
     <g id="line2d_9">
      <path d="M 106.195188 37.34 
" style="fill:none;stroke:#333333;stroke-width:1.5;"/>
      <g>
       <use style="fill:#333333;stroke:#333333;" x="106.195188" xlink:href="#m66f38bd3f5" y="37.34"/>
      </g>
     </g>
     <g id="text_9">
      <!-- no escape -->
      <g style="fill:#4d4d4d;" transform="translate(56.255187 39.76825)scale(0.088 -0.088)">
       <use xlink:href="#DejaVuSans-110"/>
       <use x="63.378906" xlink:href="#DejaVuSans-111"/>
       <use x="124.560547" xlink:href="#DejaVuSans-32"/>
       <use x="156.347656" xlink:href="#DejaVuSans-101"/>
       <use x="217.871094" xlink:href="#DejaVuSans-115"/>
       <use x="269.970703" xlink:href="#DejaVuSans-99"/>
       <use x="324.951172" xlink:href="#DejaVuSans-97"/>
       <use x="386.230469" xlink:href="#DejaVuSans-112"/>
       <use x="449.707031" xlink:href="#DejaVuSans-101"/>
      </g>
     </g>
    </g>
    <g id="text_10">
     <!-- FACS plot shape -->
     <defs>
      <path d="M 9.8125 72.90625 
L 51.703125 72.90625 
L 51.703125 64.59375 
L 19.671875 64.59375 
L 19.671875 43.109375 
L 48.578125 43.109375 
L 48.578125 34.8125 
L 19.671875 34.8125 
L 19.671875 0 
L 9.8125 0 
z
" id="DejaVuSans-70"/>
      <path d="M 34.1875 63.1875 
L 20.796875 26.90625 
L 47.609375 26.90625 
z
M 28.609375 72.90625 
L 39.796875 72.90625 
L 67.578125 0 
L 57.328125 0 
L 50.6875 18.703125 
L 17.828125 18.703125 
L 11.1875 0 
L 0.78125 0 
z
" id="DejaVuSans-65"/>
      <path d="M 64.40625 67.28125 
L 64.40625 56.890625 
Q 59.421875 61.53125 53.78125 63.8125 
Q 48.140625 66.109375 41.796875 66.109375 
Q 29.296875 66.109375 22.65625 58.46875 
Q 16.015625 50.828125 16.015625 36.375 
Q 16.015625 21.96875 22.65625 14.328125 
Q 29.296875 6.6875 41.796875 6.6875 
Q 48.140625 6.6875 53.78125 8.984375 
Q 59.421875 11.28125 64.40625 15.921875 
L 64.40625 5.609375 
Q 59.234375 2.09375 53.4375 0.328125 
Q 47.65625 -1.421875 41.21875 -1.421875 
Q 24.65625 -1.421875 15.125 8.703125 
Q 5.609375 18.84375 5.609375 36.375 
Q 5.609375 53.953125 15.125 64.078125 
Q 24.65625 74.21875 41.21875 74.21875 
Q 47.75 74.21875 53.53125 72.484375 
Q 59.328125 70.75 64.40625 67.28125 
z
" id="DejaVuSans-67"/>
      <path d="M 53.515625 70.515625 
L 53.515625 60.890625 
Q 47.90625 63.578125 42.921875 64.890625 
Q 37.9375 66.21875 33.296875 66.21875 
Q 25.25 66.21875 20.875 63.09375 
Q 16.5 59.96875 16.5 54.203125 
Q 16.5 49.359375 19.40625 46.890625 
Q 22.3125 44.4375 30.421875 42.921875 
L 36.375 41.703125 
Q 47.40625 39.59375 52.65625 34.296875 
Q 57.90625 29 57.90625 20.125 
Q 57.90625 9.515625 50.796875 4.046875 
Q 43.703125 -1.421875 29.984375 -1.421875 
Q 24.8125 -1.421875 18.96875 -0.25 
Q 13.140625 0.921875 6.890625 3.21875 
L 6.890625 13.375 
Q 12.890625 10.015625 18.65625 8.296875 
Q 24.421875 6.59375 29.984375 6.59375 
Q 38.421875 6.59375 43.015625 9.90625 
Q 47.609375 13.234375 47.609375 19.390625 
Q 47.609375 24.75 44.3125 27.78125 
Q 41.015625 30.8125 33.5 32.328125 
L 27.484375 33.5 
Q 16.453125 35.6875 11.515625 40.375 
Q 6.59375 45.0625 6.59375 53.421875 
Q 6.59375 63.09375 13.40625 68.65625 
Q 20.21875 74.21875 32.171875 74.21875 
Q 37.3125 74.21875 42.625 73.28125 
Q 47.953125 72.359375 53.515625 70.515625 
z
" id="DejaVuSans-83"/>
     </defs>
     <g transform="translate(15.558281 120.513906)rotate(-90)scale(0.11 -0.11)">
      <use xlink:href="#DejaVuSans-70"/>
      <use x="48.394531" xlink:href="#DejaVuSans-65"/>
      <use x="115.052734" xlink:href="#DejaVuSans-67"/>
      <use x="184.876953" xlink:href="#DejaVuSans-83"/>
      <use x="248.353516" xlink:href="#DejaVuSans-32"/>
      <use x="280.140625" xlink:href="#DejaVuSans-112"/>
      <use x="343.617188" xlink:href="#DejaVuSans-108"/>
      <use x="371.400391" xlink:href="#DejaVuSans-111"/>
      <use x="432.582031" xlink:href="#DejaVuSans-116"/>
      <use x="471.791016" xlink:href="#DejaVuSans-32"/>
      <use x="503.578125" xlink:href="#DejaVuSans-115"/>
      <use x="555.677734" xlink:href="#DejaVuSans-104"/>
      <use x="619.056641" xlink:href="#DejaVuSans-97"/>
      <use x="680.335938" xlink:href="#DejaVuSans-112"/>
      <use x="743.8125" xlink:href="#DejaVuSans-101"/>
     </g>
    </g>
   </g>
   <g id="PathCollection_1">
    <path clip-path="url(#pde98f54275)" d="M 120.516273 93.070124 
C 121.221364 93.070124 121.89767 92.789989 122.396244 92.291414 
C 122.894819 91.79284 123.174954 91.116534 123.174954 90.411443 
C 123.174954 89.706353 122.894819 89.030046 122.396244 88.531472 
C 121.89767 88.032898 121.221364 87.752762 120.516273 87.752762 
C 119.811183 87.752762 119.134876 88.032898 118.636302 88.531472 
C 118.137728 89.030046 117.857592 89.706353 117.857592 90.411443 
C 117.857592 91.116534 118.137728 91.79284 118.636302 92.291414 
C 119.134876 92.789989 119.811183 93.070124 120.516273 93.070124 
z
" style="fill-opacity:0.25098;stroke:#000000;stroke-opacity:0.25098;stroke-width:0.886227;"/>
    <path clip-path="url(#pde98f54275)" d="M 162.3872 66.314792 
C 163.09229 66.314792 163.768597 66.034657 164.267171 65.536083 
C 164.765745 65.037509 165.04588 64.361202 165.04588 63.656111 
C 165.04588 62.951021 164.765745 62.274714 164.267171 61.77614 
C 163.768597 61.277566 163.09229 60.997431 162.3872 60.997431 
C 161.682109 60.997431 161.005803 61.277566 160.507228 61.77614 
C 160.008654 62.274714 159.728519 62.951021 159.728519 63.656111 
C 159.728519 64.361202 160.008654 65.037509 160.507228 65.536083 
C 161.005803 66.034657 161.682109 66.314792 162.3872 66.314792 
z
" style="fill-opacity:0.25098;stroke:#000000;stroke-opacity:0.25098;stroke-width:0.886227;"/>
    <path clip-path="url(#pde98f54275)" d="M 204.788105 38.870299 
C 205.493195 38.870299 206.169502 38.590164 206.668076 38.09159 
C 207.16665 37.593016 207.446786 36.916709 207.446786 36.211619 
C 207.446786 35.506528 207.16665 34.830222 206.668076 34.331647 
C 206.169502 33.833073 205.493195 33.552938 204.788105 33.552938 
C 204.083015 33.552938 203.406708 33.833073 202.908134 34.331647 
C 202.40956 34.830222 202.129424 35.506528 202.129424 36.211619 
C 202.129424 36.916709 202.40956 37.593016 202.908134 38.09159 
C 203.406708 38.590164 204.083015 38.870299 204.788105 38.870299 
z
" style="fill-opacity:0.25098;stroke:#000000;stroke-opacity:0.25098;stroke-width:0.886227;"/>
    <path clip-path="url(#pde98f54275)" d="M 117.163162 89.977765 
C 117.868252 89.977765 118.544559 89.69763 119.043133 89.199056 
C 119.541707 88.700482 119.821843 88.024175 119.821843 87.319085 
C 119.821843 86.613994 119.541707 85.937688 119.043133 85.439114 
C 118.544559 84.940539 117.868252 84.660404 117.163162 84.660404 
C 116.458071 84.660404 115.781765 84.940539 115.283191 85.439114 
C 114.784616 85.937688 114.504481 86.613994 114.504481 87.319085 
C 114.504481 88.024175 114.784616 88.700482 115.283191 89.199056 
C 115.781765 89.69763 116.458071 89.977765 117.163162 89.977765 
z
" style="fill-opacity:0.25098;stroke:#000000;stroke-opacity:0.25098;stroke-width:0.886227;"/>
    <path clip-path="url(#pde98f54275)" d="M 202.311523 39.53036 
C 203.016613 39.53036 203.69292 39.250225 204.191494 38.751651 
C 204.690068 38.253077 204.970204 37.57677 204.970204 36.87168 
C 204.970204 36.166589 204.690068 35.490283 204.191494 34.991708 
C 203.69292 34.493134 203.016613 34.212999 202.311523 34.212999 
C 201.606433 34.212999 200.930126 34.493134 200.431552 34.991708 
C 199.932978 35.490283 199.652842 36.166589 199.652842 36.87168 
C 199.652842 37.57677 199.932978 38.253077 200.431552 38.751651 
C 200.930126 39.250225 201.606433 39.53036 202.311523 39.53036 
z
" style="fill-opacity:0.25098;stroke:#000000;stroke-opacity:0.25098;stroke-width:0.886227;"/>
    <path clip-path="url(#pde98f54275)" d="M 116.601336 92.715757 
C 117.306426 92.715757 117.982733 92.435622 118.481307 91.937048 
C 118.979881 91.438473 119.260016 90.762167 119.260016 90.057076 
C 119.260016 89.351986 118.979881 88.675679 118.481307 88.177105 
C 117.982733 87.678531 117.306426 87.398396 116.601336 87.398396 
C 115.896245 87.398396 115.219938 87.678531 114.721364 88.177105 
C 114.22279 88.675679 113.942655 89.351986 113.942655 90.057076 
C 113.942655 90.762167 114.22279 91.438473 114.721364 91.937048 
C 115.219938 92.435622 115.896245 92.715757 116.601336 92.715757 
z
" style="fill-opacity:0.25098;stroke:#000000;stroke-opacity:0.25098;stroke-width:0.886227;"/>
    <path clip-path="url(#pde98f54275)" d="M 116.39457 92.179616 
C 117.09966 92.179616 117.775967 91.899481 118.274541 91.400906 
C 118.773115 90.902332 119.053251 90.226026 119.053251 89.520935 
C 119.053251 88.815845 118.773115 88.139538 118.274541 87.640964 
C 117.775967 87.14239 117.09966 86.862254 116.39457 86.862254 
C 115.68948 86.862254 115.013173 87.14239 114.514599 87.640964 
C 114.016025 88.139538 113.735889 88.815845 113.735889 89.520935 
C 113.735889 90.226026 114.016025 90.902332 114.514599 91.400906 
C 115.013173 91.899481 115.68948 92.179616 116.39457 92.179616 
z
" style="fill-opacity:0.25098;stroke:#000000;stroke-opacity:0.25098;stroke-width:0.886227;"/>
    <path clip-path="url(#pde98f54275)" d="M 118.040393 94.326159 
C 118.745484 94.326159 119.42179 94.046023 119.920365 93.547449 
C 120.418939 93.048875 120.699074 92.372568 120.699074 91.667478 
C 120.699074 90.962388 120.418939 90.286081 119.920365 89.787507 
C 119.42179 89.288933 118.745484 89.008797 118.040393 89.008797 
C 117.335303 89.008797 116.658996 89.288933 116.160422 89.787507 
C 115.661848 90.286081 115.381713 90.962388 115.381713 91.667478 
C 115.381713 92.372568 115.661848 93.048875 116.160422 93.547449 
C 116.658996 94.046023 117.335303 94.326159 118.040393 94.326159 
z
" style="fill-opacity:0.25098;stroke:#000000;stroke-opacity:0.25098;stroke-width:0.886227;"/>
    <path clip-path="url(#pde98f54275)" d="M 117.050209 92.321657 
C 117.755299 92.321657 118.431606 92.041521 118.93018 91.542947 
C 119.428754 91.044373 119.708889 90.368066 119.708889 89.662976 
C 119.708889 88.957885 119.428754 88.281579 118.93018 87.783005 
C 118.431606 87.28443 117.755299 87.004295 117.050209 87.004295 
C 116.345118 87.004295 115.668812 87.28443 115.170237 87.783005 
C 114.671663 88.281579 114.391528 88.957885 114.391528 89.662976 
C 114.391528 90.368066 114.671663 91.044373 115.170237 91.542947 
C 115.668812 92.041521 116.345118 92.321657 117.050209 92.321657 
z
" style="fill-opacity:0.25098;stroke:#000000;stroke-opacity:0.25098;stroke-width:0.886227;"/>
    <path clip-path="url(#pde98f54275)" d="M 119.182721 92.960859 
C 119.887811 92.960859 120.564118 92.680723 121.062692 92.182149 
C 121.561266 91.683575 121.841401 91.007268 121.841401 90.302178 
C 121.841401 89.597087 121.561266 88.920781 121.062692 88.422207 
C 120.564118 87.923632 119.887811 87.643497 119.182721 87.643497 
C 118.47763 87.643497 117.801324 87.923632 117.302749 88.422207 
C 116.804175 88.920781 116.52404 89.597087 116.52404 90.302178 
C 116.52404 91.007268 116.804175 91.683575 117.302749 92.182149 
C 117.801324 92.680723 118.47763 92.960859 119.182721 92.960859 
z
" style="fill-opacity:0.25098;stroke:#000000;stroke-opacity:0.25098;stroke-width:0.886227;"/>
    <path clip-path="url(#pde98f54275)" d="M 119.460982 93.599073 
C 120.166073 93.599073 120.842379 93.318937 121.340953 92.820363 
C 121.839528 92.321789 122.119663 91.645482 122.119663 90.940392 
C 122.119663 90.235302 121.839528 89.558995 121.340953 89.060421 
C 120.842379 88.561847 120.166073 88.281711 119.460982 88.281711 
C 118.755892 88.281711 118.079585 88.561847 117.581011 89.060421 
C 117.082437 89.558995 116.802301 90.235302 116.802301 90.940392 
C 116.802301 91.645482 117.082437 92.321789 117.581011 92.820363 
C 118.079585 93.318937 118.755892 93.599073 119.460982 93.599073 
z
" style="fill-opacity:0.25098;stroke:#000000;stroke-opacity:0.25098;stroke-width:0.886227;"/>
    <path clip-path="url(#pde98f54275)" d="M 119.069544 90.693133 
C 119.774635 90.693133 120.450941 90.412998 120.949516 89.914424 
C 121.44809 89.415849 121.728225 88.739543 121.728225 88.034452 
C 121.728225 87.329362 121.44809 86.653055 120.949516 86.154481 
C 120.450941 85.655907 119.774635 85.375772 119.069544 85.375772 
C 118.364454 85.375772 117.688147 85.655907 117.189573 86.154481 
C 116.690999 86.653055 116.410864 87.329362 116.410864 88.034452 
C 116.410864 88.739543 116.690999 89.415849 117.189573 89.914424 
C 117.688147 90.412998 118.364454 90.693133 119.069544 90.693133 
z
" style="fill-opacity:0.25098;stroke:#000000;stroke-opacity:0.25098;stroke-width:0.886227;"/>
    <path clip-path="url(#pde98f54275)" d="M 158.450753 62.45043 
C 159.155844 62.45043 159.83215 62.170294 160.330724 61.67172 
C 160.829299 61.173146 161.109434 60.496839 161.109434 59.791749 
C 161.109434 59.086658 160.829299 58.410352 160.330724 57.911778 
C 159.83215 57.413203 159.155844 57.133068 158.450753 57.133068 
C 157.745663 57.133068 157.069356 57.413203 156.570782 57.911778 
C 156.072208 58.410352 155.792072 59.086658 155.792072 59.791749 
C 155.792072 60.496839 156.072208 61.173146 156.570782 61.67172 
C 157.069356 62.170294 157.745663 62.45043 158.450753 62.45043 
z
" style="fill-opacity:0.25098;stroke:#000000;stroke-opacity:0.25098;stroke-width:0.886227;"/>
    <path clip-path="url(#pde98f54275)" d="M 157.985522 66.465375 
C 158.690613 66.465375 159.366919 66.185239 159.865494 65.686665 
C 160.364068 65.188091 160.644203 64.511784 160.644203 63.806694 
C 160.644203 63.101603 160.364068 62.425297 159.865494 61.926723 
C 159.366919 61.428148 158.690613 61.148013 157.985522 61.148013 
C 157.280432 61.148013 156.604125 61.428148 156.105551 61.926723 
C 155.606977 62.425297 155.326842 63.101603 155.326842 63.806694 
C 155.326842 64.511784 155.606977 65.188091 156.105551 65.686665 
C 156.604125 66.185239 157.280432 66.465375 157.985522 66.465375 
z
" style="fill-opacity:0.25098;stroke:#000000;stroke-opacity:0.25098;stroke-width:0.886227;"/>
    <path clip-path="url(#pde98f54275)" d="M 202.211765 42.188211 
C 202.916856 42.188211 203.593162 41.908075 204.091737 41.409501 
C 204.590311 40.910927 204.870446 40.23462 204.870446 39.52953 
C 204.870446 38.82444 204.590311 38.148133 204.091737 37.649559 
C 203.593162 37.150985 202.916856 36.870849 202.211765 36.870849 
C 201.506675 36.870849 200.830368 37.150985 200.331794 37.649559 
C 199.83322 38.148133 199.553085 38.82444 199.553085 39.52953 
C 199.553085 40.23462 199.83322 40.910927 200.331794 41.409501 
C 200.830368 41.908075 201.506675 42.188211 202.211765 42.188211 
z
" style="fill-opacity:0.25098;stroke:#000000;stroke-opacity:0.25098;stroke-width:0.886227;"/>
    <path clip-path="url(#pde98f54275)" d="M 203.357059 39.381945 
C 204.06215 39.381945 204.738456 39.10181 205.237031 38.603236 
C 205.735605 38.104661 206.01574 37.428355 206.01574 36.723264 
C 206.01574 36.018174 205.735605 35.341867 205.237031 34.843293 
C 204.738456 34.344719 204.06215 34.064584 203.357059 34.064584 
C 202.651969 34.064584 201.975662 34.344719 201.477088 34.843293 
C 200.978514 35.341867 200.698379 36.018174 200.698379 36.723264 
C 200.698379 37.428355 200.978514 38.104661 201.477088 38.603236 
C 201.975662 39.10181 202.651969 39.381945 203.357059 39.381945 
z
" style="fill-opacity:0.25098;stroke:#000000;stroke-opacity:0.25098;stroke-width:0.886227;"/>
    <path clip-path="url(#pde98f54275)" d="M 203.232637 42.599374 
C 203.937727 42.599374 204.614034 42.319239 205.112608 41.820665 
C 205.611182 41.322091 205.891318 40.645784 205.891318 39.940694 
C 205.891318 39.235603 205.611182 38.559297 205.112608 38.060722 
C 204.614034 37.562148 203.937727 37.282013 203.232637 37.282013 
C 202.527547 37.282013 201.85124 37.562148 201.352666 38.060722 
C 200.854091 38.559297 200.573956 39.235603 200.573956 39.940694 
C 200.573956 40.645784 200.854091 41.322091 201.352666 41.820665 
C 201.85124 42.319239 202.527547 42.599374 203.232637 42.599374 
z
" style="fill-opacity:0.25098;stroke:#000000;stroke-opacity:0.25098;stroke-width:0.886227;"/>
    <path clip-path="url(#pde98f54275)" d="M 205.111538 43.706995 
C 205.816629 43.706995 206.492935 43.42686 206.99151 42.928285 
C 207.490084 42.429711 207.770219 41.753405 207.770219 41.048314 
C 207.770219 40.343224 207.490084 39.666917 206.99151 39.168343 
C 206.492935 38.669769 205.816629 38.389634 205.111538 38.389634 
C 204.406448 38.389634 203.730141 38.669769 203.231567 39.168343 
C 202.732993 39.666917 202.452858 40.343224 202.452858 41.048314 
C 202.452858 41.753405 202.732993 42.429711 203.231567 42.928285 
C 203.730141 43.42686 204.406448 43.706995 205.111538 43.706995 
z
" style="fill-opacity:0.25098;stroke:#000000;stroke-opacity:0.25098;stroke-width:0.886227;"/>
    <path clip-path="url(#pde98f54275)" d="M 200.424022 42.326624 
C 201.129112 42.326624 201.805419 42.046488 202.303993 41.547914 
C 202.802567 41.04934 203.082703 40.373033 203.082703 39.667943 
C 203.082703 38.962852 202.802567 38.286546 202.303993 37.787972 
C 201.805419 37.289397 201.129112 37.009262 200.424022 37.009262 
C 199.718932 37.009262 199.042625 37.289397 198.544051 37.787972 
C 198.045477 38.286546 197.765341 38.962852 197.765341 39.667943 
C 197.765341 40.373033 198.045477 41.04934 198.544051 41.547914 
C 199.042625 42.046488 199.718932 42.326624 200.424022 42.326624 
z
" style="fill-opacity:0.25098;stroke:#000000;stroke-opacity:0.25098;stroke-width:0.886227;"/>
    <path clip-path="url(#pde98f54275)" d="M 120.176396 90.024098 
C 120.881486 90.024098 121.557793 89.743963 122.056367 89.245388 
C 122.554941 88.746814 122.835077 88.070508 122.835077 87.365417 
C 122.835077 86.660327 122.554941 85.98402 122.056367 85.485446 
C 121.557793 84.986872 120.881486 84.706736 120.176396 84.706736 
C 119.471306 84.706736 118.794999 84.986872 118.296425 85.485446 
C 117.797851 85.98402 117.517715 86.660327 117.517715 87.365417 
C 117.517715 88.070508 117.797851 88.746814 118.296425 89.245388 
C 118.794999 89.743963 119.471306 90.024098 120.176396 90.024098 
z
" style="fill-opacity:0.25098;stroke:#000000;stroke-opacity:0.25098;stroke-width:0.886227;"/>
    <path clip-path="url(#pde98f54275)" d="M 204.668835 38.703831 
C 205.373925 38.703831 206.050232 38.423695 206.548806 37.925121 
C 207.04738 37.426547 207.327516 36.75024 207.327516 36.04515 
C 207.327516 35.340059 207.04738 34.663753 206.548806 34.165179 
C 206.050232 33.666604 205.373925 33.386469 204.668835 33.386469 
C 203.963745 33.386469 203.287438 33.666604 202.788864 34.165179 
C 202.29029 34.663753 202.010154 35.340059 202.010154 36.04515 
C 202.010154 36.75024 202.29029 37.426547 202.788864 37.925121 
C 203.287438 38.423695 203.963745 38.703831 204.668835 38.703831 
z
" style="fill-opacity:0.25098;stroke:#000000;stroke-opacity:0.25098;stroke-width:0.886227;"/>
    <path clip-path="url(#pde98f54275)" d="M 121.4642 88.938856 
C 122.16929 88.938856 122.845597 88.65872 123.344171 88.160146 
C 123.842745 87.661572 124.12288 86.985265 124.12288 86.280175 
C 124.12288 85.575084 123.842745 84.898778 123.344171 84.400204 
C 122.845597 83.901629 122.16929 83.621494 121.4642 83.621494 
C 120.759109 83.621494 120.082803 83.901629 119.584228 84.400204 
C 119.085654 84.898778 118.805519 85.575084 118.805519 86.280175 
C 118.805519 86.985265 119.085654 87.661572 119.584228 88.160146 
C 120.082803 88.65872 120.759109 88.938856 121.4642 88.938856 
z
" style="fill-opacity:0.25098;stroke:#000000;stroke-opacity:0.25098;stroke-width:0.886227;"/>
   </g>
   <g id="patch_3">
    <path d="M 106.195188 21.5 
L 215.275188 21.5 
L 215.275188 7.2 
L 106.195188 7.2 
z
" style="fill:none;stroke:#000000;stroke-linejoin:miter;"/>
   </g>
   <g id="patch_4">
    <path d="M 106.195188 132.38 
L 106.195188 21.5 
" style="fill:none;stroke:#000000;stroke-linecap:square;stroke-linejoin:miter;"/>
   </g>
   <g id="patch_5">
    <path d="M 106.195188 132.38 
L 215.275188 132.38 
" style="fill:none;stroke:#000000;stroke-linecap:square;stroke-linejoin:miter;"/>
   </g>
   <g id="text_11">
    <!-- convalescent -->
    <defs>
     <path d="M 2.984375 54.6875 
L 12.5 54.6875 
L 29.59375 8.796875 
L 46.6875 54.6875 
L 56.203125 54.6875 
L 35.6875 0 
L 23.484375 0 
z
" id="DejaVuSans-118"/>
    </defs>
    <g style="fill:#1a1a1a;" transform="translate(131.6725 16.77825)scale(0.088 -0.088)">
     <use xlink:href="#DejaVuSans-99"/>
     <use x="54.980469" xlink:href="#DejaVuSans-111"/>
     <use x="116.162109" xlink:href="#DejaVuSans-110"/>
     <use x="179.541016" xlink:href="#DejaVuSans-118"/>
     <use x="238.720703" xlink:href="#DejaVuSans-97"/>
     <use x="300" xlink:href="#DejaVuSans-108"/>
     <use x="327.783203" xlink:href="#DejaVuSans-101"/>
     <use x="389.306641" xlink:href="#DejaVuSans-115"/>
     <use x="441.40625" xlink:href="#DejaVuSans-99"/>
     <use x="496.386719" xlink:href="#DejaVuSans-101"/>
     <use x="557.910156" xlink:href="#DejaVuSans-110"/>
     <use x="621.289062" xlink:href="#DejaVuSans-116"/>
    </g>
   </g>
  </g>
  <g id="axes_2">
   <g id="patch_6">
    <path d="M 220.315188 132.38 
L 329.395188 132.38 
L 329.395188 21.5 
L 220.315188 21.5 
z
" style="fill:#ffffff;"/>
   </g>
   <g id="matplotlib.axis_3">
    <g id="xtick_6">
     <g id="line2d_10">
      <path d="M 232.901341 132.38 
" style="fill:none;stroke:#333333;stroke-linecap:square;stroke-width:1.5;"/>
      <g>
       <use style="fill:#333333;stroke:#333333;" x="232.901341" xlink:href="#m37e628778d" y="132.38"/>
      </g>
     </g>
     <g id="text_12">
      <!-- low -->
      <g style="fill:#4d4d4d;" transform="translate(235.329591 152.356)rotate(-90)scale(0.088 -0.088)">
       <use xlink:href="#DejaVuSans-108"/>
       <use x="27.783203" xlink:href="#DejaVuSans-111"/>
       <use x="88.964844" xlink:href="#DejaVuSans-119"/>
      </g>
     </g>
    </g>
    <g id="xtick_7">
     <g id="line2d_11">
      <path d="M 253.878264 132.38 
" style="fill:none;stroke:#333333;stroke-linecap:square;stroke-width:1.5;"/>
      <g>
       <use style="fill:#333333;stroke:#333333;" x="253.878264" xlink:href="#m37e628778d" y="132.38"/>
      </g>
     </g>
     <g id="text_13">
      <!-- low-medium -->
      <g style="fill:#4d4d4d;" transform="translate(256.306514 191.6975)rotate(-90)scale(0.088 -0.088)">
       <use xlink:href="#DejaVuSans-108"/>
       <use x="27.783203" xlink:href="#DejaVuSans-111"/>
       <use x="88.964844" xlink:href="#DejaVuSans-119"/>
       <use x="170.751953" xlink:href="#DejaVuSans-45"/>
       <use x="206.835938" xlink:href="#DejaVuSans-109"/>
       <use x="304.248047" xlink:href="#DejaVuSans-101"/>
       <use x="365.771484" xlink:href="#DejaVuSans-100"/>
       <use x="429.248047" xlink:href="#DejaVuSans-105"/>
       <use x="457.03125" xlink:href="#DejaVuSans-117"/>
       <use x="520.410156" xlink:href="#DejaVuSans-109"/>
      </g>
     </g>
    </g>
    <g id="xtick_8">
     <g id="line2d_12">
      <path d="M 274.855188 132.38 
" style="fill:none;stroke:#333333;stroke-linecap:square;stroke-width:1.5;"/>
      <g>
       <use style="fill:#333333;stroke:#333333;" x="274.855188" xlink:href="#m37e628778d" y="132.38"/>
      </g>
     </g>
     <g id="text_14">
      <!-- medium -->
      <g style="fill:#4d4d4d;" transform="translate(277.283438 173.496625)rotate(-90)scale(0.088 -0.088)">
       <use xlink:href="#DejaVuSans-109"/>
       <use x="97.412109" xlink:href="#DejaVuSans-101"/>
       <use x="158.935547" xlink:href="#DejaVuSans-100"/>
       <use x="222.412109" xlink:href="#DejaVuSans-105"/>
       <use x="250.195312" xlink:href="#DejaVuSans-117"/>
       <use x="313.574219" xlink:href="#DejaVuSans-109"/>
      </g>
     </g>
    </g>
    <g id="xtick_9">
     <g id="line2d_13">
      <path d="M 295.832111 132.38 
" style="fill:none;stroke:#333333;stroke-linecap:square;stroke-width:1.5;"/>
      <g>
       <use style="fill:#333333;stroke:#333333;" x="295.832111" xlink:href="#m37e628778d" y="132.38"/>
      </g>
     </g>
     <g id="text_15">
      <!-- medium-high -->
      <g style="fill:#4d4d4d;" transform="translate(298.260361 195.856875)rotate(-90)scale(0.088 -0.088)">
       <use xlink:href="#DejaVuSans-109"/>
       <use x="97.412109" xlink:href="#DejaVuSans-101"/>
       <use x="158.935547" xlink:href="#DejaVuSans-100"/>
       <use x="222.412109" xlink:href="#DejaVuSans-105"/>
       <use x="250.195312" xlink:href="#DejaVuSans-117"/>
       <use x="313.574219" xlink:href="#DejaVuSans-109"/>
       <use x="410.986328" xlink:href="#DejaVuSans-45"/>
       <use x="447.070312" xlink:href="#DejaVuSans-104"/>
       <use x="510.449219" xlink:href="#DejaVuSans-105"/>
       <use x="538.232422" xlink:href="#DejaVuSans-103"/>
       <use x="601.708984" xlink:href="#DejaVuSans-104"/>
      </g>
     </g>
    </g>
    <g id="xtick_10">
     <g id="line2d_14">
      <path d="M 316.809034 132.38 
" style="fill:none;stroke:#333333;stroke-linecap:square;stroke-width:1.5;"/>
      <g>
       <use style="fill:#333333;stroke:#333333;" x="316.809034" xlink:href="#m37e628778d" y="132.38"/>
      </g>
     </g>
     <g id="text_16">
      <!-- high -->
      <g style="fill:#4d4d4d;" transform="translate(319.237284 156.515375)rotate(-90)scale(0.088 -0.088)">
       <use xlink:href="#DejaVuSans-104"/>
       <use x="63.378906" xlink:href="#DejaVuSans-105"/>
       <use x="91.162109" xlink:href="#DejaVuSans-103"/>
       <use x="154.638672" xlink:href="#DejaVuSans-104"/>
      </g>
     </g>
    </g>
    <g id="text_17">
     <!-- staining background -->
     <defs>
      <path d="M 48.6875 27.296875 
Q 48.6875 37.203125 44.609375 42.84375 
Q 40.53125 48.484375 33.40625 48.484375 
Q 26.265625 48.484375 22.1875 42.84375 
Q 18.109375 37.203125 18.109375 27.296875 
Q 18.109375 17.390625 22.1875 11.75 
Q 26.265625 6.109375 33.40625 6.109375 
Q 40.53125 6.109375 44.609375 11.75 
Q 48.6875 17.390625 48.6875 27.296875 
z
M 18.109375 46.390625 
Q 20.953125 51.265625 25.265625 53.625 
Q 29.59375 56 35.59375 56 
Q 45.5625 56 51.78125 48.09375 
Q 58.015625 40.1875 58.015625 27.296875 
Q 58.015625 14.40625 51.78125 6.484375 
Q 45.5625 -1.421875 35.59375 -1.421875 
Q 29.59375 -1.421875 25.265625 0.953125 
Q 20.953125 3.328125 18.109375 8.203125 
L 18.109375 0 
L 9.078125 0 
L 9.078125 75.984375 
L 18.109375 75.984375 
z
" id="DejaVuSans-98"/>
      <path d="M 9.078125 75.984375 
L 18.109375 75.984375 
L 18.109375 31.109375 
L 44.921875 54.6875 
L 56.390625 54.6875 
L 27.390625 29.109375 
L 57.625 0 
L 45.90625 0 
L 18.109375 26.703125 
L 18.109375 0 
L 9.078125 0 
z
" id="DejaVuSans-107"/>
     </defs>
     <g transform="translate(158.008391 208.615156)scale(0.11 -0.11)">
      <use xlink:href="#DejaVuSans-115"/>
      <use x="52.099609" xlink:href="#DejaVuSans-116"/>
      <use x="91.308594" xlink:href="#DejaVuSans-97"/>
      <use x="152.587891" xlink:href="#DejaVuSans-105"/>
      <use x="180.371094" xlink:href="#DejaVuSans-110"/>
      <use x="243.75" xlink:href="#DejaVuSans-105"/>
      <use x="271.533203" xlink:href="#DejaVuSans-110"/>
      <use x="334.912109" xlink:href="#DejaVuSans-103"/>
      <use x="398.388672" xlink:href="#DejaVuSans-32"/>
      <use x="430.175781" xlink:href="#DejaVuSans-98"/>
      <use x="493.652344" xlink:href="#DejaVuSans-97"/>
      <use x="554.931641" xlink:href="#DejaVuSans-99"/>
      <use x="609.912109" xlink:href="#DejaVuSans-107"/>
      <use x="667.822266" xlink:href="#DejaVuSans-103"/>
      <use x="731.298828" xlink:href="#DejaVuSans-114"/>
      <use x="770.162109" xlink:href="#DejaVuSans-111"/>
      <use x="831.34375" xlink:href="#DejaVuSans-117"/>
      <use x="894.722656" xlink:href="#DejaVuSans-110"/>
      <use x="958.101562" xlink:href="#DejaVuSans-100"/>
     </g>
    </g>
   </g>
   <g id="matplotlib.axis_4">
    <g id="ytick_5"/>
    <g id="ytick_6"/>
    <g id="ytick_7"/>
    <g id="ytick_8"/>
   </g>
   <g id="PathCollection_2">
    <path clip-path="url(#pe4c285e58d)" d="M 298.393267 65.832629 
C 299.098357 65.832629 299.774664 65.552494 300.273238 65.05392 
C 300.771812 64.555346 301.051948 63.879039 301.051948 63.173949 
C 301.051948 62.468858 300.771812 61.792552 300.273238 61.293977 
C 299.774664 60.795403 299.098357 60.515268 298.393267 60.515268 
C 297.688177 60.515268 297.01187 60.795403 296.513296 61.293977 
C 296.014722 61.792552 295.734586 62.468858 295.734586 63.173949 
C 295.734586 63.879039 296.014722 64.555346 296.513296 65.05392 
C 297.01187 65.552494 297.688177 65.832629 298.393267 65.832629 
z
" style="fill-opacity:0.25098;stroke:#000000;stroke-opacity:0.25098;stroke-width:0.886227;"/>
    <path clip-path="url(#pe4c285e58d)" d="M 231.295867 95.075353 
C 232.000958 95.075353 232.677265 94.795218 233.175839 94.296644 
C 233.674413 93.79807 233.954548 93.121763 233.954548 92.416672 
C 233.954548 91.711582 233.674413 91.035275 233.175839 90.536701 
C 232.677265 90.038127 232.000958 89.757992 231.295867 89.757992 
C 230.590777 89.757992 229.91447 90.038127 229.415896 90.536701 
C 228.917322 91.035275 228.637187 91.711582 228.637187 92.416672 
C 228.637187 93.121763 228.917322 93.79807 229.415896 94.296644 
C 229.91447 94.795218 230.590777 95.075353 231.295867 95.075353 
z
" style="fill-opacity:0.25098;stroke:#000000;stroke-opacity:0.25098;stroke-width:0.886227;"/>
    <path clip-path="url(#pe4c285e58d)" d="M 254.786025 95.145291 
C 255.491116 95.145291 256.167422 94.865155 256.665997 94.366581 
C 257.164571 93.868007 257.444706 93.1917 257.444706 92.48661 
C 257.444706 91.781519 257.164571 91.105213 256.665997 90.606639 
C 256.167422 90.108064 255.491116 89.827929 254.786025 89.827929 
C 254.080935 89.827929 253.404628 90.108064 252.906054 90.606639 
C 252.40748 91.105213 252.127345 91.781519 252.127345 92.48661 
C 252.127345 93.1917 252.40748 93.868007 252.906054 94.366581 
C 253.404628 94.865155 254.080935 95.145291 254.786025 95.145291 
z
" style="fill-opacity:0.25098;stroke:#000000;stroke-opacity:0.25098;stroke-width:0.886227;"/>
    <path clip-path="url(#pe4c285e58d)" d="M 297.03245 69.032662 
C 297.737541 69.032662 298.413847 68.752527 298.912421 68.253953 
C 299.410996 67.755379 299.691131 67.079072 299.691131 66.373982 
C 299.691131 65.668891 299.410996 64.992585 298.912421 64.49401 
C 298.413847 63.995436 297.737541 63.715301 297.03245 63.715301 
C 296.32736 63.715301 295.651053 63.995436 295.152479 64.49401 
C 294.653905 64.992585 294.37377 65.668891 294.37377 66.373982 
C 294.37377 67.079072 294.653905 67.755379 295.152479 68.253953 
C 295.651053 68.752527 296.32736 69.032662 297.03245 69.032662 
z
" style="fill-opacity:0.25098;stroke:#000000;stroke-opacity:0.25098;stroke-width:0.886227;"/>
    <path clip-path="url(#pe4c285e58d)" d="M 234.682556 119.339202 
C 235.387646 119.339202 236.063953 119.059067 236.562527 118.560493 
C 237.061101 118.061918 237.341237 117.385612 237.341237 116.680521 
C 237.341237 115.975431 237.061101 115.299124 236.562527 114.80055 
C 236.063953 114.301976 235.387646 114.021841 234.682556 114.021841 
C 233.977466 114.021841 233.301159 114.301976 232.802585 114.80055 
C 232.304011 115.299124 232.023875 115.975431 232.023875 116.680521 
C 232.023875 117.385612 232.304011 118.061918 232.802585 118.560493 
C 233.301159 119.059067 233.977466 119.339202 234.682556 119.339202 
z
" style="fill-opacity:0.25098;stroke:#000000;stroke-opacity:0.25098;stroke-width:0.886227;"/>
    <path clip-path="url(#pe4c285e58d)" d="M 234.243091 95.804573 
C 234.948181 95.804573 235.624488 95.524438 236.123062 95.025864 
C 236.621636 94.527289 236.901772 93.850983 236.901772 93.145892 
C 236.901772 92.440802 236.621636 91.764495 236.123062 91.265921 
C 235.624488 90.767347 234.948181 90.487212 234.243091 90.487212 
C 233.538001 90.487212 232.861694 90.767347 232.36312 91.265921 
C 231.864546 91.764495 231.58441 92.440802 231.58441 93.145892 
C 231.58441 93.850983 231.864546 94.527289 232.36312 95.025864 
C 232.861694 95.524438 233.538001 95.804573 234.243091 95.804573 
z
" style="fill-opacity:0.25098;stroke:#000000;stroke-opacity:0.25098;stroke-width:0.886227;"/>
    <path clip-path="url(#pe4c285e58d)" d="M 232.402155 88.913423 
C 233.107245 88.913423 233.783552 88.633288 234.282126 88.134714 
C 234.7807 87.636139 235.060835 86.959833 235.060835 86.254742 
C 235.060835 85.549652 234.7807 84.873345 234.282126 84.374771 
C 233.783552 83.876197 233.107245 83.596062 232.402155 83.596062 
C 231.697064 83.596062 231.020758 83.876197 230.522183 84.374771 
C 230.023609 84.873345 229.743474 85.549652 229.743474 86.254742 
C 229.743474 86.959833 230.023609 87.636139 230.522183 88.134714 
C 231.020758 88.633288 231.697064 88.913423 232.402155 88.913423 
z
" style="fill-opacity:0.25098;stroke:#000000;stroke-opacity:0.25098;stroke-width:0.886227;"/>
    <path clip-path="url(#pe4c285e58d)" d="M 235.489146 116.167732 
C 236.194237 116.167732 236.870543 115.887597 237.369118 115.389023 
C 237.867692 114.890449 238.147827 114.214142 238.147827 113.509052 
C 238.147827 112.803961 237.867692 112.127655 237.369118 111.62908 
C 236.870543 111.130506 236.194237 110.850371 235.489146 110.850371 
C 234.784056 110.850371 234.107749 111.130506 233.609175 111.62908 
C 233.110601 112.127655 232.830466 112.803961 232.830466 113.509052 
C 232.830466 114.214142 233.110601 114.890449 233.609175 115.389023 
C 234.107749 115.887597 234.784056 116.167732 235.489146 116.167732 
z
" style="fill-opacity:0.25098;stroke:#000000;stroke-opacity:0.25098;stroke-width:0.886227;"/>
    <path clip-path="url(#pe4c285e58d)" d="M 317.984401 43.361037 
C 318.689491 43.361037 319.365798 43.080901 319.864372 42.582327 
C 320.362946 42.083753 320.643081 41.407446 320.643081 40.702356 
C 320.643081 39.997265 320.362946 39.320959 319.864372 38.822385 
C 319.365798 38.32381 318.689491 38.043675 317.984401 38.043675 
C 317.27931 38.043675 316.603004 38.32381 316.104429 38.822385 
C 315.605855 39.320959 315.32572 39.997265 315.32572 40.702356 
C 315.32572 41.407446 315.605855 42.083753 316.104429 42.582327 
C 316.603004 43.080901 317.27931 43.361037 317.984401 43.361037 
z
" style="fill-opacity:0.25098;stroke:#000000;stroke-opacity:0.25098;stroke-width:0.886227;"/>
    <path clip-path="url(#pe4c285e58d)" d="M 254.651415 90.750752 
C 255.356506 90.750752 256.032812 90.470617 256.531387 89.972042 
C 257.029961 89.473468 257.310096 88.797162 257.310096 88.092071 
C 257.310096 87.386981 257.029961 86.710674 256.531387 86.2121 
C 256.032812 85.713526 255.356506 85.433391 254.651415 85.433391 
C 253.946325 85.433391 253.270018 85.713526 252.771444 86.2121 
C 252.27287 86.710674 251.992735 87.386981 251.992735 88.092071 
C 251.992735 88.797162 252.27287 89.473468 252.771444 89.972042 
C 253.270018 90.470617 253.946325 90.750752 254.651415 90.750752 
z
" style="fill-opacity:0.25098;stroke:#000000;stroke-opacity:0.25098;stroke-width:0.886227;"/>
    <path clip-path="url(#pe4c285e58d)" d="M 317.857386 42.702295 
C 318.562476 42.702295 319.238783 42.42216 319.737357 41.923585 
C 320.235931 41.425011 320.516066 40.748705 320.516066 40.043614 
C 320.516066 39.338524 320.235931 38.662217 319.737357 38.163643 
C 319.238783 37.665069 318.562476 37.384933 317.857386 37.384933 
C 317.152295 37.384933 316.475989 37.665069 315.977414 38.163643 
C 315.47884 38.662217 315.198705 39.338524 315.198705 40.043614 
C 315.198705 40.748705 315.47884 41.425011 315.977414 41.923585 
C 316.475989 42.42216 317.152295 42.702295 317.857386 42.702295 
z
" style="fill-opacity:0.25098;stroke:#000000;stroke-opacity:0.25098;stroke-width:0.886227;"/>
    <path clip-path="url(#pe4c285e58d)" d="M 232.096806 122.898907 
C 232.801896 122.898907 233.478203 122.618772 233.976777 122.120198 
C 234.475351 121.621623 234.755487 120.945317 234.755487 120.240226 
C 234.755487 119.535136 234.475351 118.858829 233.976777 118.360255 
C 233.478203 117.861681 232.801896 117.581546 232.096806 117.581546 
C 231.391716 117.581546 230.715409 117.861681 230.216835 118.360255 
C 229.718261 118.858829 229.438125 119.535136 229.438125 120.240226 
C 229.438125 120.945317 229.718261 121.621623 230.216835 122.120198 
C 230.715409 122.618772 231.391716 122.898907 232.096806 122.898907 
z
" style="fill-opacity:0.25098;stroke:#000000;stroke-opacity:0.25098;stroke-width:0.886227;"/>
    <path clip-path="url(#pe4c285e58d)" d="M 232.187619 88.912535 
C 232.892709 88.912535 233.569016 88.632399 234.06759 88.133825 
C 234.566164 87.635251 234.846299 86.958944 234.846299 86.253854 
C 234.846299 85.548764 234.566164 84.872457 234.06759 84.373883 
C 233.569016 83.875309 232.892709 83.595173 232.187619 83.595173 
C 231.482528 83.595173 230.806221 83.875309 230.307647 84.373883 
C 229.809073 84.872457 229.528938 85.548764 229.528938 86.253854 
C 229.528938 86.958944 229.809073 87.635251 230.307647 88.133825 
C 230.806221 88.632399 231.482528 88.912535 232.187619 88.912535 
z
" style="fill-opacity:0.25098;stroke:#000000;stroke-opacity:0.25098;stroke-width:0.886227;"/>
    <path clip-path="url(#pe4c285e58d)" d="M 297.460585 65.380457 
C 298.165676 65.380457 298.841982 65.100322 299.340556 64.601748 
C 299.839131 64.103173 300.119266 63.426867 300.119266 62.721776 
C 300.119266 62.016686 299.839131 61.340379 299.340556 60.841805 
C 298.841982 60.343231 298.165676 60.063096 297.460585 60.063096 
C 296.755495 60.063096 296.079188 60.343231 295.580614 60.841805 
C 295.08204 61.340379 294.801905 62.016686 294.801905 62.721776 
C 294.801905 63.426867 295.08204 64.103173 295.580614 64.601748 
C 296.079188 65.100322 296.755495 65.380457 297.460585 65.380457 
z
" style="fill-opacity:0.25098;stroke:#000000;stroke-opacity:0.25098;stroke-width:0.886227;"/>
    <path clip-path="url(#pe4c285e58d)" d="M 297.62981 65.336471 
C 298.334901 65.336471 299.011207 65.056335 299.509782 64.557761 
C 300.008356 64.059187 300.288491 63.38288 300.288491 62.67779 
C 300.288491 61.9727 300.008356 61.296393 299.509782 60.797819 
C 299.011207 60.299245 298.334901 60.019109 297.62981 60.019109 
C 296.92472 60.019109 296.248413 60.299245 295.749839 60.797819 
C 295.251265 61.296393 294.97113 61.9727 294.97113 62.67779 
C 294.97113 63.38288 295.251265 64.059187 295.749839 64.557761 
C 296.248413 65.056335 296.92472 65.336471 297.62981 65.336471 
z
" style="fill-opacity:0.25098;stroke:#000000;stroke-opacity:0.25098;stroke-width:0.886227;"/>
    <path clip-path="url(#pe4c285e58d)" d="M 232.621161 118.11363 
C 233.326251 118.11363 234.002558 117.833494 234.501132 117.33492 
C 234.999706 116.836346 235.279841 116.160039 235.279841 115.454949 
C 235.279841 114.749858 234.999706 114.073552 234.501132 113.574978 
C 234.002558 113.076403 233.326251 112.796268 232.621161 112.796268 
C 231.91607 112.796268 231.239764 113.076403 230.741189 113.574978 
C 230.242615 114.073552 229.96248 114.749858 229.96248 115.454949 
C 229.96248 116.160039 230.242615 116.836346 230.741189 117.33492 
C 231.239764 117.833494 231.91607 118.11363 232.621161 118.11363 
z
" style="fill-opacity:0.25098;stroke:#000000;stroke-opacity:0.25098;stroke-width:0.886227;"/>
    <path clip-path="url(#pe4c285e58d)" d="M 230.143887 92.583759 
C 230.848977 92.583759 231.525284 92.303623 232.023858 91.805049 
C 232.522432 91.306475 232.802567 90.630168 232.802567 89.925078 
C 232.802567 89.219988 232.522432 88.543681 232.023858 88.045107 
C 231.525284 87.546533 230.848977 87.266397 230.143887 87.266397 
C 229.438796 87.266397 228.76249 87.546533 228.263915 88.045107 
C 227.765341 88.543681 227.485206 89.219988 227.485206 89.925078 
C 227.485206 90.630168 227.765341 91.306475 228.263915 91.805049 
C 228.76249 92.303623 229.438796 92.583759 230.143887 92.583759 
z
" style="fill-opacity:0.25098;stroke:#000000;stroke-opacity:0.25098;stroke-width:0.886227;"/>
    <path clip-path="url(#pe4c285e58d)" d="M 234.618456 93.104199 
C 235.323546 93.104199 235.999853 92.824064 236.498427 92.32549 
C 236.997001 91.826916 237.277137 91.150609 237.277137 90.445519 
C 237.277137 89.740428 236.997001 89.064122 236.498427 88.565547 
C 235.999853 88.066973 235.323546 87.786838 234.618456 87.786838 
C 233.913365 87.786838 233.237059 88.066973 232.738485 88.565547 
C 232.23991 89.064122 231.959775 89.740428 231.959775 90.445519 
C 231.959775 91.150609 232.23991 91.826916 232.738485 92.32549 
C 233.237059 92.824064 233.913365 93.104199 234.618456 93.104199 
z
" style="fill-opacity:0.25098;stroke:#000000;stroke-opacity:0.25098;stroke-width:0.886227;"/>
    <path clip-path="url(#pe4c285e58d)" d="M 232.57627 94.364871 
C 233.28136 94.364871 233.957667 94.084736 234.456241 93.586162 
C 234.954815 93.087587 235.234951 92.411281 235.234951 91.70619 
C 235.234951 91.0011 234.954815 90.324793 234.456241 89.826219 
C 233.957667 89.327645 233.28136 89.04751 232.57627 89.04751 
C 231.871179 89.04751 231.194873 89.327645 230.696299 89.826219 
C 230.197724 90.324793 229.917589 91.0011 229.917589 91.70619 
C 229.917589 92.411281 230.197724 93.087587 230.696299 93.586162 
C 231.194873 94.084736 231.871179 94.364871 232.57627 94.364871 
z
" style="fill-opacity:0.25098;stroke:#000000;stroke-opacity:0.25098;stroke-width:0.886227;"/>
    <path clip-path="url(#pe4c285e58d)" d="M 317.984782 36.450761 
C 318.689873 36.450761 319.36618 36.170625 319.864754 35.672051 
C 320.363328 35.173477 320.643463 34.49717 320.643463 33.79208 
C 320.643463 33.08699 320.363328 32.410683 319.864754 31.912109 
C 319.36618 31.413535 318.689873 31.133399 317.984782 31.133399 
C 317.279692 31.133399 316.603385 31.413535 316.104811 31.912109 
C 315.606237 32.410683 315.326102 33.08699 315.326102 33.79208 
C 315.326102 34.49717 315.606237 35.173477 316.104811 35.672051 
C 316.603385 36.170625 317.279692 36.450761 317.984782 36.450761 
z
" style="fill-opacity:0.25098;stroke:#000000;stroke-opacity:0.25098;stroke-width:0.886227;"/>
    <path clip-path="url(#pe4c285e58d)" d="M 314.051722 42.590817 
C 314.756813 42.590817 315.433119 42.310682 315.931693 41.812108 
C 316.430268 41.313534 316.710403 40.637227 316.710403 39.932137 
C 316.710403 39.227046 316.430268 38.55074 315.931693 38.052165 
C 315.433119 37.553591 314.756813 37.273456 314.051722 37.273456 
C 313.346632 37.273456 312.670325 37.553591 312.171751 38.052165 
C 311.673177 38.55074 311.393042 39.227046 311.393042 39.932137 
C 311.393042 40.637227 311.673177 41.313534 312.171751 41.812108 
C 312.670325 42.310682 313.346632 42.590817 314.051722 42.590817 
z
" style="fill-opacity:0.25098;stroke:#000000;stroke-opacity:0.25098;stroke-width:0.886227;"/>
    <path clip-path="url(#pe4c285e58d)" d="M 276.29808 95.273395 
C 277.00317 95.273395 277.679477 94.99326 278.178051 94.494686 
C 278.676625 93.996112 278.956761 93.319805 278.956761 92.614714 
C 278.956761 91.909624 278.676625 91.233317 278.178051 90.734743 
C 277.679477 90.236169 277.00317 89.956034 276.29808 89.956034 
C 275.59299 89.956034 274.916683 90.236169 274.418109 90.734743 
C 273.919535 91.233317 273.639399 91.909624 273.639399 92.614714 
C 273.639399 93.319805 273.919535 93.996112 274.418109 94.494686 
C 274.916683 94.99326 275.59299 95.273395 276.29808 95.273395 
z
" style="fill-opacity:0.25098;stroke:#000000;stroke-opacity:0.25098;stroke-width:0.886227;"/>
    <path clip-path="url(#pe4c285e58d)" d="M 293.493425 64.509035 
C 294.198516 64.509035 294.874822 64.2289 295.373396 63.730325 
C 295.871971 63.231751 296.152106 62.555445 296.152106 61.850354 
C 296.152106 61.145264 295.871971 60.468957 295.373396 59.970383 
C 294.874822 59.471809 294.198516 59.191673 293.493425 59.191673 
C 292.788335 59.191673 292.112028 59.471809 291.613454 59.970383 
C 291.11488 60.468957 290.834744 61.145264 290.834744 61.850354 
C 290.834744 62.555445 291.11488 63.231751 291.613454 63.730325 
C 292.112028 64.2289 292.788335 64.509035 293.493425 64.509035 
z
" style="fill-opacity:0.25098;stroke:#000000;stroke-opacity:0.25098;stroke-width:0.886227;"/>
    <path clip-path="url(#pe4c285e58d)" d="M 294.095352 66.5542 
C 294.800442 66.5542 295.476749 66.274065 295.975323 65.77549 
C 296.473897 65.276916 296.754032 64.60061 296.754032 63.895519 
C 296.754032 63.190429 296.473897 62.514122 295.975323 62.015548 
C 295.476749 61.516974 294.800442 61.236838 294.095352 61.236838 
C 293.390261 61.236838 292.713955 61.516974 292.21538 62.015548 
C 291.716806 62.514122 291.436671 63.190429 291.436671 63.895519 
C 291.436671 64.60061 291.716806 65.276916 292.21538 65.77549 
C 292.713955 66.274065 293.390261 66.5542 294.095352 66.5542 
z
" style="fill-opacity:0.25098;stroke:#000000;stroke-opacity:0.25098;stroke-width:0.886227;"/>
    <path clip-path="url(#pe4c285e58d)" d="M 277.346327 62.702619 
C 278.051418 62.702619 278.727724 62.422483 279.226299 61.923909 
C 279.724873 61.425335 280.005008 60.749028 280.005008 60.043938 
C 280.005008 59.338848 279.724873 58.662541 279.226299 58.163967 
C 278.727724 57.665393 278.051418 57.385257 277.346327 57.385257 
C 276.641237 57.385257 275.96493 57.665393 275.466356 58.163967 
C 274.967782 58.662541 274.687647 59.338848 274.687647 60.043938 
C 274.687647 60.749028 274.967782 61.425335 275.466356 61.923909 
C 275.96493 62.422483 276.641237 62.702619 277.346327 62.702619 
z
" style="fill-opacity:0.25098;stroke:#000000;stroke-opacity:0.25098;stroke-width:0.886227;"/>
    <path clip-path="url(#pe4c285e58d)" d="M 272.597296 92.733398 
C 273.302387 92.733398 273.978693 92.453263 274.477268 91.954689 
C 274.975842 91.456114 275.255977 90.779808 275.255977 90.074717 
C 275.255977 89.369627 274.975842 88.69332 274.477268 88.194746 
C 273.978693 87.696172 273.302387 87.416037 272.597296 87.416037 
C 271.892206 87.416037 271.215899 87.696172 270.717325 88.194746 
C 270.218751 88.69332 269.938616 89.369627 269.938616 90.074717 
C 269.938616 90.779808 270.218751 91.456114 270.717325 91.954689 
C 271.215899 92.453263 271.892206 92.733398 272.597296 92.733398 
z
" style="fill-opacity:0.25098;stroke:#000000;stroke-opacity:0.25098;stroke-width:0.886227;"/>
    <path clip-path="url(#pe4c285e58d)" d="M 272.762016 90.045727 
C 273.467107 90.045727 274.143413 89.765592 274.641987 89.267018 
C 275.140562 88.768444 275.420697 88.092137 275.420697 87.387047 
C 275.420697 86.681956 275.140562 86.00565 274.641987 85.507075 
C 274.143413 85.008501 273.467107 84.728366 272.762016 84.728366 
C 272.056926 84.728366 271.380619 85.008501 270.882045 85.507075 
C 270.383471 86.00565 270.103335 86.681956 270.103335 87.387047 
C 270.103335 88.092137 270.383471 88.768444 270.882045 89.267018 
C 271.380619 89.765592 272.056926 90.045727 272.762016 90.045727 
z
" style="fill-opacity:0.25098;stroke:#000000;stroke-opacity:0.25098;stroke-width:0.886227;"/>
    <path clip-path="url(#pe4c285e58d)" d="M 235.030429 118.61789 
C 235.735519 118.61789 236.411826 118.337754 236.9104 117.83918 
C 237.408974 117.340606 237.68911 116.664299 237.68911 115.959209 
C 237.68911 115.254119 237.408974 114.577812 236.9104 114.079238 
C 236.411826 113.580664 235.735519 113.300528 235.030429 113.300528 
C 234.325338 113.300528 233.649032 113.580664 233.150458 114.079238 
C 232.651883 114.577812 232.371748 115.254119 232.371748 115.959209 
C 232.371748 116.664299 232.651883 117.340606 233.150458 117.83918 
C 233.649032 118.337754 234.325338 118.61789 235.030429 118.61789 
z
" style="fill-opacity:0.25098;stroke:#000000;stroke-opacity:0.25098;stroke-width:0.886227;"/>
   </g>
   <g id="patch_7">
    <path d="M 220.315188 21.5 
L 329.395188 21.5 
L 329.395188 7.2 
L 220.315188 7.2 
z
" style="fill:none;stroke:#000000;stroke-linejoin:miter;"/>
   </g>
   <g id="patch_8">
    <path d="M 220.315188 132.38 
L 220.315188 21.5 
" style="fill:none;stroke:#000000;stroke-linecap:square;stroke-linejoin:miter;"/>
   </g>
   <g id="patch_9">
    <path d="M 220.315188 132.38 
L 329.395188 132.38 
" style="fill:none;stroke:#000000;stroke-linecap:square;stroke-linejoin:miter;"/>
   </g>
   <g id="text_18">
    <!-- vaccine -->
    <g style="fill:#1a1a1a;" transform="translate(257.997687 16.77825)scale(0.088 -0.088)">
     <use xlink:href="#DejaVuSans-118"/>
     <use x="59.179688" xlink:href="#DejaVuSans-97"/>
     <use x="120.458984" xlink:href="#DejaVuSans-99"/>
     <use x="175.439453" xlink:href="#DejaVuSans-99"/>
     <use x="230.419922" xlink:href="#DejaVuSans-105"/>
     <use x="258.203125" xlink:href="#DejaVuSans-110"/>
     <use x="321.582031" xlink:href="#DejaVuSans-101"/>
    </g>
   </g>
  </g>
 </g>
 <defs>
  <clipPath id="pde98f54275">
   <rect height="110.88" width="109.08" x="106.195188" y="21.5"/>
  </clipPath>
  <clipPath id="pe4c285e58d">
   <rect height="110.88" width="109.08" x="220.315188" y="21.5"/>
  </clipPath>
 </defs>
</svg>
