<?xml version="1.0" encoding="utf-8" standalone="no"?>
<!DOCTYPE svg PUBLIC "-//W3C//DTD SVG 1.1//EN"
  "http://www.w3.org/Graphics/SVG/1.1/DTD/svg11.dtd">
<!-- Created with matplotlib (https://matplotlib.org/) -->
<svg height="224.275188pt" version="1.1" viewBox="0 0 282.952813 224.275188" width="282.952813pt" xmlns="http://www.w3.org/2000/svg" xmlns:xlink="http://www.w3.org/1999/xlink">
 <defs>
  <style type="text/css">
*{stroke-linecap:butt;stroke-linejoin:round;}
  </style>
 </defs>
 <g id="figure_1">
  <g id="patch_1">
   <path d="M 0 224.275188 
L 282.952813 224.275188 
L 282.952813 0 
L 0 0 
z
" style="fill:#ffffff;stroke:#ffffff;stroke-linejoin:miter;"/>
  </g>
  <g id="axes_1">
   <g id="patch_2">
    <path d="M 164.152813 118.08 
L 275.752813 118.08 
L 275.752813 7.2 
L 164.152813 7.2 
z
" style="fill:#ffffff;"/>
   </g>
   <g id="matplotlib.axis_1">
    <g id="xtick_1">
     <g id="line2d_1">
      <path d="M 180.09567 118.08 
" style="fill:none;stroke:#333333;stroke-width:1.5;"/>
      <defs>
       <path d="M 0 0 
L 0 2.75 
" id="mbc7fe54f09" style="stroke:#333333;"/>
      </defs>
      <g>
       <use style="fill:#333333;stroke:#333333;" x="180.09567" xlink:href="#mbc7fe54f09" y="118.08"/>
      </g>
     </g>
     <g id="text_1">
      <!-- extra escape -->
      <defs>
       <path d="M 56.203125 29.59375 
L 56.203125 25.203125 
L 14.890625 25.203125 
Q 15.484375 15.921875 20.484375 11.0625 
Q 25.484375 6.203125 34.421875 6.203125 
Q 39.59375 6.203125 44.453125 7.46875 
Q 49.3125 8.734375 54.109375 11.28125 
L 54.109375 2.78125 
Q 49.265625 0.734375 44.1875 -0.34375 
Q 39.109375 -1.421875 33.890625 -1.421875 
Q 20.796875 -1.421875 13.15625 6.1875 
Q 5.515625 13.8125 5.515625 26.8125 
Q 5.515625 40.234375 12.765625 48.109375 
Q 20.015625 56 32.328125 56 
Q 43.359375 56 49.78125 48.890625 
Q 56.203125 41.796875 56.203125 29.59375 
z
M 47.21875 32.234375 
Q 47.125 39.59375 43.09375 43.984375 
Q 39.0625 48.390625 32.421875 48.390625 
Q 24.90625 48.390625 20.390625 44.140625 
Q 15.875 39.890625 15.1875 32.171875 
z
" id="DejaVuSans-101"/>
       <path d="M 54.890625 54.6875 
L 35.109375 28.078125 
L 55.90625 0 
L 45.3125 0 
L 29.390625 21.484375 
L 13.484375 0 
L 2.875 0 
L 24.125 28.609375 
L 4.6875 54.6875 
L 15.28125 54.6875 
L 29.78125 35.203125 
L 44.28125 54.6875 
z
" id="DejaVuSans-120"/>
       <path d="M 18.3125 70.21875 
L 18.3125 54.6875 
L 36.8125 54.6875 
L 36.8125 47.703125 
L 18.3125 47.703125 
L 18.3125 18.015625 
Q 18.3125 11.328125 20.140625 9.421875 
Q 21.96875 7.515625 27.59375 7.515625 
L 36.8125 7.515625 
L 36.8125 0 
L 27.59375 0 
Q 17.1875 0 13.234375 3.875 
Q 9.28125 7.765625 9.28125 18.015625 
L 9.28125 47.703125 
L 2.6875 47.703125 
L 2.6875 54.6875 
L 9.28125 54.6875 
L 9.28125 70.21875 
z
" id="DejaVuSans-116"/>
       <path d="M 41.109375 46.296875 
Q 39.59375 47.171875 37.8125 47.578125 
Q 36.03125 48 33.890625 48 
Q 26.265625 48 22.1875 43.046875 
Q 18.109375 38.09375 18.109375 28.8125 
L 18.109375 0 
L 9.078125 0 
L 9.078125 54.6875 
L 18.109375 54.6875 
L 18.109375 46.1875 
Q 20.953125 51.171875 25.484375 53.578125 
Q 30.03125 56 36.53125 56 
Q 37.453125 56 38.578125 55.875 
Q 39.703125 55.765625 41.0625 55.515625 
z
" id="DejaVuSans-114"/>
       <path d="M 34.28125 27.484375 
Q 23.390625 27.484375 19.1875 25 
Q 14.984375 22.515625 14.984375 16.5 
Q 14.984375 11.71875 18.140625 8.90625 
Q 21.296875 6.109375 26.703125 6.109375 
Q 34.1875 6.109375 38.703125 11.40625 
Q 43.21875 16.703125 43.21875 25.484375 
L 43.21875 27.484375 
z
M 52.203125 31.203125 
L 52.203125 0 
L 43.21875 0 
L 43.21875 8.296875 
Q 40.140625 3.328125 35.546875 0.953125 
Q 30.953125 -1.421875 24.3125 -1.421875 
Q 15.921875 -1.421875 10.953125 3.296875 
Q 6 8.015625 6 15.921875 
Q 6 25.140625 12.171875 29.828125 
Q 18.359375 34.515625 30.609375 34.515625 
L 43.21875 34.515625 
L 43.21875 35.40625 
Q 43.21875 41.609375 39.140625 45 
Q 35.0625 48.390625 27.6875 48.390625 
Q 23 48.390625 18.546875 47.265625 
Q 14.109375 46.140625 10.015625 43.890625 
L 10.015625 52.203125 
Q 14.9375 54.109375 19.578125 55.046875 
Q 24.21875 56 28.609375 56 
Q 40.484375 56 46.34375 49.84375 
Q 52.203125 43.703125 52.203125 31.203125 
z
" id="DejaVuSans-97"/>
       <path id="DejaVuSans-32"/>
       <path d="M 44.28125 53.078125 
L 44.28125 44.578125 
Q 40.484375 46.53125 36.375 47.5 
Q 32.28125 48.484375 27.875 48.484375 
Q 21.1875 48.484375 17.84375 46.4375 
Q 14.5 44.390625 14.5 40.28125 
Q 14.5 37.15625 16.890625 35.375 
Q 19.28125 33.59375 26.515625 31.984375 
L 29.59375 31.296875 
Q 39.15625 29.25 43.1875 25.515625 
Q 47.21875 21.78125 47.21875 15.09375 
Q 47.21875 7.46875 41.1875 3.015625 
Q 35.15625 -1.421875 24.609375 -1.421875 
Q 20.21875 -1.421875 15.453125 -0.5625 
Q 10.6875 0.296875 5.421875 2 
L 5.421875 11.28125 
Q 10.40625 8.6875 15.234375 7.390625 
Q 20.0625 6.109375 24.8125 6.109375 
Q 31.15625 6.109375 34.5625 8.28125 
Q 37.984375 10.453125 37.984375 14.40625 
Q 37.984375 18.0625 35.515625 20.015625 
Q 33.0625 21.96875 24.703125 23.78125 
L 21.578125 24.515625 
Q 13.234375 26.265625 9.515625 29.90625 
Q 5.8125 33.546875 5.8125 39.890625 
Q 5.8125 47.609375 11.28125 51.796875 
Q 16.75 56 26.8125 56 
Q 31.78125 56 36.171875 55.265625 
Q 40.578125 54.546875 44.28125 53.078125 
z
" id="DejaVuSans-115"/>
       <path d="M 48.78125 52.59375 
L 48.78125 44.1875 
Q 44.96875 46.296875 41.140625 47.34375 
Q 37.3125 48.390625 33.40625 48.390625 
Q 24.65625 48.390625 19.8125 42.84375 
Q 14.984375 37.3125 14.984375 27.296875 
Q 14.984375 17.28125 19.8125 11.734375 
Q 24.65625 6.203125 33.40625 6.203125 
Q 37.3125 6.203125 41.140625 7.25 
Q 44.96875 8.296875 48.78125 10.40625 
L 48.78125 2.09375 
Q 45.015625 0.34375 40.984375 -0.53125 
Q 36.96875 -1.421875 32.421875 -1.421875 
Q 20.0625 -1.421875 12.78125 6.34375 
Q 5.515625 14.109375 5.515625 27.296875 
Q 5.515625 40.671875 12.859375 48.328125 
Q 20.21875 56 33.015625 56 
Q 37.15625 56 41.109375 55.140625 
Q 45.0625 54.296875 48.78125 52.59375 
z
" id="DejaVuSans-99"/>
       <path d="M 18.109375 8.203125 
L 18.109375 -20.796875 
L 9.078125 -20.796875 
L 9.078125 54.6875 
L 18.109375 54.6875 
L 18.109375 46.390625 
Q 20.953125 51.265625 25.265625 53.625 
Q 29.59375 56 35.59375 56 
Q 45.5625 56 51.78125 48.09375 
Q 58.015625 40.1875 58.015625 27.296875 
Q 58.015625 14.40625 51.78125 6.484375 
Q 45.5625 -1.421875 35.59375 -1.421875 
Q 29.59375 -1.421875 25.265625 0.953125 
Q 20.953125 3.328125 18.109375 8.203125 
z
M 48.6875 27.296875 
Q 48.6875 37.203125 44.609375 42.84375 
Q 40.53125 48.484375 33.40625 48.484375 
Q 26.265625 48.484375 22.1875 42.84375 
Q 18.109375 37.203125 18.109375 27.296875 
Q 18.109375 17.390625 22.1875 11.75 
Q 26.265625 6.109375 33.40625 6.109375 
Q 40.53125 6.109375 44.609375 11.75 
Q 48.6875 17.390625 48.6875 27.296875 
z
" id="DejaVuSans-112"/>
      </defs>
      <g style="fill:#4d4d4d;" transform="translate(182.52392 179.988)rotate(-90)scale(0.088 -0.088)">
       <use xlink:href="#DejaVuSans-101"/>
       <use x="59.773438" xlink:href="#DejaVuSans-120"/>
       <use x="118.953125" xlink:href="#DejaVuSans-116"/>
       <use x="158.162109" xlink:href="#DejaVuSans-114"/>
       <use x="199.275391" xlink:href="#DejaVuSans-97"/>
       <use x="260.554688" xlink:href="#DejaVuSans-32"/>
       <use x="292.341797" xlink:href="#DejaVuSans-101"/>
       <use x="353.865234" xlink:href="#DejaVuSans-115"/>
       <use x="405.964844" xlink:href="#DejaVuSans-99"/>
       <use x="460.945312" xlink:href="#DejaVuSans-97"/>
       <use x="522.224609" xlink:href="#DejaVuSans-112"/>
       <use x="585.701172" xlink:href="#DejaVuSans-101"/>
      </g>
     </g>
    </g>
    <g id="xtick_2">
     <g id="line2d_2">
      <path d="M 206.667098 118.08 
" style="fill:none;stroke:#333333;stroke-width:1.5;"/>
      <g>
       <use style="fill:#333333;stroke:#333333;" x="206.667098" xlink:href="#mbc7fe54f09" y="118.08"/>
      </g>
     </g>
     <g id="text_2">
      <!-- normal -->
      <defs>
       <path d="M 54.890625 33.015625 
L 54.890625 0 
L 45.90625 0 
L 45.90625 32.71875 
Q 45.90625 40.484375 42.875 44.328125 
Q 39.84375 48.1875 33.796875 48.1875 
Q 26.515625 48.1875 22.3125 43.546875 
Q 18.109375 38.921875 18.109375 30.90625 
L 18.109375 0 
L 9.078125 0 
L 9.078125 54.6875 
L 18.109375 54.6875 
L 18.109375 46.1875 
Q 21.34375 51.125 25.703125 53.5625 
Q 30.078125 56 35.796875 56 
Q 45.21875 56 50.046875 50.171875 
Q 54.890625 44.34375 54.890625 33.015625 
z
" id="DejaVuSans-110"/>
       <path d="M 30.609375 48.390625 
Q 23.390625 48.390625 19.1875 42.75 
Q 14.984375 37.109375 14.984375 27.296875 
Q 14.984375 17.484375 19.15625 11.84375 
Q 23.34375 6.203125 30.609375 6.203125 
Q 37.796875 6.203125 41.984375 11.859375 
Q 46.1875 17.53125 46.1875 27.296875 
Q 46.1875 37.015625 41.984375 42.703125 
Q 37.796875 48.390625 30.609375 48.390625 
z
M 30.609375 56 
Q 42.328125 56 49.015625 48.375 
Q 55.71875 40.765625 55.71875 27.296875 
Q 55.71875 13.875 49.015625 6.21875 
Q 42.328125 -1.421875 30.609375 -1.421875 
Q 18.84375 -1.421875 12.171875 6.21875 
Q 5.515625 13.875 5.515625 27.296875 
Q 5.515625 40.765625 12.171875 48.375 
Q 18.84375 56 30.609375 56 
z
" id="DejaVuSans-111"/>
       <path d="M 52 44.1875 
Q 55.375 50.25 60.0625 53.125 
Q 64.75 56 71.09375 56 
Q 79.640625 56 84.28125 50.015625 
Q 88.921875 44.046875 88.921875 33.015625 
L 88.921875 0 
L 79.890625 0 
L 79.890625 32.71875 
Q 79.890625 40.578125 77.09375 44.375 
Q 74.3125 48.1875 68.609375 48.1875 
Q 61.625 48.1875 57.5625 43.546875 
Q 53.515625 38.921875 53.515625 30.90625 
L 53.515625 0 
L 44.484375 0 
L 44.484375 32.71875 
Q 44.484375 40.625 41.703125 44.40625 
Q 38.921875 48.1875 33.109375 48.1875 
Q 26.21875 48.1875 22.15625 43.53125 
Q 18.109375 38.875 18.109375 30.90625 
L 18.109375 0 
L 9.078125 0 
L 9.078125 54.6875 
L 18.109375 54.6875 
L 18.109375 46.1875 
Q 21.1875 51.21875 25.484375 53.609375 
Q 29.78125 56 35.6875 56 
Q 41.65625 56 45.828125 52.96875 
Q 50 49.953125 52 44.1875 
z
" id="DejaVuSans-109"/>
       <path d="M 9.421875 75.984375 
L 18.40625 75.984375 
L 18.40625 0 
L 9.421875 0 
z
" id="DejaVuSans-108"/>
      </defs>
      <g style="fill:#4d4d4d;" transform="translate(209.095348 153.864375)rotate(-90)scale(0.088 -0.088)">
       <use xlink:href="#DejaVuSans-110"/>
       <use x="63.378906" xlink:href="#DejaVuSans-111"/>
       <use x="124.560547" xlink:href="#DejaVuSans-114"/>
       <use x="163.923828" xlink:href="#DejaVuSans-109"/>
       <use x="261.335938" xlink:href="#DejaVuSans-97"/>
       <use x="322.615234" xlink:href="#DejaVuSans-108"/>
      </g>
     </g>
    </g>
    <g id="xtick_3">
     <g id="line2d_3">
      <path d="M 233.238527 118.08 
" style="fill:none;stroke:#333333;stroke-width:1.5;"/>
      <g>
       <use style="fill:#333333;stroke:#333333;" x="233.238527" xlink:href="#mbc7fe54f09" y="118.08"/>
      </g>
     </g>
     <g id="text_3">
      <!-- normal-no escape -->
      <defs>
       <path d="M 4.890625 31.390625 
L 31.203125 31.390625 
L 31.203125 23.390625 
L 4.890625 23.390625 
z
" id="DejaVuSans-45"/>
      </defs>
      <g style="fill:#4d4d4d;" transform="translate(235.666777 202.02925)rotate(-90)scale(0.088 -0.088)">
       <use xlink:href="#DejaVuSans-110"/>
       <use x="63.378906" xlink:href="#DejaVuSans-111"/>
       <use x="124.560547" xlink:href="#DejaVuSans-114"/>
       <use x="163.923828" xlink:href="#DejaVuSans-109"/>
       <use x="261.335938" xlink:href="#DejaVuSans-97"/>
       <use x="322.615234" xlink:href="#DejaVuSans-108"/>
       <use x="350.398438" xlink:href="#DejaVuSans-45"/>
       <use x="386.482422" xlink:href="#DejaVuSans-110"/>
       <use x="449.861328" xlink:href="#DejaVuSans-111"/>
       <use x="511.042969" xlink:href="#DejaVuSans-32"/>
       <use x="542.830078" xlink:href="#DejaVuSans-101"/>
       <use x="604.353516" xlink:href="#DejaVuSans-115"/>
       <use x="656.453125" xlink:href="#DejaVuSans-99"/>
       <use x="711.433594" xlink:href="#DejaVuSans-97"/>
       <use x="772.712891" xlink:href="#DejaVuSans-112"/>
       <use x="836.189453" xlink:href="#DejaVuSans-101"/>
      </g>
     </g>
    </g>
    <g id="xtick_4">
     <g id="line2d_4">
      <path d="M 259.809955 118.08 
" style="fill:none;stroke:#333333;stroke-width:1.5;"/>
      <g>
       <use style="fill:#333333;stroke:#333333;" x="259.809955" xlink:href="#mbc7fe54f09" y="118.08"/>
      </g>
     </g>
     <g id="text_4">
      <!-- no escape -->
      <g style="fill:#4d4d4d;" transform="translate(262.238205 168.02)rotate(-90)scale(0.088 -0.088)">
       <use xlink:href="#DejaVuSans-110"/>
       <use x="63.378906" xlink:href="#DejaVuSans-111"/>
       <use x="124.560547" xlink:href="#DejaVuSans-32"/>
       <use x="156.347656" xlink:href="#DejaVuSans-101"/>
       <use x="217.871094" xlink:href="#DejaVuSans-115"/>
       <use x="269.970703" xlink:href="#DejaVuSans-99"/>
       <use x="324.951172" xlink:href="#DejaVuSans-97"/>
       <use x="386.230469" xlink:href="#DejaVuSans-112"/>
       <use x="449.707031" xlink:href="#DejaVuSans-101"/>
      </g>
     </g>
    </g>
    <g id="text_5">
     <!-- FACS plot shape -->
     <defs>
      <path d="M 9.8125 72.90625 
L 51.703125 72.90625 
L 51.703125 64.59375 
L 19.671875 64.59375 
L 19.671875 43.109375 
L 48.578125 43.109375 
L 48.578125 34.8125 
L 19.671875 34.8125 
L 19.671875 0 
L 9.8125 0 
z
" id="DejaVuSans-70"/>
      <path d="M 34.1875 63.1875 
L 20.796875 26.90625 
L 47.609375 26.90625 
z
M 28.609375 72.90625 
L 39.796875 72.90625 
L 67.578125 0 
L 57.328125 0 
L 50.6875 18.703125 
L 17.828125 18.703125 
L 11.1875 0 
L 0.78125 0 
z
" id="DejaVuSans-65"/>
      <path d="M 64.40625 67.28125 
L 64.40625 56.890625 
Q 59.421875 61.53125 53.78125 63.8125 
Q 48.140625 66.109375 41.796875 66.109375 
Q 29.296875 66.109375 22.65625 58.46875 
Q 16.015625 50.828125 16.015625 36.375 
Q 16.015625 21.96875 22.65625 14.328125 
Q 29.296875 6.6875 41.796875 6.6875 
Q 48.140625 6.6875 53.78125 8.984375 
Q 59.421875 11.28125 64.40625 15.921875 
L 64.40625 5.609375 
Q 59.234375 2.09375 53.4375 0.328125 
Q 47.65625 -1.421875 41.21875 -1.421875 
Q 24.65625 -1.421875 15.125 8.703125 
Q 5.609375 18.84375 5.609375 36.375 
Q 5.609375 53.953125 15.125 64.078125 
Q 24.65625 74.21875 41.21875 74.21875 
Q 47.75 74.21875 53.53125 72.484375 
Q 59.328125 70.75 64.40625 67.28125 
z
" id="DejaVuSans-67"/>
      <path d="M 53.515625 70.515625 
L 53.515625 60.890625 
Q 47.90625 63.578125 42.921875 64.890625 
Q 37.9375 66.21875 33.296875 66.21875 
Q 25.25 66.21875 20.875 63.09375 
Q 16.5 59.96875 16.5 54.203125 
Q 16.5 49.359375 19.40625 46.890625 
Q 22.3125 44.4375 30.421875 42.921875 
L 36.375 41.703125 
Q 47.40625 39.59375 52.65625 34.296875 
Q 57.90625 29 57.90625 20.125 
Q 57.90625 9.515625 50.796875 4.046875 
Q 43.703125 -1.421875 29.984375 -1.421875 
Q 24.8125 -1.421875 18.96875 -0.25 
Q 13.140625 0.921875 6.890625 3.21875 
L 6.890625 13.375 
Q 12.890625 10.015625 18.65625 8.296875 
Q 24.421875 6.59375 29.984375 6.59375 
Q 38.421875 6.59375 43.015625 9.90625 
Q 47.609375 13.234375 47.609375 19.390625 
Q 47.609375 24.75 44.3125 27.78125 
Q 41.015625 30.8125 33.5 32.328125 
L 27.484375 33.5 
Q 16.453125 35.6875 11.515625 40.375 
Q 6.59375 45.0625 6.59375 53.421875 
Q 6.59375 63.09375 13.40625 68.65625 
Q 20.21875 74.21875 32.171875 74.21875 
Q 37.3125 74.21875 42.625 73.28125 
Q 47.953125 72.359375 53.515625 70.515625 
z
" id="DejaVuSans-83"/>
      <path d="M 54.890625 33.015625 
L 54.890625 0 
L 45.90625 0 
L 45.90625 32.71875 
Q 45.90625 40.484375 42.875 44.328125 
Q 39.84375 48.1875 33.796875 48.1875 
Q 26.515625 48.1875 22.3125 43.546875 
Q 18.109375 38.921875 18.109375 30.90625 
L 18.109375 0 
L 9.078125 0 
L 9.078125 75.984375 
L 18.109375 75.984375 
L 18.109375 46.1875 
Q 21.34375 51.125 25.703125 53.5625 
Q 30.078125 56 35.796875 56 
Q 45.21875 56 50.046875 50.171875 
Q 54.890625 44.34375 54.890625 33.015625 
z
" id="DejaVuSans-104"/>
     </defs>
     <g transform="translate(173.858906 214.787531)scale(0.11 -0.11)">
      <use xlink:href="#DejaVuSans-70"/>
      <use x="48.394531" xlink:href="#DejaVuSans-65"/>
      <use x="115.052734" xlink:href="#DejaVuSans-67"/>
      <use x="184.876953" xlink:href="#DejaVuSans-83"/>
      <use x="248.353516" xlink:href="#DejaVuSans-32"/>
      <use x="280.140625" xlink:href="#DejaVuSans-112"/>
      <use x="343.617188" xlink:href="#DejaVuSans-108"/>
      <use x="371.400391" xlink:href="#DejaVuSans-111"/>
      <use x="432.582031" xlink:href="#DejaVuSans-116"/>
      <use x="471.791016" xlink:href="#DejaVuSans-32"/>
      <use x="503.578125" xlink:href="#DejaVuSans-115"/>
      <use x="555.677734" xlink:href="#DejaVuSans-104"/>
      <use x="619.056641" xlink:href="#DejaVuSans-97"/>
      <use x="680.335938" xlink:href="#DejaVuSans-112"/>
      <use x="743.8125" xlink:href="#DejaVuSans-101"/>
     </g>
    </g>
   </g>
   <g id="matplotlib.axis_2">
    <g id="ytick_1">
     <g id="line2d_5">
      <path d="M 164.152813 109.966829 
" style="fill:none;stroke:#333333;stroke-width:1.5;"/>
      <defs>
       <path d="M 0 0 
L -2.75 0 
" id="m464c33307d" style="stroke:#333333;"/>
      </defs>
      <g>
       <use style="fill:#333333;stroke:#333333;" x="164.152813" xlink:href="#m464c33307d" y="109.966829"/>
      </g>
     </g>
     <g id="text_6">
      <!-- 456-484 -->
      <defs>
       <path d="M 37.796875 64.3125 
L 12.890625 25.390625 
L 37.796875 25.390625 
z
M 35.203125 72.90625 
L 47.609375 72.90625 
L 47.609375 25.390625 
L 58.015625 25.390625 
L 58.015625 17.1875 
L 47.609375 17.1875 
L 47.609375 0 
L 37.796875 0 
L 37.796875 17.1875 
L 4.890625 17.1875 
L 4.890625 26.703125 
z
" id="DejaVuSans-52"/>
       <path d="M 10.796875 72.90625 
L 49.515625 72.90625 
L 49.515625 64.59375 
L 19.828125 64.59375 
L 19.828125 46.734375 
Q 21.96875 47.46875 24.109375 47.828125 
Q 26.265625 48.1875 28.421875 48.1875 
Q 40.625 48.1875 47.75 41.5 
Q 54.890625 34.8125 54.890625 23.390625 
Q 54.890625 11.625 47.5625 5.09375 
Q 40.234375 -1.421875 26.90625 -1.421875 
Q 22.3125 -1.421875 17.546875 -0.640625 
Q 12.796875 0.140625 7.71875 1.703125 
L 7.71875 11.625 
Q 12.109375 9.234375 16.796875 8.0625 
Q 21.484375 6.890625 26.703125 6.890625 
Q 35.15625 6.890625 40.078125 11.328125 
Q 45.015625 15.765625 45.015625 23.390625 
Q 45.015625 31 40.078125 35.4375 
Q 35.15625 39.890625 26.703125 39.890625 
Q 22.75 39.890625 18.8125 39.015625 
Q 14.890625 38.140625 10.796875 36.28125 
z
" id="DejaVuSans-53"/>
       <path d="M 33.015625 40.375 
Q 26.375 40.375 22.484375 35.828125 
Q 18.609375 31.296875 18.609375 23.390625 
Q 18.609375 15.53125 22.484375 10.953125 
Q 26.375 6.390625 33.015625 6.390625 
Q 39.65625 6.390625 43.53125 10.953125 
Q 47.40625 15.53125 47.40625 23.390625 
Q 47.40625 31.296875 43.53125 35.828125 
Q 39.65625 40.375 33.015625 40.375 
z
M 52.59375 71.296875 
L 52.59375 62.3125 
Q 48.875 64.0625 45.09375 64.984375 
Q 41.3125 65.921875 37.59375 65.921875 
Q 27.828125 65.921875 22.671875 59.328125 
Q 17.53125 52.734375 16.796875 39.40625 
Q 19.671875 43.65625 24.015625 45.921875 
Q 28.375 48.1875 33.59375 48.1875 
Q 44.578125 48.1875 50.953125 41.515625 
Q 57.328125 34.859375 57.328125 23.390625 
Q 57.328125 12.15625 50.6875 5.359375 
Q 44.046875 -1.421875 33.015625 -1.421875 
Q 20.359375 -1.421875 13.671875 8.265625 
Q 6.984375 17.96875 6.984375 36.375 
Q 6.984375 53.65625 15.1875 63.9375 
Q 23.390625 74.21875 37.203125 74.21875 
Q 40.921875 74.21875 44.703125 73.484375 
Q 48.484375 72.75 52.59375 71.296875 
z
" id="DejaVuSans-54"/>
       <path d="M 31.78125 34.625 
Q 24.75 34.625 20.71875 30.859375 
Q 16.703125 27.09375 16.703125 20.515625 
Q 16.703125 13.921875 20.71875 10.15625 
Q 24.75 6.390625 31.78125 6.390625 
Q 38.8125 6.390625 42.859375 10.171875 
Q 46.921875 13.96875 46.921875 20.515625 
Q 46.921875 27.09375 42.890625 30.859375 
Q 38.875 34.625 31.78125 34.625 
z
M 21.921875 38.8125 
Q 15.578125 40.375 12.03125 44.71875 
Q 8.5 49.078125 8.5 55.328125 
Q 8.5 64.0625 14.71875 69.140625 
Q 20.953125 74.21875 31.78125 74.21875 
Q 42.671875 74.21875 48.875 69.140625 
Q 55.078125 64.0625 55.078125 55.328125 
Q 55.078125 49.078125 51.53125 44.71875 
Q 48 40.375 41.703125 38.8125 
Q 48.828125 37.15625 52.796875 32.3125 
Q 56.78125 27.484375 56.78125 20.515625 
Q 56.78125 9.90625 50.3125 4.234375 
Q 43.84375 -1.421875 31.78125 -1.421875 
Q 19.734375 -1.421875 13.25 4.234375 
Q 6.78125 9.90625 6.78125 20.515625 
Q 6.78125 27.484375 10.78125 32.3125 
Q 14.796875 37.15625 21.921875 38.8125 
z
M 18.3125 54.390625 
Q 18.3125 48.734375 21.84375 45.5625 
Q 25.390625 42.390625 31.78125 42.390625 
Q 38.140625 42.390625 41.71875 45.5625 
Q 45.3125 48.734375 45.3125 54.390625 
Q 45.3125 60.0625 41.71875 63.234375 
Q 38.140625 66.40625 31.78125 66.40625 
Q 25.390625 66.40625 21.84375 63.234375 
Q 18.3125 60.0625 18.3125 54.390625 
z
" id="DejaVuSans-56"/>
      </defs>
      <g style="fill:#4d4d4d;" transform="translate(122.433938 112.395079)scale(0.088 -0.088)">
       <use xlink:href="#DejaVuSans-52"/>
       <use x="63.623047" xlink:href="#DejaVuSans-53"/>
       <use x="127.246094" xlink:href="#DejaVuSans-54"/>
       <use x="190.869141" xlink:href="#DejaVuSans-45"/>
       <use x="226.953125" xlink:href="#DejaVuSans-52"/>
       <use x="290.576172" xlink:href="#DejaVuSans-56"/>
       <use x="354.199219" xlink:href="#DejaVuSans-52"/>
      </g>
     </g>
    </g>
    <g id="ytick_2">
     <g id="line2d_6">
      <path d="M 164.152813 96.444878 
" style="fill:none;stroke:#333333;stroke-width:1.5;"/>
      <g>
       <use style="fill:#333333;stroke:#333333;" x="164.152813" xlink:href="#m464c33307d" y="96.444878"/>
      </g>
     </g>
     <g id="text_7">
      <!-- 456-484 low magnitude -->
      <defs>
       <path d="M 4.203125 54.6875 
L 13.1875 54.6875 
L 24.421875 12.015625 
L 35.59375 54.6875 
L 46.1875 54.6875 
L 57.421875 12.015625 
L 68.609375 54.6875 
L 77.59375 54.6875 
L 63.28125 0 
L 52.6875 0 
L 40.921875 44.828125 
L 29.109375 0 
L 18.5 0 
z
" id="DejaVuSans-119"/>
       <path d="M 45.40625 27.984375 
Q 45.40625 37.75 41.375 43.109375 
Q 37.359375 48.484375 30.078125 48.484375 
Q 22.859375 48.484375 18.828125 43.109375 
Q 14.796875 37.75 14.796875 27.984375 
Q 14.796875 18.265625 18.828125 12.890625 
Q 22.859375 7.515625 30.078125 7.515625 
Q 37.359375 7.515625 41.375 12.890625 
Q 45.40625 18.265625 45.40625 27.984375 
z
M 54.390625 6.78125 
Q 54.390625 -7.171875 48.1875 -13.984375 
Q 42 -20.796875 29.203125 -20.796875 
Q 24.46875 -20.796875 20.265625 -20.09375 
Q 16.0625 -19.390625 12.109375 -17.921875 
L 12.109375 -9.1875 
Q 16.0625 -11.328125 19.921875 -12.34375 
Q 23.78125 -13.375 27.78125 -13.375 
Q 36.625 -13.375 41.015625 -8.765625 
Q 45.40625 -4.15625 45.40625 5.171875 
L 45.40625 9.625 
Q 42.625 4.78125 38.28125 2.390625 
Q 33.9375 0 27.875 0 
Q 17.828125 0 11.671875 7.65625 
Q 5.515625 15.328125 5.515625 27.984375 
Q 5.515625 40.671875 11.671875 48.328125 
Q 17.828125 56 27.875 56 
Q 33.9375 56 38.28125 53.609375 
Q 42.625 51.21875 45.40625 46.390625 
L 45.40625 54.6875 
L 54.390625 54.6875 
z
" id="DejaVuSans-103"/>
       <path d="M 9.421875 54.6875 
L 18.40625 54.6875 
L 18.40625 0 
L 9.421875 0 
z
M 9.421875 75.984375 
L 18.40625 75.984375 
L 18.40625 64.59375 
L 9.421875 64.59375 
z
" id="DejaVuSans-105"/>
       <path d="M 8.5 21.578125 
L 8.5 54.6875 
L 17.484375 54.6875 
L 17.484375 21.921875 
Q 17.484375 14.15625 20.5 10.265625 
Q 23.53125 6.390625 29.59375 6.390625 
Q 36.859375 6.390625 41.078125 11.03125 
Q 45.3125 15.671875 45.3125 23.6875 
L 45.3125 54.6875 
L 54.296875 54.6875 
L 54.296875 0 
L 45.3125 0 
L 45.3125 8.40625 
Q 42.046875 3.421875 37.71875 1 
Q 33.40625 -1.421875 27.6875 -1.421875 
Q 18.265625 -1.421875 13.375 4.4375 
Q 8.5 10.296875 8.5 21.578125 
z
M 31.109375 56 
z
" id="DejaVuSans-117"/>
       <path d="M 45.40625 46.390625 
L 45.40625 75.984375 
L 54.390625 75.984375 
L 54.390625 0 
L 45.40625 0 
L 45.40625 8.203125 
Q 42.578125 3.328125 38.25 0.953125 
Q 33.9375 -1.421875 27.875 -1.421875 
Q 17.96875 -1.421875 11.734375 6.484375 
Q 5.515625 14.40625 5.515625 27.296875 
Q 5.515625 40.1875 11.734375 48.09375 
Q 17.96875 56 27.875 56 
Q 33.9375 56 38.25 53.625 
Q 42.578125 51.265625 45.40625 46.390625 
z
M 14.796875 27.296875 
Q 14.796875 17.390625 18.875 11.75 
Q 22.953125 6.109375 30.078125 6.109375 
Q 37.203125 6.109375 41.296875 11.75 
Q 45.40625 17.390625 45.40625 27.296875 
Q 45.40625 37.203125 41.296875 42.84375 
Q 37.203125 48.484375 30.078125 48.484375 
Q 22.953125 48.484375 18.875 42.84375 
Q 14.796875 37.203125 14.796875 27.296875 
z
" id="DejaVuSans-100"/>
      </defs>
      <g style="fill:#4d4d4d;" transform="translate(54.213313 98.873128)scale(0.088 -0.088)">
       <use xlink:href="#DejaVuSans-52"/>
       <use x="63.623047" xlink:href="#DejaVuSans-53"/>
       <use x="127.246094" xlink:href="#DejaVuSans-54"/>
       <use x="190.869141" xlink:href="#DejaVuSans-45"/>
       <use x="226.953125" xlink:href="#DejaVuSans-52"/>
       <use x="290.576172" xlink:href="#DejaVuSans-56"/>
       <use x="354.199219" xlink:href="#DejaVuSans-52"/>
       <use x="417.822266" xlink:href="#DejaVuSans-32"/>
       <use x="449.609375" xlink:href="#DejaVuSans-108"/>
       <use x="477.392578" xlink:href="#DejaVuSans-111"/>
       <use x="538.574219" xlink:href="#DejaVuSans-119"/>
       <use x="620.361328" xlink:href="#DejaVuSans-32"/>
       <use x="652.148438" xlink:href="#DejaVuSans-109"/>
       <use x="749.560547" xlink:href="#DejaVuSans-97"/>
       <use x="810.839844" xlink:href="#DejaVuSans-103"/>
       <use x="874.316406" xlink:href="#DejaVuSans-110"/>
       <use x="937.695312" xlink:href="#DejaVuSans-105"/>
       <use x="965.478516" xlink:href="#DejaVuSans-116"/>
       <use x="1004.6875" xlink:href="#DejaVuSans-117"/>
       <use x="1068.066406" xlink:href="#DejaVuSans-100"/>
       <use x="1131.542969" xlink:href="#DejaVuSans-101"/>
      </g>
     </g>
    </g>
    <g id="ytick_3">
     <g id="line2d_7">
      <path d="M 164.152813 82.922927 
" style="fill:none;stroke:#333333;stroke-width:1.5;"/>
      <g>
       <use style="fill:#333333;stroke:#333333;" x="164.152813" xlink:href="#m464c33307d" y="82.922927"/>
      </g>
     </g>
     <g id="text_8">
      <!-- 456-484 noisy -->
      <defs>
       <path d="M 32.171875 -5.078125 
Q 28.375 -14.84375 24.75 -17.8125 
Q 21.140625 -20.796875 15.09375 -20.796875 
L 7.90625 -20.796875 
L 7.90625 -13.28125 
L 13.1875 -13.28125 
Q 16.890625 -13.28125 18.9375 -11.515625 
Q 21 -9.765625 23.484375 -3.21875 
L 25.09375 0.875 
L 2.984375 54.6875 
L 12.5 54.6875 
L 29.59375 11.921875 
L 46.6875 54.6875 
L 56.203125 54.6875 
z
" id="DejaVuSans-121"/>
      </defs>
      <g style="fill:#4d4d4d;" transform="translate(96.438188 85.351177)scale(0.088 -0.088)">
       <use xlink:href="#DejaVuSans-52"/>
       <use x="63.623047" xlink:href="#DejaVuSans-53"/>
       <use x="127.246094" xlink:href="#DejaVuSans-54"/>
       <use x="190.869141" xlink:href="#DejaVuSans-45"/>
       <use x="226.953125" xlink:href="#DejaVuSans-52"/>
       <use x="290.576172" xlink:href="#DejaVuSans-56"/>
       <use x="354.199219" xlink:href="#DejaVuSans-52"/>
       <use x="417.822266" xlink:href="#DejaVuSans-32"/>
       <use x="449.609375" xlink:href="#DejaVuSans-110"/>
       <use x="512.988281" xlink:href="#DejaVuSans-111"/>
       <use x="574.169922" xlink:href="#DejaVuSans-105"/>
       <use x="601.953125" xlink:href="#DejaVuSans-115"/>
       <use x="654.052734" xlink:href="#DejaVuSans-121"/>
      </g>
     </g>
    </g>
    <g id="ytick_4">
     <g id="line2d_8">
      <path d="M 164.152813 69.400976 
" style="fill:none;stroke:#333333;stroke-width:1.5;"/>
      <g>
       <use style="fill:#333333;stroke:#333333;" x="164.152813" xlink:href="#m464c33307d" y="69.400976"/>
      </g>
     </g>
     <g id="text_9">
      <!-- 456-484 low magnitude - noisy -->
      <g style="fill:#4d4d4d;" transform="translate(22.245937 71.829226)scale(0.088 -0.088)">
       <use xlink:href="#DejaVuSans-52"/>
       <use x="63.623047" xlink:href="#DejaVuSans-53"/>
       <use x="127.246094" xlink:href="#DejaVuSans-54"/>
       <use x="190.869141" xlink:href="#DejaVuSans-45"/>
       <use x="226.953125" xlink:href="#DejaVuSans-52"/>
       <use x="290.576172" xlink:href="#DejaVuSans-56"/>
       <use x="354.199219" xlink:href="#DejaVuSans-52"/>
       <use x="417.822266" xlink:href="#DejaVuSans-32"/>
       <use x="449.609375" xlink:href="#DejaVuSans-108"/>
       <use x="477.392578" xlink:href="#DejaVuSans-111"/>
       <use x="538.574219" xlink:href="#DejaVuSans-119"/>
       <use x="620.361328" xlink:href="#DejaVuSans-32"/>
       <use x="652.148438" xlink:href="#DejaVuSans-109"/>
       <use x="749.560547" xlink:href="#DejaVuSans-97"/>
       <use x="810.839844" xlink:href="#DejaVuSans-103"/>
       <use x="874.316406" xlink:href="#DejaVuSans-110"/>
       <use x="937.695312" xlink:href="#DejaVuSans-105"/>
       <use x="965.478516" xlink:href="#DejaVuSans-116"/>
       <use x="1004.6875" xlink:href="#DejaVuSans-117"/>
       <use x="1068.066406" xlink:href="#DejaVuSans-100"/>
       <use x="1131.542969" xlink:href="#DejaVuSans-101"/>
       <use x="1193.066406" xlink:href="#DejaVuSans-32"/>
       <use x="1224.853516" xlink:href="#DejaVuSans-45"/>
       <use x="1260.9375" xlink:href="#DejaVuSans-32"/>
       <use x="1292.724609" xlink:href="#DejaVuSans-110"/>
       <use x="1356.103516" xlink:href="#DejaVuSans-111"/>
       <use x="1417.285156" xlink:href="#DejaVuSans-105"/>
       <use x="1445.068359" xlink:href="#DejaVuSans-115"/>
       <use x="1497.167969" xlink:href="#DejaVuSans-121"/>
      </g>
     </g>
    </g>
    <g id="ytick_5">
     <g id="line2d_9">
      <path d="M 164.152813 55.879024 
" style="fill:none;stroke:#333333;stroke-width:1.5;"/>
      <g>
       <use style="fill:#333333;stroke:#333333;" x="164.152813" xlink:href="#m464c33307d" y="55.879024"/>
      </g>
     </g>
     <g id="text_10">
      <!-- 443-450 -->
      <defs>
       <path d="M 40.578125 39.3125 
Q 47.65625 37.796875 51.625 33 
Q 55.609375 28.21875 55.609375 21.1875 
Q 55.609375 10.40625 48.1875 4.484375 
Q 40.765625 -1.421875 27.09375 -1.421875 
Q 22.515625 -1.421875 17.65625 -0.515625 
Q 12.796875 0.390625 7.625 2.203125 
L 7.625 11.71875 
Q 11.71875 9.328125 16.59375 8.109375 
Q 21.484375 6.890625 26.8125 6.890625 
Q 36.078125 6.890625 40.9375 10.546875 
Q 45.796875 14.203125 45.796875 21.1875 
Q 45.796875 27.640625 41.28125 31.265625 
Q 36.765625 34.90625 28.71875 34.90625 
L 20.21875 34.90625 
L 20.21875 43.015625 
L 29.109375 43.015625 
Q 36.375 43.015625 40.234375 45.921875 
Q 44.09375 48.828125 44.09375 54.296875 
Q 44.09375 59.90625 40.109375 62.90625 
Q 36.140625 65.921875 28.71875 65.921875 
Q 24.65625 65.921875 20.015625 65.03125 
Q 15.375 64.15625 9.8125 62.3125 
L 9.8125 71.09375 
Q 15.4375 72.65625 20.34375 73.4375 
Q 25.25 74.21875 29.59375 74.21875 
Q 40.828125 74.21875 47.359375 69.109375 
Q 53.90625 64.015625 53.90625 55.328125 
Q 53.90625 49.265625 50.4375 45.09375 
Q 46.96875 40.921875 40.578125 39.3125 
z
" id="DejaVuSans-51"/>
       <path d="M 31.78125 66.40625 
Q 24.171875 66.40625 20.328125 58.90625 
Q 16.5 51.421875 16.5 36.375 
Q 16.5 21.390625 20.328125 13.890625 
Q 24.171875 6.390625 31.78125 6.390625 
Q 39.453125 6.390625 43.28125 13.890625 
Q 47.125 21.390625 47.125 36.375 
Q 47.125 51.421875 43.28125 58.90625 
Q 39.453125 66.40625 31.78125 66.40625 
z
M 31.78125 74.21875 
Q 44.046875 74.21875 50.515625 64.515625 
Q 56.984375 54.828125 56.984375 36.375 
Q 56.984375 17.96875 50.515625 8.265625 
Q 44.046875 -1.421875 31.78125 -1.421875 
Q 19.53125 -1.421875 13.0625 8.265625 
Q 6.59375 17.96875 6.59375 36.375 
Q 6.59375 54.828125 13.0625 64.515625 
Q 19.53125 74.21875 31.78125 74.21875 
z
" id="DejaVuSans-48"/>
      </defs>
      <g style="fill:#4d4d4d;" transform="translate(122.433938 58.307274)scale(0.088 -0.088)">
       <use xlink:href="#DejaVuSans-52"/>
       <use x="63.623047" xlink:href="#DejaVuSans-52"/>
       <use x="127.246094" xlink:href="#DejaVuSans-51"/>
       <use x="190.869141" xlink:href="#DejaVuSans-45"/>
       <use x="226.953125" xlink:href="#DejaVuSans-52"/>
       <use x="290.576172" xlink:href="#DejaVuSans-53"/>
       <use x="354.199219" xlink:href="#DejaVuSans-48"/>
      </g>
     </g>
    </g>
    <g id="ytick_6">
     <g id="line2d_10">
      <path d="M 164.152813 42.357073 
" style="fill:none;stroke:#333333;stroke-width:1.5;"/>
      <g>
       <use style="fill:#333333;stroke:#333333;" x="164.152813" xlink:href="#m464c33307d" y="42.357073"/>
      </g>
     </g>
     <g id="text_11">
      <!-- core -->
      <g style="fill:#4d4d4d;" transform="translate(140.145313 44.785323)scale(0.088 -0.088)">
       <use xlink:href="#DejaVuSans-99"/>
       <use x="54.980469" xlink:href="#DejaVuSans-111"/>
       <use x="116.162109" xlink:href="#DejaVuSans-114"/>
       <use x="155.025391" xlink:href="#DejaVuSans-101"/>
      </g>
     </g>
    </g>
    <g id="ytick_7">
     <g id="line2d_11">
      <path d="M 164.152813 28.835122 
" style="fill:none;stroke:#333333;stroke-width:1.5;"/>
      <g>
       <use style="fill:#333333;stroke:#333333;" x="164.152813" xlink:href="#m464c33307d" y="28.835122"/>
      </g>
     </g>
     <g id="text_12">
      <!-- flat - noisy -->
      <defs>
       <path d="M 37.109375 75.984375 
L 37.109375 68.5 
L 28.515625 68.5 
Q 23.6875 68.5 21.796875 66.546875 
Q 19.921875 64.59375 19.921875 59.515625 
L 19.921875 54.6875 
L 34.71875 54.6875 
L 34.71875 47.703125 
L 19.921875 47.703125 
L 19.921875 0 
L 10.890625 0 
L 10.890625 47.703125 
L 2.296875 47.703125 
L 2.296875 54.6875 
L 10.890625 54.6875 
L 10.890625 58.5 
Q 10.890625 67.625 15.140625 71.796875 
Q 19.390625 75.984375 28.609375 75.984375 
z
" id="DejaVuSans-102"/>
      </defs>
      <g style="fill:#4d4d4d;" transform="translate(112.850188 31.263372)scale(0.088 -0.088)">
       <use xlink:href="#DejaVuSans-102"/>
       <use x="35.205078" xlink:href="#DejaVuSans-108"/>
       <use x="62.988281" xlink:href="#DejaVuSans-97"/>
       <use x="124.267578" xlink:href="#DejaVuSans-116"/>
       <use x="163.476562" xlink:href="#DejaVuSans-32"/>
       <use x="195.263672" xlink:href="#DejaVuSans-45"/>
       <use x="231.347656" xlink:href="#DejaVuSans-32"/>
       <use x="263.134766" xlink:href="#DejaVuSans-110"/>
       <use x="326.513672" xlink:href="#DejaVuSans-111"/>
       <use x="387.695312" xlink:href="#DejaVuSans-105"/>
       <use x="415.478516" xlink:href="#DejaVuSans-115"/>
       <use x="467.578125" xlink:href="#DejaVuSans-121"/>
      </g>
     </g>
    </g>
    <g id="ytick_8">
     <g id="line2d_12">
      <path d="M 164.152813 15.313171 
" style="fill:none;stroke:#333333;stroke-width:1.5;"/>
      <g>
       <use style="fill:#333333;stroke:#333333;" x="164.152813" xlink:href="#m464c33307d" y="15.313171"/>
      </g>
     </g>
     <g id="text_13">
      <!-- flat -->
      <g style="fill:#4d4d4d;" transform="translate(144.817563 17.741421)scale(0.088 -0.088)">
       <use xlink:href="#DejaVuSans-102"/>
       <use x="35.205078" xlink:href="#DejaVuSans-108"/>
       <use x="62.988281" xlink:href="#DejaVuSans-97"/>
       <use x="124.267578" xlink:href="#DejaVuSans-116"/>
      </g>
     </g>
    </g>
    <g id="text_14">
     <!-- escape map -->
     <g transform="translate(15.558281 95.407266)rotate(-90)scale(0.11 -0.11)">
      <use xlink:href="#DejaVuSans-101"/>
      <use x="61.523438" xlink:href="#DejaVuSans-115"/>
      <use x="113.623047" xlink:href="#DejaVuSans-99"/>
      <use x="168.603516" xlink:href="#DejaVuSans-97"/>
      <use x="229.882812" xlink:href="#DejaVuSans-112"/>
      <use x="293.359375" xlink:href="#DejaVuSans-101"/>
      <use x="354.882812" xlink:href="#DejaVuSans-32"/>
      <use x="386.669922" xlink:href="#DejaVuSans-109"/>
      <use x="484.082031" xlink:href="#DejaVuSans-97"/>
      <use x="545.361328" xlink:href="#DejaVuSans-112"/>
     </g>
    </g>
   </g>
   <g id="PathCollection_1">
    <path clip-path="url(#p203fa7577d)" d="M 232.882469 111.601309 
C 233.587559 111.601309 234.263866 111.321174 234.76244 110.8226 
C 235.261014 110.324025 235.54115 109.647719 235.54115 108.942628 
C 235.54115 108.237538 235.261014 107.561231 234.76244 107.062657 
C 234.263866 106.564083 233.587559 106.283948 232.882469 106.283948 
C 232.177379 106.283948 231.501072 106.564083 231.002498 107.062657 
C 230.503924 107.561231 230.223788 108.237538 230.223788 108.942628 
C 230.223788 109.647719 230.503924 110.324025 231.002498 110.8226 
C 231.501072 111.321174 232.177379 111.601309 232.882469 111.601309 
z
" style="fill:#56b4e9;fill-opacity:0.25098;stroke:#56b4e9;stroke-opacity:0.25098;stroke-width:0.886227;"/>
    <path clip-path="url(#p203fa7577d)" d="M 204.690197 19.891364 
C 205.395287 19.891364 206.071594 19.611229 206.570168 19.112654 
C 207.068743 18.61408 207.348878 17.937774 207.348878 17.232683 
C 207.348878 16.527593 207.068743 15.851286 206.570168 15.352712 
C 206.071594 14.854138 205.395287 14.574002 204.690197 14.574002 
C 203.985107 14.574002 203.3088 14.854138 202.810226 15.352712 
C 202.311652 15.851286 202.031516 16.527593 202.031516 17.232683 
C 202.031516 17.937774 202.311652 18.61408 202.810226 19.112654 
C 203.3088 19.611229 203.985107 19.891364 204.690197 19.891364 
z
" style="fill:#56b4e9;fill-opacity:0.25098;stroke:#56b4e9;stroke-opacity:0.25098;stroke-width:0.886227;"/>
    <path clip-path="url(#p203fa7577d)" d="M 204.681857 101.124051 
C 205.386947 101.124051 206.063254 100.843915 206.561828 100.345341 
C 207.060402 99.846767 207.340538 99.17046 207.340538 98.46537 
C 207.340538 97.76028 207.060402 97.083973 206.561828 96.585399 
C 206.063254 96.086825 205.386947 95.806689 204.681857 95.806689 
C 203.976766 95.806689 203.30046 96.086825 202.801886 96.585399 
C 202.303311 97.083973 202.023176 97.76028 202.023176 98.46537 
C 202.023176 99.17046 202.303311 99.846767 202.801886 100.345341 
C 203.30046 100.843915 203.976766 101.124051 204.681857 101.124051 
z
" style="fill:#56b4e9;fill-opacity:0.25098;stroke:#56b4e9;stroke-opacity:0.25098;stroke-width:0.886227;"/>
    <path clip-path="url(#p203fa7577d)" d="M 231.770615 43.868372 
C 232.475706 43.868372 233.152012 43.588236 233.650587 43.089662 
C 234.149161 42.591088 234.429296 41.914781 234.429296 41.209691 
C 234.429296 40.504601 234.149161 39.828294 233.650587 39.32972 
C 233.152012 38.831146 232.475706 38.55101 231.770615 38.55101 
C 231.065525 38.55101 230.389218 38.831146 229.890644 39.32972 
C 229.39207 39.828294 229.111935 40.504601 229.111935 41.209691 
C 229.111935 41.914781 229.39207 42.591088 229.890644 43.089662 
C 230.389218 43.588236 231.065525 43.868372 231.770615 43.868372 
z
" style="fill:#56b4e9;fill-opacity:0.25098;stroke:#56b4e9;stroke-opacity:0.25098;stroke-width:0.886227;"/>
    <path clip-path="url(#p203fa7577d)" d="M 178.191674 18.985862 
C 178.896765 18.985862 179.573071 18.705726 180.071645 18.207152 
C 180.57022 17.708578 180.850355 17.032271 180.850355 16.327181 
C 180.850355 15.622091 180.57022 14.945784 180.071645 14.44721 
C 179.573071 13.948636 178.896765 13.6685 178.191674 13.6685 
C 177.486584 13.6685 176.810277 13.948636 176.311703 14.44721 
C 175.813129 14.945784 175.532993 15.622091 175.532993 16.327181 
C 175.532993 17.032271 175.813129 17.708578 176.311703 18.207152 
C 176.810277 18.705726 177.486584 18.985862 178.191674 18.985862 
z
" style="fill:#56b4e9;fill-opacity:0.25098;stroke:#56b4e9;stroke-opacity:0.25098;stroke-width:0.886227;"/>
    <path clip-path="url(#p203fa7577d)" d="M 208.466172 16.531991 
C 209.171262 16.531991 209.847569 16.251856 210.346143 15.753281 
C 210.844717 15.254707 211.124853 14.578401 211.124853 13.87331 
C 211.124853 13.16822 210.844717 12.491913 210.346143 11.993339 
C 209.847569 11.494765 209.171262 11.214629 208.466172 11.214629 
C 207.761082 11.214629 207.084775 11.494765 206.586201 11.993339 
C 206.087627 12.491913 205.807491 13.16822 205.807491 13.87331 
C 205.807491 14.578401 206.087627 15.254707 206.586201 15.753281 
C 207.084775 16.251856 207.761082 16.531991 208.466172 16.531991 
z
" style="fill:#56b4e9;fill-opacity:0.25098;stroke:#56b4e9;stroke-opacity:0.25098;stroke-width:0.886227;"/>
    <path clip-path="url(#p203fa7577d)" d="M 209.070977 98.778092 
C 209.776068 98.778092 210.452374 98.497957 210.950948 97.999383 
C 211.449523 97.500808 211.729658 96.824502 211.729658 96.119411 
C 211.729658 95.414321 211.449523 94.738014 210.950948 94.23944 
C 210.452374 93.740866 209.776068 93.460731 209.070977 93.460731 
C 208.365887 93.460731 207.68958 93.740866 207.191006 94.23944 
C 206.692432 94.738014 206.412296 95.414321 206.412296 96.119411 
C 206.412296 96.824502 206.692432 97.500808 207.191006 97.999383 
C 207.68958 98.497957 208.365887 98.778092 209.070977 98.778092 
z
" style="fill:#56b4e9;fill-opacity:0.25098;stroke:#56b4e9;stroke-opacity:0.25098;stroke-width:0.886227;"/>
    <path clip-path="url(#p203fa7577d)" d="M 180.296723 112.180024 
C 181.001813 112.180024 181.67812 111.899888 182.176694 111.401314 
C 182.675268 110.90274 182.955404 110.226433 182.955404 109.521343 
C 182.955404 108.816253 182.675268 108.139946 182.176694 107.641372 
C 181.67812 107.142798 181.001813 106.862662 180.296723 106.862662 
C 179.591633 106.862662 178.915326 107.142798 178.416752 107.641372 
C 177.918178 108.139946 177.638042 108.816253 177.638042 109.521343 
C 177.638042 110.226433 177.918178 110.90274 178.416752 111.401314 
C 178.915326 111.899888 179.591633 112.180024 180.296723 112.180024 
z
" style="fill:#56b4e9;fill-opacity:0.25098;stroke:#56b4e9;stroke-opacity:0.25098;stroke-width:0.886227;"/>
    <path clip-path="url(#p203fa7577d)" d="M 262.574208 70.106329 
C 263.279298 70.106329 263.955605 69.826194 264.454179 69.32762 
C 264.952753 68.829045 265.232889 68.152739 265.232889 67.447648 
C 265.232889 66.742558 264.952753 66.066251 264.454179 65.567677 
C 263.955605 65.069103 263.279298 64.788968 262.574208 64.788968 
C 261.869118 64.788968 261.192811 65.069103 260.694237 65.567677 
C 260.195663 66.066251 259.915527 66.742558 259.915527 67.447648 
C 259.915527 68.152739 260.195663 68.829045 260.694237 69.32762 
C 261.192811 69.826194 261.869118 70.106329 262.574208 70.106329 
z
" style="fill:#56b4e9;fill-opacity:0.25098;stroke:#56b4e9;stroke-opacity:0.25098;stroke-width:0.886227;"/>
    <path clip-path="url(#p203fa7577d)" d="M 205.307081 18.49785 
C 206.012172 18.49785 206.688478 18.217715 207.187052 17.719141 
C 207.685627 17.220567 207.965762 16.54426 207.965762 15.83917 
C 207.965762 15.134079 207.685627 14.457773 207.187052 13.959199 
C 206.688478 13.460624 206.012172 13.180489 205.307081 13.180489 
C 204.601991 13.180489 203.925684 13.460624 203.42711 13.959199 
C 202.928536 14.457773 202.6484 15.134079 202.6484 15.83917 
C 202.6484 16.54426 202.928536 17.220567 203.42711 17.719141 
C 203.925684 18.217715 204.601991 18.49785 205.307081 18.49785 
z
" style="fill:#56b4e9;fill-opacity:0.25098;stroke:#56b4e9;stroke-opacity:0.25098;stroke-width:0.886227;"/>
    <path clip-path="url(#p203fa7577d)" d="M 260.865176 44.998264 
C 261.570267 44.998264 262.246573 44.718129 262.745148 44.219555 
C 263.243722 43.720981 263.523857 43.044674 263.523857 42.339584 
C 263.523857 41.634493 263.243722 40.958187 262.745148 40.459612 
C 262.246573 39.961038 261.570267 39.680903 260.865176 39.680903 
C 260.160086 39.680903 259.483779 39.961038 258.985205 40.459612 
C 258.486631 40.958187 258.206496 41.634493 258.206496 42.339584 
C 258.206496 43.044674 258.486631 43.720981 258.985205 44.219555 
C 259.483779 44.718129 260.160086 44.998264 260.865176 44.998264 
z
" style="fill:#56b4e9;fill-opacity:0.25098;stroke:#56b4e9;stroke-opacity:0.25098;stroke-width:0.886227;"/>
    <path clip-path="url(#p203fa7577d)" d="M 178.440235 18.443357 
C 179.145325 18.443357 179.821632 18.163222 180.320206 17.664648 
C 180.81878 17.166074 181.098916 16.489767 181.098916 15.784677 
C 181.098916 15.079586 180.81878 14.40328 180.320206 13.904705 
C 179.821632 13.406131 179.145325 13.125996 178.440235 13.125996 
C 177.735144 13.125996 177.058838 13.406131 176.560264 13.904705 
C 176.061689 14.40328 175.781554 15.079586 175.781554 15.784677 
C 175.781554 16.489767 176.061689 17.166074 176.560264 17.664648 
C 177.058838 18.163222 177.735144 18.443357 178.440235 18.443357 
z
" style="fill:#56b4e9;fill-opacity:0.25098;stroke:#56b4e9;stroke-opacity:0.25098;stroke-width:0.886227;"/>
    <path clip-path="url(#p203fa7577d)" d="M 207.570508 17.842082 
C 208.275598 17.842082 208.951905 17.561946 209.450479 17.063372 
C 209.949053 16.564798 210.229188 15.888491 210.229188 15.183401 
C 210.229188 14.478311 209.949053 13.802004 209.450479 13.30343 
C 208.951905 12.804856 208.275598 12.52472 207.570508 12.52472 
C 206.865417 12.52472 206.189111 12.804856 205.690536 13.30343 
C 205.191962 13.802004 204.911827 14.478311 204.911827 15.183401 
C 204.911827 15.888491 205.191962 16.564798 205.690536 17.063372 
C 206.189111 17.561946 206.865417 17.842082 207.570508 17.842082 
z
" style="fill:#56b4e9;fill-opacity:0.25098;stroke:#56b4e9;stroke-opacity:0.25098;stroke-width:0.886227;"/>
    <path clip-path="url(#p203fa7577d)" d="M 229.417859 113.990414 
C 230.12295 113.990414 230.799256 113.710278 231.29783 113.211704 
C 231.796405 112.71313 232.07654 112.036823 232.07654 111.331733 
C 232.07654 110.626643 231.796405 109.950336 231.29783 109.451762 
C 230.799256 108.953188 230.12295 108.673052 229.417859 108.673052 
C 228.712769 108.673052 228.036462 108.953188 227.537888 109.451762 
C 227.039314 109.950336 226.759179 110.626643 226.759179 111.331733 
C 226.759179 112.036823 227.039314 112.71313 227.537888 113.211704 
C 228.036462 113.710278 228.712769 113.990414 229.417859 113.990414 
z
" style="fill:#56b4e9;fill-opacity:0.25098;stroke:#56b4e9;stroke-opacity:0.25098;stroke-width:0.886227;"/>
    <path clip-path="url(#p203fa7577d)" d="M 236.824871 110.648843 
C 237.529962 110.648843 238.206268 110.368707 238.704842 109.870133 
C 239.203417 109.371559 239.483552 108.695252 239.483552 107.990162 
C 239.483552 107.285072 239.203417 106.608765 238.704842 106.110191 
C 238.206268 105.611617 237.529962 105.331481 236.824871 105.331481 
C 236.119781 105.331481 235.443474 105.611617 234.9449 106.110191 
C 234.446326 106.608765 234.16619 107.285072 234.16619 107.990162 
C 234.16619 108.695252 234.446326 109.371559 234.9449 109.870133 
C 235.443474 110.368707 236.119781 110.648843 236.824871 110.648843 
z
" style="fill:#56b4e9;fill-opacity:0.25098;stroke:#56b4e9;stroke-opacity:0.25098;stroke-width:0.886227;"/>
    <path clip-path="url(#p203fa7577d)" d="M 182.199375 19.845347 
C 182.904465 19.845347 183.580772 19.565212 184.079346 19.066638 
C 184.57792 18.568064 184.858055 17.891757 184.858055 17.186667 
C 184.858055 16.481576 184.57792 15.80527 184.079346 15.306695 
C 183.580772 14.808121 182.904465 14.527986 182.199375 14.527986 
C 181.494284 14.527986 180.817978 14.808121 180.319403 15.306695 
C 179.820829 15.80527 179.540694 16.481576 179.540694 17.186667 
C 179.540694 17.891757 179.820829 18.568064 180.319403 19.066638 
C 180.817978 19.565212 181.494284 19.845347 182.199375 19.845347 
z
" style="fill:#56b4e9;fill-opacity:0.25098;stroke:#56b4e9;stroke-opacity:0.25098;stroke-width:0.886227;"/>
    <path clip-path="url(#p203fa7577d)" d="M 205.548387 16.204545 
C 206.253477 16.204545 206.929784 15.92441 207.428358 15.425836 
C 207.926932 14.927262 208.207067 14.250955 208.207067 13.545865 
C 208.207067 12.840774 207.926932 12.164468 207.428358 11.665893 
C 206.929784 11.167319 206.253477 10.887184 205.548387 10.887184 
C 204.843296 10.887184 204.16699 11.167319 203.668415 11.665893 
C 203.169841 12.164468 202.889706 12.840774 202.889706 13.545865 
C 202.889706 14.250955 203.169841 14.927262 203.668415 15.425836 
C 204.16699 15.92441 204.843296 16.204545 205.548387 16.204545 
z
" style="fill:#56b4e9;fill-opacity:0.25098;stroke:#56b4e9;stroke-opacity:0.25098;stroke-width:0.886227;"/>
    <path clip-path="url(#p203fa7577d)" d="M 208.608533 18.87466 
C 209.313624 18.87466 209.98993 18.594525 210.488504 18.095951 
C 210.987079 17.597377 211.267214 16.92107 211.267214 16.21598 
C 211.267214 15.510889 210.987079 14.834583 210.488504 14.336008 
C 209.98993 13.837434 209.313624 13.557299 208.608533 13.557299 
C 207.903443 13.557299 207.227136 13.837434 206.728562 14.336008 
C 206.229988 14.834583 205.949852 15.510889 205.949852 16.21598 
C 205.949852 16.92107 206.229988 17.597377 206.728562 18.095951 
C 207.227136 18.594525 207.903443 18.87466 208.608533 18.87466 
z
" style="fill:#56b4e9;fill-opacity:0.25098;stroke:#56b4e9;stroke-opacity:0.25098;stroke-width:0.886227;"/>
    <path clip-path="url(#p203fa7577d)" d="M 203.769967 18.500762 
C 204.475057 18.500762 205.151364 18.220627 205.649938 17.722053 
C 206.148512 17.223479 206.428648 16.547172 206.428648 15.842082 
C 206.428648 15.136991 206.148512 14.460685 205.649938 13.96211 
C 205.151364 13.463536 204.475057 13.183401 203.769967 13.183401 
C 203.064877 13.183401 202.38857 13.463536 201.889996 13.96211 
C 201.391422 14.460685 201.111286 15.136991 201.111286 15.842082 
C 201.111286 16.547172 201.391422 17.223479 201.889996 17.722053 
C 202.38857 18.220627 203.064877 18.500762 203.769967 18.500762 
z
" style="fill:#56b4e9;fill-opacity:0.25098;stroke:#56b4e9;stroke-opacity:0.25098;stroke-width:0.886227;"/>
    <path clip-path="url(#p203fa7577d)" d="M 255.909301 32.478315 
C 256.614391 32.478315 257.290698 32.198179 257.789272 31.699605 
C 258.287846 31.201031 258.567982 30.524724 258.567982 29.819634 
C 258.567982 29.114544 258.287846 28.438237 257.789272 27.939663 
C 257.290698 27.441089 256.614391 27.160953 255.909301 27.160953 
C 255.20421 27.160953 254.527904 27.441089 254.02933 27.939663 
C 253.530755 28.438237 253.25062 29.114544 253.25062 29.819634 
C 253.25062 30.524724 253.530755 31.201031 254.02933 31.699605 
C 254.527904 32.198179 255.20421 32.478315 255.909301 32.478315 
z
" style="fill:#56b4e9;fill-opacity:0.25098;stroke:#56b4e9;stroke-opacity:0.25098;stroke-width:0.886227;"/>
    <path clip-path="url(#p203fa7577d)" d="M 258.398291 29.722821 
C 259.103381 29.722821 259.779688 29.442686 260.278262 28.944112 
C 260.776836 28.445537 261.056971 27.769231 261.056971 27.06414 
C 261.056971 26.35905 260.776836 25.682743 260.278262 25.184169 
C 259.779688 24.685595 259.103381 24.40546 258.398291 24.40546 
C 257.6932 24.40546 257.016894 24.685595 256.518319 25.184169 
C 256.019745 25.682743 255.73961 26.35905 255.73961 27.06414 
C 255.73961 27.769231 256.019745 28.445537 256.518319 28.944112 
C 257.016894 29.442686 257.6932 29.722821 258.398291 29.722821 
z
" style="fill:#56b4e9;fill-opacity:0.25098;stroke:#56b4e9;stroke-opacity:0.25098;stroke-width:0.886227;"/>
    <path clip-path="url(#p203fa7577d)" d="M 204.118641 16.301234 
C 204.823732 16.301234 205.500038 16.021099 205.998612 15.522524 
C 206.497187 15.02395 206.777322 14.347644 206.777322 13.642553 
C 206.777322 12.937463 206.497187 12.261156 205.998612 11.762582 
C 205.500038 11.264008 204.823732 10.983872 204.118641 10.983872 
C 203.413551 10.983872 202.737244 11.264008 202.23867 11.762582 
C 201.740096 12.261156 201.45996 12.937463 201.45996 13.642553 
C 201.45996 14.347644 201.740096 15.02395 202.23867 15.522524 
C 202.737244 16.021099 203.413551 16.301234 204.118641 16.301234 
z
" style="fill:#56b4e9;fill-opacity:0.25098;stroke:#56b4e9;stroke-opacity:0.25098;stroke-width:0.886227;"/>
    <path clip-path="url(#p203fa7577d)" d="M 231.815998 46.451109 
C 232.521088 46.451109 233.197395 46.170973 233.695969 45.672399 
C 234.194543 45.173825 234.474678 44.497518 234.474678 43.792428 
C 234.474678 43.087337 234.194543 42.411031 233.695969 41.912457 
C 233.197395 41.413882 232.521088 41.133747 231.815998 41.133747 
C 231.110907 41.133747 230.434601 41.413882 229.936026 41.912457 
C 229.437452 42.411031 229.157317 43.087337 229.157317 43.792428 
C 229.157317 44.497518 229.437452 45.173825 229.936026 45.672399 
C 230.434601 46.170973 231.110907 46.451109 231.815998 46.451109 
z
" style="fill:#56b4e9;fill-opacity:0.25098;stroke:#56b4e9;stroke-opacity:0.25098;stroke-width:0.886227;"/>
    <path clip-path="url(#p203fa7577d)" d="M 233.305483 71.141792 
C 234.010573 71.141792 234.68688 70.861657 235.185454 70.363082 
C 235.684029 69.864508 235.964164 69.188202 235.964164 68.483111 
C 235.964164 67.778021 235.684029 67.101714 235.185454 66.60314 
C 234.68688 66.104566 234.010573 65.824431 233.305483 65.824431 
C 232.600393 65.824431 231.924086 66.104566 231.425512 66.60314 
C 230.926938 67.101714 230.646802 67.778021 230.646802 68.483111 
C 230.646802 69.188202 230.926938 69.864508 231.425512 70.363082 
C 231.924086 70.861657 232.600393 71.141792 233.305483 71.141792 
z
" style="fill:#56b4e9;fill-opacity:0.25098;stroke:#56b4e9;stroke-opacity:0.25098;stroke-width:0.886227;"/>
    <path clip-path="url(#p203fa7577d)" d="M 234.258858 17.525923 
C 234.963949 17.525923 235.640255 17.245788 236.13883 16.747214 
C 236.637404 16.248639 236.917539 15.572333 236.917539 14.867242 
C 236.917539 14.162152 236.637404 13.485845 236.13883 12.987271 
C 235.640255 12.488697 234.963949 12.208562 234.258858 12.208562 
C 233.553768 12.208562 232.877461 12.488697 232.378887 12.987271 
C 231.880313 13.485845 231.600178 14.162152 231.600178 14.867242 
C 231.600178 15.572333 231.880313 16.248639 232.378887 16.747214 
C 232.877461 17.245788 233.553768 17.525923 234.258858 17.525923 
z
" style="fill:#56b4e9;fill-opacity:0.25098;stroke:#56b4e9;stroke-opacity:0.25098;stroke-width:0.886227;"/>
    <path clip-path="url(#p203fa7577d)" d="M 210.181102 99.231099 
C 210.886192 99.231099 211.562499 98.950964 212.061073 98.452389 
C 212.559647 97.953815 212.839783 97.277509 212.839783 96.572418 
C 212.839783 95.867328 212.559647 95.191021 212.061073 94.692447 
C 211.562499 94.193873 210.886192 93.913737 210.181102 93.913737 
C 209.476011 93.913737 208.799705 94.193873 208.301131 94.692447 
C 207.802556 95.191021 207.522421 95.867328 207.522421 96.572418 
C 207.522421 97.277509 207.802556 97.953815 208.301131 98.452389 
C 208.799705 98.950964 209.476011 99.231099 210.181102 99.231099 
z
" style="fill:#56b4e9;fill-opacity:0.25098;stroke:#56b4e9;stroke-opacity:0.25098;stroke-width:0.886227;"/>
    <path clip-path="url(#p203fa7577d)" d="M 208.285713 19.087505 
C 208.990803 19.087505 209.66711 18.80737 210.165684 18.308796 
C 210.664258 17.810221 210.944393 17.133915 210.944393 16.428824 
C 210.944393 15.723734 210.664258 15.047427 210.165684 14.548853 
C 209.66711 14.050279 208.990803 13.770144 208.285713 13.770144 
C 207.580622 13.770144 206.904316 14.050279 206.405741 14.548853 
C 205.907167 15.047427 205.627032 15.723734 205.627032 16.428824 
C 205.627032 17.133915 205.907167 17.810221 206.405741 18.308796 
C 206.904316 18.80737 207.580622 19.087505 208.285713 19.087505 
z
" style="fill:#56b4e9;fill-opacity:0.25098;stroke:#56b4e9;stroke-opacity:0.25098;stroke-width:0.886227;"/>
    <path clip-path="url(#p203fa7577d)" d="M 179.112055 17.45237 
C 179.817145 17.45237 180.493452 17.172234 180.992026 16.67366 
C 181.4906 16.175086 181.770735 15.498779 181.770735 14.793689 
C 181.770735 14.088598 181.4906 13.412292 180.992026 12.913718 
C 180.493452 12.415143 179.817145 12.135008 179.112055 12.135008 
C 178.406964 12.135008 177.730658 12.415143 177.232083 12.913718 
C 176.733509 13.412292 176.453374 14.088598 176.453374 14.793689 
C 176.453374 15.498779 176.733509 16.175086 177.232083 16.67366 
C 177.730658 17.172234 178.406964 17.45237 179.112055 17.45237 
z
" style="fill:#56b4e9;fill-opacity:0.25098;stroke:#56b4e9;stroke-opacity:0.25098;stroke-width:0.886227;"/>
    <path clip-path="url(#p203fa7577d)" d="M 204.789402 114.204774 
C 205.494493 114.204774 206.170799 113.924639 206.669374 113.426065 
C 207.167948 112.927491 207.448083 112.251184 207.448083 111.546094 
C 207.448083 110.841003 207.167948 110.164697 206.669374 109.666122 
C 206.170799 109.167548 205.494493 108.887413 204.789402 108.887413 
C 204.084312 108.887413 203.408005 109.167548 202.909431 109.666122 
C 202.410857 110.164697 202.130722 110.841003 202.130722 111.546094 
C 202.130722 112.251184 202.410857 112.927491 202.909431 113.426065 
C 203.408005 113.924639 204.084312 114.204774 204.789402 114.204774 
z
" style="fill:#e69f00;fill-opacity:0.25098;stroke:#e69f00;stroke-opacity:0.25098;stroke-width:0.886227;"/>
    <path clip-path="url(#p203fa7577d)" d="M 230.882615 114.439775 
C 231.587705 114.439775 232.264012 114.159639 232.762586 113.661065 
C 233.26116 113.162491 233.541296 112.486184 233.541296 111.781094 
C 233.541296 111.076004 233.26116 110.399697 232.762586 109.901123 
C 232.264012 109.402549 231.587705 109.122413 230.882615 109.122413 
C 230.177525 109.122413 229.501218 109.402549 229.002644 109.901123 
C 228.50407 110.399697 228.223934 111.076004 228.223934 111.781094 
C 228.223934 112.486184 228.50407 113.162491 229.002644 113.661065 
C 229.501218 114.159639 230.177525 114.439775 230.882615 114.439775 
z
" style="fill:#e69f00;fill-opacity:0.25098;stroke:#e69f00;stroke-opacity:0.25098;stroke-width:0.886227;"/>
    <path clip-path="url(#p203fa7577d)" d="M 260.032227 71.067816 
C 260.737317 71.067816 261.413624 70.787681 261.912198 70.289107 
C 262.410772 69.790533 262.690907 69.114226 262.690907 68.409136 
C 262.690907 67.704045 262.410772 67.027739 261.912198 66.529164 
C 261.413624 66.03059 260.737317 65.750455 260.032227 65.750455 
C 259.327136 65.750455 258.65083 66.03059 258.152255 66.529164 
C 257.653681 67.027739 257.373546 67.704045 257.373546 68.409136 
C 257.373546 69.114226 257.653681 69.790533 258.152255 70.289107 
C 258.65083 70.787681 259.327136 71.067816 260.032227 71.067816 
z
" style="fill:#e69f00;fill-opacity:0.25098;stroke:#e69f00;stroke-opacity:0.25098;stroke-width:0.886227;"/>
    <path clip-path="url(#p203fa7577d)" d="M 208.976987 114.635376 
C 209.682077 114.635376 210.358384 114.355241 210.856958 113.856666 
C 211.355532 113.358092 211.635668 112.681786 211.635668 111.976695 
C 211.635668 111.271605 211.355532 110.595298 210.856958 110.096724 
C 210.358384 109.59815 209.682077 109.318015 208.976987 109.318015 
C 208.271897 109.318015 207.59559 109.59815 207.097016 110.096724 
C 206.598442 110.595298 206.318306 111.271605 206.318306 111.976695 
C 206.318306 112.681786 206.598442 113.358092 207.097016 113.856666 
C 207.59559 114.355241 208.271897 114.635376 208.976987 114.635376 
z
" style="fill:#e69f00;fill-opacity:0.25098;stroke:#e69f00;stroke-opacity:0.25098;stroke-width:0.886227;"/>
    <path clip-path="url(#p203fa7577d)" d="M 262.465285 84.133763 
C 263.170375 84.133763 263.846682 83.853628 264.345256 83.355054 
C 264.84383 82.856479 265.123966 82.180173 265.123966 81.475082 
C 265.123966 80.769992 264.84383 80.093685 264.345256 79.595111 
C 263.846682 79.096537 263.170375 78.816402 262.465285 78.816402 
C 261.760195 78.816402 261.083888 79.096537 260.585314 79.595111 
C 260.08674 80.093685 259.806604 80.769992 259.806604 81.475082 
C 259.806604 82.180173 260.08674 82.856479 260.585314 83.355054 
C 261.083888 83.853628 261.760195 84.133763 262.465285 84.133763 
z
" style="fill:#e69f00;fill-opacity:0.25098;stroke:#e69f00;stroke-opacity:0.25098;stroke-width:0.886227;"/>
    <path clip-path="url(#p203fa7577d)" d="M 204.906019 110.960262 
C 205.61111 110.960262 206.287416 110.680126 206.78599 110.181552 
C 207.284565 109.682978 207.5647 109.006671 207.5647 108.301581 
C 207.5647 107.596491 207.284565 106.920184 206.78599 106.42161 
C 206.287416 105.923036 205.61111 105.6429 204.906019 105.6429 
C 204.200929 105.6429 203.524622 105.923036 203.026048 106.42161 
C 202.527474 106.920184 202.247338 107.596491 202.247338 108.301581 
C 202.247338 109.006671 202.527474 109.682978 203.026048 110.181552 
C 203.524622 110.680126 204.200929 110.960262 204.906019 110.960262 
z
" style="fill:#e69f00;fill-opacity:0.25098;stroke:#e69f00;stroke-opacity:0.25098;stroke-width:0.886227;"/>
    <path clip-path="url(#p203fa7577d)" d="M 203.170486 113.711779 
C 203.875577 113.711779 204.551883 113.431643 205.050458 112.933069 
C 205.549032 112.434495 205.829167 111.758188 205.829167 111.053098 
C 205.829167 110.348007 205.549032 109.671701 205.050458 109.173127 
C 204.551883 108.674552 203.875577 108.394417 203.170486 108.394417 
C 202.465396 108.394417 201.789089 108.674552 201.290515 109.173127 
C 200.791941 109.671701 200.511806 110.348007 200.511806 111.053098 
C 200.511806 111.758188 200.791941 112.434495 201.290515 112.933069 
C 201.789089 113.431643 202.465396 113.711779 203.170486 113.711779 
z
" style="fill:#e69f00;fill-opacity:0.25098;stroke:#e69f00;stroke-opacity:0.25098;stroke-width:0.886227;"/>
    <path clip-path="url(#p203fa7577d)" d="M 208.682735 114.437702 
C 209.387825 114.437702 210.064132 114.157566 210.562706 113.658992 
C 211.06128 113.160418 211.341415 112.484111 211.341415 111.779021 
C 211.341415 111.07393 211.06128 110.397624 210.562706 109.89905 
C 210.064132 109.400475 209.387825 109.12034 208.682735 109.12034 
C 207.977644 109.12034 207.301338 109.400475 206.802763 109.89905 
C 206.304189 110.397624 206.024054 111.07393 206.024054 111.779021 
C 206.024054 112.484111 206.304189 113.160418 206.802763 113.658992 
C 207.301338 114.157566 207.977644 114.437702 208.682735 114.437702 
z
" style="fill:#e69f00;fill-opacity:0.25098;stroke:#e69f00;stroke-opacity:0.25098;stroke-width:0.886227;"/>
    <path clip-path="url(#p203fa7577d)" d="M 207.644547 17.886445 
C 208.349637 17.886445 209.025944 17.606309 209.524518 17.107735 
C 210.023092 16.609161 210.303228 15.932854 210.303228 15.227764 
C 210.303228 14.522673 210.023092 13.846367 209.524518 13.347793 
C 209.025944 12.849218 208.349637 12.569083 207.644547 12.569083 
C 206.939457 12.569083 206.26315 12.849218 205.764576 13.347793 
C 205.266002 13.846367 204.985866 14.522673 204.985866 15.227764 
C 204.985866 15.932854 205.266002 16.609161 205.764576 17.107735 
C 206.26315 17.606309 206.939457 17.886445 207.644547 17.886445 
z
" style="fill:#e69f00;fill-opacity:0.25098;stroke:#e69f00;stroke-opacity:0.25098;stroke-width:0.886227;"/>
    <path clip-path="url(#p203fa7577d)" d="M 204.6922 112.520046 
C 205.39729 112.520046 206.073597 112.23991 206.572171 111.741336 
C 207.070745 111.242762 207.350881 110.566455 207.350881 109.861365 
C 207.350881 109.156275 207.070745 108.479968 206.572171 107.981394 
C 206.073597 107.48282 205.39729 107.202684 204.6922 107.202684 
C 203.987109 107.202684 203.310803 107.48282 202.812229 107.981394 
C 202.313654 108.479968 202.033519 109.156275 202.033519 109.861365 
C 202.033519 110.566455 202.313654 111.242762 202.812229 111.741336 
C 203.310803 112.23991 203.987109 112.520046 204.6922 112.520046 
z
" style="fill:#e69f00;fill-opacity:0.25098;stroke:#e69f00;stroke-opacity:0.25098;stroke-width:0.886227;"/>
    <path clip-path="url(#p203fa7577d)" d="M 207.913733 114.19023 
C 208.618824 114.19023 209.29513 113.910095 209.793704 113.411521 
C 210.292279 112.912946 210.572414 112.23664 210.572414 111.531549 
C 210.572414 110.826459 210.292279 110.150152 209.793704 109.651578 
C 209.29513 109.153004 208.618824 108.872869 207.913733 108.872869 
C 207.208643 108.872869 206.532336 109.153004 206.033762 109.651578 
C 205.535188 110.150152 205.255052 110.826459 205.255052 111.531549 
C 205.255052 112.23664 205.535188 112.912946 206.033762 113.411521 
C 206.532336 113.910095 207.208643 114.19023 207.913733 114.19023 
z
" style="fill:#e69f00;fill-opacity:0.25098;stroke:#e69f00;stroke-opacity:0.25098;stroke-width:0.886227;"/>
    <path clip-path="url(#p203fa7577d)" d="M 205.007969 114.646607 
C 205.713059 114.646607 206.389366 114.366472 206.88794 113.867897 
C 207.386514 113.369323 207.66665 112.693017 207.66665 111.987926 
C 207.66665 111.282836 207.386514 110.606529 206.88794 110.107955 
C 206.389366 109.609381 205.713059 109.329245 205.007969 109.329245 
C 204.302879 109.329245 203.626572 109.609381 203.127998 110.107955 
C 202.629424 110.606529 202.349288 111.282836 202.349288 111.987926 
C 202.349288 112.693017 202.629424 113.369323 203.127998 113.867897 
C 203.626572 114.366472 204.302879 114.646607 205.007969 114.646607 
z
" style="fill:#e69f00;fill-opacity:0.25098;stroke:#e69f00;stroke-opacity:0.25098;stroke-width:0.886227;"/>
    <path clip-path="url(#p203fa7577d)" d="M 233.571933 57.658503 
C 234.277023 57.658503 234.95333 57.378368 235.451904 56.879794 
C 235.950478 56.38122 236.230614 55.704913 236.230614 54.999823 
C 236.230614 54.294732 235.950478 53.618426 235.451904 53.119851 
C 234.95333 52.621277 234.277023 52.341142 233.571933 52.341142 
C 232.866843 52.341142 232.190536 52.621277 231.691962 53.119851 
C 231.193388 53.618426 230.913252 54.294732 230.913252 54.999823 
C 230.913252 55.704913 231.193388 56.38122 231.691962 56.879794 
C 232.190536 57.378368 232.866843 57.658503 233.571933 57.658503 
z
" style="fill:#e69f00;fill-opacity:0.25098;stroke:#e69f00;stroke-opacity:0.25098;stroke-width:0.886227;"/>
    <path clip-path="url(#p203fa7577d)" d="M 235.019817 60.174747 
C 235.724907 60.174747 236.401214 59.894612 236.899788 59.396038 
C 237.398362 58.897463 237.678497 58.221157 237.678497 57.516066 
C 237.678497 56.810976 237.398362 56.134669 236.899788 55.636095 
C 236.401214 55.137521 235.724907 54.857386 235.019817 54.857386 
C 234.314726 54.857386 233.63842 55.137521 233.139845 55.636095 
C 232.641271 56.134669 232.361136 56.810976 232.361136 57.516066 
C 232.361136 58.221157 232.641271 58.897463 233.139845 59.396038 
C 233.63842 59.894612 234.314726 60.174747 235.019817 60.174747 
z
" style="fill:#e69f00;fill-opacity:0.25098;stroke:#e69f00;stroke-opacity:0.25098;stroke-width:0.886227;"/>
    <path clip-path="url(#p203fa7577d)" d="M 259.472861 18.48862 
C 260.177951 18.48862 260.854258 18.208485 261.352832 17.70991 
C 261.851406 17.211336 262.131542 16.53503 262.131542 15.829939 
C 262.131542 15.124849 261.851406 14.448542 261.352832 13.949968 
C 260.854258 13.451394 260.177951 13.171258 259.472861 13.171258 
C 258.76777 13.171258 258.091464 13.451394 257.59289 13.949968 
C 257.094315 14.448542 256.81418 15.124849 256.81418 15.829939 
C 256.81418 16.53503 257.094315 17.211336 257.59289 17.70991 
C 258.091464 18.208485 258.76777 18.48862 259.472861 18.48862 
z
" style="fill:#e69f00;fill-opacity:0.25098;stroke:#e69f00;stroke-opacity:0.25098;stroke-width:0.886227;"/>
    <path clip-path="url(#p203fa7577d)" d="M 258.433118 58.020712 
C 259.138208 58.020712 259.814515 57.740577 260.313089 57.242003 
C 260.811663 56.743428 261.091799 56.067122 261.091799 55.362031 
C 261.091799 54.656941 260.811663 53.980634 260.313089 53.48206 
C 259.814515 52.983486 259.138208 52.703351 258.433118 52.703351 
C 257.728028 52.703351 257.051721 52.983486 256.553147 53.48206 
C 256.054573 53.980634 255.774437 54.656941 255.774437 55.362031 
C 255.774437 56.067122 256.054573 56.743428 256.553147 57.242003 
C 257.051721 57.740577 257.728028 58.020712 258.433118 58.020712 
z
" style="fill:#e69f00;fill-opacity:0.25098;stroke:#e69f00;stroke-opacity:0.25098;stroke-width:0.886227;"/>
    <path clip-path="url(#p203fa7577d)" d="M 257.814612 59.864721 
C 258.519703 59.864721 259.196009 59.584585 259.694583 59.086011 
C 260.193158 58.587437 260.473293 57.91113 260.473293 57.20604 
C 260.473293 56.500949 260.193158 55.824643 259.694583 55.326069 
C 259.196009 54.827494 258.519703 54.547359 257.814612 54.547359 
C 257.109522 54.547359 256.433215 54.827494 255.934641 55.326069 
C 255.436067 55.824643 255.155931 56.500949 255.155931 57.20604 
C 255.155931 57.91113 255.436067 58.587437 255.934641 59.086011 
C 256.433215 59.584585 257.109522 59.864721 257.814612 59.864721 
z
" style="fill:#e69f00;fill-opacity:0.25098;stroke:#e69f00;stroke-opacity:0.25098;stroke-width:0.886227;"/>
    <path clip-path="url(#p203fa7577d)" d="M 256.466464 57.917043 
C 257.171554 57.917043 257.847861 57.636908 258.346435 57.138334 
C 258.845009 56.639759 259.125145 55.963453 259.125145 55.258362 
C 259.125145 54.553272 258.845009 53.876965 258.346435 53.378391 
C 257.847861 52.879817 257.171554 52.599682 256.466464 52.599682 
C 255.761374 52.599682 255.085067 52.879817 254.586493 53.378391 
C 254.087919 53.876965 253.807783 54.553272 253.807783 55.258362 
C 253.807783 55.963453 254.087919 56.639759 254.586493 57.138334 
C 255.085067 57.636908 255.761374 57.917043 256.466464 57.917043 
z
" style="fill:#e69f00;fill-opacity:0.25098;stroke:#e69f00;stroke-opacity:0.25098;stroke-width:0.886227;"/>
    <path clip-path="url(#p203fa7577d)" d="M 262.562085 56.970815 
C 263.267175 56.970815 263.943482 56.69068 264.442056 56.192106 
C 264.94063 55.693532 265.220766 55.017225 265.220766 54.312135 
C 265.220766 53.607044 264.94063 52.930738 264.442056 52.432163 
C 263.943482 51.933589 263.267175 51.653454 262.562085 51.653454 
C 261.856994 51.653454 261.180688 51.933589 260.682114 52.432163 
C 260.183539 52.930738 259.903404 53.607044 259.903404 54.312135 
C 259.903404 55.017225 260.183539 55.693532 260.682114 56.192106 
C 261.180688 56.69068 261.856994 56.970815 262.562085 56.970815 
z
" style="fill:#e69f00;fill-opacity:0.25098;stroke:#e69f00;stroke-opacity:0.25098;stroke-width:0.886227;"/>
    <path clip-path="url(#p203fa7577d)" d="M 206.16418 44.684267 
C 206.86927 44.684267 207.545577 44.404132 208.044151 43.905557 
C 208.542725 43.406983 208.822861 42.730676 208.822861 42.025586 
C 208.822861 41.320496 208.542725 40.644189 208.044151 40.145615 
C 207.545577 39.647041 206.86927 39.366905 206.16418 39.366905 
C 205.459089 39.366905 204.782783 39.647041 204.284209 40.145615 
C 203.785634 40.644189 203.505499 41.320496 203.505499 42.025586 
C 203.505499 42.730676 203.785634 43.406983 204.284209 43.905557 
C 204.782783 44.404132 205.459089 44.684267 206.16418 44.684267 
z
" style="fill:#e69f00;fill-opacity:0.25098;stroke:#e69f00;stroke-opacity:0.25098;stroke-width:0.886227;"/>
    <path clip-path="url(#p203fa7577d)" d="M 262.108396 16.813753 
C 262.813486 16.813753 263.489793 16.533618 263.988367 16.035044 
C 264.486941 15.536469 264.767077 14.860163 264.767077 14.155072 
C 264.767077 13.449982 264.486941 12.773675 263.988367 12.275101 
C 263.489793 11.776527 262.813486 11.496392 262.108396 11.496392 
C 261.403306 11.496392 260.726999 11.776527 260.228425 12.275101 
C 259.729851 12.773675 259.449715 13.449982 259.449715 14.155072 
C 259.449715 14.860163 259.729851 15.536469 260.228425 16.035044 
C 260.726999 16.533618 261.403306 16.813753 262.108396 16.813753 
z
" style="fill:#e69f00;fill-opacity:0.25098;stroke:#e69f00;stroke-opacity:0.25098;stroke-width:0.886227;"/>
    <path clip-path="url(#p203fa7577d)" d="M 208.769009 98.660341 
C 209.4741 98.660341 210.150406 98.380205 210.64898 97.881631 
C 211.147555 97.383057 211.42769 96.70675 211.42769 96.00166 
C 211.42769 95.296569 211.147555 94.620263 210.64898 94.121689 
C 210.150406 93.623114 209.4741 93.342979 208.769009 93.342979 
C 208.063919 93.342979 207.387612 93.623114 206.889038 94.121689 
C 206.390464 94.620263 206.110328 95.296569 206.110328 96.00166 
C 206.110328 96.70675 206.390464 97.383057 206.889038 97.881631 
C 207.387612 98.380205 208.063919 98.660341 208.769009 98.660341 
z
" style="fill:#e69f00;fill-opacity:0.25098;stroke:#e69f00;stroke-opacity:0.25098;stroke-width:0.886227;"/>
   </g>
   <g id="patch_3">
    <path d="M 164.152813 118.08 
L 164.152813 7.2 
" style="fill:none;stroke:#000000;stroke-linecap:square;stroke-linejoin:miter;"/>
   </g>
   <g id="patch_4">
    <path d="M 164.152813 118.08 
L 275.752813 118.08 
" style="fill:none;stroke:#000000;stroke-linecap:square;stroke-linejoin:miter;"/>
   </g>
  </g>
 </g>
 <defs>
  <clipPath id="p203fa7577d">
   <rect height="110.88" width="111.6" x="164.152813" y="7.2"/>
  </clipPath>
 </defs>
</svg>
