<?xml version="1.0" encoding="utf-8" standalone="no"?>
<!DOCTYPE svg PUBLIC "-//W3C//DTD SVG 1.1//EN"
  "http://www.w3.org/Graphics/SVG/1.1/DTD/svg11.dtd">
<!-- Created with matplotlib (https://matplotlib.org/) -->
<svg height="203.802813pt" version="1.1" viewBox="0 0 224.995188 203.802813" width="224.995188pt" xmlns="http://www.w3.org/2000/svg" xmlns:xlink="http://www.w3.org/1999/xlink">
 <defs>
  <style type="text/css">
*{stroke-linecap:butt;stroke-linejoin:round;}
  </style>
 </defs>
 <g id="figure_1">
  <g id="patch_1">
   <path d="M 0 203.802813 
L 224.995188 203.802813 
L 224.995188 0 
L 0 0 
z
" style="fill:#ffffff;stroke:#ffffff;stroke-linejoin:miter;"/>
  </g>
  <g id="axes_1">
   <g id="patch_2">
    <path d="M 106.195188 118.08 
L 217.795187 118.08 
L 217.795187 7.2 
L 106.195188 7.2 
z
" style="fill:#ffffff;"/>
   </g>
   <g id="matplotlib.axis_1">
    <g id="xtick_1">
     <g id="line2d_1">
      <path d="M 119.072111 118.08 
" style="fill:none;stroke:#333333;stroke-width:1.5;"/>
      <defs>
       <path d="M 0 0 
L 0 2.75 
" id="m5906238e58" style="stroke:#333333;"/>
      </defs>
      <g>
       <use style="fill:#333333;stroke:#333333;" x="119.072111" xlink:href="#m5906238e58" y="118.08"/>
      </g>
     </g>
     <g id="text_1">
      <!-- low -->
      <defs>
       <path d="M 9.421875 75.984375 
L 18.40625 75.984375 
L 18.40625 0 
L 9.421875 0 
z
" id="DejaVuSans-108"/>
       <path d="M 30.609375 48.390625 
Q 23.390625 48.390625 19.1875 42.75 
Q 14.984375 37.109375 14.984375 27.296875 
Q 14.984375 17.484375 19.15625 11.84375 
Q 23.34375 6.203125 30.609375 6.203125 
Q 37.796875 6.203125 41.984375 11.859375 
Q 46.1875 17.53125 46.1875 27.296875 
Q 46.1875 37.015625 41.984375 42.703125 
Q 37.796875 48.390625 30.609375 48.390625 
z
M 30.609375 56 
Q 42.328125 56 49.015625 48.375 
Q 55.71875 40.765625 55.71875 27.296875 
Q 55.71875 13.875 49.015625 6.21875 
Q 42.328125 -1.421875 30.609375 -1.421875 
Q 18.84375 -1.421875 12.171875 6.21875 
Q 5.515625 13.875 5.515625 27.296875 
Q 5.515625 40.765625 12.171875 48.375 
Q 18.84375 56 30.609375 56 
z
" id="DejaVuSans-111"/>
       <path d="M 4.203125 54.6875 
L 13.1875 54.6875 
L 24.421875 12.015625 
L 35.59375 54.6875 
L 46.1875 54.6875 
L 57.421875 12.015625 
L 68.609375 54.6875 
L 77.59375 54.6875 
L 63.28125 0 
L 52.6875 0 
L 40.921875 44.828125 
L 29.109375 0 
L 18.5 0 
z
" id="DejaVuSans-119"/>
      </defs>
      <g style="fill:#4d4d4d;" transform="translate(121.500361 138.056)rotate(-90)scale(0.088 -0.088)">
       <use xlink:href="#DejaVuSans-108"/>
       <use x="27.783203" xlink:href="#DejaVuSans-111"/>
       <use x="88.964844" xlink:href="#DejaVuSans-119"/>
      </g>
     </g>
    </g>
    <g id="xtick_2">
     <g id="line2d_2">
      <path d="M 140.533649 118.08 
" style="fill:none;stroke:#333333;stroke-width:1.5;"/>
      <g>
       <use style="fill:#333333;stroke:#333333;" x="140.533649" xlink:href="#m5906238e58" y="118.08"/>
      </g>
     </g>
     <g id="text_2">
      <!-- low-medium -->
      <defs>
       <path d="M 4.890625 31.390625 
L 31.203125 31.390625 
L 31.203125 23.390625 
L 4.890625 23.390625 
z
" id="DejaVuSans-45"/>
       <path d="M 52 44.1875 
Q 55.375 50.25 60.0625 53.125 
Q 64.75 56 71.09375 56 
Q 79.640625 56 84.28125 50.015625 
Q 88.921875 44.046875 88.921875 33.015625 
L 88.921875 0 
L 79.890625 0 
L 79.890625 32.71875 
Q 79.890625 40.578125 77.09375 44.375 
Q 74.3125 48.1875 68.609375 48.1875 
Q 61.625 48.1875 57.5625 43.546875 
Q 53.515625 38.921875 53.515625 30.90625 
L 53.515625 0 
L 44.484375 0 
L 44.484375 32.71875 
Q 44.484375 40.625 41.703125 44.40625 
Q 38.921875 48.1875 33.109375 48.1875 
Q 26.21875 48.1875 22.15625 43.53125 
Q 18.109375 38.875 18.109375 30.90625 
L 18.109375 0 
L 9.078125 0 
L 9.078125 54.6875 
L 18.109375 54.6875 
L 18.109375 46.1875 
Q 21.1875 51.21875 25.484375 53.609375 
Q 29.78125 56 35.6875 56 
Q 41.65625 56 45.828125 52.96875 
Q 50 49.953125 52 44.1875 
z
" id="DejaVuSans-109"/>
       <path d="M 56.203125 29.59375 
L 56.203125 25.203125 
L 14.890625 25.203125 
Q 15.484375 15.921875 20.484375 11.0625 
Q 25.484375 6.203125 34.421875 6.203125 
Q 39.59375 6.203125 44.453125 7.46875 
Q 49.3125 8.734375 54.109375 11.28125 
L 54.109375 2.78125 
Q 49.265625 0.734375 44.1875 -0.34375 
Q 39.109375 -1.421875 33.890625 -1.421875 
Q 20.796875 -1.421875 13.15625 6.1875 
Q 5.515625 13.8125 5.515625 26.8125 
Q 5.515625 40.234375 12.765625 48.109375 
Q 20.015625 56 32.328125 56 
Q 43.359375 56 49.78125 48.890625 
Q 56.203125 41.796875 56.203125 29.59375 
z
M 47.21875 32.234375 
Q 47.125 39.59375 43.09375 43.984375 
Q 39.0625 48.390625 32.421875 48.390625 
Q 24.90625 48.390625 20.390625 44.140625 
Q 15.875 39.890625 15.1875 32.171875 
z
" id="DejaVuSans-101"/>
       <path d="M 45.40625 46.390625 
L 45.40625 75.984375 
L 54.390625 75.984375 
L 54.390625 0 
L 45.40625 0 
L 45.40625 8.203125 
Q 42.578125 3.328125 38.25 0.953125 
Q 33.9375 -1.421875 27.875 -1.421875 
Q 17.96875 -1.421875 11.734375 6.484375 
Q 5.515625 14.40625 5.515625 27.296875 
Q 5.515625 40.1875 11.734375 48.09375 
Q 17.96875 56 27.875 56 
Q 33.9375 56 38.25 53.625 
Q 42.578125 51.265625 45.40625 46.390625 
z
M 14.796875 27.296875 
Q 14.796875 17.390625 18.875 11.75 
Q 22.953125 6.109375 30.078125 6.109375 
Q 37.203125 6.109375 41.296875 11.75 
Q 45.40625 17.390625 45.40625 27.296875 
Q 45.40625 37.203125 41.296875 42.84375 
Q 37.203125 48.484375 30.078125 48.484375 
Q 22.953125 48.484375 18.875 42.84375 
Q 14.796875 37.203125 14.796875 27.296875 
z
" id="DejaVuSans-100"/>
       <path d="M 9.421875 54.6875 
L 18.40625 54.6875 
L 18.40625 0 
L 9.421875 0 
z
M 9.421875 75.984375 
L 18.40625 75.984375 
L 18.40625 64.59375 
L 9.421875 64.59375 
z
" id="DejaVuSans-105"/>
       <path d="M 8.5 21.578125 
L 8.5 54.6875 
L 17.484375 54.6875 
L 17.484375 21.921875 
Q 17.484375 14.15625 20.5 10.265625 
Q 23.53125 6.390625 29.59375 6.390625 
Q 36.859375 6.390625 41.078125 11.03125 
Q 45.3125 15.671875 45.3125 23.6875 
L 45.3125 54.6875 
L 54.296875 54.6875 
L 54.296875 0 
L 45.3125 0 
L 45.3125 8.40625 
Q 42.046875 3.421875 37.71875 1 
Q 33.40625 -1.421875 27.6875 -1.421875 
Q 18.265625 -1.421875 13.375 4.4375 
Q 8.5 10.296875 8.5 21.578125 
z
M 31.109375 56 
z
" id="DejaVuSans-117"/>
      </defs>
      <g style="fill:#4d4d4d;" transform="translate(142.961899 177.3975)rotate(-90)scale(0.088 -0.088)">
       <use xlink:href="#DejaVuSans-108"/>
       <use x="27.783203" xlink:href="#DejaVuSans-111"/>
       <use x="88.964844" xlink:href="#DejaVuSans-119"/>
       <use x="170.751953" xlink:href="#DejaVuSans-45"/>
       <use x="206.835938" xlink:href="#DejaVuSans-109"/>
       <use x="304.248047" xlink:href="#DejaVuSans-101"/>
       <use x="365.771484" xlink:href="#DejaVuSans-100"/>
       <use x="429.248047" xlink:href="#DejaVuSans-105"/>
       <use x="457.03125" xlink:href="#DejaVuSans-117"/>
       <use x="520.410156" xlink:href="#DejaVuSans-109"/>
      </g>
     </g>
    </g>
    <g id="xtick_3">
     <g id="line2d_3">
      <path d="M 161.995188 118.08 
" style="fill:none;stroke:#333333;stroke-width:1.5;"/>
      <g>
       <use style="fill:#333333;stroke:#333333;" x="161.995188" xlink:href="#m5906238e58" y="118.08"/>
      </g>
     </g>
     <g id="text_3">
      <!-- medium -->
      <g style="fill:#4d4d4d;" transform="translate(164.423438 159.196625)rotate(-90)scale(0.088 -0.088)">
       <use xlink:href="#DejaVuSans-109"/>
       <use x="97.412109" xlink:href="#DejaVuSans-101"/>
       <use x="158.935547" xlink:href="#DejaVuSans-100"/>
       <use x="222.412109" xlink:href="#DejaVuSans-105"/>
       <use x="250.195312" xlink:href="#DejaVuSans-117"/>
       <use x="313.574219" xlink:href="#DejaVuSans-109"/>
      </g>
     </g>
    </g>
    <g id="xtick_4">
     <g id="line2d_4">
      <path d="M 183.456726 118.08 
" style="fill:none;stroke:#333333;stroke-width:1.5;"/>
      <g>
       <use style="fill:#333333;stroke:#333333;" x="183.456726" xlink:href="#m5906238e58" y="118.08"/>
      </g>
     </g>
     <g id="text_4">
      <!-- medium-high -->
      <defs>
       <path d="M 54.890625 33.015625 
L 54.890625 0 
L 45.90625 0 
L 45.90625 32.71875 
Q 45.90625 40.484375 42.875 44.328125 
Q 39.84375 48.1875 33.796875 48.1875 
Q 26.515625 48.1875 22.3125 43.546875 
Q 18.109375 38.921875 18.109375 30.90625 
L 18.109375 0 
L 9.078125 0 
L 9.078125 75.984375 
L 18.109375 75.984375 
L 18.109375 46.1875 
Q 21.34375 51.125 25.703125 53.5625 
Q 30.078125 56 35.796875 56 
Q 45.21875 56 50.046875 50.171875 
Q 54.890625 44.34375 54.890625 33.015625 
z
" id="DejaVuSans-104"/>
       <path d="M 45.40625 27.984375 
Q 45.40625 37.75 41.375 43.109375 
Q 37.359375 48.484375 30.078125 48.484375 
Q 22.859375 48.484375 18.828125 43.109375 
Q 14.796875 37.75 14.796875 27.984375 
Q 14.796875 18.265625 18.828125 12.890625 
Q 22.859375 7.515625 30.078125 7.515625 
Q 37.359375 7.515625 41.375 12.890625 
Q 45.40625 18.265625 45.40625 27.984375 
z
M 54.390625 6.78125 
Q 54.390625 -7.171875 48.1875 -13.984375 
Q 42 -20.796875 29.203125 -20.796875 
Q 24.46875 -20.796875 20.265625 -20.09375 
Q 16.0625 -19.390625 12.109375 -17.921875 
L 12.109375 -9.1875 
Q 16.0625 -11.328125 19.921875 -12.34375 
Q 23.78125 -13.375 27.78125 -13.375 
Q 36.625 -13.375 41.015625 -8.765625 
Q 45.40625 -4.15625 45.40625 5.171875 
L 45.40625 9.625 
Q 42.625 4.78125 38.28125 2.390625 
Q 33.9375 0 27.875 0 
Q 17.828125 0 11.671875 7.65625 
Q 5.515625 15.328125 5.515625 27.984375 
Q 5.515625 40.671875 11.671875 48.328125 
Q 17.828125 56 27.875 56 
Q 33.9375 56 38.28125 53.609375 
Q 42.625 51.21875 45.40625 46.390625 
L 45.40625 54.6875 
L 54.390625 54.6875 
z
" id="DejaVuSans-103"/>
      </defs>
      <g style="fill:#4d4d4d;" transform="translate(185.884976 181.556875)rotate(-90)scale(0.088 -0.088)">
       <use xlink:href="#DejaVuSans-109"/>
       <use x="97.412109" xlink:href="#DejaVuSans-101"/>
       <use x="158.935547" xlink:href="#DejaVuSans-100"/>
       <use x="222.412109" xlink:href="#DejaVuSans-105"/>
       <use x="250.195312" xlink:href="#DejaVuSans-117"/>
       <use x="313.574219" xlink:href="#DejaVuSans-109"/>
       <use x="410.986328" xlink:href="#DejaVuSans-45"/>
       <use x="447.070312" xlink:href="#DejaVuSans-104"/>
       <use x="510.449219" xlink:href="#DejaVuSans-105"/>
       <use x="538.232422" xlink:href="#DejaVuSans-103"/>
       <use x="601.708984" xlink:href="#DejaVuSans-104"/>
      </g>
     </g>
    </g>
    <g id="xtick_5">
     <g id="line2d_5">
      <path d="M 204.918264 118.08 
" style="fill:none;stroke:#333333;stroke-width:1.5;"/>
      <g>
       <use style="fill:#333333;stroke:#333333;" x="204.918264" xlink:href="#m5906238e58" y="118.08"/>
      </g>
     </g>
     <g id="text_5">
      <!-- high -->
      <g style="fill:#4d4d4d;" transform="translate(207.346514 142.215375)rotate(-90)scale(0.088 -0.088)">
       <use xlink:href="#DejaVuSans-104"/>
       <use x="63.378906" xlink:href="#DejaVuSans-105"/>
       <use x="91.162109" xlink:href="#DejaVuSans-103"/>
       <use x="154.638672" xlink:href="#DejaVuSans-104"/>
      </g>
     </g>
    </g>
    <g id="text_6">
     <!-- staining background -->
     <defs>
      <path d="M 44.28125 53.078125 
L 44.28125 44.578125 
Q 40.484375 46.53125 36.375 47.5 
Q 32.28125 48.484375 27.875 48.484375 
Q 21.1875 48.484375 17.84375 46.4375 
Q 14.5 44.390625 14.5 40.28125 
Q 14.5 37.15625 16.890625 35.375 
Q 19.28125 33.59375 26.515625 31.984375 
L 29.59375 31.296875 
Q 39.15625 29.25 43.1875 25.515625 
Q 47.21875 21.78125 47.21875 15.09375 
Q 47.21875 7.46875 41.1875 3.015625 
Q 35.15625 -1.421875 24.609375 -1.421875 
Q 20.21875 -1.421875 15.453125 -0.5625 
Q 10.6875 0.296875 5.421875 2 
L 5.421875 11.28125 
Q 10.40625 8.6875 15.234375 7.390625 
Q 20.0625 6.109375 24.8125 6.109375 
Q 31.15625 6.109375 34.5625 8.28125 
Q 37.984375 10.453125 37.984375 14.40625 
Q 37.984375 18.0625 35.515625 20.015625 
Q 33.0625 21.96875 24.703125 23.78125 
L 21.578125 24.515625 
Q 13.234375 26.265625 9.515625 29.90625 
Q 5.8125 33.546875 5.8125 39.890625 
Q 5.8125 47.609375 11.28125 51.796875 
Q 16.75 56 26.8125 56 
Q 31.78125 56 36.171875 55.265625 
Q 40.578125 54.546875 44.28125 53.078125 
z
" id="DejaVuSans-115"/>
      <path d="M 18.3125 70.21875 
L 18.3125 54.6875 
L 36.8125 54.6875 
L 36.8125 47.703125 
L 18.3125 47.703125 
L 18.3125 18.015625 
Q 18.3125 11.328125 20.140625 9.421875 
Q 21.96875 7.515625 27.59375 7.515625 
L 36.8125 7.515625 
L 36.8125 0 
L 27.59375 0 
Q 17.1875 0 13.234375 3.875 
Q 9.28125 7.765625 9.28125 18.015625 
L 9.28125 47.703125 
L 2.6875 47.703125 
L 2.6875 54.6875 
L 9.28125 54.6875 
L 9.28125 70.21875 
z
" id="DejaVuSans-116"/>
      <path d="M 34.28125 27.484375 
Q 23.390625 27.484375 19.1875 25 
Q 14.984375 22.515625 14.984375 16.5 
Q 14.984375 11.71875 18.140625 8.90625 
Q 21.296875 6.109375 26.703125 6.109375 
Q 34.1875 6.109375 38.703125 11.40625 
Q 43.21875 16.703125 43.21875 25.484375 
L 43.21875 27.484375 
z
M 52.203125 31.203125 
L 52.203125 0 
L 43.21875 0 
L 43.21875 8.296875 
Q 40.140625 3.328125 35.546875 0.953125 
Q 30.953125 -1.421875 24.3125 -1.421875 
Q 15.921875 -1.421875 10.953125 3.296875 
Q 6 8.015625 6 15.921875 
Q 6 25.140625 12.171875 29.828125 
Q 18.359375 34.515625 30.609375 34.515625 
L 43.21875 34.515625 
L 43.21875 35.40625 
Q 43.21875 41.609375 39.140625 45 
Q 35.0625 48.390625 27.6875 48.390625 
Q 23 48.390625 18.546875 47.265625 
Q 14.109375 46.140625 10.015625 43.890625 
L 10.015625 52.203125 
Q 14.9375 54.109375 19.578125 55.046875 
Q 24.21875 56 28.609375 56 
Q 40.484375 56 46.34375 49.84375 
Q 52.203125 43.703125 52.203125 31.203125 
z
" id="DejaVuSans-97"/>
      <path d="M 54.890625 33.015625 
L 54.890625 0 
L 45.90625 0 
L 45.90625 32.71875 
Q 45.90625 40.484375 42.875 44.328125 
Q 39.84375 48.1875 33.796875 48.1875 
Q 26.515625 48.1875 22.3125 43.546875 
Q 18.109375 38.921875 18.109375 30.90625 
L 18.109375 0 
L 9.078125 0 
L 9.078125 54.6875 
L 18.109375 54.6875 
L 18.109375 46.1875 
Q 21.34375 51.125 25.703125 53.5625 
Q 30.078125 56 35.796875 56 
Q 45.21875 56 50.046875 50.171875 
Q 54.890625 44.34375 54.890625 33.015625 
z
" id="DejaVuSans-110"/>
      <path id="DejaVuSans-32"/>
      <path d="M 48.6875 27.296875 
Q 48.6875 37.203125 44.609375 42.84375 
Q 40.53125 48.484375 33.40625 48.484375 
Q 26.265625 48.484375 22.1875 42.84375 
Q 18.109375 37.203125 18.109375 27.296875 
Q 18.109375 17.390625 22.1875 11.75 
Q 26.265625 6.109375 33.40625 6.109375 
Q 40.53125 6.109375 44.609375 11.75 
Q 48.6875 17.390625 48.6875 27.296875 
z
M 18.109375 46.390625 
Q 20.953125 51.265625 25.265625 53.625 
Q 29.59375 56 35.59375 56 
Q 45.5625 56 51.78125 48.09375 
Q 58.015625 40.1875 58.015625 27.296875 
Q 58.015625 14.40625 51.78125 6.484375 
Q 45.5625 -1.421875 35.59375 -1.421875 
Q 29.59375 -1.421875 25.265625 0.953125 
Q 20.953125 3.328125 18.109375 8.203125 
L 18.109375 0 
L 9.078125 0 
L 9.078125 75.984375 
L 18.109375 75.984375 
z
" id="DejaVuSans-98"/>
      <path d="M 48.78125 52.59375 
L 48.78125 44.1875 
Q 44.96875 46.296875 41.140625 47.34375 
Q 37.3125 48.390625 33.40625 48.390625 
Q 24.65625 48.390625 19.8125 42.84375 
Q 14.984375 37.3125 14.984375 27.296875 
Q 14.984375 17.28125 19.8125 11.734375 
Q 24.65625 6.203125 33.40625 6.203125 
Q 37.3125 6.203125 41.140625 7.25 
Q 44.96875 8.296875 48.78125 10.40625 
L 48.78125 2.09375 
Q 45.015625 0.34375 40.984375 -0.53125 
Q 36.96875 -1.421875 32.421875 -1.421875 
Q 20.0625 -1.421875 12.78125 6.34375 
Q 5.515625 14.109375 5.515625 27.296875 
Q 5.515625 40.671875 12.859375 48.328125 
Q 20.21875 56 33.015625 56 
Q 37.15625 56 41.109375 55.140625 
Q 45.0625 54.296875 48.78125 52.59375 
z
" id="DejaVuSans-99"/>
      <path d="M 9.078125 75.984375 
L 18.109375 75.984375 
L 18.109375 31.109375 
L 44.921875 54.6875 
L 56.390625 54.6875 
L 27.390625 29.109375 
L 57.625 0 
L 45.90625 0 
L 18.109375 26.703125 
L 18.109375 0 
L 9.078125 0 
z
" id="DejaVuSans-107"/>
      <path d="M 41.109375 46.296875 
Q 39.59375 47.171875 37.8125 47.578125 
Q 36.03125 48 33.890625 48 
Q 26.265625 48 22.1875 43.046875 
Q 18.109375 38.09375 18.109375 28.8125 
L 18.109375 0 
L 9.078125 0 
L 9.078125 54.6875 
L 18.109375 54.6875 
L 18.109375 46.1875 
Q 20.953125 51.171875 25.484375 53.578125 
Q 30.03125 56 36.53125 56 
Q 37.453125 56 38.578125 55.875 
Q 39.703125 55.765625 41.0625 55.515625 
z
" id="DejaVuSans-114"/>
     </defs>
     <g transform="translate(104.008391 194.315156)scale(0.11 -0.11)">
      <use xlink:href="#DejaVuSans-115"/>
      <use x="52.099609" xlink:href="#DejaVuSans-116"/>
      <use x="91.308594" xlink:href="#DejaVuSans-97"/>
      <use x="152.587891" xlink:href="#DejaVuSans-105"/>
      <use x="180.371094" xlink:href="#DejaVuSans-110"/>
      <use x="243.75" xlink:href="#DejaVuSans-105"/>
      <use x="271.533203" xlink:href="#DejaVuSans-110"/>
      <use x="334.912109" xlink:href="#DejaVuSans-103"/>
      <use x="398.388672" xlink:href="#DejaVuSans-32"/>
      <use x="430.175781" xlink:href="#DejaVuSans-98"/>
      <use x="493.652344" xlink:href="#DejaVuSans-97"/>
      <use x="554.931641" xlink:href="#DejaVuSans-99"/>
      <use x="609.912109" xlink:href="#DejaVuSans-107"/>
      <use x="667.822266" xlink:href="#DejaVuSans-103"/>
      <use x="731.298828" xlink:href="#DejaVuSans-114"/>
      <use x="770.162109" xlink:href="#DejaVuSans-111"/>
      <use x="831.34375" xlink:href="#DejaVuSans-117"/>
      <use x="894.722656" xlink:href="#DejaVuSans-110"/>
      <use x="958.101562" xlink:href="#DejaVuSans-100"/>
     </g>
    </g>
   </g>
   <g id="matplotlib.axis_2">
    <g id="ytick_1">
     <g id="line2d_6">
      <path d="M 106.195188 102.24 
" style="fill:none;stroke:#333333;stroke-width:1.5;"/>
      <defs>
       <path d="M 0 0 
L -2.75 0 
" id="mf979126586" style="stroke:#333333;"/>
      </defs>
      <g>
       <use style="fill:#333333;stroke:#333333;" x="106.195188" xlink:href="#mf979126586" y="102.24"/>
      </g>
     </g>
     <g id="text_7">
      <!-- extra escape -->
      <defs>
       <path d="M 54.890625 54.6875 
L 35.109375 28.078125 
L 55.90625 0 
L 45.3125 0 
L 29.390625 21.484375 
L 13.484375 0 
L 2.875 0 
L 24.125 28.609375 
L 4.6875 54.6875 
L 15.28125 54.6875 
L 29.78125 35.203125 
L 44.28125 54.6875 
z
" id="DejaVuSans-120"/>
       <path d="M 18.109375 8.203125 
L 18.109375 -20.796875 
L 9.078125 -20.796875 
L 9.078125 54.6875 
L 18.109375 54.6875 
L 18.109375 46.390625 
Q 20.953125 51.265625 25.265625 53.625 
Q 29.59375 56 35.59375 56 
Q 45.5625 56 51.78125 48.09375 
Q 58.015625 40.1875 58.015625 27.296875 
Q 58.015625 14.40625 51.78125 6.484375 
Q 45.5625 -1.421875 35.59375 -1.421875 
Q 29.59375 -1.421875 25.265625 0.953125 
Q 20.953125 3.328125 18.109375 8.203125 
z
M 48.6875 27.296875 
Q 48.6875 37.203125 44.609375 42.84375 
Q 40.53125 48.484375 33.40625 48.484375 
Q 26.265625 48.484375 22.1875 42.84375 
Q 18.109375 37.203125 18.109375 27.296875 
Q 18.109375 17.390625 22.1875 11.75 
Q 26.265625 6.109375 33.40625 6.109375 
Q 40.53125 6.109375 44.609375 11.75 
Q 48.6875 17.390625 48.6875 27.296875 
z
" id="DejaVuSans-112"/>
      </defs>
      <g style="fill:#4d4d4d;" transform="translate(44.287188 104.66825)scale(0.088 -0.088)">
       <use xlink:href="#DejaVuSans-101"/>
       <use x="59.773438" xlink:href="#DejaVuSans-120"/>
       <use x="118.953125" xlink:href="#DejaVuSans-116"/>
       <use x="158.162109" xlink:href="#DejaVuSans-114"/>
       <use x="199.275391" xlink:href="#DejaVuSans-97"/>
       <use x="260.554688" xlink:href="#DejaVuSans-32"/>
       <use x="292.341797" xlink:href="#DejaVuSans-101"/>
       <use x="353.865234" xlink:href="#DejaVuSans-115"/>
       <use x="405.964844" xlink:href="#DejaVuSans-99"/>
       <use x="460.945312" xlink:href="#DejaVuSans-97"/>
       <use x="522.224609" xlink:href="#DejaVuSans-112"/>
       <use x="585.701172" xlink:href="#DejaVuSans-101"/>
      </g>
     </g>
    </g>
    <g id="ytick_2">
     <g id="line2d_7">
      <path d="M 106.195188 75.84 
" style="fill:none;stroke:#333333;stroke-width:1.5;"/>
      <g>
       <use style="fill:#333333;stroke:#333333;" x="106.195188" xlink:href="#mf979126586" y="75.84"/>
      </g>
     </g>
     <g id="text_8">
      <!-- normal -->
      <g style="fill:#4d4d4d;" transform="translate(70.410813 78.26825)scale(0.088 -0.088)">
       <use xlink:href="#DejaVuSans-110"/>
       <use x="63.378906" xlink:href="#DejaVuSans-111"/>
       <use x="124.560547" xlink:href="#DejaVuSans-114"/>
       <use x="163.923828" xlink:href="#DejaVuSans-109"/>
       <use x="261.335938" xlink:href="#DejaVuSans-97"/>
       <use x="322.615234" xlink:href="#DejaVuSans-108"/>
      </g>
     </g>
    </g>
    <g id="ytick_3">
     <g id="line2d_8">
      <path d="M 106.195188 49.44 
" style="fill:none;stroke:#333333;stroke-width:1.5;"/>
      <g>
       <use style="fill:#333333;stroke:#333333;" x="106.195188" xlink:href="#mf979126586" y="49.44"/>
      </g>
     </g>
     <g id="text_9">
      <!-- normal-no escape -->
      <g style="fill:#4d4d4d;" transform="translate(22.245938 51.86825)scale(0.088 -0.088)">
       <use xlink:href="#DejaVuSans-110"/>
       <use x="63.378906" xlink:href="#DejaVuSans-111"/>
       <use x="124.560547" xlink:href="#DejaVuSans-114"/>
       <use x="163.923828" xlink:href="#DejaVuSans-109"/>
       <use x="261.335938" xlink:href="#DejaVuSans-97"/>
       <use x="322.615234" xlink:href="#DejaVuSans-108"/>
       <use x="350.398438" xlink:href="#DejaVuSans-45"/>
       <use x="386.482422" xlink:href="#DejaVuSans-110"/>
       <use x="449.861328" xlink:href="#DejaVuSans-111"/>
       <use x="511.042969" xlink:href="#DejaVuSans-32"/>
       <use x="542.830078" xlink:href="#DejaVuSans-101"/>
       <use x="604.353516" xlink:href="#DejaVuSans-115"/>
       <use x="656.453125" xlink:href="#DejaVuSans-99"/>
       <use x="711.433594" xlink:href="#DejaVuSans-97"/>
       <use x="772.712891" xlink:href="#DejaVuSans-112"/>
       <use x="836.189453" xlink:href="#DejaVuSans-101"/>
      </g>
     </g>
    </g>
    <g id="ytick_4">
     <g id="line2d_9">
      <path d="M 106.195188 23.04 
" style="fill:none;stroke:#333333;stroke-width:1.5;"/>
      <g>
       <use style="fill:#333333;stroke:#333333;" x="106.195188" xlink:href="#mf979126586" y="23.04"/>
      </g>
     </g>
     <g id="text_10">
      <!-- no escape -->
      <g style="fill:#4d4d4d;" transform="translate(56.255188 25.46825)scale(0.088 -0.088)">
       <use xlink:href="#DejaVuSans-110"/>
       <use x="63.378906" xlink:href="#DejaVuSans-111"/>
       <use x="124.560547" xlink:href="#DejaVuSans-32"/>
       <use x="156.347656" xlink:href="#DejaVuSans-101"/>
       <use x="217.871094" xlink:href="#DejaVuSans-115"/>
       <use x="269.970703" xlink:href="#DejaVuSans-99"/>
       <use x="324.951172" xlink:href="#DejaVuSans-97"/>
       <use x="386.230469" xlink:href="#DejaVuSans-112"/>
       <use x="449.707031" xlink:href="#DejaVuSans-101"/>
      </g>
     </g>
    </g>
    <g id="text_11">
     <!-- FACS plot shape -->
     <defs>
      <path d="M 9.8125 72.90625 
L 51.703125 72.90625 
L 51.703125 64.59375 
L 19.671875 64.59375 
L 19.671875 43.109375 
L 48.578125 43.109375 
L 48.578125 34.8125 
L 19.671875 34.8125 
L 19.671875 0 
L 9.8125 0 
z
" id="DejaVuSans-70"/>
      <path d="M 34.1875 63.1875 
L 20.796875 26.90625 
L 47.609375 26.90625 
z
M 28.609375 72.90625 
L 39.796875 72.90625 
L 67.578125 0 
L 57.328125 0 
L 50.6875 18.703125 
L 17.828125 18.703125 
L 11.1875 0 
L 0.78125 0 
z
" id="DejaVuSans-65"/>
      <path d="M 64.40625 67.28125 
L 64.40625 56.890625 
Q 59.421875 61.53125 53.78125 63.8125 
Q 48.140625 66.109375 41.796875 66.109375 
Q 29.296875 66.109375 22.65625 58.46875 
Q 16.015625 50.828125 16.015625 36.375 
Q 16.015625 21.96875 22.65625 14.328125 
Q 29.296875 6.6875 41.796875 6.6875 
Q 48.140625 6.6875 53.78125 8.984375 
Q 59.421875 11.28125 64.40625 15.921875 
L 64.40625 5.609375 
Q 59.234375 2.09375 53.4375 0.328125 
Q 47.65625 -1.421875 41.21875 -1.421875 
Q 24.65625 -1.421875 15.125 8.703125 
Q 5.609375 18.84375 5.609375 36.375 
Q 5.609375 53.953125 15.125 64.078125 
Q 24.65625 74.21875 41.21875 74.21875 
Q 47.75 74.21875 53.53125 72.484375 
Q 59.328125 70.75 64.40625 67.28125 
z
" id="DejaVuSans-67"/>
      <path d="M 53.515625 70.515625 
L 53.515625 60.890625 
Q 47.90625 63.578125 42.921875 64.890625 
Q 37.9375 66.21875 33.296875 66.21875 
Q 25.25 66.21875 20.875 63.09375 
Q 16.5 59.96875 16.5 54.203125 
Q 16.5 49.359375 19.40625 46.890625 
Q 22.3125 44.4375 30.421875 42.921875 
L 36.375 41.703125 
Q 47.40625 39.59375 52.65625 34.296875 
Q 57.90625 29 57.90625 20.125 
Q 57.90625 9.515625 50.796875 4.046875 
Q 43.703125 -1.421875 29.984375 -1.421875 
Q 24.8125 -1.421875 18.96875 -0.25 
Q 13.140625 0.921875 6.890625 3.21875 
L 6.890625 13.375 
Q 12.890625 10.015625 18.65625 8.296875 
Q 24.421875 6.59375 29.984375 6.59375 
Q 38.421875 6.59375 43.015625 9.90625 
Q 47.609375 13.234375 47.609375 19.390625 
Q 47.609375 24.75 44.3125 27.78125 
Q 41.015625 30.8125 33.5 32.328125 
L 27.484375 33.5 
Q 16.453125 35.6875 11.515625 40.375 
Q 6.59375 45.0625 6.59375 53.421875 
Q 6.59375 63.09375 13.40625 68.65625 
Q 20.21875 74.21875 32.171875 74.21875 
Q 37.3125 74.21875 42.625 73.28125 
Q 47.953125 72.359375 53.515625 70.515625 
z
" id="DejaVuSans-83"/>
     </defs>
     <g transform="translate(15.558281 106.213906)rotate(-90)scale(0.11 -0.11)">
      <use xlink:href="#DejaVuSans-70"/>
      <use x="48.394531" xlink:href="#DejaVuSans-65"/>
      <use x="115.052734" xlink:href="#DejaVuSans-67"/>
      <use x="184.876953" xlink:href="#DejaVuSans-83"/>
      <use x="248.353516" xlink:href="#DejaVuSans-32"/>
      <use x="280.140625" xlink:href="#DejaVuSans-112"/>
      <use x="343.617188" xlink:href="#DejaVuSans-108"/>
      <use x="371.400391" xlink:href="#DejaVuSans-111"/>
      <use x="432.582031" xlink:href="#DejaVuSans-116"/>
      <use x="471.791016" xlink:href="#DejaVuSans-32"/>
      <use x="503.578125" xlink:href="#DejaVuSans-115"/>
      <use x="555.677734" xlink:href="#DejaVuSans-104"/>
      <use x="619.056641" xlink:href="#DejaVuSans-97"/>
      <use x="680.335938" xlink:href="#DejaVuSans-112"/>
      <use x="743.8125" xlink:href="#DejaVuSans-101"/>
     </g>
    </g>
   </g>
   <g id="PathCollection_1">
    <path clip-path="url(#pa414408eef)" d="M 185.256593 51.185907 
C 185.961683 51.185907 186.63799 50.905772 187.136564 50.407198 
C 187.635138 49.908624 187.915274 49.232317 187.915274 48.527227 
C 187.915274 47.822136 187.635138 47.14583 187.136564 46.647255 
C 186.63799 46.148681 185.961683 45.868546 185.256593 45.868546 
C 184.551503 45.868546 183.875196 46.148681 183.376622 46.647255 
C 182.878048 47.14583 182.597912 47.822136 182.597912 48.527227 
C 182.597912 49.232317 182.878048 49.908624 183.376622 50.407198 
C 183.875196 50.905772 184.551503 51.185907 185.256593 51.185907 
z
" style="fill:#56b4e9;fill-opacity:0.25098;stroke:#56b4e9;stroke-opacity:0.25098;stroke-width:0.886227;"/>
    <path clip-path="url(#pa414408eef)" d="M 117.659665 81.836302 
C 118.364756 81.836302 119.041062 81.556167 119.539636 81.057592 
C 120.038211 80.559018 120.318346 79.882712 120.318346 79.177621 
C 120.318346 78.472531 120.038211 77.796224 119.539636 77.29765 
C 119.041062 76.799076 118.364756 76.518941 117.659665 76.518941 
C 116.954575 76.518941 116.278268 76.799076 115.779694 77.29765 
C 115.28112 77.796224 115.000984 78.472531 115.000984 79.177621 
C 115.000984 79.882712 115.28112 80.559018 115.779694 81.057592 
C 116.278268 81.556167 116.954575 81.836302 117.659665 81.836302 
z
" style="fill:#56b4e9;fill-opacity:0.25098;stroke:#56b4e9;stroke-opacity:0.25098;stroke-width:0.886227;"/>
    <path clip-path="url(#pa414408eef)" d="M 139.929495 76.172112 
C 140.634585 76.172112 141.310892 75.891977 141.809466 75.393402 
C 142.30804 74.894828 142.588176 74.218522 142.588176 73.513431 
C 142.588176 72.808341 142.30804 72.132034 141.809466 71.63346 
C 141.310892 71.134886 140.634585 70.85475 139.929495 70.85475 
C 139.224404 70.85475 138.548098 71.134886 138.049524 71.63346 
C 137.550949 72.132034 137.270814 72.808341 137.270814 73.513431 
C 137.270814 74.218522 137.550949 74.894828 138.049524 75.393402 
C 138.548098 75.891977 139.224404 76.172112 139.929495 76.172112 
z
" style="fill:#56b4e9;fill-opacity:0.25098;stroke:#56b4e9;stroke-opacity:0.25098;stroke-width:0.886227;"/>
    <path clip-path="url(#pa414408eef)" d="M 182.79846 53.481172 
C 183.503551 53.481172 184.179857 53.201037 184.678431 52.702463 
C 185.177006 52.203889 185.457141 51.527582 185.457141 50.822492 
C 185.457141 50.117401 185.177006 49.441095 184.678431 48.94252 
C 184.179857 48.443946 183.503551 48.163811 182.79846 48.163811 
C 182.09337 48.163811 181.417063 48.443946 180.918489 48.94252 
C 180.419915 49.441095 180.139779 50.117401 180.139779 50.822492 
C 180.139779 51.527582 180.419915 52.203889 180.918489 52.702463 
C 181.417063 53.201037 182.09337 53.481172 182.79846 53.481172 
z
" style="fill:#56b4e9;fill-opacity:0.25098;stroke:#56b4e9;stroke-opacity:0.25098;stroke-width:0.886227;"/>
    <path clip-path="url(#pa414408eef)" d="M 120.820647 105.491372 
C 121.525737 105.491372 122.202044 105.211237 122.700618 104.712663 
C 123.199192 104.214089 123.479328 103.537782 123.479328 102.832692 
C 123.479328 102.127601 123.199192 101.451295 122.700618 100.95272 
C 122.202044 100.454146 121.525737 100.174011 120.820647 100.174011 
C 120.115557 100.174011 119.43925 100.454146 118.940676 100.95272 
C 118.442102 101.451295 118.161966 102.127601 118.161966 102.832692 
C 118.161966 103.537782 118.442102 104.214089 118.940676 104.712663 
C 119.43925 105.211237 120.115557 105.491372 120.820647 105.491372 
z
" style="fill:#56b4e9;fill-opacity:0.25098;stroke:#56b4e9;stroke-opacity:0.25098;stroke-width:0.886227;"/>
    <path clip-path="url(#pa414408eef)" d="M 122.15765 75.518292 
C 122.86274 75.518292 123.539047 75.238157 124.037621 74.739583 
C 124.536195 74.241009 124.816331 73.564702 124.816331 72.859612 
C 124.816331 72.154521 124.536195 71.478215 124.037621 70.97964 
C 123.539047 70.481066 122.86274 70.200931 122.15765 70.200931 
C 121.452559 70.200931 120.776253 70.481066 120.277679 70.97964 
C 119.779104 71.478215 119.498969 72.154521 119.498969 72.859612 
C 119.498969 73.564702 119.779104 74.241009 120.277679 74.739583 
C 120.776253 75.238157 121.452559 75.518292 122.15765 75.518292 
z
" style="fill:#56b4e9;fill-opacity:0.25098;stroke:#56b4e9;stroke-opacity:0.25098;stroke-width:0.886227;"/>
    <path clip-path="url(#pa414408eef)" d="M 116.830769 79.037498 
C 117.535859 79.037498 118.212166 78.757363 118.71074 78.258789 
C 119.209314 77.760214 119.48945 77.083908 119.48945 76.378817 
C 119.48945 75.673727 119.209314 74.99742 118.71074 74.498846 
C 118.212166 74.000272 117.535859 73.720137 116.830769 73.720137 
C 116.125679 73.720137 115.449372 74.000272 114.950798 74.498846 
C 114.452224 74.99742 114.172088 75.673727 114.172088 76.378817 
C 114.172088 77.083908 114.452224 77.760214 114.950798 78.258789 
C 115.449372 78.757363 116.125679 79.037498 116.830769 79.037498 
z
" style="fill:#56b4e9;fill-opacity:0.25098;stroke:#56b4e9;stroke-opacity:0.25098;stroke-width:0.886227;"/>
    <path clip-path="url(#pa414408eef)" d="M 117.404571 108.483272 
C 118.109662 108.483272 118.785968 108.203136 119.284542 107.704562 
C 119.783117 107.205988 120.063252 106.529681 120.063252 105.824591 
C 120.063252 105.1195 119.783117 104.443194 119.284542 103.94462 
C 118.785968 103.446045 118.109662 103.16591 117.404571 103.16591 
C 116.699481 103.16591 116.023174 103.446045 115.5246 103.94462 
C 115.026026 104.443194 114.74589 105.1195 114.74589 105.824591 
C 114.74589 106.529681 115.026026 107.205988 115.5246 107.704562 
C 116.023174 108.203136 116.699481 108.483272 117.404571 108.483272 
z
" style="fill:#56b4e9;fill-opacity:0.25098;stroke:#56b4e9;stroke-opacity:0.25098;stroke-width:0.886227;"/>
    <path clip-path="url(#pa414408eef)" d="M 207.616002 27.208716 
C 208.321092 27.208716 208.997399 26.92858 209.495973 26.430006 
C 209.994547 25.931432 210.274683 25.255125 210.274683 24.550035 
C 210.274683 23.844944 209.994547 23.168638 209.495973 22.670064 
C 208.997399 22.171489 208.321092 21.891354 207.616002 21.891354 
C 206.910912 21.891354 206.234605 22.171489 205.736031 22.670064 
C 205.237457 23.168638 204.957321 23.844944 204.957321 24.550035 
C 204.957321 25.255125 205.237457 25.931432 205.736031 26.430006 
C 206.234605 26.92858 206.910912 27.208716 207.616002 27.208716 
z
" style="fill:#56b4e9;fill-opacity:0.25098;stroke:#56b4e9;stroke-opacity:0.25098;stroke-width:0.886227;"/>
    <path clip-path="url(#pa414408eef)" d="M 138.053935 77.621691 
C 138.759026 77.621691 139.435332 77.341555 139.933906 76.842981 
C 140.432481 76.344407 140.712616 75.6681 140.712616 74.96301 
C 140.712616 74.25792 140.432481 73.581613 139.933906 73.083039 
C 139.435332 72.584465 138.759026 72.304329 138.053935 72.304329 
C 137.348845 72.304329 136.672538 72.584465 136.173964 73.083039 
C 135.67539 73.581613 135.395254 74.25792 135.395254 74.96301 
C 135.395254 75.6681 135.67539 76.344407 136.173964 76.842981 
C 136.672538 77.341555 137.348845 77.621691 138.053935 77.621691 
z
" style="fill:#56b4e9;fill-opacity:0.25098;stroke:#56b4e9;stroke-opacity:0.25098;stroke-width:0.886227;"/>
    <path clip-path="url(#pa414408eef)" d="M 202.081704 25.471728 
C 202.786794 25.471728 203.463101 25.191593 203.961675 24.693019 
C 204.460249 24.194445 204.740385 23.518138 204.740385 22.813048 
C 204.740385 22.107957 204.460249 21.431651 203.961675 20.933076 
C 203.463101 20.434502 202.786794 20.154367 202.081704 20.154367 
C 201.376614 20.154367 200.700307 20.434502 200.201733 20.933076 
C 199.703159 21.431651 199.423023 22.107957 199.423023 22.813048 
C 199.423023 23.518138 199.703159 24.194445 200.201733 24.693019 
C 200.700307 25.191593 201.376614 25.471728 202.081704 25.471728 
z
" style="fill:#56b4e9;fill-opacity:0.25098;stroke:#56b4e9;stroke-opacity:0.25098;stroke-width:0.886227;"/>
    <path clip-path="url(#pa414408eef)" d="M 117.336287 105.169903 
C 118.041377 105.169903 118.717684 104.889767 119.216258 104.391193 
C 119.714832 103.892619 119.994967 103.216312 119.994967 102.511222 
C 119.994967 101.806131 119.714832 101.129825 119.216258 100.631251 
C 118.717684 100.132676 118.041377 99.852541 117.336287 99.852541 
C 116.631196 99.852541 115.95489 100.132676 115.456315 100.631251 
C 114.957741 101.129825 114.677606 101.806131 114.677606 102.511222 
C 114.677606 103.216312 114.957741 103.892619 115.456315 104.391193 
C 115.95489 104.889767 116.631196 105.169903 117.336287 105.169903 
z
" style="fill:#56b4e9;fill-opacity:0.25098;stroke:#56b4e9;stroke-opacity:0.25098;stroke-width:0.886227;"/>
    <path clip-path="url(#pa414408eef)" d="M 120.808454 74.80582 
C 121.513545 74.80582 122.189851 74.525685 122.688426 74.027111 
C 123.187 73.528536 123.467135 72.85223 123.467135 72.147139 
C 123.467135 71.442049 123.187 70.765742 122.688426 70.267168 
C 122.189851 69.768594 121.513545 69.488459 120.808454 69.488459 
C 120.103364 69.488459 119.427057 69.768594 118.928483 70.267168 
C 118.429909 70.765742 118.149774 71.442049 118.149774 72.147139 
C 118.149774 72.85223 118.429909 73.528536 118.928483 74.027111 
C 119.427057 74.525685 120.103364 74.80582 120.808454 74.80582 
z
" style="fill:#56b4e9;fill-opacity:0.25098;stroke:#56b4e9;stroke-opacity:0.25098;stroke-width:0.886227;"/>
    <path clip-path="url(#pa414408eef)" d="M 182.589481 52.476427 
C 183.294572 52.476427 183.970878 52.196291 184.469453 51.697717 
C 184.968027 51.199143 185.248162 50.522836 185.248162 49.817746 
C 185.248162 49.112655 184.968027 48.436349 184.469453 47.937775 
C 183.970878 47.4392 183.294572 47.159065 182.589481 47.159065 
C 181.884391 47.159065 181.208084 47.4392 180.70951 47.937775 
C 180.210936 48.436349 179.930801 49.112655 179.930801 49.817746 
C 179.930801 50.522836 180.210936 51.199143 180.70951 51.697717 
C 181.208084 52.196291 181.884391 52.476427 182.589481 52.476427 
z
" style="fill:#56b4e9;fill-opacity:0.25098;stroke:#56b4e9;stroke-opacity:0.25098;stroke-width:0.886227;"/>
    <path clip-path="url(#pa414408eef)" d="M 180.345673 54.407159 
C 181.050763 54.407159 181.72707 54.127024 182.225644 53.628449 
C 182.724218 53.129875 183.004354 52.453569 183.004354 51.748478 
C 183.004354 51.043388 182.724218 50.367081 182.225644 49.868507 
C 181.72707 49.369933 181.050763 49.089797 180.345673 49.089797 
C 179.640583 49.089797 178.964276 49.369933 178.465702 49.868507 
C 177.967128 50.367081 177.686992 51.043388 177.686992 51.748478 
C 177.686992 52.453569 177.967128 53.129875 178.465702 53.628449 
C 178.964276 54.127024 179.640583 54.407159 180.345673 54.407159 
z
" style="fill:#56b4e9;fill-opacity:0.25098;stroke:#56b4e9;stroke-opacity:0.25098;stroke-width:0.886227;"/>
    <path clip-path="url(#pa414408eef)" d="M 117.792738 104.793505 
C 118.497829 104.793505 119.174135 104.51337 119.67271 104.014796 
C 120.171284 103.516222 120.451419 102.839915 120.451419 102.134825 
C 120.451419 101.429734 120.171284 100.753428 119.67271 100.254853 
C 119.174135 99.756279 118.497829 99.476144 117.792738 99.476144 
C 117.087648 99.476144 116.411341 99.756279 115.912767 100.254853 
C 115.414193 100.753428 115.134058 101.429734 115.134058 102.134825 
C 115.134058 102.839915 115.414193 103.516222 115.912767 104.014796 
C 116.411341 104.51337 117.087648 104.793505 117.792738 104.793505 
z
" style="fill:#56b4e9;fill-opacity:0.25098;stroke:#56b4e9;stroke-opacity:0.25098;stroke-width:0.886227;"/>
    <path clip-path="url(#pa414408eef)" d="M 119.039964 80.119726 
C 119.745054 80.119726 120.421361 79.839591 120.919935 79.341017 
C 121.418509 78.842443 121.698645 78.166136 121.698645 77.461046 
C 121.698645 76.755955 121.418509 76.079649 120.919935 75.581074 
C 120.421361 75.0825 119.745054 74.802365 119.039964 74.802365 
C 118.334874 74.802365 117.658567 75.0825 117.159993 75.581074 
C 116.661419 76.079649 116.381283 76.755955 116.381283 77.461046 
C 116.381283 78.166136 116.661419 78.842443 117.159993 79.341017 
C 117.658567 79.839591 118.334874 80.119726 119.039964 80.119726 
z
" style="fill:#56b4e9;fill-opacity:0.25098;stroke:#56b4e9;stroke-opacity:0.25098;stroke-width:0.886227;"/>
    <path clip-path="url(#pa414408eef)" d="M 116.916883 77.236822 
C 117.621974 77.236822 118.29828 76.956687 118.796854 76.458113 
C 119.295429 75.959538 119.575564 75.283232 119.575564 74.578141 
C 119.575564 73.873051 119.295429 73.196744 118.796854 72.69817 
C 118.29828 72.199596 117.621974 71.919461 116.916883 71.919461 
C 116.211793 71.919461 115.535486 72.199596 115.036912 72.69817 
C 114.538338 73.196744 114.258202 73.873051 114.258202 74.578141 
C 114.258202 75.283232 114.538338 75.959538 115.036912 76.458113 
C 115.535486 76.956687 116.211793 77.236822 116.916883 77.236822 
z
" style="fill:#56b4e9;fill-opacity:0.25098;stroke:#56b4e9;stroke-opacity:0.25098;stroke-width:0.886227;"/>
    <path clip-path="url(#pa414408eef)" d="M 116.078478 75.332152 
C 116.783568 75.332152 117.459875 75.052017 117.958449 74.553443 
C 118.457023 74.054869 118.737158 73.378562 118.737158 72.673472 
C 118.737158 71.968381 118.457023 71.292075 117.958449 70.7935 
C 117.459875 70.294926 116.783568 70.014791 116.078478 70.014791 
C 115.373387 70.014791 114.697081 70.294926 114.198506 70.7935 
C 113.699932 71.292075 113.419797 71.968381 113.419797 72.673472 
C 113.419797 73.378562 113.699932 74.054869 114.198506 74.553443 
C 114.697081 75.052017 115.373387 75.332152 116.078478 75.332152 
z
" style="fill:#56b4e9;fill-opacity:0.25098;stroke:#56b4e9;stroke-opacity:0.25098;stroke-width:0.886227;"/>
    <path clip-path="url(#pa414408eef)" d="M 204.773084 26.224597 
C 205.478174 26.224597 206.154481 25.944461 206.653055 25.445887 
C 207.151629 24.947313 207.431765 24.271006 207.431765 23.565916 
C 207.431765 22.860825 207.151629 22.184519 206.653055 21.685945 
C 206.154481 21.18737 205.478174 20.907235 204.773084 20.907235 
C 204.067994 20.907235 203.391687 21.18737 202.893113 21.685945 
C 202.394539 22.184519 202.114403 22.860825 202.114403 23.565916 
C 202.114403 24.271006 202.394539 24.947313 202.893113 25.445887 
C 203.391687 25.944461 204.067994 26.224597 204.773084 26.224597 
z
" style="fill:#56b4e9;fill-opacity:0.25098;stroke:#56b4e9;stroke-opacity:0.25098;stroke-width:0.886227;"/>
    <path clip-path="url(#pa414408eef)" d="M 202.160551 22.923879 
C 202.865642 22.923879 203.541948 22.643744 204.040522 22.14517 
C 204.539097 21.646595 204.819232 20.970289 204.819232 20.265198 
C 204.819232 19.560108 204.539097 18.883801 204.040522 18.385227 
C 203.541948 17.886653 202.865642 17.606518 202.160551 17.606518 
C 201.455461 17.606518 200.779154 17.886653 200.28058 18.385227 
C 199.782006 18.883801 199.50187 19.560108 199.50187 20.265198 
C 199.50187 20.970289 199.782006 21.646595 200.28058 22.14517 
C 200.779154 22.643744 201.455461 22.923879 202.160551 22.923879 
z
" style="fill:#56b4e9;fill-opacity:0.25098;stroke:#56b4e9;stroke-opacity:0.25098;stroke-width:0.886227;"/>
    <path clip-path="url(#pa414408eef)" d="M 162.601471 77.748044 
C 163.306562 77.748044 163.982868 77.467909 164.481443 76.969335 
C 164.980017 76.470761 165.260152 75.794454 165.260152 75.089364 
C 165.260152 74.384273 164.980017 73.707967 164.481443 73.209392 
C 163.982868 72.710818 163.306562 72.430683 162.601471 72.430683 
C 161.896381 72.430683 161.220074 72.710818 160.7215 73.209392 
C 160.222926 73.707967 159.942791 74.384273 159.942791 75.089364 
C 159.942791 75.794454 160.222926 76.470761 160.7215 76.969335 
C 161.220074 77.467909 161.896381 77.748044 162.601471 77.748044 
z
" style="fill:#56b4e9;fill-opacity:0.25098;stroke:#56b4e9;stroke-opacity:0.25098;stroke-width:0.886227;"/>
    <path clip-path="url(#pa414408eef)" d="M 185.16342 53.520602 
C 185.868511 53.520602 186.544817 53.240467 187.043391 52.741892 
C 187.541966 52.243318 187.822101 51.567012 187.822101 50.861921 
C 187.822101 50.156831 187.541966 49.480524 187.043391 48.98195 
C 186.544817 48.483376 185.868511 48.20324 185.16342 48.20324 
C 184.45833 48.20324 183.782023 48.483376 183.283449 48.98195 
C 182.784875 49.480524 182.50474 50.156831 182.50474 50.861921 
C 182.50474 51.567012 182.784875 52.243318 183.283449 52.741892 
C 183.782023 53.240467 184.45833 53.520602 185.16342 53.520602 
z
" style="fill:#56b4e9;fill-opacity:0.25098;stroke:#56b4e9;stroke-opacity:0.25098;stroke-width:0.886227;"/>
    <path clip-path="url(#pa414408eef)" d="M 182.697797 54.978796 
C 183.402888 54.978796 184.079194 54.698661 184.577768 54.200086 
C 185.076343 53.701512 185.356478 53.025206 185.356478 52.320115 
C 185.356478 51.615025 185.076343 50.938718 184.577768 50.440144 
C 184.079194 49.94157 183.402888 49.661434 182.697797 49.661434 
C 181.992707 49.661434 181.3164 49.94157 180.817826 50.440144 
C 180.319252 50.938718 180.039116 51.615025 180.039116 52.320115 
C 180.039116 53.025206 180.319252 53.701512 180.817826 54.200086 
C 181.3164 54.698661 181.992707 54.978796 182.697797 54.978796 
z
" style="fill:#56b4e9;fill-opacity:0.25098;stroke:#56b4e9;stroke-opacity:0.25098;stroke-width:0.886227;"/>
    <path clip-path="url(#pa414408eef)" d="M 159.807818 51.241099 
C 160.512909 51.241099 161.189215 50.960963 161.68779 50.462389 
C 162.186364 49.963815 162.466499 49.287508 162.466499 48.582418 
C 162.466499 47.877328 162.186364 47.201021 161.68779 46.702447 
C 161.189215 46.203873 160.512909 45.923737 159.807818 45.923737 
C 159.102728 45.923737 158.426421 46.203873 157.927847 46.702447 
C 157.429273 47.201021 157.149138 47.877328 157.149138 48.582418 
C 157.149138 49.287508 157.429273 49.963815 157.927847 50.462389 
C 158.426421 50.960963 159.102728 51.241099 159.807818 51.241099 
z
" style="fill:#56b4e9;fill-opacity:0.25098;stroke:#56b4e9;stroke-opacity:0.25098;stroke-width:0.886227;"/>
    <path clip-path="url(#pa414408eef)" d="M 165.023081 82.212316 
C 165.728171 82.212316 166.404478 81.93218 166.903052 81.433606 
C 167.401626 80.935032 167.681761 80.258725 167.681761 79.553635 
C 167.681761 78.848544 167.401626 78.172238 166.903052 77.673664 
C 166.404478 77.175089 165.728171 76.894954 165.023081 76.894954 
C 164.31799 76.894954 163.641684 77.175089 163.14311 77.673664 
C 162.644535 78.172238 162.3644 78.848544 162.3644 79.553635 
C 162.3644 80.258725 162.644535 80.935032 163.14311 81.433606 
C 163.641684 81.93218 164.31799 82.212316 165.023081 82.212316 
z
" style="fill:#56b4e9;fill-opacity:0.25098;stroke:#56b4e9;stroke-opacity:0.25098;stroke-width:0.886227;"/>
    <path clip-path="url(#pa414408eef)" d="M 159.187244 75.489132 
C 159.892335 75.489132 160.568641 75.208997 161.067216 74.710423 
C 161.56579 74.211849 161.845925 73.535542 161.845925 72.830452 
C 161.845925 72.125361 161.56579 71.449055 161.067216 70.95048 
C 160.568641 70.451906 159.892335 70.171771 159.187244 70.171771 
C 158.482154 70.171771 157.805847 70.451906 157.307273 70.95048 
C 156.808699 71.449055 156.528564 72.125361 156.528564 72.830452 
C 156.528564 73.535542 156.808699 74.211849 157.307273 74.710423 
C 157.805847 75.208997 158.482154 75.489132 159.187244 75.489132 
z
" style="fill:#56b4e9;fill-opacity:0.25098;stroke:#56b4e9;stroke-opacity:0.25098;stroke-width:0.886227;"/>
    <path clip-path="url(#pa414408eef)" d="M 118.492059 106.336038 
C 119.19715 106.336038 119.873456 106.055902 120.37203 105.557328 
C 120.870605 105.058754 121.15074 104.382447 121.15074 103.677357 
C 121.15074 102.972267 120.870605 102.29596 120.37203 101.797386 
C 119.873456 101.298812 119.19715 101.018676 118.492059 101.018676 
C 117.786969 101.018676 117.110662 101.298812 116.612088 101.797386 
C 116.113514 102.29596 115.833378 102.972267 115.833378 103.677357 
C 115.833378 104.382447 116.113514 105.058754 116.612088 105.557328 
C 117.110662 106.055902 117.786969 106.336038 118.492059 106.336038 
z
" style="fill:#56b4e9;fill-opacity:0.25098;stroke:#56b4e9;stroke-opacity:0.25098;stroke-width:0.886227;"/>
    <path clip-path="url(#pa414408eef)" d="M 116.091525 75.553858 
C 116.796615 75.553858 117.472922 75.273722 117.971496 74.775148 
C 118.47007 74.276574 118.750205 73.600267 118.750205 72.895177 
C 118.750205 72.190087 118.47007 71.51378 117.971496 71.015206 
C 117.472922 70.516632 116.796615 70.236496 116.091525 70.236496 
C 115.386434 70.236496 114.710128 70.516632 114.211553 71.015206 
C 113.712979 71.51378 113.432844 72.190087 113.432844 72.895177 
C 113.432844 73.600267 113.712979 74.276574 114.211553 74.775148 
C 114.710128 75.273722 115.386434 75.553858 116.091525 75.553858 
z
" style="fill:#e69f00;fill-opacity:0.25098;stroke:#e69f00;stroke-opacity:0.25098;stroke-width:0.886227;"/>
    <path clip-path="url(#pa414408eef)" d="M 159.27734 55.773124 
C 159.982431 55.773124 160.658737 55.492988 161.157312 54.994414 
C 161.655886 54.49584 161.936021 53.819533 161.936021 53.114443 
C 161.936021 52.409352 161.655886 51.733046 161.157312 51.234472 
C 160.658737 50.735897 159.982431 50.455762 159.27734 50.455762 
C 158.57225 50.455762 157.895943 50.735897 157.397369 51.234472 
C 156.898795 51.733046 156.61866 52.409352 156.61866 53.114443 
C 156.61866 53.819533 156.898795 54.49584 157.397369 54.994414 
C 157.895943 55.492988 158.57225 55.773124 159.27734 55.773124 
z
" style="fill:#e69f00;fill-opacity:0.25098;stroke:#e69f00;stroke-opacity:0.25098;stroke-width:0.886227;"/>
    <path clip-path="url(#pa414408eef)" d="M 202.924 29.201142 
C 203.62909 29.201142 204.305397 28.921006 204.803971 28.422432 
C 205.302545 27.923858 205.582681 27.247551 205.582681 26.542461 
C 205.582681 25.837371 205.302545 25.161064 204.803971 24.66249 
C 204.305397 24.163916 203.62909 23.88378 202.924 23.88378 
C 202.218909 23.88378 201.542603 24.163916 201.044029 24.66249 
C 200.545454 25.161064 200.265319 25.837371 200.265319 26.542461 
C 200.265319 27.247551 200.545454 27.923858 201.044029 28.422432 
C 201.542603 28.921006 202.218909 29.201142 202.924 29.201142 
z
" style="fill:#e69f00;fill-opacity:0.25098;stroke:#e69f00;stroke-opacity:0.25098;stroke-width:0.886227;"/>
    <path clip-path="url(#pa414408eef)" d="M 119.63153 77.131524 
C 120.336621 77.131524 121.012927 76.851389 121.511501 76.352815 
C 122.010076 75.854241 122.290211 75.177934 122.290211 74.472844 
C 122.290211 73.767753 122.010076 73.091447 121.511501 72.592872 
C 121.012927 72.094298 120.336621 71.814163 119.63153 71.814163 
C 118.92644 71.814163 118.250133 72.094298 117.751559 72.592872 
C 117.252985 73.091447 116.972849 73.767753 116.972849 74.472844 
C 116.972849 75.177934 117.252985 75.854241 117.751559 76.352815 
C 118.250133 76.851389 118.92644 77.131524 119.63153 77.131524 
z
" style="fill:#e69f00;fill-opacity:0.25098;stroke:#e69f00;stroke-opacity:0.25098;stroke-width:0.886227;"/>
    <path clip-path="url(#pa414408eef)" d="M 208.005156 27.262321 
C 208.710247 27.262321 209.386553 26.982186 209.885128 26.483611 
C 210.383702 25.985037 210.663837 25.308731 210.663837 24.60364 
C 210.663837 23.89855 210.383702 23.222243 209.885128 22.723669 
C 209.386553 22.225095 208.710247 21.94496 208.005156 21.94496 
C 207.300066 21.94496 206.623759 22.225095 206.125185 22.723669 
C 205.626611 23.222243 205.346476 23.89855 205.346476 24.60364 
C 205.346476 25.308731 205.626611 25.985037 206.125185 26.483611 
C 206.623759 26.982186 207.300066 27.262321 208.005156 27.262321 
z
" style="fill:#e69f00;fill-opacity:0.25098;stroke:#e69f00;stroke-opacity:0.25098;stroke-width:0.886227;"/>
    <path clip-path="url(#pa414408eef)" d="M 118.904978 78.922433 
C 119.610068 78.922433 120.286375 78.642298 120.784949 78.143724 
C 121.283523 77.64515 121.563659 76.968843 121.563659 76.263753 
C 121.563659 75.558662 121.283523 74.882356 120.784949 74.383781 
C 120.286375 73.885207 119.610068 73.605072 118.904978 73.605072 
C 118.199888 73.605072 117.523581 73.885207 117.025007 74.383781 
C 116.526433 74.882356 116.246297 75.558662 116.246297 76.263753 
C 116.246297 76.968843 116.526433 77.64515 117.025007 78.143724 
C 117.523581 78.642298 118.199888 78.922433 118.904978 78.922433 
z
" style="fill:#e69f00;fill-opacity:0.25098;stroke:#e69f00;stroke-opacity:0.25098;stroke-width:0.886227;"/>
    <path clip-path="url(#pa414408eef)" d="M 116.65987 77.308639 
C 117.364961 77.308639 118.041268 77.028504 118.539842 76.52993 
C 119.038416 76.031356 119.318551 75.355049 119.318551 74.649959 
C 119.318551 73.944868 119.038416 73.268562 118.539842 72.769987 
C 118.041268 72.271413 117.364961 71.991278 116.65987 71.991278 
C 115.95478 71.991278 115.278473 72.271413 114.779899 72.769987 
C 114.281325 73.268562 114.00119 73.944868 114.00119 74.649959 
C 114.00119 75.355049 114.281325 76.031356 114.779899 76.52993 
C 115.278473 77.028504 115.95478 77.308639 116.65987 77.308639 
z
" style="fill:#e69f00;fill-opacity:0.25098;stroke:#e69f00;stroke-opacity:0.25098;stroke-width:0.886227;"/>
    <path clip-path="url(#pa414408eef)" d="M 116.706179 74.98555 
C 117.411269 74.98555 118.087576 74.705415 118.58615 74.20684 
C 119.084724 73.708266 119.36486 73.03196 119.36486 72.326869 
C 119.36486 71.621779 119.084724 70.945472 118.58615 70.446898 
C 118.087576 69.948324 117.411269 69.668189 116.706179 69.668189 
C 116.001089 69.668189 115.324782 69.948324 114.826208 70.446898 
C 114.327633 70.945472 114.047498 71.621779 114.047498 72.326869 
C 114.047498 73.03196 114.327633 73.708266 114.826208 74.20684 
C 115.324782 74.705415 116.001089 74.98555 116.706179 74.98555 
z
" style="fill:#e69f00;fill-opacity:0.25098;stroke:#e69f00;stroke-opacity:0.25098;stroke-width:0.886227;"/>
    <path clip-path="url(#pa414408eef)" d="M 117.061473 78.915606 
C 117.766563 78.915606 118.44287 78.63547 118.941444 78.136896 
C 119.440018 77.638322 119.720153 76.962015 119.720153 76.256925 
C 119.720153 75.551834 119.440018 74.875528 118.941444 74.376954 
C 118.44287 73.878379 117.766563 73.598244 117.061473 73.598244 
C 116.356382 73.598244 115.680076 73.878379 115.181501 74.376954 
C 114.682927 74.875528 114.402792 75.551834 114.402792 76.256925 
C 114.402792 76.962015 114.682927 77.638322 115.181501 78.136896 
C 115.680076 78.63547 116.356382 78.915606 117.061473 78.915606 
z
" style="fill:#e69f00;fill-opacity:0.25098;stroke:#e69f00;stroke-opacity:0.25098;stroke-width:0.886227;"/>
    <path clip-path="url(#pa414408eef)" d="M 120.595987 78.12726 
C 121.301077 78.12726 121.977384 77.847125 122.475958 77.348551 
C 122.974532 76.849976 123.254667 76.17367 123.254667 75.468579 
C 123.254667 74.763489 122.974532 74.087182 122.475958 73.588608 
C 121.977384 73.090034 121.301077 72.809899 120.595987 72.809899 
C 119.890896 72.809899 119.21459 73.090034 118.716015 73.588608 
C 118.217441 74.087182 117.937306 74.763489 117.937306 75.468579 
C 117.937306 76.17367 118.217441 76.849976 118.716015 77.348551 
C 119.21459 77.847125 119.890896 78.12726 120.595987 78.12726 
z
" style="fill:#e69f00;fill-opacity:0.25098;stroke:#e69f00;stroke-opacity:0.25098;stroke-width:0.886227;"/>
    <path clip-path="url(#pa414408eef)" d="M 116.532884 81.436673 
C 117.237974 81.436673 117.914281 81.156538 118.412855 80.657963 
C 118.911429 80.159389 119.191565 79.483083 119.191565 78.777992 
C 119.191565 78.072902 118.911429 77.396595 118.412855 76.898021 
C 117.914281 76.399447 117.237974 76.119311 116.532884 76.119311 
C 115.827794 76.119311 115.151487 76.399447 114.652913 76.898021 
C 114.154339 77.396595 113.874203 78.072902 113.874203 78.777992 
C 113.874203 79.483083 114.154339 80.159389 114.652913 80.657963 
C 115.151487 81.156538 115.827794 81.436673 116.532884 81.436673 
z
" style="fill:#e69f00;fill-opacity:0.25098;stroke:#e69f00;stroke-opacity:0.25098;stroke-width:0.886227;"/>
    <path clip-path="url(#pa414408eef)" d="M 122.049194 80.943324 
C 122.754285 80.943324 123.430591 80.663189 123.929166 80.164615 
C 124.42774 79.66604 124.707875 78.989734 124.707875 78.284643 
C 124.707875 77.579553 124.42774 76.903246 123.929166 76.404672 
C 123.430591 75.906098 122.754285 75.625963 122.049194 75.625963 
C 121.344104 75.625963 120.667797 75.906098 120.169223 76.404672 
C 119.670649 76.903246 119.390514 77.579553 119.390514 78.284643 
C 119.390514 78.989734 119.670649 79.66604 120.169223 80.164615 
C 120.667797 80.663189 121.344104 80.943324 122.049194 80.943324 
z
" style="fill:#e69f00;fill-opacity:0.25098;stroke:#e69f00;stroke-opacity:0.25098;stroke-width:0.886227;"/>
    <path clip-path="url(#pa414408eef)" d="M 159.289453 52.2309 
C 159.994544 52.2309 160.67085 51.950765 161.169424 51.45219 
C 161.667999 50.953616 161.948134 50.277309 161.948134 49.572219 
C 161.948134 48.867129 161.667999 48.190822 161.169424 47.692248 
C 160.67085 47.193674 159.994544 46.913538 159.289453 46.913538 
C 158.584363 46.913538 157.908056 47.193674 157.409482 47.692248 
C 156.910908 48.190822 156.630772 48.867129 156.630772 49.572219 
C 156.630772 50.277309 156.910908 50.953616 157.409482 51.45219 
C 157.908056 51.950765 158.584363 52.2309 159.289453 52.2309 
z
" style="fill:#e69f00;fill-opacity:0.25098;stroke:#e69f00;stroke-opacity:0.25098;stroke-width:0.886227;"/>
    <path clip-path="url(#pa414408eef)" d="M 161.266689 55.669546 
C 161.97178 55.669546 162.648086 55.389411 163.14666 54.890837 
C 163.645235 54.392262 163.92537 53.715956 163.92537 53.010865 
C 163.92537 52.305775 163.645235 51.629468 163.14666 51.130894 
C 162.648086 50.63232 161.97178 50.352185 161.266689 50.352185 
C 160.561599 50.352185 159.885292 50.63232 159.386718 51.130894 
C 158.888144 51.629468 158.608008 52.305775 158.608008 53.010865 
C 158.608008 53.715956 158.888144 54.392262 159.386718 54.890837 
C 159.885292 55.389411 160.561599 55.669546 161.266689 55.669546 
z
" style="fill:#e69f00;fill-opacity:0.25098;stroke:#e69f00;stroke-opacity:0.25098;stroke-width:0.886227;"/>
    <path clip-path="url(#pa414408eef)" d="M 205.505398 23.239299 
C 206.210489 23.239299 206.886795 22.959163 207.38537 22.460589 
C 207.883944 21.962015 208.164079 21.285708 208.164079 20.580618 
C 208.164079 19.875528 207.883944 19.199221 207.38537 18.700647 
C 206.886795 18.202073 206.210489 17.921937 205.505398 17.921937 
C 204.800308 17.921937 204.124001 18.202073 203.625427 18.700647 
C 203.126853 19.199221 202.846718 19.875528 202.846718 20.580618 
C 202.846718 21.285708 203.126853 21.962015 203.625427 22.460589 
C 204.124001 22.959163 204.800308 23.239299 205.505398 23.239299 
z
" style="fill:#e69f00;fill-opacity:0.25098;stroke:#e69f00;stroke-opacity:0.25098;stroke-width:0.886227;"/>
    <path clip-path="url(#pa414408eef)" d="M 206.621729 28.096609 
C 207.32682 28.096609 208.003126 27.816474 208.5017 27.3179 
C 209.000275 26.819326 209.28041 26.143019 209.28041 25.437929 
C 209.28041 24.732838 209.000275 24.056532 208.5017 23.557957 
C 208.003126 23.059383 207.32682 22.779248 206.621729 22.779248 
C 205.916639 22.779248 205.240332 23.059383 204.741758 23.557957 
C 204.243184 24.056532 203.963048 24.732838 203.963048 25.437929 
C 203.963048 26.143019 204.243184 26.819326 204.741758 27.3179 
C 205.240332 27.816474 205.916639 28.096609 206.621729 28.096609 
z
" style="fill:#e69f00;fill-opacity:0.25098;stroke:#e69f00;stroke-opacity:0.25098;stroke-width:0.886227;"/>
    <path clip-path="url(#pa414408eef)" d="M 206.769589 29.531618 
C 207.474679 29.531618 208.150986 29.251482 208.64956 28.752908 
C 209.148134 28.254334 209.428269 27.578027 209.428269 26.872937 
C 209.428269 26.167847 209.148134 25.49154 208.64956 24.992966 
C 208.150986 24.494392 207.474679 24.214256 206.769589 24.214256 
C 206.064498 24.214256 205.388191 24.494392 204.889617 24.992966 
C 204.391043 25.49154 204.110908 26.167847 204.110908 26.872937 
C 204.110908 27.578027 204.391043 28.254334 204.889617 28.752908 
C 205.388191 29.251482 206.064498 29.531618 206.769589 29.531618 
z
" style="fill:#e69f00;fill-opacity:0.25098;stroke:#e69f00;stroke-opacity:0.25098;stroke-width:0.886227;"/>
    <path clip-path="url(#pa414408eef)" d="M 207.870892 24.109565 
C 208.575982 24.109565 209.252289 23.829429 209.750863 23.330855 
C 210.249437 22.832281 210.529573 22.155974 210.529573 21.450884 
C 210.529573 20.745793 210.249437 20.069487 209.750863 19.570913 
C 209.252289 19.072338 208.575982 18.792203 207.870892 18.792203 
C 207.165802 18.792203 206.489495 19.072338 205.990921 19.570913 
C 205.492347 20.069487 205.212211 20.745793 205.212211 21.450884 
C 205.212211 22.155974 205.492347 22.832281 205.990921 23.330855 
C 206.489495 23.829429 207.165802 24.109565 207.870892 24.109565 
z
" style="fill:#e69f00;fill-opacity:0.25098;stroke:#e69f00;stroke-opacity:0.25098;stroke-width:0.886227;"/>
    <path clip-path="url(#pa414408eef)" d="M 206.354144 22.168935 
C 207.059234 22.168935 207.735541 21.888799 208.234115 21.390225 
C 208.732689 20.891651 209.012824 20.215344 209.012824 19.510254 
C 209.012824 18.805164 208.732689 18.128857 208.234115 17.630283 
C 207.735541 17.131709 207.059234 16.851573 206.354144 16.851573 
C 205.649053 16.851573 204.972747 17.131709 204.474173 17.630283 
C 203.975598 18.128857 203.695463 18.805164 203.695463 19.510254 
C 203.695463 20.215344 203.975598 20.891651 204.474173 21.390225 
C 204.972747 21.888799 205.649053 22.168935 206.354144 22.168935 
z
" style="fill:#e69f00;fill-opacity:0.25098;stroke:#e69f00;stroke-opacity:0.25098;stroke-width:0.886227;"/>
    <path clip-path="url(#pa414408eef)" d="M 116.847178 78.353585 
C 117.552268 78.353585 118.228575 78.07345 118.727149 77.574875 
C 119.225723 77.076301 119.505858 76.399995 119.505858 75.694904 
C 119.505858 74.989814 119.225723 74.313507 118.727149 73.814933 
C 118.228575 73.316359 117.552268 73.036224 116.847178 73.036224 
C 116.142087 73.036224 115.465781 73.316359 114.967206 73.814933 
C 114.468632 74.313507 114.188497 74.989814 114.188497 75.694904 
C 114.188497 76.399995 114.468632 77.076301 114.967206 77.574875 
C 115.465781 78.07345 116.142087 78.353585 116.847178 78.353585 
z
" style="fill:#e69f00;fill-opacity:0.25098;stroke:#e69f00;stroke-opacity:0.25098;stroke-width:0.886227;"/>
    <path clip-path="url(#pa414408eef)" d="M 205.710667 27.701776 
C 206.415757 27.701776 207.092064 27.421641 207.590638 26.923067 
C 208.089212 26.424493 208.369348 25.748186 208.369348 25.043096 
C 208.369348 24.338005 208.089212 23.661699 207.590638 23.163125 
C 207.092064 22.66455 206.415757 22.384415 205.710667 22.384415 
C 205.005577 22.384415 204.32927 22.66455 203.830696 23.163125 
C 203.332122 23.661699 203.051986 24.338005 203.051986 25.043096 
C 203.051986 25.748186 203.332122 26.424493 203.830696 26.923067 
C 204.32927 27.421641 205.005577 27.701776 205.710667 27.701776 
z
" style="fill:#e69f00;fill-opacity:0.25098;stroke:#e69f00;stroke-opacity:0.25098;stroke-width:0.886227;"/>
    <path clip-path="url(#pa414408eef)" d="M 117.595803 78.677875 
C 118.300893 78.677875 118.9772 78.39774 119.475774 77.899166 
C 119.974348 77.400592 120.254483 76.724285 120.254483 76.019195 
C 120.254483 75.314104 119.974348 74.637798 119.475774 74.139223 
C 118.9772 73.640649 118.300893 73.360514 117.595803 73.360514 
C 116.890712 73.360514 116.214406 73.640649 115.715831 74.139223 
C 115.217257 74.637798 114.937122 75.314104 114.937122 76.019195 
C 114.937122 76.724285 115.217257 77.400592 115.715831 77.899166 
C 116.214406 78.39774 116.890712 78.677875 117.595803 78.677875 
z
" style="fill:#e69f00;fill-opacity:0.25098;stroke:#e69f00;stroke-opacity:0.25098;stroke-width:0.886227;"/>
    <path clip-path="url(#pa414408eef)" d="M 120.752507 77.662415 
C 121.457597 77.662415 122.133904 77.38228 122.632478 76.883706 
C 123.131052 76.385131 123.411188 75.708825 123.411188 75.003734 
C 123.411188 74.298644 123.131052 73.622337 122.632478 73.123763 
C 122.133904 72.625189 121.457597 72.345054 120.752507 72.345054 
C 120.047417 72.345054 119.37111 72.625189 118.872536 73.123763 
C 118.373962 73.622337 118.093826 74.298644 118.093826 75.003734 
C 118.093826 75.708825 118.373962 76.385131 118.872536 76.883706 
C 119.37111 77.38228 120.047417 77.662415 120.752507 77.662415 
z
" style="fill:#e69f00;fill-opacity:0.25098;stroke:#e69f00;stroke-opacity:0.25098;stroke-width:0.886227;"/>
   </g>
   <g id="patch_3">
    <path d="M 106.195188 118.08 
L 106.195188 7.2 
" style="fill:none;stroke:#000000;stroke-linecap:square;stroke-linejoin:miter;"/>
   </g>
   <g id="patch_4">
    <path d="M 106.195188 118.08 
L 217.795187 118.08 
" style="fill:none;stroke:#000000;stroke-linecap:square;stroke-linejoin:miter;"/>
   </g>
  </g>
 </g>
 <defs>
  <clipPath id="pa414408eef">
   <rect height="110.88" width="111.6" x="106.195188" y="7.2"/>
  </clipPath>
 </defs>
</svg>
