<?xml version="1.0" encoding="utf-8" standalone="no"?>
<!DOCTYPE svg PUBLIC "-//W3C//DTD SVG 1.1//EN"
  "http://www.w3.org/Graphics/SVG/1.1/DTD/svg11.dtd">
<!-- Created with matplotlib (https://matplotlib.org/) -->
<svg height="203.802813pt" version="1.1" viewBox="0 0 224.995188 203.802813" width="224.995188pt" xmlns="http://www.w3.org/2000/svg" xmlns:xlink="http://www.w3.org/1999/xlink">
 <defs>
  <style type="text/css">
*{stroke-linecap:butt;stroke-linejoin:round;}
  </style>
 </defs>
 <g id="figure_1">
  <g id="patch_1">
   <path d="M 0 203.802813 
L 224.995188 203.802813 
L 224.995188 0 
L 0 0 
z
" style="fill:#ffffff;stroke:#ffffff;stroke-linejoin:miter;"/>
  </g>
  <g id="axes_1">
   <g id="patch_2">
    <path d="M 106.195188 118.08 
L 217.795187 118.08 
L 217.795187 7.2 
L 106.195188 7.2 
z
" style="fill:#ffffff;"/>
   </g>
   <g id="matplotlib.axis_1">
    <g id="xtick_1">
     <g id="line2d_1">
      <path d="M 119.072111 118.08 
" style="fill:none;stroke:#333333;stroke-width:1.5;"/>
      <defs>
       <path d="M 0 0 
L 0 2.75 
" id="m2407560108" style="stroke:#333333;"/>
      </defs>
      <g>
       <use style="fill:#333333;stroke:#333333;" x="119.072111" xlink:href="#m2407560108" y="118.08"/>
      </g>
     </g>
     <g id="text_1">
      <!-- low -->
      <defs>
       <path d="M 9.421875 75.984375 
L 18.40625 75.984375 
L 18.40625 0 
L 9.421875 0 
z
" id="DejaVuSans-108"/>
       <path d="M 30.609375 48.390625 
Q 23.390625 48.390625 19.1875 42.75 
Q 14.984375 37.109375 14.984375 27.296875 
Q 14.984375 17.484375 19.15625 11.84375 
Q 23.34375 6.203125 30.609375 6.203125 
Q 37.796875 6.203125 41.984375 11.859375 
Q 46.1875 17.53125 46.1875 27.296875 
Q 46.1875 37.015625 41.984375 42.703125 
Q 37.796875 48.390625 30.609375 48.390625 
z
M 30.609375 56 
Q 42.328125 56 49.015625 48.375 
Q 55.71875 40.765625 55.71875 27.296875 
Q 55.71875 13.875 49.015625 6.21875 
Q 42.328125 -1.421875 30.609375 -1.421875 
Q 18.84375 -1.421875 12.171875 6.21875 
Q 5.515625 13.875 5.515625 27.296875 
Q 5.515625 40.765625 12.171875 48.375 
Q 18.84375 56 30.609375 56 
z
" id="DejaVuSans-111"/>
       <path d="M 4.203125 54.6875 
L 13.1875 54.6875 
L 24.421875 12.015625 
L 35.59375 54.6875 
L 46.1875 54.6875 
L 57.421875 12.015625 
L 68.609375 54.6875 
L 77.59375 54.6875 
L 63.28125 0 
L 52.6875 0 
L 40.921875 44.828125 
L 29.109375 0 
L 18.5 0 
z
" id="DejaVuSans-119"/>
      </defs>
      <g style="fill:#4d4d4d;" transform="translate(121.500361 138.056)rotate(-90)scale(0.088 -0.088)">
       <use xlink:href="#DejaVuSans-108"/>
       <use x="27.783203" xlink:href="#DejaVuSans-111"/>
       <use x="88.964844" xlink:href="#DejaVuSans-119"/>
      </g>
     </g>
    </g>
    <g id="xtick_2">
     <g id="line2d_2">
      <path d="M 140.533649 118.08 
" style="fill:none;stroke:#333333;stroke-width:1.5;"/>
      <g>
       <use style="fill:#333333;stroke:#333333;" x="140.533649" xlink:href="#m2407560108" y="118.08"/>
      </g>
     </g>
     <g id="text_2">
      <!-- low-medium -->
      <defs>
       <path d="M 4.890625 31.390625 
L 31.203125 31.390625 
L 31.203125 23.390625 
L 4.890625 23.390625 
z
" id="DejaVuSans-45"/>
       <path d="M 52 44.1875 
Q 55.375 50.25 60.0625 53.125 
Q 64.75 56 71.09375 56 
Q 79.640625 56 84.28125 50.015625 
Q 88.921875 44.046875 88.921875 33.015625 
L 88.921875 0 
L 79.890625 0 
L 79.890625 32.71875 
Q 79.890625 40.578125 77.09375 44.375 
Q 74.3125 48.1875 68.609375 48.1875 
Q 61.625 48.1875 57.5625 43.546875 
Q 53.515625 38.921875 53.515625 30.90625 
L 53.515625 0 
L 44.484375 0 
L 44.484375 32.71875 
Q 44.484375 40.625 41.703125 44.40625 
Q 38.921875 48.1875 33.109375 48.1875 
Q 26.21875 48.1875 22.15625 43.53125 
Q 18.109375 38.875 18.109375 30.90625 
L 18.109375 0 
L 9.078125 0 
L 9.078125 54.6875 
L 18.109375 54.6875 
L 18.109375 46.1875 
Q 21.1875 51.21875 25.484375 53.609375 
Q 29.78125 56 35.6875 56 
Q 41.65625 56 45.828125 52.96875 
Q 50 49.953125 52 44.1875 
z
" id="DejaVuSans-109"/>
       <path d="M 56.203125 29.59375 
L 56.203125 25.203125 
L 14.890625 25.203125 
Q 15.484375 15.921875 20.484375 11.0625 
Q 25.484375 6.203125 34.421875 6.203125 
Q 39.59375 6.203125 44.453125 7.46875 
Q 49.3125 8.734375 54.109375 11.28125 
L 54.109375 2.78125 
Q 49.265625 0.734375 44.1875 -0.34375 
Q 39.109375 -1.421875 33.890625 -1.421875 
Q 20.796875 -1.421875 13.15625 6.1875 
Q 5.515625 13.8125 5.515625 26.8125 
Q 5.515625 40.234375 12.765625 48.109375 
Q 20.015625 56 32.328125 56 
Q 43.359375 56 49.78125 48.890625 
Q 56.203125 41.796875 56.203125 29.59375 
z
M 47.21875 32.234375 
Q 47.125 39.59375 43.09375 43.984375 
Q 39.0625 48.390625 32.421875 48.390625 
Q 24.90625 48.390625 20.390625 44.140625 
Q 15.875 39.890625 15.1875 32.171875 
z
" id="DejaVuSans-101"/>
       <path d="M 45.40625 46.390625 
L 45.40625 75.984375 
L 54.390625 75.984375 
L 54.390625 0 
L 45.40625 0 
L 45.40625 8.203125 
Q 42.578125 3.328125 38.25 0.953125 
Q 33.9375 -1.421875 27.875 -1.421875 
Q 17.96875 -1.421875 11.734375 6.484375 
Q 5.515625 14.40625 5.515625 27.296875 
Q 5.515625 40.1875 11.734375 48.09375 
Q 17.96875 56 27.875 56 
Q 33.9375 56 38.25 53.625 
Q 42.578125 51.265625 45.40625 46.390625 
z
M 14.796875 27.296875 
Q 14.796875 17.390625 18.875 11.75 
Q 22.953125 6.109375 30.078125 6.109375 
Q 37.203125 6.109375 41.296875 11.75 
Q 45.40625 17.390625 45.40625 27.296875 
Q 45.40625 37.203125 41.296875 42.84375 
Q 37.203125 48.484375 30.078125 48.484375 
Q 22.953125 48.484375 18.875 42.84375 
Q 14.796875 37.203125 14.796875 27.296875 
z
" id="DejaVuSans-100"/>
       <path d="M 9.421875 54.6875 
L 18.40625 54.6875 
L 18.40625 0 
L 9.421875 0 
z
M 9.421875 75.984375 
L 18.40625 75.984375 
L 18.40625 64.59375 
L 9.421875 64.59375 
z
" id="DejaVuSans-105"/>
       <path d="M 8.5 21.578125 
L 8.5 54.6875 
L 17.484375 54.6875 
L 17.484375 21.921875 
Q 17.484375 14.15625 20.5 10.265625 
Q 23.53125 6.390625 29.59375 6.390625 
Q 36.859375 6.390625 41.078125 11.03125 
Q 45.3125 15.671875 45.3125 23.6875 
L 45.3125 54.6875 
L 54.296875 54.6875 
L 54.296875 0 
L 45.3125 0 
L 45.3125 8.40625 
Q 42.046875 3.421875 37.71875 1 
Q 33.40625 -1.421875 27.6875 -1.421875 
Q 18.265625 -1.421875 13.375 4.4375 
Q 8.5 10.296875 8.5 21.578125 
z
M 31.109375 56 
z
" id="DejaVuSans-117"/>
      </defs>
      <g style="fill:#4d4d4d;" transform="translate(142.961899 177.3975)rotate(-90)scale(0.088 -0.088)">
       <use xlink:href="#DejaVuSans-108"/>
       <use x="27.783203" xlink:href="#DejaVuSans-111"/>
       <use x="88.964844" xlink:href="#DejaVuSans-119"/>
       <use x="170.751953" xlink:href="#DejaVuSans-45"/>
       <use x="206.835938" xlink:href="#DejaVuSans-109"/>
       <use x="304.248047" xlink:href="#DejaVuSans-101"/>
       <use x="365.771484" xlink:href="#DejaVuSans-100"/>
       <use x="429.248047" xlink:href="#DejaVuSans-105"/>
       <use x="457.03125" xlink:href="#DejaVuSans-117"/>
       <use x="520.410156" xlink:href="#DejaVuSans-109"/>
      </g>
     </g>
    </g>
    <g id="xtick_3">
     <g id="line2d_3">
      <path d="M 161.995188 118.08 
" style="fill:none;stroke:#333333;stroke-width:1.5;"/>
      <g>
       <use style="fill:#333333;stroke:#333333;" x="161.995188" xlink:href="#m2407560108" y="118.08"/>
      </g>
     </g>
     <g id="text_3">
      <!-- medium -->
      <g style="fill:#4d4d4d;" transform="translate(164.423438 159.196625)rotate(-90)scale(0.088 -0.088)">
       <use xlink:href="#DejaVuSans-109"/>
       <use x="97.412109" xlink:href="#DejaVuSans-101"/>
       <use x="158.935547" xlink:href="#DejaVuSans-100"/>
       <use x="222.412109" xlink:href="#DejaVuSans-105"/>
       <use x="250.195312" xlink:href="#DejaVuSans-117"/>
       <use x="313.574219" xlink:href="#DejaVuSans-109"/>
      </g>
     </g>
    </g>
    <g id="xtick_4">
     <g id="line2d_4">
      <path d="M 183.456726 118.08 
" style="fill:none;stroke:#333333;stroke-width:1.5;"/>
      <g>
       <use style="fill:#333333;stroke:#333333;" x="183.456726" xlink:href="#m2407560108" y="118.08"/>
      </g>
     </g>
     <g id="text_4">
      <!-- medium-high -->
      <defs>
       <path d="M 54.890625 33.015625 
L 54.890625 0 
L 45.90625 0 
L 45.90625 32.71875 
Q 45.90625 40.484375 42.875 44.328125 
Q 39.84375 48.1875 33.796875 48.1875 
Q 26.515625 48.1875 22.3125 43.546875 
Q 18.109375 38.921875 18.109375 30.90625 
L 18.109375 0 
L 9.078125 0 
L 9.078125 75.984375 
L 18.109375 75.984375 
L 18.109375 46.1875 
Q 21.34375 51.125 25.703125 53.5625 
Q 30.078125 56 35.796875 56 
Q 45.21875 56 50.046875 50.171875 
Q 54.890625 44.34375 54.890625 33.015625 
z
" id="DejaVuSans-104"/>
       <path d="M 45.40625 27.984375 
Q 45.40625 37.75 41.375 43.109375 
Q 37.359375 48.484375 30.078125 48.484375 
Q 22.859375 48.484375 18.828125 43.109375 
Q 14.796875 37.75 14.796875 27.984375 
Q 14.796875 18.265625 18.828125 12.890625 
Q 22.859375 7.515625 30.078125 7.515625 
Q 37.359375 7.515625 41.375 12.890625 
Q 45.40625 18.265625 45.40625 27.984375 
z
M 54.390625 6.78125 
Q 54.390625 -7.171875 48.1875 -13.984375 
Q 42 -20.796875 29.203125 -20.796875 
Q 24.46875 -20.796875 20.265625 -20.09375 
Q 16.0625 -19.390625 12.109375 -17.921875 
L 12.109375 -9.1875 
Q 16.0625 -11.328125 19.921875 -12.34375 
Q 23.78125 -13.375 27.78125 -13.375 
Q 36.625 -13.375 41.015625 -8.765625 
Q 45.40625 -4.15625 45.40625 5.171875 
L 45.40625 9.625 
Q 42.625 4.78125 38.28125 2.390625 
Q 33.9375 0 27.875 0 
Q 17.828125 0 11.671875 7.65625 
Q 5.515625 15.328125 5.515625 27.984375 
Q 5.515625 40.671875 11.671875 48.328125 
Q 17.828125 56 27.875 56 
Q 33.9375 56 38.28125 53.609375 
Q 42.625 51.21875 45.40625 46.390625 
L 45.40625 54.6875 
L 54.390625 54.6875 
z
" id="DejaVuSans-103"/>
      </defs>
      <g style="fill:#4d4d4d;" transform="translate(185.884976 181.556875)rotate(-90)scale(0.088 -0.088)">
       <use xlink:href="#DejaVuSans-109"/>
       <use x="97.412109" xlink:href="#DejaVuSans-101"/>
       <use x="158.935547" xlink:href="#DejaVuSans-100"/>
       <use x="222.412109" xlink:href="#DejaVuSans-105"/>
       <use x="250.195312" xlink:href="#DejaVuSans-117"/>
       <use x="313.574219" xlink:href="#DejaVuSans-109"/>
       <use x="410.986328" xlink:href="#DejaVuSans-45"/>
       <use x="447.070312" xlink:href="#DejaVuSans-104"/>
       <use x="510.449219" xlink:href="#DejaVuSans-105"/>
       <use x="538.232422" xlink:href="#DejaVuSans-103"/>
       <use x="601.708984" xlink:href="#DejaVuSans-104"/>
      </g>
     </g>
    </g>
    <g id="xtick_5">
     <g id="line2d_5">
      <path d="M 204.918264 118.08 
" style="fill:none;stroke:#333333;stroke-width:1.5;"/>
      <g>
       <use style="fill:#333333;stroke:#333333;" x="204.918264" xlink:href="#m2407560108" y="118.08"/>
      </g>
     </g>
     <g id="text_5">
      <!-- high -->
      <g style="fill:#4d4d4d;" transform="translate(207.346514 142.215375)rotate(-90)scale(0.088 -0.088)">
       <use xlink:href="#DejaVuSans-104"/>
       <use x="63.378906" xlink:href="#DejaVuSans-105"/>
       <use x="91.162109" xlink:href="#DejaVuSans-103"/>
       <use x="154.638672" xlink:href="#DejaVuSans-104"/>
      </g>
     </g>
    </g>
    <g id="text_6">
     <!-- staining background -->
     <defs>
      <path d="M 44.28125 53.078125 
L 44.28125 44.578125 
Q 40.484375 46.53125 36.375 47.5 
Q 32.28125 48.484375 27.875 48.484375 
Q 21.1875 48.484375 17.84375 46.4375 
Q 14.5 44.390625 14.5 40.28125 
Q 14.5 37.15625 16.890625 35.375 
Q 19.28125 33.59375 26.515625 31.984375 
L 29.59375 31.296875 
Q 39.15625 29.25 43.1875 25.515625 
Q 47.21875 21.78125 47.21875 15.09375 
Q 47.21875 7.46875 41.1875 3.015625 
Q 35.15625 -1.421875 24.609375 -1.421875 
Q 20.21875 -1.421875 15.453125 -0.5625 
Q 10.6875 0.296875 5.421875 2 
L 5.421875 11.28125 
Q 10.40625 8.6875 15.234375 7.390625 
Q 20.0625 6.109375 24.8125 6.109375 
Q 31.15625 6.109375 34.5625 8.28125 
Q 37.984375 10.453125 37.984375 14.40625 
Q 37.984375 18.0625 35.515625 20.015625 
Q 33.0625 21.96875 24.703125 23.78125 
L 21.578125 24.515625 
Q 13.234375 26.265625 9.515625 29.90625 
Q 5.8125 33.546875 5.8125 39.890625 
Q 5.8125 47.609375 11.28125 51.796875 
Q 16.75 56 26.8125 56 
Q 31.78125 56 36.171875 55.265625 
Q 40.578125 54.546875 44.28125 53.078125 
z
" id="DejaVuSans-115"/>
      <path d="M 18.3125 70.21875 
L 18.3125 54.6875 
L 36.8125 54.6875 
L 36.8125 47.703125 
L 18.3125 47.703125 
L 18.3125 18.015625 
Q 18.3125 11.328125 20.140625 9.421875 
Q 21.96875 7.515625 27.59375 7.515625 
L 36.8125 7.515625 
L 36.8125 0 
L 27.59375 0 
Q 17.1875 0 13.234375 3.875 
Q 9.28125 7.765625 9.28125 18.015625 
L 9.28125 47.703125 
L 2.6875 47.703125 
L 2.6875 54.6875 
L 9.28125 54.6875 
L 9.28125 70.21875 
z
" id="DejaVuSans-116"/>
      <path d="M 34.28125 27.484375 
Q 23.390625 27.484375 19.1875 25 
Q 14.984375 22.515625 14.984375 16.5 
Q 14.984375 11.71875 18.140625 8.90625 
Q 21.296875 6.109375 26.703125 6.109375 
Q 34.1875 6.109375 38.703125 11.40625 
Q 43.21875 16.703125 43.21875 25.484375 
L 43.21875 27.484375 
z
M 52.203125 31.203125 
L 52.203125 0 
L 43.21875 0 
L 43.21875 8.296875 
Q 40.140625 3.328125 35.546875 0.953125 
Q 30.953125 -1.421875 24.3125 -1.421875 
Q 15.921875 -1.421875 10.953125 3.296875 
Q 6 8.015625 6 15.921875 
Q 6 25.140625 12.171875 29.828125 
Q 18.359375 34.515625 30.609375 34.515625 
L 43.21875 34.515625 
L 43.21875 35.40625 
Q 43.21875 41.609375 39.140625 45 
Q 35.0625 48.390625 27.6875 48.390625 
Q 23 48.390625 18.546875 47.265625 
Q 14.109375 46.140625 10.015625 43.890625 
L 10.015625 52.203125 
Q 14.9375 54.109375 19.578125 55.046875 
Q 24.21875 56 28.609375 56 
Q 40.484375 56 46.34375 49.84375 
Q 52.203125 43.703125 52.203125 31.203125 
z
" id="DejaVuSans-97"/>
      <path d="M 54.890625 33.015625 
L 54.890625 0 
L 45.90625 0 
L 45.90625 32.71875 
Q 45.90625 40.484375 42.875 44.328125 
Q 39.84375 48.1875 33.796875 48.1875 
Q 26.515625 48.1875 22.3125 43.546875 
Q 18.109375 38.921875 18.109375 30.90625 
L 18.109375 0 
L 9.078125 0 
L 9.078125 54.6875 
L 18.109375 54.6875 
L 18.109375 46.1875 
Q 21.34375 51.125 25.703125 53.5625 
Q 30.078125 56 35.796875 56 
Q 45.21875 56 50.046875 50.171875 
Q 54.890625 44.34375 54.890625 33.015625 
z
" id="DejaVuSans-110"/>
      <path id="DejaVuSans-32"/>
      <path d="M 48.6875 27.296875 
Q 48.6875 37.203125 44.609375 42.84375 
Q 40.53125 48.484375 33.40625 48.484375 
Q 26.265625 48.484375 22.1875 42.84375 
Q 18.109375 37.203125 18.109375 27.296875 
Q 18.109375 17.390625 22.1875 11.75 
Q 26.265625 6.109375 33.40625 6.109375 
Q 40.53125 6.109375 44.609375 11.75 
Q 48.6875 17.390625 48.6875 27.296875 
z
M 18.109375 46.390625 
Q 20.953125 51.265625 25.265625 53.625 
Q 29.59375 56 35.59375 56 
Q 45.5625 56 51.78125 48.09375 
Q 58.015625 40.1875 58.015625 27.296875 
Q 58.015625 14.40625 51.78125 6.484375 
Q 45.5625 -1.421875 35.59375 -1.421875 
Q 29.59375 -1.421875 25.265625 0.953125 
Q 20.953125 3.328125 18.109375 8.203125 
L 18.109375 0 
L 9.078125 0 
L 9.078125 75.984375 
L 18.109375 75.984375 
z
" id="DejaVuSans-98"/>
      <path d="M 48.78125 52.59375 
L 48.78125 44.1875 
Q 44.96875 46.296875 41.140625 47.34375 
Q 37.3125 48.390625 33.40625 48.390625 
Q 24.65625 48.390625 19.8125 42.84375 
Q 14.984375 37.3125 14.984375 27.296875 
Q 14.984375 17.28125 19.8125 11.734375 
Q 24.65625 6.203125 33.40625 6.203125 
Q 37.3125 6.203125 41.140625 7.25 
Q 44.96875 8.296875 48.78125 10.40625 
L 48.78125 2.09375 
Q 45.015625 0.34375 40.984375 -0.53125 
Q 36.96875 -1.421875 32.421875 -1.421875 
Q 20.0625 -1.421875 12.78125 6.34375 
Q 5.515625 14.109375 5.515625 27.296875 
Q 5.515625 40.671875 12.859375 48.328125 
Q 20.21875 56 33.015625 56 
Q 37.15625 56 41.109375 55.140625 
Q 45.0625 54.296875 48.78125 52.59375 
z
" id="DejaVuSans-99"/>
      <path d="M 9.078125 75.984375 
L 18.109375 75.984375 
L 18.109375 31.109375 
L 44.921875 54.6875 
L 56.390625 54.6875 
L 27.390625 29.109375 
L 57.625 0 
L 45.90625 0 
L 18.109375 26.703125 
L 18.109375 0 
L 9.078125 0 
z
" id="DejaVuSans-107"/>
      <path d="M 41.109375 46.296875 
Q 39.59375 47.171875 37.8125 47.578125 
Q 36.03125 48 33.890625 48 
Q 26.265625 48 22.1875 43.046875 
Q 18.109375 38.09375 18.109375 28.8125 
L 18.109375 0 
L 9.078125 0 
L 9.078125 54.6875 
L 18.109375 54.6875 
L 18.109375 46.1875 
Q 20.953125 51.171875 25.484375 53.578125 
Q 30.03125 56 36.53125 56 
Q 37.453125 56 38.578125 55.875 
Q 39.703125 55.765625 41.0625 55.515625 
z
" id="DejaVuSans-114"/>
     </defs>
     <g transform="translate(104.008391 194.315156)scale(0.11 -0.11)">
      <use xlink:href="#DejaVuSans-115"/>
      <use x="52.099609" xlink:href="#DejaVuSans-116"/>
      <use x="91.308594" xlink:href="#DejaVuSans-97"/>
      <use x="152.587891" xlink:href="#DejaVuSans-105"/>
      <use x="180.371094" xlink:href="#DejaVuSans-110"/>
      <use x="243.75" xlink:href="#DejaVuSans-105"/>
      <use x="271.533203" xlink:href="#DejaVuSans-110"/>
      <use x="334.912109" xlink:href="#DejaVuSans-103"/>
      <use x="398.388672" xlink:href="#DejaVuSans-32"/>
      <use x="430.175781" xlink:href="#DejaVuSans-98"/>
      <use x="493.652344" xlink:href="#DejaVuSans-97"/>
      <use x="554.931641" xlink:href="#DejaVuSans-99"/>
      <use x="609.912109" xlink:href="#DejaVuSans-107"/>
      <use x="667.822266" xlink:href="#DejaVuSans-103"/>
      <use x="731.298828" xlink:href="#DejaVuSans-114"/>
      <use x="770.162109" xlink:href="#DejaVuSans-111"/>
      <use x="831.34375" xlink:href="#DejaVuSans-117"/>
      <use x="894.722656" xlink:href="#DejaVuSans-110"/>
      <use x="958.101562" xlink:href="#DejaVuSans-100"/>
     </g>
    </g>
   </g>
   <g id="matplotlib.axis_2">
    <g id="ytick_1">
     <g id="line2d_6">
      <path d="M 106.195188 102.24 
" style="fill:none;stroke:#333333;stroke-width:1.5;"/>
      <defs>
       <path d="M 0 0 
L -2.75 0 
" id="m976e4b5e16" style="stroke:#333333;"/>
      </defs>
      <g>
       <use style="fill:#333333;stroke:#333333;" x="106.195188" xlink:href="#m976e4b5e16" y="102.24"/>
      </g>
     </g>
     <g id="text_7">
      <!-- extra escape -->
      <defs>
       <path d="M 54.890625 54.6875 
L 35.109375 28.078125 
L 55.90625 0 
L 45.3125 0 
L 29.390625 21.484375 
L 13.484375 0 
L 2.875 0 
L 24.125 28.609375 
L 4.6875 54.6875 
L 15.28125 54.6875 
L 29.78125 35.203125 
L 44.28125 54.6875 
z
" id="DejaVuSans-120"/>
       <path d="M 18.109375 8.203125 
L 18.109375 -20.796875 
L 9.078125 -20.796875 
L 9.078125 54.6875 
L 18.109375 54.6875 
L 18.109375 46.390625 
Q 20.953125 51.265625 25.265625 53.625 
Q 29.59375 56 35.59375 56 
Q 45.5625 56 51.78125 48.09375 
Q 58.015625 40.1875 58.015625 27.296875 
Q 58.015625 14.40625 51.78125 6.484375 
Q 45.5625 -1.421875 35.59375 -1.421875 
Q 29.59375 -1.421875 25.265625 0.953125 
Q 20.953125 3.328125 18.109375 8.203125 
z
M 48.6875 27.296875 
Q 48.6875 37.203125 44.609375 42.84375 
Q 40.53125 48.484375 33.40625 48.484375 
Q 26.265625 48.484375 22.1875 42.84375 
Q 18.109375 37.203125 18.109375 27.296875 
Q 18.109375 17.390625 22.1875 11.75 
Q 26.265625 6.109375 33.40625 6.109375 
Q 40.53125 6.109375 44.609375 11.75 
Q 48.6875 17.390625 48.6875 27.296875 
z
" id="DejaVuSans-112"/>
      </defs>
      <g style="fill:#4d4d4d;" transform="translate(44.287188 104.66825)scale(0.088 -0.088)">
       <use xlink:href="#DejaVuSans-101"/>
       <use x="59.773438" xlink:href="#DejaVuSans-120"/>
       <use x="118.953125" xlink:href="#DejaVuSans-116"/>
       <use x="158.162109" xlink:href="#DejaVuSans-114"/>
       <use x="199.275391" xlink:href="#DejaVuSans-97"/>
       <use x="260.554688" xlink:href="#DejaVuSans-32"/>
       <use x="292.341797" xlink:href="#DejaVuSans-101"/>
       <use x="353.865234" xlink:href="#DejaVuSans-115"/>
       <use x="405.964844" xlink:href="#DejaVuSans-99"/>
       <use x="460.945312" xlink:href="#DejaVuSans-97"/>
       <use x="522.224609" xlink:href="#DejaVuSans-112"/>
       <use x="585.701172" xlink:href="#DejaVuSans-101"/>
      </g>
     </g>
    </g>
    <g id="ytick_2">
     <g id="line2d_7">
      <path d="M 106.195188 75.84 
" style="fill:none;stroke:#333333;stroke-width:1.5;"/>
      <g>
       <use style="fill:#333333;stroke:#333333;" x="106.195188" xlink:href="#m976e4b5e16" y="75.84"/>
      </g>
     </g>
     <g id="text_8">
      <!-- normal -->
      <g style="fill:#4d4d4d;" transform="translate(70.410813 78.26825)scale(0.088 -0.088)">
       <use xlink:href="#DejaVuSans-110"/>
       <use x="63.378906" xlink:href="#DejaVuSans-111"/>
       <use x="124.560547" xlink:href="#DejaVuSans-114"/>
       <use x="163.923828" xlink:href="#DejaVuSans-109"/>
       <use x="261.335938" xlink:href="#DejaVuSans-97"/>
       <use x="322.615234" xlink:href="#DejaVuSans-108"/>
      </g>
     </g>
    </g>
    <g id="ytick_3">
     <g id="line2d_8">
      <path d="M 106.195188 49.44 
" style="fill:none;stroke:#333333;stroke-width:1.5;"/>
      <g>
       <use style="fill:#333333;stroke:#333333;" x="106.195188" xlink:href="#m976e4b5e16" y="49.44"/>
      </g>
     </g>
     <g id="text_9">
      <!-- normal-no escape -->
      <g style="fill:#4d4d4d;" transform="translate(22.245938 51.86825)scale(0.088 -0.088)">
       <use xlink:href="#DejaVuSans-110"/>
       <use x="63.378906" xlink:href="#DejaVuSans-111"/>
       <use x="124.560547" xlink:href="#DejaVuSans-114"/>
       <use x="163.923828" xlink:href="#DejaVuSans-109"/>
       <use x="261.335938" xlink:href="#DejaVuSans-97"/>
       <use x="322.615234" xlink:href="#DejaVuSans-108"/>
       <use x="350.398438" xlink:href="#DejaVuSans-45"/>
       <use x="386.482422" xlink:href="#DejaVuSans-110"/>
       <use x="449.861328" xlink:href="#DejaVuSans-111"/>
       <use x="511.042969" xlink:href="#DejaVuSans-32"/>
       <use x="542.830078" xlink:href="#DejaVuSans-101"/>
       <use x="604.353516" xlink:href="#DejaVuSans-115"/>
       <use x="656.453125" xlink:href="#DejaVuSans-99"/>
       <use x="711.433594" xlink:href="#DejaVuSans-97"/>
       <use x="772.712891" xlink:href="#DejaVuSans-112"/>
       <use x="836.189453" xlink:href="#DejaVuSans-101"/>
      </g>
     </g>
    </g>
    <g id="ytick_4">
     <g id="line2d_9">
      <path d="M 106.195188 23.04 
" style="fill:none;stroke:#333333;stroke-width:1.5;"/>
      <g>
       <use style="fill:#333333;stroke:#333333;" x="106.195188" xlink:href="#m976e4b5e16" y="23.04"/>
      </g>
     </g>
     <g id="text_10">
      <!-- no escape -->
      <g style="fill:#4d4d4d;" transform="translate(56.255188 25.46825)scale(0.088 -0.088)">
       <use xlink:href="#DejaVuSans-110"/>
       <use x="63.378906" xlink:href="#DejaVuSans-111"/>
       <use x="124.560547" xlink:href="#DejaVuSans-32"/>
       <use x="156.347656" xlink:href="#DejaVuSans-101"/>
       <use x="217.871094" xlink:href="#DejaVuSans-115"/>
       <use x="269.970703" xlink:href="#DejaVuSans-99"/>
       <use x="324.951172" xlink:href="#DejaVuSans-97"/>
       <use x="386.230469" xlink:href="#DejaVuSans-112"/>
       <use x="449.707031" xlink:href="#DejaVuSans-101"/>
      </g>
     </g>
    </g>
    <g id="text_11">
     <!-- FACS plot shape -->
     <defs>
      <path d="M 9.8125 72.90625 
L 51.703125 72.90625 
L 51.703125 64.59375 
L 19.671875 64.59375 
L 19.671875 43.109375 
L 48.578125 43.109375 
L 48.578125 34.8125 
L 19.671875 34.8125 
L 19.671875 0 
L 9.8125 0 
z
" id="DejaVuSans-70"/>
      <path d="M 34.1875 63.1875 
L 20.796875 26.90625 
L 47.609375 26.90625 
z
M 28.609375 72.90625 
L 39.796875 72.90625 
L 67.578125 0 
L 57.328125 0 
L 50.6875 18.703125 
L 17.828125 18.703125 
L 11.1875 0 
L 0.78125 0 
z
" id="DejaVuSans-65"/>
      <path d="M 64.40625 67.28125 
L 64.40625 56.890625 
Q 59.421875 61.53125 53.78125 63.8125 
Q 48.140625 66.109375 41.796875 66.109375 
Q 29.296875 66.109375 22.65625 58.46875 
Q 16.015625 50.828125 16.015625 36.375 
Q 16.015625 21.96875 22.65625 14.328125 
Q 29.296875 6.6875 41.796875 6.6875 
Q 48.140625 6.6875 53.78125 8.984375 
Q 59.421875 11.28125 64.40625 15.921875 
L 64.40625 5.609375 
Q 59.234375 2.09375 53.4375 0.328125 
Q 47.65625 -1.421875 41.21875 -1.421875 
Q 24.65625 -1.421875 15.125 8.703125 
Q 5.609375 18.84375 5.609375 36.375 
Q 5.609375 53.953125 15.125 64.078125 
Q 24.65625 74.21875 41.21875 74.21875 
Q 47.75 74.21875 53.53125 72.484375 
Q 59.328125 70.75 64.40625 67.28125 
z
" id="DejaVuSans-67"/>
      <path d="M 53.515625 70.515625 
L 53.515625 60.890625 
Q 47.90625 63.578125 42.921875 64.890625 
Q 37.9375 66.21875 33.296875 66.21875 
Q 25.25 66.21875 20.875 63.09375 
Q 16.5 59.96875 16.5 54.203125 
Q 16.5 49.359375 19.40625 46.890625 
Q 22.3125 44.4375 30.421875 42.921875 
L 36.375 41.703125 
Q 47.40625 39.59375 52.65625 34.296875 
Q 57.90625 29 57.90625 20.125 
Q 57.90625 9.515625 50.796875 4.046875 
Q 43.703125 -1.421875 29.984375 -1.421875 
Q 24.8125 -1.421875 18.96875 -0.25 
Q 13.140625 0.921875 6.890625 3.21875 
L 6.890625 13.375 
Q 12.890625 10.015625 18.65625 8.296875 
Q 24.421875 6.59375 29.984375 6.59375 
Q 38.421875 6.59375 43.015625 9.90625 
Q 47.609375 13.234375 47.609375 19.390625 
Q 47.609375 24.75 44.3125 27.78125 
Q 41.015625 30.8125 33.5 32.328125 
L 27.484375 33.5 
Q 16.453125 35.6875 11.515625 40.375 
Q 6.59375 45.0625 6.59375 53.421875 
Q 6.59375 63.09375 13.40625 68.65625 
Q 20.21875 74.21875 32.171875 74.21875 
Q 37.3125 74.21875 42.625 73.28125 
Q 47.953125 72.359375 53.515625 70.515625 
z
" id="DejaVuSans-83"/>
     </defs>
     <g transform="translate(15.558281 106.213906)rotate(-90)scale(0.11 -0.11)">
      <use xlink:href="#DejaVuSans-70"/>
      <use x="48.394531" xlink:href="#DejaVuSans-65"/>
      <use x="115.052734" xlink:href="#DejaVuSans-67"/>
      <use x="184.876953" xlink:href="#DejaVuSans-83"/>
      <use x="248.353516" xlink:href="#DejaVuSans-32"/>
      <use x="280.140625" xlink:href="#DejaVuSans-112"/>
      <use x="343.617188" xlink:href="#DejaVuSans-108"/>
      <use x="371.400391" xlink:href="#DejaVuSans-111"/>
      <use x="432.582031" xlink:href="#DejaVuSans-116"/>
      <use x="471.791016" xlink:href="#DejaVuSans-32"/>
      <use x="503.578125" xlink:href="#DejaVuSans-115"/>
      <use x="555.677734" xlink:href="#DejaVuSans-104"/>
      <use x="619.056641" xlink:href="#DejaVuSans-97"/>
      <use x="680.335938" xlink:href="#DejaVuSans-112"/>
      <use x="743.8125" xlink:href="#DejaVuSans-101"/>
     </g>
    </g>
   </g>
   <g id="PathCollection_1">
    <path clip-path="url(#paa02eb8a72)" d="M 185.185755 54.622758 
C 185.890845 54.622758 186.567152 54.342622 187.065726 53.844048 
C 187.5643 53.345474 187.844436 52.669167 187.844436 51.964077 
C 187.844436 51.258987 187.5643 50.58268 187.065726 50.084106 
C 186.567152 49.585532 185.890845 49.305396 185.185755 49.305396 
C 184.480665 49.305396 183.804358 49.585532 183.305784 50.084106 
C 182.80721 50.58268 182.527074 51.258987 182.527074 51.964077 
C 182.527074 52.669167 182.80721 53.345474 183.305784 53.844048 
C 183.804358 54.342622 184.480665 54.622758 185.185755 54.622758 
z
" style="fill:#56b4e9;fill-opacity:0.25098;stroke:#56b4e9;stroke-opacity:0.25098;stroke-width:0.886227;"/>
    <path clip-path="url(#paa02eb8a72)" d="M 117.484038 79.321396 
C 118.189129 79.321396 118.865435 79.04126 119.364009 78.542686 
C 119.862584 78.044112 120.142719 77.367805 120.142719 76.662715 
C 120.142719 75.957625 119.862584 75.281318 119.364009 74.782744 
C 118.865435 74.28417 118.189129 74.004034 117.484038 74.004034 
C 116.778948 74.004034 116.102641 74.28417 115.604067 74.782744 
C 115.105493 75.281318 114.825357 75.957625 114.825357 76.662715 
C 114.825357 77.367805 115.105493 78.044112 115.604067 78.542686 
C 116.102641 79.04126 116.778948 79.321396 117.484038 79.321396 
z
" style="fill:#56b4e9;fill-opacity:0.25098;stroke:#56b4e9;stroke-opacity:0.25098;stroke-width:0.886227;"/>
    <path clip-path="url(#paa02eb8a72)" d="M 140.361793 79.86953 
C 141.066883 79.86953 141.74319 79.589395 142.241764 79.090821 
C 142.740338 78.592247 143.020474 77.91594 143.020474 77.21085 
C 143.020474 76.505759 142.740338 75.829453 142.241764 75.330878 
C 141.74319 74.832304 141.066883 74.552169 140.361793 74.552169 
C 139.656702 74.552169 138.980396 74.832304 138.481822 75.330878 
C 137.983247 75.829453 137.703112 76.505759 137.703112 77.21085 
C 137.703112 77.91594 137.983247 78.592247 138.481822 79.090821 
C 138.980396 79.589395 139.656702 79.86953 140.361793 79.86953 
z
" style="fill:#56b4e9;fill-opacity:0.25098;stroke:#56b4e9;stroke-opacity:0.25098;stroke-width:0.886227;"/>
    <path clip-path="url(#paa02eb8a72)" d="M 183.221087 48.484123 
C 183.926177 48.484123 184.602484 48.203988 185.101058 47.705414 
C 185.599632 47.206839 185.879768 46.530533 185.879768 45.825442 
C 185.879768 45.120352 185.599632 44.444045 185.101058 43.945471 
C 184.602484 43.446897 183.926177 43.166762 183.221087 43.166762 
C 182.515996 43.166762 181.83969 43.446897 181.341116 43.945471 
C 180.842541 44.444045 180.562406 45.120352 180.562406 45.825442 
C 180.562406 46.530533 180.842541 47.206839 181.341116 47.705414 
C 181.83969 48.203988 182.515996 48.484123 183.221087 48.484123 
z
" style="fill:#56b4e9;fill-opacity:0.25098;stroke:#56b4e9;stroke-opacity:0.25098;stroke-width:0.886227;"/>
    <path clip-path="url(#paa02eb8a72)" d="M 121.432228 103.462336 
C 122.137319 103.462336 122.813625 103.182201 123.312199 102.683627 
C 123.810774 102.185053 124.090909 101.508746 124.090909 100.803655 
C 124.090909 100.098565 123.810774 99.422258 123.312199 98.923684 
C 122.813625 98.42511 122.137319 98.144975 121.432228 98.144975 
C 120.727138 98.144975 120.050831 98.42511 119.552257 98.923684 
C 119.053683 99.422258 118.773547 100.098565 118.773547 100.803655 
C 118.773547 101.508746 119.053683 102.185053 119.552257 102.683627 
C 120.050831 103.182201 120.727138 103.462336 121.432228 103.462336 
z
" style="fill:#56b4e9;fill-opacity:0.25098;stroke:#56b4e9;stroke-opacity:0.25098;stroke-width:0.886227;"/>
    <path clip-path="url(#paa02eb8a72)" d="M 115.991001 81.935036 
C 116.696091 81.935036 117.372398 81.654901 117.870972 81.156327 
C 118.369546 80.657753 118.649682 79.981446 118.649682 79.276356 
C 118.649682 78.571265 118.369546 77.894959 117.870972 77.396384 
C 117.372398 76.89781 116.696091 76.617675 115.991001 76.617675 
C 115.285911 76.617675 114.609604 76.89781 114.11103 77.396384 
C 113.612456 77.894959 113.33232 78.571265 113.33232 79.276356 
C 113.33232 79.981446 113.612456 80.657753 114.11103 81.156327 
C 114.609604 81.654901 115.285911 81.935036 115.991001 81.935036 
z
" style="fill:#56b4e9;fill-opacity:0.25098;stroke:#56b4e9;stroke-opacity:0.25098;stroke-width:0.886227;"/>
    <path clip-path="url(#paa02eb8a72)" d="M 119.219764 80.525248 
C 119.924855 80.525248 120.601161 80.245113 121.099735 79.746538 
C 121.59831 79.247964 121.878445 78.571658 121.878445 77.866567 
C 121.878445 77.161477 121.59831 76.48517 121.099735 75.986596 
C 120.601161 75.488022 119.924855 75.207886 119.219764 75.207886 
C 118.514674 75.207886 117.838367 75.488022 117.339793 75.986596 
C 116.841219 76.48517 116.561083 77.161477 116.561083 77.866567 
C 116.561083 78.571658 116.841219 79.247964 117.339793 79.746538 
C 117.838367 80.245113 118.514674 80.525248 119.219764 80.525248 
z
" style="fill:#56b4e9;fill-opacity:0.25098;stroke:#56b4e9;stroke-opacity:0.25098;stroke-width:0.886227;"/>
    <path clip-path="url(#paa02eb8a72)" d="M 116.066742 102.323841 
C 116.771832 102.323841 117.448139 102.043706 117.946713 101.545132 
C 118.445287 101.046557 118.725423 100.370251 118.725423 99.66516 
C 118.725423 98.96007 118.445287 98.283763 117.946713 97.785189 
C 117.448139 97.286615 116.771832 97.00648 116.066742 97.00648 
C 115.361651 97.00648 114.685345 97.286615 114.186771 97.785189 
C 113.688196 98.283763 113.408061 98.96007 113.408061 99.66516 
C 113.408061 100.370251 113.688196 101.046557 114.186771 101.545132 
C 114.685345 102.043706 115.361651 102.323841 116.066742 102.323841 
z
" style="fill:#56b4e9;fill-opacity:0.25098;stroke:#56b4e9;stroke-opacity:0.25098;stroke-width:0.886227;"/>
    <path clip-path="url(#paa02eb8a72)" d="M 204.719068 22.617562 
C 205.424159 22.617562 206.100465 22.337427 206.599039 21.838853 
C 207.097614 21.340278 207.377749 20.663972 207.377749 19.958881 
C 207.377749 19.253791 207.097614 18.577484 206.599039 18.07891 
C 206.100465 17.580336 205.424159 17.300201 204.719068 17.300201 
C 204.013978 17.300201 203.337671 17.580336 202.839097 18.07891 
C 202.340523 18.577484 202.060387 19.253791 202.060387 19.958881 
C 202.060387 20.663972 202.340523 21.340278 202.839097 21.838853 
C 203.337671 22.337427 204.013978 22.617562 204.719068 22.617562 
z
" style="fill:#56b4e9;fill-opacity:0.25098;stroke:#56b4e9;stroke-opacity:0.25098;stroke-width:0.886227;"/>
    <path clip-path="url(#paa02eb8a72)" d="M 141.48456 76.648918 
C 142.189651 76.648918 142.865957 76.368783 143.364531 75.870209 
C 143.863106 75.371635 144.143241 74.695328 144.143241 73.990238 
C 144.143241 73.285147 143.863106 72.60884 143.364531 72.110266 
C 142.865957 71.611692 142.189651 71.331557 141.48456 71.331557 
C 140.77947 71.331557 140.103163 71.611692 139.604589 72.110266 
C 139.106015 72.60884 138.825879 73.285147 138.825879 73.990238 
C 138.825879 74.695328 139.106015 75.371635 139.604589 75.870209 
C 140.103163 76.368783 140.77947 76.648918 141.48456 76.648918 
z
" style="fill:#56b4e9;fill-opacity:0.25098;stroke:#56b4e9;stroke-opacity:0.25098;stroke-width:0.886227;"/>
    <path clip-path="url(#paa02eb8a72)" d="M 207.930221 26.916597 
C 208.635312 26.916597 209.311618 26.636462 209.810192 26.137888 
C 210.308767 25.639313 210.588902 24.963007 210.588902 24.257916 
C 210.588902 23.552826 210.308767 22.876519 209.810192 22.377945 
C 209.311618 21.879371 208.635312 21.599236 207.930221 21.599236 
C 207.225131 21.599236 206.548824 21.879371 206.05025 22.377945 
C 205.551676 22.876519 205.27154 23.552826 205.27154 24.257916 
C 205.27154 24.963007 205.551676 25.639313 206.05025 26.137888 
C 206.548824 26.636462 207.225131 26.916597 207.930221 26.916597 
z
" style="fill:#56b4e9;fill-opacity:0.25098;stroke:#56b4e9;stroke-opacity:0.25098;stroke-width:0.886227;"/>
    <path clip-path="url(#paa02eb8a72)" d="M 120.092065 108.202276 
C 120.797155 108.202276 121.473462 107.922141 121.972036 107.423566 
C 122.47061 106.924992 122.750745 106.248686 122.750745 105.543595 
C 122.750745 104.838505 122.47061 104.162198 121.972036 103.663624 
C 121.473462 103.16505 120.797155 102.884914 120.092065 102.884914 
C 119.386974 102.884914 118.710668 103.16505 118.212093 103.663624 
C 117.713519 104.162198 117.433384 104.838505 117.433384 105.543595 
C 117.433384 106.248686 117.713519 106.924992 118.212093 107.423566 
C 118.710668 107.922141 119.386974 108.202276 120.092065 108.202276 
z
" style="fill:#56b4e9;fill-opacity:0.25098;stroke:#56b4e9;stroke-opacity:0.25098;stroke-width:0.886227;"/>
    <path clip-path="url(#paa02eb8a72)" d="M 117.673941 81.824966 
C 118.379032 81.824966 119.055339 81.544831 119.553913 81.046257 
C 120.052487 80.547683 120.332622 79.871376 120.332622 79.166286 
C 120.332622 78.461195 120.052487 77.784889 119.553913 77.286314 
C 119.055339 76.78774 118.379032 76.507605 117.673941 76.507605 
C 116.968851 76.507605 116.292544 76.78774 115.79397 77.286314 
C 115.295396 77.784889 115.015261 78.461195 115.015261 79.166286 
C 115.015261 79.871376 115.295396 80.547683 115.79397 81.046257 
C 116.292544 81.544831 116.968851 81.824966 117.673941 81.824966 
z
" style="fill:#56b4e9;fill-opacity:0.25098;stroke:#56b4e9;stroke-opacity:0.25098;stroke-width:0.886227;"/>
    <path clip-path="url(#paa02eb8a72)" d="M 180.783567 53.456597 
C 181.488657 53.456597 182.164964 53.176461 182.663538 52.677887 
C 183.162112 52.179313 183.442247 51.503006 183.442247 50.797916 
C 183.442247 50.092825 183.162112 49.416519 182.663538 48.917945 
C 182.164964 48.41937 181.488657 48.139235 180.783567 48.139235 
C 180.078476 48.139235 179.40217 48.41937 178.903595 48.917945 
C 178.405021 49.416519 178.124886 50.092825 178.124886 50.797916 
C 178.124886 51.503006 178.405021 52.179313 178.903595 52.677887 
C 179.40217 53.176461 180.078476 53.456597 180.783567 53.456597 
z
" style="fill:#56b4e9;fill-opacity:0.25098;stroke:#56b4e9;stroke-opacity:0.25098;stroke-width:0.886227;"/>
    <path clip-path="url(#paa02eb8a72)" d="M 186.448059 49.263675 
C 187.15315 49.263675 187.829456 48.983539 188.328031 48.484965 
C 188.826605 47.986391 189.10674 47.310084 189.10674 46.604994 
C 189.10674 45.899903 188.826605 45.223597 188.328031 44.725023 
C 187.829456 44.226448 187.15315 43.946313 186.448059 43.946313 
C 185.742969 43.946313 185.066662 44.226448 184.568088 44.725023 
C 184.069514 45.223597 183.789379 45.899903 183.789379 46.604994 
C 183.789379 47.310084 184.069514 47.986391 184.568088 48.484965 
C 185.066662 48.983539 185.742969 49.263675 186.448059 49.263675 
z
" style="fill:#56b4e9;fill-opacity:0.25098;stroke:#56b4e9;stroke-opacity:0.25098;stroke-width:0.886227;"/>
    <path clip-path="url(#paa02eb8a72)" d="M 119.204677 103.548285 
C 119.909767 103.548285 120.586074 103.26815 121.084648 102.769576 
C 121.583222 102.271002 121.863358 101.594695 121.863358 100.889605 
C 121.863358 100.184514 121.583222 99.508208 121.084648 99.009633 
C 120.586074 98.511059 119.909767 98.230924 119.204677 98.230924 
C 118.499586 98.230924 117.82328 98.511059 117.324706 99.009633 
C 116.826131 99.508208 116.545996 100.184514 116.545996 100.889605 
C 116.545996 101.594695 116.826131 102.271002 117.324706 102.769576 
C 117.82328 103.26815 118.499586 103.548285 119.204677 103.548285 
z
" style="fill:#56b4e9;fill-opacity:0.25098;stroke:#56b4e9;stroke-opacity:0.25098;stroke-width:0.886227;"/>
    <path clip-path="url(#paa02eb8a72)" d="M 118.430245 78.872391 
C 119.135335 78.872391 119.811642 78.592256 120.310216 78.093682 
C 120.80879 77.595108 121.088925 76.918801 121.088925 76.213711 
C 121.088925 75.50862 120.80879 74.832314 120.310216 74.333739 
C 119.811642 73.835165 119.135335 73.55503 118.430245 73.55503 
C 117.725154 73.55503 117.048848 73.835165 116.550273 74.333739 
C 116.051699 74.832314 115.771564 75.50862 115.771564 76.213711 
C 115.771564 76.918801 116.051699 77.595108 116.550273 78.093682 
C 117.048848 78.592256 117.725154 78.872391 118.430245 78.872391 
z
" style="fill:#56b4e9;fill-opacity:0.25098;stroke:#56b4e9;stroke-opacity:0.25098;stroke-width:0.886227;"/>
    <path clip-path="url(#paa02eb8a72)" d="M 120.673183 78.944409 
C 121.378273 78.944409 122.05458 78.664273 122.553154 78.165699 
C 123.051728 77.667125 123.331864 76.990818 123.331864 76.285728 
C 123.331864 75.580638 123.051728 74.904331 122.553154 74.405757 
C 122.05458 73.907183 121.378273 73.627047 120.673183 73.627047 
C 119.968092 73.627047 119.291786 73.907183 118.793212 74.405757 
C 118.294637 74.904331 118.014502 75.580638 118.014502 76.285728 
C 118.014502 76.990818 118.294637 77.667125 118.793212 78.165699 
C 119.291786 78.664273 119.968092 78.944409 120.673183 78.944409 
z
" style="fill:#56b4e9;fill-opacity:0.25098;stroke:#56b4e9;stroke-opacity:0.25098;stroke-width:0.886227;"/>
    <path clip-path="url(#paa02eb8a72)" d="M 116.804951 74.864144 
C 117.510041 74.864144 118.186348 74.584008 118.684922 74.085434 
C 119.183496 73.58686 119.463632 72.910553 119.463632 72.205463 
C 119.463632 71.500373 119.183496 70.824066 118.684922 70.325492 
C 118.186348 69.826918 117.510041 69.546782 116.804951 69.546782 
C 116.099861 69.546782 115.423554 69.826918 114.92498 70.325492 
C 114.426406 70.824066 114.14627 71.500373 114.14627 72.205463 
C 114.14627 72.910553 114.426406 73.58686 114.92498 74.085434 
C 115.423554 74.584008 116.099861 74.864144 116.804951 74.864144 
z
" style="fill:#56b4e9;fill-opacity:0.25098;stroke:#56b4e9;stroke-opacity:0.25098;stroke-width:0.886227;"/>
    <path clip-path="url(#paa02eb8a72)" d="M 207.688122 21.80244 
C 208.393212 21.80244 209.069519 21.522305 209.568093 21.023731 
C 210.066667 20.525156 210.346802 19.84885 210.346802 19.143759 
C 210.346802 18.438669 210.066667 17.762362 209.568093 17.263788 
C 209.069519 16.765214 208.393212 16.485079 207.688122 16.485079 
C 206.983031 16.485079 206.306725 16.765214 205.80815 17.263788 
C 205.309576 17.762362 205.029441 18.438669 205.029441 19.143759 
C 205.029441 19.84885 205.309576 20.525156 205.80815 21.023731 
C 206.306725 21.522305 206.983031 21.80244 207.688122 21.80244 
z
" style="fill:#56b4e9;fill-opacity:0.25098;stroke:#56b4e9;stroke-opacity:0.25098;stroke-width:0.886227;"/>
    <path clip-path="url(#paa02eb8a72)" d="M 202.993772 25.454293 
C 203.698863 25.454293 204.375169 25.174158 204.873744 24.675584 
C 205.372318 24.17701 205.652453 23.500703 205.652453 22.795613 
C 205.652453 22.090522 205.372318 21.414216 204.873744 20.915641 
C 204.375169 20.417067 203.698863 20.136932 202.993772 20.136932 
C 202.288682 20.136932 201.612375 20.417067 201.113801 20.915641 
C 200.615227 21.414216 200.335092 22.090522 200.335092 22.795613 
C 200.335092 23.500703 200.615227 24.17701 201.113801 24.675584 
C 201.612375 25.174158 202.288682 25.454293 202.993772 25.454293 
z
" style="fill:#56b4e9;fill-opacity:0.25098;stroke:#56b4e9;stroke-opacity:0.25098;stroke-width:0.886227;"/>
    <path clip-path="url(#paa02eb8a72)" d="M 161.606609 77.666759 
C 162.311699 77.666759 162.988006 77.386624 163.48658 76.88805 
C 163.985154 76.389475 164.265289 75.713169 164.265289 75.008078 
C 164.265289 74.302988 163.985154 73.626681 163.48658 73.128107 
C 162.988006 72.629533 162.311699 72.349398 161.606609 72.349398 
C 160.901518 72.349398 160.225212 72.629533 159.726637 73.128107 
C 159.228063 73.626681 158.947928 74.302988 158.947928 75.008078 
C 158.947928 75.713169 159.228063 76.389475 159.726637 76.88805 
C 160.225212 77.386624 160.901518 77.666759 161.606609 77.666759 
z
" style="fill:#56b4e9;fill-opacity:0.25098;stroke:#56b4e9;stroke-opacity:0.25098;stroke-width:0.886227;"/>
    <path clip-path="url(#paa02eb8a72)" d="M 180.917248 54.535381 
C 181.622338 54.535381 182.298645 54.255246 182.797219 53.756671 
C 183.295793 53.258097 183.575929 52.581791 183.575929 51.8767 
C 183.575929 51.17161 183.295793 50.495303 182.797219 49.996729 
C 182.298645 49.498155 181.622338 49.218019 180.917248 49.218019 
C 180.212158 49.218019 179.535851 49.498155 179.037277 49.996729 
C 178.538703 50.495303 178.258567 51.17161 178.258567 51.8767 
C 178.258567 52.581791 178.538703 53.258097 179.037277 53.756671 
C 179.535851 54.255246 180.212158 54.535381 180.917248 54.535381 
z
" style="fill:#56b4e9;fill-opacity:0.25098;stroke:#56b4e9;stroke-opacity:0.25098;stroke-width:0.886227;"/>
    <path clip-path="url(#paa02eb8a72)" d="M 183.530277 55.767473 
C 184.235367 55.767473 184.911674 55.487338 185.410248 54.988763 
C 185.908822 54.490189 186.188958 53.813883 186.188958 53.108792 
C 186.188958 52.403702 185.908822 51.727395 185.410248 51.228821 
C 184.911674 50.730247 184.235367 50.450111 183.530277 50.450111 
C 182.825186 50.450111 182.14888 50.730247 181.650306 51.228821 
C 181.151731 51.727395 180.871596 52.403702 180.871596 53.108792 
C 180.871596 53.813883 181.151731 54.490189 181.650306 54.988763 
C 182.14888 55.487338 182.825186 55.767473 183.530277 55.767473 
z
" style="fill:#56b4e9;fill-opacity:0.25098;stroke:#56b4e9;stroke-opacity:0.25098;stroke-width:0.886227;"/>
    <path clip-path="url(#paa02eb8a72)" d="M 159.217784 51.341174 
C 159.922874 51.341174 160.599181 51.061039 161.097755 50.562465 
C 161.596329 50.063891 161.876464 49.387584 161.876464 48.682494 
C 161.876464 47.977403 161.596329 47.301097 161.097755 46.802522 
C 160.599181 46.303948 159.922874 46.023813 159.217784 46.023813 
C 158.512693 46.023813 157.836387 46.303948 157.337812 46.802522 
C 156.839238 47.301097 156.559103 47.977403 156.559103 48.682494 
C 156.559103 49.387584 156.839238 50.063891 157.337812 50.562465 
C 157.836387 51.061039 158.512693 51.341174 159.217784 51.341174 
z
" style="fill:#56b4e9;fill-opacity:0.25098;stroke:#56b4e9;stroke-opacity:0.25098;stroke-width:0.886227;"/>
    <path clip-path="url(#paa02eb8a72)" d="M 160.724516 82.147198 
C 161.429607 82.147198 162.105913 81.867063 162.604488 81.368488 
C 163.103062 80.869914 163.383197 80.193608 163.383197 79.488517 
C 163.383197 78.783427 163.103062 78.10712 162.604488 77.608546 
C 162.105913 77.109972 161.429607 76.829836 160.724516 76.829836 
C 160.019426 76.829836 159.343119 77.109972 158.844545 77.608546 
C 158.345971 78.10712 158.065836 78.783427 158.065836 79.488517 
C 158.065836 80.193608 158.345971 80.869914 158.844545 81.368488 
C 159.343119 81.867063 160.019426 82.147198 160.724516 82.147198 
z
" style="fill:#56b4e9;fill-opacity:0.25098;stroke:#56b4e9;stroke-opacity:0.25098;stroke-width:0.886227;"/>
    <path clip-path="url(#paa02eb8a72)" d="M 162.141069 74.682706 
C 162.846159 74.682706 163.522466 74.402571 164.02104 73.903997 
C 164.519614 73.405423 164.799749 72.729116 164.799749 72.024026 
C 164.799749 71.318935 164.519614 70.642629 164.02104 70.144054 
C 163.522466 69.64548 162.846159 69.365345 162.141069 69.365345 
C 161.435978 69.365345 160.759672 69.64548 160.261097 70.144054 
C 159.762523 70.642629 159.482388 71.318935 159.482388 72.024026 
C 159.482388 72.729116 159.762523 73.405423 160.261097 73.903997 
C 160.759672 74.402571 161.435978 74.682706 162.141069 74.682706 
z
" style="fill:#56b4e9;fill-opacity:0.25098;stroke:#56b4e9;stroke-opacity:0.25098;stroke-width:0.886227;"/>
    <path clip-path="url(#paa02eb8a72)" d="M 117.701894 105.623834 
C 118.406985 105.623834 119.083291 105.343698 119.581865 104.845124 
C 120.08044 104.34655 120.360575 103.670243 120.360575 102.965153 
C 120.360575 102.260062 120.08044 101.583756 119.581865 101.085182 
C 119.083291 100.586607 118.406985 100.306472 117.701894 100.306472 
C 116.996804 100.306472 116.320497 100.586607 115.821923 101.085182 
C 115.323349 101.583756 115.043213 102.260062 115.043213 102.965153 
C 115.043213 103.670243 115.323349 104.34655 115.821923 104.845124 
C 116.320497 105.343698 116.996804 105.623834 117.701894 105.623834 
z
" style="fill:#56b4e9;fill-opacity:0.25098;stroke:#56b4e9;stroke-opacity:0.25098;stroke-width:0.886227;"/>
    <path clip-path="url(#paa02eb8a72)" d="M 117.83632 82.127493 
C 118.54141 82.127493 119.217717 81.847358 119.716291 81.348784 
C 120.214865 80.850209 120.495 80.173903 120.495 79.468812 
C 120.495 78.763722 120.214865 78.087415 119.716291 77.588841 
C 119.217717 77.090267 118.54141 76.810132 117.83632 76.810132 
C 117.131229 76.810132 116.454923 77.090267 115.956348 77.588841 
C 115.457774 78.087415 115.177639 78.763722 115.177639 79.468812 
C 115.177639 80.173903 115.457774 80.850209 115.956348 81.348784 
C 116.454923 81.847358 117.131229 82.127493 117.83632 82.127493 
z
" style="fill:#e69f00;fill-opacity:0.25098;stroke:#e69f00;stroke-opacity:0.25098;stroke-width:0.886227;"/>
    <path clip-path="url(#paa02eb8a72)" d="M 161.387455 54.526662 
C 162.092545 54.526662 162.768852 54.246527 163.267426 53.747953 
C 163.766 53.249378 164.046135 52.573072 164.046135 51.867981 
C 164.046135 51.162891 163.766 50.486584 163.267426 49.98801 
C 162.768852 49.489436 162.092545 49.209301 161.387455 49.209301 
C 160.682364 49.209301 160.006058 49.489436 159.507483 49.98801 
C 159.008909 50.486584 158.728774 51.162891 158.728774 51.867981 
C 158.728774 52.573072 159.008909 53.249378 159.507483 53.747953 
C 160.006058 54.246527 160.682364 54.526662 161.387455 54.526662 
z
" style="fill:#e69f00;fill-opacity:0.25098;stroke:#e69f00;stroke-opacity:0.25098;stroke-width:0.886227;"/>
    <path clip-path="url(#paa02eb8a72)" d="M 203.104553 29.086832 
C 203.809644 29.086832 204.48595 28.806696 204.984524 28.308122 
C 205.483099 27.809548 205.763234 27.133241 205.763234 26.428151 
C 205.763234 25.723061 205.483099 25.046754 204.984524 24.54818 
C 204.48595 24.049606 203.809644 23.76947 203.104553 23.76947 
C 202.399463 23.76947 201.723156 24.049606 201.224582 24.54818 
C 200.726008 25.046754 200.445872 25.723061 200.445872 26.428151 
C 200.445872 27.133241 200.726008 27.809548 201.224582 28.308122 
C 201.723156 28.806696 202.399463 29.086832 203.104553 29.086832 
z
" style="fill:#e69f00;fill-opacity:0.25098;stroke:#e69f00;stroke-opacity:0.25098;stroke-width:0.886227;"/>
    <path clip-path="url(#paa02eb8a72)" d="M 117.24897 77.318003 
C 117.95406 77.318003 118.630367 77.037868 119.128941 76.539294 
C 119.627515 76.040719 119.907651 75.364413 119.907651 74.659322 
C 119.907651 73.954232 119.627515 73.277925 119.128941 72.779351 
C 118.630367 72.280777 117.95406 72.000642 117.24897 72.000642 
C 116.543879 72.000642 115.867573 72.280777 115.368999 72.779351 
C 114.870424 73.277925 114.590289 73.954232 114.590289 74.659322 
C 114.590289 75.364413 114.870424 76.040719 115.368999 76.539294 
C 115.867573 77.037868 116.543879 77.318003 117.24897 77.318003 
z
" style="fill:#e69f00;fill-opacity:0.25098;stroke:#e69f00;stroke-opacity:0.25098;stroke-width:0.886227;"/>
    <path clip-path="url(#paa02eb8a72)" d="M 208.070322 29.330709 
C 208.775412 29.330709 209.451719 29.050573 209.950293 28.551999 
C 210.448867 28.053425 210.729003 27.377118 210.729003 26.672028 
C 210.729003 25.966938 210.448867 25.290631 209.950293 24.792057 
C 209.451719 24.293483 208.775412 24.013347 208.070322 24.013347 
C 207.365232 24.013347 206.688925 24.293483 206.190351 24.792057 
C 205.691777 25.290631 205.411641 25.966938 205.411641 26.672028 
C 205.411641 27.377118 205.691777 28.053425 206.190351 28.551999 
C 206.688925 29.050573 207.365232 29.330709 208.070322 29.330709 
z
" style="fill:#e69f00;fill-opacity:0.25098;stroke:#e69f00;stroke-opacity:0.25098;stroke-width:0.886227;"/>
    <path clip-path="url(#paa02eb8a72)" d="M 119.232641 82.090509 
C 119.937731 82.090509 120.614038 81.810374 121.112612 81.311799 
C 121.611186 80.813225 121.891321 80.136919 121.891321 79.431828 
C 121.891321 78.726738 121.611186 78.050431 121.112612 77.551857 
C 120.614038 77.053283 119.937731 76.773147 119.232641 76.773147 
C 118.52755 76.773147 117.851244 77.053283 117.352669 77.551857 
C 116.854095 78.050431 116.57396 78.726738 116.57396 79.431828 
C 116.57396 80.136919 116.854095 80.813225 117.352669 81.311799 
C 117.851244 81.810374 118.52755 82.090509 119.232641 82.090509 
z
" style="fill:#e69f00;fill-opacity:0.25098;stroke:#e69f00;stroke-opacity:0.25098;stroke-width:0.886227;"/>
    <path clip-path="url(#paa02eb8a72)" d="M 120.737989 78.58881 
C 121.443079 78.58881 122.119386 78.308675 122.61796 77.810101 
C 123.116534 77.311527 123.396669 76.63522 123.396669 75.93013 
C 123.396669 75.225039 123.116534 74.548733 122.61796 74.050158 
C 122.119386 73.551584 121.443079 73.271449 120.737989 73.271449 
C 120.032898 73.271449 119.356592 73.551584 118.858017 74.050158 
C 118.359443 74.548733 118.079308 75.225039 118.079308 75.93013 
C 118.079308 76.63522 118.359443 77.311527 118.858017 77.810101 
C 119.356592 78.308675 120.032898 78.58881 120.737989 78.58881 
z
" style="fill:#e69f00;fill-opacity:0.25098;stroke:#e69f00;stroke-opacity:0.25098;stroke-width:0.886227;"/>
    <path clip-path="url(#paa02eb8a72)" d="M 118.584588 80.863271 
C 119.289678 80.863271 119.965985 80.583135 120.464559 80.084561 
C 120.963133 79.585987 121.243269 78.90968 121.243269 78.20459 
C 121.243269 77.4995 120.963133 76.823193 120.464559 76.324619 
C 119.965985 75.826045 119.289678 75.545909 118.584588 75.545909 
C 117.879497 75.545909 117.203191 75.826045 116.704617 76.324619 
C 116.206042 76.823193 115.925907 77.4995 115.925907 78.20459 
C 115.925907 78.90968 116.206042 79.585987 116.704617 80.084561 
C 117.203191 80.583135 117.879497 80.863271 118.584588 80.863271 
z
" style="fill:#e69f00;fill-opacity:0.25098;stroke:#e69f00;stroke-opacity:0.25098;stroke-width:0.886227;"/>
    <path clip-path="url(#paa02eb8a72)" d="M 118.012161 76.598534 
C 118.717251 76.598534 119.393558 76.318399 119.892132 75.819825 
C 120.390706 75.321251 120.670841 74.644944 120.670841 73.939854 
C 120.670841 73.234763 120.390706 72.558457 119.892132 72.059883 
C 119.393558 71.561308 118.717251 71.281173 118.012161 71.281173 
C 117.30707 71.281173 116.630764 71.561308 116.132189 72.059883 
C 115.633615 72.558457 115.35348 73.234763 115.35348 73.939854 
C 115.35348 74.644944 115.633615 75.321251 116.132189 75.819825 
C 116.630764 76.318399 117.30707 76.598534 118.012161 76.598534 
z
" style="fill:#e69f00;fill-opacity:0.25098;stroke:#e69f00;stroke-opacity:0.25098;stroke-width:0.886227;"/>
    <path clip-path="url(#paa02eb8a72)" d="M 120.543193 76.556918 
C 121.248284 76.556918 121.92459 76.276783 122.423165 75.778209 
C 122.921739 75.279635 123.201874 74.603328 123.201874 73.898238 
C 123.201874 73.193147 122.921739 72.516841 122.423165 72.018266 
C 121.92459 71.519692 121.248284 71.239557 120.543193 71.239557 
C 119.838103 71.239557 119.161796 71.519692 118.663222 72.018266 
C 118.164648 72.516841 117.884513 73.193147 117.884513 73.898238 
C 117.884513 74.603328 118.164648 75.279635 118.663222 75.778209 
C 119.161796 76.276783 119.838103 76.556918 120.543193 76.556918 
z
" style="fill:#e69f00;fill-opacity:0.25098;stroke:#e69f00;stroke-opacity:0.25098;stroke-width:0.886227;"/>
    <path clip-path="url(#paa02eb8a72)" d="M 119.142949 79.740598 
C 119.848039 79.740598 120.524346 79.460463 121.02292 78.961889 
C 121.521494 78.463314 121.80163 77.787008 121.80163 77.081917 
C 121.80163 76.376827 121.521494 75.70052 121.02292 75.201946 
C 120.524346 74.703372 119.848039 74.423237 119.142949 74.423237 
C 118.437859 74.423237 117.761552 74.703372 117.262978 75.201946 
C 116.764404 75.70052 116.484268 76.376827 116.484268 77.081917 
C 116.484268 77.787008 116.764404 78.463314 117.262978 78.961889 
C 117.761552 79.460463 118.437859 79.740598 119.142949 79.740598 
z
" style="fill:#e69f00;fill-opacity:0.25098;stroke:#e69f00;stroke-opacity:0.25098;stroke-width:0.886227;"/>
    <path clip-path="url(#paa02eb8a72)" d="M 119.706368 80.019115 
C 120.411458 80.019115 121.087765 79.73898 121.586339 79.240406 
C 122.084913 78.741831 122.365049 78.065525 122.365049 77.360434 
C 122.365049 76.655344 122.084913 75.979037 121.586339 75.480463 
C 121.087765 74.981889 120.411458 74.701754 119.706368 74.701754 
C 119.001277 74.701754 118.324971 74.981889 117.826397 75.480463 
C 117.327822 75.979037 117.047687 76.655344 117.047687 77.360434 
C 117.047687 78.065525 117.327822 78.741831 117.826397 79.240406 
C 118.324971 79.73898 119.001277 80.019115 119.706368 80.019115 
z
" style="fill:#e69f00;fill-opacity:0.25098;stroke:#e69f00;stroke-opacity:0.25098;stroke-width:0.886227;"/>
    <path clip-path="url(#paa02eb8a72)" d="M 165.011096 50.461579 
C 165.716186 50.461579 166.392493 50.181444 166.891067 49.682869 
C 167.389641 49.184295 167.669776 48.507989 167.669776 47.802898 
C 167.669776 47.097808 167.389641 46.421501 166.891067 45.922927 
C 166.392493 45.424353 165.716186 45.144218 165.011096 45.144218 
C 164.306005 45.144218 163.629698 45.424353 163.131124 45.922927 
C 162.63255 46.421501 162.352415 47.097808 162.352415 47.802898 
C 162.352415 48.507989 162.63255 49.184295 163.131124 49.682869 
C 163.629698 50.181444 164.306005 50.461579 165.011096 50.461579 
z
" style="fill:#e69f00;fill-opacity:0.25098;stroke:#e69f00;stroke-opacity:0.25098;stroke-width:0.886227;"/>
    <path clip-path="url(#paa02eb8a72)" d="M 161.662933 48.535745 
C 162.368023 48.535745 163.04433 48.25561 163.542904 47.757035 
C 164.041478 47.258461 164.321614 46.582155 164.321614 45.877064 
C 164.321614 45.171974 164.041478 44.495667 163.542904 43.997093 
C 163.04433 43.498519 162.368023 43.218383 161.662933 43.218383 
C 160.957842 43.218383 160.281536 43.498519 159.782962 43.997093 
C 159.284387 44.495667 159.004252 45.171974 159.004252 45.877064 
C 159.004252 46.582155 159.284387 47.258461 159.782962 47.757035 
C 160.281536 48.25561 160.957842 48.535745 161.662933 48.535745 
z
" style="fill:#e69f00;fill-opacity:0.25098;stroke:#e69f00;stroke-opacity:0.25098;stroke-width:0.886227;"/>
    <path clip-path="url(#paa02eb8a72)" d="M 207.923513 25.243993 
C 208.628604 25.243993 209.30491 24.963857 209.803484 24.465283 
C 210.302059 23.966709 210.582194 23.290402 210.582194 22.585312 
C 210.582194 21.880222 210.302059 21.203915 209.803484 20.705341 
C 209.30491 20.206766 208.628604 19.926631 207.923513 19.926631 
C 207.218423 19.926631 206.542116 20.206766 206.043542 20.705341 
C 205.544968 21.203915 205.264832 21.880222 205.264832 22.585312 
C 205.264832 23.290402 205.544968 23.966709 206.043542 24.465283 
C 206.542116 24.963857 207.218423 25.243993 207.923513 25.243993 
z
" style="fill:#e69f00;fill-opacity:0.25098;stroke:#e69f00;stroke-opacity:0.25098;stroke-width:0.886227;"/>
    <path clip-path="url(#paa02eb8a72)" d="M 207.523905 24.037995 
C 208.228996 24.037995 208.905302 23.75786 209.403877 23.259286 
C 209.902451 22.760712 210.182586 22.084405 210.182586 21.379315 
C 210.182586 20.674224 209.902451 19.997918 209.403877 19.499343 
C 208.905302 19.000769 208.228996 18.720634 207.523905 18.720634 
C 206.818815 18.720634 206.142508 19.000769 205.643934 19.499343 
C 205.14536 19.997918 204.865225 20.674224 204.865225 21.379315 
C 204.865225 22.084405 205.14536 22.760712 205.643934 23.259286 
C 206.142508 23.75786 206.818815 24.037995 207.523905 24.037995 
z
" style="fill:#e69f00;fill-opacity:0.25098;stroke:#e69f00;stroke-opacity:0.25098;stroke-width:0.886227;"/>
    <path clip-path="url(#paa02eb8a72)" d="M 202.569456 24.524753 
C 203.274546 24.524753 203.950853 24.244618 204.449427 23.746044 
C 204.948001 23.247469 205.228136 22.571163 205.228136 21.866072 
C 205.228136 21.160982 204.948001 20.484675 204.449427 19.986101 
C 203.950853 19.487527 203.274546 19.207392 202.569456 19.207392 
C 201.864365 19.207392 201.188059 19.487527 200.689484 19.986101 
C 200.19091 20.484675 199.910775 21.160982 199.910775 21.866072 
C 199.910775 22.571163 200.19091 23.247469 200.689484 23.746044 
C 201.188059 24.244618 201.864365 24.524753 202.569456 24.524753 
z
" style="fill:#e69f00;fill-opacity:0.25098;stroke:#e69f00;stroke-opacity:0.25098;stroke-width:0.886227;"/>
    <path clip-path="url(#paa02eb8a72)" d="M 204.031539 27.396822 
C 204.736629 27.396822 205.412936 27.116686 205.91151 26.618112 
C 206.410084 26.119538 206.69022 25.443231 206.69022 24.738141 
C 206.69022 24.03305 206.410084 23.356744 205.91151 22.85817 
C 205.412936 22.359595 204.736629 22.07946 204.031539 22.07946 
C 203.326448 22.07946 202.650142 22.359595 202.151568 22.85817 
C 201.652993 23.356744 201.372858 24.03305 201.372858 24.738141 
C 201.372858 25.443231 201.652993 26.119538 202.151568 26.618112 
C 202.650142 27.116686 203.326448 27.396822 204.031539 27.396822 
z
" style="fill:#e69f00;fill-opacity:0.25098;stroke:#e69f00;stroke-opacity:0.25098;stroke-width:0.886227;"/>
    <path clip-path="url(#paa02eb8a72)" d="M 203.978503 22.000758 
C 204.683593 22.000758 205.3599 21.720622 205.858474 21.222048 
C 206.357048 20.723474 206.637183 20.047167 206.637183 19.342077 
C 206.637183 18.636987 206.357048 17.96068 205.858474 17.462106 
C 205.3599 16.963532 204.683593 16.683396 203.978503 16.683396 
C 203.273412 16.683396 202.597106 16.963532 202.098531 17.462106 
C 201.599957 17.96068 201.319822 18.636987 201.319822 19.342077 
C 201.319822 20.047167 201.599957 20.723474 202.098531 21.222048 
C 202.597106 21.720622 203.273412 22.000758 203.978503 22.000758 
z
" style="fill:#e69f00;fill-opacity:0.25098;stroke:#e69f00;stroke-opacity:0.25098;stroke-width:0.886227;"/>
    <path clip-path="url(#paa02eb8a72)" d="M 116.043883 79.869951 
C 116.748974 79.869951 117.42528 79.589815 117.923854 79.091241 
C 118.422429 78.592667 118.702564 77.91636 118.702564 77.21127 
C 118.702564 76.50618 118.422429 75.829873 117.923854 75.331299 
C 117.42528 74.832725 116.748974 74.552589 116.043883 74.552589 
C 115.338793 74.552589 114.662486 74.832725 114.163912 75.331299 
C 113.665338 75.829873 113.385202 76.50618 113.385202 77.21127 
C 113.385202 77.91636 113.665338 78.592667 114.163912 79.091241 
C 114.662486 79.589815 115.338793 79.869951 116.043883 79.869951 
z
" style="fill:#e69f00;fill-opacity:0.25098;stroke:#e69f00;stroke-opacity:0.25098;stroke-width:0.886227;"/>
    <path clip-path="url(#paa02eb8a72)" d="M 204.534443 26.213942 
C 205.239534 26.213942 205.91584 25.933807 206.414415 25.435233 
C 206.912989 24.936659 207.193124 24.260352 207.193124 23.555262 
C 207.193124 22.850171 206.912989 22.173864 206.414415 21.67529 
C 205.91584 21.176716 205.239534 20.896581 204.534443 20.896581 
C 203.829353 20.896581 203.153046 21.176716 202.654472 21.67529 
C 202.155898 22.173864 201.875763 22.850171 201.875763 23.555262 
C 201.875763 24.260352 202.155898 24.936659 202.654472 25.435233 
C 203.153046 25.933807 203.829353 26.213942 204.534443 26.213942 
z
" style="fill:#e69f00;fill-opacity:0.25098;stroke:#e69f00;stroke-opacity:0.25098;stroke-width:0.886227;"/>
    <path clip-path="url(#paa02eb8a72)" d="M 119.710662 82.382805 
C 120.415753 82.382805 121.092059 82.10267 121.590633 81.604096 
C 122.089208 81.105521 122.369343 80.429215 122.369343 79.724124 
C 122.369343 79.019034 122.089208 78.342727 121.590633 77.844153 
C 121.092059 77.345579 120.415753 77.065444 119.710662 77.065444 
C 119.005572 77.065444 118.329265 77.345579 117.830691 77.844153 
C 117.332117 78.342727 117.051981 79.019034 117.051981 79.724124 
C 117.051981 80.429215 117.332117 81.105521 117.830691 81.604096 
C 118.329265 82.10267 119.005572 82.382805 119.710662 82.382805 
z
" style="fill:#e69f00;fill-opacity:0.25098;stroke:#e69f00;stroke-opacity:0.25098;stroke-width:0.886227;"/>
   </g>
   <g id="patch_3">
    <path d="M 106.195188 118.08 
L 106.195188 7.2 
" style="fill:none;stroke:#000000;stroke-linecap:square;stroke-linejoin:miter;"/>
   </g>
   <g id="patch_4">
    <path d="M 106.195188 118.08 
L 217.795187 118.08 
" style="fill:none;stroke:#000000;stroke-linecap:square;stroke-linejoin:miter;"/>
   </g>
  </g>
 </g>
 <defs>
  <clipPath id="paa02eb8a72">
   <rect height="110.88" width="111.6" x="106.195188" y="7.2"/>
  </clipPath>
 </defs>
</svg>
