<?xml version="1.0" encoding="utf-8" standalone="no"?>
<!DOCTYPE svg PUBLIC "-//W3C//DTD SVG 1.1//EN"
  "http://www.w3.org/Graphics/SVG/1.1/DTD/svg11.dtd">
<!-- Created with matplotlib (https://matplotlib.org/) -->
<svg height="203.802813pt" version="1.1" viewBox="0 0 282.952812 203.802813" width="282.952812pt" xmlns="http://www.w3.org/2000/svg" xmlns:xlink="http://www.w3.org/1999/xlink">
 <defs>
  <style type="text/css">
*{stroke-linecap:butt;stroke-linejoin:round;}
  </style>
 </defs>
 <g id="figure_1">
  <g id="patch_1">
   <path d="M 0 203.802813 
L 282.952812 203.802813 
L 282.952812 0 
L 0 0 
z
" style="fill:#ffffff;stroke:#ffffff;stroke-linejoin:miter;"/>
  </g>
  <g id="axes_1">
   <g id="patch_2">
    <path d="M 164.152813 118.08 
L 275.752813 118.08 
L 275.752813 7.2 
L 164.152813 7.2 
z
" style="fill:#ffffff;"/>
   </g>
   <g id="matplotlib.axis_1">
    <g id="xtick_1">
     <g id="line2d_1">
      <path d="M 177.029736 118.08 
" style="fill:none;stroke:#333333;stroke-width:1.5;"/>
      <defs>
       <path d="M 0 0 
L 0 2.75 
" id="maf5d281ed3" style="stroke:#333333;"/>
      </defs>
      <g>
       <use style="fill:#333333;stroke:#333333;" x="177.029736" xlink:href="#maf5d281ed3" y="118.08"/>
      </g>
     </g>
     <g id="text_1">
      <!-- low -->
      <defs>
       <path d="M 9.421875 75.984375 
L 18.40625 75.984375 
L 18.40625 0 
L 9.421875 0 
z
" id="DejaVuSans-108"/>
       <path d="M 30.609375 48.390625 
Q 23.390625 48.390625 19.1875 42.75 
Q 14.984375 37.109375 14.984375 27.296875 
Q 14.984375 17.484375 19.15625 11.84375 
Q 23.34375 6.203125 30.609375 6.203125 
Q 37.796875 6.203125 41.984375 11.859375 
Q 46.1875 17.53125 46.1875 27.296875 
Q 46.1875 37.015625 41.984375 42.703125 
Q 37.796875 48.390625 30.609375 48.390625 
z
M 30.609375 56 
Q 42.328125 56 49.015625 48.375 
Q 55.71875 40.765625 55.71875 27.296875 
Q 55.71875 13.875 49.015625 6.21875 
Q 42.328125 -1.421875 30.609375 -1.421875 
Q 18.84375 -1.421875 12.171875 6.21875 
Q 5.515625 13.875 5.515625 27.296875 
Q 5.515625 40.765625 12.171875 48.375 
Q 18.84375 56 30.609375 56 
z
" id="DejaVuSans-111"/>
       <path d="M 4.203125 54.6875 
L 13.1875 54.6875 
L 24.421875 12.015625 
L 35.59375 54.6875 
L 46.1875 54.6875 
L 57.421875 12.015625 
L 68.609375 54.6875 
L 77.59375 54.6875 
L 63.28125 0 
L 52.6875 0 
L 40.921875 44.828125 
L 29.109375 0 
L 18.5 0 
z
" id="DejaVuSans-119"/>
      </defs>
      <g style="fill:#4d4d4d;" transform="translate(179.457986 138.056)rotate(-90)scale(0.088 -0.088)">
       <use xlink:href="#DejaVuSans-108"/>
       <use x="27.783203" xlink:href="#DejaVuSans-111"/>
       <use x="88.964844" xlink:href="#DejaVuSans-119"/>
      </g>
     </g>
    </g>
    <g id="xtick_2">
     <g id="line2d_2">
      <path d="M 198.491274 118.08 
" style="fill:none;stroke:#333333;stroke-width:1.5;"/>
      <g>
       <use style="fill:#333333;stroke:#333333;" x="198.491274" xlink:href="#maf5d281ed3" y="118.08"/>
      </g>
     </g>
     <g id="text_2">
      <!-- low-medium -->
      <defs>
       <path d="M 4.890625 31.390625 
L 31.203125 31.390625 
L 31.203125 23.390625 
L 4.890625 23.390625 
z
" id="DejaVuSans-45"/>
       <path d="M 52 44.1875 
Q 55.375 50.25 60.0625 53.125 
Q 64.75 56 71.09375 56 
Q 79.640625 56 84.28125 50.015625 
Q 88.921875 44.046875 88.921875 33.015625 
L 88.921875 0 
L 79.890625 0 
L 79.890625 32.71875 
Q 79.890625 40.578125 77.09375 44.375 
Q 74.3125 48.1875 68.609375 48.1875 
Q 61.625 48.1875 57.5625 43.546875 
Q 53.515625 38.921875 53.515625 30.90625 
L 53.515625 0 
L 44.484375 0 
L 44.484375 32.71875 
Q 44.484375 40.625 41.703125 44.40625 
Q 38.921875 48.1875 33.109375 48.1875 
Q 26.21875 48.1875 22.15625 43.53125 
Q 18.109375 38.875 18.109375 30.90625 
L 18.109375 0 
L 9.078125 0 
L 9.078125 54.6875 
L 18.109375 54.6875 
L 18.109375 46.1875 
Q 21.1875 51.21875 25.484375 53.609375 
Q 29.78125 56 35.6875 56 
Q 41.65625 56 45.828125 52.96875 
Q 50 49.953125 52 44.1875 
z
" id="DejaVuSans-109"/>
       <path d="M 56.203125 29.59375 
L 56.203125 25.203125 
L 14.890625 25.203125 
Q 15.484375 15.921875 20.484375 11.0625 
Q 25.484375 6.203125 34.421875 6.203125 
Q 39.59375 6.203125 44.453125 7.46875 
Q 49.3125 8.734375 54.109375 11.28125 
L 54.109375 2.78125 
Q 49.265625 0.734375 44.1875 -0.34375 
Q 39.109375 -1.421875 33.890625 -1.421875 
Q 20.796875 -1.421875 13.15625 6.1875 
Q 5.515625 13.8125 5.515625 26.8125 
Q 5.515625 40.234375 12.765625 48.109375 
Q 20.015625 56 32.328125 56 
Q 43.359375 56 49.78125 48.890625 
Q 56.203125 41.796875 56.203125 29.59375 
z
M 47.21875 32.234375 
Q 47.125 39.59375 43.09375 43.984375 
Q 39.0625 48.390625 32.421875 48.390625 
Q 24.90625 48.390625 20.390625 44.140625 
Q 15.875 39.890625 15.1875 32.171875 
z
" id="DejaVuSans-101"/>
       <path d="M 45.40625 46.390625 
L 45.40625 75.984375 
L 54.390625 75.984375 
L 54.390625 0 
L 45.40625 0 
L 45.40625 8.203125 
Q 42.578125 3.328125 38.25 0.953125 
Q 33.9375 -1.421875 27.875 -1.421875 
Q 17.96875 -1.421875 11.734375 6.484375 
Q 5.515625 14.40625 5.515625 27.296875 
Q 5.515625 40.1875 11.734375 48.09375 
Q 17.96875 56 27.875 56 
Q 33.9375 56 38.25 53.625 
Q 42.578125 51.265625 45.40625 46.390625 
z
M 14.796875 27.296875 
Q 14.796875 17.390625 18.875 11.75 
Q 22.953125 6.109375 30.078125 6.109375 
Q 37.203125 6.109375 41.296875 11.75 
Q 45.40625 17.390625 45.40625 27.296875 
Q 45.40625 37.203125 41.296875 42.84375 
Q 37.203125 48.484375 30.078125 48.484375 
Q 22.953125 48.484375 18.875 42.84375 
Q 14.796875 37.203125 14.796875 27.296875 
z
" id="DejaVuSans-100"/>
       <path d="M 9.421875 54.6875 
L 18.40625 54.6875 
L 18.40625 0 
L 9.421875 0 
z
M 9.421875 75.984375 
L 18.40625 75.984375 
L 18.40625 64.59375 
L 9.421875 64.59375 
z
" id="DejaVuSans-105"/>
       <path d="M 8.5 21.578125 
L 8.5 54.6875 
L 17.484375 54.6875 
L 17.484375 21.921875 
Q 17.484375 14.15625 20.5 10.265625 
Q 23.53125 6.390625 29.59375 6.390625 
Q 36.859375 6.390625 41.078125 11.03125 
Q 45.3125 15.671875 45.3125 23.6875 
L 45.3125 54.6875 
L 54.296875 54.6875 
L 54.296875 0 
L 45.3125 0 
L 45.3125 8.40625 
Q 42.046875 3.421875 37.71875 1 
Q 33.40625 -1.421875 27.6875 -1.421875 
Q 18.265625 -1.421875 13.375 4.4375 
Q 8.5 10.296875 8.5 21.578125 
z
M 31.109375 56 
z
" id="DejaVuSans-117"/>
      </defs>
      <g style="fill:#4d4d4d;" transform="translate(200.919524 177.3975)rotate(-90)scale(0.088 -0.088)">
       <use xlink:href="#DejaVuSans-108"/>
       <use x="27.783203" xlink:href="#DejaVuSans-111"/>
       <use x="88.964844" xlink:href="#DejaVuSans-119"/>
       <use x="170.751953" xlink:href="#DejaVuSans-45"/>
       <use x="206.835938" xlink:href="#DejaVuSans-109"/>
       <use x="304.248047" xlink:href="#DejaVuSans-101"/>
       <use x="365.771484" xlink:href="#DejaVuSans-100"/>
       <use x="429.248047" xlink:href="#DejaVuSans-105"/>
       <use x="457.03125" xlink:href="#DejaVuSans-117"/>
       <use x="520.410156" xlink:href="#DejaVuSans-109"/>
      </g>
     </g>
    </g>
    <g id="xtick_3">
     <g id="line2d_3">
      <path d="M 219.952813 118.08 
" style="fill:none;stroke:#333333;stroke-width:1.5;"/>
      <g>
       <use style="fill:#333333;stroke:#333333;" x="219.952813" xlink:href="#maf5d281ed3" y="118.08"/>
      </g>
     </g>
     <g id="text_3">
      <!-- medium -->
      <g style="fill:#4d4d4d;" transform="translate(222.381063 159.196625)rotate(-90)scale(0.088 -0.088)">
       <use xlink:href="#DejaVuSans-109"/>
       <use x="97.412109" xlink:href="#DejaVuSans-101"/>
       <use x="158.935547" xlink:href="#DejaVuSans-100"/>
       <use x="222.412109" xlink:href="#DejaVuSans-105"/>
       <use x="250.195312" xlink:href="#DejaVuSans-117"/>
       <use x="313.574219" xlink:href="#DejaVuSans-109"/>
      </g>
     </g>
    </g>
    <g id="xtick_4">
     <g id="line2d_4">
      <path d="M 241.414351 118.08 
" style="fill:none;stroke:#333333;stroke-width:1.5;"/>
      <g>
       <use style="fill:#333333;stroke:#333333;" x="241.414351" xlink:href="#maf5d281ed3" y="118.08"/>
      </g>
     </g>
     <g id="text_4">
      <!-- medium-high -->
      <defs>
       <path d="M 54.890625 33.015625 
L 54.890625 0 
L 45.90625 0 
L 45.90625 32.71875 
Q 45.90625 40.484375 42.875 44.328125 
Q 39.84375 48.1875 33.796875 48.1875 
Q 26.515625 48.1875 22.3125 43.546875 
Q 18.109375 38.921875 18.109375 30.90625 
L 18.109375 0 
L 9.078125 0 
L 9.078125 75.984375 
L 18.109375 75.984375 
L 18.109375 46.1875 
Q 21.34375 51.125 25.703125 53.5625 
Q 30.078125 56 35.796875 56 
Q 45.21875 56 50.046875 50.171875 
Q 54.890625 44.34375 54.890625 33.015625 
z
" id="DejaVuSans-104"/>
       <path d="M 45.40625 27.984375 
Q 45.40625 37.75 41.375 43.109375 
Q 37.359375 48.484375 30.078125 48.484375 
Q 22.859375 48.484375 18.828125 43.109375 
Q 14.796875 37.75 14.796875 27.984375 
Q 14.796875 18.265625 18.828125 12.890625 
Q 22.859375 7.515625 30.078125 7.515625 
Q 37.359375 7.515625 41.375 12.890625 
Q 45.40625 18.265625 45.40625 27.984375 
z
M 54.390625 6.78125 
Q 54.390625 -7.171875 48.1875 -13.984375 
Q 42 -20.796875 29.203125 -20.796875 
Q 24.46875 -20.796875 20.265625 -20.09375 
Q 16.0625 -19.390625 12.109375 -17.921875 
L 12.109375 -9.1875 
Q 16.0625 -11.328125 19.921875 -12.34375 
Q 23.78125 -13.375 27.78125 -13.375 
Q 36.625 -13.375 41.015625 -8.765625 
Q 45.40625 -4.15625 45.40625 5.171875 
L 45.40625 9.625 
Q 42.625 4.78125 38.28125 2.390625 
Q 33.9375 0 27.875 0 
Q 17.828125 0 11.671875 7.65625 
Q 5.515625 15.328125 5.515625 27.984375 
Q 5.515625 40.671875 11.671875 48.328125 
Q 17.828125 56 27.875 56 
Q 33.9375 56 38.28125 53.609375 
Q 42.625 51.21875 45.40625 46.390625 
L 45.40625 54.6875 
L 54.390625 54.6875 
z
" id="DejaVuSans-103"/>
      </defs>
      <g style="fill:#4d4d4d;" transform="translate(243.842601 181.556875)rotate(-90)scale(0.088 -0.088)">
       <use xlink:href="#DejaVuSans-109"/>
       <use x="97.412109" xlink:href="#DejaVuSans-101"/>
       <use x="158.935547" xlink:href="#DejaVuSans-100"/>
       <use x="222.412109" xlink:href="#DejaVuSans-105"/>
       <use x="250.195312" xlink:href="#DejaVuSans-117"/>
       <use x="313.574219" xlink:href="#DejaVuSans-109"/>
       <use x="410.986328" xlink:href="#DejaVuSans-45"/>
       <use x="447.070312" xlink:href="#DejaVuSans-104"/>
       <use x="510.449219" xlink:href="#DejaVuSans-105"/>
       <use x="538.232422" xlink:href="#DejaVuSans-103"/>
       <use x="601.708984" xlink:href="#DejaVuSans-104"/>
      </g>
     </g>
    </g>
    <g id="xtick_5">
     <g id="line2d_5">
      <path d="M 262.875889 118.08 
" style="fill:none;stroke:#333333;stroke-width:1.5;"/>
      <g>
       <use style="fill:#333333;stroke:#333333;" x="262.875889" xlink:href="#maf5d281ed3" y="118.08"/>
      </g>
     </g>
     <g id="text_5">
      <!-- high -->
      <g style="fill:#4d4d4d;" transform="translate(265.304139 142.215375)rotate(-90)scale(0.088 -0.088)">
       <use xlink:href="#DejaVuSans-104"/>
       <use x="63.378906" xlink:href="#DejaVuSans-105"/>
       <use x="91.162109" xlink:href="#DejaVuSans-103"/>
       <use x="154.638672" xlink:href="#DejaVuSans-104"/>
      </g>
     </g>
    </g>
    <g id="text_6">
     <!-- staining background -->
     <defs>
      <path d="M 44.28125 53.078125 
L 44.28125 44.578125 
Q 40.484375 46.53125 36.375 47.5 
Q 32.28125 48.484375 27.875 48.484375 
Q 21.1875 48.484375 17.84375 46.4375 
Q 14.5 44.390625 14.5 40.28125 
Q 14.5 37.15625 16.890625 35.375 
Q 19.28125 33.59375 26.515625 31.984375 
L 29.59375 31.296875 
Q 39.15625 29.25 43.1875 25.515625 
Q 47.21875 21.78125 47.21875 15.09375 
Q 47.21875 7.46875 41.1875 3.015625 
Q 35.15625 -1.421875 24.609375 -1.421875 
Q 20.21875 -1.421875 15.453125 -0.5625 
Q 10.6875 0.296875 5.421875 2 
L 5.421875 11.28125 
Q 10.40625 8.6875 15.234375 7.390625 
Q 20.0625 6.109375 24.8125 6.109375 
Q 31.15625 6.109375 34.5625 8.28125 
Q 37.984375 10.453125 37.984375 14.40625 
Q 37.984375 18.0625 35.515625 20.015625 
Q 33.0625 21.96875 24.703125 23.78125 
L 21.578125 24.515625 
Q 13.234375 26.265625 9.515625 29.90625 
Q 5.8125 33.546875 5.8125 39.890625 
Q 5.8125 47.609375 11.28125 51.796875 
Q 16.75 56 26.8125 56 
Q 31.78125 56 36.171875 55.265625 
Q 40.578125 54.546875 44.28125 53.078125 
z
" id="DejaVuSans-115"/>
      <path d="M 18.3125 70.21875 
L 18.3125 54.6875 
L 36.8125 54.6875 
L 36.8125 47.703125 
L 18.3125 47.703125 
L 18.3125 18.015625 
Q 18.3125 11.328125 20.140625 9.421875 
Q 21.96875 7.515625 27.59375 7.515625 
L 36.8125 7.515625 
L 36.8125 0 
L 27.59375 0 
Q 17.1875 0 13.234375 3.875 
Q 9.28125 7.765625 9.28125 18.015625 
L 9.28125 47.703125 
L 2.6875 47.703125 
L 2.6875 54.6875 
L 9.28125 54.6875 
L 9.28125 70.21875 
z
" id="DejaVuSans-116"/>
      <path d="M 34.28125 27.484375 
Q 23.390625 27.484375 19.1875 25 
Q 14.984375 22.515625 14.984375 16.5 
Q 14.984375 11.71875 18.140625 8.90625 
Q 21.296875 6.109375 26.703125 6.109375 
Q 34.1875 6.109375 38.703125 11.40625 
Q 43.21875 16.703125 43.21875 25.484375 
L 43.21875 27.484375 
z
M 52.203125 31.203125 
L 52.203125 0 
L 43.21875 0 
L 43.21875 8.296875 
Q 40.140625 3.328125 35.546875 0.953125 
Q 30.953125 -1.421875 24.3125 -1.421875 
Q 15.921875 -1.421875 10.953125 3.296875 
Q 6 8.015625 6 15.921875 
Q 6 25.140625 12.171875 29.828125 
Q 18.359375 34.515625 30.609375 34.515625 
L 43.21875 34.515625 
L 43.21875 35.40625 
Q 43.21875 41.609375 39.140625 45 
Q 35.0625 48.390625 27.6875 48.390625 
Q 23 48.390625 18.546875 47.265625 
Q 14.109375 46.140625 10.015625 43.890625 
L 10.015625 52.203125 
Q 14.9375 54.109375 19.578125 55.046875 
Q 24.21875 56 28.609375 56 
Q 40.484375 56 46.34375 49.84375 
Q 52.203125 43.703125 52.203125 31.203125 
z
" id="DejaVuSans-97"/>
      <path d="M 54.890625 33.015625 
L 54.890625 0 
L 45.90625 0 
L 45.90625 32.71875 
Q 45.90625 40.484375 42.875 44.328125 
Q 39.84375 48.1875 33.796875 48.1875 
Q 26.515625 48.1875 22.3125 43.546875 
Q 18.109375 38.921875 18.109375 30.90625 
L 18.109375 0 
L 9.078125 0 
L 9.078125 54.6875 
L 18.109375 54.6875 
L 18.109375 46.1875 
Q 21.34375 51.125 25.703125 53.5625 
Q 30.078125 56 35.796875 56 
Q 45.21875 56 50.046875 50.171875 
Q 54.890625 44.34375 54.890625 33.015625 
z
" id="DejaVuSans-110"/>
      <path id="DejaVuSans-32"/>
      <path d="M 48.6875 27.296875 
Q 48.6875 37.203125 44.609375 42.84375 
Q 40.53125 48.484375 33.40625 48.484375 
Q 26.265625 48.484375 22.1875 42.84375 
Q 18.109375 37.203125 18.109375 27.296875 
Q 18.109375 17.390625 22.1875 11.75 
Q 26.265625 6.109375 33.40625 6.109375 
Q 40.53125 6.109375 44.609375 11.75 
Q 48.6875 17.390625 48.6875 27.296875 
z
M 18.109375 46.390625 
Q 20.953125 51.265625 25.265625 53.625 
Q 29.59375 56 35.59375 56 
Q 45.5625 56 51.78125 48.09375 
Q 58.015625 40.1875 58.015625 27.296875 
Q 58.015625 14.40625 51.78125 6.484375 
Q 45.5625 -1.421875 35.59375 -1.421875 
Q 29.59375 -1.421875 25.265625 0.953125 
Q 20.953125 3.328125 18.109375 8.203125 
L 18.109375 0 
L 9.078125 0 
L 9.078125 75.984375 
L 18.109375 75.984375 
z
" id="DejaVuSans-98"/>
      <path d="M 48.78125 52.59375 
L 48.78125 44.1875 
Q 44.96875 46.296875 41.140625 47.34375 
Q 37.3125 48.390625 33.40625 48.390625 
Q 24.65625 48.390625 19.8125 42.84375 
Q 14.984375 37.3125 14.984375 27.296875 
Q 14.984375 17.28125 19.8125 11.734375 
Q 24.65625 6.203125 33.40625 6.203125 
Q 37.3125 6.203125 41.140625 7.25 
Q 44.96875 8.296875 48.78125 10.40625 
L 48.78125 2.09375 
Q 45.015625 0.34375 40.984375 -0.53125 
Q 36.96875 -1.421875 32.421875 -1.421875 
Q 20.0625 -1.421875 12.78125 6.34375 
Q 5.515625 14.109375 5.515625 27.296875 
Q 5.515625 40.671875 12.859375 48.328125 
Q 20.21875 56 33.015625 56 
Q 37.15625 56 41.109375 55.140625 
Q 45.0625 54.296875 48.78125 52.59375 
z
" id="DejaVuSans-99"/>
      <path d="M 9.078125 75.984375 
L 18.109375 75.984375 
L 18.109375 31.109375 
L 44.921875 54.6875 
L 56.390625 54.6875 
L 27.390625 29.109375 
L 57.625 0 
L 45.90625 0 
L 18.109375 26.703125 
L 18.109375 0 
L 9.078125 0 
z
" id="DejaVuSans-107"/>
      <path d="M 41.109375 46.296875 
Q 39.59375 47.171875 37.8125 47.578125 
Q 36.03125 48 33.890625 48 
Q 26.265625 48 22.1875 43.046875 
Q 18.109375 38.09375 18.109375 28.8125 
L 18.109375 0 
L 9.078125 0 
L 9.078125 54.6875 
L 18.109375 54.6875 
L 18.109375 46.1875 
Q 20.953125 51.171875 25.484375 53.578125 
Q 30.03125 56 36.53125 56 
Q 37.453125 56 38.578125 55.875 
Q 39.703125 55.765625 41.0625 55.515625 
z
" id="DejaVuSans-114"/>
     </defs>
     <g transform="translate(161.966016 194.315156)scale(0.11 -0.11)">
      <use xlink:href="#DejaVuSans-115"/>
      <use x="52.099609" xlink:href="#DejaVuSans-116"/>
      <use x="91.308594" xlink:href="#DejaVuSans-97"/>
      <use x="152.587891" xlink:href="#DejaVuSans-105"/>
      <use x="180.371094" xlink:href="#DejaVuSans-110"/>
      <use x="243.75" xlink:href="#DejaVuSans-105"/>
      <use x="271.533203" xlink:href="#DejaVuSans-110"/>
      <use x="334.912109" xlink:href="#DejaVuSans-103"/>
      <use x="398.388672" xlink:href="#DejaVuSans-32"/>
      <use x="430.175781" xlink:href="#DejaVuSans-98"/>
      <use x="493.652344" xlink:href="#DejaVuSans-97"/>
      <use x="554.931641" xlink:href="#DejaVuSans-99"/>
      <use x="609.912109" xlink:href="#DejaVuSans-107"/>
      <use x="667.822266" xlink:href="#DejaVuSans-103"/>
      <use x="731.298828" xlink:href="#DejaVuSans-114"/>
      <use x="770.162109" xlink:href="#DejaVuSans-111"/>
      <use x="831.34375" xlink:href="#DejaVuSans-117"/>
      <use x="894.722656" xlink:href="#DejaVuSans-110"/>
      <use x="958.101562" xlink:href="#DejaVuSans-100"/>
     </g>
    </g>
   </g>
   <g id="matplotlib.axis_2">
    <g id="ytick_1">
     <g id="line2d_6">
      <path d="M 164.152813 109.966829 
" style="fill:none;stroke:#333333;stroke-width:1.5;"/>
      <defs>
       <path d="M 0 0 
L -2.75 0 
" id="mb2e2a8a203" style="stroke:#333333;"/>
      </defs>
      <g>
       <use style="fill:#333333;stroke:#333333;" x="164.152813" xlink:href="#mb2e2a8a203" y="109.966829"/>
      </g>
     </g>
     <g id="text_7">
      <!-- 456-484 -->
      <defs>
       <path d="M 37.796875 64.3125 
L 12.890625 25.390625 
L 37.796875 25.390625 
z
M 35.203125 72.90625 
L 47.609375 72.90625 
L 47.609375 25.390625 
L 58.015625 25.390625 
L 58.015625 17.1875 
L 47.609375 17.1875 
L 47.609375 0 
L 37.796875 0 
L 37.796875 17.1875 
L 4.890625 17.1875 
L 4.890625 26.703125 
z
" id="DejaVuSans-52"/>
       <path d="M 10.796875 72.90625 
L 49.515625 72.90625 
L 49.515625 64.59375 
L 19.828125 64.59375 
L 19.828125 46.734375 
Q 21.96875 47.46875 24.109375 47.828125 
Q 26.265625 48.1875 28.421875 48.1875 
Q 40.625 48.1875 47.75 41.5 
Q 54.890625 34.8125 54.890625 23.390625 
Q 54.890625 11.625 47.5625 5.09375 
Q 40.234375 -1.421875 26.90625 -1.421875 
Q 22.3125 -1.421875 17.546875 -0.640625 
Q 12.796875 0.140625 7.71875 1.703125 
L 7.71875 11.625 
Q 12.109375 9.234375 16.796875 8.0625 
Q 21.484375 6.890625 26.703125 6.890625 
Q 35.15625 6.890625 40.078125 11.328125 
Q 45.015625 15.765625 45.015625 23.390625 
Q 45.015625 31 40.078125 35.4375 
Q 35.15625 39.890625 26.703125 39.890625 
Q 22.75 39.890625 18.8125 39.015625 
Q 14.890625 38.140625 10.796875 36.28125 
z
" id="DejaVuSans-53"/>
       <path d="M 33.015625 40.375 
Q 26.375 40.375 22.484375 35.828125 
Q 18.609375 31.296875 18.609375 23.390625 
Q 18.609375 15.53125 22.484375 10.953125 
Q 26.375 6.390625 33.015625 6.390625 
Q 39.65625 6.390625 43.53125 10.953125 
Q 47.40625 15.53125 47.40625 23.390625 
Q 47.40625 31.296875 43.53125 35.828125 
Q 39.65625 40.375 33.015625 40.375 
z
M 52.59375 71.296875 
L 52.59375 62.3125 
Q 48.875 64.0625 45.09375 64.984375 
Q 41.3125 65.921875 37.59375 65.921875 
Q 27.828125 65.921875 22.671875 59.328125 
Q 17.53125 52.734375 16.796875 39.40625 
Q 19.671875 43.65625 24.015625 45.921875 
Q 28.375 48.1875 33.59375 48.1875 
Q 44.578125 48.1875 50.953125 41.515625 
Q 57.328125 34.859375 57.328125 23.390625 
Q 57.328125 12.15625 50.6875 5.359375 
Q 44.046875 -1.421875 33.015625 -1.421875 
Q 20.359375 -1.421875 13.671875 8.265625 
Q 6.984375 17.96875 6.984375 36.375 
Q 6.984375 53.65625 15.1875 63.9375 
Q 23.390625 74.21875 37.203125 74.21875 
Q 40.921875 74.21875 44.703125 73.484375 
Q 48.484375 72.75 52.59375 71.296875 
z
" id="DejaVuSans-54"/>
       <path d="M 31.78125 34.625 
Q 24.75 34.625 20.71875 30.859375 
Q 16.703125 27.09375 16.703125 20.515625 
Q 16.703125 13.921875 20.71875 10.15625 
Q 24.75 6.390625 31.78125 6.390625 
Q 38.8125 6.390625 42.859375 10.171875 
Q 46.921875 13.96875 46.921875 20.515625 
Q 46.921875 27.09375 42.890625 30.859375 
Q 38.875 34.625 31.78125 34.625 
z
M 21.921875 38.8125 
Q 15.578125 40.375 12.03125 44.71875 
Q 8.5 49.078125 8.5 55.328125 
Q 8.5 64.0625 14.71875 69.140625 
Q 20.953125 74.21875 31.78125 74.21875 
Q 42.671875 74.21875 48.875 69.140625 
Q 55.078125 64.0625 55.078125 55.328125 
Q 55.078125 49.078125 51.53125 44.71875 
Q 48 40.375 41.703125 38.8125 
Q 48.828125 37.15625 52.796875 32.3125 
Q 56.78125 27.484375 56.78125 20.515625 
Q 56.78125 9.90625 50.3125 4.234375 
Q 43.84375 -1.421875 31.78125 -1.421875 
Q 19.734375 -1.421875 13.25 4.234375 
Q 6.78125 9.90625 6.78125 20.515625 
Q 6.78125 27.484375 10.78125 32.3125 
Q 14.796875 37.15625 21.921875 38.8125 
z
M 18.3125 54.390625 
Q 18.3125 48.734375 21.84375 45.5625 
Q 25.390625 42.390625 31.78125 42.390625 
Q 38.140625 42.390625 41.71875 45.5625 
Q 45.3125 48.734375 45.3125 54.390625 
Q 45.3125 60.0625 41.71875 63.234375 
Q 38.140625 66.40625 31.78125 66.40625 
Q 25.390625 66.40625 21.84375 63.234375 
Q 18.3125 60.0625 18.3125 54.390625 
z
" id="DejaVuSans-56"/>
      </defs>
      <g style="fill:#4d4d4d;" transform="translate(122.433938 112.395079)scale(0.088 -0.088)">
       <use xlink:href="#DejaVuSans-52"/>
       <use x="63.623047" xlink:href="#DejaVuSans-53"/>
       <use x="127.246094" xlink:href="#DejaVuSans-54"/>
       <use x="190.869141" xlink:href="#DejaVuSans-45"/>
       <use x="226.953125" xlink:href="#DejaVuSans-52"/>
       <use x="290.576172" xlink:href="#DejaVuSans-56"/>
       <use x="354.199219" xlink:href="#DejaVuSans-52"/>
      </g>
     </g>
    </g>
    <g id="ytick_2">
     <g id="line2d_7">
      <path d="M 164.152813 96.444878 
" style="fill:none;stroke:#333333;stroke-width:1.5;"/>
      <g>
       <use style="fill:#333333;stroke:#333333;" x="164.152813" xlink:href="#mb2e2a8a203" y="96.444878"/>
      </g>
     </g>
     <g id="text_8">
      <!-- 456-484 low magnitude -->
      <g style="fill:#4d4d4d;" transform="translate(54.213313 98.873128)scale(0.088 -0.088)">
       <use xlink:href="#DejaVuSans-52"/>
       <use x="63.623047" xlink:href="#DejaVuSans-53"/>
       <use x="127.246094" xlink:href="#DejaVuSans-54"/>
       <use x="190.869141" xlink:href="#DejaVuSans-45"/>
       <use x="226.953125" xlink:href="#DejaVuSans-52"/>
       <use x="290.576172" xlink:href="#DejaVuSans-56"/>
       <use x="354.199219" xlink:href="#DejaVuSans-52"/>
       <use x="417.822266" xlink:href="#DejaVuSans-32"/>
       <use x="449.609375" xlink:href="#DejaVuSans-108"/>
       <use x="477.392578" xlink:href="#DejaVuSans-111"/>
       <use x="538.574219" xlink:href="#DejaVuSans-119"/>
       <use x="620.361328" xlink:href="#DejaVuSans-32"/>
       <use x="652.148438" xlink:href="#DejaVuSans-109"/>
       <use x="749.560547" xlink:href="#DejaVuSans-97"/>
       <use x="810.839844" xlink:href="#DejaVuSans-103"/>
       <use x="874.316406" xlink:href="#DejaVuSans-110"/>
       <use x="937.695312" xlink:href="#DejaVuSans-105"/>
       <use x="965.478516" xlink:href="#DejaVuSans-116"/>
       <use x="1004.6875" xlink:href="#DejaVuSans-117"/>
       <use x="1068.066406" xlink:href="#DejaVuSans-100"/>
       <use x="1131.542969" xlink:href="#DejaVuSans-101"/>
      </g>
     </g>
    </g>
    <g id="ytick_3">
     <g id="line2d_8">
      <path d="M 164.152813 82.922927 
" style="fill:none;stroke:#333333;stroke-width:1.5;"/>
      <g>
       <use style="fill:#333333;stroke:#333333;" x="164.152813" xlink:href="#mb2e2a8a203" y="82.922927"/>
      </g>
     </g>
     <g id="text_9">
      <!-- 456-484 noisy -->
      <defs>
       <path d="M 32.171875 -5.078125 
Q 28.375 -14.84375 24.75 -17.8125 
Q 21.140625 -20.796875 15.09375 -20.796875 
L 7.90625 -20.796875 
L 7.90625 -13.28125 
L 13.1875 -13.28125 
Q 16.890625 -13.28125 18.9375 -11.515625 
Q 21 -9.765625 23.484375 -3.21875 
L 25.09375 0.875 
L 2.984375 54.6875 
L 12.5 54.6875 
L 29.59375 11.921875 
L 46.6875 54.6875 
L 56.203125 54.6875 
z
" id="DejaVuSans-121"/>
      </defs>
      <g style="fill:#4d4d4d;" transform="translate(96.438188 85.351177)scale(0.088 -0.088)">
       <use xlink:href="#DejaVuSans-52"/>
       <use x="63.623047" xlink:href="#DejaVuSans-53"/>
       <use x="127.246094" xlink:href="#DejaVuSans-54"/>
       <use x="190.869141" xlink:href="#DejaVuSans-45"/>
       <use x="226.953125" xlink:href="#DejaVuSans-52"/>
       <use x="290.576172" xlink:href="#DejaVuSans-56"/>
       <use x="354.199219" xlink:href="#DejaVuSans-52"/>
       <use x="417.822266" xlink:href="#DejaVuSans-32"/>
       <use x="449.609375" xlink:href="#DejaVuSans-110"/>
       <use x="512.988281" xlink:href="#DejaVuSans-111"/>
       <use x="574.169922" xlink:href="#DejaVuSans-105"/>
       <use x="601.953125" xlink:href="#DejaVuSans-115"/>
       <use x="654.052734" xlink:href="#DejaVuSans-121"/>
      </g>
     </g>
    </g>
    <g id="ytick_4">
     <g id="line2d_9">
      <path d="M 164.152813 69.400976 
" style="fill:none;stroke:#333333;stroke-width:1.5;"/>
      <g>
       <use style="fill:#333333;stroke:#333333;" x="164.152813" xlink:href="#mb2e2a8a203" y="69.400976"/>
      </g>
     </g>
     <g id="text_10">
      <!-- 456-484 low magnitude - noisy -->
      <g style="fill:#4d4d4d;" transform="translate(22.245937 71.829226)scale(0.088 -0.088)">
       <use xlink:href="#DejaVuSans-52"/>
       <use x="63.623047" xlink:href="#DejaVuSans-53"/>
       <use x="127.246094" xlink:href="#DejaVuSans-54"/>
       <use x="190.869141" xlink:href="#DejaVuSans-45"/>
       <use x="226.953125" xlink:href="#DejaVuSans-52"/>
       <use x="290.576172" xlink:href="#DejaVuSans-56"/>
       <use x="354.199219" xlink:href="#DejaVuSans-52"/>
       <use x="417.822266" xlink:href="#DejaVuSans-32"/>
       <use x="449.609375" xlink:href="#DejaVuSans-108"/>
       <use x="477.392578" xlink:href="#DejaVuSans-111"/>
       <use x="538.574219" xlink:href="#DejaVuSans-119"/>
       <use x="620.361328" xlink:href="#DejaVuSans-32"/>
       <use x="652.148438" xlink:href="#DejaVuSans-109"/>
       <use x="749.560547" xlink:href="#DejaVuSans-97"/>
       <use x="810.839844" xlink:href="#DejaVuSans-103"/>
       <use x="874.316406" xlink:href="#DejaVuSans-110"/>
       <use x="937.695312" xlink:href="#DejaVuSans-105"/>
       <use x="965.478516" xlink:href="#DejaVuSans-116"/>
       <use x="1004.6875" xlink:href="#DejaVuSans-117"/>
       <use x="1068.066406" xlink:href="#DejaVuSans-100"/>
       <use x="1131.542969" xlink:href="#DejaVuSans-101"/>
       <use x="1193.066406" xlink:href="#DejaVuSans-32"/>
       <use x="1224.853516" xlink:href="#DejaVuSans-45"/>
       <use x="1260.9375" xlink:href="#DejaVuSans-32"/>
       <use x="1292.724609" xlink:href="#DejaVuSans-110"/>
       <use x="1356.103516" xlink:href="#DejaVuSans-111"/>
       <use x="1417.285156" xlink:href="#DejaVuSans-105"/>
       <use x="1445.068359" xlink:href="#DejaVuSans-115"/>
       <use x="1497.167969" xlink:href="#DejaVuSans-121"/>
      </g>
     </g>
    </g>
    <g id="ytick_5">
     <g id="line2d_10">
      <path d="M 164.152813 55.879024 
" style="fill:none;stroke:#333333;stroke-width:1.5;"/>
      <g>
       <use style="fill:#333333;stroke:#333333;" x="164.152813" xlink:href="#mb2e2a8a203" y="55.879024"/>
      </g>
     </g>
     <g id="text_11">
      <!-- 443-450 -->
      <defs>
       <path d="M 40.578125 39.3125 
Q 47.65625 37.796875 51.625 33 
Q 55.609375 28.21875 55.609375 21.1875 
Q 55.609375 10.40625 48.1875 4.484375 
Q 40.765625 -1.421875 27.09375 -1.421875 
Q 22.515625 -1.421875 17.65625 -0.515625 
Q 12.796875 0.390625 7.625 2.203125 
L 7.625 11.71875 
Q 11.71875 9.328125 16.59375 8.109375 
Q 21.484375 6.890625 26.8125 6.890625 
Q 36.078125 6.890625 40.9375 10.546875 
Q 45.796875 14.203125 45.796875 21.1875 
Q 45.796875 27.640625 41.28125 31.265625 
Q 36.765625 34.90625 28.71875 34.90625 
L 20.21875 34.90625 
L 20.21875 43.015625 
L 29.109375 43.015625 
Q 36.375 43.015625 40.234375 45.921875 
Q 44.09375 48.828125 44.09375 54.296875 
Q 44.09375 59.90625 40.109375 62.90625 
Q 36.140625 65.921875 28.71875 65.921875 
Q 24.65625 65.921875 20.015625 65.03125 
Q 15.375 64.15625 9.8125 62.3125 
L 9.8125 71.09375 
Q 15.4375 72.65625 20.34375 73.4375 
Q 25.25 74.21875 29.59375 74.21875 
Q 40.828125 74.21875 47.359375 69.109375 
Q 53.90625 64.015625 53.90625 55.328125 
Q 53.90625 49.265625 50.4375 45.09375 
Q 46.96875 40.921875 40.578125 39.3125 
z
" id="DejaVuSans-51"/>
       <path d="M 31.78125 66.40625 
Q 24.171875 66.40625 20.328125 58.90625 
Q 16.5 51.421875 16.5 36.375 
Q 16.5 21.390625 20.328125 13.890625 
Q 24.171875 6.390625 31.78125 6.390625 
Q 39.453125 6.390625 43.28125 13.890625 
Q 47.125 21.390625 47.125 36.375 
Q 47.125 51.421875 43.28125 58.90625 
Q 39.453125 66.40625 31.78125 66.40625 
z
M 31.78125 74.21875 
Q 44.046875 74.21875 50.515625 64.515625 
Q 56.984375 54.828125 56.984375 36.375 
Q 56.984375 17.96875 50.515625 8.265625 
Q 44.046875 -1.421875 31.78125 -1.421875 
Q 19.53125 -1.421875 13.0625 8.265625 
Q 6.59375 17.96875 6.59375 36.375 
Q 6.59375 54.828125 13.0625 64.515625 
Q 19.53125 74.21875 31.78125 74.21875 
z
" id="DejaVuSans-48"/>
      </defs>
      <g style="fill:#4d4d4d;" transform="translate(122.433938 58.307274)scale(0.088 -0.088)">
       <use xlink:href="#DejaVuSans-52"/>
       <use x="63.623047" xlink:href="#DejaVuSans-52"/>
       <use x="127.246094" xlink:href="#DejaVuSans-51"/>
       <use x="190.869141" xlink:href="#DejaVuSans-45"/>
       <use x="226.953125" xlink:href="#DejaVuSans-52"/>
       <use x="290.576172" xlink:href="#DejaVuSans-53"/>
       <use x="354.199219" xlink:href="#DejaVuSans-48"/>
      </g>
     </g>
    </g>
    <g id="ytick_6">
     <g id="line2d_11">
      <path d="M 164.152813 42.357073 
" style="fill:none;stroke:#333333;stroke-width:1.5;"/>
      <g>
       <use style="fill:#333333;stroke:#333333;" x="164.152813" xlink:href="#mb2e2a8a203" y="42.357073"/>
      </g>
     </g>
     <g id="text_12">
      <!-- core -->
      <g style="fill:#4d4d4d;" transform="translate(140.145313 44.785323)scale(0.088 -0.088)">
       <use xlink:href="#DejaVuSans-99"/>
       <use x="54.980469" xlink:href="#DejaVuSans-111"/>
       <use x="116.162109" xlink:href="#DejaVuSans-114"/>
       <use x="155.025391" xlink:href="#DejaVuSans-101"/>
      </g>
     </g>
    </g>
    <g id="ytick_7">
     <g id="line2d_12">
      <path d="M 164.152813 28.835122 
" style="fill:none;stroke:#333333;stroke-width:1.5;"/>
      <g>
       <use style="fill:#333333;stroke:#333333;" x="164.152813" xlink:href="#mb2e2a8a203" y="28.835122"/>
      </g>
     </g>
     <g id="text_13">
      <!-- flat - noisy -->
      <defs>
       <path d="M 37.109375 75.984375 
L 37.109375 68.5 
L 28.515625 68.5 
Q 23.6875 68.5 21.796875 66.546875 
Q 19.921875 64.59375 19.921875 59.515625 
L 19.921875 54.6875 
L 34.71875 54.6875 
L 34.71875 47.703125 
L 19.921875 47.703125 
L 19.921875 0 
L 10.890625 0 
L 10.890625 47.703125 
L 2.296875 47.703125 
L 2.296875 54.6875 
L 10.890625 54.6875 
L 10.890625 58.5 
Q 10.890625 67.625 15.140625 71.796875 
Q 19.390625 75.984375 28.609375 75.984375 
z
" id="DejaVuSans-102"/>
      </defs>
      <g style="fill:#4d4d4d;" transform="translate(112.850188 31.263372)scale(0.088 -0.088)">
       <use xlink:href="#DejaVuSans-102"/>
       <use x="35.205078" xlink:href="#DejaVuSans-108"/>
       <use x="62.988281" xlink:href="#DejaVuSans-97"/>
       <use x="124.267578" xlink:href="#DejaVuSans-116"/>
       <use x="163.476562" xlink:href="#DejaVuSans-32"/>
       <use x="195.263672" xlink:href="#DejaVuSans-45"/>
       <use x="231.347656" xlink:href="#DejaVuSans-32"/>
       <use x="263.134766" xlink:href="#DejaVuSans-110"/>
       <use x="326.513672" xlink:href="#DejaVuSans-111"/>
       <use x="387.695312" xlink:href="#DejaVuSans-105"/>
       <use x="415.478516" xlink:href="#DejaVuSans-115"/>
       <use x="467.578125" xlink:href="#DejaVuSans-121"/>
      </g>
     </g>
    </g>
    <g id="ytick_8">
     <g id="line2d_13">
      <path d="M 164.152813 15.313171 
" style="fill:none;stroke:#333333;stroke-width:1.5;"/>
      <g>
       <use style="fill:#333333;stroke:#333333;" x="164.152813" xlink:href="#mb2e2a8a203" y="15.313171"/>
      </g>
     </g>
     <g id="text_14">
      <!-- flat -->
      <g style="fill:#4d4d4d;" transform="translate(144.817563 17.741421)scale(0.088 -0.088)">
       <use xlink:href="#DejaVuSans-102"/>
       <use x="35.205078" xlink:href="#DejaVuSans-108"/>
       <use x="62.988281" xlink:href="#DejaVuSans-97"/>
       <use x="124.267578" xlink:href="#DejaVuSans-116"/>
      </g>
     </g>
    </g>
    <g id="text_15">
     <!-- escape map -->
     <defs>
      <path d="M 18.109375 8.203125 
L 18.109375 -20.796875 
L 9.078125 -20.796875 
L 9.078125 54.6875 
L 18.109375 54.6875 
L 18.109375 46.390625 
Q 20.953125 51.265625 25.265625 53.625 
Q 29.59375 56 35.59375 56 
Q 45.5625 56 51.78125 48.09375 
Q 58.015625 40.1875 58.015625 27.296875 
Q 58.015625 14.40625 51.78125 6.484375 
Q 45.5625 -1.421875 35.59375 -1.421875 
Q 29.59375 -1.421875 25.265625 0.953125 
Q 20.953125 3.328125 18.109375 8.203125 
z
M 48.6875 27.296875 
Q 48.6875 37.203125 44.609375 42.84375 
Q 40.53125 48.484375 33.40625 48.484375 
Q 26.265625 48.484375 22.1875 42.84375 
Q 18.109375 37.203125 18.109375 27.296875 
Q 18.109375 17.390625 22.1875 11.75 
Q 26.265625 6.109375 33.40625 6.109375 
Q 40.53125 6.109375 44.609375 11.75 
Q 48.6875 17.390625 48.6875 27.296875 
z
" id="DejaVuSans-112"/>
     </defs>
     <g transform="translate(15.558281 95.407266)rotate(-90)scale(0.11 -0.11)">
      <use xlink:href="#DejaVuSans-101"/>
      <use x="61.523438" xlink:href="#DejaVuSans-115"/>
      <use x="113.623047" xlink:href="#DejaVuSans-99"/>
      <use x="168.603516" xlink:href="#DejaVuSans-97"/>
      <use x="229.882812" xlink:href="#DejaVuSans-112"/>
      <use x="293.359375" xlink:href="#DejaVuSans-101"/>
      <use x="354.882812" xlink:href="#DejaVuSans-32"/>
      <use x="386.669922" xlink:href="#DejaVuSans-109"/>
      <use x="484.082031" xlink:href="#DejaVuSans-97"/>
      <use x="545.361328" xlink:href="#DejaVuSans-112"/>
     </g>
    </g>
   </g>
   <g id="PathCollection_1">
    <path clip-path="url(#p278bd0de1d)" d="M 243.771962 111.611586 
C 244.477052 111.611586 245.153359 111.331451 245.651933 110.832877 
C 246.150507 110.334303 246.430642 109.657996 246.430642 108.952906 
C 246.430642 108.247815 246.150507 107.571509 245.651933 107.072934 
C 245.153359 106.57436 244.477052 106.294225 243.771962 106.294225 
C 243.066871 106.294225 242.390565 106.57436 241.89199 107.072934 
C 241.393416 107.571509 241.113281 108.247815 241.113281 108.952906 
C 241.113281 109.657996 241.393416 110.334303 241.89199 110.832877 
C 242.390565 111.331451 243.066871 111.611586 243.771962 111.611586 
z
" style="fill:#56b4e9;fill-opacity:0.25098;stroke:#56b4e9;stroke-opacity:0.25098;stroke-width:0.886227;"/>
    <path clip-path="url(#p278bd0de1d)" d="M 179.411843 17.836033 
C 180.116934 17.836033 180.79324 17.555898 181.291814 17.057323 
C 181.790389 16.558749 182.070524 15.882443 182.070524 15.177352 
C 182.070524 14.472262 181.790389 13.795955 181.291814 13.297381 
C 180.79324 12.798807 180.116934 12.518671 179.411843 12.518671 
C 178.706753 12.518671 178.030446 12.798807 177.531872 13.297381 
C 177.033298 13.795955 176.753162 14.472262 176.753162 15.177352 
C 176.753162 15.882443 177.033298 16.558749 177.531872 17.057323 
C 178.030446 17.555898 178.706753 17.836033 179.411843 17.836033 
z
" style="fill:#56b4e9;fill-opacity:0.25098;stroke:#56b4e9;stroke-opacity:0.25098;stroke-width:0.886227;"/>
    <path clip-path="url(#p278bd0de1d)" d="M 195.416538 97.300038 
C 196.121628 97.300038 196.797935 97.019903 197.296509 96.521329 
C 197.795083 96.022754 198.075219 95.346448 198.075219 94.641357 
C 198.075219 93.936267 197.795083 93.25996 197.296509 92.761386 
C 196.797935 92.262812 196.121628 91.982677 195.416538 91.982677 
C 194.711447 91.982677 194.035141 92.262812 193.536567 92.761386 
C 193.037992 93.25996 192.757857 93.936267 192.757857 94.641357 
C 192.757857 95.346448 193.037992 96.022754 193.536567 96.521329 
C 194.035141 97.019903 194.711447 97.300038 195.416538 97.300038 
z
" style="fill:#56b4e9;fill-opacity:0.25098;stroke:#56b4e9;stroke-opacity:0.25098;stroke-width:0.886227;"/>
    <path clip-path="url(#p278bd0de1d)" d="M 244.631695 46.902261 
C 245.336785 46.902261 246.013092 46.622125 246.511666 46.123551 
C 247.01024 45.624977 247.290376 44.94867 247.290376 44.24358 
C 247.290376 43.53849 247.01024 42.862183 246.511666 42.363609 
C 246.013092 41.865035 245.336785 41.584899 244.631695 41.584899 
C 243.926604 41.584899 243.250298 41.865035 242.751724 42.363609 
C 242.253149 42.862183 241.973014 43.53849 241.973014 44.24358 
C 241.973014 44.94867 242.253149 45.624977 242.751724 46.123551 
C 243.250298 46.622125 243.926604 46.902261 244.631695 46.902261 
z
" style="fill:#56b4e9;fill-opacity:0.25098;stroke:#56b4e9;stroke-opacity:0.25098;stroke-width:0.886227;"/>
    <path clip-path="url(#p278bd0de1d)" d="M 179.677786 19.091194 
C 180.382876 19.091194 181.059183 18.811058 181.557757 18.312484 
C 182.056331 17.81391 182.336467 17.137603 182.336467 16.432513 
C 182.336467 15.727422 182.056331 15.051116 181.557757 14.552542 
C 181.059183 14.053967 180.382876 13.773832 179.677786 13.773832 
C 178.972695 13.773832 178.296389 14.053967 177.797815 14.552542 
C 177.29924 15.051116 177.019105 15.727422 177.019105 16.432513 
C 177.019105 17.137603 177.29924 17.81391 177.797815 18.312484 
C 178.296389 18.811058 178.972695 19.091194 179.677786 19.091194 
z
" style="fill:#56b4e9;fill-opacity:0.25098;stroke:#56b4e9;stroke-opacity:0.25098;stroke-width:0.886227;"/>
    <path clip-path="url(#p278bd0de1d)" d="M 175.376849 18.564838 
C 176.081939 18.564838 176.758246 18.284703 177.25682 17.786129 
C 177.755394 17.287555 178.03553 16.611248 178.03553 15.906158 
C 178.03553 15.201067 177.755394 14.524761 177.25682 14.026186 
C 176.758246 13.527612 176.081939 13.247477 175.376849 13.247477 
C 174.671758 13.247477 173.995452 13.527612 173.496878 14.026186 
C 172.998303 14.524761 172.718168 15.201067 172.718168 15.906158 
C 172.718168 16.611248 172.998303 17.287555 173.496878 17.786129 
C 173.995452 18.284703 174.671758 18.564838 175.376849 18.564838 
z
" style="fill:#56b4e9;fill-opacity:0.25098;stroke:#56b4e9;stroke-opacity:0.25098;stroke-width:0.886227;"/>
    <path clip-path="url(#p278bd0de1d)" d="M 174.178794 98.828844 
C 174.883884 98.828844 175.560191 98.548709 176.058765 98.050134 
C 176.557339 97.55156 176.837475 96.875254 176.837475 96.170163 
C 176.837475 95.465073 176.557339 94.788766 176.058765 94.290192 
C 175.560191 93.791618 174.883884 93.511482 174.178794 93.511482 
C 173.473704 93.511482 172.797397 93.791618 172.298823 94.290192 
C 171.800249 94.788766 171.520113 95.465073 171.520113 96.170163 
C 171.520113 96.875254 171.800249 97.55156 172.298823 98.050134 
C 172.797397 98.548709 173.473704 98.828844 174.178794 98.828844 
z
" style="fill:#56b4e9;fill-opacity:0.25098;stroke:#56b4e9;stroke-opacity:0.25098;stroke-width:0.886227;"/>
    <path clip-path="url(#p278bd0de1d)" d="M 176.072872 112.208775 
C 176.777963 112.208775 177.454269 111.92864 177.952843 111.430065 
C 178.451418 110.931491 178.731553 110.255185 178.731553 109.550094 
C 178.731553 108.845004 178.451418 108.168697 177.952843 107.670123 
C 177.454269 107.171549 176.777963 106.891413 176.072872 106.891413 
C 175.367782 106.891413 174.691475 107.171549 174.192901 107.670123 
C 173.694327 108.168697 173.414191 108.845004 173.414191 109.550094 
C 173.414191 110.255185 173.694327 110.931491 174.192901 111.430065 
C 174.691475 111.92864 175.367782 112.208775 176.072872 112.208775 
z
" style="fill:#56b4e9;fill-opacity:0.25098;stroke:#56b4e9;stroke-opacity:0.25098;stroke-width:0.886227;"/>
    <path clip-path="url(#p278bd0de1d)" d="M 265.966409 71.664321 
C 266.671499 71.664321 267.347806 71.384186 267.84638 70.885611 
C 268.344954 70.387037 268.62509 69.710731 268.62509 69.00564 
C 268.62509 68.30055 268.344954 67.624243 267.84638 67.125669 
C 267.347806 66.627095 266.671499 66.346959 265.966409 66.346959 
C 265.261319 66.346959 264.585012 66.627095 264.086438 67.125669 
C 263.587864 67.624243 263.307728 68.30055 263.307728 69.00564 
C 263.307728 69.710731 263.587864 70.387037 264.086438 70.885611 
C 264.585012 71.384186 265.261319 71.664321 265.966409 71.664321 
z
" style="fill:#56b4e9;fill-opacity:0.25098;stroke:#56b4e9;stroke-opacity:0.25098;stroke-width:0.886227;"/>
    <path clip-path="url(#p278bd0de1d)" d="M 197.979077 18.283974 
C 198.684168 18.283974 199.360475 18.003839 199.859049 17.505265 
C 200.357623 17.006691 200.637758 16.330384 200.637758 15.625294 
C 200.637758 14.920203 200.357623 14.243897 199.859049 13.745322 
C 199.360475 13.246748 198.684168 12.966613 197.979077 12.966613 
C 197.273987 12.966613 196.59768 13.246748 196.099106 13.745322 
C 195.600532 14.243897 195.320397 14.920203 195.320397 15.625294 
C 195.320397 16.330384 195.600532 17.006691 196.099106 17.505265 
C 196.59768 18.003839 197.273987 18.283974 197.979077 18.283974 
z
" style="fill:#56b4e9;fill-opacity:0.25098;stroke:#56b4e9;stroke-opacity:0.25098;stroke-width:0.886227;"/>
    <path clip-path="url(#p278bd0de1d)" d="M 260.062053 45.66917 
C 260.767143 45.66917 261.44345 45.389035 261.942024 44.890461 
C 262.440598 44.391886 262.720734 43.71558 262.720734 43.010489 
C 262.720734 42.305399 262.440598 41.629092 261.942024 41.130518 
C 261.44345 40.631944 260.767143 40.351809 260.062053 40.351809 
C 259.356962 40.351809 258.680656 40.631944 258.182082 41.130518 
C 257.683507 41.629092 257.403372 42.305399 257.403372 43.010489 
C 257.403372 43.71558 257.683507 44.391886 258.182082 44.890461 
C 258.680656 45.389035 259.356962 45.66917 260.062053 45.66917 
z
" style="fill:#56b4e9;fill-opacity:0.25098;stroke:#56b4e9;stroke-opacity:0.25098;stroke-width:0.886227;"/>
    <path clip-path="url(#p278bd0de1d)" d="M 176.928207 16.624757 
C 177.633298 16.624757 178.309604 16.344622 178.808178 15.846048 
C 179.306753 15.347474 179.586888 14.671167 179.586888 13.966077 
C 179.586888 13.260986 179.306753 12.58468 178.808178 12.086105 
C 178.309604 11.587531 177.633298 11.307396 176.928207 11.307396 
C 176.223117 11.307396 175.54681 11.587531 175.048236 12.086105 
C 174.549662 12.58468 174.269526 13.260986 174.269526 13.966077 
C 174.269526 14.671167 174.549662 15.347474 175.048236 15.846048 
C 175.54681 16.344622 176.223117 16.624757 176.928207 16.624757 
z
" style="fill:#56b4e9;fill-opacity:0.25098;stroke:#56b4e9;stroke-opacity:0.25098;stroke-width:0.886227;"/>
    <path clip-path="url(#p278bd0de1d)" d="M 178.064328 18.830386 
C 178.769419 18.830386 179.445725 18.550251 179.944299 18.051677 
C 180.442874 17.553102 180.723009 16.876796 180.723009 16.171705 
C 180.723009 15.466615 180.442874 14.790308 179.944299 14.291734 
C 179.445725 13.79316 178.769419 13.513025 178.064328 13.513025 
C 177.359238 13.513025 176.682931 13.79316 176.184357 14.291734 
C 175.685783 14.790308 175.405647 15.466615 175.405647 16.171705 
C 175.405647 16.876796 175.685783 17.553102 176.184357 18.051677 
C 176.682931 18.550251 177.359238 18.830386 178.064328 18.830386 
z
" style="fill:#56b4e9;fill-opacity:0.25098;stroke:#56b4e9;stroke-opacity:0.25098;stroke-width:0.886227;"/>
    <path clip-path="url(#p278bd0de1d)" d="M 240.989907 111.368008 
C 241.694998 111.368008 242.371304 111.087872 242.869879 110.589298 
C 243.368453 110.090724 243.648588 109.414417 243.648588 108.709327 
C 243.648588 108.004236 243.368453 107.32793 242.869879 106.829356 
C 242.371304 106.330781 241.694998 106.050646 240.989907 106.050646 
C 240.284817 106.050646 239.60851 106.330781 239.109936 106.829356 
C 238.611362 107.32793 238.331227 108.004236 238.331227 108.709327 
C 238.331227 109.414417 238.611362 110.090724 239.109936 110.589298 
C 239.60851 111.087872 240.284817 111.368008 240.989907 111.368008 
z
" style="fill:#56b4e9;fill-opacity:0.25098;stroke:#56b4e9;stroke-opacity:0.25098;stroke-width:0.886227;"/>
    <path clip-path="url(#p278bd0de1d)" d="M 242.810738 112.812823 
C 243.515828 112.812823 244.192135 112.532687 244.690709 112.034113 
C 245.189283 111.535539 245.469419 110.859232 245.469419 110.154142 
C 245.469419 109.449052 245.189283 108.772745 244.690709 108.274171 
C 244.192135 107.775597 243.515828 107.495461 242.810738 107.495461 
C 242.105648 107.495461 241.429341 107.775597 240.930767 108.274171 
C 240.432193 108.772745 240.152057 109.449052 240.152057 110.154142 
C 240.152057 110.859232 240.432193 111.535539 240.930767 112.034113 
C 241.429341 112.532687 242.105648 112.812823 242.810738 112.812823 
z
" style="fill:#56b4e9;fill-opacity:0.25098;stroke:#56b4e9;stroke-opacity:0.25098;stroke-width:0.886227;"/>
    <path clip-path="url(#p278bd0de1d)" d="M 178.982059 17.995875 
C 179.68715 17.995875 180.363456 17.71574 180.862031 17.217166 
C 181.360605 16.718592 181.64074 16.042285 181.64074 15.337195 
C 181.64074 14.632104 181.360605 13.955798 180.862031 13.457223 
C 180.363456 12.958649 179.68715 12.678514 178.982059 12.678514 
C 178.276969 12.678514 177.600662 12.958649 177.102088 13.457223 
C 176.603514 13.955798 176.323379 14.632104 176.323379 15.337195 
C 176.323379 16.042285 176.603514 16.718592 177.102088 17.217166 
C 177.600662 17.71574 178.276969 17.995875 178.982059 17.995875 
z
" style="fill:#56b4e9;fill-opacity:0.25098;stroke:#56b4e9;stroke-opacity:0.25098;stroke-width:0.886227;"/>
    <path clip-path="url(#p278bd0de1d)" d="M 177.065487 19.023498 
C 177.770577 19.023498 178.446884 18.743363 178.945458 18.244789 
C 179.444032 17.746215 179.724167 17.069908 179.724167 16.364818 
C 179.724167 15.659727 179.444032 14.983421 178.945458 14.484846 
C 178.446884 13.986272 177.770577 13.706137 177.065487 13.706137 
C 176.360396 13.706137 175.68409 13.986272 175.185515 14.484846 
C 174.686941 14.983421 174.406806 15.659727 174.406806 16.364818 
C 174.406806 17.069908 174.686941 17.746215 175.185515 18.244789 
C 175.68409 18.743363 176.360396 19.023498 177.065487 19.023498 
z
" style="fill:#56b4e9;fill-opacity:0.25098;stroke:#56b4e9;stroke-opacity:0.25098;stroke-width:0.886227;"/>
    <path clip-path="url(#p278bd0de1d)" d="M 173.827764 18.054299 
C 174.532854 18.054299 175.209161 17.774164 175.707735 17.27559 
C 176.206309 16.777016 176.486444 16.100709 176.486444 15.395619 
C 176.486444 14.690528 176.206309 14.014222 175.707735 13.515647 
C 175.209161 13.017073 174.532854 12.736938 173.827764 12.736938 
C 173.122673 12.736938 172.446367 13.017073 171.947792 13.515647 
C 171.449218 14.014222 171.169083 14.690528 171.169083 15.395619 
C 171.169083 16.100709 171.449218 16.777016 171.947792 17.27559 
C 172.446367 17.774164 173.122673 18.054299 173.827764 18.054299 
z
" style="fill:#56b4e9;fill-opacity:0.25098;stroke:#56b4e9;stroke-opacity:0.25098;stroke-width:0.886227;"/>
    <path clip-path="url(#p278bd0de1d)" d="M 178.348 16.59355 
C 179.053091 16.59355 179.729397 16.313415 180.227972 15.81484 
C 180.726546 15.316266 181.006681 14.63996 181.006681 13.934869 
C 181.006681 13.229779 180.726546 12.553472 180.227972 12.054898 
C 179.729397 11.556324 179.053091 11.276188 178.348 11.276188 
C 177.64291 11.276188 176.966603 11.556324 176.468029 12.054898 
C 175.969455 12.553472 175.68932 13.229779 175.68932 13.934869 
C 175.68932 14.63996 175.969455 15.316266 176.468029 15.81484 
C 176.966603 16.313415 177.64291 16.59355 178.348 16.59355 
z
" style="fill:#56b4e9;fill-opacity:0.25098;stroke:#56b4e9;stroke-opacity:0.25098;stroke-width:0.886227;"/>
    <path clip-path="url(#p278bd0de1d)" d="M 264.688681 29.688112 
C 265.393771 29.688112 266.070078 29.407977 266.568652 28.909403 
C 267.067226 28.410829 267.347361 27.734522 267.347361 27.029432 
C 267.347361 26.324341 267.067226 25.648035 266.568652 25.14946 
C 266.070078 24.650886 265.393771 24.370751 264.688681 24.370751 
C 263.98359 24.370751 263.307284 24.650886 262.808709 25.14946 
C 262.310135 25.648035 262.03 26.324341 262.03 27.029432 
C 262.03 27.734522 262.310135 28.410829 262.808709 28.909403 
C 263.307284 29.407977 263.98359 29.688112 264.688681 29.688112 
z
" style="fill:#56b4e9;fill-opacity:0.25098;stroke:#56b4e9;stroke-opacity:0.25098;stroke-width:0.886227;"/>
    <path clip-path="url(#p278bd0de1d)" d="M 264.277321 32.042012 
C 264.982412 32.042012 265.658718 31.761877 266.157292 31.263303 
C 266.655867 30.764728 266.936002 30.088422 266.936002 29.383331 
C 266.936002 28.678241 266.655867 28.001934 266.157292 27.50336 
C 265.658718 27.004786 264.982412 26.724651 264.277321 26.724651 
C 263.572231 26.724651 262.895924 27.004786 262.39735 27.50336 
C 261.898776 28.001934 261.61864 28.678241 261.61864 29.383331 
C 261.61864 30.088422 261.898776 30.764728 262.39735 31.263303 
C 262.895924 31.761877 263.572231 32.042012 264.277321 32.042012 
z
" style="fill:#56b4e9;fill-opacity:0.25098;stroke:#56b4e9;stroke-opacity:0.25098;stroke-width:0.886227;"/>
    <path clip-path="url(#p278bd0de1d)" d="M 219.060113 19.23465 
C 219.765204 19.23465 220.44151 18.954514 220.940085 18.45594 
C 221.438659 17.957366 221.718794 17.281059 221.718794 16.575969 
C 221.718794 15.870878 221.438659 15.194572 220.940085 14.695998 
C 220.44151 14.197423 219.765204 13.917288 219.060113 13.917288 
C 218.355023 13.917288 217.678716 14.197423 217.180142 14.695998 
C 216.681568 15.194572 216.401433 15.870878 216.401433 16.575969 
C 216.401433 17.281059 216.681568 17.957366 217.180142 18.45594 
C 217.678716 18.954514 218.355023 19.23465 219.060113 19.23465 
z
" style="fill:#56b4e9;fill-opacity:0.25098;stroke:#56b4e9;stroke-opacity:0.25098;stroke-width:0.886227;"/>
    <path clip-path="url(#p278bd0de1d)" d="M 243.133227 46.562011 
C 243.838318 46.562011 244.514624 46.281875 245.013199 45.783301 
C 245.511773 45.284727 245.791908 44.60842 245.791908 43.90333 
C 245.791908 43.198239 245.511773 42.521933 245.013199 42.023359 
C 244.514624 41.524784 243.838318 41.244649 243.133227 41.244649 
C 242.428137 41.244649 241.75183 41.524784 241.253256 42.023359 
C 240.754682 42.521933 240.474547 43.198239 240.474547 43.90333 
C 240.474547 44.60842 240.754682 45.284727 241.253256 45.783301 
C 241.75183 46.281875 242.428137 46.562011 243.133227 46.562011 
z
" style="fill:#56b4e9;fill-opacity:0.25098;stroke:#56b4e9;stroke-opacity:0.25098;stroke-width:0.886227;"/>
    <path clip-path="url(#p278bd0de1d)" d="M 239.902468 70.879551 
C 240.607558 70.879551 241.283865 70.599415 241.782439 70.100841 
C 242.281013 69.602267 242.561149 68.92596 242.561149 68.22087 
C 242.561149 67.51578 242.281013 66.839473 241.782439 66.340899 
C 241.283865 65.842325 240.607558 65.562189 239.902468 65.562189 
C 239.197377 65.562189 238.521071 65.842325 238.022497 66.340899 
C 237.523922 66.839473 237.243787 67.51578 237.243787 68.22087 
C 237.243787 68.92596 237.523922 69.602267 238.022497 70.100841 
C 238.521071 70.599415 239.197377 70.879551 239.902468 70.879551 
z
" style="fill:#56b4e9;fill-opacity:0.25098;stroke:#56b4e9;stroke-opacity:0.25098;stroke-width:0.886227;"/>
    <path clip-path="url(#p278bd0de1d)" d="M 217.199437 19.403039 
C 217.904527 19.403039 218.580834 19.122903 219.079408 18.624329 
C 219.577982 18.125755 219.858117 17.449448 219.858117 16.744358 
C 219.858117 16.039268 219.577982 15.362961 219.079408 14.864387 
C 218.580834 14.365813 217.904527 14.085677 217.199437 14.085677 
C 216.494346 14.085677 215.81804 14.365813 215.319465 14.864387 
C 214.820891 15.362961 214.540756 16.039268 214.540756 16.744358 
C 214.540756 17.449448 214.820891 18.125755 215.319465 18.624329 
C 215.81804 19.122903 216.494346 19.403039 217.199437 19.403039 
z
" style="fill:#56b4e9;fill-opacity:0.25098;stroke:#56b4e9;stroke-opacity:0.25098;stroke-width:0.886227;"/>
    <path clip-path="url(#p278bd0de1d)" d="M 222.856594 97.122737 
C 223.561684 97.122737 224.237991 96.842601 224.736565 96.344027 
C 225.235139 95.845453 225.515274 95.169146 225.515274 94.464056 
C 225.515274 93.758966 225.235139 93.082659 224.736565 92.584085 
C 224.237991 92.085511 223.561684 91.805375 222.856594 91.805375 
C 222.151503 91.805375 221.475197 92.085511 220.976622 92.584085 
C 220.478048 93.082659 220.197913 93.758966 220.197913 94.464056 
C 220.197913 95.169146 220.478048 95.845453 220.976622 96.344027 
C 221.475197 96.842601 222.151503 97.122737 222.856594 97.122737 
z
" style="fill:#56b4e9;fill-opacity:0.25098;stroke:#56b4e9;stroke-opacity:0.25098;stroke-width:0.886227;"/>
    <path clip-path="url(#p278bd0de1d)" d="M 217.623613 17.785705 
C 218.328704 17.785705 219.00501 17.50557 219.503584 17.006996 
C 220.002159 16.508422 220.282294 15.832115 220.282294 15.127025 
C 220.282294 14.421934 220.002159 13.745628 219.503584 13.247053 
C 219.00501 12.748479 218.328704 12.468344 217.623613 12.468344 
C 216.918523 12.468344 216.242216 12.748479 215.743642 13.247053 
C 215.245068 13.745628 214.964932 14.421934 214.964932 15.127025 
C 214.964932 15.832115 215.245068 16.508422 215.743642 17.006996 
C 216.242216 17.50557 216.918523 17.785705 217.623613 17.785705 
z
" style="fill:#56b4e9;fill-opacity:0.25098;stroke:#56b4e9;stroke-opacity:0.25098;stroke-width:0.886227;"/>
    <path clip-path="url(#p278bd0de1d)" d="M 176.858655 19.827845 
C 177.563745 19.827845 178.240052 19.54771 178.738626 19.049135 
C 179.2372 18.550561 179.517336 17.874255 179.517336 17.169164 
C 179.517336 16.464074 179.2372 15.787767 178.738626 15.289193 
C 178.240052 14.790619 177.563745 14.510483 176.858655 14.510483 
C 176.153565 14.510483 175.477258 14.790619 174.978684 15.289193 
C 174.480109 15.787767 174.199974 16.464074 174.199974 17.169164 
C 174.199974 17.874255 174.480109 18.550561 174.978684 19.049135 
C 175.477258 19.54771 176.153565 19.827845 176.858655 19.827845 
z
" style="fill:#56b4e9;fill-opacity:0.25098;stroke:#56b4e9;stroke-opacity:0.25098;stroke-width:0.886227;"/>
    <path clip-path="url(#p278bd0de1d)" d="M 177.26719 111.932497 
C 177.97228 111.932497 178.648587 111.652362 179.147161 111.153787 
C 179.645735 110.655213 179.925871 109.978907 179.925871 109.273816 
C 179.925871 108.568726 179.645735 107.892419 179.147161 107.393845 
C 178.648587 106.895271 177.97228 106.615135 177.26719 106.615135 
C 176.5621 106.615135 175.885793 106.895271 175.387219 107.393845 
C 174.888645 107.892419 174.608509 108.568726 174.608509 109.273816 
C 174.608509 109.978907 174.888645 110.655213 175.387219 111.153787 
C 175.885793 111.652362 176.5621 111.932497 177.26719 111.932497 
z
" style="fill:#e69f00;fill-opacity:0.25098;stroke:#e69f00;stroke-opacity:0.25098;stroke-width:0.886227;"/>
    <path clip-path="url(#p278bd0de1d)" d="M 219.931979 110.85809 
C 220.637069 110.85809 221.313376 110.577955 221.81195 110.079381 
C 222.310524 109.580807 222.590659 108.9045 222.590659 108.19941 
C 222.590659 107.494319 222.310524 106.818013 221.81195 106.319438 
C 221.313376 105.820864 220.637069 105.540729 219.931979 105.540729 
C 219.226888 105.540729 218.550582 105.820864 218.052007 106.319438 
C 217.553433 106.818013 217.273298 107.494319 217.273298 108.19941 
C 217.273298 108.9045 217.553433 109.580807 218.052007 110.079381 
C 218.550582 110.577955 219.226888 110.85809 219.931979 110.85809 
z
" style="fill:#e69f00;fill-opacity:0.25098;stroke:#e69f00;stroke-opacity:0.25098;stroke-width:0.886227;"/>
    <path clip-path="url(#p278bd0de1d)" d="M 262.312295 73.344605 
C 263.017385 73.344605 263.693692 73.06447 264.192266 72.565896 
C 264.69084 72.067321 264.970976 71.391015 264.970976 70.685924 
C 264.970976 69.980834 264.69084 69.304527 264.192266 68.805953 
C 263.693692 68.307379 263.017385 68.027244 262.312295 68.027244 
C 261.607204 68.027244 260.930898 68.307379 260.432324 68.805953 
C 259.933749 69.304527 259.653614 69.980834 259.653614 70.685924 
C 259.653614 71.391015 259.933749 72.067321 260.432324 72.565896 
C 260.930898 73.06447 261.607204 73.344605 262.312295 73.344605 
z
" style="fill:#e69f00;fill-opacity:0.25098;stroke:#e69f00;stroke-opacity:0.25098;stroke-width:0.886227;"/>
    <path clip-path="url(#p278bd0de1d)" d="M 178.487949 114.38517 
C 179.193039 114.38517 179.869346 114.105035 180.36792 113.606461 
C 180.866494 113.107887 181.14663 112.43158 181.14663 111.72649 
C 181.14663 111.021399 180.866494 110.345093 180.36792 109.846518 
C 179.869346 109.347944 179.193039 109.067809 178.487949 109.067809 
C 177.782858 109.067809 177.106552 109.347944 176.607978 109.846518 
C 176.109403 110.345093 175.829268 111.021399 175.829268 111.72649 
C 175.829268 112.43158 176.109403 113.107887 176.607978 113.606461 
C 177.106552 114.105035 177.782858 114.38517 178.487949 114.38517 
z
" style="fill:#e69f00;fill-opacity:0.25098;stroke:#e69f00;stroke-opacity:0.25098;stroke-width:0.886227;"/>
    <path clip-path="url(#p278bd0de1d)" d="M 261.292782 87.472968 
C 261.997872 87.472968 262.674179 87.192833 263.172753 86.694258 
C 263.671327 86.195684 263.951463 85.519378 263.951463 84.814287 
C 263.951463 84.109197 263.671327 83.43289 263.172753 82.934316 
C 262.674179 82.435742 261.997872 82.155606 261.292782 82.155606 
C 260.587691 82.155606 259.911385 82.435742 259.412811 82.934316 
C 258.914236 83.43289 258.634101 84.109197 258.634101 84.814287 
C 258.634101 85.519378 258.914236 86.195684 259.412811 86.694258 
C 259.911385 87.192833 260.587691 87.472968 261.292782 87.472968 
z
" style="fill:#e69f00;fill-opacity:0.25098;stroke:#e69f00;stroke-opacity:0.25098;stroke-width:0.886227;"/>
    <path clip-path="url(#p278bd0de1d)" d="M 173.955318 114.457986 
C 174.660408 114.457986 175.336715 114.177851 175.835289 113.679276 
C 176.333863 113.180702 176.613999 112.504396 176.613999 111.799305 
C 176.613999 111.094215 176.333863 110.417908 175.835289 109.919334 
C 175.336715 109.42076 174.660408 109.140624 173.955318 109.140624 
C 173.250227 109.140624 172.573921 109.42076 172.075347 109.919334 
C 171.576772 110.417908 171.296637 111.094215 171.296637 111.799305 
C 171.296637 112.504396 171.576772 113.180702 172.075347 113.679276 
C 172.573921 114.177851 173.250227 114.457986 173.955318 114.457986 
z
" style="fill:#e69f00;fill-opacity:0.25098;stroke:#e69f00;stroke-opacity:0.25098;stroke-width:0.886227;"/>
    <path clip-path="url(#p278bd0de1d)" d="M 176.004437 113.938501 
C 176.709528 113.938501 177.385834 113.658365 177.884409 113.159791 
C 178.382983 112.661217 178.663118 111.98491 178.663118 111.27982 
C 178.663118 110.574729 178.382983 109.898423 177.884409 109.399849 
C 177.385834 108.901274 176.709528 108.621139 176.004437 108.621139 
C 175.299347 108.621139 174.62304 108.901274 174.124466 109.399849 
C 173.625892 109.898423 173.345757 110.574729 173.345757 111.27982 
C 173.345757 111.98491 173.625892 112.661217 174.124466 113.159791 
C 174.62304 113.658365 175.299347 113.938501 176.004437 113.938501 
z
" style="fill:#e69f00;fill-opacity:0.25098;stroke:#e69f00;stroke-opacity:0.25098;stroke-width:0.886227;"/>
    <path clip-path="url(#p278bd0de1d)" d="M 179.837303 113.40042 
C 180.542393 113.40042 181.2187 113.120285 181.717274 112.62171 
C 182.215848 112.123136 182.495984 111.44683 182.495984 110.741739 
C 182.495984 110.036649 182.215848 109.360342 181.717274 108.861768 
C 181.2187 108.363194 180.542393 108.083059 179.837303 108.083059 
C 179.132213 108.083059 178.455906 108.363194 177.957332 108.861768 
C 177.458758 109.360342 177.178622 110.036649 177.178622 110.741739 
C 177.178622 111.44683 177.458758 112.123136 177.957332 112.62171 
C 178.455906 113.120285 179.132213 113.40042 179.837303 113.40042 
z
" style="fill:#e69f00;fill-opacity:0.25098;stroke:#e69f00;stroke-opacity:0.25098;stroke-width:0.886227;"/>
    <path clip-path="url(#p278bd0de1d)" d="M 174.885932 18.842597 
C 175.591022 18.842597 176.267329 18.562461 176.765903 18.063887 
C 177.264477 17.565313 177.544613 16.889006 177.544613 16.183916 
C 177.544613 15.478825 177.264477 14.802519 176.765903 14.303945 
C 176.267329 13.80537 175.591022 13.525235 174.885932 13.525235 
C 174.180841 13.525235 173.504535 13.80537 173.005961 14.303945 
C 172.507386 14.802519 172.227251 15.478825 172.227251 16.183916 
C 172.227251 16.889006 172.507386 17.565313 173.005961 18.063887 
C 173.504535 18.562461 174.180841 18.842597 174.885932 18.842597 
z
" style="fill:#e69f00;fill-opacity:0.25098;stroke:#e69f00;stroke-opacity:0.25098;stroke-width:0.886227;"/>
    <path clip-path="url(#p278bd0de1d)" d="M 174.658228 111.691634 
C 175.363318 111.691634 176.039625 111.411499 176.538199 110.912925 
C 177.036773 110.414351 177.316909 109.738044 177.316909 109.032954 
C 177.316909 108.327863 177.036773 107.651557 176.538199 107.152982 
C 176.039625 106.654408 175.363318 106.374273 174.658228 106.374273 
C 173.953138 106.374273 173.276831 106.654408 172.778257 107.152982 
C 172.279683 107.651557 171.999547 108.327863 171.999547 109.032954 
C 171.999547 109.738044 172.279683 110.414351 172.778257 110.912925 
C 173.276831 111.411499 173.953138 111.691634 174.658228 111.691634 
z
" style="fill:#e69f00;fill-opacity:0.25098;stroke:#e69f00;stroke-opacity:0.25098;stroke-width:0.886227;"/>
    <path clip-path="url(#p278bd0de1d)" d="M 180.099761 111.830819 
C 180.804851 111.830819 181.481158 111.550684 181.979732 111.05211 
C 182.478306 110.553536 182.758442 109.877229 182.758442 109.172139 
C 182.758442 108.467048 182.478306 107.790742 181.979732 107.292168 
C 181.481158 106.793593 180.804851 106.513458 180.099761 106.513458 
C 179.39467 106.513458 178.718364 106.793593 178.21979 107.292168 
C 177.721215 107.790742 177.44108 108.467048 177.44108 109.172139 
C 177.44108 109.877229 177.721215 110.553536 178.21979 111.05211 
C 178.718364 111.550684 179.39467 111.830819 180.099761 111.830819 
z
" style="fill:#e69f00;fill-opacity:0.25098;stroke:#e69f00;stroke-opacity:0.25098;stroke-width:0.886227;"/>
    <path clip-path="url(#p278bd0de1d)" d="M 179.279288 113.540384 
C 179.984379 113.540384 180.660685 113.260249 181.15926 112.761675 
C 181.657834 112.2631 181.937969 111.586794 181.937969 110.881703 
C 181.937969 110.176613 181.657834 109.500306 181.15926 109.001732 
C 180.660685 108.503158 179.984379 108.223023 179.279288 108.223023 
C 178.574198 108.223023 177.897891 108.503158 177.399317 109.001732 
C 176.900743 109.500306 176.620608 110.176613 176.620608 110.881703 
C 176.620608 111.586794 176.900743 112.2631 177.399317 112.761675 
C 177.897891 113.260249 178.574198 113.540384 179.279288 113.540384 
z
" style="fill:#e69f00;fill-opacity:0.25098;stroke:#e69f00;stroke-opacity:0.25098;stroke-width:0.886227;"/>
    <path clip-path="url(#p278bd0de1d)" d="M 219.897274 58.327108 
C 220.602365 58.327108 221.278671 58.046972 221.777246 57.548398 
C 222.27582 57.049824 222.555955 56.373517 222.555955 55.668427 
C 222.555955 54.963336 222.27582 54.28703 221.777246 53.788456 
C 221.278671 53.289881 220.602365 53.009746 219.897274 53.009746 
C 219.192184 53.009746 218.515877 53.289881 218.017303 53.788456 
C 217.518729 54.28703 217.238594 54.963336 217.238594 55.668427 
C 217.238594 56.373517 217.518729 57.049824 218.017303 57.548398 
C 218.515877 58.046972 219.192184 58.327108 219.897274 58.327108 
z
" style="fill:#e69f00;fill-opacity:0.25098;stroke:#e69f00;stroke-opacity:0.25098;stroke-width:0.886227;"/>
    <path clip-path="url(#p278bd0de1d)" d="M 220.119736 59.389636 
C 220.824826 59.389636 221.501133 59.1095 221.999707 58.610926 
C 222.498281 58.112352 222.778417 57.436045 222.778417 56.730955 
C 222.778417 56.025865 222.498281 55.349558 221.999707 54.850984 
C 221.501133 54.35241 220.824826 54.072274 220.119736 54.072274 
C 219.414646 54.072274 218.738339 54.35241 218.239765 54.850984 
C 217.741191 55.349558 217.461055 56.025865 217.461055 56.730955 
C 217.461055 57.436045 217.741191 58.112352 218.239765 58.610926 
C 218.738339 59.1095 219.414646 59.389636 220.119736 59.389636 
z
" style="fill:#e69f00;fill-opacity:0.25098;stroke:#e69f00;stroke-opacity:0.25098;stroke-width:0.886227;"/>
    <path clip-path="url(#p278bd0de1d)" d="M 266.088436 19.768734 
C 266.793526 19.768734 267.469833 19.488599 267.968407 18.990025 
C 268.466981 18.491451 268.747117 17.815144 268.747117 17.110054 
C 268.747117 16.404963 268.466981 15.728657 267.968407 15.230082 
C 267.469833 14.731508 266.793526 14.451373 266.088436 14.451373 
C 265.383345 14.451373 264.707039 14.731508 264.208465 15.230082 
C 263.70989 15.728657 263.429755 16.404963 263.429755 17.110054 
C 263.429755 17.815144 263.70989 18.491451 264.208465 18.990025 
C 264.707039 19.488599 265.383345 19.768734 266.088436 19.768734 
z
" style="fill:#e69f00;fill-opacity:0.25098;stroke:#e69f00;stroke-opacity:0.25098;stroke-width:0.886227;"/>
    <path clip-path="url(#p278bd0de1d)" d="M 263.743602 58.175245 
C 264.448692 58.175245 265.124999 57.89511 265.623573 57.396536 
C 266.122147 56.897961 266.402283 56.221655 266.402283 55.516564 
C 266.402283 54.811474 266.122147 54.135167 265.623573 53.636593 
C 265.124999 53.138019 264.448692 52.857884 263.743602 52.857884 
C 263.038512 52.857884 262.362205 53.138019 261.863631 53.636593 
C 261.365057 54.135167 261.084921 54.811474 261.084921 55.516564 
C 261.084921 56.221655 261.365057 56.897961 261.863631 57.396536 
C 262.362205 57.89511 263.038512 58.175245 263.743602 58.175245 
z
" style="fill:#e69f00;fill-opacity:0.25098;stroke:#e69f00;stroke-opacity:0.25098;stroke-width:0.886227;"/>
    <path clip-path="url(#p278bd0de1d)" d="M 262.844201 57.285142 
C 263.549291 57.285142 264.225598 57.005006 264.724172 56.506432 
C 265.222746 56.007858 265.502882 55.331551 265.502882 54.626461 
C 265.502882 53.921371 265.222746 53.245064 264.724172 52.74649 
C 264.225598 52.247916 263.549291 51.96778 262.844201 51.96778 
C 262.13911 51.96778 261.462804 52.247916 260.96423 52.74649 
C 260.465655 53.245064 260.18552 53.921371 260.18552 54.626461 
C 260.18552 55.331551 260.465655 56.007858 260.96423 56.506432 
C 261.462804 57.005006 262.13911 57.285142 262.844201 57.285142 
z
" style="fill:#e69f00;fill-opacity:0.25098;stroke:#e69f00;stroke-opacity:0.25098;stroke-width:0.886227;"/>
    <path clip-path="url(#p278bd0de1d)" d="M 261.249572 56.927856 
C 261.954662 56.927856 262.630969 56.64772 263.129543 56.149146 
C 263.628117 55.650572 263.908253 54.974265 263.908253 54.269175 
C 263.908253 53.564085 263.628117 52.887778 263.129543 52.389204 
C 262.630969 51.89063 261.954662 51.610494 261.249572 51.610494 
C 260.544481 51.610494 259.868175 51.89063 259.369601 52.389204 
C 258.871026 52.887778 258.590891 53.564085 258.590891 54.269175 
C 258.590891 54.974265 258.871026 55.650572 259.369601 56.149146 
C 259.868175 56.64772 260.544481 56.927856 261.249572 56.927856 
z
" style="fill:#e69f00;fill-opacity:0.25098;stroke:#e69f00;stroke-opacity:0.25098;stroke-width:0.886227;"/>
    <path clip-path="url(#p278bd0de1d)" d="M 261.368924 58.106172 
C 262.074014 58.106172 262.750321 57.826037 263.248895 57.327462 
C 263.747469 56.828888 264.027604 56.152582 264.027604 55.447491 
C 264.027604 54.742401 263.747469 54.066094 263.248895 53.56752 
C 262.750321 53.068946 262.074014 52.78881 261.368924 52.78881 
C 260.663833 52.78881 259.987527 53.068946 259.488952 53.56752 
C 258.990378 54.066094 258.710243 54.742401 258.710243 55.447491 
C 258.710243 56.152582 258.990378 56.828888 259.488952 57.327462 
C 259.987527 57.826037 260.663833 58.106172 261.368924 58.106172 
z
" style="fill:#e69f00;fill-opacity:0.25098;stroke:#e69f00;stroke-opacity:0.25098;stroke-width:0.886227;"/>
    <path clip-path="url(#p278bd0de1d)" d="M 175.204611 44.492712 
C 175.909702 44.492712 176.586008 44.212576 177.084582 43.714002 
C 177.583157 43.215428 177.863292 42.539121 177.863292 41.834031 
C 177.863292 41.12894 177.583157 40.452634 177.084582 39.95406 
C 176.586008 39.455485 175.909702 39.17535 175.204611 39.17535 
C 174.499521 39.17535 173.823214 39.455485 173.32464 39.95406 
C 172.826066 40.452634 172.54593 41.12894 172.54593 41.834031 
C 172.54593 42.539121 172.826066 43.215428 173.32464 43.714002 
C 173.823214 44.212576 174.499521 44.492712 175.204611 44.492712 
z
" style="fill:#e69f00;fill-opacity:0.25098;stroke:#e69f00;stroke-opacity:0.25098;stroke-width:0.886227;"/>
    <path clip-path="url(#p278bd0de1d)" d="M 261.068091 17.472443 
C 261.773181 17.472443 262.449488 17.192308 262.948062 16.693734 
C 263.446636 16.19516 263.726772 15.518853 263.726772 14.813763 
C 263.726772 14.108672 263.446636 13.432366 262.948062 12.933791 
C 262.449488 12.435217 261.773181 12.155082 261.068091 12.155082 
C 260.363 12.155082 259.686694 12.435217 259.18812 12.933791 
C 258.689545 13.432366 258.40941 14.108672 258.40941 14.813763 
C 258.40941 15.518853 258.689545 16.19516 259.18812 16.693734 
C 259.686694 17.192308 260.363 17.472443 261.068091 17.472443 
z
" style="fill:#e69f00;fill-opacity:0.25098;stroke:#e69f00;stroke-opacity:0.25098;stroke-width:0.886227;"/>
    <path clip-path="url(#p278bd0de1d)" d="M 178.631024 100.677143 
C 179.336114 100.677143 180.012421 100.397008 180.510995 99.898434 
C 181.009569 99.399859 181.289704 98.723553 181.289704 98.018462 
C 181.289704 97.313372 181.009569 96.637065 180.510995 96.138491 
C 180.012421 95.639917 179.336114 95.359782 178.631024 95.359782 
C 177.925933 95.359782 177.249627 95.639917 176.751052 96.138491 
C 176.252478 96.637065 175.972343 97.313372 175.972343 98.018462 
C 175.972343 98.723553 176.252478 99.399859 176.751052 99.898434 
C 177.249627 100.397008 177.925933 100.677143 178.631024 100.677143 
z
" style="fill:#e69f00;fill-opacity:0.25098;stroke:#e69f00;stroke-opacity:0.25098;stroke-width:0.886227;"/>
   </g>
   <g id="patch_3">
    <path d="M 164.152813 118.08 
L 164.152813 7.2 
" style="fill:none;stroke:#000000;stroke-linecap:square;stroke-linejoin:miter;"/>
   </g>
   <g id="patch_4">
    <path d="M 164.152813 118.08 
L 275.752813 118.08 
" style="fill:none;stroke:#000000;stroke-linecap:square;stroke-linejoin:miter;"/>
   </g>
  </g>
 </g>
 <defs>
  <clipPath id="p278bd0de1d">
   <rect height="110.88" width="111.6" x="164.152813" y="7.2"/>
  </clipPath>
 </defs>
</svg>
