<?xml version="1.0" encoding="utf-8" standalone="no"?>
<!DOCTYPE svg PUBLIC "-//W3C//DTD SVG 1.1//EN"
  "http://www.w3.org/Graphics/SVG/1.1/DTD/svg11.dtd">
<!-- Created with matplotlib (https://matplotlib.org/) -->
<svg height="159.576625pt" version="1.1" viewBox="0 0 391.518188 159.576625" width="391.518188pt" xmlns="http://www.w3.org/2000/svg" xmlns:xlink="http://www.w3.org/1999/xlink">
 <defs>
  <style type="text/css">
*{stroke-linecap:butt;stroke-linejoin:round;}
  </style>
 </defs>
 <g id="figure_1">
  <g id="patch_1">
   <path d="M 0 159.576625 
L 391.518188 159.576625 
L 391.518188 0 
L 0 0 
z
" style="fill:#ffffff;stroke:#ffffff;stroke-linejoin:miter;"/>
  </g>
  <g id="axes_1">
   <g id="patch_2">
    <path d="M 164.152813 118.08 
L 275.752813 118.08 
L 275.752813 7.2 
L 164.152813 7.2 
z
" style="fill:#ffffff;"/>
   </g>
   <g id="matplotlib.axis_1">
    <g id="xtick_1">
     <g id="line2d_1">
      <path d="M 169.160463 118.08 
" style="fill:none;stroke:#333333;stroke-width:1.5;"/>
      <defs>
       <path d="M 0 0 
L 0 2.75 
" id="m45d0428259" style="stroke:#333333;"/>
      </defs>
      <g>
       <use style="fill:#333333;stroke:#333333;" x="169.160463" xlink:href="#m45d0428259" y="118.08"/>
      </g>
     </g>
     <g id="text_1">
      <!-- 2 -->
      <defs>
       <path d="M 19.1875 8.296875 
L 53.609375 8.296875 
L 53.609375 0 
L 7.328125 0 
L 7.328125 8.296875 
Q 12.9375 14.109375 22.625 23.890625 
Q 32.328125 33.6875 34.8125 36.53125 
Q 39.546875 41.84375 41.421875 45.53125 
Q 43.3125 49.21875 43.3125 52.78125 
Q 43.3125 58.59375 39.234375 62.25 
Q 35.15625 65.921875 28.609375 65.921875 
Q 23.96875 65.921875 18.8125 64.3125 
Q 13.671875 62.703125 7.8125 59.421875 
L 7.8125 69.390625 
Q 13.765625 71.78125 18.9375 73 
Q 24.125 74.21875 28.421875 74.21875 
Q 39.75 74.21875 46.484375 68.546875 
Q 53.21875 62.890625 53.21875 53.421875 
Q 53.21875 48.921875 51.53125 44.890625 
Q 49.859375 40.875 45.40625 35.40625 
Q 44.1875 33.984375 37.640625 27.21875 
Q 31.109375 20.453125 19.1875 8.296875 
z
" id="DejaVuSans-50"/>
      </defs>
      <g style="fill:#4d4d4d;" transform="translate(171.588713 128.629)rotate(-90)scale(0.088 -0.088)">
       <use xlink:href="#DejaVuSans-50"/>
      </g>
     </g>
    </g>
    <g id="xtick_2">
     <g id="line2d_2">
      <path d="M 190.766872 118.08 
" style="fill:none;stroke:#333333;stroke-width:1.5;"/>
      <g>
       <use style="fill:#333333;stroke:#333333;" x="190.766872" xlink:href="#m45d0428259" y="118.08"/>
      </g>
     </g>
     <g id="text_2">
      <!-- 2.5 -->
      <defs>
       <path d="M 10.6875 12.40625 
L 21 12.40625 
L 21 0 
L 10.6875 0 
z
" id="DejaVuSans-46"/>
       <path d="M 10.796875 72.90625 
L 49.515625 72.90625 
L 49.515625 64.59375 
L 19.828125 64.59375 
L 19.828125 46.734375 
Q 21.96875 47.46875 24.109375 47.828125 
Q 26.265625 48.1875 28.421875 48.1875 
Q 40.625 48.1875 47.75 41.5 
Q 54.890625 34.8125 54.890625 23.390625 
Q 54.890625 11.625 47.5625 5.09375 
Q 40.234375 -1.421875 26.90625 -1.421875 
Q 22.3125 -1.421875 17.546875 -0.640625 
Q 12.796875 0.140625 7.71875 1.703125 
L 7.71875 11.625 
Q 12.109375 9.234375 16.796875 8.0625 
Q 21.484375 6.890625 26.703125 6.890625 
Q 35.15625 6.890625 40.078125 11.328125 
Q 45.015625 15.765625 45.015625 23.390625 
Q 45.015625 31 40.078125 35.4375 
Q 35.15625 39.890625 26.703125 39.890625 
Q 22.75 39.890625 18.8125 39.015625 
Q 14.890625 38.140625 10.796875 36.28125 
z
" id="DejaVuSans-53"/>
      </defs>
      <g style="fill:#4d4d4d;" transform="translate(193.195122 137.02475)rotate(-90)scale(0.088 -0.088)">
       <use xlink:href="#DejaVuSans-50"/>
       <use x="63.623047" xlink:href="#DejaVuSans-46"/>
       <use x="95.410156" xlink:href="#DejaVuSans-53"/>
      </g>
     </g>
    </g>
    <g id="xtick_3">
     <g id="line2d_3">
      <path d="M 212.37328 118.08 
" style="fill:none;stroke:#333333;stroke-width:1.5;"/>
      <g>
       <use style="fill:#333333;stroke:#333333;" x="212.37328" xlink:href="#m45d0428259" y="118.08"/>
      </g>
     </g>
     <g id="text_3">
      <!-- 3 -->
      <defs>
       <path d="M 40.578125 39.3125 
Q 47.65625 37.796875 51.625 33 
Q 55.609375 28.21875 55.609375 21.1875 
Q 55.609375 10.40625 48.1875 4.484375 
Q 40.765625 -1.421875 27.09375 -1.421875 
Q 22.515625 -1.421875 17.65625 -0.515625 
Q 12.796875 0.390625 7.625 2.203125 
L 7.625 11.71875 
Q 11.71875 9.328125 16.59375 8.109375 
Q 21.484375 6.890625 26.8125 6.890625 
Q 36.078125 6.890625 40.9375 10.546875 
Q 45.796875 14.203125 45.796875 21.1875 
Q 45.796875 27.640625 41.28125 31.265625 
Q 36.765625 34.90625 28.71875 34.90625 
L 20.21875 34.90625 
L 20.21875 43.015625 
L 29.109375 43.015625 
Q 36.375 43.015625 40.234375 45.921875 
Q 44.09375 48.828125 44.09375 54.296875 
Q 44.09375 59.90625 40.109375 62.90625 
Q 36.140625 65.921875 28.71875 65.921875 
Q 24.65625 65.921875 20.015625 65.03125 
Q 15.375 64.15625 9.8125 62.3125 
L 9.8125 71.09375 
Q 15.4375 72.65625 20.34375 73.4375 
Q 25.25 74.21875 29.59375 74.21875 
Q 40.828125 74.21875 47.359375 69.109375 
Q 53.90625 64.015625 53.90625 55.328125 
Q 53.90625 49.265625 50.4375 45.09375 
Q 46.96875 40.921875 40.578125 39.3125 
z
" id="DejaVuSans-51"/>
      </defs>
      <g style="fill:#4d4d4d;" transform="translate(214.80153 128.629)rotate(-90)scale(0.088 -0.088)">
       <use xlink:href="#DejaVuSans-51"/>
      </g>
     </g>
    </g>
    <g id="xtick_4">
     <g id="line2d_4">
      <path d="M 233.979689 118.08 
" style="fill:none;stroke:#333333;stroke-width:1.5;"/>
      <g>
       <use style="fill:#333333;stroke:#333333;" x="233.979689" xlink:href="#m45d0428259" y="118.08"/>
      </g>
     </g>
     <g id="text_4">
      <!-- 3.5 -->
      <g style="fill:#4d4d4d;" transform="translate(236.407939 137.02475)rotate(-90)scale(0.088 -0.088)">
       <use xlink:href="#DejaVuSans-51"/>
       <use x="63.623047" xlink:href="#DejaVuSans-46"/>
       <use x="95.410156" xlink:href="#DejaVuSans-53"/>
      </g>
     </g>
    </g>
    <g id="xtick_5">
     <g id="line2d_5">
      <path d="M 255.586097 118.08 
" style="fill:none;stroke:#333333;stroke-width:1.5;"/>
      <g>
       <use style="fill:#333333;stroke:#333333;" x="255.586097" xlink:href="#m45d0428259" y="118.08"/>
      </g>
     </g>
     <g id="text_5">
      <!-- 4 -->
      <defs>
       <path d="M 37.796875 64.3125 
L 12.890625 25.390625 
L 37.796875 25.390625 
z
M 35.203125 72.90625 
L 47.609375 72.90625 
L 47.609375 25.390625 
L 58.015625 25.390625 
L 58.015625 17.1875 
L 47.609375 17.1875 
L 47.609375 0 
L 37.796875 0 
L 37.796875 17.1875 
L 4.890625 17.1875 
L 4.890625 26.703125 
z
" id="DejaVuSans-52"/>
      </defs>
      <g style="fill:#4d4d4d;" transform="translate(258.014347 128.629)rotate(-90)scale(0.088 -0.088)">
       <use xlink:href="#DejaVuSans-52"/>
      </g>
     </g>
    </g>
    <g id="xtick_6"/>
    <g id="xtick_7"/>
    <g id="xtick_8"/>
    <g id="xtick_9"/>
    <g id="xtick_10"/>
    <g id="text_6">
     <!-- log10_NT50 -->
     <defs>
      <path d="M 9.421875 75.984375 
L 18.40625 75.984375 
L 18.40625 0 
L 9.421875 0 
z
" id="DejaVuSans-108"/>
      <path d="M 30.609375 48.390625 
Q 23.390625 48.390625 19.1875 42.75 
Q 14.984375 37.109375 14.984375 27.296875 
Q 14.984375 17.484375 19.15625 11.84375 
Q 23.34375 6.203125 30.609375 6.203125 
Q 37.796875 6.203125 41.984375 11.859375 
Q 46.1875 17.53125 46.1875 27.296875 
Q 46.1875 37.015625 41.984375 42.703125 
Q 37.796875 48.390625 30.609375 48.390625 
z
M 30.609375 56 
Q 42.328125 56 49.015625 48.375 
Q 55.71875 40.765625 55.71875 27.296875 
Q 55.71875 13.875 49.015625 6.21875 
Q 42.328125 -1.421875 30.609375 -1.421875 
Q 18.84375 -1.421875 12.171875 6.21875 
Q 5.515625 13.875 5.515625 27.296875 
Q 5.515625 40.765625 12.171875 48.375 
Q 18.84375 56 30.609375 56 
z
" id="DejaVuSans-111"/>
      <path d="M 45.40625 27.984375 
Q 45.40625 37.75 41.375 43.109375 
Q 37.359375 48.484375 30.078125 48.484375 
Q 22.859375 48.484375 18.828125 43.109375 
Q 14.796875 37.75 14.796875 27.984375 
Q 14.796875 18.265625 18.828125 12.890625 
Q 22.859375 7.515625 30.078125 7.515625 
Q 37.359375 7.515625 41.375 12.890625 
Q 45.40625 18.265625 45.40625 27.984375 
z
M 54.390625 6.78125 
Q 54.390625 -7.171875 48.1875 -13.984375 
Q 42 -20.796875 29.203125 -20.796875 
Q 24.46875 -20.796875 20.265625 -20.09375 
Q 16.0625 -19.390625 12.109375 -17.921875 
L 12.109375 -9.1875 
Q 16.0625 -11.328125 19.921875 -12.34375 
Q 23.78125 -13.375 27.78125 -13.375 
Q 36.625 -13.375 41.015625 -8.765625 
Q 45.40625 -4.15625 45.40625 5.171875 
L 45.40625 9.625 
Q 42.625 4.78125 38.28125 2.390625 
Q 33.9375 0 27.875 0 
Q 17.828125 0 11.671875 7.65625 
Q 5.515625 15.328125 5.515625 27.984375 
Q 5.515625 40.671875 11.671875 48.328125 
Q 17.828125 56 27.875 56 
Q 33.9375 56 38.28125 53.609375 
Q 42.625 51.21875 45.40625 46.390625 
L 45.40625 54.6875 
L 54.390625 54.6875 
z
" id="DejaVuSans-103"/>
      <path d="M 12.40625 8.296875 
L 28.515625 8.296875 
L 28.515625 63.921875 
L 10.984375 60.40625 
L 10.984375 69.390625 
L 28.421875 72.90625 
L 38.28125 72.90625 
L 38.28125 8.296875 
L 54.390625 8.296875 
L 54.390625 0 
L 12.40625 0 
z
" id="DejaVuSans-49"/>
      <path d="M 31.78125 66.40625 
Q 24.171875 66.40625 20.328125 58.90625 
Q 16.5 51.421875 16.5 36.375 
Q 16.5 21.390625 20.328125 13.890625 
Q 24.171875 6.390625 31.78125 6.390625 
Q 39.453125 6.390625 43.28125 13.890625 
Q 47.125 21.390625 47.125 36.375 
Q 47.125 51.421875 43.28125 58.90625 
Q 39.453125 66.40625 31.78125 66.40625 
z
M 31.78125 74.21875 
Q 44.046875 74.21875 50.515625 64.515625 
Q 56.984375 54.828125 56.984375 36.375 
Q 56.984375 17.96875 50.515625 8.265625 
Q 44.046875 -1.421875 31.78125 -1.421875 
Q 19.53125 -1.421875 13.0625 8.265625 
Q 6.59375 17.96875 6.59375 36.375 
Q 6.59375 54.828125 13.0625 64.515625 
Q 19.53125 74.21875 31.78125 74.21875 
z
" id="DejaVuSans-48"/>
      <path d="M 50.984375 -16.609375 
L 50.984375 -23.578125 
L -0.984375 -23.578125 
L -0.984375 -16.609375 
z
" id="DejaVuSans-95"/>
      <path d="M 9.8125 72.90625 
L 23.09375 72.90625 
L 55.421875 11.921875 
L 55.421875 72.90625 
L 64.984375 72.90625 
L 64.984375 0 
L 51.703125 0 
L 19.390625 60.984375 
L 19.390625 0 
L 9.8125 0 
z
" id="DejaVuSans-78"/>
      <path d="M -0.296875 72.90625 
L 61.375 72.90625 
L 61.375 64.59375 
L 35.5 64.59375 
L 35.5 0 
L 25.59375 0 
L 25.59375 64.59375 
L -0.296875 64.59375 
z
" id="DejaVuSans-84"/>
     </defs>
     <g transform="translate(185.546406 149.783031)scale(0.11 -0.11)">
      <use xlink:href="#DejaVuSans-108"/>
      <use x="27.783203" xlink:href="#DejaVuSans-111"/>
      <use x="88.964844" xlink:href="#DejaVuSans-103"/>
      <use x="152.441406" xlink:href="#DejaVuSans-49"/>
      <use x="216.064453" xlink:href="#DejaVuSans-48"/>
      <use x="279.6875" xlink:href="#DejaVuSans-95"/>
      <use x="329.6875" xlink:href="#DejaVuSans-78"/>
      <use x="404.492188" xlink:href="#DejaVuSans-84"/>
      <use x="465.576172" xlink:href="#DejaVuSans-53"/>
      <use x="529.199219" xlink:href="#DejaVuSans-48"/>
     </g>
    </g>
   </g>
   <g id="matplotlib.axis_2">
    <g id="ytick_1">
     <g id="line2d_6">
      <path d="M 164.152813 109.966829 
" style="fill:none;stroke:#333333;stroke-width:1.5;"/>
      <defs>
       <path d="M 0 0 
L -2.75 0 
" id="m2cc3a7ec54" style="stroke:#333333;"/>
      </defs>
      <g>
       <use style="fill:#333333;stroke:#333333;" x="164.152813" xlink:href="#m2cc3a7ec54" y="109.966829"/>
      </g>
     </g>
     <g id="text_7">
      <!-- 456-484 -->
      <defs>
       <path d="M 33.015625 40.375 
Q 26.375 40.375 22.484375 35.828125 
Q 18.609375 31.296875 18.609375 23.390625 
Q 18.609375 15.53125 22.484375 10.953125 
Q 26.375 6.390625 33.015625 6.390625 
Q 39.65625 6.390625 43.53125 10.953125 
Q 47.40625 15.53125 47.40625 23.390625 
Q 47.40625 31.296875 43.53125 35.828125 
Q 39.65625 40.375 33.015625 40.375 
z
M 52.59375 71.296875 
L 52.59375 62.3125 
Q 48.875 64.0625 45.09375 64.984375 
Q 41.3125 65.921875 37.59375 65.921875 
Q 27.828125 65.921875 22.671875 59.328125 
Q 17.53125 52.734375 16.796875 39.40625 
Q 19.671875 43.65625 24.015625 45.921875 
Q 28.375 48.1875 33.59375 48.1875 
Q 44.578125 48.1875 50.953125 41.515625 
Q 57.328125 34.859375 57.328125 23.390625 
Q 57.328125 12.15625 50.6875 5.359375 
Q 44.046875 -1.421875 33.015625 -1.421875 
Q 20.359375 -1.421875 13.671875 8.265625 
Q 6.984375 17.96875 6.984375 36.375 
Q 6.984375 53.65625 15.1875 63.9375 
Q 23.390625 74.21875 37.203125 74.21875 
Q 40.921875 74.21875 44.703125 73.484375 
Q 48.484375 72.75 52.59375 71.296875 
z
" id="DejaVuSans-54"/>
       <path d="M 4.890625 31.390625 
L 31.203125 31.390625 
L 31.203125 23.390625 
L 4.890625 23.390625 
z
" id="DejaVuSans-45"/>
       <path d="M 31.78125 34.625 
Q 24.75 34.625 20.71875 30.859375 
Q 16.703125 27.09375 16.703125 20.515625 
Q 16.703125 13.921875 20.71875 10.15625 
Q 24.75 6.390625 31.78125 6.390625 
Q 38.8125 6.390625 42.859375 10.171875 
Q 46.921875 13.96875 46.921875 20.515625 
Q 46.921875 27.09375 42.890625 30.859375 
Q 38.875 34.625 31.78125 34.625 
z
M 21.921875 38.8125 
Q 15.578125 40.375 12.03125 44.71875 
Q 8.5 49.078125 8.5 55.328125 
Q 8.5 64.0625 14.71875 69.140625 
Q 20.953125 74.21875 31.78125 74.21875 
Q 42.671875 74.21875 48.875 69.140625 
Q 55.078125 64.0625 55.078125 55.328125 
Q 55.078125 49.078125 51.53125 44.71875 
Q 48 40.375 41.703125 38.8125 
Q 48.828125 37.15625 52.796875 32.3125 
Q 56.78125 27.484375 56.78125 20.515625 
Q 56.78125 9.90625 50.3125 4.234375 
Q 43.84375 -1.421875 31.78125 -1.421875 
Q 19.734375 -1.421875 13.25 4.234375 
Q 6.78125 9.90625 6.78125 20.515625 
Q 6.78125 27.484375 10.78125 32.3125 
Q 14.796875 37.15625 21.921875 38.8125 
z
M 18.3125 54.390625 
Q 18.3125 48.734375 21.84375 45.5625 
Q 25.390625 42.390625 31.78125 42.390625 
Q 38.140625 42.390625 41.71875 45.5625 
Q 45.3125 48.734375 45.3125 54.390625 
Q 45.3125 60.0625 41.71875 63.234375 
Q 38.140625 66.40625 31.78125 66.40625 
Q 25.390625 66.40625 21.84375 63.234375 
Q 18.3125 60.0625 18.3125 54.390625 
z
" id="DejaVuSans-56"/>
      </defs>
      <g style="fill:#4d4d4d;" transform="translate(122.433938 112.395079)scale(0.088 -0.088)">
       <use xlink:href="#DejaVuSans-52"/>
       <use x="63.623047" xlink:href="#DejaVuSans-53"/>
       <use x="127.246094" xlink:href="#DejaVuSans-54"/>
       <use x="190.869141" xlink:href="#DejaVuSans-45"/>
       <use x="226.953125" xlink:href="#DejaVuSans-52"/>
       <use x="290.576172" xlink:href="#DejaVuSans-56"/>
       <use x="354.199219" xlink:href="#DejaVuSans-52"/>
      </g>
     </g>
    </g>
    <g id="ytick_2">
     <g id="line2d_7">
      <path d="M 164.152813 96.444878 
" style="fill:none;stroke:#333333;stroke-width:1.5;"/>
      <g>
       <use style="fill:#333333;stroke:#333333;" x="164.152813" xlink:href="#m2cc3a7ec54" y="96.444878"/>
      </g>
     </g>
     <g id="text_8">
      <!-- 456-484 low magnitude -->
      <defs>
       <path id="DejaVuSans-32"/>
       <path d="M 4.203125 54.6875 
L 13.1875 54.6875 
L 24.421875 12.015625 
L 35.59375 54.6875 
L 46.1875 54.6875 
L 57.421875 12.015625 
L 68.609375 54.6875 
L 77.59375 54.6875 
L 63.28125 0 
L 52.6875 0 
L 40.921875 44.828125 
L 29.109375 0 
L 18.5 0 
z
" id="DejaVuSans-119"/>
       <path d="M 52 44.1875 
Q 55.375 50.25 60.0625 53.125 
Q 64.75 56 71.09375 56 
Q 79.640625 56 84.28125 50.015625 
Q 88.921875 44.046875 88.921875 33.015625 
L 88.921875 0 
L 79.890625 0 
L 79.890625 32.71875 
Q 79.890625 40.578125 77.09375 44.375 
Q 74.3125 48.1875 68.609375 48.1875 
Q 61.625 48.1875 57.5625 43.546875 
Q 53.515625 38.921875 53.515625 30.90625 
L 53.515625 0 
L 44.484375 0 
L 44.484375 32.71875 
Q 44.484375 40.625 41.703125 44.40625 
Q 38.921875 48.1875 33.109375 48.1875 
Q 26.21875 48.1875 22.15625 43.53125 
Q 18.109375 38.875 18.109375 30.90625 
L 18.109375 0 
L 9.078125 0 
L 9.078125 54.6875 
L 18.109375 54.6875 
L 18.109375 46.1875 
Q 21.1875 51.21875 25.484375 53.609375 
Q 29.78125 56 35.6875 56 
Q 41.65625 56 45.828125 52.96875 
Q 50 49.953125 52 44.1875 
z
" id="DejaVuSans-109"/>
       <path d="M 34.28125 27.484375 
Q 23.390625 27.484375 19.1875 25 
Q 14.984375 22.515625 14.984375 16.5 
Q 14.984375 11.71875 18.140625 8.90625 
Q 21.296875 6.109375 26.703125 6.109375 
Q 34.1875 6.109375 38.703125 11.40625 
Q 43.21875 16.703125 43.21875 25.484375 
L 43.21875 27.484375 
z
M 52.203125 31.203125 
L 52.203125 0 
L 43.21875 0 
L 43.21875 8.296875 
Q 40.140625 3.328125 35.546875 0.953125 
Q 30.953125 -1.421875 24.3125 -1.421875 
Q 15.921875 -1.421875 10.953125 3.296875 
Q 6 8.015625 6 15.921875 
Q 6 25.140625 12.171875 29.828125 
Q 18.359375 34.515625 30.609375 34.515625 
L 43.21875 34.515625 
L 43.21875 35.40625 
Q 43.21875 41.609375 39.140625 45 
Q 35.0625 48.390625 27.6875 48.390625 
Q 23 48.390625 18.546875 47.265625 
Q 14.109375 46.140625 10.015625 43.890625 
L 10.015625 52.203125 
Q 14.9375 54.109375 19.578125 55.046875 
Q 24.21875 56 28.609375 56 
Q 40.484375 56 46.34375 49.84375 
Q 52.203125 43.703125 52.203125 31.203125 
z
" id="DejaVuSans-97"/>
       <path d="M 54.890625 33.015625 
L 54.890625 0 
L 45.90625 0 
L 45.90625 32.71875 
Q 45.90625 40.484375 42.875 44.328125 
Q 39.84375 48.1875 33.796875 48.1875 
Q 26.515625 48.1875 22.3125 43.546875 
Q 18.109375 38.921875 18.109375 30.90625 
L 18.109375 0 
L 9.078125 0 
L 9.078125 54.6875 
L 18.109375 54.6875 
L 18.109375 46.1875 
Q 21.34375 51.125 25.703125 53.5625 
Q 30.078125 56 35.796875 56 
Q 45.21875 56 50.046875 50.171875 
Q 54.890625 44.34375 54.890625 33.015625 
z
" id="DejaVuSans-110"/>
       <path d="M 9.421875 54.6875 
L 18.40625 54.6875 
L 18.40625 0 
L 9.421875 0 
z
M 9.421875 75.984375 
L 18.40625 75.984375 
L 18.40625 64.59375 
L 9.421875 64.59375 
z
" id="DejaVuSans-105"/>
       <path d="M 18.3125 70.21875 
L 18.3125 54.6875 
L 36.8125 54.6875 
L 36.8125 47.703125 
L 18.3125 47.703125 
L 18.3125 18.015625 
Q 18.3125 11.328125 20.140625 9.421875 
Q 21.96875 7.515625 27.59375 7.515625 
L 36.8125 7.515625 
L 36.8125 0 
L 27.59375 0 
Q 17.1875 0 13.234375 3.875 
Q 9.28125 7.765625 9.28125 18.015625 
L 9.28125 47.703125 
L 2.6875 47.703125 
L 2.6875 54.6875 
L 9.28125 54.6875 
L 9.28125 70.21875 
z
" id="DejaVuSans-116"/>
       <path d="M 8.5 21.578125 
L 8.5 54.6875 
L 17.484375 54.6875 
L 17.484375 21.921875 
Q 17.484375 14.15625 20.5 10.265625 
Q 23.53125 6.390625 29.59375 6.390625 
Q 36.859375 6.390625 41.078125 11.03125 
Q 45.3125 15.671875 45.3125 23.6875 
L 45.3125 54.6875 
L 54.296875 54.6875 
L 54.296875 0 
L 45.3125 0 
L 45.3125 8.40625 
Q 42.046875 3.421875 37.71875 1 
Q 33.40625 -1.421875 27.6875 -1.421875 
Q 18.265625 -1.421875 13.375 4.4375 
Q 8.5 10.296875 8.5 21.578125 
z
M 31.109375 56 
z
" id="DejaVuSans-117"/>
       <path d="M 45.40625 46.390625 
L 45.40625 75.984375 
L 54.390625 75.984375 
L 54.390625 0 
L 45.40625 0 
L 45.40625 8.203125 
Q 42.578125 3.328125 38.25 0.953125 
Q 33.9375 -1.421875 27.875 -1.421875 
Q 17.96875 -1.421875 11.734375 6.484375 
Q 5.515625 14.40625 5.515625 27.296875 
Q 5.515625 40.1875 11.734375 48.09375 
Q 17.96875 56 27.875 56 
Q 33.9375 56 38.25 53.625 
Q 42.578125 51.265625 45.40625 46.390625 
z
M 14.796875 27.296875 
Q 14.796875 17.390625 18.875 11.75 
Q 22.953125 6.109375 30.078125 6.109375 
Q 37.203125 6.109375 41.296875 11.75 
Q 45.40625 17.390625 45.40625 27.296875 
Q 45.40625 37.203125 41.296875 42.84375 
Q 37.203125 48.484375 30.078125 48.484375 
Q 22.953125 48.484375 18.875 42.84375 
Q 14.796875 37.203125 14.796875 27.296875 
z
" id="DejaVuSans-100"/>
       <path d="M 56.203125 29.59375 
L 56.203125 25.203125 
L 14.890625 25.203125 
Q 15.484375 15.921875 20.484375 11.0625 
Q 25.484375 6.203125 34.421875 6.203125 
Q 39.59375 6.203125 44.453125 7.46875 
Q 49.3125 8.734375 54.109375 11.28125 
L 54.109375 2.78125 
Q 49.265625 0.734375 44.1875 -0.34375 
Q 39.109375 -1.421875 33.890625 -1.421875 
Q 20.796875 -1.421875 13.15625 6.1875 
Q 5.515625 13.8125 5.515625 26.8125 
Q 5.515625 40.234375 12.765625 48.109375 
Q 20.015625 56 32.328125 56 
Q 43.359375 56 49.78125 48.890625 
Q 56.203125 41.796875 56.203125 29.59375 
z
M 47.21875 32.234375 
Q 47.125 39.59375 43.09375 43.984375 
Q 39.0625 48.390625 32.421875 48.390625 
Q 24.90625 48.390625 20.390625 44.140625 
Q 15.875 39.890625 15.1875 32.171875 
z
" id="DejaVuSans-101"/>
      </defs>
      <g style="fill:#4d4d4d;" transform="translate(54.213313 98.873128)scale(0.088 -0.088)">
       <use xlink:href="#DejaVuSans-52"/>
       <use x="63.623047" xlink:href="#DejaVuSans-53"/>
       <use x="127.246094" xlink:href="#DejaVuSans-54"/>
       <use x="190.869141" xlink:href="#DejaVuSans-45"/>
       <use x="226.953125" xlink:href="#DejaVuSans-52"/>
       <use x="290.576172" xlink:href="#DejaVuSans-56"/>
       <use x="354.199219" xlink:href="#DejaVuSans-52"/>
       <use x="417.822266" xlink:href="#DejaVuSans-32"/>
       <use x="449.609375" xlink:href="#DejaVuSans-108"/>
       <use x="477.392578" xlink:href="#DejaVuSans-111"/>
       <use x="538.574219" xlink:href="#DejaVuSans-119"/>
       <use x="620.361328" xlink:href="#DejaVuSans-32"/>
       <use x="652.148438" xlink:href="#DejaVuSans-109"/>
       <use x="749.560547" xlink:href="#DejaVuSans-97"/>
       <use x="810.839844" xlink:href="#DejaVuSans-103"/>
       <use x="874.316406" xlink:href="#DejaVuSans-110"/>
       <use x="937.695312" xlink:href="#DejaVuSans-105"/>
       <use x="965.478516" xlink:href="#DejaVuSans-116"/>
       <use x="1004.6875" xlink:href="#DejaVuSans-117"/>
       <use x="1068.066406" xlink:href="#DejaVuSans-100"/>
       <use x="1131.542969" xlink:href="#DejaVuSans-101"/>
      </g>
     </g>
    </g>
    <g id="ytick_3">
     <g id="line2d_8">
      <path d="M 164.152813 82.922927 
" style="fill:none;stroke:#333333;stroke-width:1.5;"/>
      <g>
       <use style="fill:#333333;stroke:#333333;" x="164.152813" xlink:href="#m2cc3a7ec54" y="82.922927"/>
      </g>
     </g>
     <g id="text_9">
      <!-- 456-484 noisy -->
      <defs>
       <path d="M 44.28125 53.078125 
L 44.28125 44.578125 
Q 40.484375 46.53125 36.375 47.5 
Q 32.28125 48.484375 27.875 48.484375 
Q 21.1875 48.484375 17.84375 46.4375 
Q 14.5 44.390625 14.5 40.28125 
Q 14.5 37.15625 16.890625 35.375 
Q 19.28125 33.59375 26.515625 31.984375 
L 29.59375 31.296875 
Q 39.15625 29.25 43.1875 25.515625 
Q 47.21875 21.78125 47.21875 15.09375 
Q 47.21875 7.46875 41.1875 3.015625 
Q 35.15625 -1.421875 24.609375 -1.421875 
Q 20.21875 -1.421875 15.453125 -0.5625 
Q 10.6875 0.296875 5.421875 2 
L 5.421875 11.28125 
Q 10.40625 8.6875 15.234375 7.390625 
Q 20.0625 6.109375 24.8125 6.109375 
Q 31.15625 6.109375 34.5625 8.28125 
Q 37.984375 10.453125 37.984375 14.40625 
Q 37.984375 18.0625 35.515625 20.015625 
Q 33.0625 21.96875 24.703125 23.78125 
L 21.578125 24.515625 
Q 13.234375 26.265625 9.515625 29.90625 
Q 5.8125 33.546875 5.8125 39.890625 
Q 5.8125 47.609375 11.28125 51.796875 
Q 16.75 56 26.8125 56 
Q 31.78125 56 36.171875 55.265625 
Q 40.578125 54.546875 44.28125 53.078125 
z
" id="DejaVuSans-115"/>
       <path d="M 32.171875 -5.078125 
Q 28.375 -14.84375 24.75 -17.8125 
Q 21.140625 -20.796875 15.09375 -20.796875 
L 7.90625 -20.796875 
L 7.90625 -13.28125 
L 13.1875 -13.28125 
Q 16.890625 -13.28125 18.9375 -11.515625 
Q 21 -9.765625 23.484375 -3.21875 
L 25.09375 0.875 
L 2.984375 54.6875 
L 12.5 54.6875 
L 29.59375 11.921875 
L 46.6875 54.6875 
L 56.203125 54.6875 
z
" id="DejaVuSans-121"/>
      </defs>
      <g style="fill:#4d4d4d;" transform="translate(96.438188 85.351177)scale(0.088 -0.088)">
       <use xlink:href="#DejaVuSans-52"/>
       <use x="63.623047" xlink:href="#DejaVuSans-53"/>
       <use x="127.246094" xlink:href="#DejaVuSans-54"/>
       <use x="190.869141" xlink:href="#DejaVuSans-45"/>
       <use x="226.953125" xlink:href="#DejaVuSans-52"/>
       <use x="290.576172" xlink:href="#DejaVuSans-56"/>
       <use x="354.199219" xlink:href="#DejaVuSans-52"/>
       <use x="417.822266" xlink:href="#DejaVuSans-32"/>
       <use x="449.609375" xlink:href="#DejaVuSans-110"/>
       <use x="512.988281" xlink:href="#DejaVuSans-111"/>
       <use x="574.169922" xlink:href="#DejaVuSans-105"/>
       <use x="601.953125" xlink:href="#DejaVuSans-115"/>
       <use x="654.052734" xlink:href="#DejaVuSans-121"/>
      </g>
     </g>
    </g>
    <g id="ytick_4">
     <g id="line2d_9">
      <path d="M 164.152813 69.400976 
" style="fill:none;stroke:#333333;stroke-width:1.5;"/>
      <g>
       <use style="fill:#333333;stroke:#333333;" x="164.152813" xlink:href="#m2cc3a7ec54" y="69.400976"/>
      </g>
     </g>
     <g id="text_10">
      <!-- 456-484 low magnitude - noisy -->
      <g style="fill:#4d4d4d;" transform="translate(22.245937 71.829226)scale(0.088 -0.088)">
       <use xlink:href="#DejaVuSans-52"/>
       <use x="63.623047" xlink:href="#DejaVuSans-53"/>
       <use x="127.246094" xlink:href="#DejaVuSans-54"/>
       <use x="190.869141" xlink:href="#DejaVuSans-45"/>
       <use x="226.953125" xlink:href="#DejaVuSans-52"/>
       <use x="290.576172" xlink:href="#DejaVuSans-56"/>
       <use x="354.199219" xlink:href="#DejaVuSans-52"/>
       <use x="417.822266" xlink:href="#DejaVuSans-32"/>
       <use x="449.609375" xlink:href="#DejaVuSans-108"/>
       <use x="477.392578" xlink:href="#DejaVuSans-111"/>
       <use x="538.574219" xlink:href="#DejaVuSans-119"/>
       <use x="620.361328" xlink:href="#DejaVuSans-32"/>
       <use x="652.148438" xlink:href="#DejaVuSans-109"/>
       <use x="749.560547" xlink:href="#DejaVuSans-97"/>
       <use x="810.839844" xlink:href="#DejaVuSans-103"/>
       <use x="874.316406" xlink:href="#DejaVuSans-110"/>
       <use x="937.695312" xlink:href="#DejaVuSans-105"/>
       <use x="965.478516" xlink:href="#DejaVuSans-116"/>
       <use x="1004.6875" xlink:href="#DejaVuSans-117"/>
       <use x="1068.066406" xlink:href="#DejaVuSans-100"/>
       <use x="1131.542969" xlink:href="#DejaVuSans-101"/>
       <use x="1193.066406" xlink:href="#DejaVuSans-32"/>
       <use x="1224.853516" xlink:href="#DejaVuSans-45"/>
       <use x="1260.9375" xlink:href="#DejaVuSans-32"/>
       <use x="1292.724609" xlink:href="#DejaVuSans-110"/>
       <use x="1356.103516" xlink:href="#DejaVuSans-111"/>
       <use x="1417.285156" xlink:href="#DejaVuSans-105"/>
       <use x="1445.068359" xlink:href="#DejaVuSans-115"/>
       <use x="1497.167969" xlink:href="#DejaVuSans-121"/>
      </g>
     </g>
    </g>
    <g id="ytick_5">
     <g id="line2d_10">
      <path d="M 164.152813 55.879024 
" style="fill:none;stroke:#333333;stroke-width:1.5;"/>
      <g>
       <use style="fill:#333333;stroke:#333333;" x="164.152813" xlink:href="#m2cc3a7ec54" y="55.879024"/>
      </g>
     </g>
     <g id="text_11">
      <!-- 443-450 -->
      <g style="fill:#4d4d4d;" transform="translate(122.433938 58.307274)scale(0.088 -0.088)">
       <use xlink:href="#DejaVuSans-52"/>
       <use x="63.623047" xlink:href="#DejaVuSans-52"/>
       <use x="127.246094" xlink:href="#DejaVuSans-51"/>
       <use x="190.869141" xlink:href="#DejaVuSans-45"/>
       <use x="226.953125" xlink:href="#DejaVuSans-52"/>
       <use x="290.576172" xlink:href="#DejaVuSans-53"/>
       <use x="354.199219" xlink:href="#DejaVuSans-48"/>
      </g>
     </g>
    </g>
    <g id="ytick_6">
     <g id="line2d_11">
      <path d="M 164.152813 42.357073 
" style="fill:none;stroke:#333333;stroke-width:1.5;"/>
      <g>
       <use style="fill:#333333;stroke:#333333;" x="164.152813" xlink:href="#m2cc3a7ec54" y="42.357073"/>
      </g>
     </g>
     <g id="text_12">
      <!-- core -->
      <defs>
       <path d="M 48.78125 52.59375 
L 48.78125 44.1875 
Q 44.96875 46.296875 41.140625 47.34375 
Q 37.3125 48.390625 33.40625 48.390625 
Q 24.65625 48.390625 19.8125 42.84375 
Q 14.984375 37.3125 14.984375 27.296875 
Q 14.984375 17.28125 19.8125 11.734375 
Q 24.65625 6.203125 33.40625 6.203125 
Q 37.3125 6.203125 41.140625 7.25 
Q 44.96875 8.296875 48.78125 10.40625 
L 48.78125 2.09375 
Q 45.015625 0.34375 40.984375 -0.53125 
Q 36.96875 -1.421875 32.421875 -1.421875 
Q 20.0625 -1.421875 12.78125 6.34375 
Q 5.515625 14.109375 5.515625 27.296875 
Q 5.515625 40.671875 12.859375 48.328125 
Q 20.21875 56 33.015625 56 
Q 37.15625 56 41.109375 55.140625 
Q 45.0625 54.296875 48.78125 52.59375 
z
" id="DejaVuSans-99"/>
       <path d="M 41.109375 46.296875 
Q 39.59375 47.171875 37.8125 47.578125 
Q 36.03125 48 33.890625 48 
Q 26.265625 48 22.1875 43.046875 
Q 18.109375 38.09375 18.109375 28.8125 
L 18.109375 0 
L 9.078125 0 
L 9.078125 54.6875 
L 18.109375 54.6875 
L 18.109375 46.1875 
Q 20.953125 51.171875 25.484375 53.578125 
Q 30.03125 56 36.53125 56 
Q 37.453125 56 38.578125 55.875 
Q 39.703125 55.765625 41.0625 55.515625 
z
" id="DejaVuSans-114"/>
      </defs>
      <g style="fill:#4d4d4d;" transform="translate(140.145313 44.785323)scale(0.088 -0.088)">
       <use xlink:href="#DejaVuSans-99"/>
       <use x="54.980469" xlink:href="#DejaVuSans-111"/>
       <use x="116.162109" xlink:href="#DejaVuSans-114"/>
       <use x="155.025391" xlink:href="#DejaVuSans-101"/>
      </g>
     </g>
    </g>
    <g id="ytick_7">
     <g id="line2d_12">
      <path d="M 164.152813 28.835122 
" style="fill:none;stroke:#333333;stroke-width:1.5;"/>
      <g>
       <use style="fill:#333333;stroke:#333333;" x="164.152813" xlink:href="#m2cc3a7ec54" y="28.835122"/>
      </g>
     </g>
     <g id="text_13">
      <!-- flat - noisy -->
      <defs>
       <path d="M 37.109375 75.984375 
L 37.109375 68.5 
L 28.515625 68.5 
Q 23.6875 68.5 21.796875 66.546875 
Q 19.921875 64.59375 19.921875 59.515625 
L 19.921875 54.6875 
L 34.71875 54.6875 
L 34.71875 47.703125 
L 19.921875 47.703125 
L 19.921875 0 
L 10.890625 0 
L 10.890625 47.703125 
L 2.296875 47.703125 
L 2.296875 54.6875 
L 10.890625 54.6875 
L 10.890625 58.5 
Q 10.890625 67.625 15.140625 71.796875 
Q 19.390625 75.984375 28.609375 75.984375 
z
" id="DejaVuSans-102"/>
      </defs>
      <g style="fill:#4d4d4d;" transform="translate(112.850188 31.263372)scale(0.088 -0.088)">
       <use xlink:href="#DejaVuSans-102"/>
       <use x="35.205078" xlink:href="#DejaVuSans-108"/>
       <use x="62.988281" xlink:href="#DejaVuSans-97"/>
       <use x="124.267578" xlink:href="#DejaVuSans-116"/>
       <use x="163.476562" xlink:href="#DejaVuSans-32"/>
       <use x="195.263672" xlink:href="#DejaVuSans-45"/>
       <use x="231.347656" xlink:href="#DejaVuSans-32"/>
       <use x="263.134766" xlink:href="#DejaVuSans-110"/>
       <use x="326.513672" xlink:href="#DejaVuSans-111"/>
       <use x="387.695312" xlink:href="#DejaVuSans-105"/>
       <use x="415.478516" xlink:href="#DejaVuSans-115"/>
       <use x="467.578125" xlink:href="#DejaVuSans-121"/>
      </g>
     </g>
    </g>
    <g id="ytick_8">
     <g id="line2d_13">
      <path d="M 164.152813 15.313171 
" style="fill:none;stroke:#333333;stroke-width:1.5;"/>
      <g>
       <use style="fill:#333333;stroke:#333333;" x="164.152813" xlink:href="#m2cc3a7ec54" y="15.313171"/>
      </g>
     </g>
     <g id="text_14">
      <!-- flat -->
      <g style="fill:#4d4d4d;" transform="translate(144.817563 17.741421)scale(0.088 -0.088)">
       <use xlink:href="#DejaVuSans-102"/>
       <use x="35.205078" xlink:href="#DejaVuSans-108"/>
       <use x="62.988281" xlink:href="#DejaVuSans-97"/>
       <use x="124.267578" xlink:href="#DejaVuSans-116"/>
      </g>
     </g>
    </g>
    <g id="text_15">
     <!-- escape map -->
     <defs>
      <path d="M 18.109375 8.203125 
L 18.109375 -20.796875 
L 9.078125 -20.796875 
L 9.078125 54.6875 
L 18.109375 54.6875 
L 18.109375 46.390625 
Q 20.953125 51.265625 25.265625 53.625 
Q 29.59375 56 35.59375 56 
Q 45.5625 56 51.78125 48.09375 
Q 58.015625 40.1875 58.015625 27.296875 
Q 58.015625 14.40625 51.78125 6.484375 
Q 45.5625 -1.421875 35.59375 -1.421875 
Q 29.59375 -1.421875 25.265625 0.953125 
Q 20.953125 3.328125 18.109375 8.203125 
z
M 48.6875 27.296875 
Q 48.6875 37.203125 44.609375 42.84375 
Q 40.53125 48.484375 33.40625 48.484375 
Q 26.265625 48.484375 22.1875 42.84375 
Q 18.109375 37.203125 18.109375 27.296875 
Q 18.109375 17.390625 22.1875 11.75 
Q 26.265625 6.109375 33.40625 6.109375 
Q 40.53125 6.109375 44.609375 11.75 
Q 48.6875 17.390625 48.6875 27.296875 
z
" id="DejaVuSans-112"/>
     </defs>
     <g transform="translate(15.558281 95.407266)rotate(-90)scale(0.11 -0.11)">
      <use xlink:href="#DejaVuSans-101"/>
      <use x="61.523438" xlink:href="#DejaVuSans-115"/>
      <use x="113.623047" xlink:href="#DejaVuSans-99"/>
      <use x="168.603516" xlink:href="#DejaVuSans-97"/>
      <use x="229.882812" xlink:href="#DejaVuSans-112"/>
      <use x="293.359375" xlink:href="#DejaVuSans-101"/>
      <use x="354.882812" xlink:href="#DejaVuSans-32"/>
      <use x="386.669922" xlink:href="#DejaVuSans-109"/>
      <use x="484.082031" xlink:href="#DejaVuSans-97"/>
      <use x="545.361328" xlink:href="#DejaVuSans-112"/>
     </g>
    </g>
   </g>
   <g id="PathCollection_1">
    <path clip-path="url(#pde45986662)" d="M 192.194043 113.11915 
C 192.899133 113.11915 193.57544 112.839014 194.074014 112.34044 
C 194.572588 111.841866 194.852724 111.165559 194.852724 110.460469 
C 194.852724 109.755378 194.572588 109.079072 194.074014 108.580498 
C 193.57544 108.081923 192.899133 107.801788 192.194043 107.801788 
C 191.488952 107.801788 190.812646 108.081923 190.314072 108.580498 
C 189.815497 109.079072 189.535362 109.755378 189.535362 110.460469 
C 189.535362 111.165559 189.815497 111.841866 190.314072 112.34044 
C 190.812646 112.839014 191.488952 113.11915 192.194043 113.11915 
z
" style="fill:#56b4e9;fill-opacity:0.25098;stroke:#56b4e9;stroke-opacity:0.25098;stroke-width:0.886227;"/>
    <path clip-path="url(#pde45986662)" d="M 256.003703 17.457551 
C 256.708793 17.457551 257.3851 17.177416 257.883674 16.678841 
C 258.382248 16.180267 258.662384 15.503961 258.662384 14.79887 
C 258.662384 14.09378 258.382248 13.417473 257.883674 12.918899 
C 257.3851 12.420325 256.708793 12.140189 256.003703 12.140189 
C 255.298613 12.140189 254.622306 12.420325 254.123732 12.918899 
C 253.625158 13.417473 253.345022 14.09378 253.345022 14.79887 
C 253.345022 15.503961 253.625158 16.180267 254.123732 16.678841 
C 254.622306 17.177416 255.298613 17.457551 256.003703 17.457551 
z
" style="fill:#56b4e9;fill-opacity:0.25098;stroke:#56b4e9;stroke-opacity:0.25098;stroke-width:0.886227;"/>
    <path clip-path="url(#pde45986662)" d="M 234.165035 100.20298 
C 234.870125 100.20298 235.546432 99.922844 236.045006 99.42427 
C 236.54358 98.925696 236.823716 98.249389 236.823716 97.544299 
C 236.823716 96.839208 236.54358 96.162902 236.045006 95.664328 
C 235.546432 95.165753 234.870125 94.885618 234.165035 94.885618 
C 233.459944 94.885618 232.783638 95.165753 232.285064 95.664328 
C 231.786489 96.162902 231.506354 96.839208 231.506354 97.544299 
C 231.506354 98.249389 231.786489 98.925696 232.285064 99.42427 
C 232.783638 99.922844 233.459944 100.20298 234.165035 100.20298 
z
" style="fill:#56b4e9;fill-opacity:0.25098;stroke:#56b4e9;stroke-opacity:0.25098;stroke-width:0.886227;"/>
    <path clip-path="url(#pde45986662)" d="M 211.885526 43.608351 
C 212.590616 43.608351 213.266923 43.328215 213.765497 42.829641 
C 214.264071 42.331067 214.544206 41.65476 214.544206 40.94967 
C 214.544206 40.24458 214.264071 39.568273 213.765497 39.069699 
C 213.266923 38.571125 212.590616 38.290989 211.885526 38.290989 
C 211.180435 38.290989 210.504129 38.571125 210.005555 39.069699 
C 209.50698 39.568273 209.226845 40.24458 209.226845 40.94967 
C 209.226845 41.65476 209.50698 42.331067 210.005555 42.829641 
C 210.504129 43.328215 211.180435 43.608351 211.885526 43.608351 
z
" style="fill:#56b4e9;fill-opacity:0.25098;stroke:#56b4e9;stroke-opacity:0.25098;stroke-width:0.886227;"/>
    <path clip-path="url(#pde45986662)" d="M 225.708188 18.428683 
C 226.413278 18.428683 227.089585 18.148548 227.588159 17.649974 
C 228.086733 17.1514 228.366868 16.475093 228.366868 15.770003 
C 228.366868 15.064912 228.086733 14.388606 227.588159 13.890031 
C 227.089585 13.391457 226.413278 13.111322 225.708188 13.111322 
C 225.003097 13.111322 224.326791 13.391457 223.828216 13.890031 
C 223.329642 14.388606 223.049507 15.064912 223.049507 15.770003 
C 223.049507 16.475093 223.329642 17.1514 223.828216 17.649974 
C 224.326791 18.148548 225.003097 18.428683 225.708188 18.428683 
z
" style="fill:#56b4e9;fill-opacity:0.25098;stroke:#56b4e9;stroke-opacity:0.25098;stroke-width:0.886227;"/>
    <path clip-path="url(#pde45986662)" d="M 239.979488 19.565486 
C 240.684578 19.565486 241.360885 19.285351 241.859459 18.786777 
C 242.358033 18.288202 242.638168 17.611896 242.638168 16.906805 
C 242.638168 16.201715 242.358033 15.525408 241.859459 15.026834 
C 241.360885 14.52826 240.684578 14.248125 239.979488 14.248125 
C 239.274397 14.248125 238.598091 14.52826 238.099516 15.026834 
C 237.600942 15.525408 237.320807 16.201715 237.320807 16.906805 
C 237.320807 17.611896 237.600942 18.288202 238.099516 18.786777 
C 238.598091 19.285351 239.274397 19.565486 239.979488 19.565486 
z
" style="fill:#56b4e9;fill-opacity:0.25098;stroke:#56b4e9;stroke-opacity:0.25098;stroke-width:0.886227;"/>
    <path clip-path="url(#pde45986662)" d="M 216.858883 100.958204 
C 217.563973 100.958204 218.24028 100.678069 218.738854 100.179495 
C 219.237428 99.68092 219.517564 99.004614 219.517564 98.299523 
C 219.517564 97.594433 219.237428 96.918126 218.738854 96.419552 
C 218.24028 95.920978 217.563973 95.640843 216.858883 95.640843 
C 216.153792 95.640843 215.477486 95.920978 214.978912 96.419552 
C 214.480337 96.918126 214.200202 97.594433 214.200202 98.299523 
C 214.200202 99.004614 214.480337 99.68092 214.978912 100.179495 
C 215.477486 100.678069 216.153792 100.958204 216.858883 100.958204 
z
" style="fill:#56b4e9;fill-opacity:0.25098;stroke:#56b4e9;stroke-opacity:0.25098;stroke-width:0.886227;"/>
    <path clip-path="url(#pde45986662)" d="M 215.740582 113.799158 
C 216.445672 113.799158 217.121979 113.519022 217.620553 113.020448 
C 218.119127 112.521874 218.399263 111.845567 218.399263 111.140477 
C 218.399263 110.435387 218.119127 109.75908 217.620553 109.260506 
C 217.121979 108.761931 216.445672 108.481796 215.740582 108.481796 
C 215.035492 108.481796 214.359185 108.761931 213.860611 109.260506 
C 213.362037 109.75908 213.081901 110.435387 213.081901 111.140477 
C 213.081901 111.845567 213.362037 112.521874 213.860611 113.020448 
C 214.359185 113.519022 215.035492 113.799158 215.740582 113.799158 
z
" style="fill:#56b4e9;fill-opacity:0.25098;stroke:#56b4e9;stroke-opacity:0.25098;stroke-width:0.886227;"/>
    <path clip-path="url(#pde45986662)" d="M 213.719603 73.357404 
C 214.424693 73.357404 215.101 73.077269 215.599574 72.578695 
C 216.098148 72.080121 216.378284 71.403814 216.378284 70.698724 
C 216.378284 69.993633 216.098148 69.317327 215.599574 68.818752 
C 215.101 68.320178 214.424693 68.040043 213.719603 68.040043 
C 213.014512 68.040043 212.338206 68.320178 211.839632 68.818752 
C 211.341057 69.317327 211.060922 69.993633 211.060922 70.698724 
C 211.060922 71.403814 211.341057 72.080121 211.839632 72.578695 
C 212.338206 73.077269 213.014512 73.357404 213.719603 73.357404 
z
" style="fill:#56b4e9;fill-opacity:0.25098;stroke:#56b4e9;stroke-opacity:0.25098;stroke-width:0.886227;"/>
    <path clip-path="url(#pde45986662)" d="M 222.061498 18.289404 
C 222.766589 18.289404 223.442895 18.009269 223.94147 17.510695 
C 224.440044 17.012121 224.720179 16.335814 224.720179 15.630724 
C 224.720179 14.925633 224.440044 14.249327 223.94147 13.750752 
C 223.442895 13.252178 222.766589 12.972043 222.061498 12.972043 
C 221.356408 12.972043 220.680101 13.252178 220.181527 13.750752 
C 219.682953 14.249327 219.402818 14.925633 219.402818 15.630724 
C 219.402818 16.335814 219.682953 17.012121 220.181527 17.510695 
C 220.680101 18.009269 221.356408 18.289404 222.061498 18.289404 
z
" style="fill:#56b4e9;fill-opacity:0.25098;stroke:#56b4e9;stroke-opacity:0.25098;stroke-width:0.886227;"/>
    <path clip-path="url(#pde45986662)" d="M 200.0779 43.283451 
C 200.78299 43.283451 201.459297 43.003315 201.957871 42.504741 
C 202.456445 42.006167 202.736581 41.32986 202.736581 40.62477 
C 202.736581 39.919679 202.456445 39.243373 201.957871 38.744799 
C 201.459297 38.246224 200.78299 37.966089 200.0779 37.966089 
C 199.372809 37.966089 198.696503 38.246224 198.197929 38.744799 
C 197.699354 39.243373 197.419219 39.919679 197.419219 40.62477 
C 197.419219 41.32986 197.699354 42.006167 198.197929 42.504741 
C 198.696503 43.003315 199.372809 43.283451 200.0779 43.283451 
z
" style="fill:#56b4e9;fill-opacity:0.25098;stroke:#56b4e9;stroke-opacity:0.25098;stroke-width:0.886227;"/>
    <path clip-path="url(#pde45986662)" d="M 218.14245 19.304121 
C 218.847541 19.304121 219.523848 19.023986 220.022422 18.525411 
C 220.520996 18.026837 220.801131 17.350531 220.801131 16.64544 
C 220.801131 15.94035 220.520996 15.264043 220.022422 14.765469 
C 219.523848 14.266895 218.847541 13.986759 218.14245 13.986759 
C 217.43736 13.986759 216.761053 14.266895 216.262479 14.765469 
C 215.763905 15.264043 215.48377 15.94035 215.48377 16.64544 
C 215.48377 17.350531 215.763905 18.026837 216.262479 18.525411 
C 216.761053 19.023986 217.43736 19.304121 218.14245 19.304121 
z
" style="fill:#56b4e9;fill-opacity:0.25098;stroke:#56b4e9;stroke-opacity:0.25098;stroke-width:0.886227;"/>
    <path clip-path="url(#pde45986662)" d="M 231.909764 17.869427 
C 232.614854 17.869427 233.291161 17.589292 233.789735 17.090718 
C 234.288309 16.592143 234.568445 15.915837 234.568445 15.210746 
C 234.568445 14.505656 234.288309 13.829349 233.789735 13.330775 
C 233.291161 12.832201 232.614854 12.552066 231.909764 12.552066 
C 231.204673 12.552066 230.528367 12.832201 230.029793 13.330775 
C 229.531218 13.829349 229.251083 14.505656 229.251083 15.210746 
C 229.251083 15.915837 229.531218 16.592143 230.029793 17.090718 
C 230.528367 17.589292 231.204673 17.869427 231.909764 17.869427 
z
" style="fill:#56b4e9;fill-opacity:0.25098;stroke:#56b4e9;stroke-opacity:0.25098;stroke-width:0.886227;"/>
    <path clip-path="url(#pde45986662)" d="M 212.192255 113.504695 
C 212.897345 113.504695 213.573652 113.22456 214.072226 112.725985 
C 214.5708 112.227411 214.850935 111.551105 214.850935 110.846014 
C 214.850935 110.140924 214.5708 109.464617 214.072226 108.966043 
C 213.573652 108.467469 212.897345 108.187333 212.192255 108.187333 
C 211.487164 108.187333 210.810858 108.467469 210.312284 108.966043 
C 209.813709 109.464617 209.533574 110.140924 209.533574 110.846014 
C 209.533574 111.551105 209.813709 112.227411 210.312284 112.725985 
C 210.810858 113.22456 211.487164 113.504695 212.192255 113.504695 
z
" style="fill:#56b4e9;fill-opacity:0.25098;stroke:#56b4e9;stroke-opacity:0.25098;stroke-width:0.886227;"/>
    <path clip-path="url(#pde45986662)" d="M 218.551361 112.914639 
C 219.256451 112.914639 219.932758 112.634504 220.431332 112.135929 
C 220.929906 111.637355 221.210041 110.961049 221.210041 110.255958 
C 221.210041 109.550868 220.929906 108.874561 220.431332 108.375987 
C 219.932758 107.877413 219.256451 107.597277 218.551361 107.597277 
C 217.84627 107.597277 217.169964 107.877413 216.671389 108.375987 
C 216.172815 108.874561 215.89268 109.550868 215.89268 110.255958 
C 215.89268 110.961049 216.172815 111.637355 216.671389 112.135929 
C 217.169964 112.634504 217.84627 112.914639 218.551361 112.914639 
z
" style="fill:#56b4e9;fill-opacity:0.25098;stroke:#56b4e9;stroke-opacity:0.25098;stroke-width:0.886227;"/>
    <path clip-path="url(#pde45986662)" d="M 245.166078 19.239947 
C 245.871169 19.239947 246.547475 18.959812 247.046049 18.461238 
C 247.544624 17.962663 247.824759 17.286357 247.824759 16.581266 
C 247.824759 15.876176 247.544624 15.199869 247.046049 14.701295 
C 246.547475 14.202721 245.871169 13.922586 245.166078 13.922586 
C 244.460988 13.922586 243.784681 14.202721 243.286107 14.701295 
C 242.787533 15.199869 242.507397 15.876176 242.507397 16.581266 
C 242.507397 17.286357 242.787533 17.962663 243.286107 18.461238 
C 243.784681 18.959812 244.460988 19.239947 245.166078 19.239947 
z
" style="fill:#56b4e9;fill-opacity:0.25098;stroke:#56b4e9;stroke-opacity:0.25098;stroke-width:0.886227;"/>
    <path clip-path="url(#pde45986662)" d="M 226.691343 18.056309 
C 227.396434 18.056309 228.07274 17.776174 228.571314 17.2776 
C 229.069889 16.779025 229.350024 16.102719 229.350024 15.397628 
C 229.350024 14.692538 229.069889 14.016231 228.571314 13.517657 
C 228.07274 13.019083 227.396434 12.738948 226.691343 12.738948 
C 225.986253 12.738948 225.309946 13.019083 224.811372 13.517657 
C 224.312798 14.016231 224.032662 14.692538 224.032662 15.397628 
C 224.032662 16.102719 224.312798 16.779025 224.811372 17.2776 
C 225.309946 17.776174 225.986253 18.056309 226.691343 18.056309 
z
" style="fill:#56b4e9;fill-opacity:0.25098;stroke:#56b4e9;stroke-opacity:0.25098;stroke-width:0.886227;"/>
    <path clip-path="url(#pde45986662)" d="M 226.420806 18.963159 
C 227.125896 18.963159 227.802203 18.683024 228.300777 18.18445 
C 228.799352 17.685876 229.079487 17.009569 229.079487 16.304479 
C 229.079487 15.599388 228.799352 14.923082 228.300777 14.424507 
C 227.802203 13.925933 227.125896 13.645798 226.420806 13.645798 
C 225.715716 13.645798 225.039409 13.925933 224.540835 14.424507 
C 224.042261 14.923082 223.762125 15.599388 223.762125 16.304479 
C 223.762125 17.009569 224.042261 17.685876 224.540835 18.18445 
C 225.039409 18.683024 225.715716 18.963159 226.420806 18.963159 
z
" style="fill:#56b4e9;fill-opacity:0.25098;stroke:#56b4e9;stroke-opacity:0.25098;stroke-width:0.886227;"/>
    <path clip-path="url(#pde45986662)" d="M 240.449145 18.161785 
C 241.154235 18.161785 241.830542 17.881649 242.329116 17.383075 
C 242.82769 16.884501 243.107826 16.208194 243.107826 15.503104 
C 243.107826 14.798013 242.82769 14.121707 242.329116 13.623133 
C 241.830542 13.124558 241.154235 12.844423 240.449145 12.844423 
C 239.744055 12.844423 239.067748 13.124558 238.569174 13.623133 
C 238.0706 14.121707 237.790464 14.798013 237.790464 15.503104 
C 237.790464 16.208194 238.0706 16.884501 238.569174 17.383075 
C 239.067748 17.881649 239.744055 18.161785 240.449145 18.161785 
z
" style="fill:#56b4e9;fill-opacity:0.25098;stroke:#56b4e9;stroke-opacity:0.25098;stroke-width:0.886227;"/>
    <path clip-path="url(#pde45986662)" d="M 245.810701 114.247173 
C 246.515792 114.247173 247.192099 113.967038 247.690673 113.468463 
C 248.189247 112.969889 248.469382 112.293583 248.469382 111.588492 
C 248.469382 110.883402 248.189247 110.207095 247.690673 109.708521 
C 247.192099 109.209947 246.515792 108.929811 245.810701 108.929811 
C 245.105611 108.929811 244.429304 109.209947 243.93073 109.708521 
C 243.432156 110.207095 243.152021 110.883402 243.152021 111.588492 
C 243.152021 112.293583 243.432156 112.969889 243.93073 113.468463 
C 244.429304 113.967038 245.105611 114.247173 245.810701 114.247173 
z
" style="fill:#e69f00;fill-opacity:0.25098;stroke:#e69f00;stroke-opacity:0.25098;stroke-width:0.886227;"/>
    <path clip-path="url(#pde45986662)" d="M 231.151004 111.628086 
C 231.856094 111.628086 232.532401 111.34795 233.030975 110.849376 
C 233.529549 110.350802 233.809685 109.674495 233.809685 108.969405 
C 233.809685 108.264314 233.529549 107.588008 233.030975 107.089434 
C 232.532401 106.590859 231.856094 106.310724 231.151004 106.310724 
C 230.445914 106.310724 229.769607 106.590859 229.271033 107.089434 
C 228.772458 107.588008 228.492323 108.264314 228.492323 108.969405 
C 228.492323 109.674495 228.772458 110.350802 229.271033 110.849376 
C 229.769607 111.34795 230.445914 111.628086 231.151004 111.628086 
z
" style="fill:#e69f00;fill-opacity:0.25098;stroke:#e69f00;stroke-opacity:0.25098;stroke-width:0.886227;"/>
    <path clip-path="url(#pde45986662)" d="M 215.84165 74.064911 
C 216.54674 74.064911 217.223047 73.784776 217.721621 73.286202 
C 218.220195 72.787627 218.50033 72.111321 218.50033 71.40623 
C 218.50033 70.70114 218.220195 70.024833 217.721621 69.526259 
C 217.223047 69.027685 216.54674 68.74755 215.84165 68.74755 
C 215.136559 68.74755 214.460253 69.027685 213.961678 69.526259 
C 213.463104 70.024833 213.182969 70.70114 213.182969 71.40623 
C 213.182969 72.111321 213.463104 72.787627 213.961678 73.286202 
C 214.460253 73.784776 215.136559 74.064911 215.84165 74.064911 
z
" style="fill:#e69f00;fill-opacity:0.25098;stroke:#e69f00;stroke-opacity:0.25098;stroke-width:0.886227;"/>
    <path clip-path="url(#pde45986662)" d="M 216.941326 111.676647 
C 217.646416 111.676647 218.322723 111.396512 218.821297 110.897937 
C 219.319871 110.399363 219.600006 109.723057 219.600006 109.017966 
C 219.600006 108.312876 219.319871 107.636569 218.821297 107.137995 
C 218.322723 106.639421 217.646416 106.359285 216.941326 106.359285 
C 216.236235 106.359285 215.559929 106.639421 215.061354 107.137995 
C 214.56278 107.636569 214.282645 108.312876 214.282645 109.017966 
C 214.282645 109.723057 214.56278 110.399363 215.061354 110.897937 
C 215.559929 111.396512 216.236235 111.676647 216.941326 111.676647 
z
" style="fill:#e69f00;fill-opacity:0.25098;stroke:#e69f00;stroke-opacity:0.25098;stroke-width:0.886227;"/>
    <path clip-path="url(#pde45986662)" d="M 190.843436 85.286295 
C 191.548526 85.286295 192.224833 85.006159 192.723407 84.507585 
C 193.221981 84.009011 193.502117 83.332704 193.502117 82.627614 
C 193.502117 81.922524 193.221981 81.246217 192.723407 80.747643 
C 192.224833 80.249069 191.548526 79.968933 190.843436 79.968933 
C 190.138346 79.968933 189.462039 80.249069 188.963465 80.747643 
C 188.46489 81.246217 188.184755 81.922524 188.184755 82.627614 
C 188.184755 83.332704 188.46489 84.009011 188.963465 84.507585 
C 189.462039 85.006159 190.138346 85.286295 190.843436 85.286295 
z
" style="fill:#e69f00;fill-opacity:0.25098;stroke:#e69f00;stroke-opacity:0.25098;stroke-width:0.886227;"/>
    <path clip-path="url(#pde45986662)" d="M 239.437162 112.096209 
C 240.142253 112.096209 240.818559 111.816073 241.317134 111.317499 
C 241.815708 110.818925 242.095843 110.142618 242.095843 109.437528 
C 242.095843 108.732437 241.815708 108.056131 241.317134 107.557557 
C 240.818559 107.058982 240.142253 106.778847 239.437162 106.778847 
C 238.732072 106.778847 238.055765 107.058982 237.557191 107.557557 
C 237.058617 108.056131 236.778482 108.732437 236.778482 109.437528 
C 236.778482 110.142618 237.058617 110.818925 237.557191 111.317499 
C 238.055765 111.816073 238.732072 112.096209 239.437162 112.096209 
z
" style="fill:#e69f00;fill-opacity:0.25098;stroke:#e69f00;stroke-opacity:0.25098;stroke-width:0.886227;"/>
    <path clip-path="url(#pde45986662)" d="M 220.460777 114.031443 
C 221.165867 114.031443 221.842174 113.751307 222.340748 113.252733 
C 222.839322 112.754159 223.119458 112.077852 223.119458 111.372762 
C 223.119458 110.667672 222.839322 109.991365 222.340748 109.492791 
C 221.842174 108.994217 221.165867 108.714081 220.460777 108.714081 
C 219.755687 108.714081 219.07938 108.994217 218.580806 109.492791 
C 218.082232 109.991365 217.802096 110.667672 217.802096 111.372762 
C 217.802096 112.077852 218.082232 112.754159 218.580806 113.252733 
C 219.07938 113.751307 219.755687 114.031443 220.460777 114.031443 
z
" style="fill:#e69f00;fill-opacity:0.25098;stroke:#e69f00;stroke-opacity:0.25098;stroke-width:0.886227;"/>
    <path clip-path="url(#pde45986662)" d="M 214.466651 113.733035 
C 215.171741 113.733035 215.848048 113.4529 216.346622 112.954325 
C 216.845196 112.455751 217.125332 111.779445 217.125332 111.074354 
C 217.125332 110.369264 216.845196 109.692957 216.346622 109.194383 
C 215.848048 108.695809 215.171741 108.415673 214.466651 108.415673 
C 213.761561 108.415673 213.085254 108.695809 212.58668 109.194383 
C 212.088106 109.692957 211.80797 110.369264 211.80797 111.074354 
C 211.80797 111.779445 212.088106 112.455751 212.58668 112.954325 
C 213.085254 113.4529 213.761561 113.733035 214.466651 113.733035 
z
" style="fill:#e69f00;fill-opacity:0.25098;stroke:#e69f00;stroke-opacity:0.25098;stroke-width:0.886227;"/>
    <path clip-path="url(#pde45986662)" d="M 209.231755 19.912299 
C 209.936846 19.912299 210.613153 19.632164 211.111727 19.13359 
C 211.610301 18.635016 211.890436 17.958709 211.890436 17.253619 
C 211.890436 16.548528 211.610301 15.872222 211.111727 15.373648 
C 210.613153 14.875073 209.936846 14.594938 209.231755 14.594938 
C 208.526665 14.594938 207.850358 14.875073 207.351784 15.373648 
C 206.85321 15.872222 206.573075 16.548528 206.573075 17.253619 
C 206.573075 17.958709 206.85321 18.635016 207.351784 19.13359 
C 207.850358 19.632164 208.526665 19.912299 209.231755 19.912299 
z
" style="fill:#e69f00;fill-opacity:0.25098;stroke:#e69f00;stroke-opacity:0.25098;stroke-width:0.886227;"/>
    <path clip-path="url(#pde45986662)" d="M 207.558497 114.361501 
C 208.263588 114.361501 208.939894 114.081365 209.438468 113.582791 
C 209.937043 113.084217 210.217178 112.40791 210.217178 111.70282 
C 210.217178 110.997729 209.937043 110.321423 209.438468 109.822849 
C 208.939894 109.324274 208.263588 109.044139 207.558497 109.044139 
C 206.853407 109.044139 206.1771 109.324274 205.678526 109.822849 
C 205.179952 110.321423 204.899816 110.997729 204.899816 111.70282 
C 204.899816 112.40791 205.179952 113.084217 205.678526 113.582791 
C 206.1771 114.081365 206.853407 114.361501 207.558497 114.361501 
z
" style="fill:#e69f00;fill-opacity:0.25098;stroke:#e69f00;stroke-opacity:0.25098;stroke-width:0.886227;"/>
    <path clip-path="url(#pde45986662)" d="M 211.62161 111.331903 
C 212.326701 111.331903 213.003007 111.051767 213.501581 110.553193 
C 214.000156 110.054619 214.280291 109.378312 214.280291 108.673222 
C 214.280291 107.968132 214.000156 107.291825 213.501581 106.793251 
C 213.003007 106.294677 212.326701 106.014541 211.62161 106.014541 
C 210.91652 106.014541 210.240213 106.294677 209.741639 106.793251 
C 209.243065 107.291825 208.962929 107.968132 208.962929 108.673222 
C 208.962929 109.378312 209.243065 110.054619 209.741639 110.553193 
C 210.240213 111.051767 210.91652 111.331903 211.62161 111.331903 
z
" style="fill:#e69f00;fill-opacity:0.25098;stroke:#e69f00;stroke-opacity:0.25098;stroke-width:0.886227;"/>
    <path clip-path="url(#pde45986662)" d="M 178.364925 114.494692 
C 179.070016 114.494692 179.746322 114.214557 180.244896 113.715983 
C 180.743471 113.217409 181.023606 112.541102 181.023606 111.836012 
C 181.023606 111.130921 180.743471 110.454615 180.244896 109.95604 
C 179.746322 109.457466 179.070016 109.177331 178.364925 109.177331 
C 177.659835 109.177331 176.983528 109.457466 176.484954 109.95604 
C 175.98638 110.454615 175.706244 111.130921 175.706244 111.836012 
C 175.706244 112.541102 175.98638 113.217409 176.484954 113.715983 
C 176.983528 114.214557 177.659835 114.494692 178.364925 114.494692 
z
" style="fill:#e69f00;fill-opacity:0.25098;stroke:#e69f00;stroke-opacity:0.25098;stroke-width:0.886227;"/>
    <path clip-path="url(#pde45986662)" d="M 177.977737 57.319377 
C 178.682827 57.319377 179.359134 57.039242 179.857708 56.540668 
C 180.356282 56.042094 180.636417 55.365787 180.636417 54.660697 
C 180.636417 53.955606 180.356282 53.2793 179.857708 52.780725 
C 179.359134 52.282151 178.682827 52.002016 177.977737 52.002016 
C 177.272646 52.002016 176.59634 52.282151 176.097765 52.780725 
C 175.599191 53.2793 175.319056 53.955606 175.319056 54.660697 
C 175.319056 55.365787 175.599191 56.042094 176.097765 56.540668 
C 176.59634 57.039242 177.272646 57.319377 177.977737 57.319377 
z
" style="fill:#e69f00;fill-opacity:0.25098;stroke:#e69f00;stroke-opacity:0.25098;stroke-width:0.886227;"/>
    <path clip-path="url(#pde45986662)" d="M 270.680085 57.409436 
C 271.385176 57.409436 272.061482 57.129301 272.560056 56.630727 
C 273.058631 56.132153 273.338766 55.455846 273.338766 54.750756 
C 273.338766 54.045665 273.058631 53.369358 272.560056 52.870784 
C 272.061482 52.37221 271.385176 52.092075 270.680085 52.092075 
C 269.974995 52.092075 269.298688 52.37221 268.800114 52.870784 
C 268.30154 53.369358 268.021404 54.045665 268.021404 54.750756 
C 268.021404 55.455846 268.30154 56.132153 268.800114 56.630727 
C 269.298688 57.129301 269.974995 57.409436 270.680085 57.409436 
z
" style="fill:#e69f00;fill-opacity:0.25098;stroke:#e69f00;stroke-opacity:0.25098;stroke-width:0.886227;"/>
    <path clip-path="url(#pde45986662)" d="M 183.378051 18.202768 
C 184.083141 18.202768 184.759448 17.922632 185.258022 17.424058 
C 185.756596 16.925484 186.036732 16.249177 186.036732 15.544087 
C 186.036732 14.838996 185.756596 14.16269 185.258022 13.664116 
C 184.759448 13.165541 184.083141 12.885406 183.378051 12.885406 
C 182.67296 12.885406 181.996654 13.165541 181.49808 13.664116 
C 180.999505 14.16269 180.71937 14.838996 180.71937 15.544087 
C 180.71937 16.249177 180.999505 16.925484 181.49808 17.424058 
C 181.996654 17.922632 182.67296 18.202768 183.378051 18.202768 
z
" style="fill:#e69f00;fill-opacity:0.25098;stroke:#e69f00;stroke-opacity:0.25098;stroke-width:0.886227;"/>
    <path clip-path="url(#pde45986662)" d="M 216.79858 58.740854 
C 217.50367 58.740854 218.179977 58.460718 218.678551 57.962144 
C 219.177125 57.46357 219.457261 56.787263 219.457261 56.082173 
C 219.457261 55.377083 219.177125 54.700776 218.678551 54.202202 
C 218.179977 53.703628 217.50367 53.423492 216.79858 53.423492 
C 216.093489 53.423492 215.417183 53.703628 214.918609 54.202202 
C 214.420034 54.700776 214.139899 55.377083 214.139899 56.082173 
C 214.139899 56.787263 214.420034 57.46357 214.918609 57.962144 
C 215.417183 58.460718 216.093489 58.740854 216.79858 58.740854 
z
" style="fill:#e69f00;fill-opacity:0.25098;stroke:#e69f00;stroke-opacity:0.25098;stroke-width:0.886227;"/>
    <path clip-path="url(#pde45986662)" d="M 197.815799 58.19045 
C 198.520889 58.19045 199.197196 57.910314 199.69577 57.41174 
C 200.194344 56.913166 200.474479 56.236859 200.474479 55.531769 
C 200.474479 54.826679 200.194344 54.150372 199.69577 53.651798 
C 199.197196 53.153224 198.520889 52.873088 197.815799 52.873088 
C 197.110708 52.873088 196.434402 53.153224 195.935827 53.651798 
C 195.437253 54.150372 195.157118 54.826679 195.157118 55.531769 
C 195.157118 56.236859 195.437253 56.913166 195.935827 57.41174 
C 196.434402 57.910314 197.110708 58.19045 197.815799 58.19045 
z
" style="fill:#e69f00;fill-opacity:0.25098;stroke:#e69f00;stroke-opacity:0.25098;stroke-width:0.886227;"/>
    <path clip-path="url(#pde45986662)" d="M 169.22554 58.919284 
C 169.93063 58.919284 170.606937 58.639149 171.105511 58.140574 
C 171.604085 57.642 171.884221 56.965694 171.884221 56.260603 
C 171.884221 55.555513 171.604085 54.879206 171.105511 54.380632 
C 170.606937 53.882058 169.93063 53.601922 169.22554 53.601922 
C 168.520449 53.601922 167.844143 53.882058 167.345569 54.380632 
C 166.846994 54.879206 166.566859 55.555513 166.566859 56.260603 
C 166.566859 56.965694 166.846994 57.642 167.345569 58.140574 
C 167.844143 58.639149 168.520449 58.919284 169.22554 58.919284 
z
" style="fill:#e69f00;fill-opacity:0.25098;stroke:#e69f00;stroke-opacity:0.25098;stroke-width:0.886227;"/>
    <path clip-path="url(#pde45986662)" d="M 199.237544 57.201277 
C 199.942635 57.201277 200.618941 56.921142 201.117515 56.422567 
C 201.61609 55.923993 201.896225 55.247687 201.896225 54.542596 
C 201.896225 53.837506 201.61609 53.161199 201.117515 52.662625 
C 200.618941 52.164051 199.942635 51.883915 199.237544 51.883915 
C 198.532454 51.883915 197.856147 52.164051 197.357573 52.662625 
C 196.858999 53.161199 196.578864 53.837506 196.578864 54.542596 
C 196.578864 55.247687 196.858999 55.923993 197.357573 56.422567 
C 197.856147 56.921142 198.532454 57.201277 199.237544 57.201277 
z
" style="fill:#e69f00;fill-opacity:0.25098;stroke:#e69f00;stroke-opacity:0.25098;stroke-width:0.886227;"/>
    <path clip-path="url(#pde45986662)" d="M 201.036391 46.607624 
C 201.741482 46.607624 202.417788 46.327489 202.916363 45.828915 
C 203.414937 45.330341 203.695072 44.654034 203.695072 43.948944 
C 203.695072 43.243853 203.414937 42.567546 202.916363 42.068972 
C 202.417788 41.570398 201.741482 41.290263 201.036391 41.290263 
C 200.331301 41.290263 199.654994 41.570398 199.15642 42.068972 
C 198.657846 42.567546 198.377711 43.243853 198.377711 43.948944 
C 198.377711 44.654034 198.657846 45.330341 199.15642 45.828915 
C 199.654994 46.327489 200.331301 46.607624 201.036391 46.607624 
z
" style="fill:#e69f00;fill-opacity:0.25098;stroke:#e69f00;stroke-opacity:0.25098;stroke-width:0.886227;"/>
    <path clip-path="url(#pde45986662)" d="M 200.124877 18.157733 
C 200.829968 18.157733 201.506274 17.877598 202.004849 17.379024 
C 202.503423 16.88045 202.783558 16.204143 202.783558 15.499052 
C 202.783558 14.793962 202.503423 14.117655 202.004849 13.619081 
C 201.506274 13.120507 200.829968 12.840372 200.124877 12.840372 
C 199.419787 12.840372 198.74348 13.120507 198.244906 13.619081 
C 197.746332 14.117655 197.466197 14.793962 197.466197 15.499052 
C 197.466197 16.204143 197.746332 16.88045 198.244906 17.379024 
C 198.74348 17.877598 199.419787 18.157733 200.124877 18.157733 
z
" style="fill:#e69f00;fill-opacity:0.25098;stroke:#e69f00;stroke-opacity:0.25098;stroke-width:0.886227;"/>
    <path clip-path="url(#pde45986662)" d="M 201.966173 100.784998 
C 202.671264 100.784998 203.34757 100.504862 203.846145 100.006288 
C 204.344719 99.507714 204.624854 98.831407 204.624854 98.126317 
C 204.624854 97.421227 204.344719 96.74492 203.846145 96.246346 
C 203.34757 95.747772 202.671264 95.467636 201.966173 95.467636 
C 201.261083 95.467636 200.584776 95.747772 200.086202 96.246346 
C 199.587628 96.74492 199.307493 97.421227 199.307493 98.126317 
C 199.307493 98.831407 199.587628 99.507714 200.086202 100.006288 
C 200.584776 100.504862 201.261083 100.784998 201.966173 100.784998 
z
" style="fill:#e69f00;fill-opacity:0.25098;stroke:#e69f00;stroke-opacity:0.25098;stroke-width:0.886227;"/>
   </g>
   <g id="patch_3">
    <path d="M 164.152813 118.08 
L 164.152813 7.2 
" style="fill:none;stroke:#000000;stroke-linecap:square;stroke-linejoin:miter;"/>
   </g>
   <g id="patch_4">
    <path d="M 164.152813 118.08 
L 275.752813 118.08 
" style="fill:none;stroke:#000000;stroke-linecap:square;stroke-linejoin:miter;"/>
   </g>
   <g id="patch_5">
    <path d="M 282.952812 98.635937 
L 384.318188 98.635937 
L 384.318188 25.204062 
L 282.952812 25.204062 
z
" style="fill:#ffffff;"/>
   </g>
   <g id="text_16">
    <!-- sample_type -->
    <g transform="translate(295.152812 48.644687)scale(0.11 -0.11)">
     <use xlink:href="#DejaVuSans-115"/>
     <use x="52.099609" xlink:href="#DejaVuSans-97"/>
     <use x="113.378906" xlink:href="#DejaVuSans-109"/>
     <use x="210.791016" xlink:href="#DejaVuSans-112"/>
     <use x="274.267578" xlink:href="#DejaVuSans-108"/>
     <use x="302.050781" xlink:href="#DejaVuSans-101"/>
     <use x="363.574219" xlink:href="#DejaVuSans-95"/>
     <use x="413.574219" xlink:href="#DejaVuSans-116"/>
     <use x="452.783203" xlink:href="#DejaVuSans-121"/>
     <use x="511.962891" xlink:href="#DejaVuSans-112"/>
     <use x="575.439453" xlink:href="#DejaVuSans-101"/>
    </g>
   </g>
   <g id="patch_6">
    <path clip-path="url(#p768d02c13a)" d="M 295.152812 68.595937 
L 310.992812 68.595937 
L 310.992812 52.755937 
L 295.152812 52.755937 
z
" style="fill:none;"/>
   </g>
   <g id="line2d_14">
    <path clip-path="url(#p768d02c13a)" d="M 303.072812 60.675937 
" style="fill:none;stroke:#1f77b4;stroke-linecap:square;stroke-opacity:0.25;stroke-width:1.5;"/>
    <defs>
     <path d="M 0 2.658681 
C 0.70509 2.658681 1.381397 2.378545 1.879971 1.879971 
C 2.378545 1.381397 2.658681 0.70509 2.658681 0 
C 2.658681 -0.70509 2.378545 -1.381397 1.879971 -1.879971 
C 1.381397 -2.378545 0.70509 -2.658681 0 -2.658681 
C -0.70509 -2.658681 -1.381397 -2.378545 -1.879971 -1.879971 
C -2.378545 -1.381397 -2.658681 -0.70509 -2.658681 0 
C -2.658681 0.70509 -2.378545 1.381397 -1.879971 1.879971 
C -1.381397 2.378545 -0.70509 2.658681 0 2.658681 
z
" id="m2e23a7b68a" style="stroke:#e69f00;stroke-opacity:0.25;stroke-width:0.886227;"/>
    </defs>
    <g clip-path="url(#p768d02c13a)">
     <use style="fill:#e69f00;fill-opacity:0.25;stroke:#e69f00;stroke-opacity:0.25;stroke-width:0.886227;" x="303.072812" xlink:href="#m2e23a7b68a" y="60.675937"/>
    </g>
   </g>
   <g id="text_17">
    <!-- convalescent -->
    <defs>
     <path d="M 2.984375 54.6875 
L 12.5 54.6875 
L 29.59375 8.796875 
L 46.6875 54.6875 
L 56.203125 54.6875 
L 35.6875 0 
L 23.484375 0 
z
" id="DejaVuSans-118"/>
    </defs>
    <g transform="translate(313.992813 63.104187)scale(0.088 -0.088)">
     <use xlink:href="#DejaVuSans-99"/>
     <use x="54.980469" xlink:href="#DejaVuSans-111"/>
     <use x="116.162109" xlink:href="#DejaVuSans-110"/>
     <use x="179.541016" xlink:href="#DejaVuSans-118"/>
     <use x="238.720703" xlink:href="#DejaVuSans-97"/>
     <use x="300" xlink:href="#DejaVuSans-108"/>
     <use x="327.783203" xlink:href="#DejaVuSans-101"/>
     <use x="389.306641" xlink:href="#DejaVuSans-115"/>
     <use x="441.40625" xlink:href="#DejaVuSans-99"/>
     <use x="496.386719" xlink:href="#DejaVuSans-101"/>
     <use x="557.910156" xlink:href="#DejaVuSans-110"/>
     <use x="621.289062" xlink:href="#DejaVuSans-116"/>
    </g>
   </g>
   <g id="patch_7">
    <path clip-path="url(#p6c26029602)" d="M 295.152812 86.435937 
L 310.992812 86.435937 
L 310.992812 70.595937 
L 295.152812 70.595937 
z
" style="fill:none;"/>
   </g>
   <g id="line2d_15">
    <path clip-path="url(#p6c26029602)" d="M 303.072812 78.515937 
" style="fill:none;stroke:#1f77b4;stroke-linecap:square;stroke-opacity:0.25;stroke-width:1.5;"/>
    <defs>
     <path d="M 0 2.658681 
C 0.70509 2.658681 1.381397 2.378545 1.879971 1.879971 
C 2.378545 1.381397 2.658681 0.70509 2.658681 0 
C 2.658681 -0.70509 2.378545 -1.381397 1.879971 -1.879971 
C 1.381397 -2.378545 0.70509 -2.658681 0 -2.658681 
C -0.70509 -2.658681 -1.381397 -2.378545 -1.879971 -1.879971 
C -2.378545 -1.381397 -2.658681 -0.70509 -2.658681 0 
C -2.658681 0.70509 -2.378545 1.381397 -1.879971 1.879971 
C -1.381397 2.378545 -0.70509 2.658681 0 2.658681 
z
" id="m360a8e23bb" style="stroke:#56b4e9;stroke-opacity:0.25;stroke-width:0.886227;"/>
    </defs>
    <g clip-path="url(#p6c26029602)">
     <use style="fill:#56b4e9;fill-opacity:0.25;stroke:#56b4e9;stroke-opacity:0.25;stroke-width:0.886227;" x="303.072812" xlink:href="#m360a8e23bb" y="78.515937"/>
    </g>
   </g>
   <g id="text_18">
    <!-- vaccine -->
    <g transform="translate(313.992813 80.944187)scale(0.088 -0.088)">
     <use xlink:href="#DejaVuSans-118"/>
     <use x="59.179688" xlink:href="#DejaVuSans-97"/>
     <use x="120.458984" xlink:href="#DejaVuSans-99"/>
     <use x="175.439453" xlink:href="#DejaVuSans-99"/>
     <use x="230.419922" xlink:href="#DejaVuSans-105"/>
     <use x="258.203125" xlink:href="#DejaVuSans-110"/>
     <use x="321.582031" xlink:href="#DejaVuSans-101"/>
    </g>
   </g>
  </g>
 </g>
 <defs>
  <clipPath id="pde45986662">
   <rect height="110.88" width="111.6" x="164.152813" y="7.2"/>
  </clipPath>
  <clipPath id="p768d02c13a">
   <path d="M 295.152812 68.595937 
L 295.152812 52.755937 
L 310.992812 52.755937 
L 310.992812 68.595937 
"/>
  </clipPath>
  <clipPath id="p6c26029602">
   <path d="M 295.152812 86.435937 
L 295.152812 70.595937 
L 310.992812 70.595937 
L 310.992812 86.435937 
"/>
  </clipPath>
 </defs>
</svg>
