<?xml version="1.0" encoding="utf-8" standalone="no"?>
<!DOCTYPE svg PUBLIC "-//W3C//DTD SVG 1.1//EN"
  "http://www.w3.org/Graphics/SVG/1.1/DTD/svg11.dtd">
<!-- Created with matplotlib (https://matplotlib.org/) -->
<svg height="156.779875pt" version="1.1" viewBox="0 0 282.952812 156.779875" width="282.952812pt" xmlns="http://www.w3.org/2000/svg" xmlns:xlink="http://www.w3.org/1999/xlink">
 <defs>
  <style type="text/css">
*{stroke-linecap:butt;stroke-linejoin:round;}
  </style>
 </defs>
 <g id="figure_1">
  <g id="patch_1">
   <path d="M 0 156.779875 
L 282.952812 156.779875 
L 282.952812 0 
L 0 0 
z
" style="fill:#ffffff;stroke:#ffffff;stroke-linejoin:miter;"/>
  </g>
  <g id="axes_1">
   <g id="patch_2">
    <path d="M 164.152813 118.08 
L 275.752813 118.08 
L 275.752813 7.2 
L 164.152813 7.2 
z
" style="fill:#ffffff;"/>
   </g>
   <g id="matplotlib.axis_1">
    <g id="xtick_1">
     <g id="line2d_1">
      <path d="M 187.424301 118.08 
" style="fill:none;stroke:#333333;stroke-width:1.5;"/>
      <defs>
       <path d="M 0 0 
L 0 2.75 
" id="m91a6cce308" style="stroke:#333333;"/>
      </defs>
      <g>
       <use style="fill:#333333;stroke:#333333;" x="187.424301" xlink:href="#m91a6cce308" y="118.08"/>
      </g>
     </g>
     <g id="text_1">
      <!-- 7 -->
      <defs>
       <path d="M 8.203125 72.90625 
L 55.078125 72.90625 
L 55.078125 68.703125 
L 28.609375 0 
L 18.3125 0 
L 43.21875 64.59375 
L 8.203125 64.59375 
z
" id="DejaVuSans-55"/>
      </defs>
      <g style="fill:#4d4d4d;" transform="translate(189.852551 128.629)rotate(-90)scale(0.088 -0.088)">
       <use xlink:href="#DejaVuSans-55"/>
      </g>
     </g>
    </g>
    <g id="xtick_2">
     <g id="line2d_2">
      <path d="M 211.719136 118.08 
" style="fill:none;stroke:#333333;stroke-width:1.5;"/>
      <g>
       <use style="fill:#333333;stroke:#333333;" x="211.719136" xlink:href="#m91a6cce308" y="118.08"/>
      </g>
     </g>
     <g id="text_2">
      <!-- 8 -->
      <defs>
       <path d="M 31.78125 34.625 
Q 24.75 34.625 20.71875 30.859375 
Q 16.703125 27.09375 16.703125 20.515625 
Q 16.703125 13.921875 20.71875 10.15625 
Q 24.75 6.390625 31.78125 6.390625 
Q 38.8125 6.390625 42.859375 10.171875 
Q 46.921875 13.96875 46.921875 20.515625 
Q 46.921875 27.09375 42.890625 30.859375 
Q 38.875 34.625 31.78125 34.625 
z
M 21.921875 38.8125 
Q 15.578125 40.375 12.03125 44.71875 
Q 8.5 49.078125 8.5 55.328125 
Q 8.5 64.0625 14.71875 69.140625 
Q 20.953125 74.21875 31.78125 74.21875 
Q 42.671875 74.21875 48.875 69.140625 
Q 55.078125 64.0625 55.078125 55.328125 
Q 55.078125 49.078125 51.53125 44.71875 
Q 48 40.375 41.703125 38.8125 
Q 48.828125 37.15625 52.796875 32.3125 
Q 56.78125 27.484375 56.78125 20.515625 
Q 56.78125 9.90625 50.3125 4.234375 
Q 43.84375 -1.421875 31.78125 -1.421875 
Q 19.734375 -1.421875 13.25 4.234375 
Q 6.78125 9.90625 6.78125 20.515625 
Q 6.78125 27.484375 10.78125 32.3125 
Q 14.796875 37.15625 21.921875 38.8125 
z
M 18.3125 54.390625 
Q 18.3125 48.734375 21.84375 45.5625 
Q 25.390625 42.390625 31.78125 42.390625 
Q 38.140625 42.390625 41.71875 45.5625 
Q 45.3125 48.734375 45.3125 54.390625 
Q 45.3125 60.0625 41.71875 63.234375 
Q 38.140625 66.40625 31.78125 66.40625 
Q 25.390625 66.40625 21.84375 63.234375 
Q 18.3125 60.0625 18.3125 54.390625 
z
" id="DejaVuSans-56"/>
      </defs>
      <g style="fill:#4d4d4d;" transform="translate(214.147386 128.629)rotate(-90)scale(0.088 -0.088)">
       <use xlink:href="#DejaVuSans-56"/>
      </g>
     </g>
    </g>
    <g id="xtick_3">
     <g id="line2d_3">
      <path d="M 236.013972 118.08 
" style="fill:none;stroke:#333333;stroke-width:1.5;"/>
      <g>
       <use style="fill:#333333;stroke:#333333;" x="236.013972" xlink:href="#m91a6cce308" y="118.08"/>
      </g>
     </g>
     <g id="text_3">
      <!-- 9 -->
      <defs>
       <path d="M 10.984375 1.515625 
L 10.984375 10.5 
Q 14.703125 8.734375 18.5 7.8125 
Q 22.3125 6.890625 25.984375 6.890625 
Q 35.75 6.890625 40.890625 13.453125 
Q 46.046875 20.015625 46.78125 33.40625 
Q 43.953125 29.203125 39.59375 26.953125 
Q 35.25 24.703125 29.984375 24.703125 
Q 19.046875 24.703125 12.671875 31.3125 
Q 6.296875 37.9375 6.296875 49.421875 
Q 6.296875 60.640625 12.9375 67.421875 
Q 19.578125 74.21875 30.609375 74.21875 
Q 43.265625 74.21875 49.921875 64.515625 
Q 56.59375 54.828125 56.59375 36.375 
Q 56.59375 19.140625 48.40625 8.859375 
Q 40.234375 -1.421875 26.421875 -1.421875 
Q 22.703125 -1.421875 18.890625 -0.6875 
Q 15.09375 0.046875 10.984375 1.515625 
z
M 30.609375 32.421875 
Q 37.25 32.421875 41.125 36.953125 
Q 45.015625 41.5 45.015625 49.421875 
Q 45.015625 57.28125 41.125 61.84375 
Q 37.25 66.40625 30.609375 66.40625 
Q 23.96875 66.40625 20.09375 61.84375 
Q 16.21875 57.28125 16.21875 49.421875 
Q 16.21875 41.5 20.09375 36.953125 
Q 23.96875 32.421875 30.609375 32.421875 
z
" id="DejaVuSans-57"/>
      </defs>
      <g style="fill:#4d4d4d;" transform="translate(238.442222 128.629)rotate(-90)scale(0.088 -0.088)">
       <use xlink:href="#DejaVuSans-57"/>
      </g>
     </g>
    </g>
    <g id="xtick_4">
     <g id="line2d_4">
      <path d="M 260.308807 118.08 
" style="fill:none;stroke:#333333;stroke-width:1.5;"/>
      <g>
       <use style="fill:#333333;stroke:#333333;" x="260.308807" xlink:href="#m91a6cce308" y="118.08"/>
      </g>
     </g>
     <g id="text_4">
      <!-- 10 -->
      <defs>
       <path d="M 12.40625 8.296875 
L 28.515625 8.296875 
L 28.515625 63.921875 
L 10.984375 60.40625 
L 10.984375 69.390625 
L 28.421875 72.90625 
L 38.28125 72.90625 
L 38.28125 8.296875 
L 54.390625 8.296875 
L 54.390625 0 
L 12.40625 0 
z
" id="DejaVuSans-49"/>
       <path d="M 31.78125 66.40625 
Q 24.171875 66.40625 20.328125 58.90625 
Q 16.5 51.421875 16.5 36.375 
Q 16.5 21.390625 20.328125 13.890625 
Q 24.171875 6.390625 31.78125 6.390625 
Q 39.453125 6.390625 43.28125 13.890625 
Q 47.125 21.390625 47.125 36.375 
Q 47.125 51.421875 43.28125 58.90625 
Q 39.453125 66.40625 31.78125 66.40625 
z
M 31.78125 74.21875 
Q 44.046875 74.21875 50.515625 64.515625 
Q 56.984375 54.828125 56.984375 36.375 
Q 56.984375 17.96875 50.515625 8.265625 
Q 44.046875 -1.421875 31.78125 -1.421875 
Q 19.53125 -1.421875 13.0625 8.265625 
Q 6.59375 17.96875 6.59375 36.375 
Q 6.59375 54.828125 13.0625 64.515625 
Q 19.53125 74.21875 31.78125 74.21875 
z
" id="DejaVuSans-48"/>
      </defs>
      <g style="fill:#4d4d4d;" transform="translate(262.737057 134.228)rotate(-90)scale(0.088 -0.088)">
       <use xlink:href="#DejaVuSans-49"/>
       <use x="63.623047" xlink:href="#DejaVuSans-48"/>
      </g>
     </g>
    </g>
    <g id="xtick_5"/>
    <g id="xtick_6"/>
    <g id="xtick_7"/>
    <g id="xtick_8"/>
    <g id="xtick_9"/>
    <g id="text_5">
     <!-- log2_sortdilution -->
     <defs>
      <path d="M 9.421875 75.984375 
L 18.40625 75.984375 
L 18.40625 0 
L 9.421875 0 
z
" id="DejaVuSans-108"/>
      <path d="M 30.609375 48.390625 
Q 23.390625 48.390625 19.1875 42.75 
Q 14.984375 37.109375 14.984375 27.296875 
Q 14.984375 17.484375 19.15625 11.84375 
Q 23.34375 6.203125 30.609375 6.203125 
Q 37.796875 6.203125 41.984375 11.859375 
Q 46.1875 17.53125 46.1875 27.296875 
Q 46.1875 37.015625 41.984375 42.703125 
Q 37.796875 48.390625 30.609375 48.390625 
z
M 30.609375 56 
Q 42.328125 56 49.015625 48.375 
Q 55.71875 40.765625 55.71875 27.296875 
Q 55.71875 13.875 49.015625 6.21875 
Q 42.328125 -1.421875 30.609375 -1.421875 
Q 18.84375 -1.421875 12.171875 6.21875 
Q 5.515625 13.875 5.515625 27.296875 
Q 5.515625 40.765625 12.171875 48.375 
Q 18.84375 56 30.609375 56 
z
" id="DejaVuSans-111"/>
      <path d="M 45.40625 27.984375 
Q 45.40625 37.75 41.375 43.109375 
Q 37.359375 48.484375 30.078125 48.484375 
Q 22.859375 48.484375 18.828125 43.109375 
Q 14.796875 37.75 14.796875 27.984375 
Q 14.796875 18.265625 18.828125 12.890625 
Q 22.859375 7.515625 30.078125 7.515625 
Q 37.359375 7.515625 41.375 12.890625 
Q 45.40625 18.265625 45.40625 27.984375 
z
M 54.390625 6.78125 
Q 54.390625 -7.171875 48.1875 -13.984375 
Q 42 -20.796875 29.203125 -20.796875 
Q 24.46875 -20.796875 20.265625 -20.09375 
Q 16.0625 -19.390625 12.109375 -17.921875 
L 12.109375 -9.1875 
Q 16.0625 -11.328125 19.921875 -12.34375 
Q 23.78125 -13.375 27.78125 -13.375 
Q 36.625 -13.375 41.015625 -8.765625 
Q 45.40625 -4.15625 45.40625 5.171875 
L 45.40625 9.625 
Q 42.625 4.78125 38.28125 2.390625 
Q 33.9375 0 27.875 0 
Q 17.828125 0 11.671875 7.65625 
Q 5.515625 15.328125 5.515625 27.984375 
Q 5.515625 40.671875 11.671875 48.328125 
Q 17.828125 56 27.875 56 
Q 33.9375 56 38.28125 53.609375 
Q 42.625 51.21875 45.40625 46.390625 
L 45.40625 54.6875 
L 54.390625 54.6875 
z
" id="DejaVuSans-103"/>
      <path d="M 19.1875 8.296875 
L 53.609375 8.296875 
L 53.609375 0 
L 7.328125 0 
L 7.328125 8.296875 
Q 12.9375 14.109375 22.625 23.890625 
Q 32.328125 33.6875 34.8125 36.53125 
Q 39.546875 41.84375 41.421875 45.53125 
Q 43.3125 49.21875 43.3125 52.78125 
Q 43.3125 58.59375 39.234375 62.25 
Q 35.15625 65.921875 28.609375 65.921875 
Q 23.96875 65.921875 18.8125 64.3125 
Q 13.671875 62.703125 7.8125 59.421875 
L 7.8125 69.390625 
Q 13.765625 71.78125 18.9375 73 
Q 24.125 74.21875 28.421875 74.21875 
Q 39.75 74.21875 46.484375 68.546875 
Q 53.21875 62.890625 53.21875 53.421875 
Q 53.21875 48.921875 51.53125 44.890625 
Q 49.859375 40.875 45.40625 35.40625 
Q 44.1875 33.984375 37.640625 27.21875 
Q 31.109375 20.453125 19.1875 8.296875 
z
" id="DejaVuSans-50"/>
      <path d="M 50.984375 -16.609375 
L 50.984375 -23.578125 
L -0.984375 -23.578125 
L -0.984375 -16.609375 
z
" id="DejaVuSans-95"/>
      <path d="M 44.28125 53.078125 
L 44.28125 44.578125 
Q 40.484375 46.53125 36.375 47.5 
Q 32.28125 48.484375 27.875 48.484375 
Q 21.1875 48.484375 17.84375 46.4375 
Q 14.5 44.390625 14.5 40.28125 
Q 14.5 37.15625 16.890625 35.375 
Q 19.28125 33.59375 26.515625 31.984375 
L 29.59375 31.296875 
Q 39.15625 29.25 43.1875 25.515625 
Q 47.21875 21.78125 47.21875 15.09375 
Q 47.21875 7.46875 41.1875 3.015625 
Q 35.15625 -1.421875 24.609375 -1.421875 
Q 20.21875 -1.421875 15.453125 -0.5625 
Q 10.6875 0.296875 5.421875 2 
L 5.421875 11.28125 
Q 10.40625 8.6875 15.234375 7.390625 
Q 20.0625 6.109375 24.8125 6.109375 
Q 31.15625 6.109375 34.5625 8.28125 
Q 37.984375 10.453125 37.984375 14.40625 
Q 37.984375 18.0625 35.515625 20.015625 
Q 33.0625 21.96875 24.703125 23.78125 
L 21.578125 24.515625 
Q 13.234375 26.265625 9.515625 29.90625 
Q 5.8125 33.546875 5.8125 39.890625 
Q 5.8125 47.609375 11.28125 51.796875 
Q 16.75 56 26.8125 56 
Q 31.78125 56 36.171875 55.265625 
Q 40.578125 54.546875 44.28125 53.078125 
z
" id="DejaVuSans-115"/>
      <path d="M 41.109375 46.296875 
Q 39.59375 47.171875 37.8125 47.578125 
Q 36.03125 48 33.890625 48 
Q 26.265625 48 22.1875 43.046875 
Q 18.109375 38.09375 18.109375 28.8125 
L 18.109375 0 
L 9.078125 0 
L 9.078125 54.6875 
L 18.109375 54.6875 
L 18.109375 46.1875 
Q 20.953125 51.171875 25.484375 53.578125 
Q 30.03125 56 36.53125 56 
Q 37.453125 56 38.578125 55.875 
Q 39.703125 55.765625 41.0625 55.515625 
z
" id="DejaVuSans-114"/>
      <path d="M 18.3125 70.21875 
L 18.3125 54.6875 
L 36.8125 54.6875 
L 36.8125 47.703125 
L 18.3125 47.703125 
L 18.3125 18.015625 
Q 18.3125 11.328125 20.140625 9.421875 
Q 21.96875 7.515625 27.59375 7.515625 
L 36.8125 7.515625 
L 36.8125 0 
L 27.59375 0 
Q 17.1875 0 13.234375 3.875 
Q 9.28125 7.765625 9.28125 18.015625 
L 9.28125 47.703125 
L 2.6875 47.703125 
L 2.6875 54.6875 
L 9.28125 54.6875 
L 9.28125 70.21875 
z
" id="DejaVuSans-116"/>
      <path d="M 45.40625 46.390625 
L 45.40625 75.984375 
L 54.390625 75.984375 
L 54.390625 0 
L 45.40625 0 
L 45.40625 8.203125 
Q 42.578125 3.328125 38.25 0.953125 
Q 33.9375 -1.421875 27.875 -1.421875 
Q 17.96875 -1.421875 11.734375 6.484375 
Q 5.515625 14.40625 5.515625 27.296875 
Q 5.515625 40.1875 11.734375 48.09375 
Q 17.96875 56 27.875 56 
Q 33.9375 56 38.25 53.625 
Q 42.578125 51.265625 45.40625 46.390625 
z
M 14.796875 27.296875 
Q 14.796875 17.390625 18.875 11.75 
Q 22.953125 6.109375 30.078125 6.109375 
Q 37.203125 6.109375 41.296875 11.75 
Q 45.40625 17.390625 45.40625 27.296875 
Q 45.40625 37.203125 41.296875 42.84375 
Q 37.203125 48.484375 30.078125 48.484375 
Q 22.953125 48.484375 18.875 42.84375 
Q 14.796875 37.203125 14.796875 27.296875 
z
" id="DejaVuSans-100"/>
      <path d="M 9.421875 54.6875 
L 18.40625 54.6875 
L 18.40625 0 
L 9.421875 0 
z
M 9.421875 75.984375 
L 18.40625 75.984375 
L 18.40625 64.59375 
L 9.421875 64.59375 
z
" id="DejaVuSans-105"/>
      <path d="M 8.5 21.578125 
L 8.5 54.6875 
L 17.484375 54.6875 
L 17.484375 21.921875 
Q 17.484375 14.15625 20.5 10.265625 
Q 23.53125 6.390625 29.59375 6.390625 
Q 36.859375 6.390625 41.078125 11.03125 
Q 45.3125 15.671875 45.3125 23.6875 
L 45.3125 54.6875 
L 54.296875 54.6875 
L 54.296875 0 
L 45.3125 0 
L 45.3125 8.40625 
Q 42.046875 3.421875 37.71875 1 
Q 33.40625 -1.421875 27.6875 -1.421875 
Q 18.265625 -1.421875 13.375 4.4375 
Q 8.5 10.296875 8.5 21.578125 
z
M 31.109375 56 
z
" id="DejaVuSans-117"/>
      <path d="M 54.890625 33.015625 
L 54.890625 0 
L 45.90625 0 
L 45.90625 32.71875 
Q 45.90625 40.484375 42.875 44.328125 
Q 39.84375 48.1875 33.796875 48.1875 
Q 26.515625 48.1875 22.3125 43.546875 
Q 18.109375 38.921875 18.109375 30.90625 
L 18.109375 0 
L 9.078125 0 
L 9.078125 54.6875 
L 18.109375 54.6875 
L 18.109375 46.1875 
Q 21.34375 51.125 25.703125 53.5625 
Q 30.078125 56 35.796875 56 
Q 45.21875 56 50.046875 50.171875 
Q 54.890625 44.34375 54.890625 33.015625 
z
" id="DejaVuSans-110"/>
     </defs>
     <g transform="translate(172.302578 146.986281)scale(0.11 -0.11)">
      <use xlink:href="#DejaVuSans-108"/>
      <use x="27.783203" xlink:href="#DejaVuSans-111"/>
      <use x="88.964844" xlink:href="#DejaVuSans-103"/>
      <use x="152.441406" xlink:href="#DejaVuSans-50"/>
      <use x="216.064453" xlink:href="#DejaVuSans-95"/>
      <use x="266.064453" xlink:href="#DejaVuSans-115"/>
      <use x="318.164062" xlink:href="#DejaVuSans-111"/>
      <use x="379.345703" xlink:href="#DejaVuSans-114"/>
      <use x="420.458984" xlink:href="#DejaVuSans-116"/>
      <use x="459.667969" xlink:href="#DejaVuSans-100"/>
      <use x="523.144531" xlink:href="#DejaVuSans-105"/>
      <use x="550.927734" xlink:href="#DejaVuSans-108"/>
      <use x="578.710938" xlink:href="#DejaVuSans-117"/>
      <use x="642.089844" xlink:href="#DejaVuSans-116"/>
      <use x="681.298828" xlink:href="#DejaVuSans-105"/>
      <use x="709.082031" xlink:href="#DejaVuSans-111"/>
      <use x="770.263672" xlink:href="#DejaVuSans-110"/>
     </g>
    </g>
   </g>
   <g id="matplotlib.axis_2">
    <g id="ytick_1">
     <g id="line2d_5">
      <path d="M 164.152813 109.966829 
" style="fill:none;stroke:#333333;stroke-width:1.5;"/>
      <defs>
       <path d="M 0 0 
L -2.75 0 
" id="m135349ca44" style="stroke:#333333;"/>
      </defs>
      <g>
       <use style="fill:#333333;stroke:#333333;" x="164.152813" xlink:href="#m135349ca44" y="109.966829"/>
      </g>
     </g>
     <g id="text_6">
      <!-- 456-484 -->
      <defs>
       <path d="M 37.796875 64.3125 
L 12.890625 25.390625 
L 37.796875 25.390625 
z
M 35.203125 72.90625 
L 47.609375 72.90625 
L 47.609375 25.390625 
L 58.015625 25.390625 
L 58.015625 17.1875 
L 47.609375 17.1875 
L 47.609375 0 
L 37.796875 0 
L 37.796875 17.1875 
L 4.890625 17.1875 
L 4.890625 26.703125 
z
" id="DejaVuSans-52"/>
       <path d="M 10.796875 72.90625 
L 49.515625 72.90625 
L 49.515625 64.59375 
L 19.828125 64.59375 
L 19.828125 46.734375 
Q 21.96875 47.46875 24.109375 47.828125 
Q 26.265625 48.1875 28.421875 48.1875 
Q 40.625 48.1875 47.75 41.5 
Q 54.890625 34.8125 54.890625 23.390625 
Q 54.890625 11.625 47.5625 5.09375 
Q 40.234375 -1.421875 26.90625 -1.421875 
Q 22.3125 -1.421875 17.546875 -0.640625 
Q 12.796875 0.140625 7.71875 1.703125 
L 7.71875 11.625 
Q 12.109375 9.234375 16.796875 8.0625 
Q 21.484375 6.890625 26.703125 6.890625 
Q 35.15625 6.890625 40.078125 11.328125 
Q 45.015625 15.765625 45.015625 23.390625 
Q 45.015625 31 40.078125 35.4375 
Q 35.15625 39.890625 26.703125 39.890625 
Q 22.75 39.890625 18.8125 39.015625 
Q 14.890625 38.140625 10.796875 36.28125 
z
" id="DejaVuSans-53"/>
       <path d="M 33.015625 40.375 
Q 26.375 40.375 22.484375 35.828125 
Q 18.609375 31.296875 18.609375 23.390625 
Q 18.609375 15.53125 22.484375 10.953125 
Q 26.375 6.390625 33.015625 6.390625 
Q 39.65625 6.390625 43.53125 10.953125 
Q 47.40625 15.53125 47.40625 23.390625 
Q 47.40625 31.296875 43.53125 35.828125 
Q 39.65625 40.375 33.015625 40.375 
z
M 52.59375 71.296875 
L 52.59375 62.3125 
Q 48.875 64.0625 45.09375 64.984375 
Q 41.3125 65.921875 37.59375 65.921875 
Q 27.828125 65.921875 22.671875 59.328125 
Q 17.53125 52.734375 16.796875 39.40625 
Q 19.671875 43.65625 24.015625 45.921875 
Q 28.375 48.1875 33.59375 48.1875 
Q 44.578125 48.1875 50.953125 41.515625 
Q 57.328125 34.859375 57.328125 23.390625 
Q 57.328125 12.15625 50.6875 5.359375 
Q 44.046875 -1.421875 33.015625 -1.421875 
Q 20.359375 -1.421875 13.671875 8.265625 
Q 6.984375 17.96875 6.984375 36.375 
Q 6.984375 53.65625 15.1875 63.9375 
Q 23.390625 74.21875 37.203125 74.21875 
Q 40.921875 74.21875 44.703125 73.484375 
Q 48.484375 72.75 52.59375 71.296875 
z
" id="DejaVuSans-54"/>
       <path d="M 4.890625 31.390625 
L 31.203125 31.390625 
L 31.203125 23.390625 
L 4.890625 23.390625 
z
" id="DejaVuSans-45"/>
      </defs>
      <g style="fill:#4d4d4d;" transform="translate(122.433938 112.395079)scale(0.088 -0.088)">
       <use xlink:href="#DejaVuSans-52"/>
       <use x="63.623047" xlink:href="#DejaVuSans-53"/>
       <use x="127.246094" xlink:href="#DejaVuSans-54"/>
       <use x="190.869141" xlink:href="#DejaVuSans-45"/>
       <use x="226.953125" xlink:href="#DejaVuSans-52"/>
       <use x="290.576172" xlink:href="#DejaVuSans-56"/>
       <use x="354.199219" xlink:href="#DejaVuSans-52"/>
      </g>
     </g>
    </g>
    <g id="ytick_2">
     <g id="line2d_6">
      <path d="M 164.152813 96.444878 
" style="fill:none;stroke:#333333;stroke-width:1.5;"/>
      <g>
       <use style="fill:#333333;stroke:#333333;" x="164.152813" xlink:href="#m135349ca44" y="96.444878"/>
      </g>
     </g>
     <g id="text_7">
      <!-- 456-484 low magnitude -->
      <defs>
       <path id="DejaVuSans-32"/>
       <path d="M 4.203125 54.6875 
L 13.1875 54.6875 
L 24.421875 12.015625 
L 35.59375 54.6875 
L 46.1875 54.6875 
L 57.421875 12.015625 
L 68.609375 54.6875 
L 77.59375 54.6875 
L 63.28125 0 
L 52.6875 0 
L 40.921875 44.828125 
L 29.109375 0 
L 18.5 0 
z
" id="DejaVuSans-119"/>
       <path d="M 52 44.1875 
Q 55.375 50.25 60.0625 53.125 
Q 64.75 56 71.09375 56 
Q 79.640625 56 84.28125 50.015625 
Q 88.921875 44.046875 88.921875 33.015625 
L 88.921875 0 
L 79.890625 0 
L 79.890625 32.71875 
Q 79.890625 40.578125 77.09375 44.375 
Q 74.3125 48.1875 68.609375 48.1875 
Q 61.625 48.1875 57.5625 43.546875 
Q 53.515625 38.921875 53.515625 30.90625 
L 53.515625 0 
L 44.484375 0 
L 44.484375 32.71875 
Q 44.484375 40.625 41.703125 44.40625 
Q 38.921875 48.1875 33.109375 48.1875 
Q 26.21875 48.1875 22.15625 43.53125 
Q 18.109375 38.875 18.109375 30.90625 
L 18.109375 0 
L 9.078125 0 
L 9.078125 54.6875 
L 18.109375 54.6875 
L 18.109375 46.1875 
Q 21.1875 51.21875 25.484375 53.609375 
Q 29.78125 56 35.6875 56 
Q 41.65625 56 45.828125 52.96875 
Q 50 49.953125 52 44.1875 
z
" id="DejaVuSans-109"/>
       <path d="M 34.28125 27.484375 
Q 23.390625 27.484375 19.1875 25 
Q 14.984375 22.515625 14.984375 16.5 
Q 14.984375 11.71875 18.140625 8.90625 
Q 21.296875 6.109375 26.703125 6.109375 
Q 34.1875 6.109375 38.703125 11.40625 
Q 43.21875 16.703125 43.21875 25.484375 
L 43.21875 27.484375 
z
M 52.203125 31.203125 
L 52.203125 0 
L 43.21875 0 
L 43.21875 8.296875 
Q 40.140625 3.328125 35.546875 0.953125 
Q 30.953125 -1.421875 24.3125 -1.421875 
Q 15.921875 -1.421875 10.953125 3.296875 
Q 6 8.015625 6 15.921875 
Q 6 25.140625 12.171875 29.828125 
Q 18.359375 34.515625 30.609375 34.515625 
L 43.21875 34.515625 
L 43.21875 35.40625 
Q 43.21875 41.609375 39.140625 45 
Q 35.0625 48.390625 27.6875 48.390625 
Q 23 48.390625 18.546875 47.265625 
Q 14.109375 46.140625 10.015625 43.890625 
L 10.015625 52.203125 
Q 14.9375 54.109375 19.578125 55.046875 
Q 24.21875 56 28.609375 56 
Q 40.484375 56 46.34375 49.84375 
Q 52.203125 43.703125 52.203125 31.203125 
z
" id="DejaVuSans-97"/>
       <path d="M 56.203125 29.59375 
L 56.203125 25.203125 
L 14.890625 25.203125 
Q 15.484375 15.921875 20.484375 11.0625 
Q 25.484375 6.203125 34.421875 6.203125 
Q 39.59375 6.203125 44.453125 7.46875 
Q 49.3125 8.734375 54.109375 11.28125 
L 54.109375 2.78125 
Q 49.265625 0.734375 44.1875 -0.34375 
Q 39.109375 -1.421875 33.890625 -1.421875 
Q 20.796875 -1.421875 13.15625 6.1875 
Q 5.515625 13.8125 5.515625 26.8125 
Q 5.515625 40.234375 12.765625 48.109375 
Q 20.015625 56 32.328125 56 
Q 43.359375 56 49.78125 48.890625 
Q 56.203125 41.796875 56.203125 29.59375 
z
M 47.21875 32.234375 
Q 47.125 39.59375 43.09375 43.984375 
Q 39.0625 48.390625 32.421875 48.390625 
Q 24.90625 48.390625 20.390625 44.140625 
Q 15.875 39.890625 15.1875 32.171875 
z
" id="DejaVuSans-101"/>
      </defs>
      <g style="fill:#4d4d4d;" transform="translate(54.213313 98.873128)scale(0.088 -0.088)">
       <use xlink:href="#DejaVuSans-52"/>
       <use x="63.623047" xlink:href="#DejaVuSans-53"/>
       <use x="127.246094" xlink:href="#DejaVuSans-54"/>
       <use x="190.869141" xlink:href="#DejaVuSans-45"/>
       <use x="226.953125" xlink:href="#DejaVuSans-52"/>
       <use x="290.576172" xlink:href="#DejaVuSans-56"/>
       <use x="354.199219" xlink:href="#DejaVuSans-52"/>
       <use x="417.822266" xlink:href="#DejaVuSans-32"/>
       <use x="449.609375" xlink:href="#DejaVuSans-108"/>
       <use x="477.392578" xlink:href="#DejaVuSans-111"/>
       <use x="538.574219" xlink:href="#DejaVuSans-119"/>
       <use x="620.361328" xlink:href="#DejaVuSans-32"/>
       <use x="652.148438" xlink:href="#DejaVuSans-109"/>
       <use x="749.560547" xlink:href="#DejaVuSans-97"/>
       <use x="810.839844" xlink:href="#DejaVuSans-103"/>
       <use x="874.316406" xlink:href="#DejaVuSans-110"/>
       <use x="937.695312" xlink:href="#DejaVuSans-105"/>
       <use x="965.478516" xlink:href="#DejaVuSans-116"/>
       <use x="1004.6875" xlink:href="#DejaVuSans-117"/>
       <use x="1068.066406" xlink:href="#DejaVuSans-100"/>
       <use x="1131.542969" xlink:href="#DejaVuSans-101"/>
      </g>
     </g>
    </g>
    <g id="ytick_3">
     <g id="line2d_7">
      <path d="M 164.152813 82.922927 
" style="fill:none;stroke:#333333;stroke-width:1.5;"/>
      <g>
       <use style="fill:#333333;stroke:#333333;" x="164.152813" xlink:href="#m135349ca44" y="82.922927"/>
      </g>
     </g>
     <g id="text_8">
      <!-- 456-484 noisy -->
      <defs>
       <path d="M 32.171875 -5.078125 
Q 28.375 -14.84375 24.75 -17.8125 
Q 21.140625 -20.796875 15.09375 -20.796875 
L 7.90625 -20.796875 
L 7.90625 -13.28125 
L 13.1875 -13.28125 
Q 16.890625 -13.28125 18.9375 -11.515625 
Q 21 -9.765625 23.484375 -3.21875 
L 25.09375 0.875 
L 2.984375 54.6875 
L 12.5 54.6875 
L 29.59375 11.921875 
L 46.6875 54.6875 
L 56.203125 54.6875 
z
" id="DejaVuSans-121"/>
      </defs>
      <g style="fill:#4d4d4d;" transform="translate(96.438188 85.351177)scale(0.088 -0.088)">
       <use xlink:href="#DejaVuSans-52"/>
       <use x="63.623047" xlink:href="#DejaVuSans-53"/>
       <use x="127.246094" xlink:href="#DejaVuSans-54"/>
       <use x="190.869141" xlink:href="#DejaVuSans-45"/>
       <use x="226.953125" xlink:href="#DejaVuSans-52"/>
       <use x="290.576172" xlink:href="#DejaVuSans-56"/>
       <use x="354.199219" xlink:href="#DejaVuSans-52"/>
       <use x="417.822266" xlink:href="#DejaVuSans-32"/>
       <use x="449.609375" xlink:href="#DejaVuSans-110"/>
       <use x="512.988281" xlink:href="#DejaVuSans-111"/>
       <use x="574.169922" xlink:href="#DejaVuSans-105"/>
       <use x="601.953125" xlink:href="#DejaVuSans-115"/>
       <use x="654.052734" xlink:href="#DejaVuSans-121"/>
      </g>
     </g>
    </g>
    <g id="ytick_4">
     <g id="line2d_8">
      <path d="M 164.152813 69.400976 
" style="fill:none;stroke:#333333;stroke-width:1.5;"/>
      <g>
       <use style="fill:#333333;stroke:#333333;" x="164.152813" xlink:href="#m135349ca44" y="69.400976"/>
      </g>
     </g>
     <g id="text_9">
      <!-- 456-484 low magnitude - noisy -->
      <g style="fill:#4d4d4d;" transform="translate(22.245937 71.829226)scale(0.088 -0.088)">
       <use xlink:href="#DejaVuSans-52"/>
       <use x="63.623047" xlink:href="#DejaVuSans-53"/>
       <use x="127.246094" xlink:href="#DejaVuSans-54"/>
       <use x="190.869141" xlink:href="#DejaVuSans-45"/>
       <use x="226.953125" xlink:href="#DejaVuSans-52"/>
       <use x="290.576172" xlink:href="#DejaVuSans-56"/>
       <use x="354.199219" xlink:href="#DejaVuSans-52"/>
       <use x="417.822266" xlink:href="#DejaVuSans-32"/>
       <use x="449.609375" xlink:href="#DejaVuSans-108"/>
       <use x="477.392578" xlink:href="#DejaVuSans-111"/>
       <use x="538.574219" xlink:href="#DejaVuSans-119"/>
       <use x="620.361328" xlink:href="#DejaVuSans-32"/>
       <use x="652.148438" xlink:href="#DejaVuSans-109"/>
       <use x="749.560547" xlink:href="#DejaVuSans-97"/>
       <use x="810.839844" xlink:href="#DejaVuSans-103"/>
       <use x="874.316406" xlink:href="#DejaVuSans-110"/>
       <use x="937.695312" xlink:href="#DejaVuSans-105"/>
       <use x="965.478516" xlink:href="#DejaVuSans-116"/>
       <use x="1004.6875" xlink:href="#DejaVuSans-117"/>
       <use x="1068.066406" xlink:href="#DejaVuSans-100"/>
       <use x="1131.542969" xlink:href="#DejaVuSans-101"/>
       <use x="1193.066406" xlink:href="#DejaVuSans-32"/>
       <use x="1224.853516" xlink:href="#DejaVuSans-45"/>
       <use x="1260.9375" xlink:href="#DejaVuSans-32"/>
       <use x="1292.724609" xlink:href="#DejaVuSans-110"/>
       <use x="1356.103516" xlink:href="#DejaVuSans-111"/>
       <use x="1417.285156" xlink:href="#DejaVuSans-105"/>
       <use x="1445.068359" xlink:href="#DejaVuSans-115"/>
       <use x="1497.167969" xlink:href="#DejaVuSans-121"/>
      </g>
     </g>
    </g>
    <g id="ytick_5">
     <g id="line2d_9">
      <path d="M 164.152813 55.879024 
" style="fill:none;stroke:#333333;stroke-width:1.5;"/>
      <g>
       <use style="fill:#333333;stroke:#333333;" x="164.152813" xlink:href="#m135349ca44" y="55.879024"/>
      </g>
     </g>
     <g id="text_10">
      <!-- 443-450 -->
      <defs>
       <path d="M 40.578125 39.3125 
Q 47.65625 37.796875 51.625 33 
Q 55.609375 28.21875 55.609375 21.1875 
Q 55.609375 10.40625 48.1875 4.484375 
Q 40.765625 -1.421875 27.09375 -1.421875 
Q 22.515625 -1.421875 17.65625 -0.515625 
Q 12.796875 0.390625 7.625 2.203125 
L 7.625 11.71875 
Q 11.71875 9.328125 16.59375 8.109375 
Q 21.484375 6.890625 26.8125 6.890625 
Q 36.078125 6.890625 40.9375 10.546875 
Q 45.796875 14.203125 45.796875 21.1875 
Q 45.796875 27.640625 41.28125 31.265625 
Q 36.765625 34.90625 28.71875 34.90625 
L 20.21875 34.90625 
L 20.21875 43.015625 
L 29.109375 43.015625 
Q 36.375 43.015625 40.234375 45.921875 
Q 44.09375 48.828125 44.09375 54.296875 
Q 44.09375 59.90625 40.109375 62.90625 
Q 36.140625 65.921875 28.71875 65.921875 
Q 24.65625 65.921875 20.015625 65.03125 
Q 15.375 64.15625 9.8125 62.3125 
L 9.8125 71.09375 
Q 15.4375 72.65625 20.34375 73.4375 
Q 25.25 74.21875 29.59375 74.21875 
Q 40.828125 74.21875 47.359375 69.109375 
Q 53.90625 64.015625 53.90625 55.328125 
Q 53.90625 49.265625 50.4375 45.09375 
Q 46.96875 40.921875 40.578125 39.3125 
z
" id="DejaVuSans-51"/>
      </defs>
      <g style="fill:#4d4d4d;" transform="translate(122.433938 58.307274)scale(0.088 -0.088)">
       <use xlink:href="#DejaVuSans-52"/>
       <use x="63.623047" xlink:href="#DejaVuSans-52"/>
       <use x="127.246094" xlink:href="#DejaVuSans-51"/>
       <use x="190.869141" xlink:href="#DejaVuSans-45"/>
       <use x="226.953125" xlink:href="#DejaVuSans-52"/>
       <use x="290.576172" xlink:href="#DejaVuSans-53"/>
       <use x="354.199219" xlink:href="#DejaVuSans-48"/>
      </g>
     </g>
    </g>
    <g id="ytick_6">
     <g id="line2d_10">
      <path d="M 164.152813 42.357073 
" style="fill:none;stroke:#333333;stroke-width:1.5;"/>
      <g>
       <use style="fill:#333333;stroke:#333333;" x="164.152813" xlink:href="#m135349ca44" y="42.357073"/>
      </g>
     </g>
     <g id="text_11">
      <!-- core -->
      <defs>
       <path d="M 48.78125 52.59375 
L 48.78125 44.1875 
Q 44.96875 46.296875 41.140625 47.34375 
Q 37.3125 48.390625 33.40625 48.390625 
Q 24.65625 48.390625 19.8125 42.84375 
Q 14.984375 37.3125 14.984375 27.296875 
Q 14.984375 17.28125 19.8125 11.734375 
Q 24.65625 6.203125 33.40625 6.203125 
Q 37.3125 6.203125 41.140625 7.25 
Q 44.96875 8.296875 48.78125 10.40625 
L 48.78125 2.09375 
Q 45.015625 0.34375 40.984375 -0.53125 
Q 36.96875 -1.421875 32.421875 -1.421875 
Q 20.0625 -1.421875 12.78125 6.34375 
Q 5.515625 14.109375 5.515625 27.296875 
Q 5.515625 40.671875 12.859375 48.328125 
Q 20.21875 56 33.015625 56 
Q 37.15625 56 41.109375 55.140625 
Q 45.0625 54.296875 48.78125 52.59375 
z
" id="DejaVuSans-99"/>
      </defs>
      <g style="fill:#4d4d4d;" transform="translate(140.145313 44.785323)scale(0.088 -0.088)">
       <use xlink:href="#DejaVuSans-99"/>
       <use x="54.980469" xlink:href="#DejaVuSans-111"/>
       <use x="116.162109" xlink:href="#DejaVuSans-114"/>
       <use x="155.025391" xlink:href="#DejaVuSans-101"/>
      </g>
     </g>
    </g>
    <g id="ytick_7">
     <g id="line2d_11">
      <path d="M 164.152813 28.835122 
" style="fill:none;stroke:#333333;stroke-width:1.5;"/>
      <g>
       <use style="fill:#333333;stroke:#333333;" x="164.152813" xlink:href="#m135349ca44" y="28.835122"/>
      </g>
     </g>
     <g id="text_12">
      <!-- flat - noisy -->
      <defs>
       <path d="M 37.109375 75.984375 
L 37.109375 68.5 
L 28.515625 68.5 
Q 23.6875 68.5 21.796875 66.546875 
Q 19.921875 64.59375 19.921875 59.515625 
L 19.921875 54.6875 
L 34.71875 54.6875 
L 34.71875 47.703125 
L 19.921875 47.703125 
L 19.921875 0 
L 10.890625 0 
L 10.890625 47.703125 
L 2.296875 47.703125 
L 2.296875 54.6875 
L 10.890625 54.6875 
L 10.890625 58.5 
Q 10.890625 67.625 15.140625 71.796875 
Q 19.390625 75.984375 28.609375 75.984375 
z
" id="DejaVuSans-102"/>
      </defs>
      <g style="fill:#4d4d4d;" transform="translate(112.850188 31.263372)scale(0.088 -0.088)">
       <use xlink:href="#DejaVuSans-102"/>
       <use x="35.205078" xlink:href="#DejaVuSans-108"/>
       <use x="62.988281" xlink:href="#DejaVuSans-97"/>
       <use x="124.267578" xlink:href="#DejaVuSans-116"/>
       <use x="163.476562" xlink:href="#DejaVuSans-32"/>
       <use x="195.263672" xlink:href="#DejaVuSans-45"/>
       <use x="231.347656" xlink:href="#DejaVuSans-32"/>
       <use x="263.134766" xlink:href="#DejaVuSans-110"/>
       <use x="326.513672" xlink:href="#DejaVuSans-111"/>
       <use x="387.695312" xlink:href="#DejaVuSans-105"/>
       <use x="415.478516" xlink:href="#DejaVuSans-115"/>
       <use x="467.578125" xlink:href="#DejaVuSans-121"/>
      </g>
     </g>
    </g>
    <g id="ytick_8">
     <g id="line2d_12">
      <path d="M 164.152813 15.313171 
" style="fill:none;stroke:#333333;stroke-width:1.5;"/>
      <g>
       <use style="fill:#333333;stroke:#333333;" x="164.152813" xlink:href="#m135349ca44" y="15.313171"/>
      </g>
     </g>
     <g id="text_13">
      <!-- flat -->
      <g style="fill:#4d4d4d;" transform="translate(144.817563 17.741421)scale(0.088 -0.088)">
       <use xlink:href="#DejaVuSans-102"/>
       <use x="35.205078" xlink:href="#DejaVuSans-108"/>
       <use x="62.988281" xlink:href="#DejaVuSans-97"/>
       <use x="124.267578" xlink:href="#DejaVuSans-116"/>
      </g>
     </g>
    </g>
    <g id="text_14">
     <!-- escape map -->
     <defs>
      <path d="M 18.109375 8.203125 
L 18.109375 -20.796875 
L 9.078125 -20.796875 
L 9.078125 54.6875 
L 18.109375 54.6875 
L 18.109375 46.390625 
Q 20.953125 51.265625 25.265625 53.625 
Q 29.59375 56 35.59375 56 
Q 45.5625 56 51.78125 48.09375 
Q 58.015625 40.1875 58.015625 27.296875 
Q 58.015625 14.40625 51.78125 6.484375 
Q 45.5625 -1.421875 35.59375 -1.421875 
Q 29.59375 -1.421875 25.265625 0.953125 
Q 20.953125 3.328125 18.109375 8.203125 
z
M 48.6875 27.296875 
Q 48.6875 37.203125 44.609375 42.84375 
Q 40.53125 48.484375 33.40625 48.484375 
Q 26.265625 48.484375 22.1875 42.84375 
Q 18.109375 37.203125 18.109375 27.296875 
Q 18.109375 17.390625 22.1875 11.75 
Q 26.265625 6.109375 33.40625 6.109375 
Q 40.53125 6.109375 44.609375 11.75 
Q 48.6875 17.390625 48.6875 27.296875 
z
" id="DejaVuSans-112"/>
     </defs>
     <g transform="translate(15.558281 95.407266)rotate(-90)scale(0.11 -0.11)">
      <use xlink:href="#DejaVuSans-101"/>
      <use x="61.523438" xlink:href="#DejaVuSans-115"/>
      <use x="113.623047" xlink:href="#DejaVuSans-99"/>
      <use x="168.603516" xlink:href="#DejaVuSans-97"/>
      <use x="229.882812" xlink:href="#DejaVuSans-112"/>
      <use x="293.359375" xlink:href="#DejaVuSans-101"/>
      <use x="354.882812" xlink:href="#DejaVuSans-32"/>
      <use x="386.669922" xlink:href="#DejaVuSans-109"/>
      <use x="484.082031" xlink:href="#DejaVuSans-97"/>
      <use x="545.361328" xlink:href="#DejaVuSans-112"/>
     </g>
    </g>
   </g>
   <g id="PathCollection_1">
    <path clip-path="url(#pec9b495fc7)" d="M 173.425097 114.541296 
C 174.130187 114.541296 174.806494 114.261161 175.305068 113.762587 
C 175.803642 113.264012 176.083778 112.587706 176.083778 111.882615 
C 176.083778 111.177525 175.803642 110.501218 175.305068 110.002644 
C 174.806494 109.50407 174.130187 109.223935 173.425097 109.223935 
C 172.720006 109.223935 172.0437 109.50407 171.545126 110.002644 
C 171.046551 110.501218 170.766416 111.177525 170.766416 111.882615 
C 170.766416 112.587706 171.046551 113.264012 171.545126 113.762587 
C 172.0437 114.261161 172.720006 114.541296 173.425097 114.541296 
z
" style="fill:#56b4e9;fill-opacity:0.25098;stroke:#56b4e9;stroke-opacity:0.25098;stroke-width:0.886227;"/>
    <path clip-path="url(#pec9b495fc7)" d="M 270.244456 16.070879 
C 270.949546 16.070879 271.625853 15.790744 272.124427 15.292169 
C 272.623001 14.793595 272.903137 14.117289 272.903137 13.412198 
C 272.903137 12.707108 272.623001 12.030801 272.124427 11.532227 
C 271.625853 11.033653 270.949546 10.753518 270.244456 10.753518 
C 269.539366 10.753518 268.863059 11.033653 268.364485 11.532227 
C 267.865911 12.030801 267.585775 12.707108 267.585775 13.412198 
C 267.585775 14.117289 267.865911 14.793595 268.364485 15.292169 
C 268.863059 15.790744 269.539366 16.070879 270.244456 16.070879 
z
" style="fill:#56b4e9;fill-opacity:0.25098;stroke:#56b4e9;stroke-opacity:0.25098;stroke-width:0.886227;"/>
    <path clip-path="url(#pec9b495fc7)" d="M 203.197163 101.031404 
C 203.902253 101.031404 204.57856 100.751268 205.077134 100.252694 
C 205.575708 99.75412 205.855844 99.077813 205.855844 98.372723 
C 205.855844 97.667632 205.575708 96.991326 205.077134 96.492752 
C 204.57856 95.994177 203.902253 95.714042 203.197163 95.714042 
C 202.492073 95.714042 201.815766 95.994177 201.317192 96.492752 
C 200.818618 96.991326 200.538482 97.667632 200.538482 98.372723 
C 200.538482 99.077813 200.818618 99.75412 201.317192 100.252694 
C 201.815766 100.751268 202.492073 101.031404 203.197163 101.031404 
z
" style="fill:#56b4e9;fill-opacity:0.25098;stroke:#56b4e9;stroke-opacity:0.25098;stroke-width:0.886227;"/>
    <path clip-path="url(#pec9b495fc7)" d="M 201.515529 46.514261 
C 202.220619 46.514261 202.896926 46.234125 203.3955 45.735551 
C 203.894074 45.236977 204.17421 44.56067 204.17421 43.85558 
C 204.17421 43.150489 203.894074 42.474183 203.3955 41.975609 
C 202.896926 41.477034 202.220619 41.196899 201.515529 41.196899 
C 200.810439 41.196899 200.134132 41.477034 199.635558 41.975609 
C 199.136984 42.474183 198.856848 43.150489 198.856848 43.85558 
C 198.856848 44.56067 199.136984 45.236977 199.635558 45.735551 
C 200.134132 46.234125 200.810439 46.514261 201.515529 46.514261 
z
" style="fill:#56b4e9;fill-opacity:0.25098;stroke:#56b4e9;stroke-opacity:0.25098;stroke-width:0.886227;"/>
    <path clip-path="url(#pec9b495fc7)" d="M 200.663528 17.539648 
C 201.368619 17.539648 202.044925 17.259513 202.5435 16.760939 
C 203.042074 16.262365 203.322209 15.586058 203.322209 14.880968 
C 203.322209 14.175877 203.042074 13.49957 202.5435 13.000996 
C 202.044925 12.502422 201.368619 12.222287 200.663528 12.222287 
C 199.958438 12.222287 199.282131 12.502422 198.783557 13.000996 
C 198.284983 13.49957 198.004848 14.175877 198.004848 14.880968 
C 198.004848 15.586058 198.284983 16.262365 198.783557 16.760939 
C 199.282131 17.259513 199.958438 17.539648 200.663528 17.539648 
z
" style="fill:#56b4e9;fill-opacity:0.25098;stroke:#56b4e9;stroke-opacity:0.25098;stroke-width:0.886227;"/>
    <path clip-path="url(#pec9b495fc7)" d="M 234.264077 17.220358 
C 234.969168 17.220358 235.645474 16.940223 236.144049 16.441648 
C 236.642623 15.943074 236.922758 15.266768 236.922758 14.561677 
C 236.922758 13.856587 236.642623 13.18028 236.144049 12.681706 
C 235.645474 12.183132 234.969168 11.902996 234.264077 11.902996 
C 233.558987 11.902996 232.88268 12.183132 232.384106 12.681706 
C 231.885532 13.18028 231.605397 13.856587 231.605397 14.561677 
C 231.605397 15.266768 231.885532 15.943074 232.384106 16.441648 
C 232.88268 16.940223 233.558987 17.220358 234.264077 17.220358 
z
" style="fill:#56b4e9;fill-opacity:0.25098;stroke:#56b4e9;stroke-opacity:0.25098;stroke-width:0.886227;"/>
    <path clip-path="url(#pec9b495fc7)" d="M 234.00276 99.284771 
C 234.70785 99.284771 235.384157 99.004636 235.882731 98.506062 
C 236.381305 98.007487 236.661441 97.331181 236.661441 96.62609 
C 236.661441 95.921 236.381305 95.244693 235.882731 94.746119 
C 235.384157 94.247545 234.70785 93.96741 234.00276 93.96741 
C 233.297669 93.96741 232.621363 94.247545 232.122789 94.746119 
C 231.624214 95.244693 231.344079 95.921 231.344079 96.62609 
C 231.344079 97.331181 231.624214 98.007487 232.122789 98.506062 
C 232.621363 99.004636 233.297669 99.284771 234.00276 99.284771 
z
" style="fill:#56b4e9;fill-opacity:0.25098;stroke:#56b4e9;stroke-opacity:0.25098;stroke-width:0.886227;"/>
    <path clip-path="url(#pec9b495fc7)" d="M 171.886915 110.664885 
C 172.592006 110.664885 173.268313 110.384749 173.766887 109.886175 
C 174.265461 109.387601 174.545596 108.711294 174.545596 108.006204 
C 174.545596 107.301114 174.265461 106.624807 173.766887 106.126233 
C 173.268313 105.627659 172.592006 105.347523 171.886915 105.347523 
C 171.181825 105.347523 170.505518 105.627659 170.006944 106.126233 
C 169.50837 106.624807 169.228235 107.301114 169.228235 108.006204 
C 169.228235 108.711294 169.50837 109.387601 170.006944 109.886175 
C 170.505518 110.384749 171.181825 110.664885 171.886915 110.664885 
z
" style="fill:#56b4e9;fill-opacity:0.25098;stroke:#56b4e9;stroke-opacity:0.25098;stroke-width:0.886227;"/>
    <path clip-path="url(#pec9b495fc7)" d="M 203.045022 70.114227 
C 203.750112 70.114227 204.426419 69.834092 204.924993 69.335517 
C 205.423567 68.836943 205.703702 68.160637 205.703702 67.455546 
C 205.703702 66.750456 205.423567 66.074149 204.924993 65.575575 
C 204.426419 65.077001 203.750112 64.796865 203.045022 64.796865 
C 202.339931 64.796865 201.663625 65.077001 201.16505 65.575575 
C 200.666476 66.074149 200.386341 66.750456 200.386341 67.455546 
C 200.386341 68.160637 200.666476 68.836943 201.16505 69.335517 
C 201.663625 69.834092 202.339931 70.114227 203.045022 70.114227 
z
" style="fill:#56b4e9;fill-opacity:0.25098;stroke:#56b4e9;stroke-opacity:0.25098;stroke-width:0.886227;"/>
    <path clip-path="url(#pec9b495fc7)" d="M 265.516648 19.790813 
C 266.221738 19.790813 266.898045 19.510677 267.396619 19.012103 
C 267.895193 18.513529 268.175328 17.837222 268.175328 17.132132 
C 268.175328 16.427042 267.895193 15.750735 267.396619 15.252161 
C 266.898045 14.753587 266.221738 14.473451 265.516648 14.473451 
C 264.811557 14.473451 264.135251 14.753587 263.636676 15.252161 
C 263.138102 15.750735 262.857967 16.427042 262.857967 17.132132 
C 262.857967 17.837222 263.138102 18.513529 263.636676 19.012103 
C 264.135251 19.510677 264.811557 19.790813 265.516648 19.790813 
z
" style="fill:#56b4e9;fill-opacity:0.25098;stroke:#56b4e9;stroke-opacity:0.25098;stroke-width:0.886227;"/>
    <path clip-path="url(#pec9b495fc7)" d="M 204.273575 46.00593 
C 204.978665 46.00593 205.654972 45.725795 206.153546 45.227221 
C 206.65212 44.728646 206.932255 44.05234 206.932255 43.347249 
C 206.932255 42.642159 206.65212 41.965852 206.153546 41.467278 
C 205.654972 40.968704 204.978665 40.688569 204.273575 40.688569 
C 203.568484 40.688569 202.892178 40.968704 202.393604 41.467278 
C 201.895029 41.965852 201.614894 42.642159 201.614894 43.347249 
C 201.614894 44.05234 201.895029 44.728646 202.393604 45.227221 
C 202.892178 45.725795 203.568484 46.00593 204.273575 46.00593 
z
" style="fill:#56b4e9;fill-opacity:0.25098;stroke:#56b4e9;stroke-opacity:0.25098;stroke-width:0.886227;"/>
    <path clip-path="url(#pec9b495fc7)" d="M 235.839472 18.923309 
C 236.544562 18.923309 237.220869 18.643174 237.719443 18.1446 
C 238.218017 17.646026 238.498153 16.969719 238.498153 16.264629 
C 238.498153 15.559538 238.218017 14.883232 237.719443 14.384657 
C 237.220869 13.886083 236.544562 13.605948 235.839472 13.605948 
C 235.134381 13.605948 234.458075 13.886083 233.959501 14.384657 
C 233.460926 14.883232 233.180791 15.559538 233.180791 16.264629 
C 233.180791 16.969719 233.460926 17.646026 233.959501 18.1446 
C 234.458075 18.643174 235.134381 18.923309 235.839472 18.923309 
z
" style="fill:#56b4e9;fill-opacity:0.25098;stroke:#56b4e9;stroke-opacity:0.25098;stroke-width:0.886227;"/>
    <path clip-path="url(#pec9b495fc7)" d="M 232.315689 19.444112 
C 233.020779 19.444112 233.697086 19.163977 234.19566 18.665402 
C 234.694234 18.166828 234.97437 17.490522 234.97437 16.785431 
C 234.97437 16.080341 234.694234 15.404034 234.19566 14.90546 
C 233.697086 14.406886 233.020779 14.12675 232.315689 14.12675 
C 231.610599 14.12675 230.934292 14.406886 230.435718 14.90546 
C 229.937144 15.404034 229.657008 16.080341 229.657008 16.785431 
C 229.657008 17.490522 229.937144 18.166828 230.435718 18.665402 
C 230.934292 19.163977 231.610599 19.444112 232.315689 19.444112 
z
" style="fill:#56b4e9;fill-opacity:0.25098;stroke:#56b4e9;stroke-opacity:0.25098;stroke-width:0.886227;"/>
    <path clip-path="url(#pec9b495fc7)" d="M 205.435733 113.17394 
C 206.140823 113.17394 206.81713 112.893805 207.315704 112.39523 
C 207.814278 111.896656 208.094414 111.22035 208.094414 110.515259 
C 208.094414 109.810169 207.814278 109.133862 207.315704 108.635288 
C 206.81713 108.136714 206.140823 107.856578 205.435733 107.856578 
C 204.730643 107.856578 204.054336 108.136714 203.555762 108.635288 
C 203.057188 109.133862 202.777052 109.810169 202.777052 110.515259 
C 202.777052 111.22035 203.057188 111.896656 203.555762 112.39523 
C 204.054336 112.893805 204.730643 113.17394 205.435733 113.17394 
z
" style="fill:#56b4e9;fill-opacity:0.25098;stroke:#56b4e9;stroke-opacity:0.25098;stroke-width:0.886227;"/>
    <path clip-path="url(#pec9b495fc7)" d="M 200.676514 113.402243 
C 201.381604 113.402243 202.057911 113.122108 202.556485 112.623534 
C 203.055059 112.12496 203.335195 111.448653 203.335195 110.743563 
C 203.335195 110.038472 203.055059 109.362166 202.556485 108.863591 
C 202.057911 108.365017 201.381604 108.084882 200.676514 108.084882 
C 199.971423 108.084882 199.295117 108.365017 198.796543 108.863591 
C 198.297968 109.362166 198.017833 110.038472 198.017833 110.743563 
C 198.017833 111.448653 198.297968 112.12496 198.796543 112.623534 
C 199.295117 113.122108 199.971423 113.402243 200.676514 113.402243 
z
" style="fill:#56b4e9;fill-opacity:0.25098;stroke:#56b4e9;stroke-opacity:0.25098;stroke-width:0.886227;"/>
    <path clip-path="url(#pec9b495fc7)" d="M 270.20439 17.383191 
C 270.90948 17.383191 271.585787 17.103056 272.084361 16.604482 
C 272.582935 16.105907 272.86307 15.429601 272.86307 14.72451 
C 272.86307 14.01942 272.582935 13.343113 272.084361 12.844539 
C 271.585787 12.345965 270.90948 12.06583 270.20439 12.06583 
C 269.499299 12.06583 268.822993 12.345965 268.324418 12.844539 
C 267.825844 13.343113 267.545709 14.01942 267.545709 14.72451 
C 267.545709 15.429601 267.825844 16.105907 268.324418 16.604482 
C 268.822993 17.103056 269.499299 17.383191 270.20439 17.383191 
z
" style="fill:#56b4e9;fill-opacity:0.25098;stroke:#56b4e9;stroke-opacity:0.25098;stroke-width:0.886227;"/>
    <path clip-path="url(#pec9b495fc7)" d="M 200.891231 19.368086 
C 201.596322 19.368086 202.272628 19.087951 202.771203 18.589377 
C 203.269777 18.090802 203.549912 17.414496 203.549912 16.709405 
C 203.549912 16.004315 203.269777 15.328008 202.771203 14.829434 
C 202.272628 14.33086 201.596322 14.050725 200.891231 14.050725 
C 200.186141 14.050725 199.509834 14.33086 199.01126 14.829434 
C 198.512686 15.328008 198.232551 16.004315 198.232551 16.709405 
C 198.232551 17.414496 198.512686 18.090802 199.01126 18.589377 
C 199.509834 19.087951 200.186141 19.368086 200.891231 19.368086 
z
" style="fill:#56b4e9;fill-opacity:0.25098;stroke:#56b4e9;stroke-opacity:0.25098;stroke-width:0.886227;"/>
    <path clip-path="url(#pec9b495fc7)" d="M 203.535954 19.330489 
C 204.241044 19.330489 204.917351 19.050353 205.415925 18.551779 
C 205.914499 18.053205 206.194635 17.376898 206.194635 16.671808 
C 206.194635 15.966717 205.914499 15.290411 205.415925 14.791837 
C 204.917351 14.293262 204.241044 14.013127 203.535954 14.013127 
C 202.830863 14.013127 202.154557 14.293262 201.655983 14.791837 
C 201.157408 15.290411 200.877273 15.966717 200.877273 16.671808 
C 200.877273 17.376898 201.157408 18.053205 201.655983 18.551779 
C 202.154557 19.050353 202.830863 19.330489 203.535954 19.330489 
z
" style="fill:#56b4e9;fill-opacity:0.25098;stroke:#56b4e9;stroke-opacity:0.25098;stroke-width:0.886227;"/>
    <path clip-path="url(#pec9b495fc7)" d="M 233.879335 18.429314 
C 234.584425 18.429314 235.260732 18.149179 235.759306 17.650604 
C 236.25788 17.15203 236.538015 16.475724 236.538015 15.770633 
C 236.538015 15.065543 236.25788 14.389236 235.759306 13.890662 
C 235.260732 13.392088 234.584425 13.111952 233.879335 13.111952 
C 233.174244 13.111952 232.497938 13.392088 231.999363 13.890662 
C 231.500789 14.389236 231.220654 15.065543 231.220654 15.770633 
C 231.220654 16.475724 231.500789 17.15203 231.999363 17.650604 
C 232.497938 18.149179 233.174244 18.429314 233.879335 18.429314 
z
" style="fill:#56b4e9;fill-opacity:0.25098;stroke:#56b4e9;stroke-opacity:0.25098;stroke-width:0.886227;"/>
    <path clip-path="url(#pec9b495fc7)" d="M 202.543535 32.142141 
C 203.248625 32.142141 203.924932 31.862006 204.423506 31.363432 
C 204.92208 30.864858 205.202216 30.188551 205.202216 29.483461 
C 205.202216 28.77837 204.92208 28.102064 204.423506 27.603489 
C 203.924932 27.104915 203.248625 26.82478 202.543535 26.82478 
C 201.838444 26.82478 201.162138 27.104915 200.663564 27.603489 
C 200.164989 28.102064 199.884854 28.77837 199.884854 29.483461 
C 199.884854 30.188551 200.164989 30.864858 200.663564 31.363432 
C 201.162138 31.862006 201.838444 32.142141 202.543535 32.142141 
z
" style="fill:#56b4e9;fill-opacity:0.25098;stroke:#56b4e9;stroke-opacity:0.25098;stroke-width:0.886227;"/>
    <path clip-path="url(#pec9b495fc7)" d="M 266.416952 30.406849 
C 267.122043 30.406849 267.798349 30.126714 268.296924 29.62814 
C 268.795498 29.129566 269.075633 28.453259 269.075633 27.748169 
C 269.075633 27.043078 268.795498 26.366772 268.296924 25.868197 
C 267.798349 25.369623 267.122043 25.089488 266.416952 25.089488 
C 265.711862 25.089488 265.035555 25.369623 264.536981 25.868197 
C 264.038407 26.366772 263.758272 27.043078 263.758272 27.748169 
C 263.758272 28.453259 264.038407 29.129566 264.536981 29.62814 
C 265.035555 30.126714 265.711862 30.406849 266.416952 30.406849 
z
" style="fill:#56b4e9;fill-opacity:0.25098;stroke:#56b4e9;stroke-opacity:0.25098;stroke-width:0.886227;"/>
    <path clip-path="url(#pec9b495fc7)" d="M 203.951864 17.414022 
C 204.656954 17.414022 205.333261 17.133887 205.831835 16.635313 
C 206.330409 16.136738 206.610545 15.460432 206.610545 14.755341 
C 206.610545 14.050251 206.330409 13.373944 205.831835 12.87537 
C 205.333261 12.376796 204.656954 12.096661 203.951864 12.096661 
C 203.246773 12.096661 202.570467 12.376796 202.071893 12.87537 
C 201.573318 13.373944 201.293183 14.050251 201.293183 14.755341 
C 201.293183 15.460432 201.573318 16.136738 202.071893 16.635313 
C 202.570467 17.133887 203.246773 17.414022 203.951864 17.414022 
z
" style="fill:#56b4e9;fill-opacity:0.25098;stroke:#56b4e9;stroke-opacity:0.25098;stroke-width:0.886227;"/>
    <path clip-path="url(#pec9b495fc7)" d="M 169.22554 45.182791 
C 169.93063 45.182791 170.606937 44.902656 171.105511 44.404082 
C 171.604085 43.905508 171.884221 43.229201 171.884221 42.524111 
C 171.884221 41.81902 171.604085 41.142714 171.105511 40.644139 
C 170.606937 40.145565 169.93063 39.86543 169.22554 39.86543 
C 168.520449 39.86543 167.844143 40.145565 167.345569 40.644139 
C 166.846994 41.142714 166.566859 41.81902 166.566859 42.524111 
C 166.566859 43.229201 166.846994 43.905508 167.345569 44.404082 
C 167.844143 44.902656 168.520449 45.182791 169.22554 45.182791 
z
" style="fill:#56b4e9;fill-opacity:0.25098;stroke:#56b4e9;stroke-opacity:0.25098;stroke-width:0.886227;"/>
    <path clip-path="url(#pec9b495fc7)" d="M 200.573623 72.091348 
C 201.278713 72.091348 201.95502 71.811213 202.453594 71.312638 
C 202.952168 70.814064 203.232304 70.137758 203.232304 69.432667 
C 203.232304 68.727577 202.952168 68.05127 202.453594 67.552696 
C 201.95502 67.054122 201.278713 66.773986 200.573623 66.773986 
C 199.868532 66.773986 199.192226 67.054122 198.693652 67.552696 
C 198.195077 68.05127 197.914942 68.727577 197.914942 69.432667 
C 197.914942 70.137758 198.195077 70.814064 198.693652 71.312638 
C 199.192226 71.811213 199.868532 72.091348 200.573623 72.091348 
z
" style="fill:#56b4e9;fill-opacity:0.25098;stroke:#56b4e9;stroke-opacity:0.25098;stroke-width:0.886227;"/>
    <path clip-path="url(#pec9b495fc7)" d="M 202.477016 17.691989 
C 203.182107 17.691989 203.858413 17.411854 204.356988 16.91328 
C 204.855562 16.414705 205.135697 15.738399 205.135697 15.033308 
C 205.135697 14.328218 204.855562 13.651911 204.356988 13.153337 
C 203.858413 12.654763 203.182107 12.374628 202.477016 12.374628 
C 201.771926 12.374628 201.095619 12.654763 200.597045 13.153337 
C 200.098471 13.651911 199.818336 14.328218 199.818336 15.033308 
C 199.818336 15.738399 200.098471 16.414705 200.597045 16.91328 
C 201.095619 17.411854 201.771926 17.691989 202.477016 17.691989 
z
" style="fill:#56b4e9;fill-opacity:0.25098;stroke:#56b4e9;stroke-opacity:0.25098;stroke-width:0.886227;"/>
    <path clip-path="url(#pec9b495fc7)" d="M 201.416098 98.630643 
C 202.121188 98.630643 202.797495 98.350508 203.296069 97.851933 
C 203.794643 97.353359 204.074779 96.677053 204.074779 95.971962 
C 204.074779 95.266872 203.794643 94.590565 203.296069 94.091991 
C 202.797495 93.593417 202.121188 93.313281 201.416098 93.313281 
C 200.711007 93.313281 200.034701 93.593417 199.536127 94.091991 
C 199.037552 94.590565 198.757417 95.266872 198.757417 95.971962 
C 198.757417 96.677053 199.037552 97.353359 199.536127 97.851933 
C 200.034701 98.350508 200.711007 98.630643 201.416098 98.630643 
z
" style="fill:#56b4e9;fill-opacity:0.25098;stroke:#56b4e9;stroke-opacity:0.25098;stroke-width:0.886227;"/>
    <path clip-path="url(#pec9b495fc7)" d="M 200.821112 19.745589 
C 201.526202 19.745589 202.202509 19.465453 202.701083 18.966879 
C 203.199657 18.468305 203.479793 17.791998 203.479793 17.086908 
C 203.479793 16.381817 203.199657 15.705511 202.701083 15.206937 
C 202.202509 14.708362 201.526202 14.428227 200.821112 14.428227 
C 200.116022 14.428227 199.439715 14.708362 198.941141 15.206937 
C 198.442567 15.705511 198.162431 16.381817 198.162431 17.086908 
C 198.162431 17.791998 198.442567 18.468305 198.941141 18.966879 
C 199.439715 19.465453 200.116022 19.745589 200.821112 19.745589 
z
" style="fill:#56b4e9;fill-opacity:0.25098;stroke:#56b4e9;stroke-opacity:0.25098;stroke-width:0.886227;"/>
    <path clip-path="url(#pec9b495fc7)" d="M 203.211284 16.605245 
C 203.916374 16.605245 204.592681 16.32511 205.091255 15.826535 
C 205.589829 15.327961 205.869964 14.651655 205.869964 13.946564 
C 205.869964 13.241474 205.589829 12.565167 205.091255 12.066593 
C 204.592681 11.568019 203.916374 11.287883 203.211284 11.287883 
C 202.506193 11.287883 201.829887 11.568019 201.331312 12.066593 
C 200.832738 12.565167 200.552603 13.241474 200.552603 13.946564 
C 200.552603 14.651655 200.832738 15.327961 201.331312 15.826535 
C 201.829887 16.32511 202.506193 16.605245 203.211284 16.605245 
z
" style="fill:#56b4e9;fill-opacity:0.25098;stroke:#56b4e9;stroke-opacity:0.25098;stroke-width:0.886227;"/>
    <path clip-path="url(#pec9b495fc7)" d="M 264.821539 112.764425 
C 265.526629 112.764425 266.202936 112.48429 266.70151 111.985716 
C 267.200084 111.487142 267.48022 110.810835 267.48022 110.105745 
C 267.48022 109.400654 267.200084 108.724348 266.70151 108.225773 
C 266.202936 107.727199 265.526629 107.447064 264.821539 107.447064 
C 264.116449 107.447064 263.440142 107.727199 262.941568 108.225773 
C 262.442994 108.724348 262.162858 109.400654 262.162858 110.105745 
C 262.162858 110.810835 262.442994 111.487142 262.941568 111.985716 
C 263.440142 112.48429 264.116449 112.764425 264.821539 112.764425 
z
" style="fill:#e69f00;fill-opacity:0.25098;stroke:#e69f00;stroke-opacity:0.25098;stroke-width:0.886227;"/>
    <path clip-path="url(#pec9b495fc7)" d="M 270.680085 110.952356 
C 271.385176 110.952356 272.061482 110.672221 272.560056 110.173646 
C 273.058631 109.675072 273.338766 108.998766 273.338766 108.293675 
C 273.338766 107.588585 273.058631 106.912278 272.560056 106.413704 
C 272.061482 105.91513 271.385176 105.634994 270.680085 105.634994 
C 269.974995 105.634994 269.298688 105.91513 268.800114 106.413704 
C 268.30154 106.912278 268.021404 107.588585 268.021404 108.293675 
C 268.021404 108.998766 268.30154 109.675072 268.800114 110.173646 
C 269.298688 110.672221 269.974995 110.952356 270.680085 110.952356 
z
" style="fill:#e69f00;fill-opacity:0.25098;stroke:#e69f00;stroke-opacity:0.25098;stroke-width:0.886227;"/>
    <path clip-path="url(#pec9b495fc7)" d="M 232.204254 72.843582 
C 232.909344 72.843582 233.585651 72.563447 234.084225 72.064873 
C 234.582799 71.566299 234.862935 70.889992 234.862935 70.184902 
C 234.862935 69.479811 234.582799 68.803505 234.084225 68.30493 
C 233.585651 67.806356 232.909344 67.526221 232.204254 67.526221 
C 231.499163 67.526221 230.822857 67.806356 230.324283 68.30493 
C 229.825708 68.803505 229.545573 69.479811 229.545573 70.184902 
C 229.545573 70.889992 229.825708 71.566299 230.324283 72.064873 
C 230.822857 72.563447 231.499163 72.843582 232.204254 72.843582 
z
" style="fill:#e69f00;fill-opacity:0.25098;stroke:#e69f00;stroke-opacity:0.25098;stroke-width:0.886227;"/>
    <path clip-path="url(#pec9b495fc7)" d="M 205.838715 112.672113 
C 206.543806 112.672113 207.220112 112.391977 207.718687 111.893403 
C 208.217261 111.394829 208.497396 110.718522 208.497396 110.013432 
C 208.497396 109.308342 208.217261 108.632035 207.718687 108.133461 
C 207.220112 107.634887 206.543806 107.354751 205.838715 107.354751 
C 205.133625 107.354751 204.457318 107.634887 203.958744 108.133461 
C 203.46017 108.632035 203.180035 109.308342 203.180035 110.013432 
C 203.180035 110.718522 203.46017 111.394829 203.958744 111.893403 
C 204.457318 112.391977 205.133625 112.672113 205.838715 112.672113 
z
" style="fill:#e69f00;fill-opacity:0.25098;stroke:#e69f00;stroke-opacity:0.25098;stroke-width:0.886227;"/>
    <path clip-path="url(#pec9b495fc7)" d="M 201.713023 86.706853 
C 202.418114 86.706853 203.09442 86.426718 203.592995 85.928143 
C 204.091569 85.429569 204.371704 84.753262 204.371704 84.048172 
C 204.371704 83.343082 204.091569 82.666775 203.592995 82.168201 
C 203.09442 81.669627 202.418114 81.389491 201.713023 81.389491 
C 201.007933 81.389491 200.331626 81.669627 199.833052 82.168201 
C 199.334478 82.666775 199.054343 83.343082 199.054343 84.048172 
C 199.054343 84.753262 199.334478 85.429569 199.833052 85.928143 
C 200.331626 86.426718 201.007933 86.706853 201.713023 86.706853 
z
" style="fill:#e69f00;fill-opacity:0.25098;stroke:#e69f00;stroke-opacity:0.25098;stroke-width:0.886227;"/>
    <path clip-path="url(#pec9b495fc7)" d="M 204.449635 113.136037 
C 205.154725 113.136037 205.831032 112.855902 206.329606 112.357328 
C 206.82818 111.858754 207.108316 111.182447 207.108316 110.477357 
C 207.108316 109.772266 206.82818 109.09596 206.329606 108.597385 
C 205.831032 108.098811 205.154725 107.818676 204.449635 107.818676 
C 203.744544 107.818676 203.068238 108.098811 202.569664 108.597385 
C 202.071089 109.09596 201.790954 109.772266 201.790954 110.477357 
C 201.790954 111.182447 202.071089 111.858754 202.569664 112.357328 
C 203.068238 112.855902 203.744544 113.136037 204.449635 113.136037 
z
" style="fill:#e69f00;fill-opacity:0.25098;stroke:#e69f00;stroke-opacity:0.25098;stroke-width:0.886227;"/>
    <path clip-path="url(#pec9b495fc7)" d="M 203.348925 113.530071 
C 204.054016 113.530071 204.730322 113.249936 205.228896 112.751362 
C 205.727471 112.252788 206.007606 111.576481 206.007606 110.87139 
C 206.007606 110.1663 205.727471 109.489993 205.228896 108.991419 
C 204.730322 108.492845 204.054016 108.21271 203.348925 108.21271 
C 202.643835 108.21271 201.967528 108.492845 201.468954 108.991419 
C 200.97038 109.489993 200.690244 110.1663 200.690244 110.87139 
C 200.690244 111.576481 200.97038 112.252788 201.468954 112.751362 
C 201.967528 113.249936 202.643835 113.530071 203.348925 113.530071 
z
" style="fill:#e69f00;fill-opacity:0.25098;stroke:#e69f00;stroke-opacity:0.25098;stroke-width:0.886227;"/>
    <path clip-path="url(#pec9b495fc7)" d="M 232.437178 113.314446 
C 233.142269 113.314446 233.818575 113.034311 234.31715 112.535737 
C 234.815724 112.037162 235.095859 111.360856 235.095859 110.655765 
C 235.095859 109.950675 234.815724 109.274368 234.31715 108.775794 
C 233.818575 108.27722 233.142269 107.997085 232.437178 107.997085 
C 231.732088 107.997085 231.055781 108.27722 230.557207 108.775794 
C 230.058633 109.274368 229.778498 109.950675 229.778498 110.655765 
C 229.778498 111.360856 230.058633 112.037162 230.557207 112.535737 
C 231.055781 113.034311 231.732088 113.314446 232.437178 113.314446 
z
" style="fill:#e69f00;fill-opacity:0.25098;stroke:#e69f00;stroke-opacity:0.25098;stroke-width:0.886227;"/>
    <path clip-path="url(#pec9b495fc7)" d="M 237.224221 18.517969 
C 237.929311 18.517969 238.605618 18.237833 239.104192 17.739259 
C 239.602766 17.240685 239.882901 16.564378 239.882901 15.859288 
C 239.882901 15.154197 239.602766 14.477891 239.104192 13.979317 
C 238.605618 13.480742 237.929311 13.200607 237.224221 13.200607 
C 236.51913 13.200607 235.842824 13.480742 235.344249 13.979317 
C 234.845675 14.477891 234.56554 15.154197 234.56554 15.859288 
C 234.56554 16.564378 234.845675 17.240685 235.344249 17.739259 
C 235.842824 18.237833 236.51913 18.517969 237.224221 18.517969 
z
" style="fill:#e69f00;fill-opacity:0.25098;stroke:#e69f00;stroke-opacity:0.25098;stroke-width:0.886227;"/>
    <path clip-path="url(#pec9b495fc7)" d="M 200.260564 113.149587 
C 200.965654 113.149587 201.641961 112.869452 202.140535 112.370878 
C 202.639109 111.872304 202.919245 111.195997 202.919245 110.490907 
C 202.919245 109.785816 202.639109 109.10951 202.140535 108.610935 
C 201.641961 108.112361 200.965654 107.832226 200.260564 107.832226 
C 199.555474 107.832226 198.879167 108.112361 198.380593 108.610935 
C 197.882019 109.10951 197.601883 109.785816 197.601883 110.490907 
C 197.601883 111.195997 197.882019 111.872304 198.380593 112.370878 
C 198.879167 112.869452 199.555474 113.149587 200.260564 113.149587 
z
" style="fill:#e69f00;fill-opacity:0.25098;stroke:#e69f00;stroke-opacity:0.25098;stroke-width:0.886227;"/>
    <path clip-path="url(#pec9b495fc7)" d="M 200.786762 110.869949 
C 201.491852 110.869949 202.168159 110.589813 202.666733 110.091239 
C 203.165307 109.592665 203.445443 108.916358 203.445443 108.211268 
C 203.445443 107.506178 203.165307 106.829871 202.666733 106.331297 
C 202.168159 105.832723 201.491852 105.552587 200.786762 105.552587 
C 200.081671 105.552587 199.405365 105.832723 198.906791 106.331297 
C 198.408216 106.829871 198.128081 107.506178 198.128081 108.211268 
C 198.128081 108.916358 198.408216 109.592665 198.906791 110.091239 
C 199.405365 110.589813 200.081671 110.869949 200.786762 110.869949 
z
" style="fill:#e69f00;fill-opacity:0.25098;stroke:#e69f00;stroke-opacity:0.25098;stroke-width:0.886227;"/>
    <path clip-path="url(#pec9b495fc7)" d="M 203.856594 113.358429 
C 204.561685 113.358429 205.237991 113.078294 205.736566 112.57972 
C 206.23514 112.081145 206.515275 111.404839 206.515275 110.699748 
C 206.515275 109.994658 206.23514 109.318351 205.736566 108.819777 
C 205.237991 108.321203 204.561685 108.041068 203.856594 108.041068 
C 203.151504 108.041068 202.475197 108.321203 201.976623 108.819777 
C 201.478049 109.318351 201.197914 109.994658 201.197914 110.699748 
C 201.197914 111.404839 201.478049 112.081145 201.976623 112.57972 
C 202.475197 113.078294 203.151504 113.358429 203.856594 113.358429 
z
" style="fill:#e69f00;fill-opacity:0.25098;stroke:#e69f00;stroke-opacity:0.25098;stroke-width:0.886227;"/>
    <path clip-path="url(#pec9b495fc7)" d="M 172.111895 57.243313 
C 172.816986 57.243313 173.493293 56.963177 173.991867 56.464603 
C 174.490441 55.966029 174.770576 55.289722 174.770576 54.584632 
C 174.770576 53.879542 174.490441 53.203235 173.991867 52.704661 
C 173.493293 52.206086 172.816986 51.925951 172.111895 51.925951 
C 171.406805 51.925951 170.730498 52.206086 170.231924 52.704661 
C 169.73335 53.203235 169.453215 53.879542 169.453215 54.584632 
C 169.453215 55.289722 169.73335 55.966029 170.231924 56.464603 
C 170.730498 56.963177 171.406805 57.243313 172.111895 57.243313 
z
" style="fill:#e69f00;fill-opacity:0.25098;stroke:#e69f00;stroke-opacity:0.25098;stroke-width:0.886227;"/>
    <path clip-path="url(#pec9b495fc7)" d="M 231.94507 57.945845 
C 232.650161 57.945845 233.326467 57.665709 233.825042 57.167135 
C 234.323616 56.668561 234.603751 55.992254 234.603751 55.287164 
C 234.603751 54.582073 234.323616 53.905767 233.825042 53.407193 
C 233.326467 52.908618 232.650161 52.628483 231.94507 52.628483 
C 231.23998 52.628483 230.563673 52.908618 230.065099 53.407193 
C 229.566525 53.905767 229.28639 54.582073 229.28639 55.287164 
C 229.28639 55.992254 229.566525 56.668561 230.065099 57.167135 
C 230.563673 57.665709 231.23998 57.945845 231.94507 57.945845 
z
" style="fill:#e69f00;fill-opacity:0.25098;stroke:#e69f00;stroke-opacity:0.25098;stroke-width:0.886227;"/>
    <path clip-path="url(#pec9b495fc7)" d="M 202.381799 17.934997 
C 203.086889 17.934997 203.763196 17.654862 204.26177 17.156288 
C 204.760344 16.657714 205.04048 15.981407 205.04048 15.276317 
C 205.04048 14.571226 204.760344 13.89492 204.26177 13.396345 
C 203.763196 12.897771 203.086889 12.617636 202.381799 12.617636 
C 201.676708 12.617636 201.000402 12.897771 200.501828 13.396345 
C 200.003253 13.89492 199.723118 14.571226 199.723118 15.276317 
C 199.723118 15.981407 200.003253 16.657714 200.501828 17.156288 
C 201.000402 17.654862 201.676708 17.934997 202.381799 17.934997 
z
" style="fill:#e69f00;fill-opacity:0.25098;stroke:#e69f00;stroke-opacity:0.25098;stroke-width:0.886227;"/>
    <path clip-path="url(#pec9b495fc7)" d="M 192.619461 57.889093 
C 193.324551 57.889093 194.000858 57.608958 194.499432 57.110384 
C 194.998006 56.61181 195.278142 55.935503 195.278142 55.230413 
C 195.278142 54.525322 194.998006 53.849016 194.499432 53.350441 
C 194.000858 52.851867 193.324551 52.571732 192.619461 52.571732 
C 191.91437 52.571732 191.238064 52.851867 190.73949 53.350441 
C 190.240915 53.849016 189.96078 54.525322 189.96078 55.230413 
C 189.96078 55.935503 190.240915 56.61181 190.73949 57.110384 
C 191.238064 57.608958 191.91437 57.889093 192.619461 57.889093 
z
" style="fill:#e69f00;fill-opacity:0.25098;stroke:#e69f00;stroke-opacity:0.25098;stroke-width:0.886227;"/>
    <path clip-path="url(#pec9b495fc7)" d="M 173.513544 58.815534 
C 174.218634 58.815534 174.894941 58.535399 175.393515 58.036824 
C 175.892089 57.53825 176.172225 56.861944 176.172225 56.156853 
C 176.172225 55.451763 175.892089 54.775456 175.393515 54.276882 
C 174.894941 53.778308 174.218634 53.498172 173.513544 53.498172 
C 172.808454 53.498172 172.132147 53.778308 171.633573 54.276882 
C 171.134999 54.775456 170.854863 55.451763 170.854863 56.156853 
C 170.854863 56.861944 171.134999 57.53825 171.633573 58.036824 
C 172.132147 58.535399 172.808454 58.815534 173.513544 58.815534 
z
" style="fill:#e69f00;fill-opacity:0.25098;stroke:#e69f00;stroke-opacity:0.25098;stroke-width:0.886227;"/>
    <path clip-path="url(#pec9b495fc7)" d="M 173.35247 58.850435 
C 174.05756 58.850435 174.733867 58.5703 175.232441 58.071726 
C 175.731015 57.573152 176.011151 56.896845 176.011151 56.191755 
C 176.011151 55.486664 175.731015 54.810358 175.232441 54.311783 
C 174.733867 53.813209 174.05756 53.533074 173.35247 53.533074 
C 172.647379 53.533074 171.971073 53.813209 171.472499 54.311783 
C 170.973924 54.810358 170.693789 55.486664 170.693789 56.191755 
C 170.693789 56.896845 170.973924 57.573152 171.472499 58.071726 
C 171.971073 58.5703 172.647379 58.850435 173.35247 58.850435 
z
" style="fill:#e69f00;fill-opacity:0.25098;stroke:#e69f00;stroke-opacity:0.25098;stroke-width:0.886227;"/>
    <path clip-path="url(#pec9b495fc7)" d="M 173.040722 57.412736 
C 173.745813 57.412736 174.422119 57.132601 174.920694 56.634027 
C 175.419268 56.135452 175.699403 55.459146 175.699403 54.754055 
C 175.699403 54.048965 175.419268 53.372658 174.920694 52.874084 
C 174.422119 52.37551 173.745813 52.095375 173.040722 52.095375 
C 172.335632 52.095375 171.659325 52.37551 171.160751 52.874084 
C 170.662177 53.372658 170.382042 54.048965 170.382042 54.754055 
C 170.382042 55.459146 170.662177 56.135452 171.160751 56.634027 
C 171.659325 57.132601 172.335632 57.412736 173.040722 57.412736 
z
" style="fill:#e69f00;fill-opacity:0.25098;stroke:#e69f00;stroke-opacity:0.25098;stroke-width:0.886227;"/>
    <path clip-path="url(#pec9b495fc7)" d="M 199.707094 44.446421 
C 200.412185 44.446421 201.088491 44.166285 201.587065 43.667711 
C 202.08564 43.169137 202.365775 42.49283 202.365775 41.78774 
C 202.365775 41.08265 202.08564 40.406343 201.587065 39.907769 
C 201.088491 39.409195 200.412185 39.129059 199.707094 39.129059 
C 199.002004 39.129059 198.325697 39.409195 197.827123 39.907769 
C 197.328549 40.406343 197.048413 41.08265 197.048413 41.78774 
C 197.048413 42.49283 197.328549 43.169137 197.827123 43.667711 
C 198.325697 44.166285 199.002004 44.446421 199.707094 44.446421 
z
" style="fill:#e69f00;fill-opacity:0.25098;stroke:#e69f00;stroke-opacity:0.25098;stroke-width:0.886227;"/>
    <path clip-path="url(#pec9b495fc7)" d="M 264.464267 19.131938 
C 265.169358 19.131938 265.845664 18.851803 266.344238 18.353229 
C 266.842813 17.854654 267.122948 17.178348 267.122948 16.473257 
C 267.122948 15.768167 266.842813 15.09186 266.344238 14.593286 
C 265.845664 14.094712 265.169358 13.814577 264.464267 13.814577 
C 263.759177 13.814577 263.08287 14.094712 262.584296 14.593286 
C 262.085722 15.09186 261.805586 15.768167 261.805586 16.473257 
C 261.805586 17.178348 262.085722 17.854654 262.584296 18.353229 
C 263.08287 18.851803 263.759177 19.131938 264.464267 19.131938 
z
" style="fill:#e69f00;fill-opacity:0.25098;stroke:#e69f00;stroke-opacity:0.25098;stroke-width:0.886227;"/>
    <path clip-path="url(#pec9b495fc7)" d="M 206.25331 97.702498 
C 206.9584 97.702498 207.634707 97.422363 208.133281 96.923788 
C 208.631855 96.425214 208.91199 95.748908 208.91199 95.043817 
C 208.91199 94.338727 208.631855 93.66242 208.133281 93.163846 
C 207.634707 92.665272 206.9584 92.385136 206.25331 92.385136 
C 205.548219 92.385136 204.871913 92.665272 204.373338 93.163846 
C 203.874764 93.66242 203.594629 94.338727 203.594629 95.043817 
C 203.594629 95.748908 203.874764 96.425214 204.373338 96.923788 
C 204.871913 97.422363 205.548219 97.702498 206.25331 97.702498 
z
" style="fill:#e69f00;fill-opacity:0.25098;stroke:#e69f00;stroke-opacity:0.25098;stroke-width:0.886227;"/>
   </g>
   <g id="patch_3">
    <path d="M 164.152813 118.08 
L 164.152813 7.2 
" style="fill:none;stroke:#000000;stroke-linecap:square;stroke-linejoin:miter;"/>
   </g>
   <g id="patch_4">
    <path d="M 164.152813 118.08 
L 275.752813 118.08 
" style="fill:none;stroke:#000000;stroke-linecap:square;stroke-linejoin:miter;"/>
   </g>
  </g>
 </g>
 <defs>
  <clipPath id="pec9b495fc7">
   <rect height="110.88" width="111.6" x="164.152813" y="7.2"/>
  </clipPath>
 </defs>
</svg>
