<?xml version="1.0" encoding="utf-8" standalone="no"?>
<!DOCTYPE svg PUBLIC "-//W3C//DTD SVG 1.1//EN"
  "http://www.w3.org/Graphics/SVG/1.1/DTD/svg11.dtd">
<!-- Created with matplotlib (https://matplotlib.org/) -->
<svg height="203.802813pt" version="1.1" viewBox="0 0 282.952812 203.802813" width="282.952812pt" xmlns="http://www.w3.org/2000/svg" xmlns:xlink="http://www.w3.org/1999/xlink">
 <defs>
  <style type="text/css">
*{stroke-linecap:butt;stroke-linejoin:round;}
  </style>
 </defs>
 <g id="figure_1">
  <g id="patch_1">
   <path d="M 0 203.802813 
L 282.952812 203.802813 
L 282.952812 0 
L 0 0 
z
" style="fill:#ffffff;stroke:#ffffff;stroke-linejoin:miter;"/>
  </g>
  <g id="axes_1">
   <g id="patch_2">
    <path d="M 164.152813 118.08 
L 275.752813 118.08 
L 275.752813 7.2 
L 164.152813 7.2 
z
" style="fill:#ffffff;"/>
   </g>
   <g id="matplotlib.axis_1">
    <g id="xtick_1">
     <g id="line2d_1">
      <path d="M 177.029736 118.08 
" style="fill:none;stroke:#333333;stroke-width:1.5;"/>
      <defs>
       <path d="M 0 0 
L 0 2.75 
" id="mdbb28e3fdb" style="stroke:#333333;"/>
      </defs>
      <g>
       <use style="fill:#333333;stroke:#333333;" x="177.029736" xlink:href="#mdbb28e3fdb" y="118.08"/>
      </g>
     </g>
     <g id="text_1">
      <!-- low -->
      <defs>
       <path d="M 9.421875 75.984375 
L 18.40625 75.984375 
L 18.40625 0 
L 9.421875 0 
z
" id="DejaVuSans-108"/>
       <path d="M 30.609375 48.390625 
Q 23.390625 48.390625 19.1875 42.75 
Q 14.984375 37.109375 14.984375 27.296875 
Q 14.984375 17.484375 19.15625 11.84375 
Q 23.34375 6.203125 30.609375 6.203125 
Q 37.796875 6.203125 41.984375 11.859375 
Q 46.1875 17.53125 46.1875 27.296875 
Q 46.1875 37.015625 41.984375 42.703125 
Q 37.796875 48.390625 30.609375 48.390625 
z
M 30.609375 56 
Q 42.328125 56 49.015625 48.375 
Q 55.71875 40.765625 55.71875 27.296875 
Q 55.71875 13.875 49.015625 6.21875 
Q 42.328125 -1.421875 30.609375 -1.421875 
Q 18.84375 -1.421875 12.171875 6.21875 
Q 5.515625 13.875 5.515625 27.296875 
Q 5.515625 40.765625 12.171875 48.375 
Q 18.84375 56 30.609375 56 
z
" id="DejaVuSans-111"/>
       <path d="M 4.203125 54.6875 
L 13.1875 54.6875 
L 24.421875 12.015625 
L 35.59375 54.6875 
L 46.1875 54.6875 
L 57.421875 12.015625 
L 68.609375 54.6875 
L 77.59375 54.6875 
L 63.28125 0 
L 52.6875 0 
L 40.921875 44.828125 
L 29.109375 0 
L 18.5 0 
z
" id="DejaVuSans-119"/>
      </defs>
      <g style="fill:#4d4d4d;" transform="translate(179.457986 138.056)rotate(-90)scale(0.088 -0.088)">
       <use xlink:href="#DejaVuSans-108"/>
       <use x="27.783203" xlink:href="#DejaVuSans-111"/>
       <use x="88.964844" xlink:href="#DejaVuSans-119"/>
      </g>
     </g>
    </g>
    <g id="xtick_2">
     <g id="line2d_2">
      <path d="M 198.491274 118.08 
" style="fill:none;stroke:#333333;stroke-width:1.5;"/>
      <g>
       <use style="fill:#333333;stroke:#333333;" x="198.491274" xlink:href="#mdbb28e3fdb" y="118.08"/>
      </g>
     </g>
     <g id="text_2">
      <!-- low-medium -->
      <defs>
       <path d="M 4.890625 31.390625 
L 31.203125 31.390625 
L 31.203125 23.390625 
L 4.890625 23.390625 
z
" id="DejaVuSans-45"/>
       <path d="M 52 44.1875 
Q 55.375 50.25 60.0625 53.125 
Q 64.75 56 71.09375 56 
Q 79.640625 56 84.28125 50.015625 
Q 88.921875 44.046875 88.921875 33.015625 
L 88.921875 0 
L 79.890625 0 
L 79.890625 32.71875 
Q 79.890625 40.578125 77.09375 44.375 
Q 74.3125 48.1875 68.609375 48.1875 
Q 61.625 48.1875 57.5625 43.546875 
Q 53.515625 38.921875 53.515625 30.90625 
L 53.515625 0 
L 44.484375 0 
L 44.484375 32.71875 
Q 44.484375 40.625 41.703125 44.40625 
Q 38.921875 48.1875 33.109375 48.1875 
Q 26.21875 48.1875 22.15625 43.53125 
Q 18.109375 38.875 18.109375 30.90625 
L 18.109375 0 
L 9.078125 0 
L 9.078125 54.6875 
L 18.109375 54.6875 
L 18.109375 46.1875 
Q 21.1875 51.21875 25.484375 53.609375 
Q 29.78125 56 35.6875 56 
Q 41.65625 56 45.828125 52.96875 
Q 50 49.953125 52 44.1875 
z
" id="DejaVuSans-109"/>
       <path d="M 56.203125 29.59375 
L 56.203125 25.203125 
L 14.890625 25.203125 
Q 15.484375 15.921875 20.484375 11.0625 
Q 25.484375 6.203125 34.421875 6.203125 
Q 39.59375 6.203125 44.453125 7.46875 
Q 49.3125 8.734375 54.109375 11.28125 
L 54.109375 2.78125 
Q 49.265625 0.734375 44.1875 -0.34375 
Q 39.109375 -1.421875 33.890625 -1.421875 
Q 20.796875 -1.421875 13.15625 6.1875 
Q 5.515625 13.8125 5.515625 26.8125 
Q 5.515625 40.234375 12.765625 48.109375 
Q 20.015625 56 32.328125 56 
Q 43.359375 56 49.78125 48.890625 
Q 56.203125 41.796875 56.203125 29.59375 
z
M 47.21875 32.234375 
Q 47.125 39.59375 43.09375 43.984375 
Q 39.0625 48.390625 32.421875 48.390625 
Q 24.90625 48.390625 20.390625 44.140625 
Q 15.875 39.890625 15.1875 32.171875 
z
" id="DejaVuSans-101"/>
       <path d="M 45.40625 46.390625 
L 45.40625 75.984375 
L 54.390625 75.984375 
L 54.390625 0 
L 45.40625 0 
L 45.40625 8.203125 
Q 42.578125 3.328125 38.25 0.953125 
Q 33.9375 -1.421875 27.875 -1.421875 
Q 17.96875 -1.421875 11.734375 6.484375 
Q 5.515625 14.40625 5.515625 27.296875 
Q 5.515625 40.1875 11.734375 48.09375 
Q 17.96875 56 27.875 56 
Q 33.9375 56 38.25 53.625 
Q 42.578125 51.265625 45.40625 46.390625 
z
M 14.796875 27.296875 
Q 14.796875 17.390625 18.875 11.75 
Q 22.953125 6.109375 30.078125 6.109375 
Q 37.203125 6.109375 41.296875 11.75 
Q 45.40625 17.390625 45.40625 27.296875 
Q 45.40625 37.203125 41.296875 42.84375 
Q 37.203125 48.484375 30.078125 48.484375 
Q 22.953125 48.484375 18.875 42.84375 
Q 14.796875 37.203125 14.796875 27.296875 
z
" id="DejaVuSans-100"/>
       <path d="M 9.421875 54.6875 
L 18.40625 54.6875 
L 18.40625 0 
L 9.421875 0 
z
M 9.421875 75.984375 
L 18.40625 75.984375 
L 18.40625 64.59375 
L 9.421875 64.59375 
z
" id="DejaVuSans-105"/>
       <path d="M 8.5 21.578125 
L 8.5 54.6875 
L 17.484375 54.6875 
L 17.484375 21.921875 
Q 17.484375 14.15625 20.5 10.265625 
Q 23.53125 6.390625 29.59375 6.390625 
Q 36.859375 6.390625 41.078125 11.03125 
Q 45.3125 15.671875 45.3125 23.6875 
L 45.3125 54.6875 
L 54.296875 54.6875 
L 54.296875 0 
L 45.3125 0 
L 45.3125 8.40625 
Q 42.046875 3.421875 37.71875 1 
Q 33.40625 -1.421875 27.6875 -1.421875 
Q 18.265625 -1.421875 13.375 4.4375 
Q 8.5 10.296875 8.5 21.578125 
z
M 31.109375 56 
z
" id="DejaVuSans-117"/>
      </defs>
      <g style="fill:#4d4d4d;" transform="translate(200.919524 177.3975)rotate(-90)scale(0.088 -0.088)">
       <use xlink:href="#DejaVuSans-108"/>
       <use x="27.783203" xlink:href="#DejaVuSans-111"/>
       <use x="88.964844" xlink:href="#DejaVuSans-119"/>
       <use x="170.751953" xlink:href="#DejaVuSans-45"/>
       <use x="206.835938" xlink:href="#DejaVuSans-109"/>
       <use x="304.248047" xlink:href="#DejaVuSans-101"/>
       <use x="365.771484" xlink:href="#DejaVuSans-100"/>
       <use x="429.248047" xlink:href="#DejaVuSans-105"/>
       <use x="457.03125" xlink:href="#DejaVuSans-117"/>
       <use x="520.410156" xlink:href="#DejaVuSans-109"/>
      </g>
     </g>
    </g>
    <g id="xtick_3">
     <g id="line2d_3">
      <path d="M 219.952813 118.08 
" style="fill:none;stroke:#333333;stroke-width:1.5;"/>
      <g>
       <use style="fill:#333333;stroke:#333333;" x="219.952813" xlink:href="#mdbb28e3fdb" y="118.08"/>
      </g>
     </g>
     <g id="text_3">
      <!-- medium -->
      <g style="fill:#4d4d4d;" transform="translate(222.381063 159.196625)rotate(-90)scale(0.088 -0.088)">
       <use xlink:href="#DejaVuSans-109"/>
       <use x="97.412109" xlink:href="#DejaVuSans-101"/>
       <use x="158.935547" xlink:href="#DejaVuSans-100"/>
       <use x="222.412109" xlink:href="#DejaVuSans-105"/>
       <use x="250.195312" xlink:href="#DejaVuSans-117"/>
       <use x="313.574219" xlink:href="#DejaVuSans-109"/>
      </g>
     </g>
    </g>
    <g id="xtick_4">
     <g id="line2d_4">
      <path d="M 241.414351 118.08 
" style="fill:none;stroke:#333333;stroke-width:1.5;"/>
      <g>
       <use style="fill:#333333;stroke:#333333;" x="241.414351" xlink:href="#mdbb28e3fdb" y="118.08"/>
      </g>
     </g>
     <g id="text_4">
      <!-- medium-high -->
      <defs>
       <path d="M 54.890625 33.015625 
L 54.890625 0 
L 45.90625 0 
L 45.90625 32.71875 
Q 45.90625 40.484375 42.875 44.328125 
Q 39.84375 48.1875 33.796875 48.1875 
Q 26.515625 48.1875 22.3125 43.546875 
Q 18.109375 38.921875 18.109375 30.90625 
L 18.109375 0 
L 9.078125 0 
L 9.078125 75.984375 
L 18.109375 75.984375 
L 18.109375 46.1875 
Q 21.34375 51.125 25.703125 53.5625 
Q 30.078125 56 35.796875 56 
Q 45.21875 56 50.046875 50.171875 
Q 54.890625 44.34375 54.890625 33.015625 
z
" id="DejaVuSans-104"/>
       <path d="M 45.40625 27.984375 
Q 45.40625 37.75 41.375 43.109375 
Q 37.359375 48.484375 30.078125 48.484375 
Q 22.859375 48.484375 18.828125 43.109375 
Q 14.796875 37.75 14.796875 27.984375 
Q 14.796875 18.265625 18.828125 12.890625 
Q 22.859375 7.515625 30.078125 7.515625 
Q 37.359375 7.515625 41.375 12.890625 
Q 45.40625 18.265625 45.40625 27.984375 
z
M 54.390625 6.78125 
Q 54.390625 -7.171875 48.1875 -13.984375 
Q 42 -20.796875 29.203125 -20.796875 
Q 24.46875 -20.796875 20.265625 -20.09375 
Q 16.0625 -19.390625 12.109375 -17.921875 
L 12.109375 -9.1875 
Q 16.0625 -11.328125 19.921875 -12.34375 
Q 23.78125 -13.375 27.78125 -13.375 
Q 36.625 -13.375 41.015625 -8.765625 
Q 45.40625 -4.15625 45.40625 5.171875 
L 45.40625 9.625 
Q 42.625 4.78125 38.28125 2.390625 
Q 33.9375 0 27.875 0 
Q 17.828125 0 11.671875 7.65625 
Q 5.515625 15.328125 5.515625 27.984375 
Q 5.515625 40.671875 11.671875 48.328125 
Q 17.828125 56 27.875 56 
Q 33.9375 56 38.28125 53.609375 
Q 42.625 51.21875 45.40625 46.390625 
L 45.40625 54.6875 
L 54.390625 54.6875 
z
" id="DejaVuSans-103"/>
      </defs>
      <g style="fill:#4d4d4d;" transform="translate(243.842601 181.556875)rotate(-90)scale(0.088 -0.088)">
       <use xlink:href="#DejaVuSans-109"/>
       <use x="97.412109" xlink:href="#DejaVuSans-101"/>
       <use x="158.935547" xlink:href="#DejaVuSans-100"/>
       <use x="222.412109" xlink:href="#DejaVuSans-105"/>
       <use x="250.195312" xlink:href="#DejaVuSans-117"/>
       <use x="313.574219" xlink:href="#DejaVuSans-109"/>
       <use x="410.986328" xlink:href="#DejaVuSans-45"/>
       <use x="447.070312" xlink:href="#DejaVuSans-104"/>
       <use x="510.449219" xlink:href="#DejaVuSans-105"/>
       <use x="538.232422" xlink:href="#DejaVuSans-103"/>
       <use x="601.708984" xlink:href="#DejaVuSans-104"/>
      </g>
     </g>
    </g>
    <g id="xtick_5">
     <g id="line2d_5">
      <path d="M 262.875889 118.08 
" style="fill:none;stroke:#333333;stroke-width:1.5;"/>
      <g>
       <use style="fill:#333333;stroke:#333333;" x="262.875889" xlink:href="#mdbb28e3fdb" y="118.08"/>
      </g>
     </g>
     <g id="text_5">
      <!-- high -->
      <g style="fill:#4d4d4d;" transform="translate(265.304139 142.215375)rotate(-90)scale(0.088 -0.088)">
       <use xlink:href="#DejaVuSans-104"/>
       <use x="63.378906" xlink:href="#DejaVuSans-105"/>
       <use x="91.162109" xlink:href="#DejaVuSans-103"/>
       <use x="154.638672" xlink:href="#DejaVuSans-104"/>
      </g>
     </g>
    </g>
    <g id="text_6">
     <!-- staining background -->
     <defs>
      <path d="M 44.28125 53.078125 
L 44.28125 44.578125 
Q 40.484375 46.53125 36.375 47.5 
Q 32.28125 48.484375 27.875 48.484375 
Q 21.1875 48.484375 17.84375 46.4375 
Q 14.5 44.390625 14.5 40.28125 
Q 14.5 37.15625 16.890625 35.375 
Q 19.28125 33.59375 26.515625 31.984375 
L 29.59375 31.296875 
Q 39.15625 29.25 43.1875 25.515625 
Q 47.21875 21.78125 47.21875 15.09375 
Q 47.21875 7.46875 41.1875 3.015625 
Q 35.15625 -1.421875 24.609375 -1.421875 
Q 20.21875 -1.421875 15.453125 -0.5625 
Q 10.6875 0.296875 5.421875 2 
L 5.421875 11.28125 
Q 10.40625 8.6875 15.234375 7.390625 
Q 20.0625 6.109375 24.8125 6.109375 
Q 31.15625 6.109375 34.5625 8.28125 
Q 37.984375 10.453125 37.984375 14.40625 
Q 37.984375 18.0625 35.515625 20.015625 
Q 33.0625 21.96875 24.703125 23.78125 
L 21.578125 24.515625 
Q 13.234375 26.265625 9.515625 29.90625 
Q 5.8125 33.546875 5.8125 39.890625 
Q 5.8125 47.609375 11.28125 51.796875 
Q 16.75 56 26.8125 56 
Q 31.78125 56 36.171875 55.265625 
Q 40.578125 54.546875 44.28125 53.078125 
z
" id="DejaVuSans-115"/>
      <path d="M 18.3125 70.21875 
L 18.3125 54.6875 
L 36.8125 54.6875 
L 36.8125 47.703125 
L 18.3125 47.703125 
L 18.3125 18.015625 
Q 18.3125 11.328125 20.140625 9.421875 
Q 21.96875 7.515625 27.59375 7.515625 
L 36.8125 7.515625 
L 36.8125 0 
L 27.59375 0 
Q 17.1875 0 13.234375 3.875 
Q 9.28125 7.765625 9.28125 18.015625 
L 9.28125 47.703125 
L 2.6875 47.703125 
L 2.6875 54.6875 
L 9.28125 54.6875 
L 9.28125 70.21875 
z
" id="DejaVuSans-116"/>
      <path d="M 34.28125 27.484375 
Q 23.390625 27.484375 19.1875 25 
Q 14.984375 22.515625 14.984375 16.5 
Q 14.984375 11.71875 18.140625 8.90625 
Q 21.296875 6.109375 26.703125 6.109375 
Q 34.1875 6.109375 38.703125 11.40625 
Q 43.21875 16.703125 43.21875 25.484375 
L 43.21875 27.484375 
z
M 52.203125 31.203125 
L 52.203125 0 
L 43.21875 0 
L 43.21875 8.296875 
Q 40.140625 3.328125 35.546875 0.953125 
Q 30.953125 -1.421875 24.3125 -1.421875 
Q 15.921875 -1.421875 10.953125 3.296875 
Q 6 8.015625 6 15.921875 
Q 6 25.140625 12.171875 29.828125 
Q 18.359375 34.515625 30.609375 34.515625 
L 43.21875 34.515625 
L 43.21875 35.40625 
Q 43.21875 41.609375 39.140625 45 
Q 35.0625 48.390625 27.6875 48.390625 
Q 23 48.390625 18.546875 47.265625 
Q 14.109375 46.140625 10.015625 43.890625 
L 10.015625 52.203125 
Q 14.9375 54.109375 19.578125 55.046875 
Q 24.21875 56 28.609375 56 
Q 40.484375 56 46.34375 49.84375 
Q 52.203125 43.703125 52.203125 31.203125 
z
" id="DejaVuSans-97"/>
      <path d="M 54.890625 33.015625 
L 54.890625 0 
L 45.90625 0 
L 45.90625 32.71875 
Q 45.90625 40.484375 42.875 44.328125 
Q 39.84375 48.1875 33.796875 48.1875 
Q 26.515625 48.1875 22.3125 43.546875 
Q 18.109375 38.921875 18.109375 30.90625 
L 18.109375 0 
L 9.078125 0 
L 9.078125 54.6875 
L 18.109375 54.6875 
L 18.109375 46.1875 
Q 21.34375 51.125 25.703125 53.5625 
Q 30.078125 56 35.796875 56 
Q 45.21875 56 50.046875 50.171875 
Q 54.890625 44.34375 54.890625 33.015625 
z
" id="DejaVuSans-110"/>
      <path id="DejaVuSans-32"/>
      <path d="M 48.6875 27.296875 
Q 48.6875 37.203125 44.609375 42.84375 
Q 40.53125 48.484375 33.40625 48.484375 
Q 26.265625 48.484375 22.1875 42.84375 
Q 18.109375 37.203125 18.109375 27.296875 
Q 18.109375 17.390625 22.1875 11.75 
Q 26.265625 6.109375 33.40625 6.109375 
Q 40.53125 6.109375 44.609375 11.75 
Q 48.6875 17.390625 48.6875 27.296875 
z
M 18.109375 46.390625 
Q 20.953125 51.265625 25.265625 53.625 
Q 29.59375 56 35.59375 56 
Q 45.5625 56 51.78125 48.09375 
Q 58.015625 40.1875 58.015625 27.296875 
Q 58.015625 14.40625 51.78125 6.484375 
Q 45.5625 -1.421875 35.59375 -1.421875 
Q 29.59375 -1.421875 25.265625 0.953125 
Q 20.953125 3.328125 18.109375 8.203125 
L 18.109375 0 
L 9.078125 0 
L 9.078125 75.984375 
L 18.109375 75.984375 
z
" id="DejaVuSans-98"/>
      <path d="M 48.78125 52.59375 
L 48.78125 44.1875 
Q 44.96875 46.296875 41.140625 47.34375 
Q 37.3125 48.390625 33.40625 48.390625 
Q 24.65625 48.390625 19.8125 42.84375 
Q 14.984375 37.3125 14.984375 27.296875 
Q 14.984375 17.28125 19.8125 11.734375 
Q 24.65625 6.203125 33.40625 6.203125 
Q 37.3125 6.203125 41.140625 7.25 
Q 44.96875 8.296875 48.78125 10.40625 
L 48.78125 2.09375 
Q 45.015625 0.34375 40.984375 -0.53125 
Q 36.96875 -1.421875 32.421875 -1.421875 
Q 20.0625 -1.421875 12.78125 6.34375 
Q 5.515625 14.109375 5.515625 27.296875 
Q 5.515625 40.671875 12.859375 48.328125 
Q 20.21875 56 33.015625 56 
Q 37.15625 56 41.109375 55.140625 
Q 45.0625 54.296875 48.78125 52.59375 
z
" id="DejaVuSans-99"/>
      <path d="M 9.078125 75.984375 
L 18.109375 75.984375 
L 18.109375 31.109375 
L 44.921875 54.6875 
L 56.390625 54.6875 
L 27.390625 29.109375 
L 57.625 0 
L 45.90625 0 
L 18.109375 26.703125 
L 18.109375 0 
L 9.078125 0 
z
" id="DejaVuSans-107"/>
      <path d="M 41.109375 46.296875 
Q 39.59375 47.171875 37.8125 47.578125 
Q 36.03125 48 33.890625 48 
Q 26.265625 48 22.1875 43.046875 
Q 18.109375 38.09375 18.109375 28.8125 
L 18.109375 0 
L 9.078125 0 
L 9.078125 54.6875 
L 18.109375 54.6875 
L 18.109375 46.1875 
Q 20.953125 51.171875 25.484375 53.578125 
Q 30.03125 56 36.53125 56 
Q 37.453125 56 38.578125 55.875 
Q 39.703125 55.765625 41.0625 55.515625 
z
" id="DejaVuSans-114"/>
     </defs>
     <g transform="translate(161.966016 194.315156)scale(0.11 -0.11)">
      <use xlink:href="#DejaVuSans-115"/>
      <use x="52.099609" xlink:href="#DejaVuSans-116"/>
      <use x="91.308594" xlink:href="#DejaVuSans-97"/>
      <use x="152.587891" xlink:href="#DejaVuSans-105"/>
      <use x="180.371094" xlink:href="#DejaVuSans-110"/>
      <use x="243.75" xlink:href="#DejaVuSans-105"/>
      <use x="271.533203" xlink:href="#DejaVuSans-110"/>
      <use x="334.912109" xlink:href="#DejaVuSans-103"/>
      <use x="398.388672" xlink:href="#DejaVuSans-32"/>
      <use x="430.175781" xlink:href="#DejaVuSans-98"/>
      <use x="493.652344" xlink:href="#DejaVuSans-97"/>
      <use x="554.931641" xlink:href="#DejaVuSans-99"/>
      <use x="609.912109" xlink:href="#DejaVuSans-107"/>
      <use x="667.822266" xlink:href="#DejaVuSans-103"/>
      <use x="731.298828" xlink:href="#DejaVuSans-114"/>
      <use x="770.162109" xlink:href="#DejaVuSans-111"/>
      <use x="831.34375" xlink:href="#DejaVuSans-117"/>
      <use x="894.722656" xlink:href="#DejaVuSans-110"/>
      <use x="958.101562" xlink:href="#DejaVuSans-100"/>
     </g>
    </g>
   </g>
   <g id="matplotlib.axis_2">
    <g id="ytick_1">
     <g id="line2d_6">
      <path d="M 164.152813 109.966829 
" style="fill:none;stroke:#333333;stroke-width:1.5;"/>
      <defs>
       <path d="M 0 0 
L -2.75 0 
" id="md039ecc244" style="stroke:#333333;"/>
      </defs>
      <g>
       <use style="fill:#333333;stroke:#333333;" x="164.152813" xlink:href="#md039ecc244" y="109.966829"/>
      </g>
     </g>
     <g id="text_7">
      <!-- 456-484 -->
      <defs>
       <path d="M 37.796875 64.3125 
L 12.890625 25.390625 
L 37.796875 25.390625 
z
M 35.203125 72.90625 
L 47.609375 72.90625 
L 47.609375 25.390625 
L 58.015625 25.390625 
L 58.015625 17.1875 
L 47.609375 17.1875 
L 47.609375 0 
L 37.796875 0 
L 37.796875 17.1875 
L 4.890625 17.1875 
L 4.890625 26.703125 
z
" id="DejaVuSans-52"/>
       <path d="M 10.796875 72.90625 
L 49.515625 72.90625 
L 49.515625 64.59375 
L 19.828125 64.59375 
L 19.828125 46.734375 
Q 21.96875 47.46875 24.109375 47.828125 
Q 26.265625 48.1875 28.421875 48.1875 
Q 40.625 48.1875 47.75 41.5 
Q 54.890625 34.8125 54.890625 23.390625 
Q 54.890625 11.625 47.5625 5.09375 
Q 40.234375 -1.421875 26.90625 -1.421875 
Q 22.3125 -1.421875 17.546875 -0.640625 
Q 12.796875 0.140625 7.71875 1.703125 
L 7.71875 11.625 
Q 12.109375 9.234375 16.796875 8.0625 
Q 21.484375 6.890625 26.703125 6.890625 
Q 35.15625 6.890625 40.078125 11.328125 
Q 45.015625 15.765625 45.015625 23.390625 
Q 45.015625 31 40.078125 35.4375 
Q 35.15625 39.890625 26.703125 39.890625 
Q 22.75 39.890625 18.8125 39.015625 
Q 14.890625 38.140625 10.796875 36.28125 
z
" id="DejaVuSans-53"/>
       <path d="M 33.015625 40.375 
Q 26.375 40.375 22.484375 35.828125 
Q 18.609375 31.296875 18.609375 23.390625 
Q 18.609375 15.53125 22.484375 10.953125 
Q 26.375 6.390625 33.015625 6.390625 
Q 39.65625 6.390625 43.53125 10.953125 
Q 47.40625 15.53125 47.40625 23.390625 
Q 47.40625 31.296875 43.53125 35.828125 
Q 39.65625 40.375 33.015625 40.375 
z
M 52.59375 71.296875 
L 52.59375 62.3125 
Q 48.875 64.0625 45.09375 64.984375 
Q 41.3125 65.921875 37.59375 65.921875 
Q 27.828125 65.921875 22.671875 59.328125 
Q 17.53125 52.734375 16.796875 39.40625 
Q 19.671875 43.65625 24.015625 45.921875 
Q 28.375 48.1875 33.59375 48.1875 
Q 44.578125 48.1875 50.953125 41.515625 
Q 57.328125 34.859375 57.328125 23.390625 
Q 57.328125 12.15625 50.6875 5.359375 
Q 44.046875 -1.421875 33.015625 -1.421875 
Q 20.359375 -1.421875 13.671875 8.265625 
Q 6.984375 17.96875 6.984375 36.375 
Q 6.984375 53.65625 15.1875 63.9375 
Q 23.390625 74.21875 37.203125 74.21875 
Q 40.921875 74.21875 44.703125 73.484375 
Q 48.484375 72.75 52.59375 71.296875 
z
" id="DejaVuSans-54"/>
       <path d="M 31.78125 34.625 
Q 24.75 34.625 20.71875 30.859375 
Q 16.703125 27.09375 16.703125 20.515625 
Q 16.703125 13.921875 20.71875 10.15625 
Q 24.75 6.390625 31.78125 6.390625 
Q 38.8125 6.390625 42.859375 10.171875 
Q 46.921875 13.96875 46.921875 20.515625 
Q 46.921875 27.09375 42.890625 30.859375 
Q 38.875 34.625 31.78125 34.625 
z
M 21.921875 38.8125 
Q 15.578125 40.375 12.03125 44.71875 
Q 8.5 49.078125 8.5 55.328125 
Q 8.5 64.0625 14.71875 69.140625 
Q 20.953125 74.21875 31.78125 74.21875 
Q 42.671875 74.21875 48.875 69.140625 
Q 55.078125 64.0625 55.078125 55.328125 
Q 55.078125 49.078125 51.53125 44.71875 
Q 48 40.375 41.703125 38.8125 
Q 48.828125 37.15625 52.796875 32.3125 
Q 56.78125 27.484375 56.78125 20.515625 
Q 56.78125 9.90625 50.3125 4.234375 
Q 43.84375 -1.421875 31.78125 -1.421875 
Q 19.734375 -1.421875 13.25 4.234375 
Q 6.78125 9.90625 6.78125 20.515625 
Q 6.78125 27.484375 10.78125 32.3125 
Q 14.796875 37.15625 21.921875 38.8125 
z
M 18.3125 54.390625 
Q 18.3125 48.734375 21.84375 45.5625 
Q 25.390625 42.390625 31.78125 42.390625 
Q 38.140625 42.390625 41.71875 45.5625 
Q 45.3125 48.734375 45.3125 54.390625 
Q 45.3125 60.0625 41.71875 63.234375 
Q 38.140625 66.40625 31.78125 66.40625 
Q 25.390625 66.40625 21.84375 63.234375 
Q 18.3125 60.0625 18.3125 54.390625 
z
" id="DejaVuSans-56"/>
      </defs>
      <g style="fill:#4d4d4d;" transform="translate(122.433938 112.395079)scale(0.088 -0.088)">
       <use xlink:href="#DejaVuSans-52"/>
       <use x="63.623047" xlink:href="#DejaVuSans-53"/>
       <use x="127.246094" xlink:href="#DejaVuSans-54"/>
       <use x="190.869141" xlink:href="#DejaVuSans-45"/>
       <use x="226.953125" xlink:href="#DejaVuSans-52"/>
       <use x="290.576172" xlink:href="#DejaVuSans-56"/>
       <use x="354.199219" xlink:href="#DejaVuSans-52"/>
      </g>
     </g>
    </g>
    <g id="ytick_2">
     <g id="line2d_7">
      <path d="M 164.152813 96.444878 
" style="fill:none;stroke:#333333;stroke-width:1.5;"/>
      <g>
       <use style="fill:#333333;stroke:#333333;" x="164.152813" xlink:href="#md039ecc244" y="96.444878"/>
      </g>
     </g>
     <g id="text_8">
      <!-- 456-484 low magnitude -->
      <g style="fill:#4d4d4d;" transform="translate(54.213313 98.873128)scale(0.088 -0.088)">
       <use xlink:href="#DejaVuSans-52"/>
       <use x="63.623047" xlink:href="#DejaVuSans-53"/>
       <use x="127.246094" xlink:href="#DejaVuSans-54"/>
       <use x="190.869141" xlink:href="#DejaVuSans-45"/>
       <use x="226.953125" xlink:href="#DejaVuSans-52"/>
       <use x="290.576172" xlink:href="#DejaVuSans-56"/>
       <use x="354.199219" xlink:href="#DejaVuSans-52"/>
       <use x="417.822266" xlink:href="#DejaVuSans-32"/>
       <use x="449.609375" xlink:href="#DejaVuSans-108"/>
       <use x="477.392578" xlink:href="#DejaVuSans-111"/>
       <use x="538.574219" xlink:href="#DejaVuSans-119"/>
       <use x="620.361328" xlink:href="#DejaVuSans-32"/>
       <use x="652.148438" xlink:href="#DejaVuSans-109"/>
       <use x="749.560547" xlink:href="#DejaVuSans-97"/>
       <use x="810.839844" xlink:href="#DejaVuSans-103"/>
       <use x="874.316406" xlink:href="#DejaVuSans-110"/>
       <use x="937.695312" xlink:href="#DejaVuSans-105"/>
       <use x="965.478516" xlink:href="#DejaVuSans-116"/>
       <use x="1004.6875" xlink:href="#DejaVuSans-117"/>
       <use x="1068.066406" xlink:href="#DejaVuSans-100"/>
       <use x="1131.542969" xlink:href="#DejaVuSans-101"/>
      </g>
     </g>
    </g>
    <g id="ytick_3">
     <g id="line2d_8">
      <path d="M 164.152813 82.922927 
" style="fill:none;stroke:#333333;stroke-width:1.5;"/>
      <g>
       <use style="fill:#333333;stroke:#333333;" x="164.152813" xlink:href="#md039ecc244" y="82.922927"/>
      </g>
     </g>
     <g id="text_9">
      <!-- 456-484 noisy -->
      <defs>
       <path d="M 32.171875 -5.078125 
Q 28.375 -14.84375 24.75 -17.8125 
Q 21.140625 -20.796875 15.09375 -20.796875 
L 7.90625 -20.796875 
L 7.90625 -13.28125 
L 13.1875 -13.28125 
Q 16.890625 -13.28125 18.9375 -11.515625 
Q 21 -9.765625 23.484375 -3.21875 
L 25.09375 0.875 
L 2.984375 54.6875 
L 12.5 54.6875 
L 29.59375 11.921875 
L 46.6875 54.6875 
L 56.203125 54.6875 
z
" id="DejaVuSans-121"/>
      </defs>
      <g style="fill:#4d4d4d;" transform="translate(96.438188 85.351177)scale(0.088 -0.088)">
       <use xlink:href="#DejaVuSans-52"/>
       <use x="63.623047" xlink:href="#DejaVuSans-53"/>
       <use x="127.246094" xlink:href="#DejaVuSans-54"/>
       <use x="190.869141" xlink:href="#DejaVuSans-45"/>
       <use x="226.953125" xlink:href="#DejaVuSans-52"/>
       <use x="290.576172" xlink:href="#DejaVuSans-56"/>
       <use x="354.199219" xlink:href="#DejaVuSans-52"/>
       <use x="417.822266" xlink:href="#DejaVuSans-32"/>
       <use x="449.609375" xlink:href="#DejaVuSans-110"/>
       <use x="512.988281" xlink:href="#DejaVuSans-111"/>
       <use x="574.169922" xlink:href="#DejaVuSans-105"/>
       <use x="601.953125" xlink:href="#DejaVuSans-115"/>
       <use x="654.052734" xlink:href="#DejaVuSans-121"/>
      </g>
     </g>
    </g>
    <g id="ytick_4">
     <g id="line2d_9">
      <path d="M 164.152813 69.400976 
" style="fill:none;stroke:#333333;stroke-width:1.5;"/>
      <g>
       <use style="fill:#333333;stroke:#333333;" x="164.152813" xlink:href="#md039ecc244" y="69.400976"/>
      </g>
     </g>
     <g id="text_10">
      <!-- 456-484 low magnitude - noisy -->
      <g style="fill:#4d4d4d;" transform="translate(22.245937 71.829226)scale(0.088 -0.088)">
       <use xlink:href="#DejaVuSans-52"/>
       <use x="63.623047" xlink:href="#DejaVuSans-53"/>
       <use x="127.246094" xlink:href="#DejaVuSans-54"/>
       <use x="190.869141" xlink:href="#DejaVuSans-45"/>
       <use x="226.953125" xlink:href="#DejaVuSans-52"/>
       <use x="290.576172" xlink:href="#DejaVuSans-56"/>
       <use x="354.199219" xlink:href="#DejaVuSans-52"/>
       <use x="417.822266" xlink:href="#DejaVuSans-32"/>
       <use x="449.609375" xlink:href="#DejaVuSans-108"/>
       <use x="477.392578" xlink:href="#DejaVuSans-111"/>
       <use x="538.574219" xlink:href="#DejaVuSans-119"/>
       <use x="620.361328" xlink:href="#DejaVuSans-32"/>
       <use x="652.148438" xlink:href="#DejaVuSans-109"/>
       <use x="749.560547" xlink:href="#DejaVuSans-97"/>
       <use x="810.839844" xlink:href="#DejaVuSans-103"/>
       <use x="874.316406" xlink:href="#DejaVuSans-110"/>
       <use x="937.695312" xlink:href="#DejaVuSans-105"/>
       <use x="965.478516" xlink:href="#DejaVuSans-116"/>
       <use x="1004.6875" xlink:href="#DejaVuSans-117"/>
       <use x="1068.066406" xlink:href="#DejaVuSans-100"/>
       <use x="1131.542969" xlink:href="#DejaVuSans-101"/>
       <use x="1193.066406" xlink:href="#DejaVuSans-32"/>
       <use x="1224.853516" xlink:href="#DejaVuSans-45"/>
       <use x="1260.9375" xlink:href="#DejaVuSans-32"/>
       <use x="1292.724609" xlink:href="#DejaVuSans-110"/>
       <use x="1356.103516" xlink:href="#DejaVuSans-111"/>
       <use x="1417.285156" xlink:href="#DejaVuSans-105"/>
       <use x="1445.068359" xlink:href="#DejaVuSans-115"/>
       <use x="1497.167969" xlink:href="#DejaVuSans-121"/>
      </g>
     </g>
    </g>
    <g id="ytick_5">
     <g id="line2d_10">
      <path d="M 164.152813 55.879024 
" style="fill:none;stroke:#333333;stroke-width:1.5;"/>
      <g>
       <use style="fill:#333333;stroke:#333333;" x="164.152813" xlink:href="#md039ecc244" y="55.879024"/>
      </g>
     </g>
     <g id="text_11">
      <!-- 443-450 -->
      <defs>
       <path d="M 40.578125 39.3125 
Q 47.65625 37.796875 51.625 33 
Q 55.609375 28.21875 55.609375 21.1875 
Q 55.609375 10.40625 48.1875 4.484375 
Q 40.765625 -1.421875 27.09375 -1.421875 
Q 22.515625 -1.421875 17.65625 -0.515625 
Q 12.796875 0.390625 7.625 2.203125 
L 7.625 11.71875 
Q 11.71875 9.328125 16.59375 8.109375 
Q 21.484375 6.890625 26.8125 6.890625 
Q 36.078125 6.890625 40.9375 10.546875 
Q 45.796875 14.203125 45.796875 21.1875 
Q 45.796875 27.640625 41.28125 31.265625 
Q 36.765625 34.90625 28.71875 34.90625 
L 20.21875 34.90625 
L 20.21875 43.015625 
L 29.109375 43.015625 
Q 36.375 43.015625 40.234375 45.921875 
Q 44.09375 48.828125 44.09375 54.296875 
Q 44.09375 59.90625 40.109375 62.90625 
Q 36.140625 65.921875 28.71875 65.921875 
Q 24.65625 65.921875 20.015625 65.03125 
Q 15.375 64.15625 9.8125 62.3125 
L 9.8125 71.09375 
Q 15.4375 72.65625 20.34375 73.4375 
Q 25.25 74.21875 29.59375 74.21875 
Q 40.828125 74.21875 47.359375 69.109375 
Q 53.90625 64.015625 53.90625 55.328125 
Q 53.90625 49.265625 50.4375 45.09375 
Q 46.96875 40.921875 40.578125 39.3125 
z
" id="DejaVuSans-51"/>
       <path d="M 31.78125 66.40625 
Q 24.171875 66.40625 20.328125 58.90625 
Q 16.5 51.421875 16.5 36.375 
Q 16.5 21.390625 20.328125 13.890625 
Q 24.171875 6.390625 31.78125 6.390625 
Q 39.453125 6.390625 43.28125 13.890625 
Q 47.125 21.390625 47.125 36.375 
Q 47.125 51.421875 43.28125 58.90625 
Q 39.453125 66.40625 31.78125 66.40625 
z
M 31.78125 74.21875 
Q 44.046875 74.21875 50.515625 64.515625 
Q 56.984375 54.828125 56.984375 36.375 
Q 56.984375 17.96875 50.515625 8.265625 
Q 44.046875 -1.421875 31.78125 -1.421875 
Q 19.53125 -1.421875 13.0625 8.265625 
Q 6.59375 17.96875 6.59375 36.375 
Q 6.59375 54.828125 13.0625 64.515625 
Q 19.53125 74.21875 31.78125 74.21875 
z
" id="DejaVuSans-48"/>
      </defs>
      <g style="fill:#4d4d4d;" transform="translate(122.433938 58.307274)scale(0.088 -0.088)">
       <use xlink:href="#DejaVuSans-52"/>
       <use x="63.623047" xlink:href="#DejaVuSans-52"/>
       <use x="127.246094" xlink:href="#DejaVuSans-51"/>
       <use x="190.869141" xlink:href="#DejaVuSans-45"/>
       <use x="226.953125" xlink:href="#DejaVuSans-52"/>
       <use x="290.576172" xlink:href="#DejaVuSans-53"/>
       <use x="354.199219" xlink:href="#DejaVuSans-48"/>
      </g>
     </g>
    </g>
    <g id="ytick_6">
     <g id="line2d_11">
      <path d="M 164.152813 42.357073 
" style="fill:none;stroke:#333333;stroke-width:1.5;"/>
      <g>
       <use style="fill:#333333;stroke:#333333;" x="164.152813" xlink:href="#md039ecc244" y="42.357073"/>
      </g>
     </g>
     <g id="text_12">
      <!-- core -->
      <g style="fill:#4d4d4d;" transform="translate(140.145313 44.785323)scale(0.088 -0.088)">
       <use xlink:href="#DejaVuSans-99"/>
       <use x="54.980469" xlink:href="#DejaVuSans-111"/>
       <use x="116.162109" xlink:href="#DejaVuSans-114"/>
       <use x="155.025391" xlink:href="#DejaVuSans-101"/>
      </g>
     </g>
    </g>
    <g id="ytick_7">
     <g id="line2d_12">
      <path d="M 164.152813 28.835122 
" style="fill:none;stroke:#333333;stroke-width:1.5;"/>
      <g>
       <use style="fill:#333333;stroke:#333333;" x="164.152813" xlink:href="#md039ecc244" y="28.835122"/>
      </g>
     </g>
     <g id="text_13">
      <!-- flat - noisy -->
      <defs>
       <path d="M 37.109375 75.984375 
L 37.109375 68.5 
L 28.515625 68.5 
Q 23.6875 68.5 21.796875 66.546875 
Q 19.921875 64.59375 19.921875 59.515625 
L 19.921875 54.6875 
L 34.71875 54.6875 
L 34.71875 47.703125 
L 19.921875 47.703125 
L 19.921875 0 
L 10.890625 0 
L 10.890625 47.703125 
L 2.296875 47.703125 
L 2.296875 54.6875 
L 10.890625 54.6875 
L 10.890625 58.5 
Q 10.890625 67.625 15.140625 71.796875 
Q 19.390625 75.984375 28.609375 75.984375 
z
" id="DejaVuSans-102"/>
      </defs>
      <g style="fill:#4d4d4d;" transform="translate(112.850188 31.263372)scale(0.088 -0.088)">
       <use xlink:href="#DejaVuSans-102"/>
       <use x="35.205078" xlink:href="#DejaVuSans-108"/>
       <use x="62.988281" xlink:href="#DejaVuSans-97"/>
       <use x="124.267578" xlink:href="#DejaVuSans-116"/>
       <use x="163.476562" xlink:href="#DejaVuSans-32"/>
       <use x="195.263672" xlink:href="#DejaVuSans-45"/>
       <use x="231.347656" xlink:href="#DejaVuSans-32"/>
       <use x="263.134766" xlink:href="#DejaVuSans-110"/>
       <use x="326.513672" xlink:href="#DejaVuSans-111"/>
       <use x="387.695312" xlink:href="#DejaVuSans-105"/>
       <use x="415.478516" xlink:href="#DejaVuSans-115"/>
       <use x="467.578125" xlink:href="#DejaVuSans-121"/>
      </g>
     </g>
    </g>
    <g id="ytick_8">
     <g id="line2d_13">
      <path d="M 164.152813 15.313171 
" style="fill:none;stroke:#333333;stroke-width:1.5;"/>
      <g>
       <use style="fill:#333333;stroke:#333333;" x="164.152813" xlink:href="#md039ecc244" y="15.313171"/>
      </g>
     </g>
     <g id="text_14">
      <!-- flat -->
      <g style="fill:#4d4d4d;" transform="translate(144.817563 17.741421)scale(0.088 -0.088)">
       <use xlink:href="#DejaVuSans-102"/>
       <use x="35.205078" xlink:href="#DejaVuSans-108"/>
       <use x="62.988281" xlink:href="#DejaVuSans-97"/>
       <use x="124.267578" xlink:href="#DejaVuSans-116"/>
      </g>
     </g>
    </g>
    <g id="text_15">
     <!-- escape map -->
     <defs>
      <path d="M 18.109375 8.203125 
L 18.109375 -20.796875 
L 9.078125 -20.796875 
L 9.078125 54.6875 
L 18.109375 54.6875 
L 18.109375 46.390625 
Q 20.953125 51.265625 25.265625 53.625 
Q 29.59375 56 35.59375 56 
Q 45.5625 56 51.78125 48.09375 
Q 58.015625 40.1875 58.015625 27.296875 
Q 58.015625 14.40625 51.78125 6.484375 
Q 45.5625 -1.421875 35.59375 -1.421875 
Q 29.59375 -1.421875 25.265625 0.953125 
Q 20.953125 3.328125 18.109375 8.203125 
z
M 48.6875 27.296875 
Q 48.6875 37.203125 44.609375 42.84375 
Q 40.53125 48.484375 33.40625 48.484375 
Q 26.265625 48.484375 22.1875 42.84375 
Q 18.109375 37.203125 18.109375 27.296875 
Q 18.109375 17.390625 22.1875 11.75 
Q 26.265625 6.109375 33.40625 6.109375 
Q 40.53125 6.109375 44.609375 11.75 
Q 48.6875 17.390625 48.6875 27.296875 
z
" id="DejaVuSans-112"/>
     </defs>
     <g transform="translate(15.558281 95.407266)rotate(-90)scale(0.11 -0.11)">
      <use xlink:href="#DejaVuSans-101"/>
      <use x="61.523438" xlink:href="#DejaVuSans-115"/>
      <use x="113.623047" xlink:href="#DejaVuSans-99"/>
      <use x="168.603516" xlink:href="#DejaVuSans-97"/>
      <use x="229.882812" xlink:href="#DejaVuSans-112"/>
      <use x="293.359375" xlink:href="#DejaVuSans-101"/>
      <use x="354.882812" xlink:href="#DejaVuSans-32"/>
      <use x="386.669922" xlink:href="#DejaVuSans-109"/>
      <use x="484.082031" xlink:href="#DejaVuSans-97"/>
      <use x="545.361328" xlink:href="#DejaVuSans-112"/>
     </g>
    </g>
   </g>
   <g id="PathCollection_1">
    <path clip-path="url(#p790a1e16a4)" d="M 240.47834 111.688389 
C 241.183431 111.688389 241.859737 111.408254 242.358312 110.90968 
C 242.856886 110.411106 243.137021 109.734799 243.137021 109.029709 
C 243.137021 108.324618 242.856886 107.648312 242.358312 107.149737 
C 241.859737 106.651163 241.183431 106.371028 240.47834 106.371028 
C 239.77325 106.371028 239.096943 106.651163 238.598369 107.149737 
C 238.099795 107.648312 237.81966 108.324618 237.81966 109.029709 
C 237.81966 109.734799 238.099795 110.411106 238.598369 110.90968 
C 239.096943 111.408254 239.77325 111.688389 240.47834 111.688389 
z
" style="fill:#56b4e9;fill-opacity:0.25098;stroke:#56b4e9;stroke-opacity:0.25098;stroke-width:0.886227;"/>
    <path clip-path="url(#p790a1e16a4)" d="M 175.274104 18.312383 
C 175.979194 18.312383 176.655501 18.032248 177.154075 17.533673 
C 177.652649 17.035099 177.932784 16.358793 177.932784 15.653702 
C 177.932784 14.948612 177.652649 14.272305 177.154075 13.773731 
C 176.655501 13.275157 175.979194 12.995021 175.274104 12.995021 
C 174.569013 12.995021 173.892707 13.275157 173.394132 13.773731 
C 172.895558 14.272305 172.615423 14.948612 172.615423 15.653702 
C 172.615423 16.358793 172.895558 17.035099 173.394132 17.533673 
C 173.892707 18.032248 174.569013 18.312383 175.274104 18.312383 
z
" style="fill:#56b4e9;fill-opacity:0.25098;stroke:#56b4e9;stroke-opacity:0.25098;stroke-width:0.886227;"/>
    <path clip-path="url(#p790a1e16a4)" d="M 196.470295 98.496577 
C 197.175386 98.496577 197.851692 98.216442 198.350267 97.717868 
C 198.848841 97.219293 199.128976 96.542987 199.128976 95.837896 
C 199.128976 95.132806 198.848841 94.456499 198.350267 93.957925 
C 197.851692 93.459351 197.175386 93.179216 196.470295 93.179216 
C 195.765205 93.179216 195.088898 93.459351 194.590324 93.957925 
C 194.09175 94.456499 193.811615 95.132806 193.811615 95.837896 
C 193.811615 96.542987 194.09175 97.219293 194.590324 97.717868 
C 195.088898 98.216442 195.765205 98.496577 196.470295 98.496577 
z
" style="fill:#56b4e9;fill-opacity:0.25098;stroke:#56b4e9;stroke-opacity:0.25098;stroke-width:0.886227;"/>
    <path clip-path="url(#p790a1e16a4)" d="M 242.36515 43.845864 
C 243.070241 43.845864 243.746547 43.565728 244.245122 43.067154 
C 244.743696 42.56858 245.023831 41.892273 245.023831 41.187183 
C 245.023831 40.482092 244.743696 39.805786 244.245122 39.307212 
C 243.746547 38.808637 243.070241 38.528502 242.36515 38.528502 
C 241.66006 38.528502 240.983753 38.808637 240.485179 39.307212 
C 239.986605 39.805786 239.70647 40.482092 239.70647 41.187183 
C 239.70647 41.892273 239.986605 42.56858 240.485179 43.067154 
C 240.983753 43.565728 241.66006 43.845864 242.36515 43.845864 
z
" style="fill:#56b4e9;fill-opacity:0.25098;stroke:#56b4e9;stroke-opacity:0.25098;stroke-width:0.886227;"/>
    <path clip-path="url(#p790a1e16a4)" d="M 176.049959 16.166542 
C 176.755049 16.166542 177.431356 15.886407 177.92993 15.387832 
C 178.428504 14.889258 178.70864 14.212952 178.70864 13.507861 
C 178.70864 12.802771 178.428504 12.126464 177.92993 11.62789 
C 177.431356 11.129316 176.755049 10.84918 176.049959 10.84918 
C 175.344869 10.84918 174.668562 11.129316 174.169988 11.62789 
C 173.671414 12.126464 173.391278 12.802771 173.391278 13.507861 
C 173.391278 14.212952 173.671414 14.889258 174.169988 15.387832 
C 174.668562 15.886407 175.344869 16.166542 176.049959 16.166542 
z
" style="fill:#56b4e9;fill-opacity:0.25098;stroke:#56b4e9;stroke-opacity:0.25098;stroke-width:0.886227;"/>
    <path clip-path="url(#p790a1e16a4)" d="M 179.412337 17.794267 
C 180.117428 17.794267 180.793734 17.514131 181.292309 17.015557 
C 181.790883 16.516983 182.071018 15.840676 182.071018 15.135586 
C 182.071018 14.430495 181.790883 13.754189 181.292309 13.255615 
C 180.793734 12.75704 180.117428 12.476905 179.412337 12.476905 
C 178.707247 12.476905 178.03094 12.75704 177.532366 13.255615 
C 177.033792 13.754189 176.753657 14.430495 176.753657 15.135586 
C 176.753657 15.840676 177.033792 16.516983 177.532366 17.015557 
C 178.03094 17.514131 178.707247 17.794267 179.412337 17.794267 
z
" style="fill:#56b4e9;fill-opacity:0.25098;stroke:#56b4e9;stroke-opacity:0.25098;stroke-width:0.886227;"/>
    <path clip-path="url(#p790a1e16a4)" d="M 173.891482 99.988671 
C 174.596572 99.988671 175.272879 99.708535 175.771453 99.209961 
C 176.270027 98.711387 176.550162 98.03508 176.550162 97.32999 
C 176.550162 96.6249 176.270027 95.948593 175.771453 95.450019 
C 175.272879 94.951445 174.596572 94.671309 173.891482 94.671309 
C 173.186391 94.671309 172.510085 94.951445 172.01151 95.450019 
C 171.512936 95.948593 171.232801 96.6249 171.232801 97.32999 
C 171.232801 98.03508 171.512936 98.711387 172.01151 99.209961 
C 172.510085 99.708535 173.186391 99.988671 173.891482 99.988671 
z
" style="fill:#56b4e9;fill-opacity:0.25098;stroke:#56b4e9;stroke-opacity:0.25098;stroke-width:0.886227;"/>
    <path clip-path="url(#p790a1e16a4)" d="M 179.906313 113.450449 
C 180.611403 113.450449 181.28771 113.170313 181.786284 112.671739 
C 182.284858 112.173165 182.564993 111.496858 182.564993 110.791768 
C 182.564993 110.086677 182.284858 109.410371 181.786284 108.911797 
C 181.28771 108.413222 180.611403 108.133087 179.906313 108.133087 
C 179.201222 108.133087 178.524916 108.413222 178.026341 108.911797 
C 177.527767 109.410371 177.247632 110.086677 177.247632 110.791768 
C 177.247632 111.496858 177.527767 112.173165 178.026341 112.671739 
C 178.524916 113.170313 179.201222 113.450449 179.906313 113.450449 
z
" style="fill:#56b4e9;fill-opacity:0.25098;stroke:#56b4e9;stroke-opacity:0.25098;stroke-width:0.886227;"/>
    <path clip-path="url(#p790a1e16a4)" d="M 261.177523 71.095801 
C 261.882613 71.095801 262.55892 70.815666 263.057494 70.317092 
C 263.556068 69.818518 263.836203 69.142211 263.836203 68.437121 
C 263.836203 67.73203 263.556068 67.055724 263.057494 66.557149 
C 262.55892 66.058575 261.882613 65.77844 261.177523 65.77844 
C 260.472432 65.77844 259.796126 66.058575 259.297551 66.557149 
C 258.798977 67.055724 258.518842 67.73203 258.518842 68.437121 
C 258.518842 69.142211 258.798977 69.818518 259.297551 70.317092 
C 259.796126 70.815666 260.472432 71.095801 261.177523 71.095801 
z
" style="fill:#56b4e9;fill-opacity:0.25098;stroke:#56b4e9;stroke-opacity:0.25098;stroke-width:0.886227;"/>
    <path clip-path="url(#p790a1e16a4)" d="M 195.416192 17.203515 
C 196.121283 17.203515 196.797589 16.92338 197.296164 16.424806 
C 197.794738 15.926231 198.074873 15.249925 198.074873 14.544834 
C 198.074873 13.839744 197.794738 13.163437 197.296164 12.664863 
C 196.797589 12.166289 196.121283 11.886154 195.416192 11.886154 
C 194.711102 11.886154 194.034795 12.166289 193.536221 12.664863 
C 193.037647 13.163437 192.757512 13.839744 192.757512 14.544834 
C 192.757512 15.249925 193.037647 15.926231 193.536221 16.424806 
C 194.034795 16.92338 194.711102 17.203515 195.416192 17.203515 
z
" style="fill:#56b4e9;fill-opacity:0.25098;stroke:#56b4e9;stroke-opacity:0.25098;stroke-width:0.886227;"/>
    <path clip-path="url(#p790a1e16a4)" d="M 260.31528 43.609875 
C 261.02037 43.609875 261.696677 43.32974 262.195251 42.831166 
C 262.693825 42.332592 262.97396 41.656285 262.97396 40.951195 
C 262.97396 40.246104 262.693825 39.569797 262.195251 39.071223 
C 261.696677 38.572649 261.02037 38.292514 260.31528 38.292514 
C 259.610189 38.292514 258.933883 38.572649 258.435308 39.071223 
C 257.936734 39.569797 257.656599 40.246104 257.656599 40.951195 
C 257.656599 41.656285 257.936734 42.332592 258.435308 42.831166 
C 258.933883 43.32974 259.610189 43.609875 260.31528 43.609875 
z
" style="fill:#56b4e9;fill-opacity:0.25098;stroke:#56b4e9;stroke-opacity:0.25098;stroke-width:0.886227;"/>
    <path clip-path="url(#p790a1e16a4)" d="M 176.119148 19.676441 
C 176.824238 19.676441 177.500545 19.396305 177.999119 18.897731 
C 178.497693 18.399157 178.777829 17.72285 178.777829 17.01776 
C 178.777829 16.312669 178.497693 15.636363 177.999119 15.137789 
C 177.500545 14.639214 176.824238 14.359079 176.119148 14.359079 
C 175.414058 14.359079 174.737751 14.639214 174.239177 15.137789 
C 173.740603 15.636363 173.460467 16.312669 173.460467 17.01776 
C 173.460467 17.72285 173.740603 18.399157 174.239177 18.897731 
C 174.737751 19.396305 175.414058 19.676441 176.119148 19.676441 
z
" style="fill:#56b4e9;fill-opacity:0.25098;stroke:#56b4e9;stroke-opacity:0.25098;stroke-width:0.886227;"/>
    <path clip-path="url(#p790a1e16a4)" d="M 173.897409 18.847559 
C 174.602499 18.847559 175.278806 18.567423 175.77738 18.068849 
C 176.275954 17.570275 176.55609 16.893968 176.55609 16.188878 
C 176.55609 15.483787 176.275954 14.807481 175.77738 14.308907 
C 175.278806 13.810332 174.602499 13.530197 173.897409 13.530197 
C 173.192319 13.530197 172.516012 13.810332 172.017438 14.308907 
C 171.518864 14.807481 171.238728 15.483787 171.238728 16.188878 
C 171.238728 16.893968 171.518864 17.570275 172.017438 18.068849 
C 172.516012 18.567423 173.192319 18.847559 173.897409 18.847559 
z
" style="fill:#56b4e9;fill-opacity:0.25098;stroke:#56b4e9;stroke-opacity:0.25098;stroke-width:0.886227;"/>
    <path clip-path="url(#p790a1e16a4)" d="M 242.347566 114.280958 
C 243.052656 114.280958 243.728963 114.000823 244.227537 113.502249 
C 244.726111 113.003674 245.006247 112.327368 245.006247 111.622277 
C 245.006247 110.917187 244.726111 110.24088 244.227537 109.742306 
C 243.728963 109.243732 243.052656 108.963597 242.347566 108.963597 
C 241.642476 108.963597 240.966169 109.243732 240.467595 109.742306 
C 239.969021 110.24088 239.688885 110.917187 239.688885 111.622277 
C 239.688885 112.327368 239.969021 113.003674 240.467595 113.502249 
C 240.966169 114.000823 241.642476 114.280958 242.347566 114.280958 
z
" style="fill:#56b4e9;fill-opacity:0.25098;stroke:#56b4e9;stroke-opacity:0.25098;stroke-width:0.886227;"/>
    <path clip-path="url(#p790a1e16a4)" d="M 241.098531 110.860186 
C 241.803621 110.860186 242.479928 110.580051 242.978502 110.081477 
C 243.477076 109.582902 243.757211 108.906596 243.757211 108.201505 
C 243.757211 107.496415 243.477076 106.820108 242.978502 106.321534 
C 242.479928 105.82296 241.803621 105.542825 241.098531 105.542825 
C 240.39344 105.542825 239.717134 105.82296 239.218559 106.321534 
C 238.719985 106.820108 238.43985 107.496415 238.43985 108.201505 
C 238.43985 108.906596 238.719985 109.582902 239.218559 110.081477 
C 239.717134 110.580051 240.39344 110.860186 241.098531 110.860186 
z
" style="fill:#56b4e9;fill-opacity:0.25098;stroke:#56b4e9;stroke-opacity:0.25098;stroke-width:0.886227;"/>
    <path clip-path="url(#p790a1e16a4)" d="M 173.962267 18.137886 
C 174.667357 18.137886 175.343664 17.857751 175.842238 17.359177 
C 176.340812 16.860602 176.620948 16.184296 176.620948 15.479205 
C 176.620948 14.774115 176.340812 14.097808 175.842238 13.599234 
C 175.343664 13.10066 174.667357 12.820525 173.962267 12.820525 
C 173.257177 12.820525 172.58087 13.10066 172.082296 13.599234 
C 171.583722 14.097808 171.303586 14.774115 171.303586 15.479205 
C 171.303586 16.184296 171.583722 16.860602 172.082296 17.359177 
C 172.58087 17.857751 173.257177 18.137886 173.962267 18.137886 
z
" style="fill:#56b4e9;fill-opacity:0.25098;stroke:#56b4e9;stroke-opacity:0.25098;stroke-width:0.886227;"/>
    <path clip-path="url(#p790a1e16a4)" d="M 177.47262 19.845681 
C 178.177711 19.845681 178.854017 19.565545 179.352591 19.066971 
C 179.851166 18.568397 180.131301 17.89209 180.131301 17.187 
C 180.131301 16.48191 179.851166 15.805603 179.352591 15.307029 
C 178.854017 14.808455 178.177711 14.528319 177.47262 14.528319 
C 176.76753 14.528319 176.091223 14.808455 175.592649 15.307029 
C 175.094075 15.805603 174.813939 16.48191 174.813939 17.187 
C 174.813939 17.89209 175.094075 18.568397 175.592649 19.066971 
C 176.091223 19.565545 176.76753 19.845681 177.47262 19.845681 
z
" style="fill:#56b4e9;fill-opacity:0.25098;stroke:#56b4e9;stroke-opacity:0.25098;stroke-width:0.886227;"/>
    <path clip-path="url(#p790a1e16a4)" d="M 178.81419 16.225293 
C 179.519281 16.225293 180.195587 15.945158 180.694162 15.446584 
C 181.192736 14.94801 181.472871 14.271703 181.472871 13.566613 
C 181.472871 12.861522 181.192736 12.185215 180.694162 11.686641 
C 180.195587 11.188067 179.519281 10.907932 178.81419 10.907932 
C 178.1091 10.907932 177.432793 11.188067 176.934219 11.686641 
C 176.435645 12.185215 176.15551 12.861522 176.15551 13.566613 
C 176.15551 14.271703 176.435645 14.94801 176.934219 15.446584 
C 177.432793 15.945158 178.1091 16.225293 178.81419 16.225293 
z
" style="fill:#56b4e9;fill-opacity:0.25098;stroke:#56b4e9;stroke-opacity:0.25098;stroke-width:0.886227;"/>
    <path clip-path="url(#p790a1e16a4)" d="M 175.443784 16.168059 
C 176.148874 16.168059 176.825181 15.887923 177.323755 15.389349 
C 177.822329 14.890775 178.102464 14.214468 178.102464 13.509378 
C 178.102464 12.804288 177.822329 12.127981 177.323755 11.629407 
C 176.825181 11.130833 176.148874 10.850697 175.443784 10.850697 
C 174.738693 10.850697 174.062387 11.130833 173.563812 11.629407 
C 173.065238 12.127981 172.785103 12.804288 172.785103 13.509378 
C 172.785103 14.214468 173.065238 14.890775 173.563812 15.389349 
C 174.062387 15.887923 174.738693 16.168059 175.443784 16.168059 
z
" style="fill:#56b4e9;fill-opacity:0.25098;stroke:#56b4e9;stroke-opacity:0.25098;stroke-width:0.886227;"/>
    <path clip-path="url(#p790a1e16a4)" d="M 262.234541 31.513503 
C 262.939632 31.513503 263.615938 31.233367 264.114513 30.734793 
C 264.613087 30.236219 264.893222 29.559912 264.893222 28.854822 
C 264.893222 28.149732 264.613087 27.473425 264.114513 26.974851 
C 263.615938 26.476277 262.939632 26.196141 262.234541 26.196141 
C 261.529451 26.196141 260.853144 26.476277 260.35457 26.974851 
C 259.855996 27.473425 259.575861 28.149732 259.575861 28.854822 
C 259.575861 29.559912 259.855996 30.236219 260.35457 30.734793 
C 260.853144 31.233367 261.529451 31.513503 262.234541 31.513503 
z
" style="fill:#56b4e9;fill-opacity:0.25098;stroke:#56b4e9;stroke-opacity:0.25098;stroke-width:0.886227;"/>
    <path clip-path="url(#p790a1e16a4)" d="M 262.445211 32.964601 
C 263.150301 32.964601 263.826608 32.684466 264.325182 32.185892 
C 264.823756 31.687318 265.103892 31.011011 265.103892 30.305921 
C 265.103892 29.60083 264.823756 28.924524 264.325182 28.425949 
C 263.826608 27.927375 263.150301 27.64724 262.445211 27.64724 
C 261.740121 27.64724 261.063814 27.927375 260.56524 28.425949 
C 260.066666 28.924524 259.78653 29.60083 259.78653 30.305921 
C 259.78653 31.011011 260.066666 31.687318 260.56524 32.185892 
C 261.063814 32.684466 261.740121 32.964601 262.445211 32.964601 
z
" style="fill:#56b4e9;fill-opacity:0.25098;stroke:#56b4e9;stroke-opacity:0.25098;stroke-width:0.886227;"/>
    <path clip-path="url(#p790a1e16a4)" d="M 221.961598 19.896756 
C 222.666688 19.896756 223.342995 19.616621 223.841569 19.118047 
C 224.340143 18.619473 224.620279 17.943166 224.620279 17.238076 
C 224.620279 16.532985 224.340143 15.856679 223.841569 15.358104 
C 223.342995 14.85953 222.666688 14.579395 221.961598 14.579395 
C 221.256508 14.579395 220.580201 14.85953 220.081627 15.358104 
C 219.583053 15.856679 219.302917 16.532985 219.302917 17.238076 
C 219.302917 17.943166 219.583053 18.619473 220.081627 19.118047 
C 220.580201 19.616621 221.256508 19.896756 221.961598 19.896756 
z
" style="fill:#56b4e9;fill-opacity:0.25098;stroke:#56b4e9;stroke-opacity:0.25098;stroke-width:0.886227;"/>
    <path clip-path="url(#p790a1e16a4)" d="M 240.620055 43.664099 
C 241.325146 43.664099 242.001452 43.383964 242.500026 42.88539 
C 242.998601 42.386816 243.278736 41.710509 243.278736 41.005418 
C 243.278736 40.300328 242.998601 39.624021 242.500026 39.125447 
C 242.001452 38.626873 241.325146 38.346738 240.620055 38.346738 
C 239.914965 38.346738 239.238658 38.626873 238.740084 39.125447 
C 238.24151 39.624021 237.961374 40.300328 237.961374 41.005418 
C 237.961374 41.710509 238.24151 42.386816 238.740084 42.88539 
C 239.238658 43.383964 239.914965 43.664099 240.620055 43.664099 
z
" style="fill:#56b4e9;fill-opacity:0.25098;stroke:#56b4e9;stroke-opacity:0.25098;stroke-width:0.886227;"/>
    <path clip-path="url(#p790a1e16a4)" d="M 238.857333 70.574738 
C 239.562423 70.574738 240.23873 70.294602 240.737304 69.796028 
C 241.235878 69.297454 241.516013 68.621147 241.516013 67.916057 
C 241.516013 67.210967 241.235878 66.53466 240.737304 66.036086 
C 240.23873 65.537512 239.562423 65.257376 238.857333 65.257376 
C 238.152242 65.257376 237.475935 65.537512 236.977361 66.036086 
C 236.478787 66.53466 236.198652 67.210967 236.198652 67.916057 
C 236.198652 68.621147 236.478787 69.297454 236.977361 69.796028 
C 237.475935 70.294602 238.152242 70.574738 238.857333 70.574738 
z
" style="fill:#56b4e9;fill-opacity:0.25098;stroke:#56b4e9;stroke-opacity:0.25098;stroke-width:0.886227;"/>
    <path clip-path="url(#p790a1e16a4)" d="M 217.876292 18.701714 
C 218.581382 18.701714 219.257689 18.421579 219.756263 17.923005 
C 220.254837 17.42443 220.534973 16.748124 220.534973 16.043033 
C 220.534973 15.337943 220.254837 14.661636 219.756263 14.163062 
C 219.257689 13.664488 218.581382 13.384353 217.876292 13.384353 
C 217.171202 13.384353 216.494895 13.664488 215.996321 14.163062 
C 215.497747 14.661636 215.217611 15.337943 215.217611 16.043033 
C 215.217611 16.748124 215.497747 17.42443 215.996321 17.923005 
C 216.494895 18.421579 217.171202 18.701714 217.876292 18.701714 
z
" style="fill:#56b4e9;fill-opacity:0.25098;stroke:#56b4e9;stroke-opacity:0.25098;stroke-width:0.886227;"/>
    <path clip-path="url(#p790a1e16a4)" d="M 221.193657 98.278636 
C 221.898747 98.278636 222.575054 97.998501 223.073628 97.499927 
C 223.572202 97.001353 223.852338 96.325046 223.852338 95.619956 
C 223.852338 94.914865 223.572202 94.238559 223.073628 93.739985 
C 222.575054 93.24141 221.898747 92.961275 221.193657 92.961275 
C 220.488566 92.961275 219.81226 93.24141 219.313686 93.739985 
C 218.815111 94.238559 218.534976 94.914865 218.534976 95.619956 
C 218.534976 96.325046 218.815111 97.001353 219.313686 97.499927 
C 219.81226 97.998501 220.488566 98.278636 221.193657 98.278636 
z
" style="fill:#56b4e9;fill-opacity:0.25098;stroke:#56b4e9;stroke-opacity:0.25098;stroke-width:0.886227;"/>
    <path clip-path="url(#p790a1e16a4)" d="M 221.961571 18.247387 
C 222.666661 18.247387 223.342968 17.967252 223.841542 17.468678 
C 224.340116 16.970103 224.620251 16.293797 224.620251 15.588706 
C 224.620251 14.883616 224.340116 14.207309 223.841542 13.708735 
C 223.342968 13.210161 222.666661 12.930026 221.961571 12.930026 
C 221.25648 12.930026 220.580174 13.210161 220.081599 13.708735 
C 219.583025 14.207309 219.30289 14.883616 219.30289 15.588706 
C 219.30289 16.293797 219.583025 16.970103 220.081599 17.468678 
C 220.580174 17.967252 221.25648 18.247387 221.961571 18.247387 
z
" style="fill:#56b4e9;fill-opacity:0.25098;stroke:#56b4e9;stroke-opacity:0.25098;stroke-width:0.886227;"/>
    <path clip-path="url(#p790a1e16a4)" d="M 177.798266 17.919973 
C 178.503356 17.919973 179.179663 17.639838 179.678237 17.141263 
C 180.176811 16.642689 180.456947 15.966383 180.456947 15.261292 
C 180.456947 14.556202 180.176811 13.879895 179.678237 13.381321 
C 179.179663 12.882747 178.503356 12.602611 177.798266 12.602611 
C 177.093176 12.602611 176.416869 12.882747 175.918295 13.381321 
C 175.419721 13.879895 175.139585 14.556202 175.139585 15.261292 
C 175.139585 15.966383 175.419721 16.642689 175.918295 17.141263 
C 176.416869 17.639838 177.093176 17.919973 177.798266 17.919973 
z
" style="fill:#56b4e9;fill-opacity:0.25098;stroke:#56b4e9;stroke-opacity:0.25098;stroke-width:0.886227;"/>
    <path clip-path="url(#p790a1e16a4)" d="M 175.48661 113.13124 
C 176.1917 113.13124 176.868007 112.851105 177.366581 112.352531 
C 177.865155 111.853957 178.145291 111.17765 178.145291 110.47256 
C 178.145291 109.767469 177.865155 109.091163 177.366581 108.592588 
C 176.868007 108.094014 176.1917 107.813879 175.48661 107.813879 
C 174.78152 107.813879 174.105213 108.094014 173.606639 108.592588 
C 173.108065 109.091163 172.827929 109.767469 172.827929 110.47256 
C 172.827929 111.17765 173.108065 111.853957 173.606639 112.352531 
C 174.105213 112.851105 174.78152 113.13124 175.48661 113.13124 
z
" style="fill:#e69f00;fill-opacity:0.25098;stroke:#e69f00;stroke-opacity:0.25098;stroke-width:0.886227;"/>
    <path clip-path="url(#p790a1e16a4)" d="M 223.098453 111.317398 
C 223.803543 111.317398 224.47985 111.037262 224.978424 110.538688 
C 225.476998 110.040114 225.757134 109.363807 225.757134 108.658717 
C 225.757134 107.953627 225.476998 107.27732 224.978424 106.778746 
C 224.47985 106.280172 223.803543 106.000036 223.098453 106.000036 
C 222.393362 106.000036 221.717056 106.280172 221.218482 106.778746 
C 220.719907 107.27732 220.439772 107.953627 220.439772 108.658717 
C 220.439772 109.363807 220.719907 110.040114 221.218482 110.538688 
C 221.717056 111.037262 222.393362 111.317398 223.098453 111.317398 
z
" style="fill:#e69f00;fill-opacity:0.25098;stroke:#e69f00;stroke-opacity:0.25098;stroke-width:0.886227;"/>
    <path clip-path="url(#p790a1e16a4)" d="M 262.156563 70.052685 
C 262.861653 70.052685 263.53796 69.772549 264.036534 69.273975 
C 264.535108 68.775401 264.815243 68.099094 264.815243 67.394004 
C 264.815243 66.688914 264.535108 66.012607 264.036534 65.514033 
C 263.53796 65.015459 262.861653 64.735323 262.156563 64.735323 
C 261.451472 64.735323 260.775166 65.015459 260.276591 65.514033 
C 259.778017 66.012607 259.497882 66.688914 259.497882 67.394004 
C 259.497882 68.099094 259.778017 68.775401 260.276591 69.273975 
C 260.775166 69.772549 261.451472 70.052685 262.156563 70.052685 
z
" style="fill:#e69f00;fill-opacity:0.25098;stroke:#e69f00;stroke-opacity:0.25098;stroke-width:0.886227;"/>
    <path clip-path="url(#p790a1e16a4)" d="M 176.934234 110.861187 
C 177.639324 110.861187 178.315631 110.581052 178.814205 110.082477 
C 179.31278 109.583903 179.592915 108.907596 179.592915 108.202506 
C 179.592915 107.497416 179.31278 106.821109 178.814205 106.322535 
C 178.315631 105.823961 177.639324 105.543825 176.934234 105.543825 
C 176.229144 105.543825 175.552837 105.823961 175.054263 106.322535 
C 174.555689 106.821109 174.275553 107.497416 174.275553 108.202506 
C 174.275553 108.907596 174.555689 109.583903 175.054263 110.082477 
C 175.552837 110.581052 176.229144 110.861187 176.934234 110.861187 
z
" style="fill:#e69f00;fill-opacity:0.25098;stroke:#e69f00;stroke-opacity:0.25098;stroke-width:0.886227;"/>
    <path clip-path="url(#p790a1e16a4)" d="M 260.408472 86.006394 
C 261.113562 86.006394 261.789869 85.726258 262.288443 85.227684 
C 262.787017 84.72911 263.067152 84.052803 263.067152 83.347713 
C 263.067152 82.642622 262.787017 81.966316 262.288443 81.467742 
C 261.789869 80.969167 261.113562 80.689032 260.408472 80.689032 
C 259.703381 80.689032 259.027075 80.969167 258.5285 81.467742 
C 258.029926 81.966316 257.749791 82.642622 257.749791 83.347713 
C 257.749791 84.052803 258.029926 84.72911 258.5285 85.227684 
C 259.027075 85.726258 259.703381 86.006394 260.408472 86.006394 
z
" style="fill:#e69f00;fill-opacity:0.25098;stroke:#e69f00;stroke-opacity:0.25098;stroke-width:0.886227;"/>
    <path clip-path="url(#p790a1e16a4)" d="M 174.958411 110.845661 
C 175.663501 110.845661 176.339808 110.565526 176.838382 110.066952 
C 177.336956 109.568377 177.617091 108.892071 177.617091 108.18698 
C 177.617091 107.48189 177.336956 106.805583 176.838382 106.307009 
C 176.339808 105.808435 175.663501 105.5283 174.958411 105.5283 
C 174.25332 105.5283 173.577014 105.808435 173.078439 106.307009 
C 172.579865 106.805583 172.29973 107.48189 172.29973 108.18698 
C 172.29973 108.892071 172.579865 109.568377 173.078439 110.066952 
C 173.577014 110.565526 174.25332 110.845661 174.958411 110.845661 
z
" style="fill:#e69f00;fill-opacity:0.25098;stroke:#e69f00;stroke-opacity:0.25098;stroke-width:0.886227;"/>
    <path clip-path="url(#p790a1e16a4)" d="M 179.634377 111.985991 
C 180.339467 111.985991 181.015774 111.705856 181.514348 111.207282 
C 182.012922 110.708708 182.293057 110.032401 182.293057 109.327311 
C 182.293057 108.62222 182.012922 107.945914 181.514348 107.447339 
C 181.015774 106.948765 180.339467 106.66863 179.634377 106.66863 
C 178.929286 106.66863 178.25298 106.948765 177.754405 107.447339 
C 177.255831 107.945914 176.975696 108.62222 176.975696 109.327311 
C 176.975696 110.032401 177.255831 110.708708 177.754405 111.207282 
C 178.25298 111.705856 178.929286 111.985991 179.634377 111.985991 
z
" style="fill:#e69f00;fill-opacity:0.25098;stroke:#e69f00;stroke-opacity:0.25098;stroke-width:0.886227;"/>
    <path clip-path="url(#p790a1e16a4)" d="M 176.062605 111.39158 
C 176.767696 111.39158 177.444002 111.111444 177.942576 110.61287 
C 178.441151 110.114296 178.721286 109.437989 178.721286 108.732899 
C 178.721286 108.027809 178.441151 107.351502 177.942576 106.852928 
C 177.444002 106.354354 176.767696 106.074218 176.062605 106.074218 
C 175.357515 106.074218 174.681208 106.354354 174.182634 106.852928 
C 173.68406 107.351502 173.403924 108.027809 173.403924 108.732899 
C 173.403924 109.437989 173.68406 110.114296 174.182634 110.61287 
C 174.681208 111.111444 175.357515 111.39158 176.062605 111.39158 
z
" style="fill:#e69f00;fill-opacity:0.25098;stroke:#e69f00;stroke-opacity:0.25098;stroke-width:0.886227;"/>
    <path clip-path="url(#p790a1e16a4)" d="M 175.831422 16.260886 
C 176.536512 16.260886 177.212819 15.98075 177.711393 15.482176 
C 178.209967 14.983602 178.490103 14.307295 178.490103 13.602205 
C 178.490103 12.897115 178.209967 12.220808 177.711393 11.722234 
C 177.212819 11.22366 176.536512 10.943524 175.831422 10.943524 
C 175.126332 10.943524 174.450025 11.22366 173.951451 11.722234 
C 173.452877 12.220808 173.172741 12.897115 173.172741 13.602205 
C 173.172741 14.307295 173.452877 14.983602 173.951451 15.482176 
C 174.450025 15.98075 175.126332 16.260886 175.831422 16.260886 
z
" style="fill:#e69f00;fill-opacity:0.25098;stroke:#e69f00;stroke-opacity:0.25098;stroke-width:0.886227;"/>
    <path clip-path="url(#p790a1e16a4)" d="M 176.784916 112.351206 
C 177.490006 112.351206 178.166313 112.071071 178.664887 111.572497 
C 179.163461 111.073923 179.443596 110.397616 179.443596 109.692526 
C 179.443596 108.987435 179.163461 108.311129 178.664887 107.812554 
C 178.166313 107.31398 177.490006 107.033845 176.784916 107.033845 
C 176.079825 107.033845 175.403519 107.31398 174.904944 107.812554 
C 174.40637 108.311129 174.126235 108.987435 174.126235 109.692526 
C 174.126235 110.397616 174.40637 111.073923 174.904944 111.572497 
C 175.403519 112.071071 176.079825 112.351206 176.784916 112.351206 
z
" style="fill:#e69f00;fill-opacity:0.25098;stroke:#e69f00;stroke-opacity:0.25098;stroke-width:0.886227;"/>
    <path clip-path="url(#p790a1e16a4)" d="M 178.887449 113.456965 
C 179.59254 113.456965 180.268847 113.17683 180.767421 112.678256 
C 181.265995 112.179682 181.54613 111.503375 181.54613 110.798285 
C 181.54613 110.093194 181.265995 109.416888 180.767421 108.918313 
C 180.268847 108.419739 179.59254 108.139604 178.887449 108.139604 
C 178.182359 108.139604 177.506052 108.419739 177.007478 108.918313 
C 176.508904 109.416888 176.228769 110.093194 176.228769 110.798285 
C 176.228769 111.503375 176.508904 112.179682 177.007478 112.678256 
C 177.506052 113.17683 178.182359 113.456965 178.887449 113.456965 
z
" style="fill:#e69f00;fill-opacity:0.25098;stroke:#e69f00;stroke-opacity:0.25098;stroke-width:0.886227;"/>
    <path clip-path="url(#p790a1e16a4)" d="M 173.843892 112.130644 
C 174.548982 112.130644 175.225289 111.850509 175.723863 111.351934 
C 176.222437 110.85336 176.502573 110.177053 176.502573 109.471963 
C 176.502573 108.766873 176.222437 108.090566 175.723863 107.591992 
C 175.225289 107.093418 174.548982 106.813282 173.843892 106.813282 
C 173.138801 106.813282 172.462495 107.093418 171.963921 107.591992 
C 171.465346 108.090566 171.185211 108.766873 171.185211 109.471963 
C 171.185211 110.177053 171.465346 110.85336 171.963921 111.351934 
C 172.462495 111.850509 173.138801 112.130644 173.843892 112.130644 
z
" style="fill:#e69f00;fill-opacity:0.25098;stroke:#e69f00;stroke-opacity:0.25098;stroke-width:0.886227;"/>
    <path clip-path="url(#p790a1e16a4)" d="M 220.725027 56.658242 
C 221.430117 56.658242 222.106424 56.378107 222.604998 55.879533 
C 223.103572 55.380959 223.383707 54.704652 223.383707 53.999562 
C 223.383707 53.294471 223.103572 52.618165 222.604998 52.11959 
C 222.106424 51.621016 221.430117 51.340881 220.725027 51.340881 
C 220.019936 51.340881 219.34363 51.621016 218.845055 52.11959 
C 218.346481 52.618165 218.066346 53.294471 218.066346 53.999562 
C 218.066346 54.704652 218.346481 55.380959 218.845055 55.879533 
C 219.34363 56.378107 220.019936 56.658242 220.725027 56.658242 
z
" style="fill:#e69f00;fill-opacity:0.25098;stroke:#e69f00;stroke-opacity:0.25098;stroke-width:0.886227;"/>
    <path clip-path="url(#p790a1e16a4)" d="M 220.45586 57.574452 
C 221.16095 57.574452 221.837257 57.294317 222.335831 56.795743 
C 222.834405 56.297168 223.114541 55.620862 223.114541 54.915771 
C 223.114541 54.210681 222.834405 53.534374 222.335831 53.0358 
C 221.837257 52.537226 221.16095 52.257091 220.45586 52.257091 
C 219.750769 52.257091 219.074463 52.537226 218.575889 53.0358 
C 218.077314 53.534374 217.797179 54.210681 217.797179 54.915771 
C 217.797179 55.620862 218.077314 56.297168 218.575889 56.795743 
C 219.074463 57.294317 219.750769 57.574452 220.45586 57.574452 
z
" style="fill:#e69f00;fill-opacity:0.25098;stroke:#e69f00;stroke-opacity:0.25098;stroke-width:0.886227;"/>
    <path clip-path="url(#p790a1e16a4)" d="M 263.683169 17.139309 
C 264.38826 17.139309 265.064566 16.859174 265.56314 16.3606 
C 266.061715 15.862026 266.34185 15.185719 266.34185 14.480629 
C 266.34185 13.775538 266.061715 13.099232 265.56314 12.600657 
C 265.064566 12.102083 264.38826 11.821948 263.683169 11.821948 
C 262.978079 11.821948 262.301772 12.102083 261.803198 12.600657 
C 261.304624 13.099232 261.024488 13.775538 261.024488 14.480629 
C 261.024488 15.185719 261.304624 15.862026 261.803198 16.3606 
C 262.301772 16.859174 262.978079 17.139309 263.683169 17.139309 
z
" style="fill:#e69f00;fill-opacity:0.25098;stroke:#e69f00;stroke-opacity:0.25098;stroke-width:0.886227;"/>
    <path clip-path="url(#p790a1e16a4)" d="M 261.332938 60.285143 
C 262.038029 60.285143 262.714335 60.005007 263.212909 59.506433 
C 263.711484 59.007859 263.991619 58.331552 263.991619 57.626462 
C 263.991619 56.921372 263.711484 56.245065 263.212909 55.746491 
C 262.714335 55.247917 262.038029 54.967781 261.332938 54.967781 
C 260.627848 54.967781 259.951541 55.247917 259.452967 55.746491 
C 258.954393 56.245065 258.674257 56.921372 258.674257 57.626462 
C 258.674257 58.331552 258.954393 59.007859 259.452967 59.506433 
C 259.951541 60.005007 260.627848 60.285143 261.332938 60.285143 
z
" style="fill:#e69f00;fill-opacity:0.25098;stroke:#e69f00;stroke-opacity:0.25098;stroke-width:0.886227;"/>
    <path clip-path="url(#p790a1e16a4)" d="M 259.769942 60.556192 
C 260.475032 60.556192 261.151339 60.276056 261.649913 59.777482 
C 262.148487 59.278908 262.428623 58.602601 262.428623 57.897511 
C 262.428623 57.19242 262.148487 56.516114 261.649913 56.01754 
C 261.151339 55.518965 260.475032 55.23883 259.769942 55.23883 
C 259.064851 55.23883 258.388545 55.518965 257.889971 56.01754 
C 257.391396 56.516114 257.111261 57.19242 257.111261 57.897511 
C 257.111261 58.602601 257.391396 59.278908 257.889971 59.777482 
C 258.388545 60.276056 259.064851 60.556192 259.769942 60.556192 
z
" style="fill:#e69f00;fill-opacity:0.25098;stroke:#e69f00;stroke-opacity:0.25098;stroke-width:0.886227;"/>
    <path clip-path="url(#p790a1e16a4)" d="M 265.620108 58.264584 
C 266.325198 58.264584 267.001505 57.984448 267.500079 57.485874 
C 267.998653 56.9873 268.278789 56.310993 268.278789 55.605903 
C 268.278789 54.900812 267.998653 54.224506 267.500079 53.725932 
C 267.001505 53.227357 266.325198 52.947222 265.620108 52.947222 
C 264.915018 52.947222 264.238711 53.227357 263.740137 53.725932 
C 263.241563 54.224506 262.961427 54.900812 262.961427 55.605903 
C 262.961427 56.310993 263.241563 56.9873 263.740137 57.485874 
C 264.238711 57.984448 264.915018 58.264584 265.620108 58.264584 
z
" style="fill:#e69f00;fill-opacity:0.25098;stroke:#e69f00;stroke-opacity:0.25098;stroke-width:0.886227;"/>
    <path clip-path="url(#p790a1e16a4)" d="M 262.338317 59.61634 
C 263.043407 59.61634 263.719714 59.336205 264.218288 58.83763 
C 264.716862 58.339056 264.996998 57.66275 264.996998 56.957659 
C 264.996998 56.252569 264.716862 55.576262 264.218288 55.077688 
C 263.719714 54.579114 263.043407 54.298978 262.338317 54.298978 
C 261.633226 54.298978 260.95692 54.579114 260.458346 55.077688 
C 259.959771 55.576262 259.679636 56.252569 259.679636 56.957659 
C 259.679636 57.66275 259.959771 58.339056 260.458346 58.83763 
C 260.95692 59.336205 261.633226 59.61634 262.338317 59.61634 
z
" style="fill:#e69f00;fill-opacity:0.25098;stroke:#e69f00;stroke-opacity:0.25098;stroke-width:0.886227;"/>
    <path clip-path="url(#p790a1e16a4)" d="M 179.011915 44.672713 
C 179.717005 44.672713 180.393312 44.392578 180.891886 43.894003 
C 181.39046 43.395429 181.670596 42.719123 181.670596 42.014032 
C 181.670596 41.308942 181.39046 40.632635 180.891886 40.134061 
C 180.393312 39.635487 179.717005 39.355351 179.011915 39.355351 
C 178.306824 39.355351 177.630518 39.635487 177.131944 40.134061 
C 176.633369 40.632635 176.353234 41.308942 176.353234 42.014032 
C 176.353234 42.719123 176.633369 43.395429 177.131944 43.894003 
C 177.630518 44.392578 178.306824 44.672713 179.011915 44.672713 
z
" style="fill:#e69f00;fill-opacity:0.25098;stroke:#e69f00;stroke-opacity:0.25098;stroke-width:0.886227;"/>
    <path clip-path="url(#p790a1e16a4)" d="M 260.867117 16.8511 
C 261.572207 16.8511 262.248514 16.570964 262.747088 16.07239 
C 263.245662 15.573816 263.525797 14.897509 263.525797 14.192419 
C 263.525797 13.487329 263.245662 12.811022 262.747088 12.312448 
C 262.248514 11.813874 261.572207 11.533738 260.867117 11.533738 
C 260.162026 11.533738 259.48572 11.813874 258.987145 12.312448 
C 258.488571 12.811022 258.208436 13.487329 258.208436 14.192419 
C 258.208436 14.897509 258.488571 15.573816 258.987145 16.07239 
C 259.48572 16.570964 260.162026 16.8511 260.867117 16.8511 
z
" style="fill:#e69f00;fill-opacity:0.25098;stroke:#e69f00;stroke-opacity:0.25098;stroke-width:0.886227;"/>
    <path clip-path="url(#p790a1e16a4)" d="M 174.366279 100.098462 
C 175.071369 100.098462 175.747676 99.818326 176.24625 99.319752 
C 176.744824 98.821178 177.024959 98.144871 177.024959 97.439781 
C 177.024959 96.734691 176.744824 96.058384 176.24625 95.55981 
C 175.747676 95.061236 175.071369 94.7811 174.366279 94.7811 
C 173.661188 94.7811 172.984882 95.061236 172.486307 95.55981 
C 171.987733 96.058384 171.707598 96.734691 171.707598 97.439781 
C 171.707598 98.144871 171.987733 98.821178 172.486307 99.319752 
C 172.984882 99.818326 173.661188 100.098462 174.366279 100.098462 
z
" style="fill:#e69f00;fill-opacity:0.25098;stroke:#e69f00;stroke-opacity:0.25098;stroke-width:0.886227;"/>
    <path clip-path="url(#p790a1e16a4)" d="M 174.006123 99.868608 
C 174.711213 99.868608 175.38752 99.588472 175.886094 99.089898 
C 176.384668 98.591324 176.664804 97.915017 176.664804 97.209927 
C 176.664804 96.504837 176.384668 95.82853 175.886094 95.329956 
C 175.38752 94.831382 174.711213 94.551246 174.006123 94.551246 
C 173.301033 94.551246 172.624726 94.831382 172.126152 95.329956 
C 171.627578 95.82853 171.347442 96.504837 171.347442 97.209927 
C 171.347442 97.915017 171.627578 98.591324 172.126152 99.089898 
C 172.624726 99.588472 173.301033 99.868608 174.006123 99.868608 
z
" style="fill:#e69f00;fill-opacity:0.25098;stroke:#e69f00;stroke-opacity:0.25098;stroke-width:0.886227;"/>
   </g>
   <g id="patch_3">
    <path d="M 164.152813 118.08 
L 164.152813 7.2 
" style="fill:none;stroke:#000000;stroke-linecap:square;stroke-linejoin:miter;"/>
   </g>
   <g id="patch_4">
    <path d="M 164.152813 118.08 
L 275.752813 118.08 
" style="fill:none;stroke:#000000;stroke-linecap:square;stroke-linejoin:miter;"/>
   </g>
  </g>
 </g>
 <defs>
  <clipPath id="p790a1e16a4">
   <rect height="110.88" width="111.6" x="164.152813" y="7.2"/>
  </clipPath>
 </defs>
</svg>
