<?xml version="1.0" encoding="utf-8" standalone="no"?>
<!DOCTYPE svg PUBLIC "-//W3C//DTD SVG 1.1//EN"
  "http://www.w3.org/Graphics/SVG/1.1/DTD/svg11.dtd">
<!-- Created with matplotlib (https://matplotlib.org/) -->
<svg height="224.275188pt" version="1.1" viewBox="0 0 282.952813 224.275188" width="282.952813pt" xmlns="http://www.w3.org/2000/svg" xmlns:xlink="http://www.w3.org/1999/xlink">
 <defs>
  <style type="text/css">
*{stroke-linecap:butt;stroke-linejoin:round;}
  </style>
 </defs>
 <g id="figure_1">
  <g id="patch_1">
   <path d="M 0 224.275188 
L 282.952813 224.275188 
L 282.952813 0 
L 0 0 
z
" style="fill:#ffffff;stroke:#ffffff;stroke-linejoin:miter;"/>
  </g>
  <g id="axes_1">
   <g id="patch_2">
    <path d="M 164.152813 118.08 
L 275.752813 118.08 
L 275.752813 7.2 
L 164.152813 7.2 
z
" style="fill:#ffffff;"/>
   </g>
   <g id="matplotlib.axis_1">
    <g id="xtick_1">
     <g id="line2d_1">
      <path d="M 180.09567 118.08 
" style="fill:none;stroke:#333333;stroke-width:1.5;"/>
      <defs>
       <path d="M 0 0 
L 0 2.75 
" id="m3b887c358f" style="stroke:#333333;"/>
      </defs>
      <g>
       <use style="fill:#333333;stroke:#333333;" x="180.09567" xlink:href="#m3b887c358f" y="118.08"/>
      </g>
     </g>
     <g id="text_1">
      <!-- extra escape -->
      <defs>
       <path d="M 56.203125 29.59375 
L 56.203125 25.203125 
L 14.890625 25.203125 
Q 15.484375 15.921875 20.484375 11.0625 
Q 25.484375 6.203125 34.421875 6.203125 
Q 39.59375 6.203125 44.453125 7.46875 
Q 49.3125 8.734375 54.109375 11.28125 
L 54.109375 2.78125 
Q 49.265625 0.734375 44.1875 -0.34375 
Q 39.109375 -1.421875 33.890625 -1.421875 
Q 20.796875 -1.421875 13.15625 6.1875 
Q 5.515625 13.8125 5.515625 26.8125 
Q 5.515625 40.234375 12.765625 48.109375 
Q 20.015625 56 32.328125 56 
Q 43.359375 56 49.78125 48.890625 
Q 56.203125 41.796875 56.203125 29.59375 
z
M 47.21875 32.234375 
Q 47.125 39.59375 43.09375 43.984375 
Q 39.0625 48.390625 32.421875 48.390625 
Q 24.90625 48.390625 20.390625 44.140625 
Q 15.875 39.890625 15.1875 32.171875 
z
" id="DejaVuSans-101"/>
       <path d="M 54.890625 54.6875 
L 35.109375 28.078125 
L 55.90625 0 
L 45.3125 0 
L 29.390625 21.484375 
L 13.484375 0 
L 2.875 0 
L 24.125 28.609375 
L 4.6875 54.6875 
L 15.28125 54.6875 
L 29.78125 35.203125 
L 44.28125 54.6875 
z
" id="DejaVuSans-120"/>
       <path d="M 18.3125 70.21875 
L 18.3125 54.6875 
L 36.8125 54.6875 
L 36.8125 47.703125 
L 18.3125 47.703125 
L 18.3125 18.015625 
Q 18.3125 11.328125 20.140625 9.421875 
Q 21.96875 7.515625 27.59375 7.515625 
L 36.8125 7.515625 
L 36.8125 0 
L 27.59375 0 
Q 17.1875 0 13.234375 3.875 
Q 9.28125 7.765625 9.28125 18.015625 
L 9.28125 47.703125 
L 2.6875 47.703125 
L 2.6875 54.6875 
L 9.28125 54.6875 
L 9.28125 70.21875 
z
" id="DejaVuSans-116"/>
       <path d="M 41.109375 46.296875 
Q 39.59375 47.171875 37.8125 47.578125 
Q 36.03125 48 33.890625 48 
Q 26.265625 48 22.1875 43.046875 
Q 18.109375 38.09375 18.109375 28.8125 
L 18.109375 0 
L 9.078125 0 
L 9.078125 54.6875 
L 18.109375 54.6875 
L 18.109375 46.1875 
Q 20.953125 51.171875 25.484375 53.578125 
Q 30.03125 56 36.53125 56 
Q 37.453125 56 38.578125 55.875 
Q 39.703125 55.765625 41.0625 55.515625 
z
" id="DejaVuSans-114"/>
       <path d="M 34.28125 27.484375 
Q 23.390625 27.484375 19.1875 25 
Q 14.984375 22.515625 14.984375 16.5 
Q 14.984375 11.71875 18.140625 8.90625 
Q 21.296875 6.109375 26.703125 6.109375 
Q 34.1875 6.109375 38.703125 11.40625 
Q 43.21875 16.703125 43.21875 25.484375 
L 43.21875 27.484375 
z
M 52.203125 31.203125 
L 52.203125 0 
L 43.21875 0 
L 43.21875 8.296875 
Q 40.140625 3.328125 35.546875 0.953125 
Q 30.953125 -1.421875 24.3125 -1.421875 
Q 15.921875 -1.421875 10.953125 3.296875 
Q 6 8.015625 6 15.921875 
Q 6 25.140625 12.171875 29.828125 
Q 18.359375 34.515625 30.609375 34.515625 
L 43.21875 34.515625 
L 43.21875 35.40625 
Q 43.21875 41.609375 39.140625 45 
Q 35.0625 48.390625 27.6875 48.390625 
Q 23 48.390625 18.546875 47.265625 
Q 14.109375 46.140625 10.015625 43.890625 
L 10.015625 52.203125 
Q 14.9375 54.109375 19.578125 55.046875 
Q 24.21875 56 28.609375 56 
Q 40.484375 56 46.34375 49.84375 
Q 52.203125 43.703125 52.203125 31.203125 
z
" id="DejaVuSans-97"/>
       <path id="DejaVuSans-32"/>
       <path d="M 44.28125 53.078125 
L 44.28125 44.578125 
Q 40.484375 46.53125 36.375 47.5 
Q 32.28125 48.484375 27.875 48.484375 
Q 21.1875 48.484375 17.84375 46.4375 
Q 14.5 44.390625 14.5 40.28125 
Q 14.5 37.15625 16.890625 35.375 
Q 19.28125 33.59375 26.515625 31.984375 
L 29.59375 31.296875 
Q 39.15625 29.25 43.1875 25.515625 
Q 47.21875 21.78125 47.21875 15.09375 
Q 47.21875 7.46875 41.1875 3.015625 
Q 35.15625 -1.421875 24.609375 -1.421875 
Q 20.21875 -1.421875 15.453125 -0.5625 
Q 10.6875 0.296875 5.421875 2 
L 5.421875 11.28125 
Q 10.40625 8.6875 15.234375 7.390625 
Q 20.0625 6.109375 24.8125 6.109375 
Q 31.15625 6.109375 34.5625 8.28125 
Q 37.984375 10.453125 37.984375 14.40625 
Q 37.984375 18.0625 35.515625 20.015625 
Q 33.0625 21.96875 24.703125 23.78125 
L 21.578125 24.515625 
Q 13.234375 26.265625 9.515625 29.90625 
Q 5.8125 33.546875 5.8125 39.890625 
Q 5.8125 47.609375 11.28125 51.796875 
Q 16.75 56 26.8125 56 
Q 31.78125 56 36.171875 55.265625 
Q 40.578125 54.546875 44.28125 53.078125 
z
" id="DejaVuSans-115"/>
       <path d="M 48.78125 52.59375 
L 48.78125 44.1875 
Q 44.96875 46.296875 41.140625 47.34375 
Q 37.3125 48.390625 33.40625 48.390625 
Q 24.65625 48.390625 19.8125 42.84375 
Q 14.984375 37.3125 14.984375 27.296875 
Q 14.984375 17.28125 19.8125 11.734375 
Q 24.65625 6.203125 33.40625 6.203125 
Q 37.3125 6.203125 41.140625 7.25 
Q 44.96875 8.296875 48.78125 10.40625 
L 48.78125 2.09375 
Q 45.015625 0.34375 40.984375 -0.53125 
Q 36.96875 -1.421875 32.421875 -1.421875 
Q 20.0625 -1.421875 12.78125 6.34375 
Q 5.515625 14.109375 5.515625 27.296875 
Q 5.515625 40.671875 12.859375 48.328125 
Q 20.21875 56 33.015625 56 
Q 37.15625 56 41.109375 55.140625 
Q 45.0625 54.296875 48.78125 52.59375 
z
" id="DejaVuSans-99"/>
       <path d="M 18.109375 8.203125 
L 18.109375 -20.796875 
L 9.078125 -20.796875 
L 9.078125 54.6875 
L 18.109375 54.6875 
L 18.109375 46.390625 
Q 20.953125 51.265625 25.265625 53.625 
Q 29.59375 56 35.59375 56 
Q 45.5625 56 51.78125 48.09375 
Q 58.015625 40.1875 58.015625 27.296875 
Q 58.015625 14.40625 51.78125 6.484375 
Q 45.5625 -1.421875 35.59375 -1.421875 
Q 29.59375 -1.421875 25.265625 0.953125 
Q 20.953125 3.328125 18.109375 8.203125 
z
M 48.6875 27.296875 
Q 48.6875 37.203125 44.609375 42.84375 
Q 40.53125 48.484375 33.40625 48.484375 
Q 26.265625 48.484375 22.1875 42.84375 
Q 18.109375 37.203125 18.109375 27.296875 
Q 18.109375 17.390625 22.1875 11.75 
Q 26.265625 6.109375 33.40625 6.109375 
Q 40.53125 6.109375 44.609375 11.75 
Q 48.6875 17.390625 48.6875 27.296875 
z
" id="DejaVuSans-112"/>
      </defs>
      <g style="fill:#4d4d4d;" transform="translate(182.52392 179.988)rotate(-90)scale(0.088 -0.088)">
       <use xlink:href="#DejaVuSans-101"/>
       <use x="59.773438" xlink:href="#DejaVuSans-120"/>
       <use x="118.953125" xlink:href="#DejaVuSans-116"/>
       <use x="158.162109" xlink:href="#DejaVuSans-114"/>
       <use x="199.275391" xlink:href="#DejaVuSans-97"/>
       <use x="260.554688" xlink:href="#DejaVuSans-32"/>
       <use x="292.341797" xlink:href="#DejaVuSans-101"/>
       <use x="353.865234" xlink:href="#DejaVuSans-115"/>
       <use x="405.964844" xlink:href="#DejaVuSans-99"/>
       <use x="460.945312" xlink:href="#DejaVuSans-97"/>
       <use x="522.224609" xlink:href="#DejaVuSans-112"/>
       <use x="585.701172" xlink:href="#DejaVuSans-101"/>
      </g>
     </g>
    </g>
    <g id="xtick_2">
     <g id="line2d_2">
      <path d="M 206.667098 118.08 
" style="fill:none;stroke:#333333;stroke-width:1.5;"/>
      <g>
       <use style="fill:#333333;stroke:#333333;" x="206.667098" xlink:href="#m3b887c358f" y="118.08"/>
      </g>
     </g>
     <g id="text_2">
      <!-- normal -->
      <defs>
       <path d="M 54.890625 33.015625 
L 54.890625 0 
L 45.90625 0 
L 45.90625 32.71875 
Q 45.90625 40.484375 42.875 44.328125 
Q 39.84375 48.1875 33.796875 48.1875 
Q 26.515625 48.1875 22.3125 43.546875 
Q 18.109375 38.921875 18.109375 30.90625 
L 18.109375 0 
L 9.078125 0 
L 9.078125 54.6875 
L 18.109375 54.6875 
L 18.109375 46.1875 
Q 21.34375 51.125 25.703125 53.5625 
Q 30.078125 56 35.796875 56 
Q 45.21875 56 50.046875 50.171875 
Q 54.890625 44.34375 54.890625 33.015625 
z
" id="DejaVuSans-110"/>
       <path d="M 30.609375 48.390625 
Q 23.390625 48.390625 19.1875 42.75 
Q 14.984375 37.109375 14.984375 27.296875 
Q 14.984375 17.484375 19.15625 11.84375 
Q 23.34375 6.203125 30.609375 6.203125 
Q 37.796875 6.203125 41.984375 11.859375 
Q 46.1875 17.53125 46.1875 27.296875 
Q 46.1875 37.015625 41.984375 42.703125 
Q 37.796875 48.390625 30.609375 48.390625 
z
M 30.609375 56 
Q 42.328125 56 49.015625 48.375 
Q 55.71875 40.765625 55.71875 27.296875 
Q 55.71875 13.875 49.015625 6.21875 
Q 42.328125 -1.421875 30.609375 -1.421875 
Q 18.84375 -1.421875 12.171875 6.21875 
Q 5.515625 13.875 5.515625 27.296875 
Q 5.515625 40.765625 12.171875 48.375 
Q 18.84375 56 30.609375 56 
z
" id="DejaVuSans-111"/>
       <path d="M 52 44.1875 
Q 55.375 50.25 60.0625 53.125 
Q 64.75 56 71.09375 56 
Q 79.640625 56 84.28125 50.015625 
Q 88.921875 44.046875 88.921875 33.015625 
L 88.921875 0 
L 79.890625 0 
L 79.890625 32.71875 
Q 79.890625 40.578125 77.09375 44.375 
Q 74.3125 48.1875 68.609375 48.1875 
Q 61.625 48.1875 57.5625 43.546875 
Q 53.515625 38.921875 53.515625 30.90625 
L 53.515625 0 
L 44.484375 0 
L 44.484375 32.71875 
Q 44.484375 40.625 41.703125 44.40625 
Q 38.921875 48.1875 33.109375 48.1875 
Q 26.21875 48.1875 22.15625 43.53125 
Q 18.109375 38.875 18.109375 30.90625 
L 18.109375 0 
L 9.078125 0 
L 9.078125 54.6875 
L 18.109375 54.6875 
L 18.109375 46.1875 
Q 21.1875 51.21875 25.484375 53.609375 
Q 29.78125 56 35.6875 56 
Q 41.65625 56 45.828125 52.96875 
Q 50 49.953125 52 44.1875 
z
" id="DejaVuSans-109"/>
       <path d="M 9.421875 75.984375 
L 18.40625 75.984375 
L 18.40625 0 
L 9.421875 0 
z
" id="DejaVuSans-108"/>
      </defs>
      <g style="fill:#4d4d4d;" transform="translate(209.095348 153.864375)rotate(-90)scale(0.088 -0.088)">
       <use xlink:href="#DejaVuSans-110"/>
       <use x="63.378906" xlink:href="#DejaVuSans-111"/>
       <use x="124.560547" xlink:href="#DejaVuSans-114"/>
       <use x="163.923828" xlink:href="#DejaVuSans-109"/>
       <use x="261.335938" xlink:href="#DejaVuSans-97"/>
       <use x="322.615234" xlink:href="#DejaVuSans-108"/>
      </g>
     </g>
    </g>
    <g id="xtick_3">
     <g id="line2d_3">
      <path d="M 233.238527 118.08 
" style="fill:none;stroke:#333333;stroke-width:1.5;"/>
      <g>
       <use style="fill:#333333;stroke:#333333;" x="233.238527" xlink:href="#m3b887c358f" y="118.08"/>
      </g>
     </g>
     <g id="text_3">
      <!-- normal-no escape -->
      <defs>
       <path d="M 4.890625 31.390625 
L 31.203125 31.390625 
L 31.203125 23.390625 
L 4.890625 23.390625 
z
" id="DejaVuSans-45"/>
      </defs>
      <g style="fill:#4d4d4d;" transform="translate(235.666777 202.02925)rotate(-90)scale(0.088 -0.088)">
       <use xlink:href="#DejaVuSans-110"/>
       <use x="63.378906" xlink:href="#DejaVuSans-111"/>
       <use x="124.560547" xlink:href="#DejaVuSans-114"/>
       <use x="163.923828" xlink:href="#DejaVuSans-109"/>
       <use x="261.335938" xlink:href="#DejaVuSans-97"/>
       <use x="322.615234" xlink:href="#DejaVuSans-108"/>
       <use x="350.398438" xlink:href="#DejaVuSans-45"/>
       <use x="386.482422" xlink:href="#DejaVuSans-110"/>
       <use x="449.861328" xlink:href="#DejaVuSans-111"/>
       <use x="511.042969" xlink:href="#DejaVuSans-32"/>
       <use x="542.830078" xlink:href="#DejaVuSans-101"/>
       <use x="604.353516" xlink:href="#DejaVuSans-115"/>
       <use x="656.453125" xlink:href="#DejaVuSans-99"/>
       <use x="711.433594" xlink:href="#DejaVuSans-97"/>
       <use x="772.712891" xlink:href="#DejaVuSans-112"/>
       <use x="836.189453" xlink:href="#DejaVuSans-101"/>
      </g>
     </g>
    </g>
    <g id="xtick_4">
     <g id="line2d_4">
      <path d="M 259.809955 118.08 
" style="fill:none;stroke:#333333;stroke-width:1.5;"/>
      <g>
       <use style="fill:#333333;stroke:#333333;" x="259.809955" xlink:href="#m3b887c358f" y="118.08"/>
      </g>
     </g>
     <g id="text_4">
      <!-- no escape -->
      <g style="fill:#4d4d4d;" transform="translate(262.238205 168.02)rotate(-90)scale(0.088 -0.088)">
       <use xlink:href="#DejaVuSans-110"/>
       <use x="63.378906" xlink:href="#DejaVuSans-111"/>
       <use x="124.560547" xlink:href="#DejaVuSans-32"/>
       <use x="156.347656" xlink:href="#DejaVuSans-101"/>
       <use x="217.871094" xlink:href="#DejaVuSans-115"/>
       <use x="269.970703" xlink:href="#DejaVuSans-99"/>
       <use x="324.951172" xlink:href="#DejaVuSans-97"/>
       <use x="386.230469" xlink:href="#DejaVuSans-112"/>
       <use x="449.707031" xlink:href="#DejaVuSans-101"/>
      </g>
     </g>
    </g>
    <g id="text_5">
     <!-- FACS plot shape -->
     <defs>
      <path d="M 9.8125 72.90625 
L 51.703125 72.90625 
L 51.703125 64.59375 
L 19.671875 64.59375 
L 19.671875 43.109375 
L 48.578125 43.109375 
L 48.578125 34.8125 
L 19.671875 34.8125 
L 19.671875 0 
L 9.8125 0 
z
" id="DejaVuSans-70"/>
      <path d="M 34.1875 63.1875 
L 20.796875 26.90625 
L 47.609375 26.90625 
z
M 28.609375 72.90625 
L 39.796875 72.90625 
L 67.578125 0 
L 57.328125 0 
L 50.6875 18.703125 
L 17.828125 18.703125 
L 11.1875 0 
L 0.78125 0 
z
" id="DejaVuSans-65"/>
      <path d="M 64.40625 67.28125 
L 64.40625 56.890625 
Q 59.421875 61.53125 53.78125 63.8125 
Q 48.140625 66.109375 41.796875 66.109375 
Q 29.296875 66.109375 22.65625 58.46875 
Q 16.015625 50.828125 16.015625 36.375 
Q 16.015625 21.96875 22.65625 14.328125 
Q 29.296875 6.6875 41.796875 6.6875 
Q 48.140625 6.6875 53.78125 8.984375 
Q 59.421875 11.28125 64.40625 15.921875 
L 64.40625 5.609375 
Q 59.234375 2.09375 53.4375 0.328125 
Q 47.65625 -1.421875 41.21875 -1.421875 
Q 24.65625 -1.421875 15.125 8.703125 
Q 5.609375 18.84375 5.609375 36.375 
Q 5.609375 53.953125 15.125 64.078125 
Q 24.65625 74.21875 41.21875 74.21875 
Q 47.75 74.21875 53.53125 72.484375 
Q 59.328125 70.75 64.40625 67.28125 
z
" id="DejaVuSans-67"/>
      <path d="M 53.515625 70.515625 
L 53.515625 60.890625 
Q 47.90625 63.578125 42.921875 64.890625 
Q 37.9375 66.21875 33.296875 66.21875 
Q 25.25 66.21875 20.875 63.09375 
Q 16.5 59.96875 16.5 54.203125 
Q 16.5 49.359375 19.40625 46.890625 
Q 22.3125 44.4375 30.421875 42.921875 
L 36.375 41.703125 
Q 47.40625 39.59375 52.65625 34.296875 
Q 57.90625 29 57.90625 20.125 
Q 57.90625 9.515625 50.796875 4.046875 
Q 43.703125 -1.421875 29.984375 -1.421875 
Q 24.8125 -1.421875 18.96875 -0.25 
Q 13.140625 0.921875 6.890625 3.21875 
L 6.890625 13.375 
Q 12.890625 10.015625 18.65625 8.296875 
Q 24.421875 6.59375 29.984375 6.59375 
Q 38.421875 6.59375 43.015625 9.90625 
Q 47.609375 13.234375 47.609375 19.390625 
Q 47.609375 24.75 44.3125 27.78125 
Q 41.015625 30.8125 33.5 32.328125 
L 27.484375 33.5 
Q 16.453125 35.6875 11.515625 40.375 
Q 6.59375 45.0625 6.59375 53.421875 
Q 6.59375 63.09375 13.40625 68.65625 
Q 20.21875 74.21875 32.171875 74.21875 
Q 37.3125 74.21875 42.625 73.28125 
Q 47.953125 72.359375 53.515625 70.515625 
z
" id="DejaVuSans-83"/>
      <path d="M 54.890625 33.015625 
L 54.890625 0 
L 45.90625 0 
L 45.90625 32.71875 
Q 45.90625 40.484375 42.875 44.328125 
Q 39.84375 48.1875 33.796875 48.1875 
Q 26.515625 48.1875 22.3125 43.546875 
Q 18.109375 38.921875 18.109375 30.90625 
L 18.109375 0 
L 9.078125 0 
L 9.078125 75.984375 
L 18.109375 75.984375 
L 18.109375 46.1875 
Q 21.34375 51.125 25.703125 53.5625 
Q 30.078125 56 35.796875 56 
Q 45.21875 56 50.046875 50.171875 
Q 54.890625 44.34375 54.890625 33.015625 
z
" id="DejaVuSans-104"/>
     </defs>
     <g transform="translate(173.858906 214.787531)scale(0.11 -0.11)">
      <use xlink:href="#DejaVuSans-70"/>
      <use x="48.394531" xlink:href="#DejaVuSans-65"/>
      <use x="115.052734" xlink:href="#DejaVuSans-67"/>
      <use x="184.876953" xlink:href="#DejaVuSans-83"/>
      <use x="248.353516" xlink:href="#DejaVuSans-32"/>
      <use x="280.140625" xlink:href="#DejaVuSans-112"/>
      <use x="343.617188" xlink:href="#DejaVuSans-108"/>
      <use x="371.400391" xlink:href="#DejaVuSans-111"/>
      <use x="432.582031" xlink:href="#DejaVuSans-116"/>
      <use x="471.791016" xlink:href="#DejaVuSans-32"/>
      <use x="503.578125" xlink:href="#DejaVuSans-115"/>
      <use x="555.677734" xlink:href="#DejaVuSans-104"/>
      <use x="619.056641" xlink:href="#DejaVuSans-97"/>
      <use x="680.335938" xlink:href="#DejaVuSans-112"/>
      <use x="743.8125" xlink:href="#DejaVuSans-101"/>
     </g>
    </g>
   </g>
   <g id="matplotlib.axis_2">
    <g id="ytick_1">
     <g id="line2d_5">
      <path d="M 164.152813 109.966829 
" style="fill:none;stroke:#333333;stroke-width:1.5;"/>
      <defs>
       <path d="M 0 0 
L -2.75 0 
" id="mb67c289d85" style="stroke:#333333;"/>
      </defs>
      <g>
       <use style="fill:#333333;stroke:#333333;" x="164.152813" xlink:href="#mb67c289d85" y="109.966829"/>
      </g>
     </g>
     <g id="text_6">
      <!-- 456-484 -->
      <defs>
       <path d="M 37.796875 64.3125 
L 12.890625 25.390625 
L 37.796875 25.390625 
z
M 35.203125 72.90625 
L 47.609375 72.90625 
L 47.609375 25.390625 
L 58.015625 25.390625 
L 58.015625 17.1875 
L 47.609375 17.1875 
L 47.609375 0 
L 37.796875 0 
L 37.796875 17.1875 
L 4.890625 17.1875 
L 4.890625 26.703125 
z
" id="DejaVuSans-52"/>
       <path d="M 10.796875 72.90625 
L 49.515625 72.90625 
L 49.515625 64.59375 
L 19.828125 64.59375 
L 19.828125 46.734375 
Q 21.96875 47.46875 24.109375 47.828125 
Q 26.265625 48.1875 28.421875 48.1875 
Q 40.625 48.1875 47.75 41.5 
Q 54.890625 34.8125 54.890625 23.390625 
Q 54.890625 11.625 47.5625 5.09375 
Q 40.234375 -1.421875 26.90625 -1.421875 
Q 22.3125 -1.421875 17.546875 -0.640625 
Q 12.796875 0.140625 7.71875 1.703125 
L 7.71875 11.625 
Q 12.109375 9.234375 16.796875 8.0625 
Q 21.484375 6.890625 26.703125 6.890625 
Q 35.15625 6.890625 40.078125 11.328125 
Q 45.015625 15.765625 45.015625 23.390625 
Q 45.015625 31 40.078125 35.4375 
Q 35.15625 39.890625 26.703125 39.890625 
Q 22.75 39.890625 18.8125 39.015625 
Q 14.890625 38.140625 10.796875 36.28125 
z
" id="DejaVuSans-53"/>
       <path d="M 33.015625 40.375 
Q 26.375 40.375 22.484375 35.828125 
Q 18.609375 31.296875 18.609375 23.390625 
Q 18.609375 15.53125 22.484375 10.953125 
Q 26.375 6.390625 33.015625 6.390625 
Q 39.65625 6.390625 43.53125 10.953125 
Q 47.40625 15.53125 47.40625 23.390625 
Q 47.40625 31.296875 43.53125 35.828125 
Q 39.65625 40.375 33.015625 40.375 
z
M 52.59375 71.296875 
L 52.59375 62.3125 
Q 48.875 64.0625 45.09375 64.984375 
Q 41.3125 65.921875 37.59375 65.921875 
Q 27.828125 65.921875 22.671875 59.328125 
Q 17.53125 52.734375 16.796875 39.40625 
Q 19.671875 43.65625 24.015625 45.921875 
Q 28.375 48.1875 33.59375 48.1875 
Q 44.578125 48.1875 50.953125 41.515625 
Q 57.328125 34.859375 57.328125 23.390625 
Q 57.328125 12.15625 50.6875 5.359375 
Q 44.046875 -1.421875 33.015625 -1.421875 
Q 20.359375 -1.421875 13.671875 8.265625 
Q 6.984375 17.96875 6.984375 36.375 
Q 6.984375 53.65625 15.1875 63.9375 
Q 23.390625 74.21875 37.203125 74.21875 
Q 40.921875 74.21875 44.703125 73.484375 
Q 48.484375 72.75 52.59375 71.296875 
z
" id="DejaVuSans-54"/>
       <path d="M 31.78125 34.625 
Q 24.75 34.625 20.71875 30.859375 
Q 16.703125 27.09375 16.703125 20.515625 
Q 16.703125 13.921875 20.71875 10.15625 
Q 24.75 6.390625 31.78125 6.390625 
Q 38.8125 6.390625 42.859375 10.171875 
Q 46.921875 13.96875 46.921875 20.515625 
Q 46.921875 27.09375 42.890625 30.859375 
Q 38.875 34.625 31.78125 34.625 
z
M 21.921875 38.8125 
Q 15.578125 40.375 12.03125 44.71875 
Q 8.5 49.078125 8.5 55.328125 
Q 8.5 64.0625 14.71875 69.140625 
Q 20.953125 74.21875 31.78125 74.21875 
Q 42.671875 74.21875 48.875 69.140625 
Q 55.078125 64.0625 55.078125 55.328125 
Q 55.078125 49.078125 51.53125 44.71875 
Q 48 40.375 41.703125 38.8125 
Q 48.828125 37.15625 52.796875 32.3125 
Q 56.78125 27.484375 56.78125 20.515625 
Q 56.78125 9.90625 50.3125 4.234375 
Q 43.84375 -1.421875 31.78125 -1.421875 
Q 19.734375 -1.421875 13.25 4.234375 
Q 6.78125 9.90625 6.78125 20.515625 
Q 6.78125 27.484375 10.78125 32.3125 
Q 14.796875 37.15625 21.921875 38.8125 
z
M 18.3125 54.390625 
Q 18.3125 48.734375 21.84375 45.5625 
Q 25.390625 42.390625 31.78125 42.390625 
Q 38.140625 42.390625 41.71875 45.5625 
Q 45.3125 48.734375 45.3125 54.390625 
Q 45.3125 60.0625 41.71875 63.234375 
Q 38.140625 66.40625 31.78125 66.40625 
Q 25.390625 66.40625 21.84375 63.234375 
Q 18.3125 60.0625 18.3125 54.390625 
z
" id="DejaVuSans-56"/>
      </defs>
      <g style="fill:#4d4d4d;" transform="translate(122.433938 112.395079)scale(0.088 -0.088)">
       <use xlink:href="#DejaVuSans-52"/>
       <use x="63.623047" xlink:href="#DejaVuSans-53"/>
       <use x="127.246094" xlink:href="#DejaVuSans-54"/>
       <use x="190.869141" xlink:href="#DejaVuSans-45"/>
       <use x="226.953125" xlink:href="#DejaVuSans-52"/>
       <use x="290.576172" xlink:href="#DejaVuSans-56"/>
       <use x="354.199219" xlink:href="#DejaVuSans-52"/>
      </g>
     </g>
    </g>
    <g id="ytick_2">
     <g id="line2d_6">
      <path d="M 164.152813 96.444878 
" style="fill:none;stroke:#333333;stroke-width:1.5;"/>
      <g>
       <use style="fill:#333333;stroke:#333333;" x="164.152813" xlink:href="#mb67c289d85" y="96.444878"/>
      </g>
     </g>
     <g id="text_7">
      <!-- 456-484 low magnitude -->
      <defs>
       <path d="M 4.203125 54.6875 
L 13.1875 54.6875 
L 24.421875 12.015625 
L 35.59375 54.6875 
L 46.1875 54.6875 
L 57.421875 12.015625 
L 68.609375 54.6875 
L 77.59375 54.6875 
L 63.28125 0 
L 52.6875 0 
L 40.921875 44.828125 
L 29.109375 0 
L 18.5 0 
z
" id="DejaVuSans-119"/>
       <path d="M 45.40625 27.984375 
Q 45.40625 37.75 41.375 43.109375 
Q 37.359375 48.484375 30.078125 48.484375 
Q 22.859375 48.484375 18.828125 43.109375 
Q 14.796875 37.75 14.796875 27.984375 
Q 14.796875 18.265625 18.828125 12.890625 
Q 22.859375 7.515625 30.078125 7.515625 
Q 37.359375 7.515625 41.375 12.890625 
Q 45.40625 18.265625 45.40625 27.984375 
z
M 54.390625 6.78125 
Q 54.390625 -7.171875 48.1875 -13.984375 
Q 42 -20.796875 29.203125 -20.796875 
Q 24.46875 -20.796875 20.265625 -20.09375 
Q 16.0625 -19.390625 12.109375 -17.921875 
L 12.109375 -9.1875 
Q 16.0625 -11.328125 19.921875 -12.34375 
Q 23.78125 -13.375 27.78125 -13.375 
Q 36.625 -13.375 41.015625 -8.765625 
Q 45.40625 -4.15625 45.40625 5.171875 
L 45.40625 9.625 
Q 42.625 4.78125 38.28125 2.390625 
Q 33.9375 0 27.875 0 
Q 17.828125 0 11.671875 7.65625 
Q 5.515625 15.328125 5.515625 27.984375 
Q 5.515625 40.671875 11.671875 48.328125 
Q 17.828125 56 27.875 56 
Q 33.9375 56 38.28125 53.609375 
Q 42.625 51.21875 45.40625 46.390625 
L 45.40625 54.6875 
L 54.390625 54.6875 
z
" id="DejaVuSans-103"/>
       <path d="M 9.421875 54.6875 
L 18.40625 54.6875 
L 18.40625 0 
L 9.421875 0 
z
M 9.421875 75.984375 
L 18.40625 75.984375 
L 18.40625 64.59375 
L 9.421875 64.59375 
z
" id="DejaVuSans-105"/>
       <path d="M 8.5 21.578125 
L 8.5 54.6875 
L 17.484375 54.6875 
L 17.484375 21.921875 
Q 17.484375 14.15625 20.5 10.265625 
Q 23.53125 6.390625 29.59375 6.390625 
Q 36.859375 6.390625 41.078125 11.03125 
Q 45.3125 15.671875 45.3125 23.6875 
L 45.3125 54.6875 
L 54.296875 54.6875 
L 54.296875 0 
L 45.3125 0 
L 45.3125 8.40625 
Q 42.046875 3.421875 37.71875 1 
Q 33.40625 -1.421875 27.6875 -1.421875 
Q 18.265625 -1.421875 13.375 4.4375 
Q 8.5 10.296875 8.5 21.578125 
z
M 31.109375 56 
z
" id="DejaVuSans-117"/>
       <path d="M 45.40625 46.390625 
L 45.40625 75.984375 
L 54.390625 75.984375 
L 54.390625 0 
L 45.40625 0 
L 45.40625 8.203125 
Q 42.578125 3.328125 38.25 0.953125 
Q 33.9375 -1.421875 27.875 -1.421875 
Q 17.96875 -1.421875 11.734375 6.484375 
Q 5.515625 14.40625 5.515625 27.296875 
Q 5.515625 40.1875 11.734375 48.09375 
Q 17.96875 56 27.875 56 
Q 33.9375 56 38.25 53.625 
Q 42.578125 51.265625 45.40625 46.390625 
z
M 14.796875 27.296875 
Q 14.796875 17.390625 18.875 11.75 
Q 22.953125 6.109375 30.078125 6.109375 
Q 37.203125 6.109375 41.296875 11.75 
Q 45.40625 17.390625 45.40625 27.296875 
Q 45.40625 37.203125 41.296875 42.84375 
Q 37.203125 48.484375 30.078125 48.484375 
Q 22.953125 48.484375 18.875 42.84375 
Q 14.796875 37.203125 14.796875 27.296875 
z
" id="DejaVuSans-100"/>
      </defs>
      <g style="fill:#4d4d4d;" transform="translate(54.213313 98.873128)scale(0.088 -0.088)">
       <use xlink:href="#DejaVuSans-52"/>
       <use x="63.623047" xlink:href="#DejaVuSans-53"/>
       <use x="127.246094" xlink:href="#DejaVuSans-54"/>
       <use x="190.869141" xlink:href="#DejaVuSans-45"/>
       <use x="226.953125" xlink:href="#DejaVuSans-52"/>
       <use x="290.576172" xlink:href="#DejaVuSans-56"/>
       <use x="354.199219" xlink:href="#DejaVuSans-52"/>
       <use x="417.822266" xlink:href="#DejaVuSans-32"/>
       <use x="449.609375" xlink:href="#DejaVuSans-108"/>
       <use x="477.392578" xlink:href="#DejaVuSans-111"/>
       <use x="538.574219" xlink:href="#DejaVuSans-119"/>
       <use x="620.361328" xlink:href="#DejaVuSans-32"/>
       <use x="652.148438" xlink:href="#DejaVuSans-109"/>
       <use x="749.560547" xlink:href="#DejaVuSans-97"/>
       <use x="810.839844" xlink:href="#DejaVuSans-103"/>
       <use x="874.316406" xlink:href="#DejaVuSans-110"/>
       <use x="937.695312" xlink:href="#DejaVuSans-105"/>
       <use x="965.478516" xlink:href="#DejaVuSans-116"/>
       <use x="1004.6875" xlink:href="#DejaVuSans-117"/>
       <use x="1068.066406" xlink:href="#DejaVuSans-100"/>
       <use x="1131.542969" xlink:href="#DejaVuSans-101"/>
      </g>
     </g>
    </g>
    <g id="ytick_3">
     <g id="line2d_7">
      <path d="M 164.152813 82.922927 
" style="fill:none;stroke:#333333;stroke-width:1.5;"/>
      <g>
       <use style="fill:#333333;stroke:#333333;" x="164.152813" xlink:href="#mb67c289d85" y="82.922927"/>
      </g>
     </g>
     <g id="text_8">
      <!-- 456-484 noisy -->
      <defs>
       <path d="M 32.171875 -5.078125 
Q 28.375 -14.84375 24.75 -17.8125 
Q 21.140625 -20.796875 15.09375 -20.796875 
L 7.90625 -20.796875 
L 7.90625 -13.28125 
L 13.1875 -13.28125 
Q 16.890625 -13.28125 18.9375 -11.515625 
Q 21 -9.765625 23.484375 -3.21875 
L 25.09375 0.875 
L 2.984375 54.6875 
L 12.5 54.6875 
L 29.59375 11.921875 
L 46.6875 54.6875 
L 56.203125 54.6875 
z
" id="DejaVuSans-121"/>
      </defs>
      <g style="fill:#4d4d4d;" transform="translate(96.438188 85.351177)scale(0.088 -0.088)">
       <use xlink:href="#DejaVuSans-52"/>
       <use x="63.623047" xlink:href="#DejaVuSans-53"/>
       <use x="127.246094" xlink:href="#DejaVuSans-54"/>
       <use x="190.869141" xlink:href="#DejaVuSans-45"/>
       <use x="226.953125" xlink:href="#DejaVuSans-52"/>
       <use x="290.576172" xlink:href="#DejaVuSans-56"/>
       <use x="354.199219" xlink:href="#DejaVuSans-52"/>
       <use x="417.822266" xlink:href="#DejaVuSans-32"/>
       <use x="449.609375" xlink:href="#DejaVuSans-110"/>
       <use x="512.988281" xlink:href="#DejaVuSans-111"/>
       <use x="574.169922" xlink:href="#DejaVuSans-105"/>
       <use x="601.953125" xlink:href="#DejaVuSans-115"/>
       <use x="654.052734" xlink:href="#DejaVuSans-121"/>
      </g>
     </g>
    </g>
    <g id="ytick_4">
     <g id="line2d_8">
      <path d="M 164.152813 69.400976 
" style="fill:none;stroke:#333333;stroke-width:1.5;"/>
      <g>
       <use style="fill:#333333;stroke:#333333;" x="164.152813" xlink:href="#mb67c289d85" y="69.400976"/>
      </g>
     </g>
     <g id="text_9">
      <!-- 456-484 low magnitude - noisy -->
      <g style="fill:#4d4d4d;" transform="translate(22.245937 71.829226)scale(0.088 -0.088)">
       <use xlink:href="#DejaVuSans-52"/>
       <use x="63.623047" xlink:href="#DejaVuSans-53"/>
       <use x="127.246094" xlink:href="#DejaVuSans-54"/>
       <use x="190.869141" xlink:href="#DejaVuSans-45"/>
       <use x="226.953125" xlink:href="#DejaVuSans-52"/>
       <use x="290.576172" xlink:href="#DejaVuSans-56"/>
       <use x="354.199219" xlink:href="#DejaVuSans-52"/>
       <use x="417.822266" xlink:href="#DejaVuSans-32"/>
       <use x="449.609375" xlink:href="#DejaVuSans-108"/>
       <use x="477.392578" xlink:href="#DejaVuSans-111"/>
       <use x="538.574219" xlink:href="#DejaVuSans-119"/>
       <use x="620.361328" xlink:href="#DejaVuSans-32"/>
       <use x="652.148438" xlink:href="#DejaVuSans-109"/>
       <use x="749.560547" xlink:href="#DejaVuSans-97"/>
       <use x="810.839844" xlink:href="#DejaVuSans-103"/>
       <use x="874.316406" xlink:href="#DejaVuSans-110"/>
       <use x="937.695312" xlink:href="#DejaVuSans-105"/>
       <use x="965.478516" xlink:href="#DejaVuSans-116"/>
       <use x="1004.6875" xlink:href="#DejaVuSans-117"/>
       <use x="1068.066406" xlink:href="#DejaVuSans-100"/>
       <use x="1131.542969" xlink:href="#DejaVuSans-101"/>
       <use x="1193.066406" xlink:href="#DejaVuSans-32"/>
       <use x="1224.853516" xlink:href="#DejaVuSans-45"/>
       <use x="1260.9375" xlink:href="#DejaVuSans-32"/>
       <use x="1292.724609" xlink:href="#DejaVuSans-110"/>
       <use x="1356.103516" xlink:href="#DejaVuSans-111"/>
       <use x="1417.285156" xlink:href="#DejaVuSans-105"/>
       <use x="1445.068359" xlink:href="#DejaVuSans-115"/>
       <use x="1497.167969" xlink:href="#DejaVuSans-121"/>
      </g>
     </g>
    </g>
    <g id="ytick_5">
     <g id="line2d_9">
      <path d="M 164.152813 55.879024 
" style="fill:none;stroke:#333333;stroke-width:1.5;"/>
      <g>
       <use style="fill:#333333;stroke:#333333;" x="164.152813" xlink:href="#mb67c289d85" y="55.879024"/>
      </g>
     </g>
     <g id="text_10">
      <!-- 443-450 -->
      <defs>
       <path d="M 40.578125 39.3125 
Q 47.65625 37.796875 51.625 33 
Q 55.609375 28.21875 55.609375 21.1875 
Q 55.609375 10.40625 48.1875 4.484375 
Q 40.765625 -1.421875 27.09375 -1.421875 
Q 22.515625 -1.421875 17.65625 -0.515625 
Q 12.796875 0.390625 7.625 2.203125 
L 7.625 11.71875 
Q 11.71875 9.328125 16.59375 8.109375 
Q 21.484375 6.890625 26.8125 6.890625 
Q 36.078125 6.890625 40.9375 10.546875 
Q 45.796875 14.203125 45.796875 21.1875 
Q 45.796875 27.640625 41.28125 31.265625 
Q 36.765625 34.90625 28.71875 34.90625 
L 20.21875 34.90625 
L 20.21875 43.015625 
L 29.109375 43.015625 
Q 36.375 43.015625 40.234375 45.921875 
Q 44.09375 48.828125 44.09375 54.296875 
Q 44.09375 59.90625 40.109375 62.90625 
Q 36.140625 65.921875 28.71875 65.921875 
Q 24.65625 65.921875 20.015625 65.03125 
Q 15.375 64.15625 9.8125 62.3125 
L 9.8125 71.09375 
Q 15.4375 72.65625 20.34375 73.4375 
Q 25.25 74.21875 29.59375 74.21875 
Q 40.828125 74.21875 47.359375 69.109375 
Q 53.90625 64.015625 53.90625 55.328125 
Q 53.90625 49.265625 50.4375 45.09375 
Q 46.96875 40.921875 40.578125 39.3125 
z
" id="DejaVuSans-51"/>
       <path d="M 31.78125 66.40625 
Q 24.171875 66.40625 20.328125 58.90625 
Q 16.5 51.421875 16.5 36.375 
Q 16.5 21.390625 20.328125 13.890625 
Q 24.171875 6.390625 31.78125 6.390625 
Q 39.453125 6.390625 43.28125 13.890625 
Q 47.125 21.390625 47.125 36.375 
Q 47.125 51.421875 43.28125 58.90625 
Q 39.453125 66.40625 31.78125 66.40625 
z
M 31.78125 74.21875 
Q 44.046875 74.21875 50.515625 64.515625 
Q 56.984375 54.828125 56.984375 36.375 
Q 56.984375 17.96875 50.515625 8.265625 
Q 44.046875 -1.421875 31.78125 -1.421875 
Q 19.53125 -1.421875 13.0625 8.265625 
Q 6.59375 17.96875 6.59375 36.375 
Q 6.59375 54.828125 13.0625 64.515625 
Q 19.53125 74.21875 31.78125 74.21875 
z
" id="DejaVuSans-48"/>
      </defs>
      <g style="fill:#4d4d4d;" transform="translate(122.433938 58.307274)scale(0.088 -0.088)">
       <use xlink:href="#DejaVuSans-52"/>
       <use x="63.623047" xlink:href="#DejaVuSans-52"/>
       <use x="127.246094" xlink:href="#DejaVuSans-51"/>
       <use x="190.869141" xlink:href="#DejaVuSans-45"/>
       <use x="226.953125" xlink:href="#DejaVuSans-52"/>
       <use x="290.576172" xlink:href="#DejaVuSans-53"/>
       <use x="354.199219" xlink:href="#DejaVuSans-48"/>
      </g>
     </g>
    </g>
    <g id="ytick_6">
     <g id="line2d_10">
      <path d="M 164.152813 42.357073 
" style="fill:none;stroke:#333333;stroke-width:1.5;"/>
      <g>
       <use style="fill:#333333;stroke:#333333;" x="164.152813" xlink:href="#mb67c289d85" y="42.357073"/>
      </g>
     </g>
     <g id="text_11">
      <!-- core -->
      <g style="fill:#4d4d4d;" transform="translate(140.145313 44.785323)scale(0.088 -0.088)">
       <use xlink:href="#DejaVuSans-99"/>
       <use x="54.980469" xlink:href="#DejaVuSans-111"/>
       <use x="116.162109" xlink:href="#DejaVuSans-114"/>
       <use x="155.025391" xlink:href="#DejaVuSans-101"/>
      </g>
     </g>
    </g>
    <g id="ytick_7">
     <g id="line2d_11">
      <path d="M 164.152813 28.835122 
" style="fill:none;stroke:#333333;stroke-width:1.5;"/>
      <g>
       <use style="fill:#333333;stroke:#333333;" x="164.152813" xlink:href="#mb67c289d85" y="28.835122"/>
      </g>
     </g>
     <g id="text_12">
      <!-- flat - noisy -->
      <defs>
       <path d="M 37.109375 75.984375 
L 37.109375 68.5 
L 28.515625 68.5 
Q 23.6875 68.5 21.796875 66.546875 
Q 19.921875 64.59375 19.921875 59.515625 
L 19.921875 54.6875 
L 34.71875 54.6875 
L 34.71875 47.703125 
L 19.921875 47.703125 
L 19.921875 0 
L 10.890625 0 
L 10.890625 47.703125 
L 2.296875 47.703125 
L 2.296875 54.6875 
L 10.890625 54.6875 
L 10.890625 58.5 
Q 10.890625 67.625 15.140625 71.796875 
Q 19.390625 75.984375 28.609375 75.984375 
z
" id="DejaVuSans-102"/>
      </defs>
      <g style="fill:#4d4d4d;" transform="translate(112.850188 31.263372)scale(0.088 -0.088)">
       <use xlink:href="#DejaVuSans-102"/>
       <use x="35.205078" xlink:href="#DejaVuSans-108"/>
       <use x="62.988281" xlink:href="#DejaVuSans-97"/>
       <use x="124.267578" xlink:href="#DejaVuSans-116"/>
       <use x="163.476562" xlink:href="#DejaVuSans-32"/>
       <use x="195.263672" xlink:href="#DejaVuSans-45"/>
       <use x="231.347656" xlink:href="#DejaVuSans-32"/>
       <use x="263.134766" xlink:href="#DejaVuSans-110"/>
       <use x="326.513672" xlink:href="#DejaVuSans-111"/>
       <use x="387.695312" xlink:href="#DejaVuSans-105"/>
       <use x="415.478516" xlink:href="#DejaVuSans-115"/>
       <use x="467.578125" xlink:href="#DejaVuSans-121"/>
      </g>
     </g>
    </g>
    <g id="ytick_8">
     <g id="line2d_12">
      <path d="M 164.152813 15.313171 
" style="fill:none;stroke:#333333;stroke-width:1.5;"/>
      <g>
       <use style="fill:#333333;stroke:#333333;" x="164.152813" xlink:href="#mb67c289d85" y="15.313171"/>
      </g>
     </g>
     <g id="text_13">
      <!-- flat -->
      <g style="fill:#4d4d4d;" transform="translate(144.817563 17.741421)scale(0.088 -0.088)">
       <use xlink:href="#DejaVuSans-102"/>
       <use x="35.205078" xlink:href="#DejaVuSans-108"/>
       <use x="62.988281" xlink:href="#DejaVuSans-97"/>
       <use x="124.267578" xlink:href="#DejaVuSans-116"/>
      </g>
     </g>
    </g>
    <g id="text_14">
     <!-- escape map -->
     <g transform="translate(15.558281 95.407266)rotate(-90)scale(0.11 -0.11)">
      <use xlink:href="#DejaVuSans-101"/>
      <use x="61.523438" xlink:href="#DejaVuSans-115"/>
      <use x="113.623047" xlink:href="#DejaVuSans-99"/>
      <use x="168.603516" xlink:href="#DejaVuSans-97"/>
      <use x="229.882812" xlink:href="#DejaVuSans-112"/>
      <use x="293.359375" xlink:href="#DejaVuSans-101"/>
      <use x="354.882812" xlink:href="#DejaVuSans-32"/>
      <use x="386.669922" xlink:href="#DejaVuSans-109"/>
      <use x="484.082031" xlink:href="#DejaVuSans-97"/>
      <use x="545.361328" xlink:href="#DejaVuSans-112"/>
     </g>
    </g>
   </g>
   <g id="PathCollection_1">
    <path clip-path="url(#p8addf81e55)" d="M 233.155429 110.918932 
C 233.860519 110.918932 234.536826 110.638796 235.0354 110.140222 
C 235.533974 109.641648 235.814109 108.965341 235.814109 108.260251 
C 235.814109 107.555161 235.533974 106.878854 235.0354 106.38028 
C 234.536826 105.881706 233.860519 105.60157 233.155429 105.60157 
C 232.450338 105.60157 231.774032 105.881706 231.275457 106.38028 
C 230.776883 106.878854 230.496748 107.555161 230.496748 108.260251 
C 230.496748 108.965341 230.776883 109.641648 231.275457 110.140222 
C 231.774032 110.638796 232.450338 110.918932 233.155429 110.918932 
z
" style="fill:#56b4e9;fill-opacity:0.25098;stroke:#56b4e9;stroke-opacity:0.25098;stroke-width:0.886227;"/>
    <path clip-path="url(#p8addf81e55)" d="M 202.967548 18.522222 
C 203.672638 18.522222 204.348945 18.242086 204.847519 17.743512 
C 205.346093 17.244938 205.626228 16.568631 205.626228 15.863541 
C 205.626228 15.15845 205.346093 14.482144 204.847519 13.98357 
C 204.348945 13.484995 203.672638 13.20486 202.967548 13.20486 
C 202.262457 13.20486 201.586151 13.484995 201.087576 13.98357 
C 200.589002 14.482144 200.308867 15.15845 200.308867 15.863541 
C 200.308867 16.568631 200.589002 17.244938 201.087576 17.743512 
C 201.586151 18.242086 202.262457 18.522222 202.967548 18.522222 
z
" style="fill:#56b4e9;fill-opacity:0.25098;stroke:#56b4e9;stroke-opacity:0.25098;stroke-width:0.886227;"/>
    <path clip-path="url(#p8addf81e55)" d="M 208.574819 97.747446 
C 209.27991 97.747446 209.956216 97.467311 210.45479 96.968737 
C 210.953365 96.470162 211.2335 95.793856 211.2335 95.088765 
C 211.2335 94.383675 210.953365 93.707368 210.45479 93.208794 
C 209.956216 92.71022 209.27991 92.430085 208.574819 92.430085 
C 207.869729 92.430085 207.193422 92.71022 206.694848 93.208794 
C 206.196274 93.707368 205.916138 94.383675 205.916138 95.088765 
C 205.916138 95.793856 206.196274 96.470162 206.694848 96.968737 
C 207.193422 97.467311 207.869729 97.747446 208.574819 97.747446 
z
" style="fill:#56b4e9;fill-opacity:0.25098;stroke:#56b4e9;stroke-opacity:0.25098;stroke-width:0.886227;"/>
    <path clip-path="url(#p8addf81e55)" d="M 230.053247 46.765627 
C 230.758338 46.765627 231.434644 46.485491 231.933218 45.986917 
C 232.431793 45.488343 232.711928 44.812036 232.711928 44.106946 
C 232.711928 43.401855 232.431793 42.725549 231.933218 42.226975 
C 231.434644 41.7284 230.758338 41.448265 230.053247 41.448265 
C 229.348157 41.448265 228.67185 41.7284 228.173276 42.226975 
C 227.674702 42.725549 227.394566 43.401855 227.394566 44.106946 
C 227.394566 44.812036 227.674702 45.488343 228.173276 45.986917 
C 228.67185 46.485491 229.348157 46.765627 230.053247 46.765627 
z
" style="fill:#56b4e9;fill-opacity:0.25098;stroke:#56b4e9;stroke-opacity:0.25098;stroke-width:0.886227;"/>
    <path clip-path="url(#p8addf81e55)" d="M 182.019767 16.953868 
C 182.724857 16.953868 183.401164 16.673732 183.899738 16.175158 
C 184.398312 15.676584 184.678448 15.000277 184.678448 14.295187 
C 184.678448 13.590097 184.398312 12.91379 183.899738 12.415216 
C 183.401164 11.916641 182.724857 11.636506 182.019767 11.636506 
C 181.314676 11.636506 180.63837 11.916641 180.139796 12.415216 
C 179.641221 12.91379 179.361086 13.590097 179.361086 14.295187 
C 179.361086 15.000277 179.641221 15.676584 180.139796 16.175158 
C 180.63837 16.673732 181.314676 16.953868 182.019767 16.953868 
z
" style="fill:#56b4e9;fill-opacity:0.25098;stroke:#56b4e9;stroke-opacity:0.25098;stroke-width:0.886227;"/>
    <path clip-path="url(#p8addf81e55)" d="M 207.342905 19.853784 
C 208.047996 19.853784 208.724302 19.573649 209.222877 19.075074 
C 209.721451 18.5765 210.001586 17.900194 210.001586 17.195103 
C 210.001586 16.490013 209.721451 15.813706 209.222877 15.315132 
C 208.724302 14.816558 208.047996 14.536422 207.342905 14.536422 
C 206.637815 14.536422 205.961508 14.816558 205.462934 15.315132 
C 204.96436 15.813706 204.684225 16.490013 204.684225 17.195103 
C 204.684225 17.900194 204.96436 18.5765 205.462934 19.075074 
C 205.961508 19.573649 206.637815 19.853784 207.342905 19.853784 
z
" style="fill:#56b4e9;fill-opacity:0.25098;stroke:#56b4e9;stroke-opacity:0.25098;stroke-width:0.886227;"/>
    <path clip-path="url(#p8addf81e55)" d="M 206.13237 98.419174 
C 206.83746 98.419174 207.513767 98.139039 208.012341 97.640465 
C 208.510915 97.14189 208.79105 96.465584 208.79105 95.760493 
C 208.79105 95.055403 208.510915 94.379096 208.012341 93.880522 
C 207.513767 93.381948 206.83746 93.101813 206.13237 93.101813 
C 205.427279 93.101813 204.750973 93.381948 204.252398 93.880522 
C 203.753824 94.379096 203.473689 95.055403 203.473689 95.760493 
C 203.473689 96.465584 203.753824 97.14189 204.252398 97.640465 
C 204.750973 98.139039 205.427279 98.419174 206.13237 98.419174 
z
" style="fill:#56b4e9;fill-opacity:0.25098;stroke:#56b4e9;stroke-opacity:0.25098;stroke-width:0.886227;"/>
    <path clip-path="url(#p8addf81e55)" d="M 181.745798 112.101352 
C 182.450889 112.101352 183.127195 111.821217 183.625769 111.322642 
C 184.124344 110.824068 184.404479 110.147762 184.404479 109.442671 
C 184.404479 108.737581 184.124344 108.061274 183.625769 107.5627 
C 183.127195 107.064126 182.450889 106.78399 181.745798 106.78399 
C 181.040708 106.78399 180.364401 107.064126 179.865827 107.5627 
C 179.367253 108.061274 179.087117 108.737581 179.087117 109.442671 
C 179.087117 110.147762 179.367253 110.824068 179.865827 111.322642 
C 180.364401 111.821217 181.040708 112.101352 181.745798 112.101352 
z
" style="fill:#56b4e9;fill-opacity:0.25098;stroke:#56b4e9;stroke-opacity:0.25098;stroke-width:0.886227;"/>
    <path clip-path="url(#p8addf81e55)" d="M 258.203314 73.330059 
C 258.908404 73.330059 259.584711 73.049923 260.083285 72.551349 
C 260.581859 72.052775 260.861994 71.376468 260.861994 70.671378 
C 260.861994 69.966288 260.581859 69.289981 260.083285 68.791407 
C 259.584711 68.292833 258.908404 68.012697 258.203314 68.012697 
C 257.498223 68.012697 256.821917 68.292833 256.323342 68.791407 
C 255.824768 69.289981 255.544633 69.966288 255.544633 70.671378 
C 255.544633 71.376468 255.824768 72.052775 256.323342 72.551349 
C 256.821917 73.049923 257.498223 73.330059 258.203314 73.330059 
z
" style="fill:#56b4e9;fill-opacity:0.25098;stroke:#56b4e9;stroke-opacity:0.25098;stroke-width:0.886227;"/>
    <path clip-path="url(#p8addf81e55)" d="M 203.408965 17.5269 
C 204.114056 17.5269 204.790362 17.246764 205.288937 16.74819 
C 205.787511 16.249616 206.067646 15.573309 206.067646 14.868219 
C 206.067646 14.163128 205.787511 13.486822 205.288937 12.988248 
C 204.790362 12.489673 204.114056 12.209538 203.408965 12.209538 
C 202.703875 12.209538 202.027568 12.489673 201.528994 12.988248 
C 201.03042 13.486822 200.750285 14.163128 200.750285 14.868219 
C 200.750285 15.573309 201.03042 16.249616 201.528994 16.74819 
C 202.027568 17.246764 202.703875 17.5269 203.408965 17.5269 
z
" style="fill:#56b4e9;fill-opacity:0.25098;stroke:#56b4e9;stroke-opacity:0.25098;stroke-width:0.886227;"/>
    <path clip-path="url(#p8addf81e55)" d="M 260.330117 45.181187 
C 261.035208 45.181187 261.711514 44.901052 262.210089 44.402478 
C 262.708663 43.903903 262.988798 43.227597 262.988798 42.522506 
C 262.988798 41.817416 262.708663 41.141109 262.210089 40.642535 
C 261.711514 40.143961 261.035208 39.863826 260.330117 39.863826 
C 259.625027 39.863826 258.94872 40.143961 258.450146 40.642535 
C 257.951572 41.141109 257.671437 41.817416 257.671437 42.522506 
C 257.671437 43.227597 257.951572 43.903903 258.450146 44.402478 
C 258.94872 44.901052 259.625027 45.181187 260.330117 45.181187 
z
" style="fill:#56b4e9;fill-opacity:0.25098;stroke:#56b4e9;stroke-opacity:0.25098;stroke-width:0.886227;"/>
    <path clip-path="url(#p8addf81e55)" d="M 181.116528 18.254951 
C 181.821619 18.254951 182.497925 17.974815 182.996499 17.476241 
C 183.495074 16.977667 183.775209 16.30136 183.775209 15.59627 
C 183.775209 14.891179 183.495074 14.214873 182.996499 13.716299 
C 182.497925 13.217724 181.821619 12.937589 181.116528 12.937589 
C 180.411438 12.937589 179.735131 13.217724 179.236557 13.716299 
C 178.737983 14.214873 178.457847 14.891179 178.457847 15.59627 
C 178.457847 16.30136 178.737983 16.977667 179.236557 17.476241 
C 179.735131 17.974815 180.411438 18.254951 181.116528 18.254951 
z
" style="fill:#56b4e9;fill-opacity:0.25098;stroke:#56b4e9;stroke-opacity:0.25098;stroke-width:0.886227;"/>
    <path clip-path="url(#p8addf81e55)" d="M 205.113111 19.891553 
C 205.818202 19.891553 206.494508 19.611417 206.993082 19.112843 
C 207.491657 18.614269 207.771792 17.937962 207.771792 17.232872 
C 207.771792 16.527782 207.491657 15.851475 206.993082 15.352901 
C 206.494508 14.854327 205.818202 14.574191 205.113111 14.574191 
C 204.408021 14.574191 203.731714 14.854327 203.23314 15.352901 
C 202.734566 15.851475 202.45443 16.527782 202.45443 17.232872 
C 202.45443 17.937962 202.734566 18.614269 203.23314 19.112843 
C 203.731714 19.611417 204.408021 19.891553 205.113111 19.891553 
z
" style="fill:#56b4e9;fill-opacity:0.25098;stroke:#56b4e9;stroke-opacity:0.25098;stroke-width:0.886227;"/>
    <path clip-path="url(#p8addf81e55)" d="M 231.936172 113.502381 
C 232.641263 113.502381 233.317569 113.222246 233.816143 112.723672 
C 234.314718 112.225097 234.594853 111.548791 234.594853 110.8437 
C 234.594853 110.13861 234.314718 109.462303 233.816143 108.963729 
C 233.317569 108.465155 232.641263 108.18502 231.936172 108.18502 
C 231.231082 108.18502 230.554775 108.465155 230.056201 108.963729 
C 229.557627 109.462303 229.277491 110.13861 229.277491 110.8437 
C 229.277491 111.548791 229.557627 112.225097 230.056201 112.723672 
C 230.554775 113.222246 231.231082 113.502381 231.936172 113.502381 
z
" style="fill:#56b4e9;fill-opacity:0.25098;stroke:#56b4e9;stroke-opacity:0.25098;stroke-width:0.886227;"/>
    <path clip-path="url(#p8addf81e55)" d="M 235.088053 110.9601 
C 235.793143 110.9601 236.46945 110.679965 236.968024 110.18139 
C 237.466598 109.682816 237.746734 109.00651 237.746734 108.301419 
C 237.746734 107.596329 237.466598 106.920022 236.968024 106.421448 
C 236.46945 105.922874 235.793143 105.642738 235.088053 105.642738 
C 234.382962 105.642738 233.706656 105.922874 233.208082 106.421448 
C 232.709507 106.920022 232.429372 107.596329 232.429372 108.301419 
C 232.429372 109.00651 232.709507 109.682816 233.208082 110.18139 
C 233.706656 110.679965 234.382962 110.9601 235.088053 110.9601 
z
" style="fill:#56b4e9;fill-opacity:0.25098;stroke:#56b4e9;stroke-opacity:0.25098;stroke-width:0.886227;"/>
    <path clip-path="url(#p8addf81e55)" d="M 181.978939 17.946225 
C 182.68403 17.946225 183.360336 17.66609 183.85891 17.167516 
C 184.357485 16.668942 184.63762 15.992635 184.63762 15.287545 
C 184.63762 14.582454 184.357485 13.906148 183.85891 13.407573 
C 183.360336 12.908999 182.68403 12.628864 181.978939 12.628864 
C 181.273849 12.628864 180.597542 12.908999 180.098968 13.407573 
C 179.600394 13.906148 179.320258 14.582454 179.320258 15.287545 
C 179.320258 15.992635 179.600394 16.668942 180.098968 17.167516 
C 180.597542 17.66609 181.273849 17.946225 181.978939 17.946225 
z
" style="fill:#56b4e9;fill-opacity:0.25098;stroke:#56b4e9;stroke-opacity:0.25098;stroke-width:0.886227;"/>
    <path clip-path="url(#p8addf81e55)" d="M 206.341535 18.076849 
C 207.046625 18.076849 207.722932 17.796713 208.221506 17.298139 
C 208.72008 16.799565 209.000216 16.123258 209.000216 15.418168 
C 209.000216 14.713078 208.72008 14.036771 208.221506 13.538197 
C 207.722932 13.039623 207.046625 12.759487 206.341535 12.759487 
C 205.636445 12.759487 204.960138 13.039623 204.461564 13.538197 
C 203.96299 14.036771 203.682854 14.713078 203.682854 15.418168 
C 203.682854 16.123258 203.96299 16.799565 204.461564 17.298139 
C 204.960138 17.796713 205.636445 18.076849 206.341535 18.076849 
z
" style="fill:#56b4e9;fill-opacity:0.25098;stroke:#56b4e9;stroke-opacity:0.25098;stroke-width:0.886227;"/>
    <path clip-path="url(#p8addf81e55)" d="M 208.506377 17.685418 
C 209.211468 17.685418 209.887774 17.405282 210.386349 16.906708 
C 210.884923 16.408134 211.165058 15.731827 211.165058 15.026737 
C 211.165058 14.321646 210.884923 13.64534 210.386349 13.146766 
C 209.887774 12.648191 209.211468 12.368056 208.506377 12.368056 
C 207.801287 12.368056 207.12498 12.648191 206.626406 13.146766 
C 206.127832 13.64534 205.847697 14.321646 205.847697 15.026737 
C 205.847697 15.731827 206.127832 16.408134 206.626406 16.906708 
C 207.12498 17.405282 207.801287 17.685418 208.506377 17.685418 
z
" style="fill:#56b4e9;fill-opacity:0.25098;stroke:#56b4e9;stroke-opacity:0.25098;stroke-width:0.886227;"/>
    <path clip-path="url(#p8addf81e55)" d="M 203.507168 18.962252 
C 204.212258 18.962252 204.888565 18.682117 205.387139 18.183543 
C 205.885713 17.684969 206.165849 17.008662 206.165849 16.303572 
C 206.165849 15.598481 205.885713 14.922175 205.387139 14.4236 
C 204.888565 13.925026 204.212258 13.644891 203.507168 13.644891 
C 202.802077 13.644891 202.125771 13.925026 201.627197 14.4236 
C 201.128622 14.922175 200.848487 15.598481 200.848487 16.303572 
C 200.848487 17.008662 201.128622 17.684969 201.627197 18.183543 
C 202.125771 18.682117 202.802077 18.962252 203.507168 18.962252 
z
" style="fill:#56b4e9;fill-opacity:0.25098;stroke:#56b4e9;stroke-opacity:0.25098;stroke-width:0.886227;"/>
    <path clip-path="url(#p8addf81e55)" d="M 262.26629 33.034889 
C 262.971381 33.034889 263.647687 32.754754 264.146261 32.256179 
C 264.644836 31.757605 264.924971 31.081299 264.924971 30.376208 
C 264.924971 29.671118 264.644836 28.994811 264.146261 28.496237 
C 263.647687 27.997663 262.971381 27.717527 262.26629 27.717527 
C 261.5612 27.717527 260.884893 27.997663 260.386319 28.496237 
C 259.887745 28.994811 259.607609 29.671118 259.607609 30.376208 
C 259.607609 31.081299 259.887745 31.757605 260.386319 32.256179 
C 260.884893 32.754754 261.5612 33.034889 262.26629 33.034889 
z
" style="fill:#56b4e9;fill-opacity:0.25098;stroke:#56b4e9;stroke-opacity:0.25098;stroke-width:0.886227;"/>
    <path clip-path="url(#p8addf81e55)" d="M 263.509391 30.722247 
C 264.214482 30.722247 264.890788 30.442112 265.389362 29.943538 
C 265.887937 29.444964 266.168072 28.768657 266.168072 28.063567 
C 266.168072 27.358476 265.887937 26.68217 265.389362 26.183595 
C 264.890788 25.685021 264.214482 25.404886 263.509391 25.404886 
C 262.804301 25.404886 262.127994 25.685021 261.62942 26.183595 
C 261.130846 26.68217 260.85071 27.358476 260.85071 28.063567 
C 260.85071 28.768657 261.130846 29.444964 261.62942 29.943538 
C 262.127994 30.442112 262.804301 30.722247 263.509391 30.722247 
z
" style="fill:#56b4e9;fill-opacity:0.25098;stroke:#56b4e9;stroke-opacity:0.25098;stroke-width:0.886227;"/>
    <path clip-path="url(#p8addf81e55)" d="M 205.467019 16.938397 
C 206.172109 16.938397 206.848416 16.658261 207.34699 16.159687 
C 207.845564 15.661113 208.125699 14.984806 208.125699 14.279716 
C 208.125699 13.574626 207.845564 12.898319 207.34699 12.399745 
C 206.848416 11.901171 206.172109 11.621035 205.467019 11.621035 
C 204.761928 11.621035 204.085622 11.901171 203.587047 12.399745 
C 203.088473 12.898319 202.808338 13.574626 202.808338 14.279716 
C 202.808338 14.984806 203.088473 15.661113 203.587047 16.159687 
C 204.085622 16.658261 204.761928 16.938397 205.467019 16.938397 
z
" style="fill:#56b4e9;fill-opacity:0.25098;stroke:#56b4e9;stroke-opacity:0.25098;stroke-width:0.886227;"/>
    <path clip-path="url(#p8addf81e55)" d="M 235.143474 43.883027 
C 235.848565 43.883027 236.524871 43.602892 237.023445 43.104318 
C 237.52202 42.605744 237.802155 41.929437 237.802155 41.224347 
C 237.802155 40.519256 237.52202 39.84295 237.023445 39.344376 
C 236.524871 38.845801 235.848565 38.565666 235.143474 38.565666 
C 234.438384 38.565666 233.762077 38.845801 233.263503 39.344376 
C 232.764929 39.84295 232.484793 40.519256 232.484793 41.224347 
C 232.484793 41.929437 232.764929 42.605744 233.263503 43.104318 
C 233.762077 43.602892 234.438384 43.883027 235.143474 43.883027 
z
" style="fill:#56b4e9;fill-opacity:0.25098;stroke:#56b4e9;stroke-opacity:0.25098;stroke-width:0.886227;"/>
    <path clip-path="url(#p8addf81e55)" d="M 237.142627 71.183363 
C 237.847717 71.183363 238.524024 70.903228 239.022598 70.404653 
C 239.521172 69.906079 239.801307 69.229773 239.801307 68.524682 
C 239.801307 67.819592 239.521172 67.143285 239.022598 66.644711 
C 238.524024 66.146137 237.847717 65.866001 237.142627 65.866001 
C 236.437536 65.866001 235.76123 66.146137 235.262655 66.644711 
C 234.764081 67.143285 234.483946 67.819592 234.483946 68.524682 
C 234.483946 69.229773 234.764081 69.906079 235.262655 70.404653 
C 235.76123 70.903228 236.437536 71.183363 237.142627 71.183363 
z
" style="fill:#56b4e9;fill-opacity:0.25098;stroke:#56b4e9;stroke-opacity:0.25098;stroke-width:0.886227;"/>
    <path clip-path="url(#p8addf81e55)" d="M 234.330205 16.082524 
C 235.035296 16.082524 235.711602 15.802389 236.210176 15.303815 
C 236.708751 14.80524 236.988886 14.128934 236.988886 13.423843 
C 236.988886 12.718753 236.708751 12.042446 236.210176 11.543872 
C 235.711602 11.045298 235.035296 10.765163 234.330205 10.765163 
C 233.625115 10.765163 232.948808 11.045298 232.450234 11.543872 
C 231.95166 12.042446 231.671524 12.718753 231.671524 13.423843 
C 231.671524 14.128934 231.95166 14.80524 232.450234 15.303815 
C 232.948808 15.802389 233.625115 16.082524 234.330205 16.082524 
z
" style="fill:#56b4e9;fill-opacity:0.25098;stroke:#56b4e9;stroke-opacity:0.25098;stroke-width:0.886227;"/>
    <path clip-path="url(#p8addf81e55)" d="M 205.094737 99.205893 
C 205.799827 99.205893 206.476134 98.925757 206.974708 98.427183 
C 207.473282 97.928609 207.753417 97.252302 207.753417 96.547212 
C 207.753417 95.842121 207.473282 95.165815 206.974708 94.667241 
C 206.476134 94.168666 205.799827 93.888531 205.094737 93.888531 
C 204.389646 93.888531 203.71334 94.168666 203.214765 94.667241 
C 202.716191 95.165815 202.436056 95.842121 202.436056 96.547212 
C 202.436056 97.252302 202.716191 97.928609 203.214765 98.427183 
C 203.71334 98.925757 204.389646 99.205893 205.094737 99.205893 
z
" style="fill:#56b4e9;fill-opacity:0.25098;stroke:#56b4e9;stroke-opacity:0.25098;stroke-width:0.886227;"/>
    <path clip-path="url(#p8addf81e55)" d="M 208.475172 17.914583 
C 209.180262 17.914583 209.856569 17.634447 210.355143 17.135873 
C 210.853717 16.637299 211.133852 15.960992 211.133852 15.255902 
C 211.133852 14.550811 210.853717 13.874505 210.355143 13.375931 
C 209.856569 12.877356 209.180262 12.597221 208.475172 12.597221 
C 207.770081 12.597221 207.093775 12.877356 206.5952 13.375931 
C 206.096626 13.874505 205.816491 14.550811 205.816491 15.255902 
C 205.816491 15.960992 206.096626 16.637299 206.5952 17.135873 
C 207.093775 17.634447 207.770081 17.914583 208.475172 17.914583 
z
" style="fill:#56b4e9;fill-opacity:0.25098;stroke:#56b4e9;stroke-opacity:0.25098;stroke-width:0.886227;"/>
    <path clip-path="url(#p8addf81e55)" d="M 183.883335 16.42966 
C 184.588425 16.42966 185.264732 16.149524 185.763306 15.65095 
C 186.26188 15.152376 186.542015 14.476069 186.542015 13.770979 
C 186.542015 13.065888 186.26188 12.389582 185.763306 11.891008 
C 185.264732 11.392433 184.588425 11.112298 183.883335 11.112298 
C 183.178244 11.112298 182.501938 11.392433 182.003363 11.891008 
C 181.504789 12.389582 181.224654 13.065888 181.224654 13.770979 
C 181.224654 14.476069 181.504789 15.152376 182.003363 15.65095 
C 182.501938 16.149524 183.178244 16.42966 183.883335 16.42966 
z
" style="fill:#56b4e9;fill-opacity:0.25098;stroke:#56b4e9;stroke-opacity:0.25098;stroke-width:0.886227;"/>
    <path clip-path="url(#p8addf81e55)" d="M 203.378884 113.10172 
C 204.083974 113.10172 204.760281 112.821585 205.258855 112.32301 
C 205.757429 111.824436 206.037565 111.14813 206.037565 110.443039 
C 206.037565 109.737949 205.757429 109.061642 205.258855 108.563068 
C 204.760281 108.064494 204.083974 107.784358 203.378884 107.784358 
C 202.673794 107.784358 201.997487 108.064494 201.498913 108.563068 
C 201.000339 109.061642 200.720203 109.737949 200.720203 110.443039 
C 200.720203 111.14813 201.000339 111.824436 201.498913 112.32301 
C 201.997487 112.821585 202.673794 113.10172 203.378884 113.10172 
z
" style="fill:#e69f00;fill-opacity:0.25098;stroke:#e69f00;stroke-opacity:0.25098;stroke-width:0.886227;"/>
    <path clip-path="url(#p8addf81e55)" d="M 229.485713 112.337892 
C 230.190803 112.337892 230.86711 112.057756 231.365684 111.559182 
C 231.864258 111.060608 232.144394 110.384301 232.144394 109.679211 
C 232.144394 108.974121 231.864258 108.297814 231.365684 107.79924 
C 230.86711 107.300666 230.190803 107.02053 229.485713 107.02053 
C 228.780623 107.02053 228.104316 107.300666 227.605742 107.79924 
C 227.107167 108.297814 226.827032 108.974121 226.827032 109.679211 
C 226.827032 110.384301 227.107167 111.060608 227.605742 111.559182 
C 228.104316 112.057756 228.780623 112.337892 229.485713 112.337892 
z
" style="fill:#e69f00;fill-opacity:0.25098;stroke:#e69f00;stroke-opacity:0.25098;stroke-width:0.886227;"/>
    <path clip-path="url(#p8addf81e55)" d="M 261.212076 72.463994 
C 261.917166 72.463994 262.593473 72.183858 263.092047 71.685284 
C 263.590621 71.18671 263.870757 70.510403 263.870757 69.805313 
C 263.870757 69.100222 263.590621 68.423916 263.092047 67.925342 
C 262.593473 67.426767 261.917166 67.146632 261.212076 67.146632 
C 260.506986 67.146632 259.830679 67.426767 259.332105 67.925342 
C 258.833531 68.423916 258.553395 69.100222 258.553395 69.805313 
C 258.553395 70.510403 258.833531 71.18671 259.332105 71.685284 
C 259.830679 72.183858 260.506986 72.463994 261.212076 72.463994 
z
" style="fill:#e69f00;fill-opacity:0.25098;stroke:#e69f00;stroke-opacity:0.25098;stroke-width:0.886227;"/>
    <path clip-path="url(#p8addf81e55)" d="M 208.909255 111.675512 
C 209.614345 111.675512 210.290652 111.395376 210.789226 110.896802 
C 211.2878 110.398228 211.567936 109.721921 211.567936 109.016831 
C 211.567936 108.311741 211.2878 107.635434 210.789226 107.13686 
C 210.290652 106.638286 209.614345 106.35815 208.909255 106.35815 
C 208.204164 106.35815 207.527858 106.638286 207.029284 107.13686 
C 206.530709 107.635434 206.250574 108.311741 206.250574 109.016831 
C 206.250574 109.721921 206.530709 110.398228 207.029284 110.896802 
C 207.527858 111.395376 208.204164 111.675512 208.909255 111.675512 
z
" style="fill:#e69f00;fill-opacity:0.25098;stroke:#e69f00;stroke-opacity:0.25098;stroke-width:0.886227;"/>
    <path clip-path="url(#p8addf81e55)" d="M 263.785317 87.034796 
C 264.490408 87.034796 265.166714 86.754661 265.665289 86.256086 
C 266.163863 85.757512 266.443998 85.081206 266.443998 84.376115 
C 266.443998 83.671025 266.163863 82.994718 265.665289 82.496144 
C 265.166714 81.99757 264.490408 81.717434 263.785317 81.717434 
C 263.080227 81.717434 262.40392 81.99757 261.905346 82.496144 
C 261.406772 82.994718 261.126637 83.671025 261.126637 84.376115 
C 261.126637 85.081206 261.406772 85.757512 261.905346 86.256086 
C 262.40392 86.754661 263.080227 87.034796 263.785317 87.034796 
z
" style="fill:#e69f00;fill-opacity:0.25098;stroke:#e69f00;stroke-opacity:0.25098;stroke-width:0.886227;"/>
    <path clip-path="url(#p8addf81e55)" d="M 204.607403 111.979883 
C 205.312493 111.979883 205.9888 111.699747 206.487374 111.201173 
C 206.985948 110.702599 207.266083 110.026292 207.266083 109.321202 
C 207.266083 108.616112 206.985948 107.939805 206.487374 107.441231 
C 205.9888 106.942657 205.312493 106.662521 204.607403 106.662521 
C 203.902312 106.662521 203.226006 106.942657 202.727431 107.441231 
C 202.228857 107.939805 201.948722 108.616112 201.948722 109.321202 
C 201.948722 110.026292 202.228857 110.702599 202.727431 111.201173 
C 203.226006 111.699747 203.902312 111.979883 204.607403 111.979883 
z
" style="fill:#e69f00;fill-opacity:0.25098;stroke:#e69f00;stroke-opacity:0.25098;stroke-width:0.886227;"/>
    <path clip-path="url(#p8addf81e55)" d="M 206.208481 113.95095 
C 206.913571 113.95095 207.589878 113.670815 208.088452 113.17224 
C 208.587026 112.673666 208.867162 111.99736 208.867162 111.292269 
C 208.867162 110.587179 208.587026 109.910872 208.088452 109.412298 
C 207.589878 108.913724 206.913571 108.633588 206.208481 108.633588 
C 205.50339 108.633588 204.827084 108.913724 204.32851 109.412298 
C 203.829935 109.910872 203.5498 110.587179 203.5498 111.292269 
C 203.5498 111.99736 203.829935 112.673666 204.32851 113.17224 
C 204.827084 113.670815 205.50339 113.95095 206.208481 113.95095 
z
" style="fill:#e69f00;fill-opacity:0.25098;stroke:#e69f00;stroke-opacity:0.25098;stroke-width:0.886227;"/>
    <path clip-path="url(#p8addf81e55)" d="M 209.318044 112.881099 
C 210.023134 112.881099 210.699441 112.600964 211.198015 112.102389 
C 211.696589 111.603815 211.976724 110.927509 211.976724 110.222418 
C 211.976724 109.517328 211.696589 108.841021 211.198015 108.342447 
C 210.699441 107.843873 210.023134 107.563737 209.318044 107.563737 
C 208.612953 107.563737 207.936647 107.843873 207.438072 108.342447 
C 206.939498 108.841021 206.659363 109.517328 206.659363 110.222418 
C 206.659363 110.927509 206.939498 111.603815 207.438072 112.102389 
C 207.936647 112.600964 208.612953 112.881099 209.318044 112.881099 
z
" style="fill:#e69f00;fill-opacity:0.25098;stroke:#e69f00;stroke-opacity:0.25098;stroke-width:0.886227;"/>
    <path clip-path="url(#p8addf81e55)" d="M 206.315429 18.23496 
C 207.02052 18.23496 207.696827 17.954824 208.195401 17.45625 
C 208.693975 16.957676 208.97411 16.281369 208.97411 15.576279 
C 208.97411 14.871189 208.693975 14.194882 208.195401 13.696308 
C 207.696827 13.197734 207.02052 12.917598 206.315429 12.917598 
C 205.610339 12.917598 204.934032 13.197734 204.435458 13.696308 
C 203.936884 14.194882 203.656749 14.871189 203.656749 15.576279 
C 203.656749 16.281369 203.936884 16.957676 204.435458 17.45625 
C 204.934032 17.954824 205.610339 18.23496 206.315429 18.23496 
z
" style="fill:#e69f00;fill-opacity:0.25098;stroke:#e69f00;stroke-opacity:0.25098;stroke-width:0.886227;"/>
    <path clip-path="url(#p8addf81e55)" d="M 203.81676 114.075901 
C 204.521851 114.075901 205.198157 113.795766 205.696732 113.297192 
C 206.195306 112.798617 206.475441 112.122311 206.475441 111.41722 
C 206.475441 110.71213 206.195306 110.035823 205.696732 109.537249 
C 205.198157 109.038675 204.521851 108.75854 203.81676 108.75854 
C 203.11167 108.75854 202.435363 109.038675 201.936789 109.537249 
C 201.438215 110.035823 201.15808 110.71213 201.15808 111.41722 
C 201.15808 112.122311 201.438215 112.798617 201.936789 113.297192 
C 202.435363 113.795766 203.11167 114.075901 203.81676 114.075901 
z
" style="fill:#e69f00;fill-opacity:0.25098;stroke:#e69f00;stroke-opacity:0.25098;stroke-width:0.886227;"/>
    <path clip-path="url(#p8addf81e55)" d="M 206.070725 114.001687 
C 206.775815 114.001687 207.452122 113.721551 207.950696 113.222977 
C 208.44927 112.724403 208.729406 112.048096 208.729406 111.343006 
C 208.729406 110.637916 208.44927 109.961609 207.950696 109.463035 
C 207.452122 108.964461 206.775815 108.684325 206.070725 108.684325 
C 205.365635 108.684325 204.689328 108.964461 204.190754 109.463035 
C 203.69218 109.961609 203.412044 110.637916 203.412044 111.343006 
C 203.412044 112.048096 203.69218 112.724403 204.190754 113.222977 
C 204.689328 113.721551 205.365635 114.001687 206.070725 114.001687 
z
" style="fill:#e69f00;fill-opacity:0.25098;stroke:#e69f00;stroke-opacity:0.25098;stroke-width:0.886227;"/>
    <path clip-path="url(#p8addf81e55)" d="M 204.35135 114.530858 
C 205.05644 114.530858 205.732747 114.250723 206.231321 113.752148 
C 206.729895 113.253574 207.010031 112.577268 207.010031 111.872177 
C 207.010031 111.167087 206.729895 110.49078 206.231321 109.992206 
C 205.732747 109.493632 205.05644 109.213496 204.35135 109.213496 
C 203.64626 109.213496 202.969953 109.493632 202.471379 109.992206 
C 201.972805 110.49078 201.692669 111.167087 201.692669 111.872177 
C 201.692669 112.577268 201.972805 113.253574 202.471379 113.752148 
C 202.969953 114.250723 203.64626 114.530858 204.35135 114.530858 
z
" style="fill:#e69f00;fill-opacity:0.25098;stroke:#e69f00;stroke-opacity:0.25098;stroke-width:0.886227;"/>
    <path clip-path="url(#p8addf81e55)" d="M 234.938133 59.207696 
C 235.643223 59.207696 236.31953 58.927561 236.818104 58.428987 
C 237.316679 57.930413 237.596814 57.254106 237.596814 56.549016 
C 237.596814 55.843925 237.316679 55.167619 236.818104 54.669044 
C 236.31953 54.17047 235.643223 53.890335 234.938133 53.890335 
C 234.233043 53.890335 233.556736 54.17047 233.058162 54.669044 
C 232.559588 55.167619 232.279452 55.843925 232.279452 56.549016 
C 232.279452 57.254106 232.559588 57.930413 233.058162 58.428987 
C 233.556736 58.927561 234.233043 59.207696 234.938133 59.207696 
z
" style="fill:#e69f00;fill-opacity:0.25098;stroke:#e69f00;stroke-opacity:0.25098;stroke-width:0.886227;"/>
    <path clip-path="url(#p8addf81e55)" d="M 230.919938 58.281866 
C 231.625028 58.281866 232.301335 58.001731 232.799909 57.503157 
C 233.298483 57.004582 233.578619 56.328276 233.578619 55.623185 
C 233.578619 54.918095 233.298483 54.241788 232.799909 53.743214 
C 232.301335 53.24464 231.625028 52.964505 230.919938 52.964505 
C 230.214848 52.964505 229.538541 53.24464 229.039967 53.743214 
C 228.541392 54.241788 228.261257 54.918095 228.261257 55.623185 
C 228.261257 56.328276 228.541392 57.004582 229.039967 57.503157 
C 229.538541 58.001731 230.214848 58.281866 230.919938 58.281866 
z
" style="fill:#e69f00;fill-opacity:0.25098;stroke:#e69f00;stroke-opacity:0.25098;stroke-width:0.886227;"/>
    <path clip-path="url(#p8addf81e55)" d="M 260.932781 18.8384 
C 261.637872 18.8384 262.314178 18.558264 262.812752 18.05969 
C 263.311327 17.561116 263.591462 16.884809 263.591462 16.179719 
C 263.591462 15.474628 263.311327 14.798322 262.812752 14.299748 
C 262.314178 13.801173 261.637872 13.521038 260.932781 13.521038 
C 260.227691 13.521038 259.551384 13.801173 259.05281 14.299748 
C 258.554236 14.798322 258.2741 15.474628 258.2741 16.179719 
C 258.2741 16.884809 258.554236 17.561116 259.05281 18.05969 
C 259.551384 18.558264 260.227691 18.8384 260.932781 18.8384 
z
" style="fill:#e69f00;fill-opacity:0.25098;stroke:#e69f00;stroke-opacity:0.25098;stroke-width:0.886227;"/>
    <path clip-path="url(#p8addf81e55)" d="M 256.212104 59.460203 
C 256.917194 59.460203 257.593501 59.180067 258.092075 58.681493 
C 258.590649 58.182919 258.870785 57.506612 258.870785 56.801522 
C 258.870785 56.096432 258.590649 55.420125 258.092075 54.921551 
C 257.593501 54.422977 256.917194 54.142841 256.212104 54.142841 
C 255.507014 54.142841 254.830707 54.422977 254.332133 54.921551 
C 253.833559 55.420125 253.553423 56.096432 253.553423 56.801522 
C 253.553423 57.506612 253.833559 58.182919 254.332133 58.681493 
C 254.830707 59.180067 255.507014 59.460203 256.212104 59.460203 
z
" style="fill:#e69f00;fill-opacity:0.25098;stroke:#e69f00;stroke-opacity:0.25098;stroke-width:0.886227;"/>
    <path clip-path="url(#p8addf81e55)" d="M 258.600414 58.602241 
C 259.305504 58.602241 259.981811 58.322106 260.480385 57.823532 
C 260.978959 57.324958 261.259095 56.648651 261.259095 55.943561 
C 261.259095 55.23847 260.978959 54.562164 260.480385 54.063589 
C 259.981811 53.565015 259.305504 53.28488 258.600414 53.28488 
C 257.895324 53.28488 257.219017 53.565015 256.720443 54.063589 
C 256.221869 54.562164 255.941733 55.23847 255.941733 55.943561 
C 255.941733 56.648651 256.221869 57.324958 256.720443 57.823532 
C 257.219017 58.322106 257.895324 58.602241 258.600414 58.602241 
z
" style="fill:#e69f00;fill-opacity:0.25098;stroke:#e69f00;stroke-opacity:0.25098;stroke-width:0.886227;"/>
    <path clip-path="url(#p8addf81e55)" d="M 262.746751 58.943957 
C 263.451841 58.943957 264.128148 58.663822 264.626722 58.165248 
C 265.125296 57.666674 265.405432 56.990367 265.405432 56.285277 
C 265.405432 55.580186 265.125296 54.90388 264.626722 54.405305 
C 264.128148 53.906731 263.451841 53.626596 262.746751 53.626596 
C 262.041661 53.626596 261.365354 53.906731 260.86678 54.405305 
C 260.368206 54.90388 260.08807 55.580186 260.08807 56.285277 
C 260.08807 56.990367 260.368206 57.666674 260.86678 58.165248 
C 261.365354 58.663822 262.041661 58.943957 262.746751 58.943957 
z
" style="fill:#e69f00;fill-opacity:0.25098;stroke:#e69f00;stroke-opacity:0.25098;stroke-width:0.886227;"/>
    <path clip-path="url(#p8addf81e55)" d="M 258.571049 60.010243 
C 259.276139 60.010243 259.952446 59.730108 260.45102 59.231534 
C 260.949594 58.732959 261.22973 58.056653 261.22973 57.351562 
C 261.22973 56.646472 260.949594 55.970165 260.45102 55.471591 
C 259.952446 54.973017 259.276139 54.692882 258.571049 54.692882 
C 257.865959 54.692882 257.189652 54.973017 256.691078 55.471591 
C 256.192504 55.970165 255.912368 56.646472 255.912368 57.351562 
C 255.912368 58.056653 256.192504 58.732959 256.691078 59.231534 
C 257.189652 59.730108 257.865959 60.010243 258.571049 60.010243 
z
" style="fill:#e69f00;fill-opacity:0.25098;stroke:#e69f00;stroke-opacity:0.25098;stroke-width:0.886227;"/>
    <path clip-path="url(#p8addf81e55)" d="M 202.839719 46.55324 
C 203.544809 46.55324 204.221116 46.273104 204.71969 45.77453 
C 205.218264 45.275956 205.4984 44.599649 205.4984 43.894559 
C 205.4984 43.189468 205.218264 42.513162 204.71969 42.014588 
C 204.221116 41.516013 203.544809 41.235878 202.839719 41.235878 
C 202.134629 41.235878 201.458322 41.516013 200.959748 42.014588 
C 200.461174 42.513162 200.181038 43.189468 200.181038 43.894559 
C 200.181038 44.599649 200.461174 45.275956 200.959748 45.77453 
C 201.458322 46.273104 202.134629 46.55324 202.839719 46.55324 
z
" style="fill:#e69f00;fill-opacity:0.25098;stroke:#e69f00;stroke-opacity:0.25098;stroke-width:0.886227;"/>
    <path clip-path="url(#p8addf81e55)" d="M 259.569639 16.430295 
C 260.27473 16.430295 260.951036 16.15016 261.44961 15.651586 
C 261.948185 15.153012 262.22832 14.476705 262.22832 13.771615 
C 262.22832 13.066524 261.948185 12.390218 261.44961 11.891643 
C 260.951036 11.393069 260.27473 11.112934 259.569639 11.112934 
C 258.864549 11.112934 258.188242 11.393069 257.689668 11.891643 
C 257.191094 12.390218 256.910958 13.066524 256.910958 13.771615 
C 256.910958 14.476705 257.191094 15.153012 257.689668 15.651586 
C 258.188242 16.15016 258.864549 16.430295 259.569639 16.430295 
z
" style="fill:#e69f00;fill-opacity:0.25098;stroke:#e69f00;stroke-opacity:0.25098;stroke-width:0.886227;"/>
    <path clip-path="url(#p8addf81e55)" d="M 207.389557 99.771345 
C 208.094647 99.771345 208.770954 99.491209 209.269528 98.992635 
C 209.768102 98.494061 210.048237 97.817754 210.048237 97.112664 
C 210.048237 96.407574 209.768102 95.731267 209.269528 95.232693 
C 208.770954 94.734119 208.094647 94.453983 207.389557 94.453983 
C 206.684466 94.453983 206.00816 94.734119 205.509585 95.232693 
C 205.011011 95.731267 204.730876 96.407574 204.730876 97.112664 
C 204.730876 97.817754 205.011011 98.494061 205.509585 98.992635 
C 206.00816 99.491209 206.684466 99.771345 207.389557 99.771345 
z
" style="fill:#e69f00;fill-opacity:0.25098;stroke:#e69f00;stroke-opacity:0.25098;stroke-width:0.886227;"/>
    <path clip-path="url(#p8addf81e55)" d="M 206.71865 99.136617 
C 207.423741 99.136617 208.100047 98.856481 208.598622 98.357907 
C 209.097196 97.859333 209.377331 97.183026 209.377331 96.477936 
C 209.377331 95.772845 209.097196 95.096539 208.598622 94.597965 
C 208.100047 94.09939 207.423741 93.819255 206.71865 93.819255 
C 206.01356 93.819255 205.337253 94.09939 204.838679 94.597965 
C 204.340105 95.096539 204.05997 95.772845 204.05997 96.477936 
C 204.05997 97.183026 204.340105 97.859333 204.838679 98.357907 
C 205.337253 98.856481 206.01356 99.136617 206.71865 99.136617 
z
" style="fill:#e69f00;fill-opacity:0.25098;stroke:#e69f00;stroke-opacity:0.25098;stroke-width:0.886227;"/>
   </g>
   <g id="patch_3">
    <path d="M 164.152813 118.08 
L 164.152813 7.2 
" style="fill:none;stroke:#000000;stroke-linecap:square;stroke-linejoin:miter;"/>
   </g>
   <g id="patch_4">
    <path d="M 164.152813 118.08 
L 275.752813 118.08 
" style="fill:none;stroke:#000000;stroke-linecap:square;stroke-linejoin:miter;"/>
   </g>
  </g>
 </g>
 <defs>
  <clipPath id="p8addf81e55">
   <rect height="110.88" width="111.6" x="164.152813" y="7.2"/>
  </clipPath>
 </defs>
</svg>
