<?xml version="1.0" encoding="utf-8" standalone="no"?>
<!DOCTYPE svg PUBLIC "-//W3C//DTD SVG 1.1//EN"
  "http://www.w3.org/Graphics/SVG/1.1/DTD/svg11.dtd">
<!-- Created with matplotlib (https://matplotlib.org/) -->
<svg height="159.576625pt" version="1.1" viewBox="0 0 391.518188 159.576625" width="391.518188pt" xmlns="http://www.w3.org/2000/svg" xmlns:xlink="http://www.w3.org/1999/xlink">
 <defs>
  <style type="text/css">
*{stroke-linecap:butt;stroke-linejoin:round;}
  </style>
 </defs>
 <g id="figure_1">
  <g id="patch_1">
   <path d="M 0 159.576625 
L 391.518188 159.576625 
L 391.518188 0 
L 0 0 
z
" style="fill:#ffffff;stroke:#ffffff;stroke-linejoin:miter;"/>
  </g>
  <g id="axes_1">
   <g id="patch_2">
    <path d="M 164.152813 118.08 
L 275.752813 118.08 
L 275.752813 7.2 
L 164.152813 7.2 
z
" style="fill:#ffffff;"/>
   </g>
   <g id="matplotlib.axis_1">
    <g id="xtick_1">
     <g id="line2d_1">
      <path d="M 168.615652 118.08 
" style="fill:none;stroke:#333333;stroke-width:1.5;"/>
      <defs>
       <path d="M 0 0 
L 0 2.75 
" id="m4fb5fe0a85" style="stroke:#333333;"/>
      </defs>
      <g>
       <use style="fill:#333333;stroke:#333333;" x="168.615652" xlink:href="#m4fb5fe0a85" y="118.08"/>
      </g>
     </g>
     <g id="text_1">
      <!-- 2 -->
      <defs>
       <path d="M 19.1875 8.296875 
L 53.609375 8.296875 
L 53.609375 0 
L 7.328125 0 
L 7.328125 8.296875 
Q 12.9375 14.109375 22.625 23.890625 
Q 32.328125 33.6875 34.8125 36.53125 
Q 39.546875 41.84375 41.421875 45.53125 
Q 43.3125 49.21875 43.3125 52.78125 
Q 43.3125 58.59375 39.234375 62.25 
Q 35.15625 65.921875 28.609375 65.921875 
Q 23.96875 65.921875 18.8125 64.3125 
Q 13.671875 62.703125 7.8125 59.421875 
L 7.8125 69.390625 
Q 13.765625 71.78125 18.9375 73 
Q 24.125 74.21875 28.421875 74.21875 
Q 39.75 74.21875 46.484375 68.546875 
Q 53.21875 62.890625 53.21875 53.421875 
Q 53.21875 48.921875 51.53125 44.890625 
Q 49.859375 40.875 45.40625 35.40625 
Q 44.1875 33.984375 37.640625 27.21875 
Q 31.109375 20.453125 19.1875 8.296875 
z
" id="DejaVuSans-50"/>
      </defs>
      <g style="fill:#4d4d4d;" transform="translate(171.043902 128.629)rotate(-90)scale(0.088 -0.088)">
       <use xlink:href="#DejaVuSans-50"/>
      </g>
     </g>
    </g>
    <g id="xtick_2">
     <g id="line2d_2">
      <path d="M 190.215332 118.08 
" style="fill:none;stroke:#333333;stroke-width:1.5;"/>
      <g>
       <use style="fill:#333333;stroke:#333333;" x="190.215332" xlink:href="#m4fb5fe0a85" y="118.08"/>
      </g>
     </g>
     <g id="text_2">
      <!-- 2.5 -->
      <defs>
       <path d="M 10.6875 12.40625 
L 21 12.40625 
L 21 0 
L 10.6875 0 
z
" id="DejaVuSans-46"/>
       <path d="M 10.796875 72.90625 
L 49.515625 72.90625 
L 49.515625 64.59375 
L 19.828125 64.59375 
L 19.828125 46.734375 
Q 21.96875 47.46875 24.109375 47.828125 
Q 26.265625 48.1875 28.421875 48.1875 
Q 40.625 48.1875 47.75 41.5 
Q 54.890625 34.8125 54.890625 23.390625 
Q 54.890625 11.625 47.5625 5.09375 
Q 40.234375 -1.421875 26.90625 -1.421875 
Q 22.3125 -1.421875 17.546875 -0.640625 
Q 12.796875 0.140625 7.71875 1.703125 
L 7.71875 11.625 
Q 12.109375 9.234375 16.796875 8.0625 
Q 21.484375 6.890625 26.703125 6.890625 
Q 35.15625 6.890625 40.078125 11.328125 
Q 45.015625 15.765625 45.015625 23.390625 
Q 45.015625 31 40.078125 35.4375 
Q 35.15625 39.890625 26.703125 39.890625 
Q 22.75 39.890625 18.8125 39.015625 
Q 14.890625 38.140625 10.796875 36.28125 
z
" id="DejaVuSans-53"/>
      </defs>
      <g style="fill:#4d4d4d;" transform="translate(192.643582 137.02475)rotate(-90)scale(0.088 -0.088)">
       <use xlink:href="#DejaVuSans-50"/>
       <use x="63.623047" xlink:href="#DejaVuSans-46"/>
       <use x="95.410156" xlink:href="#DejaVuSans-53"/>
      </g>
     </g>
    </g>
    <g id="xtick_3">
     <g id="line2d_3">
      <path d="M 211.815011 118.08 
" style="fill:none;stroke:#333333;stroke-width:1.5;"/>
      <g>
       <use style="fill:#333333;stroke:#333333;" x="211.815011" xlink:href="#m4fb5fe0a85" y="118.08"/>
      </g>
     </g>
     <g id="text_3">
      <!-- 3 -->
      <defs>
       <path d="M 40.578125 39.3125 
Q 47.65625 37.796875 51.625 33 
Q 55.609375 28.21875 55.609375 21.1875 
Q 55.609375 10.40625 48.1875 4.484375 
Q 40.765625 -1.421875 27.09375 -1.421875 
Q 22.515625 -1.421875 17.65625 -0.515625 
Q 12.796875 0.390625 7.625 2.203125 
L 7.625 11.71875 
Q 11.71875 9.328125 16.59375 8.109375 
Q 21.484375 6.890625 26.8125 6.890625 
Q 36.078125 6.890625 40.9375 10.546875 
Q 45.796875 14.203125 45.796875 21.1875 
Q 45.796875 27.640625 41.28125 31.265625 
Q 36.765625 34.90625 28.71875 34.90625 
L 20.21875 34.90625 
L 20.21875 43.015625 
L 29.109375 43.015625 
Q 36.375 43.015625 40.234375 45.921875 
Q 44.09375 48.828125 44.09375 54.296875 
Q 44.09375 59.90625 40.109375 62.90625 
Q 36.140625 65.921875 28.71875 65.921875 
Q 24.65625 65.921875 20.015625 65.03125 
Q 15.375 64.15625 9.8125 62.3125 
L 9.8125 71.09375 
Q 15.4375 72.65625 20.34375 73.4375 
Q 25.25 74.21875 29.59375 74.21875 
Q 40.828125 74.21875 47.359375 69.109375 
Q 53.90625 64.015625 53.90625 55.328125 
Q 53.90625 49.265625 50.4375 45.09375 
Q 46.96875 40.921875 40.578125 39.3125 
z
" id="DejaVuSans-51"/>
      </defs>
      <g style="fill:#4d4d4d;" transform="translate(214.243261 128.629)rotate(-90)scale(0.088 -0.088)">
       <use xlink:href="#DejaVuSans-51"/>
      </g>
     </g>
    </g>
    <g id="xtick_4">
     <g id="line2d_4">
      <path d="M 233.41469 118.08 
" style="fill:none;stroke:#333333;stroke-width:1.5;"/>
      <g>
       <use style="fill:#333333;stroke:#333333;" x="233.41469" xlink:href="#m4fb5fe0a85" y="118.08"/>
      </g>
     </g>
     <g id="text_4">
      <!-- 3.5 -->
      <g style="fill:#4d4d4d;" transform="translate(235.84294 137.02475)rotate(-90)scale(0.088 -0.088)">
       <use xlink:href="#DejaVuSans-51"/>
       <use x="63.623047" xlink:href="#DejaVuSans-46"/>
       <use x="95.410156" xlink:href="#DejaVuSans-53"/>
      </g>
     </g>
    </g>
    <g id="xtick_5">
     <g id="line2d_5">
      <path d="M 255.014369 118.08 
" style="fill:none;stroke:#333333;stroke-width:1.5;"/>
      <g>
       <use style="fill:#333333;stroke:#333333;" x="255.014369" xlink:href="#m4fb5fe0a85" y="118.08"/>
      </g>
     </g>
     <g id="text_5">
      <!-- 4 -->
      <defs>
       <path d="M 37.796875 64.3125 
L 12.890625 25.390625 
L 37.796875 25.390625 
z
M 35.203125 72.90625 
L 47.609375 72.90625 
L 47.609375 25.390625 
L 58.015625 25.390625 
L 58.015625 17.1875 
L 47.609375 17.1875 
L 47.609375 0 
L 37.796875 0 
L 37.796875 17.1875 
L 4.890625 17.1875 
L 4.890625 26.703125 
z
" id="DejaVuSans-52"/>
      </defs>
      <g style="fill:#4d4d4d;" transform="translate(257.442619 128.629)rotate(-90)scale(0.088 -0.088)">
       <use xlink:href="#DejaVuSans-52"/>
      </g>
     </g>
    </g>
    <g id="xtick_6"/>
    <g id="xtick_7"/>
    <g id="xtick_8"/>
    <g id="xtick_9"/>
    <g id="xtick_10"/>
    <g id="text_6">
     <!-- log10_NT50 -->
     <defs>
      <path d="M 9.421875 75.984375 
L 18.40625 75.984375 
L 18.40625 0 
L 9.421875 0 
z
" id="DejaVuSans-108"/>
      <path d="M 30.609375 48.390625 
Q 23.390625 48.390625 19.1875 42.75 
Q 14.984375 37.109375 14.984375 27.296875 
Q 14.984375 17.484375 19.15625 11.84375 
Q 23.34375 6.203125 30.609375 6.203125 
Q 37.796875 6.203125 41.984375 11.859375 
Q 46.1875 17.53125 46.1875 27.296875 
Q 46.1875 37.015625 41.984375 42.703125 
Q 37.796875 48.390625 30.609375 48.390625 
z
M 30.609375 56 
Q 42.328125 56 49.015625 48.375 
Q 55.71875 40.765625 55.71875 27.296875 
Q 55.71875 13.875 49.015625 6.21875 
Q 42.328125 -1.421875 30.609375 -1.421875 
Q 18.84375 -1.421875 12.171875 6.21875 
Q 5.515625 13.875 5.515625 27.296875 
Q 5.515625 40.765625 12.171875 48.375 
Q 18.84375 56 30.609375 56 
z
" id="DejaVuSans-111"/>
      <path d="M 45.40625 27.984375 
Q 45.40625 37.75 41.375 43.109375 
Q 37.359375 48.484375 30.078125 48.484375 
Q 22.859375 48.484375 18.828125 43.109375 
Q 14.796875 37.75 14.796875 27.984375 
Q 14.796875 18.265625 18.828125 12.890625 
Q 22.859375 7.515625 30.078125 7.515625 
Q 37.359375 7.515625 41.375 12.890625 
Q 45.40625 18.265625 45.40625 27.984375 
z
M 54.390625 6.78125 
Q 54.390625 -7.171875 48.1875 -13.984375 
Q 42 -20.796875 29.203125 -20.796875 
Q 24.46875 -20.796875 20.265625 -20.09375 
Q 16.0625 -19.390625 12.109375 -17.921875 
L 12.109375 -9.1875 
Q 16.0625 -11.328125 19.921875 -12.34375 
Q 23.78125 -13.375 27.78125 -13.375 
Q 36.625 -13.375 41.015625 -8.765625 
Q 45.40625 -4.15625 45.40625 5.171875 
L 45.40625 9.625 
Q 42.625 4.78125 38.28125 2.390625 
Q 33.9375 0 27.875 0 
Q 17.828125 0 11.671875 7.65625 
Q 5.515625 15.328125 5.515625 27.984375 
Q 5.515625 40.671875 11.671875 48.328125 
Q 17.828125 56 27.875 56 
Q 33.9375 56 38.28125 53.609375 
Q 42.625 51.21875 45.40625 46.390625 
L 45.40625 54.6875 
L 54.390625 54.6875 
z
" id="DejaVuSans-103"/>
      <path d="M 12.40625 8.296875 
L 28.515625 8.296875 
L 28.515625 63.921875 
L 10.984375 60.40625 
L 10.984375 69.390625 
L 28.421875 72.90625 
L 38.28125 72.90625 
L 38.28125 8.296875 
L 54.390625 8.296875 
L 54.390625 0 
L 12.40625 0 
z
" id="DejaVuSans-49"/>
      <path d="M 31.78125 66.40625 
Q 24.171875 66.40625 20.328125 58.90625 
Q 16.5 51.421875 16.5 36.375 
Q 16.5 21.390625 20.328125 13.890625 
Q 24.171875 6.390625 31.78125 6.390625 
Q 39.453125 6.390625 43.28125 13.890625 
Q 47.125 21.390625 47.125 36.375 
Q 47.125 51.421875 43.28125 58.90625 
Q 39.453125 66.40625 31.78125 66.40625 
z
M 31.78125 74.21875 
Q 44.046875 74.21875 50.515625 64.515625 
Q 56.984375 54.828125 56.984375 36.375 
Q 56.984375 17.96875 50.515625 8.265625 
Q 44.046875 -1.421875 31.78125 -1.421875 
Q 19.53125 -1.421875 13.0625 8.265625 
Q 6.59375 17.96875 6.59375 36.375 
Q 6.59375 54.828125 13.0625 64.515625 
Q 19.53125 74.21875 31.78125 74.21875 
z
" id="DejaVuSans-48"/>
      <path d="M 50.984375 -16.609375 
L 50.984375 -23.578125 
L -0.984375 -23.578125 
L -0.984375 -16.609375 
z
" id="DejaVuSans-95"/>
      <path d="M 9.8125 72.90625 
L 23.09375 72.90625 
L 55.421875 11.921875 
L 55.421875 72.90625 
L 64.984375 72.90625 
L 64.984375 0 
L 51.703125 0 
L 19.390625 60.984375 
L 19.390625 0 
L 9.8125 0 
z
" id="DejaVuSans-78"/>
      <path d="M -0.296875 72.90625 
L 61.375 72.90625 
L 61.375 64.59375 
L 35.5 64.59375 
L 35.5 0 
L 25.59375 0 
L 25.59375 64.59375 
L -0.296875 64.59375 
z
" id="DejaVuSans-84"/>
     </defs>
     <g transform="translate(185.546406 149.783031)scale(0.11 -0.11)">
      <use xlink:href="#DejaVuSans-108"/>
      <use x="27.783203" xlink:href="#DejaVuSans-111"/>
      <use x="88.964844" xlink:href="#DejaVuSans-103"/>
      <use x="152.441406" xlink:href="#DejaVuSans-49"/>
      <use x="216.064453" xlink:href="#DejaVuSans-48"/>
      <use x="279.6875" xlink:href="#DejaVuSans-95"/>
      <use x="329.6875" xlink:href="#DejaVuSans-78"/>
      <use x="404.492188" xlink:href="#DejaVuSans-84"/>
      <use x="465.576172" xlink:href="#DejaVuSans-53"/>
      <use x="529.199219" xlink:href="#DejaVuSans-48"/>
     </g>
    </g>
   </g>
   <g id="matplotlib.axis_2">
    <g id="ytick_1">
     <g id="line2d_6">
      <path d="M 164.152813 109.966829 
" style="fill:none;stroke:#333333;stroke-width:1.5;"/>
      <defs>
       <path d="M 0 0 
L -2.75 0 
" id="m0d971089e0" style="stroke:#333333;"/>
      </defs>
      <g>
       <use style="fill:#333333;stroke:#333333;" x="164.152813" xlink:href="#m0d971089e0" y="109.966829"/>
      </g>
     </g>
     <g id="text_7">
      <!-- 456-484 -->
      <defs>
       <path d="M 33.015625 40.375 
Q 26.375 40.375 22.484375 35.828125 
Q 18.609375 31.296875 18.609375 23.390625 
Q 18.609375 15.53125 22.484375 10.953125 
Q 26.375 6.390625 33.015625 6.390625 
Q 39.65625 6.390625 43.53125 10.953125 
Q 47.40625 15.53125 47.40625 23.390625 
Q 47.40625 31.296875 43.53125 35.828125 
Q 39.65625 40.375 33.015625 40.375 
z
M 52.59375 71.296875 
L 52.59375 62.3125 
Q 48.875 64.0625 45.09375 64.984375 
Q 41.3125 65.921875 37.59375 65.921875 
Q 27.828125 65.921875 22.671875 59.328125 
Q 17.53125 52.734375 16.796875 39.40625 
Q 19.671875 43.65625 24.015625 45.921875 
Q 28.375 48.1875 33.59375 48.1875 
Q 44.578125 48.1875 50.953125 41.515625 
Q 57.328125 34.859375 57.328125 23.390625 
Q 57.328125 12.15625 50.6875 5.359375 
Q 44.046875 -1.421875 33.015625 -1.421875 
Q 20.359375 -1.421875 13.671875 8.265625 
Q 6.984375 17.96875 6.984375 36.375 
Q 6.984375 53.65625 15.1875 63.9375 
Q 23.390625 74.21875 37.203125 74.21875 
Q 40.921875 74.21875 44.703125 73.484375 
Q 48.484375 72.75 52.59375 71.296875 
z
" id="DejaVuSans-54"/>
       <path d="M 4.890625 31.390625 
L 31.203125 31.390625 
L 31.203125 23.390625 
L 4.890625 23.390625 
z
" id="DejaVuSans-45"/>
       <path d="M 31.78125 34.625 
Q 24.75 34.625 20.71875 30.859375 
Q 16.703125 27.09375 16.703125 20.515625 
Q 16.703125 13.921875 20.71875 10.15625 
Q 24.75 6.390625 31.78125 6.390625 
Q 38.8125 6.390625 42.859375 10.171875 
Q 46.921875 13.96875 46.921875 20.515625 
Q 46.921875 27.09375 42.890625 30.859375 
Q 38.875 34.625 31.78125 34.625 
z
M 21.921875 38.8125 
Q 15.578125 40.375 12.03125 44.71875 
Q 8.5 49.078125 8.5 55.328125 
Q 8.5 64.0625 14.71875 69.140625 
Q 20.953125 74.21875 31.78125 74.21875 
Q 42.671875 74.21875 48.875 69.140625 
Q 55.078125 64.0625 55.078125 55.328125 
Q 55.078125 49.078125 51.53125 44.71875 
Q 48 40.375 41.703125 38.8125 
Q 48.828125 37.15625 52.796875 32.3125 
Q 56.78125 27.484375 56.78125 20.515625 
Q 56.78125 9.90625 50.3125 4.234375 
Q 43.84375 -1.421875 31.78125 -1.421875 
Q 19.734375 -1.421875 13.25 4.234375 
Q 6.78125 9.90625 6.78125 20.515625 
Q 6.78125 27.484375 10.78125 32.3125 
Q 14.796875 37.15625 21.921875 38.8125 
z
M 18.3125 54.390625 
Q 18.3125 48.734375 21.84375 45.5625 
Q 25.390625 42.390625 31.78125 42.390625 
Q 38.140625 42.390625 41.71875 45.5625 
Q 45.3125 48.734375 45.3125 54.390625 
Q 45.3125 60.0625 41.71875 63.234375 
Q 38.140625 66.40625 31.78125 66.40625 
Q 25.390625 66.40625 21.84375 63.234375 
Q 18.3125 60.0625 18.3125 54.390625 
z
" id="DejaVuSans-56"/>
      </defs>
      <g style="fill:#4d4d4d;" transform="translate(122.433938 112.395079)scale(0.088 -0.088)">
       <use xlink:href="#DejaVuSans-52"/>
       <use x="63.623047" xlink:href="#DejaVuSans-53"/>
       <use x="127.246094" xlink:href="#DejaVuSans-54"/>
       <use x="190.869141" xlink:href="#DejaVuSans-45"/>
       <use x="226.953125" xlink:href="#DejaVuSans-52"/>
       <use x="290.576172" xlink:href="#DejaVuSans-56"/>
       <use x="354.199219" xlink:href="#DejaVuSans-52"/>
      </g>
     </g>
    </g>
    <g id="ytick_2">
     <g id="line2d_7">
      <path d="M 164.152813 96.444878 
" style="fill:none;stroke:#333333;stroke-width:1.5;"/>
      <g>
       <use style="fill:#333333;stroke:#333333;" x="164.152813" xlink:href="#m0d971089e0" y="96.444878"/>
      </g>
     </g>
     <g id="text_8">
      <!-- 456-484 low magnitude -->
      <defs>
       <path id="DejaVuSans-32"/>
       <path d="M 4.203125 54.6875 
L 13.1875 54.6875 
L 24.421875 12.015625 
L 35.59375 54.6875 
L 46.1875 54.6875 
L 57.421875 12.015625 
L 68.609375 54.6875 
L 77.59375 54.6875 
L 63.28125 0 
L 52.6875 0 
L 40.921875 44.828125 
L 29.109375 0 
L 18.5 0 
z
" id="DejaVuSans-119"/>
       <path d="M 52 44.1875 
Q 55.375 50.25 60.0625 53.125 
Q 64.75 56 71.09375 56 
Q 79.640625 56 84.28125 50.015625 
Q 88.921875 44.046875 88.921875 33.015625 
L 88.921875 0 
L 79.890625 0 
L 79.890625 32.71875 
Q 79.890625 40.578125 77.09375 44.375 
Q 74.3125 48.1875 68.609375 48.1875 
Q 61.625 48.1875 57.5625 43.546875 
Q 53.515625 38.921875 53.515625 30.90625 
L 53.515625 0 
L 44.484375 0 
L 44.484375 32.71875 
Q 44.484375 40.625 41.703125 44.40625 
Q 38.921875 48.1875 33.109375 48.1875 
Q 26.21875 48.1875 22.15625 43.53125 
Q 18.109375 38.875 18.109375 30.90625 
L 18.109375 0 
L 9.078125 0 
L 9.078125 54.6875 
L 18.109375 54.6875 
L 18.109375 46.1875 
Q 21.1875 51.21875 25.484375 53.609375 
Q 29.78125 56 35.6875 56 
Q 41.65625 56 45.828125 52.96875 
Q 50 49.953125 52 44.1875 
z
" id="DejaVuSans-109"/>
       <path d="M 34.28125 27.484375 
Q 23.390625 27.484375 19.1875 25 
Q 14.984375 22.515625 14.984375 16.5 
Q 14.984375 11.71875 18.140625 8.90625 
Q 21.296875 6.109375 26.703125 6.109375 
Q 34.1875 6.109375 38.703125 11.40625 
Q 43.21875 16.703125 43.21875 25.484375 
L 43.21875 27.484375 
z
M 52.203125 31.203125 
L 52.203125 0 
L 43.21875 0 
L 43.21875 8.296875 
Q 40.140625 3.328125 35.546875 0.953125 
Q 30.953125 -1.421875 24.3125 -1.421875 
Q 15.921875 -1.421875 10.953125 3.296875 
Q 6 8.015625 6 15.921875 
Q 6 25.140625 12.171875 29.828125 
Q 18.359375 34.515625 30.609375 34.515625 
L 43.21875 34.515625 
L 43.21875 35.40625 
Q 43.21875 41.609375 39.140625 45 
Q 35.0625 48.390625 27.6875 48.390625 
Q 23 48.390625 18.546875 47.265625 
Q 14.109375 46.140625 10.015625 43.890625 
L 10.015625 52.203125 
Q 14.9375 54.109375 19.578125 55.046875 
Q 24.21875 56 28.609375 56 
Q 40.484375 56 46.34375 49.84375 
Q 52.203125 43.703125 52.203125 31.203125 
z
" id="DejaVuSans-97"/>
       <path d="M 54.890625 33.015625 
L 54.890625 0 
L 45.90625 0 
L 45.90625 32.71875 
Q 45.90625 40.484375 42.875 44.328125 
Q 39.84375 48.1875 33.796875 48.1875 
Q 26.515625 48.1875 22.3125 43.546875 
Q 18.109375 38.921875 18.109375 30.90625 
L 18.109375 0 
L 9.078125 0 
L 9.078125 54.6875 
L 18.109375 54.6875 
L 18.109375 46.1875 
Q 21.34375 51.125 25.703125 53.5625 
Q 30.078125 56 35.796875 56 
Q 45.21875 56 50.046875 50.171875 
Q 54.890625 44.34375 54.890625 33.015625 
z
" id="DejaVuSans-110"/>
       <path d="M 9.421875 54.6875 
L 18.40625 54.6875 
L 18.40625 0 
L 9.421875 0 
z
M 9.421875 75.984375 
L 18.40625 75.984375 
L 18.40625 64.59375 
L 9.421875 64.59375 
z
" id="DejaVuSans-105"/>
       <path d="M 18.3125 70.21875 
L 18.3125 54.6875 
L 36.8125 54.6875 
L 36.8125 47.703125 
L 18.3125 47.703125 
L 18.3125 18.015625 
Q 18.3125 11.328125 20.140625 9.421875 
Q 21.96875 7.515625 27.59375 7.515625 
L 36.8125 7.515625 
L 36.8125 0 
L 27.59375 0 
Q 17.1875 0 13.234375 3.875 
Q 9.28125 7.765625 9.28125 18.015625 
L 9.28125 47.703125 
L 2.6875 47.703125 
L 2.6875 54.6875 
L 9.28125 54.6875 
L 9.28125 70.21875 
z
" id="DejaVuSans-116"/>
       <path d="M 8.5 21.578125 
L 8.5 54.6875 
L 17.484375 54.6875 
L 17.484375 21.921875 
Q 17.484375 14.15625 20.5 10.265625 
Q 23.53125 6.390625 29.59375 6.390625 
Q 36.859375 6.390625 41.078125 11.03125 
Q 45.3125 15.671875 45.3125 23.6875 
L 45.3125 54.6875 
L 54.296875 54.6875 
L 54.296875 0 
L 45.3125 0 
L 45.3125 8.40625 
Q 42.046875 3.421875 37.71875 1 
Q 33.40625 -1.421875 27.6875 -1.421875 
Q 18.265625 -1.421875 13.375 4.4375 
Q 8.5 10.296875 8.5 21.578125 
z
M 31.109375 56 
z
" id="DejaVuSans-117"/>
       <path d="M 45.40625 46.390625 
L 45.40625 75.984375 
L 54.390625 75.984375 
L 54.390625 0 
L 45.40625 0 
L 45.40625 8.203125 
Q 42.578125 3.328125 38.25 0.953125 
Q 33.9375 -1.421875 27.875 -1.421875 
Q 17.96875 -1.421875 11.734375 6.484375 
Q 5.515625 14.40625 5.515625 27.296875 
Q 5.515625 40.1875 11.734375 48.09375 
Q 17.96875 56 27.875 56 
Q 33.9375 56 38.25 53.625 
Q 42.578125 51.265625 45.40625 46.390625 
z
M 14.796875 27.296875 
Q 14.796875 17.390625 18.875 11.75 
Q 22.953125 6.109375 30.078125 6.109375 
Q 37.203125 6.109375 41.296875 11.75 
Q 45.40625 17.390625 45.40625 27.296875 
Q 45.40625 37.203125 41.296875 42.84375 
Q 37.203125 48.484375 30.078125 48.484375 
Q 22.953125 48.484375 18.875 42.84375 
Q 14.796875 37.203125 14.796875 27.296875 
z
" id="DejaVuSans-100"/>
       <path d="M 56.203125 29.59375 
L 56.203125 25.203125 
L 14.890625 25.203125 
Q 15.484375 15.921875 20.484375 11.0625 
Q 25.484375 6.203125 34.421875 6.203125 
Q 39.59375 6.203125 44.453125 7.46875 
Q 49.3125 8.734375 54.109375 11.28125 
L 54.109375 2.78125 
Q 49.265625 0.734375 44.1875 -0.34375 
Q 39.109375 -1.421875 33.890625 -1.421875 
Q 20.796875 -1.421875 13.15625 6.1875 
Q 5.515625 13.8125 5.515625 26.8125 
Q 5.515625 40.234375 12.765625 48.109375 
Q 20.015625 56 32.328125 56 
Q 43.359375 56 49.78125 48.890625 
Q 56.203125 41.796875 56.203125 29.59375 
z
M 47.21875 32.234375 
Q 47.125 39.59375 43.09375 43.984375 
Q 39.0625 48.390625 32.421875 48.390625 
Q 24.90625 48.390625 20.390625 44.140625 
Q 15.875 39.890625 15.1875 32.171875 
z
" id="DejaVuSans-101"/>
      </defs>
      <g style="fill:#4d4d4d;" transform="translate(54.213313 98.873128)scale(0.088 -0.088)">
       <use xlink:href="#DejaVuSans-52"/>
       <use x="63.623047" xlink:href="#DejaVuSans-53"/>
       <use x="127.246094" xlink:href="#DejaVuSans-54"/>
       <use x="190.869141" xlink:href="#DejaVuSans-45"/>
       <use x="226.953125" xlink:href="#DejaVuSans-52"/>
       <use x="290.576172" xlink:href="#DejaVuSans-56"/>
       <use x="354.199219" xlink:href="#DejaVuSans-52"/>
       <use x="417.822266" xlink:href="#DejaVuSans-32"/>
       <use x="449.609375" xlink:href="#DejaVuSans-108"/>
       <use x="477.392578" xlink:href="#DejaVuSans-111"/>
       <use x="538.574219" xlink:href="#DejaVuSans-119"/>
       <use x="620.361328" xlink:href="#DejaVuSans-32"/>
       <use x="652.148438" xlink:href="#DejaVuSans-109"/>
       <use x="749.560547" xlink:href="#DejaVuSans-97"/>
       <use x="810.839844" xlink:href="#DejaVuSans-103"/>
       <use x="874.316406" xlink:href="#DejaVuSans-110"/>
       <use x="937.695312" xlink:href="#DejaVuSans-105"/>
       <use x="965.478516" xlink:href="#DejaVuSans-116"/>
       <use x="1004.6875" xlink:href="#DejaVuSans-117"/>
       <use x="1068.066406" xlink:href="#DejaVuSans-100"/>
       <use x="1131.542969" xlink:href="#DejaVuSans-101"/>
      </g>
     </g>
    </g>
    <g id="ytick_3">
     <g id="line2d_8">
      <path d="M 164.152813 82.922927 
" style="fill:none;stroke:#333333;stroke-width:1.5;"/>
      <g>
       <use style="fill:#333333;stroke:#333333;" x="164.152813" xlink:href="#m0d971089e0" y="82.922927"/>
      </g>
     </g>
     <g id="text_9">
      <!-- 456-484 noisy -->
      <defs>
       <path d="M 44.28125 53.078125 
L 44.28125 44.578125 
Q 40.484375 46.53125 36.375 47.5 
Q 32.28125 48.484375 27.875 48.484375 
Q 21.1875 48.484375 17.84375 46.4375 
Q 14.5 44.390625 14.5 40.28125 
Q 14.5 37.15625 16.890625 35.375 
Q 19.28125 33.59375 26.515625 31.984375 
L 29.59375 31.296875 
Q 39.15625 29.25 43.1875 25.515625 
Q 47.21875 21.78125 47.21875 15.09375 
Q 47.21875 7.46875 41.1875 3.015625 
Q 35.15625 -1.421875 24.609375 -1.421875 
Q 20.21875 -1.421875 15.453125 -0.5625 
Q 10.6875 0.296875 5.421875 2 
L 5.421875 11.28125 
Q 10.40625 8.6875 15.234375 7.390625 
Q 20.0625 6.109375 24.8125 6.109375 
Q 31.15625 6.109375 34.5625 8.28125 
Q 37.984375 10.453125 37.984375 14.40625 
Q 37.984375 18.0625 35.515625 20.015625 
Q 33.0625 21.96875 24.703125 23.78125 
L 21.578125 24.515625 
Q 13.234375 26.265625 9.515625 29.90625 
Q 5.8125 33.546875 5.8125 39.890625 
Q 5.8125 47.609375 11.28125 51.796875 
Q 16.75 56 26.8125 56 
Q 31.78125 56 36.171875 55.265625 
Q 40.578125 54.546875 44.28125 53.078125 
z
" id="DejaVuSans-115"/>
       <path d="M 32.171875 -5.078125 
Q 28.375 -14.84375 24.75 -17.8125 
Q 21.140625 -20.796875 15.09375 -20.796875 
L 7.90625 -20.796875 
L 7.90625 -13.28125 
L 13.1875 -13.28125 
Q 16.890625 -13.28125 18.9375 -11.515625 
Q 21 -9.765625 23.484375 -3.21875 
L 25.09375 0.875 
L 2.984375 54.6875 
L 12.5 54.6875 
L 29.59375 11.921875 
L 46.6875 54.6875 
L 56.203125 54.6875 
z
" id="DejaVuSans-121"/>
      </defs>
      <g style="fill:#4d4d4d;" transform="translate(96.438188 85.351177)scale(0.088 -0.088)">
       <use xlink:href="#DejaVuSans-52"/>
       <use x="63.623047" xlink:href="#DejaVuSans-53"/>
       <use x="127.246094" xlink:href="#DejaVuSans-54"/>
       <use x="190.869141" xlink:href="#DejaVuSans-45"/>
       <use x="226.953125" xlink:href="#DejaVuSans-52"/>
       <use x="290.576172" xlink:href="#DejaVuSans-56"/>
       <use x="354.199219" xlink:href="#DejaVuSans-52"/>
       <use x="417.822266" xlink:href="#DejaVuSans-32"/>
       <use x="449.609375" xlink:href="#DejaVuSans-110"/>
       <use x="512.988281" xlink:href="#DejaVuSans-111"/>
       <use x="574.169922" xlink:href="#DejaVuSans-105"/>
       <use x="601.953125" xlink:href="#DejaVuSans-115"/>
       <use x="654.052734" xlink:href="#DejaVuSans-121"/>
      </g>
     </g>
    </g>
    <g id="ytick_4">
     <g id="line2d_9">
      <path d="M 164.152813 69.400976 
" style="fill:none;stroke:#333333;stroke-width:1.5;"/>
      <g>
       <use style="fill:#333333;stroke:#333333;" x="164.152813" xlink:href="#m0d971089e0" y="69.400976"/>
      </g>
     </g>
     <g id="text_10">
      <!-- 456-484 low magnitude - noisy -->
      <g style="fill:#4d4d4d;" transform="translate(22.245937 71.829226)scale(0.088 -0.088)">
       <use xlink:href="#DejaVuSans-52"/>
       <use x="63.623047" xlink:href="#DejaVuSans-53"/>
       <use x="127.246094" xlink:href="#DejaVuSans-54"/>
       <use x="190.869141" xlink:href="#DejaVuSans-45"/>
       <use x="226.953125" xlink:href="#DejaVuSans-52"/>
       <use x="290.576172" xlink:href="#DejaVuSans-56"/>
       <use x="354.199219" xlink:href="#DejaVuSans-52"/>
       <use x="417.822266" xlink:href="#DejaVuSans-32"/>
       <use x="449.609375" xlink:href="#DejaVuSans-108"/>
       <use x="477.392578" xlink:href="#DejaVuSans-111"/>
       <use x="538.574219" xlink:href="#DejaVuSans-119"/>
       <use x="620.361328" xlink:href="#DejaVuSans-32"/>
       <use x="652.148438" xlink:href="#DejaVuSans-109"/>
       <use x="749.560547" xlink:href="#DejaVuSans-97"/>
       <use x="810.839844" xlink:href="#DejaVuSans-103"/>
       <use x="874.316406" xlink:href="#DejaVuSans-110"/>
       <use x="937.695312" xlink:href="#DejaVuSans-105"/>
       <use x="965.478516" xlink:href="#DejaVuSans-116"/>
       <use x="1004.6875" xlink:href="#DejaVuSans-117"/>
       <use x="1068.066406" xlink:href="#DejaVuSans-100"/>
       <use x="1131.542969" xlink:href="#DejaVuSans-101"/>
       <use x="1193.066406" xlink:href="#DejaVuSans-32"/>
       <use x="1224.853516" xlink:href="#DejaVuSans-45"/>
       <use x="1260.9375" xlink:href="#DejaVuSans-32"/>
       <use x="1292.724609" xlink:href="#DejaVuSans-110"/>
       <use x="1356.103516" xlink:href="#DejaVuSans-111"/>
       <use x="1417.285156" xlink:href="#DejaVuSans-105"/>
       <use x="1445.068359" xlink:href="#DejaVuSans-115"/>
       <use x="1497.167969" xlink:href="#DejaVuSans-121"/>
      </g>
     </g>
    </g>
    <g id="ytick_5">
     <g id="line2d_10">
      <path d="M 164.152813 55.879024 
" style="fill:none;stroke:#333333;stroke-width:1.5;"/>
      <g>
       <use style="fill:#333333;stroke:#333333;" x="164.152813" xlink:href="#m0d971089e0" y="55.879024"/>
      </g>
     </g>
     <g id="text_11">
      <!-- 443-450 -->
      <g style="fill:#4d4d4d;" transform="translate(122.433938 58.307274)scale(0.088 -0.088)">
       <use xlink:href="#DejaVuSans-52"/>
       <use x="63.623047" xlink:href="#DejaVuSans-52"/>
       <use x="127.246094" xlink:href="#DejaVuSans-51"/>
       <use x="190.869141" xlink:href="#DejaVuSans-45"/>
       <use x="226.953125" xlink:href="#DejaVuSans-52"/>
       <use x="290.576172" xlink:href="#DejaVuSans-53"/>
       <use x="354.199219" xlink:href="#DejaVuSans-48"/>
      </g>
     </g>
    </g>
    <g id="ytick_6">
     <g id="line2d_11">
      <path d="M 164.152813 42.357073 
" style="fill:none;stroke:#333333;stroke-width:1.5;"/>
      <g>
       <use style="fill:#333333;stroke:#333333;" x="164.152813" xlink:href="#m0d971089e0" y="42.357073"/>
      </g>
     </g>
     <g id="text_12">
      <!-- core -->
      <defs>
       <path d="M 48.78125 52.59375 
L 48.78125 44.1875 
Q 44.96875 46.296875 41.140625 47.34375 
Q 37.3125 48.390625 33.40625 48.390625 
Q 24.65625 48.390625 19.8125 42.84375 
Q 14.984375 37.3125 14.984375 27.296875 
Q 14.984375 17.28125 19.8125 11.734375 
Q 24.65625 6.203125 33.40625 6.203125 
Q 37.3125 6.203125 41.140625 7.25 
Q 44.96875 8.296875 48.78125 10.40625 
L 48.78125 2.09375 
Q 45.015625 0.34375 40.984375 -0.53125 
Q 36.96875 -1.421875 32.421875 -1.421875 
Q 20.0625 -1.421875 12.78125 6.34375 
Q 5.515625 14.109375 5.515625 27.296875 
Q 5.515625 40.671875 12.859375 48.328125 
Q 20.21875 56 33.015625 56 
Q 37.15625 56 41.109375 55.140625 
Q 45.0625 54.296875 48.78125 52.59375 
z
" id="DejaVuSans-99"/>
       <path d="M 41.109375 46.296875 
Q 39.59375 47.171875 37.8125 47.578125 
Q 36.03125 48 33.890625 48 
Q 26.265625 48 22.1875 43.046875 
Q 18.109375 38.09375 18.109375 28.8125 
L 18.109375 0 
L 9.078125 0 
L 9.078125 54.6875 
L 18.109375 54.6875 
L 18.109375 46.1875 
Q 20.953125 51.171875 25.484375 53.578125 
Q 30.03125 56 36.53125 56 
Q 37.453125 56 38.578125 55.875 
Q 39.703125 55.765625 41.0625 55.515625 
z
" id="DejaVuSans-114"/>
      </defs>
      <g style="fill:#4d4d4d;" transform="translate(140.145313 44.785323)scale(0.088 -0.088)">
       <use xlink:href="#DejaVuSans-99"/>
       <use x="54.980469" xlink:href="#DejaVuSans-111"/>
       <use x="116.162109" xlink:href="#DejaVuSans-114"/>
       <use x="155.025391" xlink:href="#DejaVuSans-101"/>
      </g>
     </g>
    </g>
    <g id="ytick_7">
     <g id="line2d_12">
      <path d="M 164.152813 28.835122 
" style="fill:none;stroke:#333333;stroke-width:1.5;"/>
      <g>
       <use style="fill:#333333;stroke:#333333;" x="164.152813" xlink:href="#m0d971089e0" y="28.835122"/>
      </g>
     </g>
     <g id="text_13">
      <!-- flat - noisy -->
      <defs>
       <path d="M 37.109375 75.984375 
L 37.109375 68.5 
L 28.515625 68.5 
Q 23.6875 68.5 21.796875 66.546875 
Q 19.921875 64.59375 19.921875 59.515625 
L 19.921875 54.6875 
L 34.71875 54.6875 
L 34.71875 47.703125 
L 19.921875 47.703125 
L 19.921875 0 
L 10.890625 0 
L 10.890625 47.703125 
L 2.296875 47.703125 
L 2.296875 54.6875 
L 10.890625 54.6875 
L 10.890625 58.5 
Q 10.890625 67.625 15.140625 71.796875 
Q 19.390625 75.984375 28.609375 75.984375 
z
" id="DejaVuSans-102"/>
      </defs>
      <g style="fill:#4d4d4d;" transform="translate(112.850188 31.263372)scale(0.088 -0.088)">
       <use xlink:href="#DejaVuSans-102"/>
       <use x="35.205078" xlink:href="#DejaVuSans-108"/>
       <use x="62.988281" xlink:href="#DejaVuSans-97"/>
       <use x="124.267578" xlink:href="#DejaVuSans-116"/>
       <use x="163.476562" xlink:href="#DejaVuSans-32"/>
       <use x="195.263672" xlink:href="#DejaVuSans-45"/>
       <use x="231.347656" xlink:href="#DejaVuSans-32"/>
       <use x="263.134766" xlink:href="#DejaVuSans-110"/>
       <use x="326.513672" xlink:href="#DejaVuSans-111"/>
       <use x="387.695312" xlink:href="#DejaVuSans-105"/>
       <use x="415.478516" xlink:href="#DejaVuSans-115"/>
       <use x="467.578125" xlink:href="#DejaVuSans-121"/>
      </g>
     </g>
    </g>
    <g id="ytick_8">
     <g id="line2d_13">
      <path d="M 164.152813 15.313171 
" style="fill:none;stroke:#333333;stroke-width:1.5;"/>
      <g>
       <use style="fill:#333333;stroke:#333333;" x="164.152813" xlink:href="#m0d971089e0" y="15.313171"/>
      </g>
     </g>
     <g id="text_14">
      <!-- flat -->
      <g style="fill:#4d4d4d;" transform="translate(144.817563 17.741421)scale(0.088 -0.088)">
       <use xlink:href="#DejaVuSans-102"/>
       <use x="35.205078" xlink:href="#DejaVuSans-108"/>
       <use x="62.988281" xlink:href="#DejaVuSans-97"/>
       <use x="124.267578" xlink:href="#DejaVuSans-116"/>
      </g>
     </g>
    </g>
    <g id="text_15">
     <!-- escape map -->
     <defs>
      <path d="M 18.109375 8.203125 
L 18.109375 -20.796875 
L 9.078125 -20.796875 
L 9.078125 54.6875 
L 18.109375 54.6875 
L 18.109375 46.390625 
Q 20.953125 51.265625 25.265625 53.625 
Q 29.59375 56 35.59375 56 
Q 45.5625 56 51.78125 48.09375 
Q 58.015625 40.1875 58.015625 27.296875 
Q 58.015625 14.40625 51.78125 6.484375 
Q 45.5625 -1.421875 35.59375 -1.421875 
Q 29.59375 -1.421875 25.265625 0.953125 
Q 20.953125 3.328125 18.109375 8.203125 
z
M 48.6875 27.296875 
Q 48.6875 37.203125 44.609375 42.84375 
Q 40.53125 48.484375 33.40625 48.484375 
Q 26.265625 48.484375 22.1875 42.84375 
Q 18.109375 37.203125 18.109375 27.296875 
Q 18.109375 17.390625 22.1875 11.75 
Q 26.265625 6.109375 33.40625 6.109375 
Q 40.53125 6.109375 44.609375 11.75 
Q 48.6875 17.390625 48.6875 27.296875 
z
" id="DejaVuSans-112"/>
     </defs>
     <g transform="translate(15.558281 95.407266)rotate(-90)scale(0.11 -0.11)">
      <use xlink:href="#DejaVuSans-101"/>
      <use x="61.523438" xlink:href="#DejaVuSans-115"/>
      <use x="113.623047" xlink:href="#DejaVuSans-99"/>
      <use x="168.603516" xlink:href="#DejaVuSans-97"/>
      <use x="229.882812" xlink:href="#DejaVuSans-112"/>
      <use x="293.359375" xlink:href="#DejaVuSans-101"/>
      <use x="354.882812" xlink:href="#DejaVuSans-32"/>
      <use x="386.669922" xlink:href="#DejaVuSans-109"/>
      <use x="484.082031" xlink:href="#DejaVuSans-97"/>
      <use x="545.361328" xlink:href="#DejaVuSans-112"/>
     </g>
    </g>
   </g>
   <g id="PathCollection_1">
    <path clip-path="url(#p41802f5a1e)" d="M 196.106653 113.367286 
C 196.811744 113.367286 197.48805 113.087151 197.986625 112.588577 
C 198.485199 112.090003 198.765334 111.413696 198.765334 110.708606 
C 198.765334 110.003515 198.485199 109.327209 197.986625 108.828634 
C 197.48805 108.33006 196.811744 108.049925 196.106653 108.049925 
C 195.401563 108.049925 194.725256 108.33006 194.226682 108.828634 
C 193.728108 109.327209 193.447973 110.003515 193.447973 110.708606 
C 193.447973 111.413696 193.728108 112.090003 194.226682 112.588577 
C 194.725256 113.087151 195.401563 113.367286 196.106653 113.367286 
z
" style="fill:#56b4e9;fill-opacity:0.25098;stroke:#56b4e9;stroke-opacity:0.25098;stroke-width:0.886227;"/>
    <path clip-path="url(#p41802f5a1e)" d="M 248.147353 16.798436 
C 248.852443 16.798436 249.52875 16.518301 250.027324 16.019727 
C 250.525898 15.521153 250.806033 14.844846 250.806033 14.139756 
C 250.806033 13.434665 250.525898 12.758359 250.027324 12.259784 
C 249.52875 11.76121 248.852443 11.481075 248.147353 11.481075 
C 247.442262 11.481075 246.765956 11.76121 246.267381 12.259784 
C 245.768807 12.758359 245.488672 13.434665 245.488672 14.139756 
C 245.488672 14.844846 245.768807 15.521153 246.267381 16.019727 
C 246.765956 16.518301 247.442262 16.798436 248.147353 16.798436 
z
" style="fill:#56b4e9;fill-opacity:0.25098;stroke:#56b4e9;stroke-opacity:0.25098;stroke-width:0.886227;"/>
    <path clip-path="url(#p41802f5a1e)" d="M 229.659759 97.31472 
C 230.36485 97.31472 231.041156 97.034585 231.53973 96.536011 
C 232.038305 96.037437 232.31844 95.36113 232.31844 94.65604 
C 232.31844 93.950949 232.038305 93.274643 231.53973 92.776068 
C 231.041156 92.277494 230.36485 91.997359 229.659759 91.997359 
C 228.954669 91.997359 228.278362 92.277494 227.779788 92.776068 
C 227.281214 93.274643 227.001078 93.950949 227.001078 94.65604 
C 227.001078 95.36113 227.281214 96.037437 227.779788 96.536011 
C 228.278362 97.034585 228.954669 97.31472 229.659759 97.31472 
z
" style="fill:#56b4e9;fill-opacity:0.25098;stroke:#56b4e9;stroke-opacity:0.25098;stroke-width:0.886227;"/>
    <path clip-path="url(#p41802f5a1e)" d="M 212.174855 45.410867 
C 212.879945 45.410867 213.556252 45.130732 214.054826 44.632158 
C 214.5534 44.133583 214.833535 43.457277 214.833535 42.752186 
C 214.833535 42.047096 214.5534 41.370789 214.054826 40.872215 
C 213.556252 40.373641 212.879945 40.093506 212.174855 40.093506 
C 211.469764 40.093506 210.793458 40.373641 210.294883 40.872215 
C 209.796309 41.370789 209.516174 42.047096 209.516174 42.752186 
C 209.516174 43.457277 209.796309 44.133583 210.294883 44.632158 
C 210.793458 45.130732 211.469764 45.410867 212.174855 45.410867 
z
" style="fill:#56b4e9;fill-opacity:0.25098;stroke:#56b4e9;stroke-opacity:0.25098;stroke-width:0.886227;"/>
    <path clip-path="url(#p41802f5a1e)" d="M 225.785879 16.250132 
C 226.490969 16.250132 227.167276 15.969997 227.66585 15.471423 
C 228.164424 14.972849 228.444559 14.296542 228.444559 13.591452 
C 228.444559 12.886361 228.164424 12.210055 227.66585 11.711481 
C 227.167276 11.212906 226.490969 10.932771 225.785879 10.932771 
C 225.080788 10.932771 224.404482 11.212906 223.905907 11.711481 
C 223.407333 12.210055 223.127198 12.886361 223.127198 13.591452 
C 223.127198 14.296542 223.407333 14.972849 223.905907 15.471423 
C 224.404482 15.969997 225.080788 16.250132 225.785879 16.250132 
z
" style="fill:#56b4e9;fill-opacity:0.25098;stroke:#56b4e9;stroke-opacity:0.25098;stroke-width:0.886227;"/>
    <path clip-path="url(#p41802f5a1e)" d="M 241.962515 18.933671 
C 242.667605 18.933671 243.343912 18.653536 243.842486 18.154962 
C 244.341061 17.656388 244.621196 16.980081 244.621196 16.274991 
C 244.621196 15.5699 244.341061 14.893594 243.842486 14.395019 
C 243.343912 13.896445 242.667605 13.61631 241.962515 13.61631 
C 241.257425 13.61631 240.581118 13.896445 240.082544 14.395019 
C 239.58397 14.893594 239.303834 15.5699 239.303834 16.274991 
C 239.303834 16.980081 239.58397 17.656388 240.082544 18.154962 
C 240.581118 18.653536 241.257425 18.933671 241.962515 18.933671 
z
" style="fill:#56b4e9;fill-opacity:0.25098;stroke:#56b4e9;stroke-opacity:0.25098;stroke-width:0.886227;"/>
    <path clip-path="url(#p41802f5a1e)" d="M 216.477881 98.178444 
C 217.182971 98.178444 217.859278 97.898308 218.357852 97.399734 
C 218.856426 96.90116 219.136562 96.224853 219.136562 95.519763 
C 219.136562 94.814672 218.856426 94.138366 218.357852 93.639792 
C 217.859278 93.141217 217.182971 92.861082 216.477881 92.861082 
C 215.772791 92.861082 215.096484 93.141217 214.59791 93.639792 
C 214.099336 94.138366 213.8192 94.814672 213.8192 95.519763 
C 213.8192 96.224853 214.099336 96.90116 214.59791 97.399734 
C 215.096484 97.898308 215.772791 98.178444 216.477881 98.178444 
z
" style="fill:#56b4e9;fill-opacity:0.25098;stroke:#56b4e9;stroke-opacity:0.25098;stroke-width:0.886227;"/>
    <path clip-path="url(#p41802f5a1e)" d="M 215.22817 111.14863 
C 215.93326 111.14863 216.609567 110.868495 217.108141 110.36992 
C 217.606715 109.871346 217.88685 109.19504 217.88685 108.489949 
C 217.88685 107.784859 217.606715 107.108552 217.108141 106.609978 
C 216.609567 106.111404 215.93326 105.831268 215.22817 105.831268 
C 214.523079 105.831268 213.846773 106.111404 213.348198 106.609978 
C 212.849624 107.108552 212.569489 107.784859 212.569489 108.489949 
C 212.569489 109.19504 212.849624 109.871346 213.348198 110.36992 
C 213.846773 110.868495 214.523079 111.14863 215.22817 111.14863 
z
" style="fill:#56b4e9;fill-opacity:0.25098;stroke:#56b4e9;stroke-opacity:0.25098;stroke-width:0.886227;"/>
    <path clip-path="url(#p41802f5a1e)" d="M 211.089846 71.590972 
C 211.794936 71.590972 212.471243 71.310837 212.969817 70.812263 
C 213.468391 70.313688 213.748526 69.637382 213.748526 68.932291 
C 213.748526 68.227201 213.468391 67.550894 212.969817 67.05232 
C 212.471243 66.553746 211.794936 66.273611 211.089846 66.273611 
C 210.384755 66.273611 209.708449 66.553746 209.209874 67.05232 
C 208.7113 67.550894 208.431165 68.227201 208.431165 68.932291 
C 208.431165 69.637382 208.7113 70.313688 209.209874 70.812263 
C 209.708449 71.310837 210.384755 71.590972 211.089846 71.590972 
z
" style="fill:#56b4e9;fill-opacity:0.25098;stroke:#56b4e9;stroke-opacity:0.25098;stroke-width:0.886227;"/>
    <path clip-path="url(#p41802f5a1e)" d="M 220.598871 17.382094 
C 221.303961 17.382094 221.980268 17.101958 222.478842 16.603384 
C 222.977416 16.10481 223.257551 15.428503 223.257551 14.723413 
C 223.257551 14.018323 222.977416 13.342016 222.478842 12.843442 
C 221.980268 12.344868 221.303961 12.064732 220.598871 12.064732 
C 219.89378 12.064732 219.217474 12.344868 218.718899 12.843442 
C 218.220325 13.342016 217.94019 14.018323 217.94019 14.723413 
C 217.94019 15.428503 218.220325 16.10481 218.718899 16.603384 
C 219.217474 17.101958 219.89378 17.382094 220.598871 17.382094 
z
" style="fill:#56b4e9;fill-opacity:0.25098;stroke:#56b4e9;stroke-opacity:0.25098;stroke-width:0.886227;"/>
    <path clip-path="url(#p41802f5a1e)" d="M 211.234206 43.688759 
C 211.939297 43.688759 212.615603 43.408624 213.114177 42.910049 
C 213.612752 42.411475 213.892887 41.735169 213.892887 41.030078 
C 213.892887 40.324988 213.612752 39.648681 213.114177 39.150107 
C 212.615603 38.651533 211.939297 38.371397 211.234206 38.371397 
C 210.529116 38.371397 209.852809 38.651533 209.354235 39.150107 
C 208.855661 39.648681 208.575525 40.324988 208.575525 41.030078 
C 208.575525 41.735169 208.855661 42.411475 209.354235 42.910049 
C 209.852809 43.408624 210.529116 43.688759 211.234206 43.688759 
z
" style="fill:#56b4e9;fill-opacity:0.25098;stroke:#56b4e9;stroke-opacity:0.25098;stroke-width:0.886227;"/>
    <path clip-path="url(#p41802f5a1e)" d="M 222.289737 16.03276 
C 222.994827 16.03276 223.671134 15.752625 224.169708 15.254051 
C 224.668282 14.755476 224.948418 14.07917 224.948418 13.374079 
C 224.948418 12.668989 224.668282 11.992682 224.169708 11.494108 
C 223.671134 10.995534 222.994827 10.715399 222.289737 10.715399 
C 221.584647 10.715399 220.90834 10.995534 220.409766 11.494108 
C 219.911192 11.992682 219.631056 12.668989 219.631056 13.374079 
C 219.631056 14.07917 219.911192 14.755476 220.409766 15.254051 
C 220.90834 15.752625 221.584647 16.03276 222.289737 16.03276 
z
" style="fill:#56b4e9;fill-opacity:0.25098;stroke:#56b4e9;stroke-opacity:0.25098;stroke-width:0.886227;"/>
    <path clip-path="url(#p41802f5a1e)" d="M 238.184944 17.609569 
C 238.890034 17.609569 239.566341 17.329434 240.064915 16.83086 
C 240.563489 16.332286 240.843625 15.655979 240.843625 14.950889 
C 240.843625 14.245798 240.563489 13.569492 240.064915 13.070917 
C 239.566341 12.572343 238.890034 12.292208 238.184944 12.292208 
C 237.479854 12.292208 236.803547 12.572343 236.304973 13.070917 
C 235.806399 13.569492 235.526263 14.245798 235.526263 14.950889 
C 235.526263 15.655979 235.806399 16.332286 236.304973 16.83086 
C 236.803547 17.329434 237.479854 17.609569 238.184944 17.609569 
z
" style="fill:#56b4e9;fill-opacity:0.25098;stroke:#56b4e9;stroke-opacity:0.25098;stroke-width:0.886227;"/>
    <path clip-path="url(#p41802f5a1e)" d="M 207.249523 112.326098 
C 207.954614 112.326098 208.63092 112.045963 209.129495 111.547389 
C 209.628069 111.048814 209.908204 110.372508 209.908204 109.667417 
C 209.908204 108.962327 209.628069 108.28602 209.129495 107.787446 
C 208.63092 107.288872 207.954614 107.008737 207.249523 107.008737 
C 206.544433 107.008737 205.868126 107.288872 205.369552 107.787446 
C 204.870978 108.28602 204.590843 108.962327 204.590843 109.667417 
C 204.590843 110.372508 204.870978 111.048814 205.369552 111.547389 
C 205.868126 112.045963 206.544433 112.326098 207.249523 112.326098 
z
" style="fill:#56b4e9;fill-opacity:0.25098;stroke:#56b4e9;stroke-opacity:0.25098;stroke-width:0.886227;"/>
    <path clip-path="url(#p41802f5a1e)" d="M 216.242048 114.135668 
C 216.947138 114.135668 217.623445 113.855533 218.122019 113.356959 
C 218.620593 112.858385 218.900729 112.182078 218.900729 111.476988 
C 218.900729 110.771897 218.620593 110.095591 218.122019 109.597016 
C 217.623445 109.098442 216.947138 108.818307 216.242048 108.818307 
C 215.536957 108.818307 214.860651 109.098442 214.362077 109.597016 
C 213.863502 110.095591 213.583367 110.771897 213.583367 111.476988 
C 213.583367 112.182078 213.863502 112.858385 214.362077 113.356959 
C 214.860651 113.855533 215.536957 114.135668 216.242048 114.135668 
z
" style="fill:#56b4e9;fill-opacity:0.25098;stroke:#56b4e9;stroke-opacity:0.25098;stroke-width:0.886227;"/>
    <path clip-path="url(#p41802f5a1e)" d="M 234.167224 18.10824 
C 234.872315 18.10824 235.548621 17.828105 236.047195 17.329531 
C 236.54577 16.830956 236.825905 16.15465 236.825905 15.449559 
C 236.825905 14.744469 236.54577 14.068162 236.047195 13.569588 
C 235.548621 13.071014 234.872315 12.790879 234.167224 12.790879 
C 233.462134 12.790879 232.785827 13.071014 232.287253 13.569588 
C 231.788679 14.068162 231.508543 14.744469 231.508543 15.449559 
C 231.508543 16.15465 231.788679 16.830956 232.287253 17.329531 
C 232.785827 17.828105 233.462134 18.10824 234.167224 18.10824 
z
" style="fill:#56b4e9;fill-opacity:0.25098;stroke:#56b4e9;stroke-opacity:0.25098;stroke-width:0.886227;"/>
    <path clip-path="url(#p41802f5a1e)" d="M 225.920408 16.334151 
C 226.625498 16.334151 227.301805 16.054015 227.800379 15.555441 
C 228.298953 15.056867 228.579089 14.38056 228.579089 13.67547 
C 228.579089 12.97038 228.298953 12.294073 227.800379 11.795499 
C 227.301805 11.296925 226.625498 11.016789 225.920408 11.016789 
C 225.215317 11.016789 224.539011 11.296925 224.040437 11.795499 
C 223.541862 12.294073 223.261727 12.97038 223.261727 13.67547 
C 223.261727 14.38056 223.541862 15.056867 224.040437 15.555441 
C 224.539011 16.054015 225.215317 16.334151 225.920408 16.334151 
z
" style="fill:#56b4e9;fill-opacity:0.25098;stroke:#56b4e9;stroke-opacity:0.25098;stroke-width:0.886227;"/>
    <path clip-path="url(#p41802f5a1e)" d="M 220.54792 17.164613 
C 221.25301 17.164613 221.929317 16.884477 222.427891 16.385903 
C 222.926465 15.887329 223.206601 15.211022 223.206601 14.505932 
C 223.206601 13.800841 222.926465 13.124535 222.427891 12.625961 
C 221.929317 12.127386 221.25301 11.847251 220.54792 11.847251 
C 219.84283 11.847251 219.166523 12.127386 218.667949 12.625961 
C 218.169375 13.124535 217.889239 13.800841 217.889239 14.505932 
C 217.889239 15.211022 218.169375 15.887329 218.667949 16.385903 
C 219.166523 16.884477 219.84283 17.164613 220.54792 17.164613 
z
" style="fill:#56b4e9;fill-opacity:0.25098;stroke:#56b4e9;stroke-opacity:0.25098;stroke-width:0.886227;"/>
    <path clip-path="url(#p41802f5a1e)" d="M 248.760544 17.15711 
C 249.465634 17.15711 250.141941 16.876974 250.640515 16.3784 
C 251.139089 15.879826 251.419224 15.203519 251.419224 14.498429 
C 251.419224 13.793339 251.139089 13.117032 250.640515 12.618458 
C 250.141941 12.119884 249.465634 11.839748 248.760544 11.839748 
C 248.055453 11.839748 247.379147 12.119884 246.880572 12.618458 
C 246.381998 13.117032 246.101863 13.793339 246.101863 14.498429 
C 246.101863 15.203519 246.381998 15.879826 246.880572 16.3784 
C 247.379147 16.876974 248.055453 17.15711 248.760544 17.15711 
z
" style="fill:#56b4e9;fill-opacity:0.25098;stroke:#56b4e9;stroke-opacity:0.25098;stroke-width:0.886227;"/>
    <path clip-path="url(#p41802f5a1e)" d="M 253.610143 113.353193 
C 254.315234 113.353193 254.99154 113.073057 255.490114 112.574483 
C 255.988689 112.075909 256.268824 111.399602 256.268824 110.694512 
C 256.268824 109.989421 255.988689 109.313115 255.490114 108.814541 
C 254.99154 108.315966 254.315234 108.035831 253.610143 108.035831 
C 252.905053 108.035831 252.228746 108.315966 251.730172 108.814541 
C 251.231598 109.313115 250.951462 109.989421 250.951462 110.694512 
C 250.951462 111.399602 251.231598 112.075909 251.730172 112.574483 
C 252.228746 113.073057 252.905053 113.353193 253.610143 113.353193 
z
" style="fill:#e69f00;fill-opacity:0.25098;stroke:#e69f00;stroke-opacity:0.25098;stroke-width:0.886227;"/>
    <path clip-path="url(#p41802f5a1e)" d="M 231.803381 110.900027 
C 232.508472 110.900027 233.184778 110.619891 233.683353 110.121317 
C 234.181927 109.622743 234.462062 108.946436 234.462062 108.241346 
C 234.462062 107.536256 234.181927 106.859949 233.683353 106.361375 
C 233.184778 105.862801 232.508472 105.582665 231.803381 105.582665 
C 231.098291 105.582665 230.421984 105.862801 229.92341 106.361375 
C 229.424836 106.859949 229.144701 107.536256 229.144701 108.241346 
C 229.144701 108.946436 229.424836 109.622743 229.92341 110.121317 
C 230.421984 110.619891 231.098291 110.900027 231.803381 110.900027 
z
" style="fill:#e69f00;fill-opacity:0.25098;stroke:#e69f00;stroke-opacity:0.25098;stroke-width:0.886227;"/>
    <path clip-path="url(#p41802f5a1e)" d="M 204.84912 70.980325 
C 205.55421 70.980325 206.230517 70.70019 206.729091 70.201615 
C 207.227665 69.703041 207.507801 69.026735 207.507801 68.321644 
C 207.507801 67.616554 207.227665 66.940247 206.729091 66.441673 
C 206.230517 65.943099 205.55421 65.662964 204.84912 65.662964 
C 204.14403 65.662964 203.467723 65.943099 202.969149 66.441673 
C 202.470575 66.940247 202.190439 67.616554 202.190439 68.321644 
C 202.190439 69.026735 202.470575 69.703041 202.969149 70.201615 
C 203.467723 70.70019 204.14403 70.980325 204.84912 70.980325 
z
" style="fill:#e69f00;fill-opacity:0.25098;stroke:#e69f00;stroke-opacity:0.25098;stroke-width:0.886227;"/>
    <path clip-path="url(#p41802f5a1e)" d="M 219.395307 111.458181 
C 220.100397 111.458181 220.776704 111.178046 221.275278 110.679471 
C 221.773852 110.180897 222.053987 109.504591 222.053987 108.7995 
C 222.053987 108.09441 221.773852 107.418103 221.275278 106.919529 
C 220.776704 106.420955 220.100397 106.140819 219.395307 106.140819 
C 218.690216 106.140819 218.01391 106.420955 217.515336 106.919529 
C 217.016761 107.418103 216.736626 108.09441 216.736626 108.7995 
C 216.736626 109.504591 217.016761 110.180897 217.515336 110.679471 
C 218.01391 111.178046 218.690216 111.458181 219.395307 111.458181 
z
" style="fill:#e69f00;fill-opacity:0.25098;stroke:#e69f00;stroke-opacity:0.25098;stroke-width:0.886227;"/>
    <path clip-path="url(#p41802f5a1e)" d="M 187.494067 87.001077 
C 188.199157 87.001077 188.875464 86.720942 189.374038 86.222368 
C 189.872612 85.723794 190.152748 85.047487 190.152748 84.342396 
C 190.152748 83.637306 189.872612 82.960999 189.374038 82.462425 
C 188.875464 81.963851 188.199157 81.683716 187.494067 81.683716 
C 186.788977 81.683716 186.11267 81.963851 185.614096 82.462425 
C 185.115522 82.960999 184.835386 83.637306 184.835386 84.342396 
C 184.835386 85.047487 185.115522 85.723794 185.614096 86.222368 
C 186.11267 86.720942 186.788977 87.001077 187.494067 87.001077 
z
" style="fill:#e69f00;fill-opacity:0.25098;stroke:#e69f00;stroke-opacity:0.25098;stroke-width:0.886227;"/>
    <path clip-path="url(#p41802f5a1e)" d="M 237.724713 111.027094 
C 238.429803 111.027094 239.10611 110.746959 239.604684 110.248384 
C 240.103258 109.74981 240.383394 109.073504 240.383394 108.368413 
C 240.383394 107.663323 240.103258 106.987016 239.604684 106.488442 
C 239.10611 105.989868 238.429803 105.709733 237.724713 105.709733 
C 237.019622 105.709733 236.343316 105.989868 235.844742 106.488442 
C 235.346167 106.987016 235.066032 107.663323 235.066032 108.368413 
C 235.066032 109.073504 235.346167 109.74981 235.844742 110.248384 
C 236.343316 110.746959 237.019622 111.027094 237.724713 111.027094 
z
" style="fill:#e69f00;fill-opacity:0.25098;stroke:#e69f00;stroke-opacity:0.25098;stroke-width:0.886227;"/>
    <path clip-path="url(#p41802f5a1e)" d="M 219.91614 113.033643 
C 220.62123 113.033643 221.297537 112.753508 221.796111 112.254934 
C 222.294685 111.756359 222.574821 111.080053 222.574821 110.374962 
C 222.574821 109.669872 222.294685 108.993565 221.796111 108.494991 
C 221.297537 107.996417 220.62123 107.716282 219.91614 107.716282 
C 219.21105 107.716282 218.534743 107.996417 218.036169 108.494991 
C 217.537595 108.993565 217.257459 109.669872 217.257459 110.374962 
C 217.257459 111.080053 217.537595 111.756359 218.036169 112.254934 
C 218.534743 112.753508 219.21105 113.033643 219.91614 113.033643 
z
" style="fill:#e69f00;fill-opacity:0.25098;stroke:#e69f00;stroke-opacity:0.25098;stroke-width:0.886227;"/>
    <path clip-path="url(#p41802f5a1e)" d="M 209.577258 111.446047 
C 210.282348 111.446047 210.958655 111.165912 211.457229 110.667338 
C 211.955803 110.168763 212.235938 109.492457 212.235938 108.787366 
C 212.235938 108.082276 211.955803 107.405969 211.457229 106.907395 
C 210.958655 106.408821 210.282348 106.128686 209.577258 106.128686 
C 208.872167 106.128686 208.195861 106.408821 207.697286 106.907395 
C 207.198712 107.405969 206.918577 108.082276 206.918577 108.787366 
C 206.918577 109.492457 207.198712 110.168763 207.697286 110.667338 
C 208.195861 111.165912 208.872167 111.446047 209.577258 111.446047 
z
" style="fill:#e69f00;fill-opacity:0.25098;stroke:#e69f00;stroke-opacity:0.25098;stroke-width:0.886227;"/>
    <path clip-path="url(#p41802f5a1e)" d="M 212.466152 17.299446 
C 213.171242 17.299446 213.847549 17.019311 214.346123 16.520737 
C 214.844697 16.022162 215.124832 15.345856 215.124832 14.640765 
C 215.124832 13.935675 214.844697 13.259368 214.346123 12.760794 
C 213.847549 12.26222 213.171242 11.982085 212.466152 11.982085 
C 211.761061 11.982085 211.084755 12.26222 210.58618 12.760794 
C 210.087606 13.259368 209.807471 13.935675 209.807471 14.640765 
C 209.807471 15.345856 210.087606 16.022162 210.58618 16.520737 
C 211.084755 17.019311 211.761061 17.299446 212.466152 17.299446 
z
" style="fill:#e69f00;fill-opacity:0.25098;stroke:#e69f00;stroke-opacity:0.25098;stroke-width:0.886227;"/>
    <path clip-path="url(#p41802f5a1e)" d="M 213.175823 112.825948 
C 213.880913 112.825948 214.55722 112.545812 215.055794 112.047238 
C 215.554368 111.548664 215.834504 110.872357 215.834504 110.167267 
C 215.834504 109.462176 215.554368 108.78587 215.055794 108.287296 
C 214.55722 107.788721 213.880913 107.508586 213.175823 107.508586 
C 212.470732 107.508586 211.794426 107.788721 211.295852 108.287296 
C 210.797277 108.78587 210.517142 109.462176 210.517142 110.167267 
C 210.517142 110.872357 210.797277 111.548664 211.295852 112.047238 
C 211.794426 112.545812 212.470732 112.825948 213.175823 112.825948 
z
" style="fill:#e69f00;fill-opacity:0.25098;stroke:#e69f00;stroke-opacity:0.25098;stroke-width:0.886227;"/>
    <path clip-path="url(#p41802f5a1e)" d="M 203.501548 113.620665 
C 204.206638 113.620665 204.882945 113.340529 205.381519 112.841955 
C 205.880093 112.343381 206.160228 111.667074 206.160228 110.961984 
C 206.160228 110.256893 205.880093 109.580587 205.381519 109.082013 
C 204.882945 108.583438 204.206638 108.303303 203.501548 108.303303 
C 202.796457 108.303303 202.120151 108.583438 201.621576 109.082013 
C 201.123002 109.580587 200.842867 110.256893 200.842867 110.961984 
C 200.842867 111.667074 201.123002 112.343381 201.621576 112.841955 
C 202.120151 113.340529 202.796457 113.620665 203.501548 113.620665 
z
" style="fill:#e69f00;fill-opacity:0.25098;stroke:#e69f00;stroke-opacity:0.25098;stroke-width:0.886227;"/>
    <path clip-path="url(#p41802f5a1e)" d="M 170.943934 112.405433 
C 171.649024 112.405433 172.325331 112.125297 172.823905 111.626723 
C 173.322479 111.128149 173.602615 110.451842 173.602615 109.746752 
C 173.602615 109.041662 173.322479 108.365355 172.823905 107.866781 
C 172.325331 107.368207 171.649024 107.088071 170.943934 107.088071 
C 170.238844 107.088071 169.562537 107.368207 169.063963 107.866781 
C 168.565389 108.365355 168.285253 109.041662 168.285253 109.746752 
C 168.285253 110.451842 168.565389 111.128149 169.063963 111.626723 
C 169.562537 112.125297 170.238844 112.405433 170.943934 112.405433 
z
" style="fill:#e69f00;fill-opacity:0.25098;stroke:#e69f00;stroke-opacity:0.25098;stroke-width:0.886227;"/>
    <path clip-path="url(#p41802f5a1e)" d="M 170.723241 59.5147 
C 171.428331 59.5147 172.104638 59.234565 172.603212 58.73599 
C 173.101786 58.237416 173.381922 57.56111 173.381922 56.856019 
C 173.381922 56.150929 173.101786 55.474622 172.603212 54.976048 
C 172.104638 54.477474 171.428331 54.197338 170.723241 54.197338 
C 170.01815 54.197338 169.341844 54.477474 168.84327 54.976048 
C 168.344695 55.474622 168.06456 56.150929 168.06456 56.856019 
C 168.06456 57.56111 168.344695 58.237416 168.84327 58.73599 
C 169.341844 59.234565 170.01815 59.5147 170.723241 59.5147 
z
" style="fill:#e69f00;fill-opacity:0.25098;stroke:#e69f00;stroke-opacity:0.25098;stroke-width:0.886227;"/>
    <path clip-path="url(#p41802f5a1e)" d="M 270.680085 59.268332 
C 271.385176 59.268332 272.061482 58.988197 272.560056 58.489622 
C 273.058631 57.991048 273.338766 57.314742 273.338766 56.609651 
C 273.338766 55.904561 273.058631 55.228254 272.560056 54.72968 
C 272.061482 54.231106 271.385176 53.95097 270.680085 53.95097 
C 269.974995 53.95097 269.298688 54.231106 268.800114 54.72968 
C 268.30154 55.228254 268.021404 55.904561 268.021404 56.609651 
C 268.021404 57.314742 268.30154 57.991048 268.800114 58.489622 
C 269.298688 58.988197 269.974995 59.268332 270.680085 59.268332 
z
" style="fill:#e69f00;fill-opacity:0.25098;stroke:#e69f00;stroke-opacity:0.25098;stroke-width:0.886227;"/>
    <path clip-path="url(#p41802f5a1e)" d="M 186.698792 16.487901 
C 187.403883 16.487901 188.080189 16.207765 188.578763 15.709191 
C 189.077338 15.210617 189.357473 14.53431 189.357473 13.82922 
C 189.357473 13.124129 189.077338 12.447823 188.578763 11.949249 
C 188.080189 11.450674 187.403883 11.170539 186.698792 11.170539 
C 185.993702 11.170539 185.317395 11.450674 184.818821 11.949249 
C 184.320247 12.447823 184.040111 13.124129 184.040111 13.82922 
C 184.040111 14.53431 184.320247 15.210617 184.818821 15.709191 
C 185.317395 16.207765 185.993702 16.487901 186.698792 16.487901 
z
" style="fill:#e69f00;fill-opacity:0.25098;stroke:#e69f00;stroke-opacity:0.25098;stroke-width:0.886227;"/>
    <path clip-path="url(#p41802f5a1e)" d="M 214.519581 59.055771 
C 215.224671 59.055771 215.900978 58.775636 216.399552 58.277062 
C 216.898126 57.778487 217.178262 57.102181 217.178262 56.39709 
C 217.178262 55.692 216.898126 55.015693 216.399552 54.517119 
C 215.900978 54.018545 215.224671 53.73841 214.519581 53.73841 
C 213.814491 53.73841 213.138184 54.018545 212.63961 54.517119 
C 212.141036 55.015693 211.8609 55.692 211.8609 56.39709 
C 211.8609 57.102181 212.141036 57.778487 212.63961 58.277062 
C 213.138184 58.775636 213.814491 59.055771 214.519581 59.055771 
z
" style="fill:#e69f00;fill-opacity:0.25098;stroke:#e69f00;stroke-opacity:0.25098;stroke-width:0.886227;"/>
    <path clip-path="url(#p41802f5a1e)" d="M 203.16298 57.555584 
C 203.86807 57.555584 204.544377 57.275449 205.042951 56.776875 
C 205.541525 56.278301 205.821661 55.601994 205.821661 54.896904 
C 205.821661 54.191813 205.541525 53.515507 205.042951 53.016932 
C 204.544377 52.518358 203.86807 52.238223 203.16298 52.238223 
C 202.45789 52.238223 201.781583 52.518358 201.283009 53.016932 
C 200.784435 53.515507 200.504299 54.191813 200.504299 54.896904 
C 200.504299 55.601994 200.784435 56.278301 201.283009 56.776875 
C 201.781583 57.275449 202.45789 57.555584 203.16298 57.555584 
z
" style="fill:#e69f00;fill-opacity:0.25098;stroke:#e69f00;stroke-opacity:0.25098;stroke-width:0.886227;"/>
    <path clip-path="url(#p41802f5a1e)" d="M 169.22554 59.797264 
C 169.93063 59.797264 170.606937 59.517128 171.105511 59.018554 
C 171.604085 58.51998 171.884221 57.843673 171.884221 57.138583 
C 171.884221 56.433493 171.604085 55.757186 171.105511 55.258612 
C 170.606937 54.760038 169.93063 54.479902 169.22554 54.479902 
C 168.520449 54.479902 167.844143 54.760038 167.345569 55.258612 
C 166.846994 55.757186 166.566859 56.433493 166.566859 57.138583 
C 166.566859 57.843673 166.846994 58.51998 167.345569 59.018554 
C 167.844143 59.517128 168.520449 59.797264 169.22554 59.797264 
z
" style="fill:#e69f00;fill-opacity:0.25098;stroke:#e69f00;stroke-opacity:0.25098;stroke-width:0.886227;"/>
    <path clip-path="url(#p41802f5a1e)" d="M 206.177867 57.918316 
C 206.882958 57.918316 207.559264 57.63818 208.057838 57.139606 
C 208.556413 56.641032 208.836548 55.964725 208.836548 55.259635 
C 208.836548 54.554544 208.556413 53.878238 208.057838 53.379664 
C 207.559264 52.881089 206.882958 52.600954 206.177867 52.600954 
C 205.472777 52.600954 204.79647 52.881089 204.297896 53.379664 
C 203.799322 53.878238 203.519186 54.554544 203.519186 55.259635 
C 203.519186 55.964725 203.799322 56.641032 204.297896 57.139606 
C 204.79647 57.63818 205.472777 57.918316 206.177867 57.918316 
z
" style="fill:#e69f00;fill-opacity:0.25098;stroke:#e69f00;stroke-opacity:0.25098;stroke-width:0.886227;"/>
    <path clip-path="url(#p41802f5a1e)" d="M 202.367781 44.708882 
C 203.072871 44.708882 203.749178 44.428746 204.247752 43.930172 
C 204.746326 43.431598 205.026462 42.755291 205.026462 42.050201 
C 205.026462 41.345111 204.746326 40.668804 204.247752 40.17023 
C 203.749178 39.671656 203.072871 39.39152 202.367781 39.39152 
C 201.662691 39.39152 200.986384 39.671656 200.48781 40.17023 
C 199.989236 40.668804 199.7091 41.345111 199.7091 42.050201 
C 199.7091 42.755291 199.989236 43.431598 200.48781 43.930172 
C 200.986384 44.428746 201.662691 44.708882 202.367781 44.708882 
z
" style="fill:#e69f00;fill-opacity:0.25098;stroke:#e69f00;stroke-opacity:0.25098;stroke-width:0.886227;"/>
    <path clip-path="url(#p41802f5a1e)" d="M 203.443271 18.045751 
C 204.148362 18.045751 204.824668 17.765615 205.323243 17.267041 
C 205.821817 16.768467 206.101952 16.09216 206.101952 15.38707 
C 206.101952 14.681979 205.821817 14.005673 205.323243 13.507099 
C 204.824668 13.008524 204.148362 12.728389 203.443271 12.728389 
C 202.738181 12.728389 202.061874 13.008524 201.5633 13.507099 
C 201.064726 14.005673 200.784591 14.681979 200.784591 15.38707 
C 200.784591 16.09216 201.064726 16.768467 201.5633 17.267041 
C 202.061874 17.765615 202.738181 18.045751 203.443271 18.045751 
z
" style="fill:#e69f00;fill-opacity:0.25098;stroke:#e69f00;stroke-opacity:0.25098;stroke-width:0.886227;"/>
    <path clip-path="url(#p41802f5a1e)" d="M 196.960695 98.701274 
C 197.665786 98.701274 198.342092 98.421139 198.840667 97.922565 
C 199.339241 97.42399 199.619376 96.747684 199.619376 96.042593 
C 199.619376 95.337503 199.339241 94.661196 198.840667 94.162622 
C 198.342092 93.664048 197.665786 93.383913 196.960695 93.383913 
C 196.255605 93.383913 195.579298 93.664048 195.080724 94.162622 
C 194.58215 94.661196 194.302015 95.337503 194.302015 96.042593 
C 194.302015 96.747684 194.58215 97.42399 195.080724 97.922565 
C 195.579298 98.421139 196.255605 98.701274 196.960695 98.701274 
z
" style="fill:#e69f00;fill-opacity:0.25098;stroke:#e69f00;stroke-opacity:0.25098;stroke-width:0.886227;"/>
    <path clip-path="url(#p41802f5a1e)" d="M 190.483777 100.903494 
C 191.188868 100.903494 191.865174 100.623359 192.363748 100.124785 
C 192.862323 99.626211 193.142458 98.949904 193.142458 98.244813 
C 193.142458 97.539723 192.862323 96.863416 192.363748 96.364842 
C 191.865174 95.866268 191.188868 95.586133 190.483777 95.586133 
C 189.778687 95.586133 189.10238 95.866268 188.603806 96.364842 
C 188.105232 96.863416 187.825096 97.539723 187.825096 98.244813 
C 187.825096 98.949904 188.105232 99.626211 188.603806 100.124785 
C 189.10238 100.623359 189.778687 100.903494 190.483777 100.903494 
z
" style="fill:#e69f00;fill-opacity:0.25098;stroke:#e69f00;stroke-opacity:0.25098;stroke-width:0.886227;"/>
   </g>
   <g id="patch_3">
    <path d="M 164.152813 118.08 
L 164.152813 7.2 
" style="fill:none;stroke:#000000;stroke-linecap:square;stroke-linejoin:miter;"/>
   </g>
   <g id="patch_4">
    <path d="M 164.152813 118.08 
L 275.752813 118.08 
" style="fill:none;stroke:#000000;stroke-linecap:square;stroke-linejoin:miter;"/>
   </g>
   <g id="patch_5">
    <path d="M 282.952812 98.635937 
L 384.318188 98.635937 
L 384.318188 25.204062 
L 282.952812 25.204062 
z
" style="fill:#ffffff;"/>
   </g>
   <g id="text_16">
    <!-- sample_type -->
    <g transform="translate(295.152812 48.644687)scale(0.11 -0.11)">
     <use xlink:href="#DejaVuSans-115"/>
     <use x="52.099609" xlink:href="#DejaVuSans-97"/>
     <use x="113.378906" xlink:href="#DejaVuSans-109"/>
     <use x="210.791016" xlink:href="#DejaVuSans-112"/>
     <use x="274.267578" xlink:href="#DejaVuSans-108"/>
     <use x="302.050781" xlink:href="#DejaVuSans-101"/>
     <use x="363.574219" xlink:href="#DejaVuSans-95"/>
     <use x="413.574219" xlink:href="#DejaVuSans-116"/>
     <use x="452.783203" xlink:href="#DejaVuSans-121"/>
     <use x="511.962891" xlink:href="#DejaVuSans-112"/>
     <use x="575.439453" xlink:href="#DejaVuSans-101"/>
    </g>
   </g>
   <g id="patch_6">
    <path clip-path="url(#pd421209827)" d="M 295.152812 68.595937 
L 310.992812 68.595937 
L 310.992812 52.755937 
L 295.152812 52.755937 
z
" style="fill:none;"/>
   </g>
   <g id="line2d_14">
    <path clip-path="url(#pd421209827)" d="M 303.072812 60.675937 
" style="fill:none;stroke:#1f77b4;stroke-linecap:square;stroke-opacity:0.25;stroke-width:1.5;"/>
    <defs>
     <path d="M 0 2.658681 
C 0.70509 2.658681 1.381397 2.378545 1.879971 1.879971 
C 2.378545 1.381397 2.658681 0.70509 2.658681 0 
C 2.658681 -0.70509 2.378545 -1.381397 1.879971 -1.879971 
C 1.381397 -2.378545 0.70509 -2.658681 0 -2.658681 
C -0.70509 -2.658681 -1.381397 -2.378545 -1.879971 -1.879971 
C -2.378545 -1.381397 -2.658681 -0.70509 -2.658681 0 
C -2.658681 0.70509 -2.378545 1.381397 -1.879971 1.879971 
C -1.381397 2.378545 -0.70509 2.658681 0 2.658681 
z
" id="mea5ed1a333" style="stroke:#e69f00;stroke-opacity:0.25;stroke-width:0.886227;"/>
    </defs>
    <g clip-path="url(#pd421209827)">
     <use style="fill:#e69f00;fill-opacity:0.25;stroke:#e69f00;stroke-opacity:0.25;stroke-width:0.886227;" x="303.072812" xlink:href="#mea5ed1a333" y="60.675937"/>
    </g>
   </g>
   <g id="text_17">
    <!-- convalescent -->
    <defs>
     <path d="M 2.984375 54.6875 
L 12.5 54.6875 
L 29.59375 8.796875 
L 46.6875 54.6875 
L 56.203125 54.6875 
L 35.6875 0 
L 23.484375 0 
z
" id="DejaVuSans-118"/>
    </defs>
    <g transform="translate(313.992813 63.104187)scale(0.088 -0.088)">
     <use xlink:href="#DejaVuSans-99"/>
     <use x="54.980469" xlink:href="#DejaVuSans-111"/>
     <use x="116.162109" xlink:href="#DejaVuSans-110"/>
     <use x="179.541016" xlink:href="#DejaVuSans-118"/>
     <use x="238.720703" xlink:href="#DejaVuSans-97"/>
     <use x="300" xlink:href="#DejaVuSans-108"/>
     <use x="327.783203" xlink:href="#DejaVuSans-101"/>
     <use x="389.306641" xlink:href="#DejaVuSans-115"/>
     <use x="441.40625" xlink:href="#DejaVuSans-99"/>
     <use x="496.386719" xlink:href="#DejaVuSans-101"/>
     <use x="557.910156" xlink:href="#DejaVuSans-110"/>
     <use x="621.289062" xlink:href="#DejaVuSans-116"/>
    </g>
   </g>
   <g id="patch_7">
    <path clip-path="url(#pa1effe6f7b)" d="M 295.152812 86.435937 
L 310.992812 86.435937 
L 310.992812 70.595937 
L 295.152812 70.595937 
z
" style="fill:none;"/>
   </g>
   <g id="line2d_15">
    <path clip-path="url(#pa1effe6f7b)" d="M 303.072812 78.515937 
" style="fill:none;stroke:#1f77b4;stroke-linecap:square;stroke-opacity:0.25;stroke-width:1.5;"/>
    <defs>
     <path d="M 0 2.658681 
C 0.70509 2.658681 1.381397 2.378545 1.879971 1.879971 
C 2.378545 1.381397 2.658681 0.70509 2.658681 0 
C 2.658681 -0.70509 2.378545 -1.381397 1.879971 -1.879971 
C 1.381397 -2.378545 0.70509 -2.658681 0 -2.658681 
C -0.70509 -2.658681 -1.381397 -2.378545 -1.879971 -1.879971 
C -2.378545 -1.381397 -2.658681 -0.70509 -2.658681 0 
C -2.658681 0.70509 -2.378545 1.381397 -1.879971 1.879971 
C -1.381397 2.378545 -0.70509 2.658681 0 2.658681 
z
" id="me07a2e8b47" style="stroke:#56b4e9;stroke-opacity:0.25;stroke-width:0.886227;"/>
    </defs>
    <g clip-path="url(#pa1effe6f7b)">
     <use style="fill:#56b4e9;fill-opacity:0.25;stroke:#56b4e9;stroke-opacity:0.25;stroke-width:0.886227;" x="303.072812" xlink:href="#me07a2e8b47" y="78.515937"/>
    </g>
   </g>
   <g id="text_18">
    <!-- vaccine -->
    <g transform="translate(313.992813 80.944187)scale(0.088 -0.088)">
     <use xlink:href="#DejaVuSans-118"/>
     <use x="59.179688" xlink:href="#DejaVuSans-97"/>
     <use x="120.458984" xlink:href="#DejaVuSans-99"/>
     <use x="175.439453" xlink:href="#DejaVuSans-99"/>
     <use x="230.419922" xlink:href="#DejaVuSans-105"/>
     <use x="258.203125" xlink:href="#DejaVuSans-110"/>
     <use x="321.582031" xlink:href="#DejaVuSans-101"/>
    </g>
   </g>
  </g>
 </g>
 <defs>
  <clipPath id="p41802f5a1e">
   <rect height="110.88" width="111.6" x="164.152813" y="7.2"/>
  </clipPath>
  <clipPath id="pd421209827">
   <path d="M 295.152812 68.595937 
L 295.152812 52.755937 
L 310.992812 52.755937 
L 310.992812 68.595937 
"/>
  </clipPath>
  <clipPath id="pa1effe6f7b">
   <path d="M 295.152812 86.435937 
L 295.152812 70.595937 
L 310.992812 70.595937 
L 310.992812 86.435937 
"/>
  </clipPath>
 </defs>
</svg>
