<?xml version="1.0" encoding="utf-8" standalone="no"?>
<!DOCTYPE svg PUBLIC "-//W3C//DTD SVG 1.1//EN"
  "http://www.w3.org/Graphics/SVG/1.1/DTD/svg11.dtd">
<!-- Created with matplotlib (https://matplotlib.org/) -->
<svg height="156.779875pt" version="1.1" viewBox="0 0 282.952812 156.779875" width="282.952812pt" xmlns="http://www.w3.org/2000/svg" xmlns:xlink="http://www.w3.org/1999/xlink">
 <defs>
  <style type="text/css">
*{stroke-linecap:butt;stroke-linejoin:round;}
  </style>
 </defs>
 <g id="figure_1">
  <g id="patch_1">
   <path d="M 0 156.779875 
L 282.952812 156.779875 
L 282.952812 0 
L 0 0 
z
" style="fill:#ffffff;stroke:#ffffff;stroke-linejoin:miter;"/>
  </g>
  <g id="axes_1">
   <g id="patch_2">
    <path d="M 164.152813 118.08 
L 275.752813 118.08 
L 275.752813 7.2 
L 164.152813 7.2 
z
" style="fill:#ffffff;"/>
   </g>
   <g id="matplotlib.axis_1">
    <g id="xtick_1">
     <g id="line2d_1">
      <path d="M 164.712984 118.08 
" style="fill:none;stroke:#333333;stroke-width:1.5;"/>
      <defs>
       <path d="M 0 0 
L 0 2.75 
" id="mf02b22763c" style="stroke:#333333;"/>
      </defs>
      <g>
       <use style="fill:#333333;stroke:#333333;" x="164.712984" xlink:href="#mf02b22763c" y="118.08"/>
      </g>
     </g>
     <g id="text_1">
      <!-- 6 -->
      <defs>
       <path d="M 33.015625 40.375 
Q 26.375 40.375 22.484375 35.828125 
Q 18.609375 31.296875 18.609375 23.390625 
Q 18.609375 15.53125 22.484375 10.953125 
Q 26.375 6.390625 33.015625 6.390625 
Q 39.65625 6.390625 43.53125 10.953125 
Q 47.40625 15.53125 47.40625 23.390625 
Q 47.40625 31.296875 43.53125 35.828125 
Q 39.65625 40.375 33.015625 40.375 
z
M 52.59375 71.296875 
L 52.59375 62.3125 
Q 48.875 64.0625 45.09375 64.984375 
Q 41.3125 65.921875 37.59375 65.921875 
Q 27.828125 65.921875 22.671875 59.328125 
Q 17.53125 52.734375 16.796875 39.40625 
Q 19.671875 43.65625 24.015625 45.921875 
Q 28.375 48.1875 33.59375 48.1875 
Q 44.578125 48.1875 50.953125 41.515625 
Q 57.328125 34.859375 57.328125 23.390625 
Q 57.328125 12.15625 50.6875 5.359375 
Q 44.046875 -1.421875 33.015625 -1.421875 
Q 20.359375 -1.421875 13.671875 8.265625 
Q 6.984375 17.96875 6.984375 36.375 
Q 6.984375 53.65625 15.1875 63.9375 
Q 23.390625 74.21875 37.203125 74.21875 
Q 40.921875 74.21875 44.703125 73.484375 
Q 48.484375 72.75 52.59375 71.296875 
z
" id="DejaVuSans-54"/>
      </defs>
      <g style="fill:#4d4d4d;" transform="translate(167.141234 128.629)rotate(-90)scale(0.088 -0.088)">
       <use xlink:href="#DejaVuSans-54"/>
      </g>
     </g>
    </g>
    <g id="xtick_2">
     <g id="line2d_2">
      <path d="M 188.925766 118.08 
" style="fill:none;stroke:#333333;stroke-width:1.5;"/>
      <g>
       <use style="fill:#333333;stroke:#333333;" x="188.925766" xlink:href="#mf02b22763c" y="118.08"/>
      </g>
     </g>
     <g id="text_2">
      <!-- 7 -->
      <defs>
       <path d="M 8.203125 72.90625 
L 55.078125 72.90625 
L 55.078125 68.703125 
L 28.609375 0 
L 18.3125 0 
L 43.21875 64.59375 
L 8.203125 64.59375 
z
" id="DejaVuSans-55"/>
      </defs>
      <g style="fill:#4d4d4d;" transform="translate(191.354016 128.629)rotate(-90)scale(0.088 -0.088)">
       <use xlink:href="#DejaVuSans-55"/>
      </g>
     </g>
    </g>
    <g id="xtick_3">
     <g id="line2d_3">
      <path d="M 213.138549 118.08 
" style="fill:none;stroke:#333333;stroke-width:1.5;"/>
      <g>
       <use style="fill:#333333;stroke:#333333;" x="213.138549" xlink:href="#mf02b22763c" y="118.08"/>
      </g>
     </g>
     <g id="text_3">
      <!-- 8 -->
      <defs>
       <path d="M 31.78125 34.625 
Q 24.75 34.625 20.71875 30.859375 
Q 16.703125 27.09375 16.703125 20.515625 
Q 16.703125 13.921875 20.71875 10.15625 
Q 24.75 6.390625 31.78125 6.390625 
Q 38.8125 6.390625 42.859375 10.171875 
Q 46.921875 13.96875 46.921875 20.515625 
Q 46.921875 27.09375 42.890625 30.859375 
Q 38.875 34.625 31.78125 34.625 
z
M 21.921875 38.8125 
Q 15.578125 40.375 12.03125 44.71875 
Q 8.5 49.078125 8.5 55.328125 
Q 8.5 64.0625 14.71875 69.140625 
Q 20.953125 74.21875 31.78125 74.21875 
Q 42.671875 74.21875 48.875 69.140625 
Q 55.078125 64.0625 55.078125 55.328125 
Q 55.078125 49.078125 51.53125 44.71875 
Q 48 40.375 41.703125 38.8125 
Q 48.828125 37.15625 52.796875 32.3125 
Q 56.78125 27.484375 56.78125 20.515625 
Q 56.78125 9.90625 50.3125 4.234375 
Q 43.84375 -1.421875 31.78125 -1.421875 
Q 19.734375 -1.421875 13.25 4.234375 
Q 6.78125 9.90625 6.78125 20.515625 
Q 6.78125 27.484375 10.78125 32.3125 
Q 14.796875 37.15625 21.921875 38.8125 
z
M 18.3125 54.390625 
Q 18.3125 48.734375 21.84375 45.5625 
Q 25.390625 42.390625 31.78125 42.390625 
Q 38.140625 42.390625 41.71875 45.5625 
Q 45.3125 48.734375 45.3125 54.390625 
Q 45.3125 60.0625 41.71875 63.234375 
Q 38.140625 66.40625 31.78125 66.40625 
Q 25.390625 66.40625 21.84375 63.234375 
Q 18.3125 60.0625 18.3125 54.390625 
z
" id="DejaVuSans-56"/>
      </defs>
      <g style="fill:#4d4d4d;" transform="translate(215.566799 128.629)rotate(-90)scale(0.088 -0.088)">
       <use xlink:href="#DejaVuSans-56"/>
      </g>
     </g>
    </g>
    <g id="xtick_4">
     <g id="line2d_4">
      <path d="M 237.351332 118.08 
" style="fill:none;stroke:#333333;stroke-width:1.5;"/>
      <g>
       <use style="fill:#333333;stroke:#333333;" x="237.351332" xlink:href="#mf02b22763c" y="118.08"/>
      </g>
     </g>
     <g id="text_4">
      <!-- 9 -->
      <defs>
       <path d="M 10.984375 1.515625 
L 10.984375 10.5 
Q 14.703125 8.734375 18.5 7.8125 
Q 22.3125 6.890625 25.984375 6.890625 
Q 35.75 6.890625 40.890625 13.453125 
Q 46.046875 20.015625 46.78125 33.40625 
Q 43.953125 29.203125 39.59375 26.953125 
Q 35.25 24.703125 29.984375 24.703125 
Q 19.046875 24.703125 12.671875 31.3125 
Q 6.296875 37.9375 6.296875 49.421875 
Q 6.296875 60.640625 12.9375 67.421875 
Q 19.578125 74.21875 30.609375 74.21875 
Q 43.265625 74.21875 49.921875 64.515625 
Q 56.59375 54.828125 56.59375 36.375 
Q 56.59375 19.140625 48.40625 8.859375 
Q 40.234375 -1.421875 26.421875 -1.421875 
Q 22.703125 -1.421875 18.890625 -0.6875 
Q 15.09375 0.046875 10.984375 1.515625 
z
M 30.609375 32.421875 
Q 37.25 32.421875 41.125 36.953125 
Q 45.015625 41.5 45.015625 49.421875 
Q 45.015625 57.28125 41.125 61.84375 
Q 37.25 66.40625 30.609375 66.40625 
Q 23.96875 66.40625 20.09375 61.84375 
Q 16.21875 57.28125 16.21875 49.421875 
Q 16.21875 41.5 20.09375 36.953125 
Q 23.96875 32.421875 30.609375 32.421875 
z
" id="DejaVuSans-57"/>
      </defs>
      <g style="fill:#4d4d4d;" transform="translate(239.779582 128.629)rotate(-90)scale(0.088 -0.088)">
       <use xlink:href="#DejaVuSans-57"/>
      </g>
     </g>
    </g>
    <g id="xtick_5">
     <g id="line2d_5">
      <path d="M 261.564114 118.08 
" style="fill:none;stroke:#333333;stroke-width:1.5;"/>
      <g>
       <use style="fill:#333333;stroke:#333333;" x="261.564114" xlink:href="#mf02b22763c" y="118.08"/>
      </g>
     </g>
     <g id="text_5">
      <!-- 10 -->
      <defs>
       <path d="M 12.40625 8.296875 
L 28.515625 8.296875 
L 28.515625 63.921875 
L 10.984375 60.40625 
L 10.984375 69.390625 
L 28.421875 72.90625 
L 38.28125 72.90625 
L 38.28125 8.296875 
L 54.390625 8.296875 
L 54.390625 0 
L 12.40625 0 
z
" id="DejaVuSans-49"/>
       <path d="M 31.78125 66.40625 
Q 24.171875 66.40625 20.328125 58.90625 
Q 16.5 51.421875 16.5 36.375 
Q 16.5 21.390625 20.328125 13.890625 
Q 24.171875 6.390625 31.78125 6.390625 
Q 39.453125 6.390625 43.28125 13.890625 
Q 47.125 21.390625 47.125 36.375 
Q 47.125 51.421875 43.28125 58.90625 
Q 39.453125 66.40625 31.78125 66.40625 
z
M 31.78125 74.21875 
Q 44.046875 74.21875 50.515625 64.515625 
Q 56.984375 54.828125 56.984375 36.375 
Q 56.984375 17.96875 50.515625 8.265625 
Q 44.046875 -1.421875 31.78125 -1.421875 
Q 19.53125 -1.421875 13.0625 8.265625 
Q 6.59375 17.96875 6.59375 36.375 
Q 6.59375 54.828125 13.0625 64.515625 
Q 19.53125 74.21875 31.78125 74.21875 
z
" id="DejaVuSans-48"/>
      </defs>
      <g style="fill:#4d4d4d;" transform="translate(263.992364 134.228)rotate(-90)scale(0.088 -0.088)">
       <use xlink:href="#DejaVuSans-49"/>
       <use x="63.623047" xlink:href="#DejaVuSans-48"/>
      </g>
     </g>
    </g>
    <g id="xtick_6"/>
    <g id="xtick_7"/>
    <g id="xtick_8"/>
    <g id="xtick_9"/>
    <g id="xtick_10"/>
    <g id="text_6">
     <!-- log2_sortdilution -->
     <defs>
      <path d="M 9.421875 75.984375 
L 18.40625 75.984375 
L 18.40625 0 
L 9.421875 0 
z
" id="DejaVuSans-108"/>
      <path d="M 30.609375 48.390625 
Q 23.390625 48.390625 19.1875 42.75 
Q 14.984375 37.109375 14.984375 27.296875 
Q 14.984375 17.484375 19.15625 11.84375 
Q 23.34375 6.203125 30.609375 6.203125 
Q 37.796875 6.203125 41.984375 11.859375 
Q 46.1875 17.53125 46.1875 27.296875 
Q 46.1875 37.015625 41.984375 42.703125 
Q 37.796875 48.390625 30.609375 48.390625 
z
M 30.609375 56 
Q 42.328125 56 49.015625 48.375 
Q 55.71875 40.765625 55.71875 27.296875 
Q 55.71875 13.875 49.015625 6.21875 
Q 42.328125 -1.421875 30.609375 -1.421875 
Q 18.84375 -1.421875 12.171875 6.21875 
Q 5.515625 13.875 5.515625 27.296875 
Q 5.515625 40.765625 12.171875 48.375 
Q 18.84375 56 30.609375 56 
z
" id="DejaVuSans-111"/>
      <path d="M 45.40625 27.984375 
Q 45.40625 37.75 41.375 43.109375 
Q 37.359375 48.484375 30.078125 48.484375 
Q 22.859375 48.484375 18.828125 43.109375 
Q 14.796875 37.75 14.796875 27.984375 
Q 14.796875 18.265625 18.828125 12.890625 
Q 22.859375 7.515625 30.078125 7.515625 
Q 37.359375 7.515625 41.375 12.890625 
Q 45.40625 18.265625 45.40625 27.984375 
z
M 54.390625 6.78125 
Q 54.390625 -7.171875 48.1875 -13.984375 
Q 42 -20.796875 29.203125 -20.796875 
Q 24.46875 -20.796875 20.265625 -20.09375 
Q 16.0625 -19.390625 12.109375 -17.921875 
L 12.109375 -9.1875 
Q 16.0625 -11.328125 19.921875 -12.34375 
Q 23.78125 -13.375 27.78125 -13.375 
Q 36.625 -13.375 41.015625 -8.765625 
Q 45.40625 -4.15625 45.40625 5.171875 
L 45.40625 9.625 
Q 42.625 4.78125 38.28125 2.390625 
Q 33.9375 0 27.875 0 
Q 17.828125 0 11.671875 7.65625 
Q 5.515625 15.328125 5.515625 27.984375 
Q 5.515625 40.671875 11.671875 48.328125 
Q 17.828125 56 27.875 56 
Q 33.9375 56 38.28125 53.609375 
Q 42.625 51.21875 45.40625 46.390625 
L 45.40625 54.6875 
L 54.390625 54.6875 
z
" id="DejaVuSans-103"/>
      <path d="M 19.1875 8.296875 
L 53.609375 8.296875 
L 53.609375 0 
L 7.328125 0 
L 7.328125 8.296875 
Q 12.9375 14.109375 22.625 23.890625 
Q 32.328125 33.6875 34.8125 36.53125 
Q 39.546875 41.84375 41.421875 45.53125 
Q 43.3125 49.21875 43.3125 52.78125 
Q 43.3125 58.59375 39.234375 62.25 
Q 35.15625 65.921875 28.609375 65.921875 
Q 23.96875 65.921875 18.8125 64.3125 
Q 13.671875 62.703125 7.8125 59.421875 
L 7.8125 69.390625 
Q 13.765625 71.78125 18.9375 73 
Q 24.125 74.21875 28.421875 74.21875 
Q 39.75 74.21875 46.484375 68.546875 
Q 53.21875 62.890625 53.21875 53.421875 
Q 53.21875 48.921875 51.53125 44.890625 
Q 49.859375 40.875 45.40625 35.40625 
Q 44.1875 33.984375 37.640625 27.21875 
Q 31.109375 20.453125 19.1875 8.296875 
z
" id="DejaVuSans-50"/>
      <path d="M 50.984375 -16.609375 
L 50.984375 -23.578125 
L -0.984375 -23.578125 
L -0.984375 -16.609375 
z
" id="DejaVuSans-95"/>
      <path d="M 44.28125 53.078125 
L 44.28125 44.578125 
Q 40.484375 46.53125 36.375 47.5 
Q 32.28125 48.484375 27.875 48.484375 
Q 21.1875 48.484375 17.84375 46.4375 
Q 14.5 44.390625 14.5 40.28125 
Q 14.5 37.15625 16.890625 35.375 
Q 19.28125 33.59375 26.515625 31.984375 
L 29.59375 31.296875 
Q 39.15625 29.25 43.1875 25.515625 
Q 47.21875 21.78125 47.21875 15.09375 
Q 47.21875 7.46875 41.1875 3.015625 
Q 35.15625 -1.421875 24.609375 -1.421875 
Q 20.21875 -1.421875 15.453125 -0.5625 
Q 10.6875 0.296875 5.421875 2 
L 5.421875 11.28125 
Q 10.40625 8.6875 15.234375 7.390625 
Q 20.0625 6.109375 24.8125 6.109375 
Q 31.15625 6.109375 34.5625 8.28125 
Q 37.984375 10.453125 37.984375 14.40625 
Q 37.984375 18.0625 35.515625 20.015625 
Q 33.0625 21.96875 24.703125 23.78125 
L 21.578125 24.515625 
Q 13.234375 26.265625 9.515625 29.90625 
Q 5.8125 33.546875 5.8125 39.890625 
Q 5.8125 47.609375 11.28125 51.796875 
Q 16.75 56 26.8125 56 
Q 31.78125 56 36.171875 55.265625 
Q 40.578125 54.546875 44.28125 53.078125 
z
" id="DejaVuSans-115"/>
      <path d="M 41.109375 46.296875 
Q 39.59375 47.171875 37.8125 47.578125 
Q 36.03125 48 33.890625 48 
Q 26.265625 48 22.1875 43.046875 
Q 18.109375 38.09375 18.109375 28.8125 
L 18.109375 0 
L 9.078125 0 
L 9.078125 54.6875 
L 18.109375 54.6875 
L 18.109375 46.1875 
Q 20.953125 51.171875 25.484375 53.578125 
Q 30.03125 56 36.53125 56 
Q 37.453125 56 38.578125 55.875 
Q 39.703125 55.765625 41.0625 55.515625 
z
" id="DejaVuSans-114"/>
      <path d="M 18.3125 70.21875 
L 18.3125 54.6875 
L 36.8125 54.6875 
L 36.8125 47.703125 
L 18.3125 47.703125 
L 18.3125 18.015625 
Q 18.3125 11.328125 20.140625 9.421875 
Q 21.96875 7.515625 27.59375 7.515625 
L 36.8125 7.515625 
L 36.8125 0 
L 27.59375 0 
Q 17.1875 0 13.234375 3.875 
Q 9.28125 7.765625 9.28125 18.015625 
L 9.28125 47.703125 
L 2.6875 47.703125 
L 2.6875 54.6875 
L 9.28125 54.6875 
L 9.28125 70.21875 
z
" id="DejaVuSans-116"/>
      <path d="M 45.40625 46.390625 
L 45.40625 75.984375 
L 54.390625 75.984375 
L 54.390625 0 
L 45.40625 0 
L 45.40625 8.203125 
Q 42.578125 3.328125 38.25 0.953125 
Q 33.9375 -1.421875 27.875 -1.421875 
Q 17.96875 -1.421875 11.734375 6.484375 
Q 5.515625 14.40625 5.515625 27.296875 
Q 5.515625 40.1875 11.734375 48.09375 
Q 17.96875 56 27.875 56 
Q 33.9375 56 38.25 53.625 
Q 42.578125 51.265625 45.40625 46.390625 
z
M 14.796875 27.296875 
Q 14.796875 17.390625 18.875 11.75 
Q 22.953125 6.109375 30.078125 6.109375 
Q 37.203125 6.109375 41.296875 11.75 
Q 45.40625 17.390625 45.40625 27.296875 
Q 45.40625 37.203125 41.296875 42.84375 
Q 37.203125 48.484375 30.078125 48.484375 
Q 22.953125 48.484375 18.875 42.84375 
Q 14.796875 37.203125 14.796875 27.296875 
z
" id="DejaVuSans-100"/>
      <path d="M 9.421875 54.6875 
L 18.40625 54.6875 
L 18.40625 0 
L 9.421875 0 
z
M 9.421875 75.984375 
L 18.40625 75.984375 
L 18.40625 64.59375 
L 9.421875 64.59375 
z
" id="DejaVuSans-105"/>
      <path d="M 8.5 21.578125 
L 8.5 54.6875 
L 17.484375 54.6875 
L 17.484375 21.921875 
Q 17.484375 14.15625 20.5 10.265625 
Q 23.53125 6.390625 29.59375 6.390625 
Q 36.859375 6.390625 41.078125 11.03125 
Q 45.3125 15.671875 45.3125 23.6875 
L 45.3125 54.6875 
L 54.296875 54.6875 
L 54.296875 0 
L 45.3125 0 
L 45.3125 8.40625 
Q 42.046875 3.421875 37.71875 1 
Q 33.40625 -1.421875 27.6875 -1.421875 
Q 18.265625 -1.421875 13.375 4.4375 
Q 8.5 10.296875 8.5 21.578125 
z
M 31.109375 56 
z
" id="DejaVuSans-117"/>
      <path d="M 54.890625 33.015625 
L 54.890625 0 
L 45.90625 0 
L 45.90625 32.71875 
Q 45.90625 40.484375 42.875 44.328125 
Q 39.84375 48.1875 33.796875 48.1875 
Q 26.515625 48.1875 22.3125 43.546875 
Q 18.109375 38.921875 18.109375 30.90625 
L 18.109375 0 
L 9.078125 0 
L 9.078125 54.6875 
L 18.109375 54.6875 
L 18.109375 46.1875 
Q 21.34375 51.125 25.703125 53.5625 
Q 30.078125 56 35.796875 56 
Q 45.21875 56 50.046875 50.171875 
Q 54.890625 44.34375 54.890625 33.015625 
z
" id="DejaVuSans-110"/>
     </defs>
     <g transform="translate(172.302578 146.986281)scale(0.11 -0.11)">
      <use xlink:href="#DejaVuSans-108"/>
      <use x="27.783203" xlink:href="#DejaVuSans-111"/>
      <use x="88.964844" xlink:href="#DejaVuSans-103"/>
      <use x="152.441406" xlink:href="#DejaVuSans-50"/>
      <use x="216.064453" xlink:href="#DejaVuSans-95"/>
      <use x="266.064453" xlink:href="#DejaVuSans-115"/>
      <use x="318.164062" xlink:href="#DejaVuSans-111"/>
      <use x="379.345703" xlink:href="#DejaVuSans-114"/>
      <use x="420.458984" xlink:href="#DejaVuSans-116"/>
      <use x="459.667969" xlink:href="#DejaVuSans-100"/>
      <use x="523.144531" xlink:href="#DejaVuSans-105"/>
      <use x="550.927734" xlink:href="#DejaVuSans-108"/>
      <use x="578.710938" xlink:href="#DejaVuSans-117"/>
      <use x="642.089844" xlink:href="#DejaVuSans-116"/>
      <use x="681.298828" xlink:href="#DejaVuSans-105"/>
      <use x="709.082031" xlink:href="#DejaVuSans-111"/>
      <use x="770.263672" xlink:href="#DejaVuSans-110"/>
     </g>
    </g>
   </g>
   <g id="matplotlib.axis_2">
    <g id="ytick_1">
     <g id="line2d_6">
      <path d="M 164.152813 109.966829 
" style="fill:none;stroke:#333333;stroke-width:1.5;"/>
      <defs>
       <path d="M 0 0 
L -2.75 0 
" id="m1c8ea2d2a0" style="stroke:#333333;"/>
      </defs>
      <g>
       <use style="fill:#333333;stroke:#333333;" x="164.152813" xlink:href="#m1c8ea2d2a0" y="109.966829"/>
      </g>
     </g>
     <g id="text_7">
      <!-- 456-484 -->
      <defs>
       <path d="M 37.796875 64.3125 
L 12.890625 25.390625 
L 37.796875 25.390625 
z
M 35.203125 72.90625 
L 47.609375 72.90625 
L 47.609375 25.390625 
L 58.015625 25.390625 
L 58.015625 17.1875 
L 47.609375 17.1875 
L 47.609375 0 
L 37.796875 0 
L 37.796875 17.1875 
L 4.890625 17.1875 
L 4.890625 26.703125 
z
" id="DejaVuSans-52"/>
       <path d="M 10.796875 72.90625 
L 49.515625 72.90625 
L 49.515625 64.59375 
L 19.828125 64.59375 
L 19.828125 46.734375 
Q 21.96875 47.46875 24.109375 47.828125 
Q 26.265625 48.1875 28.421875 48.1875 
Q 40.625 48.1875 47.75 41.5 
Q 54.890625 34.8125 54.890625 23.390625 
Q 54.890625 11.625 47.5625 5.09375 
Q 40.234375 -1.421875 26.90625 -1.421875 
Q 22.3125 -1.421875 17.546875 -0.640625 
Q 12.796875 0.140625 7.71875 1.703125 
L 7.71875 11.625 
Q 12.109375 9.234375 16.796875 8.0625 
Q 21.484375 6.890625 26.703125 6.890625 
Q 35.15625 6.890625 40.078125 11.328125 
Q 45.015625 15.765625 45.015625 23.390625 
Q 45.015625 31 40.078125 35.4375 
Q 35.15625 39.890625 26.703125 39.890625 
Q 22.75 39.890625 18.8125 39.015625 
Q 14.890625 38.140625 10.796875 36.28125 
z
" id="DejaVuSans-53"/>
       <path d="M 4.890625 31.390625 
L 31.203125 31.390625 
L 31.203125 23.390625 
L 4.890625 23.390625 
z
" id="DejaVuSans-45"/>
      </defs>
      <g style="fill:#4d4d4d;" transform="translate(122.433938 112.395079)scale(0.088 -0.088)">
       <use xlink:href="#DejaVuSans-52"/>
       <use x="63.623047" xlink:href="#DejaVuSans-53"/>
       <use x="127.246094" xlink:href="#DejaVuSans-54"/>
       <use x="190.869141" xlink:href="#DejaVuSans-45"/>
       <use x="226.953125" xlink:href="#DejaVuSans-52"/>
       <use x="290.576172" xlink:href="#DejaVuSans-56"/>
       <use x="354.199219" xlink:href="#DejaVuSans-52"/>
      </g>
     </g>
    </g>
    <g id="ytick_2">
     <g id="line2d_7">
      <path d="M 164.152813 96.444878 
" style="fill:none;stroke:#333333;stroke-width:1.5;"/>
      <g>
       <use style="fill:#333333;stroke:#333333;" x="164.152813" xlink:href="#m1c8ea2d2a0" y="96.444878"/>
      </g>
     </g>
     <g id="text_8">
      <!-- 456-484 low magnitude -->
      <defs>
       <path id="DejaVuSans-32"/>
       <path d="M 4.203125 54.6875 
L 13.1875 54.6875 
L 24.421875 12.015625 
L 35.59375 54.6875 
L 46.1875 54.6875 
L 57.421875 12.015625 
L 68.609375 54.6875 
L 77.59375 54.6875 
L 63.28125 0 
L 52.6875 0 
L 40.921875 44.828125 
L 29.109375 0 
L 18.5 0 
z
" id="DejaVuSans-119"/>
       <path d="M 52 44.1875 
Q 55.375 50.25 60.0625 53.125 
Q 64.75 56 71.09375 56 
Q 79.640625 56 84.28125 50.015625 
Q 88.921875 44.046875 88.921875 33.015625 
L 88.921875 0 
L 79.890625 0 
L 79.890625 32.71875 
Q 79.890625 40.578125 77.09375 44.375 
Q 74.3125 48.1875 68.609375 48.1875 
Q 61.625 48.1875 57.5625 43.546875 
Q 53.515625 38.921875 53.515625 30.90625 
L 53.515625 0 
L 44.484375 0 
L 44.484375 32.71875 
Q 44.484375 40.625 41.703125 44.40625 
Q 38.921875 48.1875 33.109375 48.1875 
Q 26.21875 48.1875 22.15625 43.53125 
Q 18.109375 38.875 18.109375 30.90625 
L 18.109375 0 
L 9.078125 0 
L 9.078125 54.6875 
L 18.109375 54.6875 
L 18.109375 46.1875 
Q 21.1875 51.21875 25.484375 53.609375 
Q 29.78125 56 35.6875 56 
Q 41.65625 56 45.828125 52.96875 
Q 50 49.953125 52 44.1875 
z
" id="DejaVuSans-109"/>
       <path d="M 34.28125 27.484375 
Q 23.390625 27.484375 19.1875 25 
Q 14.984375 22.515625 14.984375 16.5 
Q 14.984375 11.71875 18.140625 8.90625 
Q 21.296875 6.109375 26.703125 6.109375 
Q 34.1875 6.109375 38.703125 11.40625 
Q 43.21875 16.703125 43.21875 25.484375 
L 43.21875 27.484375 
z
M 52.203125 31.203125 
L 52.203125 0 
L 43.21875 0 
L 43.21875 8.296875 
Q 40.140625 3.328125 35.546875 0.953125 
Q 30.953125 -1.421875 24.3125 -1.421875 
Q 15.921875 -1.421875 10.953125 3.296875 
Q 6 8.015625 6 15.921875 
Q 6 25.140625 12.171875 29.828125 
Q 18.359375 34.515625 30.609375 34.515625 
L 43.21875 34.515625 
L 43.21875 35.40625 
Q 43.21875 41.609375 39.140625 45 
Q 35.0625 48.390625 27.6875 48.390625 
Q 23 48.390625 18.546875 47.265625 
Q 14.109375 46.140625 10.015625 43.890625 
L 10.015625 52.203125 
Q 14.9375 54.109375 19.578125 55.046875 
Q 24.21875 56 28.609375 56 
Q 40.484375 56 46.34375 49.84375 
Q 52.203125 43.703125 52.203125 31.203125 
z
" id="DejaVuSans-97"/>
       <path d="M 56.203125 29.59375 
L 56.203125 25.203125 
L 14.890625 25.203125 
Q 15.484375 15.921875 20.484375 11.0625 
Q 25.484375 6.203125 34.421875 6.203125 
Q 39.59375 6.203125 44.453125 7.46875 
Q 49.3125 8.734375 54.109375 11.28125 
L 54.109375 2.78125 
Q 49.265625 0.734375 44.1875 -0.34375 
Q 39.109375 -1.421875 33.890625 -1.421875 
Q 20.796875 -1.421875 13.15625 6.1875 
Q 5.515625 13.8125 5.515625 26.8125 
Q 5.515625 40.234375 12.765625 48.109375 
Q 20.015625 56 32.328125 56 
Q 43.359375 56 49.78125 48.890625 
Q 56.203125 41.796875 56.203125 29.59375 
z
M 47.21875 32.234375 
Q 47.125 39.59375 43.09375 43.984375 
Q 39.0625 48.390625 32.421875 48.390625 
Q 24.90625 48.390625 20.390625 44.140625 
Q 15.875 39.890625 15.1875 32.171875 
z
" id="DejaVuSans-101"/>
      </defs>
      <g style="fill:#4d4d4d;" transform="translate(54.213313 98.873128)scale(0.088 -0.088)">
       <use xlink:href="#DejaVuSans-52"/>
       <use x="63.623047" xlink:href="#DejaVuSans-53"/>
       <use x="127.246094" xlink:href="#DejaVuSans-54"/>
       <use x="190.869141" xlink:href="#DejaVuSans-45"/>
       <use x="226.953125" xlink:href="#DejaVuSans-52"/>
       <use x="290.576172" xlink:href="#DejaVuSans-56"/>
       <use x="354.199219" xlink:href="#DejaVuSans-52"/>
       <use x="417.822266" xlink:href="#DejaVuSans-32"/>
       <use x="449.609375" xlink:href="#DejaVuSans-108"/>
       <use x="477.392578" xlink:href="#DejaVuSans-111"/>
       <use x="538.574219" xlink:href="#DejaVuSans-119"/>
       <use x="620.361328" xlink:href="#DejaVuSans-32"/>
       <use x="652.148438" xlink:href="#DejaVuSans-109"/>
       <use x="749.560547" xlink:href="#DejaVuSans-97"/>
       <use x="810.839844" xlink:href="#DejaVuSans-103"/>
       <use x="874.316406" xlink:href="#DejaVuSans-110"/>
       <use x="937.695312" xlink:href="#DejaVuSans-105"/>
       <use x="965.478516" xlink:href="#DejaVuSans-116"/>
       <use x="1004.6875" xlink:href="#DejaVuSans-117"/>
       <use x="1068.066406" xlink:href="#DejaVuSans-100"/>
       <use x="1131.542969" xlink:href="#DejaVuSans-101"/>
      </g>
     </g>
    </g>
    <g id="ytick_3">
     <g id="line2d_8">
      <path d="M 164.152813 82.922927 
" style="fill:none;stroke:#333333;stroke-width:1.5;"/>
      <g>
       <use style="fill:#333333;stroke:#333333;" x="164.152813" xlink:href="#m1c8ea2d2a0" y="82.922927"/>
      </g>
     </g>
     <g id="text_9">
      <!-- 456-484 noisy -->
      <defs>
       <path d="M 32.171875 -5.078125 
Q 28.375 -14.84375 24.75 -17.8125 
Q 21.140625 -20.796875 15.09375 -20.796875 
L 7.90625 -20.796875 
L 7.90625 -13.28125 
L 13.1875 -13.28125 
Q 16.890625 -13.28125 18.9375 -11.515625 
Q 21 -9.765625 23.484375 -3.21875 
L 25.09375 0.875 
L 2.984375 54.6875 
L 12.5 54.6875 
L 29.59375 11.921875 
L 46.6875 54.6875 
L 56.203125 54.6875 
z
" id="DejaVuSans-121"/>
      </defs>
      <g style="fill:#4d4d4d;" transform="translate(96.438188 85.351177)scale(0.088 -0.088)">
       <use xlink:href="#DejaVuSans-52"/>
       <use x="63.623047" xlink:href="#DejaVuSans-53"/>
       <use x="127.246094" xlink:href="#DejaVuSans-54"/>
       <use x="190.869141" xlink:href="#DejaVuSans-45"/>
       <use x="226.953125" xlink:href="#DejaVuSans-52"/>
       <use x="290.576172" xlink:href="#DejaVuSans-56"/>
       <use x="354.199219" xlink:href="#DejaVuSans-52"/>
       <use x="417.822266" xlink:href="#DejaVuSans-32"/>
       <use x="449.609375" xlink:href="#DejaVuSans-110"/>
       <use x="512.988281" xlink:href="#DejaVuSans-111"/>
       <use x="574.169922" xlink:href="#DejaVuSans-105"/>
       <use x="601.953125" xlink:href="#DejaVuSans-115"/>
       <use x="654.052734" xlink:href="#DejaVuSans-121"/>
      </g>
     </g>
    </g>
    <g id="ytick_4">
     <g id="line2d_9">
      <path d="M 164.152813 69.400976 
" style="fill:none;stroke:#333333;stroke-width:1.5;"/>
      <g>
       <use style="fill:#333333;stroke:#333333;" x="164.152813" xlink:href="#m1c8ea2d2a0" y="69.400976"/>
      </g>
     </g>
     <g id="text_10">
      <!-- 456-484 low magnitude - noisy -->
      <g style="fill:#4d4d4d;" transform="translate(22.245937 71.829226)scale(0.088 -0.088)">
       <use xlink:href="#DejaVuSans-52"/>
       <use x="63.623047" xlink:href="#DejaVuSans-53"/>
       <use x="127.246094" xlink:href="#DejaVuSans-54"/>
       <use x="190.869141" xlink:href="#DejaVuSans-45"/>
       <use x="226.953125" xlink:href="#DejaVuSans-52"/>
       <use x="290.576172" xlink:href="#DejaVuSans-56"/>
       <use x="354.199219" xlink:href="#DejaVuSans-52"/>
       <use x="417.822266" xlink:href="#DejaVuSans-32"/>
       <use x="449.609375" xlink:href="#DejaVuSans-108"/>
       <use x="477.392578" xlink:href="#DejaVuSans-111"/>
       <use x="538.574219" xlink:href="#DejaVuSans-119"/>
       <use x="620.361328" xlink:href="#DejaVuSans-32"/>
       <use x="652.148438" xlink:href="#DejaVuSans-109"/>
       <use x="749.560547" xlink:href="#DejaVuSans-97"/>
       <use x="810.839844" xlink:href="#DejaVuSans-103"/>
       <use x="874.316406" xlink:href="#DejaVuSans-110"/>
       <use x="937.695312" xlink:href="#DejaVuSans-105"/>
       <use x="965.478516" xlink:href="#DejaVuSans-116"/>
       <use x="1004.6875" xlink:href="#DejaVuSans-117"/>
       <use x="1068.066406" xlink:href="#DejaVuSans-100"/>
       <use x="1131.542969" xlink:href="#DejaVuSans-101"/>
       <use x="1193.066406" xlink:href="#DejaVuSans-32"/>
       <use x="1224.853516" xlink:href="#DejaVuSans-45"/>
       <use x="1260.9375" xlink:href="#DejaVuSans-32"/>
       <use x="1292.724609" xlink:href="#DejaVuSans-110"/>
       <use x="1356.103516" xlink:href="#DejaVuSans-111"/>
       <use x="1417.285156" xlink:href="#DejaVuSans-105"/>
       <use x="1445.068359" xlink:href="#DejaVuSans-115"/>
       <use x="1497.167969" xlink:href="#DejaVuSans-121"/>
      </g>
     </g>
    </g>
    <g id="ytick_5">
     <g id="line2d_10">
      <path d="M 164.152813 55.879024 
" style="fill:none;stroke:#333333;stroke-width:1.5;"/>
      <g>
       <use style="fill:#333333;stroke:#333333;" x="164.152813" xlink:href="#m1c8ea2d2a0" y="55.879024"/>
      </g>
     </g>
     <g id="text_11">
      <!-- 443-450 -->
      <defs>
       <path d="M 40.578125 39.3125 
Q 47.65625 37.796875 51.625 33 
Q 55.609375 28.21875 55.609375 21.1875 
Q 55.609375 10.40625 48.1875 4.484375 
Q 40.765625 -1.421875 27.09375 -1.421875 
Q 22.515625 -1.421875 17.65625 -0.515625 
Q 12.796875 0.390625 7.625 2.203125 
L 7.625 11.71875 
Q 11.71875 9.328125 16.59375 8.109375 
Q 21.484375 6.890625 26.8125 6.890625 
Q 36.078125 6.890625 40.9375 10.546875 
Q 45.796875 14.203125 45.796875 21.1875 
Q 45.796875 27.640625 41.28125 31.265625 
Q 36.765625 34.90625 28.71875 34.90625 
L 20.21875 34.90625 
L 20.21875 43.015625 
L 29.109375 43.015625 
Q 36.375 43.015625 40.234375 45.921875 
Q 44.09375 48.828125 44.09375 54.296875 
Q 44.09375 59.90625 40.109375 62.90625 
Q 36.140625 65.921875 28.71875 65.921875 
Q 24.65625 65.921875 20.015625 65.03125 
Q 15.375 64.15625 9.8125 62.3125 
L 9.8125 71.09375 
Q 15.4375 72.65625 20.34375 73.4375 
Q 25.25 74.21875 29.59375 74.21875 
Q 40.828125 74.21875 47.359375 69.109375 
Q 53.90625 64.015625 53.90625 55.328125 
Q 53.90625 49.265625 50.4375 45.09375 
Q 46.96875 40.921875 40.578125 39.3125 
z
" id="DejaVuSans-51"/>
      </defs>
      <g style="fill:#4d4d4d;" transform="translate(122.433938 58.307274)scale(0.088 -0.088)">
       <use xlink:href="#DejaVuSans-52"/>
       <use x="63.623047" xlink:href="#DejaVuSans-52"/>
       <use x="127.246094" xlink:href="#DejaVuSans-51"/>
       <use x="190.869141" xlink:href="#DejaVuSans-45"/>
       <use x="226.953125" xlink:href="#DejaVuSans-52"/>
       <use x="290.576172" xlink:href="#DejaVuSans-53"/>
       <use x="354.199219" xlink:href="#DejaVuSans-48"/>
      </g>
     </g>
    </g>
    <g id="ytick_6">
     <g id="line2d_11">
      <path d="M 164.152813 42.357073 
" style="fill:none;stroke:#333333;stroke-width:1.5;"/>
      <g>
       <use style="fill:#333333;stroke:#333333;" x="164.152813" xlink:href="#m1c8ea2d2a0" y="42.357073"/>
      </g>
     </g>
     <g id="text_12">
      <!-- core -->
      <defs>
       <path d="M 48.78125 52.59375 
L 48.78125 44.1875 
Q 44.96875 46.296875 41.140625 47.34375 
Q 37.3125 48.390625 33.40625 48.390625 
Q 24.65625 48.390625 19.8125 42.84375 
Q 14.984375 37.3125 14.984375 27.296875 
Q 14.984375 17.28125 19.8125 11.734375 
Q 24.65625 6.203125 33.40625 6.203125 
Q 37.3125 6.203125 41.140625 7.25 
Q 44.96875 8.296875 48.78125 10.40625 
L 48.78125 2.09375 
Q 45.015625 0.34375 40.984375 -0.53125 
Q 36.96875 -1.421875 32.421875 -1.421875 
Q 20.0625 -1.421875 12.78125 6.34375 
Q 5.515625 14.109375 5.515625 27.296875 
Q 5.515625 40.671875 12.859375 48.328125 
Q 20.21875 56 33.015625 56 
Q 37.15625 56 41.109375 55.140625 
Q 45.0625 54.296875 48.78125 52.59375 
z
" id="DejaVuSans-99"/>
      </defs>
      <g style="fill:#4d4d4d;" transform="translate(140.145313 44.785323)scale(0.088 -0.088)">
       <use xlink:href="#DejaVuSans-99"/>
       <use x="54.980469" xlink:href="#DejaVuSans-111"/>
       <use x="116.162109" xlink:href="#DejaVuSans-114"/>
       <use x="155.025391" xlink:href="#DejaVuSans-101"/>
      </g>
     </g>
    </g>
    <g id="ytick_7">
     <g id="line2d_12">
      <path d="M 164.152813 28.835122 
" style="fill:none;stroke:#333333;stroke-width:1.5;"/>
      <g>
       <use style="fill:#333333;stroke:#333333;" x="164.152813" xlink:href="#m1c8ea2d2a0" y="28.835122"/>
      </g>
     </g>
     <g id="text_13">
      <!-- flat - noisy -->
      <defs>
       <path d="M 37.109375 75.984375 
L 37.109375 68.5 
L 28.515625 68.5 
Q 23.6875 68.5 21.796875 66.546875 
Q 19.921875 64.59375 19.921875 59.515625 
L 19.921875 54.6875 
L 34.71875 54.6875 
L 34.71875 47.703125 
L 19.921875 47.703125 
L 19.921875 0 
L 10.890625 0 
L 10.890625 47.703125 
L 2.296875 47.703125 
L 2.296875 54.6875 
L 10.890625 54.6875 
L 10.890625 58.5 
Q 10.890625 67.625 15.140625 71.796875 
Q 19.390625 75.984375 28.609375 75.984375 
z
" id="DejaVuSans-102"/>
      </defs>
      <g style="fill:#4d4d4d;" transform="translate(112.850188 31.263372)scale(0.088 -0.088)">
       <use xlink:href="#DejaVuSans-102"/>
       <use x="35.205078" xlink:href="#DejaVuSans-108"/>
       <use x="62.988281" xlink:href="#DejaVuSans-97"/>
       <use x="124.267578" xlink:href="#DejaVuSans-116"/>
       <use x="163.476562" xlink:href="#DejaVuSans-32"/>
       <use x="195.263672" xlink:href="#DejaVuSans-45"/>
       <use x="231.347656" xlink:href="#DejaVuSans-32"/>
       <use x="263.134766" xlink:href="#DejaVuSans-110"/>
       <use x="326.513672" xlink:href="#DejaVuSans-111"/>
       <use x="387.695312" xlink:href="#DejaVuSans-105"/>
       <use x="415.478516" xlink:href="#DejaVuSans-115"/>
       <use x="467.578125" xlink:href="#DejaVuSans-121"/>
      </g>
     </g>
    </g>
    <g id="ytick_8">
     <g id="line2d_13">
      <path d="M 164.152813 15.313171 
" style="fill:none;stroke:#333333;stroke-width:1.5;"/>
      <g>
       <use style="fill:#333333;stroke:#333333;" x="164.152813" xlink:href="#m1c8ea2d2a0" y="15.313171"/>
      </g>
     </g>
     <g id="text_14">
      <!-- flat -->
      <g style="fill:#4d4d4d;" transform="translate(144.817563 17.741421)scale(0.088 -0.088)">
       <use xlink:href="#DejaVuSans-102"/>
       <use x="35.205078" xlink:href="#DejaVuSans-108"/>
       <use x="62.988281" xlink:href="#DejaVuSans-97"/>
       <use x="124.267578" xlink:href="#DejaVuSans-116"/>
      </g>
     </g>
    </g>
    <g id="text_15">
     <!-- escape map -->
     <defs>
      <path d="M 18.109375 8.203125 
L 18.109375 -20.796875 
L 9.078125 -20.796875 
L 9.078125 54.6875 
L 18.109375 54.6875 
L 18.109375 46.390625 
Q 20.953125 51.265625 25.265625 53.625 
Q 29.59375 56 35.59375 56 
Q 45.5625 56 51.78125 48.09375 
Q 58.015625 40.1875 58.015625 27.296875 
Q 58.015625 14.40625 51.78125 6.484375 
Q 45.5625 -1.421875 35.59375 -1.421875 
Q 29.59375 -1.421875 25.265625 0.953125 
Q 20.953125 3.328125 18.109375 8.203125 
z
M 48.6875 27.296875 
Q 48.6875 37.203125 44.609375 42.84375 
Q 40.53125 48.484375 33.40625 48.484375 
Q 26.265625 48.484375 22.1875 42.84375 
Q 18.109375 37.203125 18.109375 27.296875 
Q 18.109375 17.390625 22.1875 11.75 
Q 26.265625 6.109375 33.40625 6.109375 
Q 40.53125 6.109375 44.609375 11.75 
Q 48.6875 17.390625 48.6875 27.296875 
z
" id="DejaVuSans-112"/>
     </defs>
     <g transform="translate(15.558281 95.407266)rotate(-90)scale(0.11 -0.11)">
      <use xlink:href="#DejaVuSans-101"/>
      <use x="61.523438" xlink:href="#DejaVuSans-115"/>
      <use x="113.623047" xlink:href="#DejaVuSans-99"/>
      <use x="168.603516" xlink:href="#DejaVuSans-97"/>
      <use x="229.882812" xlink:href="#DejaVuSans-112"/>
      <use x="293.359375" xlink:href="#DejaVuSans-101"/>
      <use x="354.882812" xlink:href="#DejaVuSans-32"/>
      <use x="386.669922" xlink:href="#DejaVuSans-109"/>
      <use x="484.082031" xlink:href="#DejaVuSans-97"/>
      <use x="545.361328" xlink:href="#DejaVuSans-112"/>
     </g>
    </g>
   </g>
   <g id="PathCollection_1">
    <path clip-path="url(#pe64d5329f9)" d="M 175.998236 112.141654 
C 176.703326 112.141654 177.379633 111.861518 177.878207 111.362944 
C 178.376781 110.86437 178.656916 110.188063 178.656916 109.482973 
C 178.656916 108.777882 178.376781 108.101576 177.878207 107.603002 
C 177.379633 107.104427 176.703326 106.824292 175.998236 106.824292 
C 175.293145 106.824292 174.616839 107.104427 174.118264 107.603002 
C 173.61969 108.101576 173.339555 108.777882 173.339555 109.482973 
C 173.339555 110.188063 173.61969 110.86437 174.118264 111.362944 
C 174.616839 111.861518 175.293145 112.141654 175.998236 112.141654 
z
" style="fill:#56b4e9;fill-opacity:0.25098;stroke:#56b4e9;stroke-opacity:0.25098;stroke-width:0.886227;"/>
    <path clip-path="url(#pe64d5329f9)" d="M 265.242449 19.816821 
C 265.94754 19.816821 266.623846 19.536686 267.122421 19.038112 
C 267.620995 18.539538 267.90113 17.863231 267.90113 17.158141 
C 267.90113 16.45305 267.620995 15.776744 267.122421 15.278169 
C 266.623846 14.779595 265.94754 14.49946 265.242449 14.49946 
C 264.537359 14.49946 263.861052 14.779595 263.362478 15.278169 
C 262.863904 15.776744 262.583769 16.45305 262.583769 17.158141 
C 262.583769 17.863231 262.863904 18.539538 263.362478 19.038112 
C 263.861052 19.536686 264.537359 19.816821 265.242449 19.816821 
z
" style="fill:#56b4e9;fill-opacity:0.25098;stroke:#56b4e9;stroke-opacity:0.25098;stroke-width:0.886227;"/>
    <path clip-path="url(#pe64d5329f9)" d="M 202.025695 99.090595 
C 202.730786 99.090595 203.407092 98.81046 203.905666 98.311886 
C 204.404241 97.813311 204.684376 97.137005 204.684376 96.431914 
C 204.684376 95.726824 204.404241 95.050517 203.905666 94.551943 
C 203.407092 94.053369 202.730786 93.773234 202.025695 93.773234 
C 201.320605 93.773234 200.644298 94.053369 200.145724 94.551943 
C 199.64715 95.050517 199.367014 95.726824 199.367014 96.431914 
C 199.367014 97.137005 199.64715 97.813311 200.145724 98.311886 
C 200.644298 98.81046 201.320605 99.090595 202.025695 99.090595 
z
" style="fill:#56b4e9;fill-opacity:0.25098;stroke:#56b4e9;stroke-opacity:0.25098;stroke-width:0.886227;"/>
    <path clip-path="url(#pe64d5329f9)" d="M 201.551405 46.994448 
C 202.256496 46.994448 202.932802 46.714312 203.431377 46.215738 
C 203.929951 45.717164 204.210086 45.040857 204.210086 44.335767 
C 204.210086 43.630676 203.929951 42.95437 203.431377 42.455796 
C 202.932802 41.957221 202.256496 41.677086 201.551405 41.677086 
C 200.846315 41.677086 200.170008 41.957221 199.671434 42.455796 
C 199.17286 42.95437 198.892725 43.630676 198.892725 44.335767 
C 198.892725 45.040857 199.17286 45.717164 199.671434 46.215738 
C 200.170008 46.714312 200.846315 46.994448 201.551405 46.994448 
z
" style="fill:#56b4e9;fill-opacity:0.25098;stroke:#56b4e9;stroke-opacity:0.25098;stroke-width:0.886227;"/>
    <path clip-path="url(#pe64d5329f9)" d="M 202.600836 17.063444 
C 203.305926 17.063444 203.982233 16.783308 204.480807 16.284734 
C 204.979382 15.78616 205.259517 15.109853 205.259517 14.404763 
C 205.259517 13.699673 204.979382 13.023366 204.480807 12.524792 
C 203.982233 12.026217 203.305926 11.746082 202.600836 11.746082 
C 201.895746 11.746082 201.219439 12.026217 200.720865 12.524792 
C 200.222291 13.023366 199.942155 13.699673 199.942155 14.404763 
C 199.942155 15.109853 200.222291 15.78616 200.720865 16.284734 
C 201.219439 16.783308 201.895746 17.063444 202.600836 17.063444 
z
" style="fill:#56b4e9;fill-opacity:0.25098;stroke:#56b4e9;stroke-opacity:0.25098;stroke-width:0.886227;"/>
    <path clip-path="url(#pe64d5329f9)" d="M 236.393878 19.26753 
C 237.098968 19.26753 237.775275 18.987394 238.273849 18.48882 
C 238.772423 17.990246 239.052558 17.313939 239.052558 16.608849 
C 239.052558 15.903758 238.772423 15.227452 238.273849 14.728878 
C 237.775275 14.230303 237.098968 13.950168 236.393878 13.950168 
C 235.688787 13.950168 235.012481 14.230303 234.513906 14.728878 
C 234.015332 15.227452 233.735197 15.903758 233.735197 16.608849 
C 233.735197 17.313939 234.015332 17.990246 234.513906 18.48882 
C 235.012481 18.987394 235.688787 19.26753 236.393878 19.26753 
z
" style="fill:#56b4e9;fill-opacity:0.25098;stroke:#56b4e9;stroke-opacity:0.25098;stroke-width:0.886227;"/>
    <path clip-path="url(#pe64d5329f9)" d="M 234.394481 99.139776 
C 235.099571 99.139776 235.775878 98.85964 236.274452 98.361066 
C 236.773026 97.862492 237.053162 97.186185 237.053162 96.481095 
C 237.053162 95.776005 236.773026 95.099698 236.274452 94.601124 
C 235.775878 94.10255 235.099571 93.822414 234.394481 93.822414 
C 233.68939 93.822414 233.013084 94.10255 232.51451 94.601124 
C 232.015935 95.099698 231.7358 95.776005 231.7358 96.481095 
C 231.7358 97.186185 232.015935 97.862492 232.51451 98.361066 
C 233.013084 98.85964 233.68939 99.139776 234.394481 99.139776 
z
" style="fill:#56b4e9;fill-opacity:0.25098;stroke:#56b4e9;stroke-opacity:0.25098;stroke-width:0.886227;"/>
    <path clip-path="url(#pe64d5329f9)" d="M 172.251419 112.898243 
C 172.956509 112.898243 173.632816 112.618108 174.13139 112.119534 
C 174.629964 111.620959 174.9101 110.944653 174.9101 110.239562 
C 174.9101 109.534472 174.629964 108.858165 174.13139 108.359591 
C 173.632816 107.861017 172.956509 107.580882 172.251419 107.580882 
C 171.546328 107.580882 170.870022 107.861017 170.371448 108.359591 
C 169.872873 108.858165 169.592738 109.534472 169.592738 110.239562 
C 169.592738 110.944653 169.872873 111.620959 170.371448 112.119534 
C 170.870022 112.618108 171.546328 112.898243 172.251419 112.898243 
z
" style="fill:#56b4e9;fill-opacity:0.25098;stroke:#56b4e9;stroke-opacity:0.25098;stroke-width:0.886227;"/>
    <path clip-path="url(#pe64d5329f9)" d="M 205.456394 72.537361 
C 206.161484 72.537361 206.837791 72.257225 207.336365 71.758651 
C 207.834939 71.260077 208.115075 70.58377 208.115075 69.87868 
C 208.115075 69.17359 207.834939 68.497283 207.336365 67.998709 
C 206.837791 67.500134 206.161484 67.219999 205.456394 67.219999 
C 204.751304 67.219999 204.074997 67.500134 203.576423 67.998709 
C 203.077849 68.497283 202.797713 69.17359 202.797713 69.87868 
C 202.797713 70.58377 203.077849 71.260077 203.576423 71.758651 
C 204.074997 72.257225 204.751304 72.537361 205.456394 72.537361 
z
" style="fill:#56b4e9;fill-opacity:0.25098;stroke:#56b4e9;stroke-opacity:0.25098;stroke-width:0.886227;"/>
    <path clip-path="url(#pe64d5329f9)" d="M 268.0585 18.828386 
C 268.76359 18.828386 269.439897 18.54825 269.938471 18.049676 
C 270.437045 17.551102 270.71718 16.874795 270.71718 16.169705 
C 270.71718 15.464615 270.437045 14.788308 269.938471 14.289734 
C 269.439897 13.79116 268.76359 13.511024 268.0585 13.511024 
C 267.353409 13.511024 266.677103 13.79116 266.178528 14.289734 
C 265.679954 14.788308 265.399819 15.464615 265.399819 16.169705 
C 265.399819 16.874795 265.679954 17.551102 266.178528 18.049676 
C 266.677103 18.54825 267.353409 18.828386 268.0585 18.828386 
z
" style="fill:#56b4e9;fill-opacity:0.25098;stroke:#56b4e9;stroke-opacity:0.25098;stroke-width:0.886227;"/>
    <path clip-path="url(#pe64d5329f9)" d="M 206.88417 46.192815 
C 207.58926 46.192815 208.265567 45.91268 208.764141 45.414106 
C 209.262715 44.915531 209.542851 44.239225 209.542851 43.534134 
C 209.542851 42.829044 209.262715 42.152737 208.764141 41.654163 
C 208.265567 41.155589 207.58926 40.875454 206.88417 40.875454 
C 206.179079 40.875454 205.502773 41.155589 205.004199 41.654163 
C 204.505624 42.152737 204.225489 42.829044 204.225489 43.534134 
C 204.225489 44.239225 204.505624 44.915531 205.004199 45.414106 
C 205.502773 45.91268 206.179079 46.192815 206.88417 46.192815 
z
" style="fill:#56b4e9;fill-opacity:0.25098;stroke:#56b4e9;stroke-opacity:0.25098;stroke-width:0.886227;"/>
    <path clip-path="url(#pe64d5329f9)" d="M 234.670916 19.658586 
C 235.376007 19.658586 236.052313 19.37845 236.550887 18.879876 
C 237.049462 18.381302 237.329597 17.704995 237.329597 16.999905 
C 237.329597 16.294815 237.049462 15.618508 236.550887 15.119934 
C 236.052313 14.62136 235.376007 14.341224 234.670916 14.341224 
C 233.965826 14.341224 233.289519 14.62136 232.790945 15.119934 
C 232.292371 15.618508 232.012236 16.294815 232.012236 16.999905 
C 232.012236 17.704995 232.292371 18.381302 232.790945 18.879876 
C 233.289519 19.37845 233.965826 19.658586 234.670916 19.658586 
z
" style="fill:#56b4e9;fill-opacity:0.25098;stroke:#56b4e9;stroke-opacity:0.25098;stroke-width:0.886227;"/>
    <path clip-path="url(#pe64d5329f9)" d="M 237.003158 18.723245 
C 237.708248 18.723245 238.384555 18.44311 238.883129 17.944536 
C 239.381703 17.445962 239.661839 16.769655 239.661839 16.064565 
C 239.661839 15.359474 239.381703 14.683168 238.883129 14.184593 
C 238.384555 13.686019 237.708248 13.405884 237.003158 13.405884 
C 236.298067 13.405884 235.621761 13.686019 235.123187 14.184593 
C 234.624612 14.683168 234.344477 15.359474 234.344477 16.064565 
C 234.344477 16.769655 234.624612 17.445962 235.123187 17.944536 
C 235.621761 18.44311 236.298067 18.723245 237.003158 18.723245 
z
" style="fill:#56b4e9;fill-opacity:0.25098;stroke:#56b4e9;stroke-opacity:0.25098;stroke-width:0.886227;"/>
    <path clip-path="url(#pe64d5329f9)" d="M 208.088581 113.634157 
C 208.793671 113.634157 209.469978 113.354021 209.968552 112.855447 
C 210.467126 112.356873 210.747262 111.680566 210.747262 110.975476 
C 210.747262 110.270386 210.467126 109.594079 209.968552 109.095505 
C 209.469978 108.596931 208.793671 108.316795 208.088581 108.316795 
C 207.383491 108.316795 206.707184 108.596931 206.20861 109.095505 
C 205.710036 109.594079 205.4299 110.270386 205.4299 110.975476 
C 205.4299 111.680566 205.710036 112.356873 206.20861 112.855447 
C 206.707184 113.354021 207.383491 113.634157 208.088581 113.634157 
z
" style="fill:#56b4e9;fill-opacity:0.25098;stroke:#56b4e9;stroke-opacity:0.25098;stroke-width:0.886227;"/>
    <path clip-path="url(#pe64d5329f9)" d="M 204.432424 113.515871 
C 205.137514 113.515871 205.813821 113.235736 206.312395 112.737161 
C 206.81097 112.238587 207.091105 111.56228 207.091105 110.85719 
C 207.091105 110.1521 206.81097 109.475793 206.312395 108.977219 
C 205.813821 108.478645 205.137514 108.198509 204.432424 108.198509 
C 203.727334 108.198509 203.051027 108.478645 202.552453 108.977219 
C 202.053879 109.475793 201.773743 110.1521 201.773743 110.85719 
C 201.773743 111.56228 202.053879 112.238587 202.552453 112.737161 
C 203.051027 113.235736 203.727334 113.515871 204.432424 113.515871 
z
" style="fill:#56b4e9;fill-opacity:0.25098;stroke:#56b4e9;stroke-opacity:0.25098;stroke-width:0.886227;"/>
    <path clip-path="url(#pe64d5329f9)" d="M 270.680085 19.554612 
C 271.385176 19.554612 272.061482 19.274477 272.560056 18.775903 
C 273.058631 18.277329 273.338766 17.601022 273.338766 16.895932 
C 273.338766 16.190841 273.058631 15.514535 272.560056 15.01596 
C 272.061482 14.517386 271.385176 14.237251 270.680085 14.237251 
C 269.974995 14.237251 269.298688 14.517386 268.800114 15.01596 
C 268.30154 15.514535 268.021404 16.190841 268.021404 16.895932 
C 268.021404 17.601022 268.30154 18.277329 268.800114 18.775903 
C 269.298688 19.274477 269.974995 19.554612 270.680085 19.554612 
z
" style="fill:#56b4e9;fill-opacity:0.25098;stroke:#56b4e9;stroke-opacity:0.25098;stroke-width:0.886227;"/>
    <path clip-path="url(#pe64d5329f9)" d="M 203.949525 16.683038 
C 204.654615 16.683038 205.330922 16.402903 205.829496 15.904328 
C 206.32807 15.405754 206.608206 14.729447 206.608206 14.024357 
C 206.608206 13.319267 206.32807 12.64296 205.829496 12.144386 
C 205.330922 11.645812 204.654615 11.365676 203.949525 11.365676 
C 203.244434 11.365676 202.568128 11.645812 202.069554 12.144386 
C 201.570979 12.64296 201.290844 13.319267 201.290844 14.024357 
C 201.290844 14.729447 201.570979 15.405754 202.069554 15.904328 
C 202.568128 16.402903 203.244434 16.683038 203.949525 16.683038 
z
" style="fill:#56b4e9;fill-opacity:0.25098;stroke:#56b4e9;stroke-opacity:0.25098;stroke-width:0.886227;"/>
    <path clip-path="url(#pe64d5329f9)" d="M 206.615397 18.783506 
C 207.320487 18.783506 207.996794 18.503371 208.495368 18.004797 
C 208.993942 17.506223 209.274077 16.829916 209.274077 16.124826 
C 209.274077 15.419735 208.993942 14.743429 208.495368 14.244854 
C 207.996794 13.74628 207.320487 13.466145 206.615397 13.466145 
C 205.910306 13.466145 205.234 13.74628 204.735425 14.244854 
C 204.236851 14.743429 203.956716 15.419735 203.956716 16.124826 
C 203.956716 16.829916 204.236851 17.506223 204.735425 18.004797 
C 205.234 18.503371 205.910306 18.783506 206.615397 18.783506 
z
" style="fill:#56b4e9;fill-opacity:0.25098;stroke:#56b4e9;stroke-opacity:0.25098;stroke-width:0.886227;"/>
    <path clip-path="url(#pe64d5329f9)" d="M 233.376187 19.183579 
C 234.081278 19.183579 234.757584 18.903444 235.256158 18.40487 
C 235.754733 17.906296 236.034868 17.229989 236.034868 16.524899 
C 236.034868 15.819808 235.754733 15.143502 235.256158 14.644927 
C 234.757584 14.146353 234.081278 13.866218 233.376187 13.866218 
C 232.671097 13.866218 231.99479 14.146353 231.496216 14.644927 
C 230.997642 15.143502 230.717506 15.819808 230.717506 16.524899 
C 230.717506 17.229989 230.997642 17.906296 231.496216 18.40487 
C 231.99479 18.903444 232.671097 19.183579 233.376187 19.183579 
z
" style="fill:#56b4e9;fill-opacity:0.25098;stroke:#56b4e9;stroke-opacity:0.25098;stroke-width:0.886227;"/>
    <path clip-path="url(#pe64d5329f9)" d="M 205.415918 30.784 
C 206.121009 30.784 206.797315 30.503865 207.29589 30.005291 
C 207.794464 29.506717 208.074599 28.83041 208.074599 28.12532 
C 208.074599 27.420229 207.794464 26.743923 207.29589 26.245348 
C 206.797315 25.746774 206.121009 25.466639 205.415918 25.466639 
C 204.710828 25.466639 204.034521 25.746774 203.535947 26.245348 
C 203.037373 26.743923 202.757238 27.420229 202.757238 28.12532 
C 202.757238 28.83041 203.037373 29.506717 203.535947 30.005291 
C 204.034521 30.503865 204.710828 30.784 205.415918 30.784 
z
" style="fill:#56b4e9;fill-opacity:0.25098;stroke:#56b4e9;stroke-opacity:0.25098;stroke-width:0.886227;"/>
    <path clip-path="url(#pe64d5329f9)" d="M 267.441531 32.130653 
C 268.146621 32.130653 268.822928 31.850517 269.321502 31.351943 
C 269.820076 30.853369 270.100211 30.177062 270.100211 29.471972 
C 270.100211 28.766881 269.820076 28.090575 269.321502 27.592001 
C 268.822928 27.093426 268.146621 26.813291 267.441531 26.813291 
C 266.73644 26.813291 266.060134 27.093426 265.561559 27.592001 
C 265.062985 28.090575 264.78285 28.766881 264.78285 29.471972 
C 264.78285 30.177062 265.062985 30.853369 265.561559 31.351943 
C 266.060134 31.850517 266.73644 32.130653 267.441531 32.130653 
z
" style="fill:#56b4e9;fill-opacity:0.25098;stroke:#56b4e9;stroke-opacity:0.25098;stroke-width:0.886227;"/>
    <path clip-path="url(#pe64d5329f9)" d="M 207.688471 18.8575 
C 208.393561 18.8575 209.069868 18.577364 209.568442 18.07879 
C 210.067016 17.580216 210.347151 16.903909 210.347151 16.198819 
C 210.347151 15.493728 210.067016 14.817422 209.568442 14.318848 
C 209.069868 13.820273 208.393561 13.540138 207.688471 13.540138 
C 206.98338 13.540138 206.307074 13.820273 205.808499 14.318848 
C 205.309925 14.817422 205.02979 15.493728 205.02979 16.198819 
C 205.02979 16.903909 205.309925 17.580216 205.808499 18.07879 
C 206.307074 18.577364 206.98338 18.8575 207.688471 18.8575 
z
" style="fill:#56b4e9;fill-opacity:0.25098;stroke:#56b4e9;stroke-opacity:0.25098;stroke-width:0.886227;"/>
    <path clip-path="url(#pe64d5329f9)" d="M 174.08685 45.427124 
C 174.791941 45.427124 175.468247 45.146988 175.966822 44.648414 
C 176.465396 44.14984 176.745531 43.473533 176.745531 42.768443 
C 176.745531 42.063352 176.465396 41.387046 175.966822 40.888472 
C 175.468247 40.389897 174.791941 40.109762 174.08685 40.109762 
C 173.38176 40.109762 172.705453 40.389897 172.206879 40.888472 
C 171.708305 41.387046 171.42817 42.063352 171.42817 42.768443 
C 171.42817 43.473533 171.708305 44.14984 172.206879 44.648414 
C 172.705453 45.146988 173.38176 45.427124 174.08685 45.427124 
z
" style="fill:#56b4e9;fill-opacity:0.25098;stroke:#56b4e9;stroke-opacity:0.25098;stroke-width:0.886227;"/>
    <path clip-path="url(#pe64d5329f9)" d="M 206.983535 71.731107 
C 207.688625 71.731107 208.364932 71.450972 208.863506 70.952397 
C 209.36208 70.453823 209.642215 69.777517 209.642215 69.072426 
C 209.642215 68.367336 209.36208 67.691029 208.863506 67.192455 
C 208.364932 66.693881 207.688625 66.413746 206.983535 66.413746 
C 206.278444 66.413746 205.602138 66.693881 205.103563 67.192455 
C 204.604989 67.691029 204.324854 68.367336 204.324854 69.072426 
C 204.324854 69.777517 204.604989 70.453823 205.103563 70.952397 
C 205.602138 71.450972 206.278444 71.731107 206.983535 71.731107 
z
" style="fill:#56b4e9;fill-opacity:0.25098;stroke:#56b4e9;stroke-opacity:0.25098;stroke-width:0.886227;"/>
    <path clip-path="url(#pe64d5329f9)" d="M 201.522915 16.735508 
C 202.228005 16.735508 202.904312 16.455372 203.402886 15.956798 
C 203.901461 15.458224 204.181596 14.781917 204.181596 14.076827 
C 204.181596 13.371736 203.901461 12.69543 203.402886 12.196856 
C 202.904312 11.698281 202.228005 11.418146 201.522915 11.418146 
C 200.817825 11.418146 200.141518 11.698281 199.642944 12.196856 
C 199.14437 12.69543 198.864234 13.371736 198.864234 14.076827 
C 198.864234 14.781917 199.14437 15.458224 199.642944 15.956798 
C 200.141518 16.455372 200.817825 16.735508 201.522915 16.735508 
z
" style="fill:#56b4e9;fill-opacity:0.25098;stroke:#56b4e9;stroke-opacity:0.25098;stroke-width:0.886227;"/>
    <path clip-path="url(#pe64d5329f9)" d="M 201.578231 100.576557 
C 202.283322 100.576557 202.959628 100.296422 203.458202 99.797848 
C 203.956777 99.299274 204.236912 98.622967 204.236912 97.917877 
C 204.236912 97.212786 203.956777 96.53648 203.458202 96.037905 
C 202.959628 95.539331 202.283322 95.259196 201.578231 95.259196 
C 200.873141 95.259196 200.196834 95.539331 199.69826 96.037905 
C 199.199686 96.53648 198.91955 97.212786 198.91955 97.917877 
C 198.91955 98.622967 199.199686 99.299274 199.69826 99.797848 
C 200.196834 100.296422 200.873141 100.576557 201.578231 100.576557 
z
" style="fill:#56b4e9;fill-opacity:0.25098;stroke:#56b4e9;stroke-opacity:0.25098;stroke-width:0.886227;"/>
    <path clip-path="url(#pe64d5329f9)" d="M 203.655888 17.303578 
C 204.360978 17.303578 205.037285 17.023442 205.535859 16.524868 
C 206.034433 16.026294 206.314569 15.349987 206.314569 14.644897 
C 206.314569 13.939807 206.034433 13.2635 205.535859 12.764926 
C 205.037285 12.266352 204.360978 11.986216 203.655888 11.986216 
C 202.950797 11.986216 202.274491 12.266352 201.775917 12.764926 
C 201.277342 13.2635 200.997207 13.939807 200.997207 14.644897 
C 200.997207 15.349987 201.277342 16.026294 201.775917 16.524868 
C 202.274491 17.023442 202.950797 17.303578 203.655888 17.303578 
z
" style="fill:#56b4e9;fill-opacity:0.25098;stroke:#56b4e9;stroke-opacity:0.25098;stroke-width:0.886227;"/>
    <path clip-path="url(#pe64d5329f9)" d="M 201.403649 18.032353 
C 202.108739 18.032353 202.785046 17.752217 203.28362 17.253643 
C 203.782194 16.755069 204.06233 16.078762 204.06233 15.373672 
C 204.06233 14.668582 203.782194 13.992275 203.28362 13.493701 
C 202.785046 12.995127 202.108739 12.714991 201.403649 12.714991 
C 200.698559 12.714991 200.022252 12.995127 199.523678 13.493701 
C 199.025104 13.992275 198.744968 14.668582 198.744968 15.373672 
C 198.744968 16.078762 199.025104 16.755069 199.523678 17.253643 
C 200.022252 17.752217 200.698559 18.032353 201.403649 18.032353 
z
" style="fill:#56b4e9;fill-opacity:0.25098;stroke:#56b4e9;stroke-opacity:0.25098;stroke-width:0.886227;"/>
    <path clip-path="url(#pe64d5329f9)" d="M 267.767014 113.056176 
C 268.472104 113.056176 269.148411 112.776041 269.646985 112.277467 
C 270.145559 111.778892 270.425694 111.102586 270.425694 110.397495 
C 270.425694 109.692405 270.145559 109.016098 269.646985 108.517524 
C 269.148411 108.01895 268.472104 107.738815 267.767014 107.738815 
C 267.061923 107.738815 266.385617 108.01895 265.887042 108.517524 
C 265.388468 109.016098 265.108333 109.692405 265.108333 110.397495 
C 265.108333 111.102586 265.388468 111.778892 265.887042 112.277467 
C 266.385617 112.776041 267.061923 113.056176 267.767014 113.056176 
z
" style="fill:#e69f00;fill-opacity:0.25098;stroke:#e69f00;stroke-opacity:0.25098;stroke-width:0.886227;"/>
    <path clip-path="url(#pe64d5329f9)" d="M 265.703533 111.076308 
C 266.408623 111.076308 267.08493 110.796173 267.583504 110.297598 
C 268.082078 109.799024 268.362213 109.122718 268.362213 108.417627 
C 268.362213 107.712537 268.082078 107.03623 267.583504 106.537656 
C 267.08493 106.039082 266.408623 105.758946 265.703533 105.758946 
C 264.998442 105.758946 264.322136 106.039082 263.823561 106.537656 
C 263.324987 107.03623 263.044852 107.712537 263.044852 108.417627 
C 263.044852 109.122718 263.324987 109.799024 263.823561 110.297598 
C 264.322136 110.796173 264.998442 111.076308 265.703533 111.076308 
z
" style="fill:#e69f00;fill-opacity:0.25098;stroke:#e69f00;stroke-opacity:0.25098;stroke-width:0.886227;"/>
    <path clip-path="url(#pe64d5329f9)" d="M 238.296911 72.750687 
C 239.002001 72.750687 239.678308 72.470552 240.176882 71.971978 
C 240.675456 71.473404 240.955591 70.797097 240.955591 70.092007 
C 240.955591 69.386916 240.675456 68.71061 240.176882 68.212035 
C 239.678308 67.713461 239.002001 67.433326 238.296911 67.433326 
C 237.59182 67.433326 236.915514 67.713461 236.416939 68.212035 
C 235.918365 68.71061 235.63823 69.386916 235.63823 70.092007 
C 235.63823 70.797097 235.918365 71.473404 236.416939 71.971978 
C 236.915514 72.470552 237.59182 72.750687 238.296911 72.750687 
z
" style="fill:#e69f00;fill-opacity:0.25098;stroke:#e69f00;stroke-opacity:0.25098;stroke-width:0.886227;"/>
    <path clip-path="url(#pe64d5329f9)" d="M 202.947137 112.026826 
C 203.652227 112.026826 204.328534 111.746691 204.827108 111.248117 
C 205.325682 110.749543 205.605817 110.073236 205.605817 109.368146 
C 205.605817 108.663055 205.325682 107.986749 204.827108 107.488174 
C 204.328534 106.9896 203.652227 106.709465 202.947137 106.709465 
C 202.242046 106.709465 201.56574 106.9896 201.067165 107.488174 
C 200.568591 107.986749 200.288456 108.663055 200.288456 109.368146 
C 200.288456 110.073236 200.568591 110.749543 201.067165 111.248117 
C 201.56574 111.746691 202.242046 112.026826 202.947137 112.026826 
z
" style="fill:#e69f00;fill-opacity:0.25098;stroke:#e69f00;stroke-opacity:0.25098;stroke-width:0.886227;"/>
    <path clip-path="url(#pe64d5329f9)" d="M 202.128039 84.984414 
C 202.833129 84.984414 203.509436 84.704278 204.00801 84.205704 
C 204.506584 83.70713 204.786719 83.030823 204.786719 82.325733 
C 204.786719 81.620642 204.506584 80.944336 204.00801 80.445762 
C 203.509436 79.947187 202.833129 79.667052 202.128039 79.667052 
C 201.422948 79.667052 200.746642 79.947187 200.248067 80.445762 
C 199.749493 80.944336 199.469358 81.620642 199.469358 82.325733 
C 199.469358 83.030823 199.749493 83.70713 200.248067 84.205704 
C 200.746642 84.704278 201.422948 84.984414 202.128039 84.984414 
z
" style="fill:#e69f00;fill-opacity:0.25098;stroke:#e69f00;stroke-opacity:0.25098;stroke-width:0.886227;"/>
    <path clip-path="url(#pe64d5329f9)" d="M 202.075034 112.344208 
C 202.780124 112.344208 203.456431 112.064073 203.955005 111.565499 
C 204.453579 111.066925 204.733714 110.390618 204.733714 109.685528 
C 204.733714 108.980437 204.453579 108.304131 203.955005 107.805556 
C 203.456431 107.306982 202.780124 107.026847 202.075034 107.026847 
C 201.369943 107.026847 200.693637 107.306982 200.195063 107.805556 
C 199.696488 108.304131 199.416353 108.980437 199.416353 109.685528 
C 199.416353 110.390618 199.696488 111.066925 200.195063 111.565499 
C 200.693637 112.064073 201.369943 112.344208 202.075034 112.344208 
z
" style="fill:#e69f00;fill-opacity:0.25098;stroke:#e69f00;stroke-opacity:0.25098;stroke-width:0.886227;"/>
    <path clip-path="url(#pe64d5329f9)" d="M 202.400098 111.28598 
C 203.105189 111.28598 203.781495 111.005845 204.28007 110.50727 
C 204.778644 110.008696 205.058779 109.33239 205.058779 108.627299 
C 205.058779 107.922209 204.778644 107.245902 204.28007 106.747328 
C 203.781495 106.248754 203.105189 105.968618 202.400098 105.968618 
C 201.695008 105.968618 201.018701 106.248754 200.520127 106.747328 
C 200.021553 107.245902 199.741418 107.922209 199.741418 108.627299 
C 199.741418 109.33239 200.021553 110.008696 200.520127 110.50727 
C 201.018701 111.005845 201.695008 111.28598 202.400098 111.28598 
z
" style="fill:#e69f00;fill-opacity:0.25098;stroke:#e69f00;stroke-opacity:0.25098;stroke-width:0.886227;"/>
    <path clip-path="url(#pe64d5329f9)" d="M 235.503739 111.807879 
C 236.208829 111.807879 236.885136 111.527744 237.38371 111.02917 
C 237.882284 110.530596 238.16242 109.854289 238.16242 109.149199 
C 238.16242 108.444108 237.882284 107.767802 237.38371 107.269227 
C 236.885136 106.770653 236.208829 106.490518 235.503739 106.490518 
C 234.798649 106.490518 234.122342 106.770653 233.623768 107.269227 
C 233.125194 107.767802 232.845058 108.444108 232.845058 109.149199 
C 232.845058 109.854289 233.125194 110.530596 233.623768 111.02917 
C 234.122342 111.527744 234.798649 111.807879 235.503739 111.807879 
z
" style="fill:#e69f00;fill-opacity:0.25098;stroke:#e69f00;stroke-opacity:0.25098;stroke-width:0.886227;"/>
    <path clip-path="url(#pe64d5329f9)" d="M 233.206086 16.94788 
C 233.911176 16.94788 234.587483 16.667744 235.086057 16.16917 
C 235.584631 15.670596 235.864767 14.994289 235.864767 14.289199 
C 235.864767 13.584109 235.584631 12.907802 235.086057 12.409228 
C 234.587483 11.910654 233.911176 11.630518 233.206086 11.630518 
C 232.500995 11.630518 231.824689 11.910654 231.326115 12.409228 
C 230.82754 12.907802 230.547405 13.584109 230.547405 14.289199 
C 230.547405 14.994289 230.82754 15.670596 231.326115 16.16917 
C 231.824689 16.667744 232.500995 16.94788 233.206086 16.94788 
z
" style="fill:#e69f00;fill-opacity:0.25098;stroke:#e69f00;stroke-opacity:0.25098;stroke-width:0.886227;"/>
    <path clip-path="url(#pe64d5329f9)" d="M 204.113668 110.732711 
C 204.818759 110.732711 205.495065 110.452575 205.99364 109.954001 
C 206.492214 109.455427 206.772349 108.77912 206.772349 108.07403 
C 206.772349 107.368939 206.492214 106.692633 205.99364 106.194059 
C 205.495065 105.695484 204.818759 105.415349 204.113668 105.415349 
C 203.408578 105.415349 202.732271 105.695484 202.233697 106.194059 
C 201.735123 106.692633 201.454988 107.368939 201.454988 108.07403 
C 201.454988 108.77912 201.735123 109.455427 202.233697 109.954001 
C 202.732271 110.452575 203.408578 110.732711 204.113668 110.732711 
z
" style="fill:#e69f00;fill-opacity:0.25098;stroke:#e69f00;stroke-opacity:0.25098;stroke-width:0.886227;"/>
    <path clip-path="url(#pe64d5329f9)" d="M 206.033922 111.258386 
C 206.739012 111.258386 207.415319 110.97825 207.913893 110.479676 
C 208.412467 109.981102 208.692602 109.304795 208.692602 108.599705 
C 208.692602 107.894615 208.412467 107.218308 207.913893 106.719734 
C 207.415319 106.221159 206.739012 105.941024 206.033922 105.941024 
C 205.328831 105.941024 204.652525 106.221159 204.15395 106.719734 
C 203.655376 107.218308 203.375241 107.894615 203.375241 108.599705 
C 203.375241 109.304795 203.655376 109.981102 204.15395 110.479676 
C 204.652525 110.97825 205.328831 111.258386 206.033922 111.258386 
z
" style="fill:#e69f00;fill-opacity:0.25098;stroke:#e69f00;stroke-opacity:0.25098;stroke-width:0.886227;"/>
    <path clip-path="url(#pe64d5329f9)" d="M 206.942344 111.141735 
C 207.647434 111.141735 208.323741 110.8616 208.822315 110.363026 
C 209.320889 109.864451 209.601025 109.188145 209.601025 108.483054 
C 209.601025 107.777964 209.320889 107.101657 208.822315 106.603083 
C 208.323741 106.104509 207.647434 105.824374 206.942344 105.824374 
C 206.237253 105.824374 205.560947 106.104509 205.062373 106.603083 
C 204.563798 107.101657 204.283663 107.777964 204.283663 108.483054 
C 204.283663 109.188145 204.563798 109.864451 205.062373 110.363026 
C 205.560947 110.8616 206.237253 111.141735 206.942344 111.141735 
z
" style="fill:#e69f00;fill-opacity:0.25098;stroke:#e69f00;stroke-opacity:0.25098;stroke-width:0.886227;"/>
    <path clip-path="url(#pe64d5329f9)" d="M 174.548487 58.560107 
C 175.253577 58.560107 175.929884 58.279972 176.428458 57.781398 
C 176.927032 57.282824 177.207168 56.606517 177.207168 55.901427 
C 177.207168 55.196336 176.927032 54.52003 176.428458 54.021455 
C 175.929884 53.522881 175.253577 53.242746 174.548487 53.242746 
C 173.843396 53.242746 173.16709 53.522881 172.668516 54.021455 
C 172.169941 54.52003 171.889806 55.196336 171.889806 55.901427 
C 171.889806 56.606517 172.169941 57.282824 172.668516 57.781398 
C 173.16709 58.279972 173.843396 58.560107 174.548487 58.560107 
z
" style="fill:#e69f00;fill-opacity:0.25098;stroke:#e69f00;stroke-opacity:0.25098;stroke-width:0.886227;"/>
    <path clip-path="url(#pe64d5329f9)" d="M 238.232841 59.091281 
C 238.937931 59.091281 239.614238 58.811145 240.112812 58.312571 
C 240.611386 57.813997 240.891521 57.13769 240.891521 56.4326 
C 240.891521 55.72751 240.611386 55.051203 240.112812 54.552629 
C 239.614238 54.054055 238.937931 53.773919 238.232841 53.773919 
C 237.52775 53.773919 236.851444 54.054055 236.352869 54.552629 
C 235.854295 55.051203 235.57416 55.72751 235.57416 56.4326 
C 235.57416 57.13769 235.854295 57.813997 236.352869 58.312571 
C 236.851444 58.811145 237.52775 59.091281 238.232841 59.091281 
z
" style="fill:#e69f00;fill-opacity:0.25098;stroke:#e69f00;stroke-opacity:0.25098;stroke-width:0.886227;"/>
    <path clip-path="url(#pe64d5329f9)" d="M 203.113423 19.31116 
C 203.818514 19.31116 204.49482 19.031024 204.993395 18.53245 
C 205.491969 18.033876 205.772104 17.357569 205.772104 16.652479 
C 205.772104 15.947389 205.491969 15.271082 204.993395 14.772508 
C 204.49482 14.273934 203.818514 13.993798 203.113423 13.993798 
C 202.408333 13.993798 201.732026 14.273934 201.233452 14.772508 
C 200.734878 15.271082 200.454743 15.947389 200.454743 16.652479 
C 200.454743 17.357569 200.734878 18.033876 201.233452 18.53245 
C 201.732026 19.031024 202.408333 19.31116 203.113423 19.31116 
z
" style="fill:#e69f00;fill-opacity:0.25098;stroke:#e69f00;stroke-opacity:0.25098;stroke-width:0.886227;"/>
    <path clip-path="url(#pe64d5329f9)" d="M 198.105188 57.43957 
C 198.810279 57.43957 199.486585 57.159434 199.985159 56.66086 
C 200.483734 56.162286 200.763869 55.485979 200.763869 54.780889 
C 200.763869 54.075798 200.483734 53.399492 199.985159 52.900918 
C 199.486585 52.402343 198.810279 52.122208 198.105188 52.122208 
C 197.400098 52.122208 196.723791 52.402343 196.225217 52.900918 
C 195.726643 53.399492 195.446507 54.075798 195.446507 54.780889 
C 195.446507 55.485979 195.726643 56.162286 196.225217 56.66086 
C 196.723791 57.159434 197.400098 57.43957 198.105188 57.43957 
z
" style="fill:#e69f00;fill-opacity:0.25098;stroke:#e69f00;stroke-opacity:0.25098;stroke-width:0.886227;"/>
    <path clip-path="url(#pe64d5329f9)" d="M 175.070767 59.863787 
C 175.775857 59.863787 176.452164 59.583651 176.950738 59.085077 
C 177.449312 58.586503 177.729448 57.910196 177.729448 57.205106 
C 177.729448 56.500015 177.449312 55.823709 176.950738 55.325135 
C 176.452164 54.82656 175.775857 54.546425 175.070767 54.546425 
C 174.365676 54.546425 173.68937 54.82656 173.190796 55.325135 
C 172.692221 55.823709 172.412086 56.500015 172.412086 57.205106 
C 172.412086 57.910196 172.692221 58.586503 173.190796 59.085077 
C 173.68937 59.583651 174.365676 59.863787 175.070767 59.863787 
z
" style="fill:#e69f00;fill-opacity:0.25098;stroke:#e69f00;stroke-opacity:0.25098;stroke-width:0.886227;"/>
    <path clip-path="url(#pe64d5329f9)" d="M 169.22554 57.144895 
C 169.93063 57.144895 170.606937 56.86476 171.105511 56.366185 
C 171.604085 55.867611 171.884221 55.191305 171.884221 54.486214 
C 171.884221 53.781124 171.604085 53.104817 171.105511 52.606243 
C 170.606937 52.107669 169.93063 51.827534 169.22554 51.827534 
C 168.520449 51.827534 167.844143 52.107669 167.345569 52.606243 
C 166.846994 53.104817 166.566859 53.781124 166.566859 54.486214 
C 166.566859 55.191305 166.846994 55.867611 167.345569 56.366185 
C 167.844143 56.86476 168.520449 57.144895 169.22554 57.144895 
z
" style="fill:#e69f00;fill-opacity:0.25098;stroke:#e69f00;stroke-opacity:0.25098;stroke-width:0.886227;"/>
    <path clip-path="url(#pe64d5329f9)" d="M 172.902301 60.250995 
C 173.607391 60.250995 174.283698 59.97086 174.782272 59.472286 
C 175.280846 58.973711 175.560982 58.297405 175.560982 57.592314 
C 175.560982 56.887224 175.280846 56.210917 174.782272 55.712343 
C 174.283698 55.213769 173.607391 54.933634 172.902301 54.933634 
C 172.19721 54.933634 171.520904 55.213769 171.02233 55.712343 
C 170.523755 56.210917 170.24362 56.887224 170.24362 57.592314 
C 170.24362 58.297405 170.523755 58.973711 171.02233 59.472286 
C 171.520904 59.97086 172.19721 60.250995 172.902301 60.250995 
z
" style="fill:#e69f00;fill-opacity:0.25098;stroke:#e69f00;stroke-opacity:0.25098;stroke-width:0.886227;"/>
    <path clip-path="url(#pe64d5329f9)" d="M 202.8109 45.237567 
C 203.515991 45.237567 204.192297 44.957432 204.690871 44.458858 
C 205.189446 43.960283 205.469581 43.283977 205.469581 42.578886 
C 205.469581 41.873796 205.189446 41.197489 204.690871 40.698915 
C 204.192297 40.200341 203.515991 39.920206 202.8109 39.920206 
C 202.10581 39.920206 201.429503 40.200341 200.930929 40.698915 
C 200.432355 41.197489 200.152219 41.873796 200.152219 42.578886 
C 200.152219 43.283977 200.432355 43.960283 200.930929 44.458858 
C 201.429503 44.957432 202.10581 45.237567 202.8109 45.237567 
z
" style="fill:#e69f00;fill-opacity:0.25098;stroke:#e69f00;stroke-opacity:0.25098;stroke-width:0.886227;"/>
    <path clip-path="url(#pe64d5329f9)" d="M 265.697375 19.91459 
C 266.402465 19.91459 267.078772 19.634455 267.577346 19.13588 
C 268.07592 18.637306 268.356056 17.961 268.356056 17.255909 
C 268.356056 16.550819 268.07592 15.874512 267.577346 15.375938 
C 267.078772 14.877364 266.402465 14.597228 265.697375 14.597228 
C 264.992284 14.597228 264.315978 14.877364 263.817404 15.375938 
C 263.318829 15.874512 263.038694 16.550819 263.038694 17.255909 
C 263.038694 17.961 263.318829 18.637306 263.817404 19.13588 
C 264.315978 19.634455 264.992284 19.91459 265.697375 19.91459 
z
" style="fill:#e69f00;fill-opacity:0.25098;stroke:#e69f00;stroke-opacity:0.25098;stroke-width:0.886227;"/>
    <path clip-path="url(#pe64d5329f9)" d="M 235.715786 98.258459 
C 236.420877 98.258459 237.097183 97.978324 237.595757 97.47975 
C 238.094332 96.981175 238.374467 96.304869 238.374467 95.599778 
C 238.374467 94.894688 238.094332 94.218381 237.595757 93.719807 
C 237.097183 93.221233 236.420877 92.941098 235.715786 92.941098 
C 235.010696 92.941098 234.334389 93.221233 233.835815 93.719807 
C 233.337241 94.218381 233.057105 94.894688 233.057105 95.599778 
C 233.057105 96.304869 233.337241 96.981175 233.835815 97.47975 
C 234.334389 97.978324 235.010696 98.258459 235.715786 98.258459 
z
" style="fill:#e69f00;fill-opacity:0.25098;stroke:#e69f00;stroke-opacity:0.25098;stroke-width:0.886227;"/>
    <path clip-path="url(#pe64d5329f9)" d="M 203.193186 100.851574 
C 203.898277 100.851574 204.574583 100.571439 205.073158 100.072865 
C 205.571732 99.574291 205.851867 98.897984 205.851867 98.192894 
C 205.851867 97.487803 205.571732 96.811497 205.073158 96.312922 
C 204.574583 95.814348 203.898277 95.534213 203.193186 95.534213 
C 202.488096 95.534213 201.811789 95.814348 201.313215 96.312922 
C 200.814641 96.811497 200.534506 97.487803 200.534506 98.192894 
C 200.534506 98.897984 200.814641 99.574291 201.313215 100.072865 
C 201.811789 100.571439 202.488096 100.851574 203.193186 100.851574 
z
" style="fill:#e69f00;fill-opacity:0.25098;stroke:#e69f00;stroke-opacity:0.25098;stroke-width:0.886227;"/>
   </g>
   <g id="patch_3">
    <path d="M 164.152813 118.08 
L 164.152813 7.2 
" style="fill:none;stroke:#000000;stroke-linecap:square;stroke-linejoin:miter;"/>
   </g>
   <g id="patch_4">
    <path d="M 164.152812 118.08 
L 275.752813 118.08 
" style="fill:none;stroke:#000000;stroke-linecap:square;stroke-linejoin:miter;"/>
   </g>
  </g>
 </g>
 <defs>
  <clipPath id="pe64d5329f9">
   <rect height="110.88" width="111.6" x="164.152813" y="7.2"/>
  </clipPath>
 </defs>
</svg>
